ISO-10303-21;
HEADER;
FILE_DESCRIPTION(('3DEXPERIENCE STEP','CAx-IF Rec.Pracs.--- Model Styling and Organization---1.5--- 2016-08-15','CAx-IF Rec.Pracs.---Supplemental Geometry---1.0---2011-11-01','CAx-IF Rec.Pracs.--- Composite Materials ---3.4---2017-06-13','CAx-IF Rec.Pracs.---Tessellated 3D Geometry---1.0---2015-12-17'),'2;1');

FILE_NAME('\\\\?\\D:\\School\\CarTech\\CTU.25\\Tutorials\\Model\\OEM\\Banjo.stp','2024-09-26T02:42:20+00:00',('none'),('none'),'3DEXPERIENCE Platform3DEXPERIENCE R2024x HotFix 4.24','3DEXPERIENCE Platform STEP AP242 v3','none');

FILE_SCHEMA(('AP242_MANAGED_MODEL_BASED_3D_ENGINEERING_MIM_LF  {1 0 10303 442 1 1 4}'));

ENDSEC;
DATA;
#16=PRODUCT('Banjo_goodridge_5091-02-03','Banjo_goodridge_5091-02-03','',(#2)) ;
#2=PRODUCT_CONTEXT(' ',#1,'mechanical') ;
#1=APPLICATION_CONTEXT('managed model based 3d engineering') ;
#18=PRODUCT_DEFINITION('Banjo_goodridge_5091-02-03',' ',#17,#3) ;
#3=PRODUCT_DEFINITION_CONTEXT('part definition',#1,' ') ;
#19=PRODUCT_DEFINITION_SHAPE(' ',' ',#18) ;
#1225=MECHANICAL_DESIGN_GEOMETRIC_PRESENTATION_REPRESENTATION(' ',(#29),#12) ;
#5=PRODUCT_CATEGORY('part','specification') ;
#13=SHAPE_REPRESENTATION(' ',(#15,#21),#12) ;
#14=CARTESIAN_POINT('',(0.,0.,0.)) ;
#31=CARTESIAN_POINT('Axis2P3D Location',(-7.,-14.6299304962,4.)) ;
#36=CARTESIAN_POINT('Line Origine',(-7.,1.58202340117E-11,4.)) ;
#40=CARTESIAN_POINT('Vertex',(-7.00000000001,-3.99999999998,4.)) ;
#42=CARTESIAN_POINT('Vertex',(-7.,4.00000000002,4.)) ;
#46=CARTESIAN_POINT('Control Point',(-7.,4.00000000002,4.)) ;
#47=CARTESIAN_POINT('Control Point',(-7.,4.22831500379,3.77168499621)) ;
#48=CARTESIAN_POINT('Control Point',(-7.,4.44033988693,3.52708027378)) ;
#49=CARTESIAN_POINT('Control Point',(-7.,4.63453978114,3.26771396813)) ;
#50=CARTESIAN_POINT('Control Point',(-7.,4.80955676582,2.99539967108)) ;
#51=CARTESIAN_POINT('Control Point',(-7.,4.96435664409,2.71204039454)) ;
#52=CARTESIAN_POINT('Vertex',(-6.99999999999,4.96435664452,2.71204039537)) ;
#56=CARTESIAN_POINT('Control Point',(-7.,3.99999719487,-3.99999662489)) ;
#57=CARTESIAN_POINT('Control Point',(-7.,4.41187058933,-3.58812840705)) ;
#58=CARTESIAN_POINT('Control Point',(-7.,4.77073262625,-3.12324919444)) ;
#59=CARTESIAN_POINT('Control Point',(-7.,5.0676757812,-2.61403948617)) ;
#60=CARTESIAN_POINT('Control Point',(-7.,5.52342577647,-1.53149124408)) ;
#61=CARTESIAN_POINT('Control Point',(-7.,5.69020780282,-0.368824245872)) ;
#62=CARTESIAN_POINT('Control Point',(-7.,5.69788693551,0.220571340932)) ;
#63=CARTESIAN_POINT('Control Point',(-7.,5.59579262032,1.09342525316)) ;
#64=CARTESIAN_POINT('Control Point',(-7.,5.33081641759,1.92564873166)) ;
#65=CARTESIAN_POINT('Control Point',(-7.,5.22537343672,2.19572374424)) ;
#66=CARTESIAN_POINT('Control Point',(-7.,5.10297027335,2.45830984819)) ;
#67=CARTESIAN_POINT('Control Point',(-7.,4.96435664409,2.71204039454)) ;
#68=CARTESIAN_POINT('Vertex',(-7.00000213638,3.99999841566,-3.99999784568)) ;
#71=CARTESIAN_POINT('Line Origine',(-7.,-1.47799310568E-06,-3.99999831244)) ;
#75=CARTESIAN_POINT('Vertex',(-7.,-4.00000015086,-4.)) ;
#79=CARTESIAN_POINT('Control Point',(-7.,-4.96435664406,-2.71204039454)) ;
#80=CARTESIAN_POINT('Control Point',(-7.,-4.8095567902,-2.99539962641)) ;
#81=CARTESIAN_POINT('Control Point',(-7.,-4.63453983535,-3.26771388164)) ;
#82=CARTESIAN_POINT('Control Point',(-7.,-4.4403379822,-3.52707780364)) ;
#83=CARTESIAN_POINT('Control Point',(-7.,-4.22831149707,-3.77168071768)) ;
#84=CARTESIAN_POINT('Control Point',(-7.,-3.99999586677,-3.9999947343)) ;
#85=CARTESIAN_POINT('Vertex',(-7.00000000039,-4.96435664409,-2.71204039514)) ;
#89=CARTESIAN_POINT('Control Point',(-7.,-3.99999999998,4.)) ;
#90=CARTESIAN_POINT('Control Point',(-7.,-4.41187335756,3.58812664247)) ;
#91=CARTESIAN_POINT('Control Point',(-7.,-4.77073365798,3.12324152781)) ;
#92=CARTESIAN_POINT('Control Point',(-7.,-5.0676799525,2.61400684485)) ;
#93=CARTESIAN_POINT('Control Point',(-7.,-5.52344036482,1.53147035041)) ;
#94=CARTESIAN_POINT('Control Point',(-7.,-5.69021578102,0.368808652119)) ;
#95=CARTESIAN_POINT('Control Point',(-7.,-5.69788101699,-0.2206060665)) ;
#96=CARTESIAN_POINT('Control Point',(-7.,-5.59578277903,-1.09344452793)) ;
#97=CARTESIAN_POINT('Control Point',(-7.,-5.33081268996,-1.92565520619)) ;
#98=CARTESIAN_POINT('Control Point',(-7.,-5.22537145292,-2.19572799876)) ;
#99=CARTESIAN_POINT('Control Point',(-7.,-5.10296915033,-2.45831190381)) ;
#100=CARTESIAN_POINT('Control Point',(-7.,-4.96435664406,-2.71204039454)) ;
#111=CARTESIAN_POINT('Axis2P3D Location',(0.,0.,4.)) ;
#117=CARTESIAN_POINT('Control Point',(-6.99999998106,-4.00000003315,4.)) ;
#118=CARTESIAN_POINT('Control Point',(-6.99894110161,-4.00185306947,4.)) ;
#119=CARTESIAN_POINT('Control Point',(-6.99788222216,-4.00370610579,4.)) ;
#120=CARTESIAN_POINT('Control Point',(-6.99802022826,-4.00346294324,4.)) ;
#121=CARTESIAN_POINT('Control Point',(-6.84255447476,-4.27513783171,4.)) ;
#122=CARTESIAN_POINT('Control Point',(-6.66902694728,-4.54777841317,4.)) ;
#123=CARTESIAN_POINT('Control Point',(-6.47803757402,-4.81690629098,4.)) ;
#124=CARTESIAN_POINT('Control Point',(-6.02052209572,-5.39464402305,4.)) ;
#125=CARTESIAN_POINT('Control Point',(-5.48431074789,-5.93129227618,4.)) ;
#126=CARTESIAN_POINT('Control Point',(-5.17096769443,-6.20671813312,4.)) ;
#127=CARTESIAN_POINT('Control Point',(-4.45026607885,-6.76136956583,4.)) ;
#128=CARTESIAN_POINT('Control Point',(-3.65229585169,-7.21303561406,4.)) ;
#129=CARTESIAN_POINT('Control Point',(-3.20321814735,-7.42341307158,4.)) ;
#130=CARTESIAN_POINT('Control Point',(-2.24513677939,-7.78547342603,4.)) ;
#131=CARTESIAN_POINT('Control Point',(-1.24096140858,-7.99244426917,4.)) ;
#132=CARTESIAN_POINT('Control Point',(-0.715075242016,-8.05653049913,4.)) ;
#133=CARTESIAN_POINT('Control Point',(0.34726664863,-8.09833714428,4.)) ;
#134=CARTESIAN_POINT('Control Point',(1.40225310067,-7.96621512142,4.)) ;
#135=CARTESIAN_POINT('Control Point',(1.92557931651,-7.85615853809,4.)) ;
#136=CARTESIAN_POINT('Control Point',(2.93107334859,-7.55600100265,4.)) ;
#137=CARTESIAN_POINT('Control Point',(3.87341911341,-7.09876128166,4.)) ;
#138=CARTESIAN_POINT('Control Point',(4.31682665086,-6.83807812752,4.)) ;
#139=CARTESIAN_POINT('Control Point',(4.99456516165,-6.36295021044,4.)) ;
#140=CARTESIAN_POINT('Control Point',(5.59823945147,-5.81415859526,4.)) ;
#141=CARTESIAN_POINT('Control Point',(5.81679862343,-5.59523265544,4.)) ;
#142=CARTESIAN_POINT('Control Point',(6.30189320106,-5.06048390143,4.)) ;
#143=CARTESIAN_POINT('Control Point',(6.71184062241,-4.49346839276,4.)) ;
#144=CARTESIAN_POINT('Control Point',(6.92086238762,-4.16183242551,4.)) ;
#145=CARTESIAN_POINT('Control Point',(7.2587116209,-3.54830382211,4.)) ;
#146=CARTESIAN_POINT('Control Point',(7.50923186175,-2.95625062833,4.)) ;
#147=CARTESIAN_POINT('Control Point',(7.60737455458,-2.69073973634,4.)) ;
#148=CARTESIAN_POINT('Control Point',(7.69046361681,-2.43381934782,4.)) ;
#149=CARTESIAN_POINT('Control Point',(7.76046773774,-2.18520948458,4.)) ;
#150=CARTESIAN_POINT('Vertex',(7.76046773774,-2.18520948458,4.)) ;
#154=CARTESIAN_POINT('Control Point',(7.76046785939,-2.18520905255,4.)) ;
#155=CARTESIAN_POINT('Control Point',(7.76106440813,-2.18309023921,4.)) ;
#156=CARTESIAN_POINT('Control Point',(7.76166095686,-2.18097142588,4.)) ;
#157=CARTESIAN_POINT('Control Point',(7.76135450746,-2.18205820136,4.)) ;
#158=CARTESIAN_POINT('Control Point',(7.8288783273,-1.94178938712,4.)) ;
#159=CARTESIAN_POINT('Control Point',(7.88419410245,-1.70928563405,4.)) ;
#160=CARTESIAN_POINT('Control Point',(7.92899895925,-1.48505259211,4.)) ;
#161=CARTESIAN_POINT('Control Point',(8.00697580037,-1.01258650756,4.)) ;
#162=CARTESIAN_POINT('Control Point',(8.04804966556,-0.562074817879,4.)) ;
#163=CARTESIAN_POINT('Control Point',(8.0609791181,-0.323445208976,4.)) ;
#164=CARTESIAN_POINT('Control Point',(8.06992421165,0.166370221338,4.)) ;
#165=CARTESIAN_POINT('Control Point',(8.04127545707,0.660253006579,4.)) ;
#166=CARTESIAN_POINT('Control Point',(8.01620339301,0.919377773968,4.)) ;
#167=CARTESIAN_POINT('Control Point',(7.9470396554,1.42151521082,4.)) ;
#168=CARTESIAN_POINT('Control Point',(7.82749447077,1.957690031,4.)) ;
#169=CARTESIAN_POINT('Control Point',(7.7583902957,2.21900058824,4.)) ;
#170=CARTESIAN_POINT('Control Point',(7.61041843419,2.69364355239,4.)) ;
#171=CARTESIAN_POINT('Control Point',(7.40755499928,3.19539556166,4.)) ;
#172=CARTESIAN_POINT('Control Point',(7.30958656139,3.41474861514,4.)) ;
#173=CARTESIAN_POINT('Control Point',(7.06963510181,3.90054439804,4.)) ;
#174=CARTESIAN_POINT('Control Point',(6.77141665325,4.39279087132,4.)) ;
#175=CARTESIAN_POINT('Control Point',(6.5922660864,4.65836887795,4.)) ;
#176=CARTESIAN_POINT('Control Point',(6.27462817786,5.0808723895,4.)) ;
#177=CARTESIAN_POINT('Control Point',(5.914763799,5.48451381434,4.)) ;
#178=CARTESIAN_POINT('Control Point',(5.77140420276,5.63527296446,4.)) ;
#179=CARTESIAN_POINT('Control Point',(5.29861169105,6.10116968416,4.)) ;
#180=CARTESIAN_POINT('Control Point',(4.77208900866,6.52295127053,4.)) ;
#181=CARTESIAN_POINT('Control Point',(4.38922913548,6.78666038508,4.)) ;
#182=CARTESIAN_POINT('Control Point',(3.95031291505,7.04437764269,4.)) ;
#183=CARTESIAN_POINT('Control Point',(3.4929070309,7.26652856753,4.)) ;
#184=CARTESIAN_POINT('Control Point',(3.45365239201,7.28526753425,4.)) ;
#185=CARTESIAN_POINT('Control Point',(3.41427204799,7.30374142586,4.)) ;
#186=CARTESIAN_POINT('Control Point',(3.37476446697,7.32195088706,4.)) ;
#187=CARTESIAN_POINT('Vertex',(3.37476446697,7.32195088706,4.)) ;
#191=CARTESIAN_POINT('Control Point',(-3.37476446695,7.32195088707,4.)) ;
#192=CARTESIAN_POINT('Control Point',(-3.37281851943,7.32284779482,4.)) ;
#193=CARTESIAN_POINT('Control Point',(-3.37087257191,7.32374470258,4.)) ;
#194=CARTESIAN_POINT('Control Point',(-3.37064281047,7.32384943021,4.)) ;
#195=CARTESIAN_POINT('Control Point',(-2.86824140694,7.55498311328,4.)) ;
#196=CARTESIAN_POINT('Control Point',(-2.34532345132,7.74336075373,4.)) ;
#197=CARTESIAN_POINT('Control Point',(-1.80874685328,7.88596164481,4.)) ;
#198=CARTESIAN_POINT('Control Point',(-0.735978556915,8.0744442175,4.)) ;
#199=CARTESIAN_POINT('Control Point',(0.352945127725,8.08104205049,4.)) ;
#200=CARTESIAN_POINT('Control Point',(0.886691194314,8.04000544021,4.)) ;
#201=CARTESIAN_POINT('Control Point',(1.71817915626,7.90618777437,4.)) ;
#202=CARTESIAN_POINT('Control Point',(2.52324734368,7.66643444253,4.)) ;
#203=CARTESIAN_POINT('Control Point',(2.8127667951,7.56500176657,4.)) ;
#204=CARTESIAN_POINT('Control Point',(3.09691223027,7.45001591642,4.)) ;
#205=CARTESIAN_POINT('Control Point',(3.37476446648,7.32195088728,4.)) ;
#206=CARTESIAN_POINT('Vertex',(-3.37476446695,7.32195088707,4.)) ;
#210=CARTESIAN_POINT('Control Point',(-3.37476446697,7.32195088706,4.)) ;
#211=CARTESIAN_POINT('Control Point',(-3.37671041478,7.32105397917,4.)) ;
#212=CARTESIAN_POINT('Control Point',(-3.37865636259,7.32015707128,4.)) ;
#213=CARTESIAN_POINT('Control Point',(-3.37888520107,7.32005042537,4.)) ;
#214=CARTESIAN_POINT('Control Point',(-3.70359227225,7.17011243319,4.)) ;
#215=CARTESIAN_POINT('Control Point',(-4.01967997473,7.00230995455,4.)) ;
#216=CARTESIAN_POINT('Control Point',(-4.32446229996,6.81823846234,4.)) ;
#217=CARTESIAN_POINT('Control Point',(-4.90786546614,6.4203796159,4.)) ;
#218=CARTESIAN_POINT('Control Point',(-5.44003094227,5.96550046023,4.)) ;
#219=CARTESIAN_POINT('Control Point',(-5.69068828079,5.72658155468,4.)) ;
#220=CARTESIAN_POINT('Control Point',(-6.14117490191,5.24859042316,4.)) ;
#221=CARTESIAN_POINT('Control Point',(-6.53078653377,4.74209953981,4.)) ;
#222=CARTESIAN_POINT('Control Point',(-6.7023145691,4.49558240486,4.)) ;
#223=CARTESIAN_POINT('Control Point',(-6.85864374572,4.24737345265,4.)) ;
#224=CARTESIAN_POINT('Control Point',(-7.00000005338,3.99999990658,4.)) ;
#233=CARTESIAN_POINT('Axis2P3D Location',(-4.4408920985E-16,-2.22044604925E-16,4.)) ;
#237=CARTESIAN_POINT('Vertex',(-4.38791280985,2.39712769352,4.)) ;
#239=CARTESIAN_POINT('Vertex',(4.38791280985,-2.39712769352,4.)) ;
#242=CARTESIAN_POINT('Axis2P3D Location',(4.4408920985E-16,2.22044604925E-16,4.)) ;
#252=CARTESIAN_POINT('Axis2P3D Location',(0.,0.,0.)) ;
#257=CARTESIAN_POINT('Axis2P3D Location',(0.,0.,0.)) ;
#268=CARTESIAN_POINT('Axis2P3D Location',(0.,0.,0.)) ;
#273=CARTESIAN_POINT('Axis2P3D Location',(0.,0.,0.)) ;
#277=CARTESIAN_POINT('Vertex',(7.76046919615,2.18520865978,-3.99999762111)) ;
#279=CARTESIAN_POINT('Vertex',(8.29156197589,1.67798938511,-3.07153896662)) ;
#283=CARTESIAN_POINT('Control Point',(-6.9999999932,4.0000000119,-4.)) ;
#284=CARTESIAN_POINT('Control Point',(-6.99915683739,4.00147553415,-4.00000000042)) ;
#285=CARTESIAN_POINT('Control Point',(-6.99831348718,4.0029511154,-3.9999993795)) ;
#286=CARTESIAN_POINT('Control Point',(-6.99802024042,4.00346292199,-4.)) ;
#287=CARTESIAN_POINT('Control Point',(-6.99565392717,4.00759803134,-4.)) ;
#288=CARTESIAN_POINT('Control Point',(-6.99328342951,4.01173336444,-4.)) ;
#289=CARTESIAN_POINT('Control Point',(-6.99157249491,4.01471440796,-3.99999999999)) ;
#290=CARTESIAN_POINT('Control Point',(-6.98735663255,4.02205084574,-3.99999999994)) ;
#291=CARTESIAN_POINT('Control Point',(-6.98312759582,4.02938790722,-3.9999999998)) ;
#292=CARTESIAN_POINT('Control Point',(-6.98061237808,4.03374377031,-3.99999999968)) ;
#293=CARTESIAN_POINT('Control Point',(-6.97317987376,4.04659224776,-3.99999999915)) ;
#294=CARTESIAN_POINT('Control Point',(-6.96570695,4.05944227678,-3.99999999807)) ;
#295=CARTESIAN_POINT('Control Point',(-6.96074992716,4.06793629986,-3.99999999704)) ;
#296=CARTESIAN_POINT('Control Point',(-6.94582584412,4.09341978738,-3.99999999278)) ;
#297=CARTESIAN_POINT('Control Point',(-6.93074266942,4.11890660525,-3.99999998451)) ;
#298=CARTESIAN_POINT('Control Point',(-6.92061646946,4.13589847561,-3.99999997676)) ;
#299=CARTESIAN_POINT('Control Point',(-6.89002553037,4.18687359179,-3.99999994585)) ;
#300=CARTESIAN_POINT('Control Point',(-6.85879742609,4.23783980523,-3.99999989085)) ;
#301=CARTESIAN_POINT('Control Point',(-6.83769537418,4.2718067303,-3.99999984239)) ;
#302=CARTESIAN_POINT('Control Point',(-6.77353951162,4.37365603294,-3.99999966679)) ;
#303=CARTESIAN_POINT('Control Point',(-6.70683712913,4.4752915994,-3.99999943062)) ;
#304=CARTESIAN_POINT('Control Point',(-6.66123939396,4.54290092193,-3.99999927302)) ;
#305=CARTESIAN_POINT('Control Point',(-6.52107475549,4.7451283222,-3.99999895257)) ;
#306=CARTESIAN_POINT('Control Point',(-6.37087459847,4.94509266589,-3.99999922134)) ;
#307=CARTESIAN_POINT('Control Point',(-6.26635059995,5.07698609345,-3.99999997733)) ;
#308=CARTESIAN_POINT('Control Point',(-5.89884733362,5.51641784154,-4.00000005391)) ;
#309=CARTESIAN_POINT('Control Point',(-5.48431079006,5.93129243275,-3.9999998718)) ;
#310=CARTESIAN_POINT('Control Point',(-5.17096766556,6.20671823331,-3.99999989382)) ;
#311=CARTESIAN_POINT('Control Point',(-4.03569384634,7.08042386359,-4.00000025692)) ;
#312=CARTESIAN_POINT('Control Point',(-2.70868792512,7.69858670305,-3.99999937833)) ;
#313=CARTESIAN_POINT('Control Point',(-1.70814390184,7.97963908613,-4.00000003837)) ;
#314=CARTESIAN_POINT('Control Point',(0.371519436052,8.21959106773,-3.99999996072)) ;
#315=CARTESIAN_POINT('Control Point',(2.42317822791,7.79728477512,-4.0000000402)) ;
#316=CARTESIAN_POINT('Control Point',(3.41751398893,7.41693630963,-4.00000075696)) ;
#317=CARTESIAN_POINT('Control Point',(4.98330364469,6.49305316965,-3.99999945937)) ;
#318=CARTESIAN_POINT('Control Point',(6.20383700831,5.22577773244,-4.00000038612)) ;
#319=CARTESIAN_POINT('Control Point',(6.63907115634,4.6519824449,-3.99999992679)) ;
#320=CARTESIAN_POINT('Control Point',(7.1593305918,3.78317076255,-4.0000000361)) ;
#321=CARTESIAN_POINT('Control Point',(7.50923128825,2.95625172635,-3.99999998219)) ;
#322=CARTESIAN_POINT('Control Point',(7.60737506085,2.69073890932,-3.99999975255)) ;
#323=CARTESIAN_POINT('Control Point',(7.69046386092,2.43381910533,-3.99999966503)) ;
#324=CARTESIAN_POINT('Control Point',(7.76046782823,2.18520977638,-3.99999966503)) ;
#326=CARTESIAN_POINT('Axis2P3D Location',(0.,0.,0.)) ;
#330=CARTESIAN_POINT('Vertex',(8.29156197589,3.07153896662,1.67798938511)) ;
#333=CARTESIAN_POINT('Axis2P3D Location',(8.29156197589,-2.00051928802E-16,3.66192599378E-16)) ;
#348=CARTESIAN_POINT('Axis2P3D Location',(0.,0.,-4.)) ;
#354=CARTESIAN_POINT('Control Point',(7.76046785939,2.18520905255,-4.)) ;
#355=CARTESIAN_POINT('Control Point',(7.76106440813,2.18309023921,-4.)) ;
#356=CARTESIAN_POINT('Control Point',(7.76166095686,2.18097142588,-4.)) ;
#357=CARTESIAN_POINT('Control Point',(7.76135450746,2.18205820136,-4.)) ;
#358=CARTESIAN_POINT('Control Point',(7.8288783273,1.94178938712,-4.)) ;
#359=CARTESIAN_POINT('Control Point',(7.88419410245,1.70928563405,-4.)) ;
#360=CARTESIAN_POINT('Control Point',(7.92899895925,1.48505259211,-4.)) ;
#361=CARTESIAN_POINT('Control Point',(8.00697580037,1.01258650756,-4.)) ;
#362=CARTESIAN_POINT('Control Point',(8.04804966556,0.562074817876,-4.)) ;
#363=CARTESIAN_POINT('Control Point',(8.0609791181,0.323445208977,-4.)) ;
#364=CARTESIAN_POINT('Control Point',(8.06992421165,-0.166370221336,-4.)) ;
#365=CARTESIAN_POINT('Control Point',(8.04127545707,-0.660253006579,-4.)) ;
#366=CARTESIAN_POINT('Control Point',(8.01620339301,-0.919377773968,-4.)) ;
#367=CARTESIAN_POINT('Control Point',(7.9470396554,-1.42151521082,-4.)) ;
#368=CARTESIAN_POINT('Control Point',(7.82749447077,-1.95769003101,-4.)) ;
#369=CARTESIAN_POINT('Control Point',(7.7583902957,-2.21900058824,-4.)) ;
#370=CARTESIAN_POINT('Control Point',(7.61041843419,-2.69364355239,-4.)) ;
#371=CARTESIAN_POINT('Control Point',(7.40755499928,-3.19539556166,-4.)) ;
#372=CARTESIAN_POINT('Control Point',(7.30958656139,-3.41474861513,-4.)) ;
#373=CARTESIAN_POINT('Control Point',(7.06963510181,-3.90054439803,-4.)) ;
#374=CARTESIAN_POINT('Control Point',(6.77141665325,-4.39279087132,-4.)) ;
#375=CARTESIAN_POINT('Control Point',(6.5922660864,-4.65836887795,-4.)) ;
#376=CARTESIAN_POINT('Control Point',(6.27462817786,-5.0808723895,-4.)) ;
#377=CARTESIAN_POINT('Control Point',(5.914763799,-5.48451381434,-4.)) ;
#378=CARTESIAN_POINT('Control Point',(5.77140420276,-5.63527296446,-4.)) ;
#379=CARTESIAN_POINT('Control Point',(5.29861169105,-6.10116968416,-4.)) ;
#380=CARTESIAN_POINT('Control Point',(4.77208900866,-6.52295127053,-4.)) ;
#381=CARTESIAN_POINT('Control Point',(4.38922913549,-6.78666038508,-4.)) ;
#382=CARTESIAN_POINT('Control Point',(3.95031291505,-7.04437764269,-4.)) ;
#383=CARTESIAN_POINT('Control Point',(3.4929070309,-7.26652856753,-4.)) ;
#384=CARTESIAN_POINT('Control Point',(3.45365239201,-7.28526753425,-4.)) ;
#385=CARTESIAN_POINT('Control Point',(3.41427204799,-7.30374142586,-4.)) ;
#386=CARTESIAN_POINT('Control Point',(3.37476446697,-7.32195088706,-4.)) ;
#387=CARTESIAN_POINT('Vertex',(3.37476446648,-7.32195088728,-4.)) ;
#391=CARTESIAN_POINT('Control Point',(-3.37476446695,-7.32195088707,-4.)) ;
#392=CARTESIAN_POINT('Control Point',(-3.37281851943,-7.32284779482,-4.)) ;
#393=CARTESIAN_POINT('Control Point',(-3.37087257191,-7.32374470258,-4.)) ;
#394=CARTESIAN_POINT('Control Point',(-3.37064281047,-7.32384943021,-4.)) ;
#395=CARTESIAN_POINT('Control Point',(-2.86824140694,-7.55498311328,-4.)) ;
#396=CARTESIAN_POINT('Control Point',(-2.34532345132,-7.74336075373,-4.)) ;
#397=CARTESIAN_POINT('Control Point',(-1.80874685328,-7.88596164481,-4.)) ;
#398=CARTESIAN_POINT('Control Point',(-0.735978556913,-8.0744442175,-4.)) ;
#399=CARTESIAN_POINT('Control Point',(0.352945127729,-8.08104205049,-4.)) ;
#400=CARTESIAN_POINT('Control Point',(0.886691194308,-8.04000544021,-4.)) ;
#401=CARTESIAN_POINT('Control Point',(1.71817915626,-7.90618777437,-4.)) ;
#402=CARTESIAN_POINT('Control Point',(2.52324734368,-7.66643444253,-4.)) ;
#403=CARTESIAN_POINT('Control Point',(2.8127667951,-7.56500176657,-4.)) ;
#404=CARTESIAN_POINT('Control Point',(3.09691223027,-7.45001591642,-4.)) ;
#405=CARTESIAN_POINT('Control Point',(3.37476446648,-7.32195088728,-4.)) ;
#406=CARTESIAN_POINT('Vertex',(-3.37476446697,-7.32195088706,-4.)) ;
#410=CARTESIAN_POINT('Control Point',(-3.37476446697,-7.32195088706,-4.)) ;
#411=CARTESIAN_POINT('Control Point',(-3.37671041478,-7.32105397917,-4.)) ;
#412=CARTESIAN_POINT('Control Point',(-3.37865636259,-7.32015707128,-4.)) ;
#413=CARTESIAN_POINT('Control Point',(-3.37888520107,-7.32005042537,-4.)) ;
#414=CARTESIAN_POINT('Control Point',(-3.70359227226,-7.17011243319,-4.)) ;
#415=CARTESIAN_POINT('Control Point',(-4.01967997473,-7.00230995455,-4.)) ;
#416=CARTESIAN_POINT('Control Point',(-4.32446229996,-6.81823846234,-4.)) ;
#417=CARTESIAN_POINT('Control Point',(-4.90786546614,-6.4203796159,-4.)) ;
#418=CARTESIAN_POINT('Control Point',(-5.44003094227,-5.96550046023,-4.)) ;
#419=CARTESIAN_POINT('Control Point',(-5.69068828079,-5.72658155468,-4.)) ;
#420=CARTESIAN_POINT('Control Point',(-6.14117485548,-5.24859047243,-4.)) ;
#421=CARTESIAN_POINT('Control Point',(-6.53078645345,-4.74209964423,-4.)) ;
#422=CARTESIAN_POINT('Control Point',(-6.70231445822,-4.49558256423,-4.)) ;
#423=CARTESIAN_POINT('Control Point',(-6.85864361098,-4.24737366658,-4.)) ;
#424=CARTESIAN_POINT('Control Point',(-6.99999990108,-4.00000017311,-4.)) ;
#433=CARTESIAN_POINT('Axis2P3D Location',(4.4408920985E-16,2.22044604925E-16,-4.)) ;
#437=CARTESIAN_POINT('Vertex',(4.38791280985,-2.39712769352,-4.)) ;
#439=CARTESIAN_POINT('Vertex',(-4.38791280985,2.39712769352,-4.)) ;
#442=CARTESIAN_POINT('Axis2P3D Location',(-4.4408920985E-16,-2.22044604925E-16,-4.)) ;
#452=CARTESIAN_POINT('Axis2P3D Location',(0.,0.,0.)) ;
#457=CARTESIAN_POINT('Axis2P3D Location',(0.,0.,0.)) ;
#468=CARTESIAN_POINT('Axis2P3D Location',(0.,0.,0.)) ;
#473=CARTESIAN_POINT('Axis2P3D Location',(0.,0.,0.)) ;
#477=CARTESIAN_POINT('Vertex',(8.29156197592,-1.67798938508,3.07153896655)) ;
#480=CARTESIAN_POINT('Axis2P3D Location',(0.,0.,0.)) ;
#484=CARTESIAN_POINT('Vertex',(8.29156197592,-3.07153896656,-1.67798938508)) ;
#487=CARTESIAN_POINT('Axis2P3D Location',(8.29156197592,-2.00051928803E-16,3.66192599379E-16)) ;
#502=CARTESIAN_POINT('Axis2P3D Location',(8.29156197591,-2.00051928803E-16,3.66192599379E-16)) ;
#514=CARTESIAN_POINT('Axis2P3D Location',(8.881784197E-16,2.22044604925E-16,3.9)) ;
#519=CARTESIAN_POINT('Line Origine',(4.38791280945,-2.39712769302,3.90000000037)) ;
#524=CARTESIAN_POINT('Line Origine',(-4.38791280945,2.39712769302,3.90000000037)) ;
#543=CARTESIAN_POINT('Control Point',(4.82360445164,1.31637384286,-0.719138307862)) ;
#544=CARTESIAN_POINT('Control Point',(4.82463958753,1.31258078199,-0.726081459205)) ;
#545=CARTESIAN_POINT('Control Point',(4.82567099506,1.30878670365,-0.733024610548)) ;
#546=CARTESIAN_POINT('Control Point',(4.82581276071,1.30825964765,-0.733828056847)) ;
#547=CARTESIAN_POINT('Control Point',(4.82874610811,1.29742128611,-0.753024519305)) ;
#548=CARTESIAN_POINT('Control Point',(4.83174010057,1.28623530444,-0.772013220602)) ;
#549=CARTESIAN_POINT('Control Point',(4.83400599691,1.27769576338,-0.786065477589)) ;
#550=CARTESIAN_POINT('Control Point',(4.83946728821,1.25692466633,-0.81921359734)) ;
#551=CARTESIAN_POINT('Control Point',(4.84508022158,1.23509444226,-0.851652668092)) ;
#552=CARTESIAN_POINT('Control Point',(4.84837911916,1.22208804284,-0.870213083979)) ;
#553=CARTESIAN_POINT('Control Point',(4.85829504444,1.18242054884,-0.924605035439)) ;
#554=CARTESIAN_POINT('Control Point',(4.86849313585,1.13977170175,-0.976683044932)) ;
#555=CARTESIAN_POINT('Control Point',(4.87533401188,1.11021251141,-1.01015638498)) ;
#556=CARTESIAN_POINT('Control Point',(4.90867594775,0.960775845657,-1.16720737637)) ;
#557=CARTESIAN_POINT('Control Point',(4.94145296931,0.783961694763,-1.29632031941)) ;
#558=CARTESIAN_POINT('Control Point',(4.96432694926,0.629199681204,-1.37831464955)) ;
#559=CARTESIAN_POINT('Control Point',(5.00020860053,0.280996425492,-1.50196577411)) ;
#560=CARTESIAN_POINT('Control Point',(5.00501850266,-0.0908842419476,-1.51618480599)) ;
#561=CARTESIAN_POINT('Control Point',(4.99732614039,-0.285814780355,-1.49162302002)) ;
#562=CARTESIAN_POINT('Control Point',(4.9555227184,-0.754702598212,-1.35314144379)) ;
#563=CARTESIAN_POINT('Control Point',(4.87670513789,-1.1366213779,-1.04245158275)) ;
#564=CARTESIAN_POINT('Control Point',(4.82590988297,-1.31673024732,-0.804342482919)) ;
#565=CARTESIAN_POINT('Control Point',(4.76617876411,-1.51289309875,-0.341784602085)) ;
#566=CARTESIAN_POINT('Control Point',(4.76568536268,-1.51212608367,0.156040610932)) ;
#567=CARTESIAN_POINT('Control Point',(4.77711176786,-1.47758476331,0.356204339097)) ;
#568=CARTESIAN_POINT('Control Point',(4.79775684592,-1.41108753429,0.545766058431)) ;
#569=CARTESIAN_POINT('Control Point',(4.82360445155,-1.31637384318,0.719138307283)) ;
#570=CARTESIAN_POINT('Vertex',(4.82360445164,1.31637384286,-0.719138307862)) ;
#572=CARTESIAN_POINT('Vertex',(4.82360445159,-1.31637384301,0.71913830758)) ;
#576=CARTESIAN_POINT('Control Point',(4.82360445159,-1.31637384301,0.71913830758)) ;
#577=CARTESIAN_POINT('Control Point',(4.82463958749,-1.31258078215,0.726081458922)) ;
#578=CARTESIAN_POINT('Control Point',(4.82567099502,-1.3087867038,0.733024610265)) ;
#579=CARTESIAN_POINT('Control Point',(4.82581276069,-1.30825964773,0.733828056704)) ;
#580=CARTESIAN_POINT('Control Point',(4.82874610809,-1.2974212862,0.753024519164)) ;
#581=CARTESIAN_POINT('Control Point',(4.83174010054,-1.28623530452,0.772013220462)) ;
#582=CARTESIAN_POINT('Control Point',(4.83400599689,-1.27769576347,0.786065477449)) ;
#583=CARTESIAN_POINT('Control Point',(4.83946728819,-1.25692466642,0.819213597203)) ;
#584=CARTESIAN_POINT('Control Point',(4.84508022156,-1.23509444235,0.851652667957)) ;
#585=CARTESIAN_POINT('Control Point',(4.84837911914,-1.22208804294,0.870213083845)) ;
#586=CARTESIAN_POINT('Control Point',(4.85829504442,-1.18242054895,0.92460503531)) ;
#587=CARTESIAN_POINT('Control Point',(4.86849313582,-1.13977170186,0.976683044807)) ;
#588=CARTESIAN_POINT('Control Point',(4.87533401186,-1.11021251152,1.01015638485)) ;
#589=CARTESIAN_POINT('Control Point',(4.90867594772,-0.960775845787,1.16720737627)) ;
#590=CARTESIAN_POINT('Control Point',(4.94145296929,-0.783961694909,1.29632031932)) ;
#591=CARTESIAN_POINT('Control Point',(4.96432694924,-0.629199681359,1.37831464948)) ;
#592=CARTESIAN_POINT('Control Point',(5.00020860052,-0.280996425667,1.50196577408)) ;
#593=CARTESIAN_POINT('Control Point',(5.00501850266,0.0908842417643,1.516184806)) ;
#594=CARTESIAN_POINT('Control Point',(4.9973261404,0.285814780191,1.49162302005)) ;
#595=CARTESIAN_POINT('Control Point',(4.95552271842,0.754702598059,1.35314144387)) ;
#596=CARTESIAN_POINT('Control Point',(4.87670513792,1.13662137778,1.04245158288)) ;
#597=CARTESIAN_POINT('Control Point',(4.825909883,1.31673024723,0.804342483065)) ;
#598=CARTESIAN_POINT('Control Point',(4.76617876411,1.51289309878,0.341784602102)) ;
#599=CARTESIAN_POINT('Control Point',(4.76568536267,1.51212608369,-0.156040611093)) ;
#600=CARTESIAN_POINT('Control Point',(4.77711176788,1.47758476326,-0.356204339419)) ;
#601=CARTESIAN_POINT('Control Point',(4.79775684597,1.41108753413,-0.545766058893)) ;
#602=CARTESIAN_POINT('Control Point',(4.82360445163,1.31637384287,-0.719138307847)) ;
#609=CARTESIAN_POINT('Axis2P3D Location',(8.29156197592,-2.00051928803E-16,3.66192599379E-16)) ;
#621=CARTESIAN_POINT('Axis2P3D Location',(5.5,-1.62703074744E-15,0.)) ;
#626=CARTESIAN_POINT('Line Origine',(5.5,-3.07153896662,-1.67798938511)) ;
#630=CARTESIAN_POINT('Vertex',(9.,-3.07153896613,-1.67798938601)) ;
#633=CARTESIAN_POINT('Line Origine',(5.5,3.07153896662,1.67798938511)) ;
#637=CARTESIAN_POINT('Vertex',(9.,3.07153896662,1.67798938511)) ;
#640=CARTESIAN_POINT('Axis2P3D Location',(9.,-1.99442478718E-15,-9.62234659559E-28)) ;
#653=CARTESIAN_POINT('Axis2P3D Location',(9.,-1.99442478718E-15,-9.62234659559E-28)) ;
#666=CARTESIAN_POINT('Axis2P3D Location',(16.9,-4.4408920985E-16,3.33066907388E-16)) ;
#671=CARTESIAN_POINT('Line Origine',(16.9000000004,-1.31637384284,0.719138307906)) ;
#675=CARTESIAN_POINT('Vertex',(16.9999999996,-1.31637384321,0.719138307223)) ;
#678=CARTESIAN_POINT('Axis2P3D Location',(16.9999999996,-4.4408920985E-16,3.33066907388E-16)) ;
#682=CARTESIAN_POINT('Vertex',(16.9999999996,1.31637384284,-0.719138307906)) ;
#685=CARTESIAN_POINT('Line Origine',(16.9000000004,1.31637384284,-0.719138307906)) ;
#697=CARTESIAN_POINT('Axis2P3D Location',(16.9999999996,-4.4408920985E-16,3.33066907388E-16)) ;
#709=CARTESIAN_POINT('Axis2P3D Location',(9.,0.,0.)) ;
#714=CARTESIAN_POINT('Line Origine',(9.,3.89711431693,2.25)) ;
#718=CARTESIAN_POINT('Vertex',(9.,5.19615242258,0.)) ;
#720=CARTESIAN_POINT('Vertex',(9.,2.59807621129,4.5)) ;
#723=CARTESIAN_POINT('Line Origine',(9.,3.89711431693,-2.25)) ;
#727=CARTESIAN_POINT('Vertex',(9.,2.59807621129,-4.5)) ;
#730=CARTESIAN_POINT('Line Origine',(9.,0.,-4.5)) ;
#734=CARTESIAN_POINT('Vertex',(9.,-2.59807621129,-4.5)) ;
#737=CARTESIAN_POINT('Line Origine',(9.,-3.89711431693,-2.25)) ;
#741=CARTESIAN_POINT('Vertex',(9.,-5.19615242258,0.)) ;
#744=CARTESIAN_POINT('Line Origine',(9.,-3.89711431693,2.25)) ;
#748=CARTESIAN_POINT('Vertex',(9.,-2.59807621129,4.5)) ;
#751=CARTESIAN_POINT('Line Origine',(9.,0.,4.5)) ;
#769=CARTESIAN_POINT('Axis2P3D Location',(17.,1.11022302463E-16,4.99600361081E-16)) ;
#774=CARTESIAN_POINT('Axis2P3D Location',(17.,4.84335943902E-28,9.43689570931E-16)) ;
#778=CARTESIAN_POINT('Vertex',(17.,-2.63274768554,1.43827661499)) ;
#780=CARTESIAN_POINT('Vertex',(17.,2.63274768554,-1.43827661499)) ;
#783=CARTESIAN_POINT('Axis2P3D Location',(17.,2.22044604926E-16,5.55111512309E-17)) ;
#797=CARTESIAN_POINT('Axis2P3D Location',(9.,5.19615242271,0.)) ;
#802=CARTESIAN_POINT('Line Origine',(11.5,5.19615242271,0.)) ;
#806=CARTESIAN_POINT('Vertex',(14.,5.19615242271,0.)) ;
#809=CARTESIAN_POINT('Line Origine',(11.5,2.59807621142,4.49999999989)) ;
#813=CARTESIAN_POINT('Vertex',(14.,2.59807621142,4.49999999989)) ;
#816=CARTESIAN_POINT('Line Origine',(14.,3.89711431707,2.24999999994)) ;
#828=CARTESIAN_POINT('Axis2P3D Location',(9.,2.59807621135,-4.5)) ;
#833=CARTESIAN_POINT('Line Origine',(11.5,2.59807621135,-4.5)) ;
#837=CARTESIAN_POINT('Vertex',(14.,2.59807621135,-4.5)) ;
#840=CARTESIAN_POINT('Line Origine',(14.,3.89711431699,-2.25000000006)) ;
#852=CARTESIAN_POINT('Axis2P3D Location',(9.,-2.59807621135,-4.5)) ;
#857=CARTESIAN_POINT('Line Origine',(11.5,-2.59807621135,-4.5)) ;
#861=CARTESIAN_POINT('Vertex',(14.,-2.59807621135,-4.5)) ;
#864=CARTESIAN_POINT('Line Origine',(14.,-6.14286399525E-11,-4.5)) ;
#876=CARTESIAN_POINT('Axis2P3D Location',(9.,-5.19615242271,-8.881784197E-16)) ;
#881=CARTESIAN_POINT('Line Origine',(11.5,-5.19615242271,-8.881784197E-16)) ;
#885=CARTESIAN_POINT('Vertex',(14.,-5.19615242271,-8.881784197E-16)) ;
#888=CARTESIAN_POINT('Line Origine',(14.,-3.89711431707,-2.24999999994)) ;
#900=CARTESIAN_POINT('Axis2P3D Location',(9.,-2.59807621135,4.5)) ;
#905=CARTESIAN_POINT('Line Origine',(11.5,-2.59807621135,4.5)) ;
#909=CARTESIAN_POINT('Vertex',(14.,-2.59807621135,4.5)) ;
#912=CARTESIAN_POINT('Line Origine',(14.,-3.89711431699,2.25000000006)) ;
#924=CARTESIAN_POINT('Axis2P3D Location',(9.,2.59807621135,4.5)) ;
#929=CARTESIAN_POINT('Line Origine',(14.,6.14286399525E-11,4.5)) ;
#941=CARTESIAN_POINT('Axis2P3D Location',(21.9,1.11022302463E-16,4.99600361081E-16)) ;
#946=CARTESIAN_POINT('Axis2P3D Location',(21.9999999996,1.11022302463E-16,4.99600361081E-16)) ;
#950=CARTESIAN_POINT('Vertex',(21.9999999996,-2.63274768567,1.43827661581)) ;
#952=CARTESIAN_POINT('Vertex',(21.9999999996,2.63274768567,-1.43827661581)) ;
#955=CARTESIAN_POINT('Line Origine',(21.9000000004,-2.63274768567,1.43827661581)) ;
#960=CARTESIAN_POINT('Line Origine',(21.9000000004,2.63274768567,-1.43827661581)) ;
#972=CARTESIAN_POINT('Axis2P3D Location',(21.9999999996,1.11022302463E-16,4.99600361081E-16)) ;
#984=CARTESIAN_POINT('Axis2P3D Location',(14.,0.,0.)) ;
#998=CARTESIAN_POINT('Control Point',(14.,-1.91770215519,-3.51033024676)) ;
#999=CARTESIAN_POINT('Control Point',(14.,-2.26158909672,-3.32246395438)) ;
#1000=CARTESIAN_POINT('Control Point',(14.,-2.58247007582,-3.09248725799)) ;
#1001=CARTESIAN_POINT('Control Point',(14.,-2.87364136248,-2.82397186172)) ;
#1002=CARTESIAN_POINT('Control Point',(14.,-3.38396197746,-2.22148236051)) ;
#1003=CARTESIAN_POINT('Control Point',(14.,-3.73382623152,-1.51366139322)) ;
#1004=CARTESIAN_POINT('Control Point',(14.,-3.86440955182,-1.13972390577)) ;
#1005=CARTESIAN_POINT('Control Point',(14.,-4.0312250558,-0.367976988313)) ;
#1006=CARTESIAN_POINT('Control Point',(14.,-4.00689497128,0.421214708979)) ;
#1007=CARTESIAN_POINT('Control Point',(14.,-3.94617391503,0.812615044286)) ;
#1008=CARTESIAN_POINT('Control Point',(14.,-3.73024522426,1.57208557974)) ;
#1009=CARTESIAN_POINT('Control Point',(14.,-3.33744385384,2.25701078051)) ;
#1010=CARTESIAN_POINT('Control Point',(14.,-3.09970147251,2.57380701828)) ;
#1011=CARTESIAN_POINT('Control Point',(14.,-2.55182031062,3.1423551088)) ;
#1012=CARTESIAN_POINT('Control Point',(14.,-1.8829441623,3.56190264375)) ;
#1013=CARTESIAN_POINT('Control Point',(14.,-1.52410331301,3.72957649662)) ;
#1014=CARTESIAN_POINT('Control Point',(14.,-0.773144723655,3.97346571315)) ;
#1015=CARTESIAN_POINT('Control Point',(14.,0.0144701693583,4.02894772244)) ;
#1016=CARTESIAN_POINT('Control Point',(14.,0.410001282133,4.00805822086)) ;
#1017=CARTESIAN_POINT('Control Point',(14.,0.958956778,3.91051178378)) ;
#1018=CARTESIAN_POINT('Control Point',(14.,1.47983597479,3.72146552758)) ;
#1019=CARTESIAN_POINT('Control Point',(14.,1.63022219221,3.65808627668)) ;
#1020=CARTESIAN_POINT('Control Point',(14.,1.77591754998,3.5877875296)) ;
#1021=CARTESIAN_POINT('Control Point',(14.,1.91770215519,3.51033024676)) ;
#1022=CARTESIAN_POINT('Vertex',(14.,-1.91770215535,-3.51033024705)) ;
#1024=CARTESIAN_POINT('Vertex',(14.,1.91770215535,3.51033024705)) ;
#1028=CARTESIAN_POINT('Control Point',(14.,1.91770215519,3.51033024676)) ;
#1029=CARTESIAN_POINT('Control Point',(14.,2.26158909673,3.32246395437)) ;
#1030=CARTESIAN_POINT('Control Point',(14.,2.58247007585,3.09248725798)) ;
#1031=CARTESIAN_POINT('Control Point',(14.,2.87364136247,2.82397186175)) ;
#1032=CARTESIAN_POINT('Control Point',(14.,3.38396197745,2.22148236052)) ;
#1033=CARTESIAN_POINT('Control Point',(14.,3.73382623153,1.51366139323)) ;
#1034=CARTESIAN_POINT('Control Point',(14.,3.86440955181,1.13972390576)) ;
#1035=CARTESIAN_POINT('Control Point',(14.,4.03122505578,0.367976988322)) ;
#1036=CARTESIAN_POINT('Control Point',(14.,4.00689497133,-0.421214708949)) ;
#1037=CARTESIAN_POINT('Control Point',(14.,3.94617391496,-0.812615044295)) ;
#1038=CARTESIAN_POINT('Control Point',(14.,3.73024522427,-1.57208557973)) ;
#1039=CARTESIAN_POINT('Control Point',(14.,3.33744385391,-2.2570107805)) ;
#1040=CARTESIAN_POINT('Control Point',(14.,3.09970147246,-2.57380701826)) ;
#1041=CARTESIAN_POINT('Control Point',(14.,2.55182030778,-3.14235511175)) ;
#1042=CARTESIAN_POINT('Control Point',(14.,1.88294415542,-3.56190264811)) ;
#1043=CARTESIAN_POINT('Control Point',(14.,1.52410331532,-3.72957649467)) ;
#1044=CARTESIAN_POINT('Control Point',(14.,0.773144719757,-3.97346571362)) ;
#1045=CARTESIAN_POINT('Control Point',(14.,-0.0144701799279,-4.02894772224)) ;
#1046=CARTESIAN_POINT('Control Point',(14.,-0.41000128122,-4.0080582207)) ;
#1047=CARTESIAN_POINT('Control Point',(14.,-0.958956778724,-3.91051178311)) ;
#1048=CARTESIAN_POINT('Control Point',(14.,-1.47983597689,-3.72146552594)) ;
#1049=CARTESIAN_POINT('Control Point',(14.,-1.63022219366,-3.65808627599)) ;
#1050=CARTESIAN_POINT('Control Point',(14.,-1.77591755068,-3.58778752923)) ;
#1051=CARTESIAN_POINT('Control Point',(14.,-1.91770215519,-3.51033024676)) ;
#1058=CARTESIAN_POINT('Axis2P3D Location',(22.,0.,4.5)) ;
#1063=CARTESIAN_POINT('Axis2P3D Location',(22.,0.,0.)) ;
#1067=CARTESIAN_POINT('Vertex',(22.,2.15741492435,3.94912152924)) ;
#1069=CARTESIAN_POINT('Vertex',(22.,-2.15741492435,-3.94912152924)) ;
#1072=CARTESIAN_POINT('Axis2P3D Location',(22.,0.,0.)) ;
#1086=CARTESIAN_POINT('Axis2P3D Location',(18.,0.,0.)) ;
#1091=CARTESIAN_POINT('Line Origine',(18.,-1.91770215442,-3.51033024756)) ;
#1095=CARTESIAN_POINT('Vertex',(20.1339745969,-1.91770215442,-3.51033024756)) ;
#1099=CARTESIAN_POINT('Control Point',(20.1339745969,-1.91770215442,-3.51033024756)) ;
#1100=CARTESIAN_POINT('Control Point',(20.1339745969,-2.46910354029,-3.20909829755)) ;
#1101=CARTESIAN_POINT('Control Point',(20.1339745969,-2.96135817109,-2.79959893861)) ;
#1102=CARTESIAN_POINT('Control Point',(20.1339745969,-3.36602582021,-2.29723020445)) ;
#1103=CARTESIAN_POINT('Control Point',(20.1339745969,-3.95657821058,-1.16089167201)) ;
#1104=CARTESIAN_POINT('Control Point',(20.1339745969,-4.07361183839,0.114381050203)) ;
#1105=CARTESIAN_POINT('Control Point',(20.1339745969,-4.00452673863,0.755752627605)) ;
#1106=CARTESIAN_POINT('Control Point',(20.1339745969,-3.6185976565,1.97684890949)) ;
#1107=CARTESIAN_POINT('Control Point',(20.1339745969,-2.79959893861,2.96135817109)) ;
#1108=CARTESIAN_POINT('Control Point',(20.1339745969,-2.29723020445,3.36602582021)) ;
#1109=CARTESIAN_POINT('Control Point',(20.1339745969,-1.16089167202,3.95657821058)) ;
#1110=CARTESIAN_POINT('Control Point',(20.1339745969,0.114381050201,4.07361183839)) ;
#1111=CARTESIAN_POINT('Control Point',(20.1339745969,0.755752627603,4.00452673863)) ;
#1112=CARTESIAN_POINT('Control Point',(20.1339745969,1.36630076855,3.81156219757)) ;
#1113=CARTESIAN_POINT('Control Point',(20.1339745969,1.91770215442,3.51033024756)) ;
#1114=CARTESIAN_POINT('Vertex',(20.1339745967,1.91770215456,3.51033024783)) ;
#1117=CARTESIAN_POINT('Line Origine',(18.,1.91770215442,3.51033024756)) ;
#1130=CARTESIAN_POINT('Control Point',(20.1339745969,1.91770215442,3.51033024756)) ;
#1131=CARTESIAN_POINT('Control Point',(20.1339745968,2.46910354029,3.20909829755)) ;
#1132=CARTESIAN_POINT('Control Point',(20.1339745968,2.96135817109,2.79959893861)) ;
#1133=CARTESIAN_POINT('Control Point',(20.1339745968,3.36602582021,2.29723020445)) ;
#1134=CARTESIAN_POINT('Control Point',(20.1339745967,3.95657821058,1.16089167201)) ;
#1135=CARTESIAN_POINT('Control Point',(20.1339745966,4.07361183839,-0.114381050203)) ;
#1136=CARTESIAN_POINT('Control Point',(20.1339745966,4.00452673863,-0.755752627605)) ;
#1137=CARTESIAN_POINT('Control Point',(20.1339745965,3.6185976565,-1.97684890949)) ;
#1138=CARTESIAN_POINT('Control Point',(20.1339745965,2.79959893861,-2.96135817109)) ;
#1139=CARTESIAN_POINT('Control Point',(20.1339745964,2.29723020445,-3.36602582021)) ;
#1140=CARTESIAN_POINT('Control Point',(20.1339745964,1.16089167202,-3.95657821058)) ;
#1141=CARTESIAN_POINT('Control Point',(20.1339745963,-0.114381050201,-4.07361183839)) ;
#1142=CARTESIAN_POINT('Control Point',(20.1339745963,-0.755752627603,-4.00452673863)) ;
#1143=CARTESIAN_POINT('Control Point',(20.1339745962,-1.36630076855,-3.81156219757)) ;
#1144=CARTESIAN_POINT('Control Point',(20.1339745962,-1.91770215442,-3.51033024756)) ;
#1153=CARTESIAN_POINT('Axis2P3D Location',(18.,0.,0.)) ;
#1158=CARTESIAN_POINT('Axis2P3D Location',(21.,0.,0.)) ;
#1162=CARTESIAN_POINT('Vertex',(21.,2.15741492372,3.94912152851)) ;
#1164=CARTESIAN_POINT('Vertex',(21.,-2.15741492372,-3.94912152851)) ;
#1167=CARTESIAN_POINT('Line Origine',(18.,2.15741492372,3.94912152851)) ;
#1172=CARTESIAN_POINT('Line Origine',(18.,-2.15741492372,-3.94912152851)) ;
#1184=CARTESIAN_POINT('Axis2P3D Location',(21.,0.,0.)) ;
#1196=CARTESIAN_POINT('Axis2P3D Location',(20.1339745962,0.,0.)) ;
#1201=CARTESIAN_POINT('Line Origine',(4330143.6888,-1198564.80536,-2193958.15989)) ;
#1206=CARTESIAN_POINT('Line Origine',(4330143.6888,1198564.80536,2193958.15989)) ;
#6=PRODUCT_RELATED_PRODUCT_CATEGORY('part',$,(#16)) ;
#11=UNCERTAINTY_MEASURE_WITH_UNIT(LENGTH_MEASURE(0.005),#8,'distance_accuracy_value','CONFUSED CURVE UNCERTAINTY') ;
#29=STYLED_ITEM(' ',(#28),#21) ;
#28=PRESENTATION_STYLE_ASSIGNMENT((#27)) ;
#27=SURFACE_STYLE_USAGE(.BOTH.,#26) ;
#26=SURFACE_SIDE_STYLE(' ',(#25)) ;
#25=SURFACE_STYLE_FILL_AREA(#24) ;
#24=FILL_AREA_STYLE(' ',(#23)) ;
#23=FILL_AREA_STYLE_COLOUR(' ',#22) ;
#38=VECTOR('Line Direction',#37,1.) ;
#73=VECTOR('Line Direction',#72,1.) ;
#521=VECTOR('Line Direction',#520,1.) ;
#526=VECTOR('Line Direction',#525,1.) ;
#628=VECTOR('Line Direction',#627,1.) ;
#635=VECTOR('Line Direction',#634,1.) ;
#673=VECTOR('Line Direction',#672,1.) ;
#687=VECTOR('Line Direction',#686,1.) ;
#716=VECTOR('Line Direction',#715,1.) ;
#725=VECTOR('Line Direction',#724,1.) ;
#732=VECTOR('Line Direction',#731,1.) ;
#739=VECTOR('Line Direction',#738,1.) ;
#746=VECTOR('Line Direction',#745,1.) ;
#753=VECTOR('Line Direction',#752,1.) ;
#804=VECTOR('Line Direction',#803,1.) ;
#811=VECTOR('Line Direction',#810,1.) ;
#818=VECTOR('Line Direction',#817,1.) ;
#835=VECTOR('Line Direction',#834,1.) ;
#842=VECTOR('Line Direction',#841,1.) ;
#859=VECTOR('Line Direction',#858,1.) ;
#866=VECTOR('Line Direction',#865,1.) ;
#883=VECTOR('Line Direction',#882,1.) ;
#890=VECTOR('Line Direction',#889,1.) ;
#907=VECTOR('Line Direction',#906,1.) ;
#914=VECTOR('Line Direction',#913,1.) ;
#931=VECTOR('Line Direction',#930,1.) ;
#957=VECTOR('Line Direction',#956,1.) ;
#962=VECTOR('Line Direction',#961,1.) ;
#1093=VECTOR('Line Direction',#1092,1.) ;
#1119=VECTOR('Line Direction',#1118,1.) ;
#1169=VECTOR('Line Direction',#1168,1.) ;
#1174=VECTOR('Line Direction',#1173,1.) ;
#1203=VECTOR('Line Direction',#1202,1.) ;
#1208=VECTOR('Line Direction',#1207,1.) ;
#32=DIRECTION('Axis2P3D Direction',(-1.,0.,0.)) ;
#33=DIRECTION('Axis2P3D XDirection',(0.,1.,0.)) ;
#37=DIRECTION('Vector Direction',(0.,1.,0.)) ;
#72=DIRECTION('Vector Direction',(0.,-1.,-4.21889266277E-07)) ;
#112=DIRECTION('Axis2P3D Direction',(0.,0.,1.)) ;
#113=DIRECTION('Axis2P3D XDirection',(1.,0.,0.)) ;
#234=DIRECTION('Axis2P3D Direction',(0.,0.,1.)) ;
#243=DIRECTION('Axis2P3D Direction',(0.,0.,1.)) ;
#253=DIRECTION('Axis2P3D Direction',(1.,-2.41271704154E-17,4.41644892051E-17)) ;
#254=DIRECTION('Axis2P3D XDirection',(-2.22647773198E-29,0.87758256189,0.479425538604)) ;
#258=DIRECTION('Axis2P3D Direction',(5.03251672526E-17,0.479425538604,-0.87758256189)) ;
#269=DIRECTION('Axis2P3D Direction',(1.,-2.41271704154E-17,4.41644892051E-17)) ;
#270=DIRECTION('Axis2P3D XDirection',(5.03251672526E-17,0.479425538604,-0.87758256189)) ;
#274=DIRECTION('Axis2P3D Direction',(2.22637501571E-29,-0.87758256189,-0.479425538604)) ;
#327=DIRECTION('Axis2P3D Direction',(5.03251672526E-17,0.479425538604,-0.87758256189)) ;
#334=DIRECTION('Axis2P3D Direction',(1.,-2.41271704154E-17,4.41644892051E-17)) ;
#349=DIRECTION('Axis2P3D Direction',(0.,0.,1.)) ;
#350=DIRECTION('Axis2P3D XDirection',(1.,0.,0.)) ;
#434=DIRECTION('Axis2P3D Direction',(0.,0.,1.)) ;
#443=DIRECTION('Axis2P3D Direction',(0.,0.,1.)) ;
#453=DIRECTION('Axis2P3D Direction',(1.,-2.41271704154E-17,4.41644892051E-17)) ;
#454=DIRECTION('Axis2P3D XDirection',(2.22647773198E-29,-0.87758256189,-0.479425538604)) ;
#458=DIRECTION('Axis2P3D Direction',(-5.03251672526E-17,-0.479425538604,0.87758256189)) ;
#469=DIRECTION('Axis2P3D Direction',(1.,-2.41271704154E-17,4.41644892051E-17)) ;
#470=DIRECTION('Axis2P3D XDirection',(-5.03251672526E-17,-0.479425538604,0.87758256189)) ;
#474=DIRECTION('Axis2P3D Direction',(-2.22637501571E-29,0.87758256189,0.479425538604)) ;
#481=DIRECTION('Axis2P3D Direction',(-5.03251672526E-17,-0.479425538604,0.87758256189)) ;
#488=DIRECTION('Axis2P3D Direction',(1.,-2.41271704154E-17,4.41644892051E-17)) ;
#503=DIRECTION('Axis2P3D Direction',(1.,-2.41271704154E-17,4.41644892051E-17)) ;
#515=DIRECTION('Axis2P3D Direction',(0.,-0.,-1.)) ;
#516=DIRECTION('Axis2P3D XDirection',(-0.87758256189,0.479425538604,-0.)) ;
#520=DIRECTION('Vector Direction',(0.,0.,-1.)) ;
#525=DIRECTION('Vector Direction',(0.,0.,-1.)) ;
#610=DIRECTION('Axis2P3D Direction',(1.,-2.41271704154E-17,4.41644892051E-17)) ;
#622=DIRECTION('Axis2P3D Direction',(1.,-1.04969725641E-16,-2.74924188445E-28)) ;
#623=DIRECTION('Axis2P3D XDirection',(9.21196007492E-17,0.877582561891,0.479425538603)) ;
#627=DIRECTION('Vector Direction',(1.,-1.04969721804E-16,0.)) ;
#634=DIRECTION('Vector Direction',(1.,-1.04969721804E-16,0.)) ;
#641=DIRECTION('Axis2P3D Direction',(1.,-1.04969725641E-16,-2.74924188445E-28)) ;
#654=DIRECTION('Axis2P3D Direction',(1.,-1.04969725641E-16,-2.74924188445E-28)) ;
#667=DIRECTION('Axis2P3D Direction',(-1.,0.,0.)) ;
#668=DIRECTION('Axis2P3D XDirection',(0.,-0.87758256189,0.479425538604)) ;
#672=DIRECTION('Vector Direction',(-1.,0.,0.)) ;
#679=DIRECTION('Axis2P3D Direction',(-1.,0.,0.)) ;
#686=DIRECTION('Vector Direction',(-1.,0.,0.)) ;
#698=DIRECTION('Axis2P3D Direction',(-1.,0.,0.)) ;
#710=DIRECTION('Axis2P3D Direction',(1.,0.,0.)) ;
#711=DIRECTION('Axis2P3D XDirection',(0.,1.,0.)) ;
#715=DIRECTION('Vector Direction',(0.,-0.499999999991,0.86602540379)) ;
#724=DIRECTION('Vector Direction',(0.,0.499999999991,0.86602540379)) ;
#731=DIRECTION('Vector Direction',(0.,1.,0.)) ;
#738=DIRECTION('Vector Direction',(0.,0.499999999991,-0.86602540379)) ;
#745=DIRECTION('Vector Direction',(0.,-0.499999999991,-0.86602540379)) ;
#752=DIRECTION('Vector Direction',(0.,-1.,0.)) ;
#770=DIRECTION('Axis2P3D Direction',(-1.,0.,0.)) ;
#771=DIRECTION('Axis2P3D XDirection',(0.,1.,0.)) ;
#775=DIRECTION('Axis2P3D Direction',(-1.,0.,0.)) ;
#784=DIRECTION('Axis2P3D Direction',(-1.,0.,0.)) ;
#798=DIRECTION('Axis2P3D Direction',(-0.,0.866025403784,0.5)) ;
#799=DIRECTION('Axis2P3D XDirection',(0.,-0.5,0.866025403784)) ;
#803=DIRECTION('Vector Direction',(1.,0.,0.)) ;
#810=DIRECTION('Vector Direction',(1.,0.,0.)) ;
#817=DIRECTION('Vector Direction',(0.,-0.5,0.866025403784)) ;
#829=DIRECTION('Axis2P3D Direction',(0.,0.866025403784,-0.5)) ;
#830=DIRECTION('Axis2P3D XDirection',(0.,0.5,0.866025403784)) ;
#834=DIRECTION('Vector Direction',(1.,0.,0.)) ;
#841=DIRECTION('Vector Direction',(0.,0.5,0.866025403784)) ;
#853=DIRECTION('Axis2P3D Direction',(0.,0.,-1.)) ;
#854=DIRECTION('Axis2P3D XDirection',(0.,1.,0.)) ;
#858=DIRECTION('Vector Direction',(1.,0.,0.)) ;
#865=DIRECTION('Vector Direction',(0.,1.,0.)) ;
#877=DIRECTION('Axis2P3D Direction',(0.,-0.866025403784,-0.5)) ;
#878=DIRECTION('Axis2P3D XDirection',(0.,0.5,-0.866025403784)) ;
#882=DIRECTION('Vector Direction',(1.,0.,0.)) ;
#889=DIRECTION('Vector Direction',(0.,0.5,-0.866025403784)) ;
#901=DIRECTION('Axis2P3D Direction',(0.,-0.866025403784,0.5)) ;
#902=DIRECTION('Axis2P3D XDirection',(0.,-0.5,-0.866025403784)) ;
#906=DIRECTION('Vector Direction',(1.,0.,0.)) ;
#913=DIRECTION('Vector Direction',(0.,-0.5,-0.866025403784)) ;
#925=DIRECTION('Axis2P3D Direction',(-0.,0.,1.)) ;
#926=DIRECTION('Axis2P3D XDirection',(0.,-1.,0.)) ;
#930=DIRECTION('Vector Direction',(0.,-1.,0.)) ;
#942=DIRECTION('Axis2P3D Direction',(-1.,0.,0.)) ;
#943=DIRECTION('Axis2P3D XDirection',(0.,0.877582561891,-0.479425538604)) ;
#947=DIRECTION('Axis2P3D Direction',(-1.,0.,0.)) ;
#956=DIRECTION('Vector Direction',(-1.,0.,0.)) ;
#961=DIRECTION('Vector Direction',(-1.,0.,0.)) ;
#973=DIRECTION('Axis2P3D Direction',(-1.,0.,0.)) ;
#985=DIRECTION('Axis2P3D Direction',(1.,0.,0.)) ;
#986=DIRECTION('Axis2P3D XDirection',(0.,1.,0.)) ;
#1059=DIRECTION('Axis2P3D Direction',(-1.,0.,0.)) ;
#1060=DIRECTION('Axis2P3D XDirection',(0.,1.,0.)) ;
#1064=DIRECTION('Axis2P3D Direction',(-1.,0.,0.)) ;
#1073=DIRECTION('Axis2P3D Direction',(-1.,0.,0.)) ;
#1087=DIRECTION('Axis2P3D Direction',(-1.,-0.,0.)) ;
#1088=DIRECTION('Axis2P3D XDirection',(-0.,0.479425538604,0.87758256189)) ;
#1092=DIRECTION('Vector Direction',(-1.,0.,0.)) ;
#1118=DIRECTION('Vector Direction',(-1.,0.,0.)) ;
#1154=DIRECTION('Axis2P3D Direction',(-1.,0.,0.)) ;
#1155=DIRECTION('Axis2P3D XDirection',(0.,-0.479425538604,-0.87758256189)) ;
#1159=DIRECTION('Axis2P3D Direction',(-1.,0.,0.)) ;
#1168=DIRECTION('Vector Direction',(-1.,0.,0.)) ;
#1173=DIRECTION('Vector Direction',(-1.,0.,0.)) ;
#1185=DIRECTION('Axis2P3D Direction',(-1.,0.,0.)) ;
#1197=DIRECTION('Axis2P3D Direction',(1.,-0.,-0.)) ;
#1198=DIRECTION('Axis2P3D XDirection',(0.,-0.479425538604,-0.87758256189)) ;
#1202=DIRECTION('Vector Direction',(0.866025403785,-0.239712769302,-0.438791280945)) ;
#1207=DIRECTION('Vector Direction',(0.866025403785,0.239712769302,0.438791280945)) ;
#15=AXIS2_PLACEMENT_3D('',#14,$,$) ;
#34=AXIS2_PLACEMENT_3D('Plane Axis2P3D',#31,#32,#33) ;
#114=AXIS2_PLACEMENT_3D('Plane Axis2P3D',#111,#112,#113) ;
#235=AXIS2_PLACEMENT_3D('Circle Axis2P3D',#233,#234,$) ;
#244=AXIS2_PLACEMENT_3D('Circle Axis2P3D',#242,#243,$) ;
#255=AXIS2_PLACEMENT_3D('Sphere Axis2P3D',#252,#253,#254) ;
#259=AXIS2_PLACEMENT_3D('Circle Axis2P3D',#257,#258,$) ;
#271=AXIS2_PLACEMENT_3D('Sphere Axis2P3D',#268,#269,#270) ;
#275=AXIS2_PLACEMENT_3D('Circle Axis2P3D',#273,#274,$) ;
#328=AXIS2_PLACEMENT_3D('Circle Axis2P3D',#326,#327,$) ;
#335=AXIS2_PLACEMENT_3D('Circle Axis2P3D',#333,#334,$) ;
#351=AXIS2_PLACEMENT_3D('Plane Axis2P3D',#348,#349,#350) ;
#435=AXIS2_PLACEMENT_3D('Circle Axis2P3D',#433,#434,$) ;
#444=AXIS2_PLACEMENT_3D('Circle Axis2P3D',#442,#443,$) ;
#455=AXIS2_PLACEMENT_3D('Sphere Axis2P3D',#452,#453,#454) ;
#459=AXIS2_PLACEMENT_3D('Circle Axis2P3D',#457,#458,$) ;
#471=AXIS2_PLACEMENT_3D('Sphere Axis2P3D',#468,#469,#470) ;
#475=AXIS2_PLACEMENT_3D('Circle Axis2P3D',#473,#474,$) ;
#482=AXIS2_PLACEMENT_3D('Circle Axis2P3D',#480,#481,$) ;
#489=AXIS2_PLACEMENT_3D('Circle Axis2P3D',#487,#488,$) ;
#504=AXIS2_PLACEMENT_3D('Circle Axis2P3D',#502,#503,$) ;
#517=AXIS2_PLACEMENT_3D('Cylinder Axis2P3D',#514,#515,#516) ;
#611=AXIS2_PLACEMENT_3D('Circle Axis2P3D',#609,#610,$) ;
#624=AXIS2_PLACEMENT_3D('Cylinder Axis2P3D',#621,#622,#623) ;
#642=AXIS2_PLACEMENT_3D('Circle Axis2P3D',#640,#641,$) ;
#655=AXIS2_PLACEMENT_3D('Circle Axis2P3D',#653,#654,$) ;
#669=AXIS2_PLACEMENT_3D('Cylinder Axis2P3D',#666,#667,#668) ;
#680=AXIS2_PLACEMENT_3D('Circle Axis2P3D',#678,#679,$) ;
#699=AXIS2_PLACEMENT_3D('Circle Axis2P3D',#697,#698,$) ;
#712=AXIS2_PLACEMENT_3D('Plane Axis2P3D',#709,#710,#711) ;
#772=AXIS2_PLACEMENT_3D('Plane Axis2P3D',#769,#770,#771) ;
#776=AXIS2_PLACEMENT_3D('Circle Axis2P3D',#774,#775,$) ;
#785=AXIS2_PLACEMENT_3D('Circle Axis2P3D',#783,#784,$) ;
#800=AXIS2_PLACEMENT_3D('Plane Axis2P3D',#797,#798,#799) ;
#831=AXIS2_PLACEMENT_3D('Plane Axis2P3D',#828,#829,#830) ;
#855=AXIS2_PLACEMENT_3D('Plane Axis2P3D',#852,#853,#854) ;
#879=AXIS2_PLACEMENT_3D('Plane Axis2P3D',#876,#877,#878) ;
#903=AXIS2_PLACEMENT_3D('Plane Axis2P3D',#900,#901,#902) ;
#927=AXIS2_PLACEMENT_3D('Plane Axis2P3D',#924,#925,#926) ;
#944=AXIS2_PLACEMENT_3D('Cylinder Axis2P3D',#941,#942,#943) ;
#948=AXIS2_PLACEMENT_3D('Circle Axis2P3D',#946,#947,$) ;
#974=AXIS2_PLACEMENT_3D('Circle Axis2P3D',#972,#973,$) ;
#987=AXIS2_PLACEMENT_3D('Plane Axis2P3D',#984,#985,#986) ;
#1061=AXIS2_PLACEMENT_3D('Plane Axis2P3D',#1058,#1059,#1060) ;
#1065=AXIS2_PLACEMENT_3D('Circle Axis2P3D',#1063,#1064,$) ;
#1074=AXIS2_PLACEMENT_3D('Circle Axis2P3D',#1072,#1073,$) ;
#1089=AXIS2_PLACEMENT_3D('Cylinder Axis2P3D',#1086,#1087,#1088) ;
#1156=AXIS2_PLACEMENT_3D('Cylinder Axis2P3D',#1153,#1154,#1155) ;
#1160=AXIS2_PLACEMENT_3D('Circle Axis2P3D',#1158,#1159,$) ;
#1186=AXIS2_PLACEMENT_3D('Circle Axis2P3D',#1184,#1185,$) ;
#1199=AXIS2_PLACEMENT_3D('Cone Axis2P3D',#1196,#1197,#1198) ;
#39=LINE('Line',#36,#38) ;
#74=LINE('Line',#71,#73) ;
#522=LINE('Line',#519,#521) ;
#527=LINE('Line',#524,#526) ;
#629=LINE('Line',#626,#628) ;
#636=LINE('Line',#633,#635) ;
#674=LINE('Line',#671,#673) ;
#688=LINE('Line',#685,#687) ;
#717=LINE('Line',#714,#716) ;
#726=LINE('Line',#723,#725) ;
#733=LINE('Line',#730,#732) ;
#740=LINE('Line',#737,#739) ;
#747=LINE('Line',#744,#746) ;
#754=LINE('Line',#751,#753) ;
#805=LINE('Line',#802,#804) ;
#812=LINE('Line',#809,#811) ;
#819=LINE('Line',#816,#818) ;
#836=LINE('Line',#833,#835) ;
#843=LINE('Line',#840,#842) ;
#860=LINE('Line',#857,#859) ;
#867=LINE('Line',#864,#866) ;
#884=LINE('Line',#881,#883) ;
#891=LINE('Line',#888,#890) ;
#908=LINE('Line',#905,#907) ;
#915=LINE('Line',#912,#914) ;
#932=LINE('Line',#929,#931) ;
#958=LINE('Line',#955,#957) ;
#963=LINE('Line',#960,#962) ;
#1094=LINE('Line',#1091,#1093) ;
#1120=LINE('Line',#1117,#1119) ;
#1170=LINE('Line',#1167,#1169) ;
#1175=LINE('Line',#1172,#1174) ;
#1204=LINE('Line',#1201,#1203) ;
#1209=LINE('Line',#1206,#1208) ;
#236=CIRCLE('generated circle',#235,5.00000000059) ;
#245=CIRCLE('generated circle',#244,5.00000000059) ;
#260=CIRCLE('generated circle',#259,9.) ;
#276=CIRCLE('generated circle',#275,9.) ;
#329=CIRCLE('generated circle',#328,9.) ;
#336=CIRCLE('generated circle',#335,3.5) ;
#436=CIRCLE('generated circle',#435,5.00000000059) ;
#445=CIRCLE('generated circle',#444,5.00000000059) ;
#460=CIRCLE('generated circle',#459,9.) ;
#476=CIRCLE('generated circle',#475,9.) ;
#483=CIRCLE('generated circle',#482,9.) ;
#490=CIRCLE('generated circle',#489,3.49999999993) ;
#505=CIRCLE('generated circle',#504,3.49999999995) ;
#612=CIRCLE('generated circle',#611,3.49999999993) ;
#643=CIRCLE('generated circle',#642,3.5) ;
#656=CIRCLE('generated circle',#655,3.5) ;
#681=CIRCLE('generated circle',#680,1.5) ;
#700=CIRCLE('generated circle',#699,1.5) ;
#777=CIRCLE('generated circle',#776,2.99999999949) ;
#786=CIRCLE('generated circle',#785,2.99999999949) ;
#949=CIRCLE('generated circle',#948,3.) ;
#975=CIRCLE('generated circle',#974,3.) ;
#1066=CIRCLE('generated circle',#1065,4.50000000094) ;
#1075=CIRCLE('generated circle',#1074,4.50000000094) ;
#1161=CIRCLE('generated circle',#1160,4.5) ;
#1187=CIRCLE('generated circle',#1186,4.5) ;
#35=PLANE('',#34) ;
#115=PLANE('',#114) ;
#352=PLANE('',#351) ;
#713=PLANE('',#712) ;
#773=PLANE('',#772) ;
#801=PLANE('',#800) ;
#832=PLANE('',#831) ;
#856=PLANE('',#855) ;
#880=PLANE('',#879) ;
#904=PLANE('',#903) ;
#928=PLANE('',#927) ;
#988=PLANE('',#987) ;
#1062=PLANE('',#1061) ;
#518=CYLINDRICAL_SURFACE('generated cylinder',#517,5.) ;
#625=CYLINDRICAL_SURFACE('generated cylinder',#624,3.5) ;
#670=CYLINDRICAL_SURFACE('generated cylinder',#669,1.5) ;
#945=CYLINDRICAL_SURFACE('generated cylinder',#944,3.) ;
#1090=CYLINDRICAL_SURFACE('generated cylinder',#1089,4.) ;
#1157=CYLINDRICAL_SURFACE('generated cylinder',#1156,4.5) ;
#1200=CONICAL_SURFACE('Cone',#1199,4.,0.523598775598) ;
#256=SPHERICAL_SURFACE('',#255,9.) ;
#272=SPHERICAL_SURFACE('',#271,9.) ;
#456=SPHERICAL_SURFACE('',#455,9.) ;
#472=SPHERICAL_SURFACE('',#471,9.) ;
#250=FACE_BOUND('',#247,.T.) ;
#450=FACE_BOUND('',#447,.T.) ;
#607=FACE_BOUND('',#604,.T.) ;
#767=FACE_BOUND('',#764,.T.) ;
#795=FACE_BOUND('',#792,.T.) ;
#1056=FACE_BOUND('',#1053,.T.) ;
#1084=FACE_BOUND('',#1081,.T.) ;
#44=EDGE_CURVE('',#41,#43,#39,.T.) ;
#54=EDGE_CURVE('',#43,#53,#45,.T.) ;
#70=EDGE_CURVE('',#69,#53,#55,.T.) ;
#77=EDGE_CURVE('',#69,#76,#74,.T.) ;
#87=EDGE_CURVE('',#86,#76,#78,.T.) ;
#101=EDGE_CURVE('',#41,#86,#88,.T.) ;
#152=EDGE_CURVE('',#41,#151,#116,.T.) ;
#189=EDGE_CURVE('',#151,#188,#153,.T.) ;
#208=EDGE_CURVE('',#207,#188,#190,.T.) ;
#225=EDGE_CURVE('',#207,#43,#209,.T.) ;
#241=EDGE_CURVE('',#238,#240,#236,.T.) ;
#246=EDGE_CURVE('',#240,#238,#245,.T.) ;
#261=EDGE_CURVE('',#207,#53,#260,.F.) ;
#281=EDGE_CURVE('',#278,#280,#276,.T.) ;
#325=EDGE_CURVE('',#69,#278,#282,.T.) ;
#332=EDGE_CURVE('',#331,#188,#329,.F.) ;
#337=EDGE_CURVE('',#280,#331,#336,.T.) ;
#389=EDGE_CURVE('',#278,#388,#353,.T.) ;
#408=EDGE_CURVE('',#407,#388,#390,.T.) ;
#425=EDGE_CURVE('',#407,#76,#409,.T.) ;
#441=EDGE_CURVE('',#438,#440,#436,.T.) ;
#446=EDGE_CURVE('',#440,#438,#445,.T.) ;
#461=EDGE_CURVE('',#407,#86,#460,.F.) ;
#479=EDGE_CURVE('',#151,#478,#476,.T.) ;
#486=EDGE_CURVE('',#485,#388,#483,.F.) ;
#491=EDGE_CURVE('',#478,#485,#490,.T.) ;
#506=EDGE_CURVE('',#331,#478,#505,.T.) ;
#523=EDGE_CURVE('',#438,#240,#522,.F.) ;
#528=EDGE_CURVE('',#440,#238,#527,.F.) ;
#574=EDGE_CURVE('',#571,#573,#542,.T.) ;
#603=EDGE_CURVE('',#573,#571,#575,.T.) ;
#613=EDGE_CURVE('',#485,#280,#612,.T.) ;
#632=EDGE_CURVE('',#631,#485,#629,.F.) ;
#639=EDGE_CURVE('',#638,#331,#636,.F.) ;
#644=EDGE_CURVE('',#631,#638,#643,.T.) ;
#657=EDGE_CURVE('',#638,#631,#656,.T.) ;
#677=EDGE_CURVE('',#573,#676,#674,.F.) ;
#684=EDGE_CURVE('',#683,#676,#681,.T.) ;
#689=EDGE_CURVE('',#571,#683,#688,.F.) ;
#701=EDGE_CURVE('',#676,#683,#700,.T.) ;
#722=EDGE_CURVE('',#719,#721,#717,.T.) ;
#729=EDGE_CURVE('',#728,#719,#726,.T.) ;
#736=EDGE_CURVE('',#735,#728,#733,.T.) ;
#743=EDGE_CURVE('',#742,#735,#740,.T.) ;
#750=EDGE_CURVE('',#749,#742,#747,.T.) ;
#755=EDGE_CURVE('',#721,#749,#754,.T.) ;
#782=EDGE_CURVE('',#779,#781,#777,.T.) ;
#787=EDGE_CURVE('',#781,#779,#786,.T.) ;
#808=EDGE_CURVE('',#719,#807,#805,.T.) ;
#815=EDGE_CURVE('',#721,#814,#812,.T.) ;
#820=EDGE_CURVE('',#807,#814,#819,.T.) ;
#839=EDGE_CURVE('',#728,#838,#836,.T.) ;
#844=EDGE_CURVE('',#838,#807,#843,.T.) ;
#863=EDGE_CURVE('',#735,#862,#860,.T.) ;
#868=EDGE_CURVE('',#862,#838,#867,.T.) ;
#887=EDGE_CURVE('',#742,#886,#884,.T.) ;
#892=EDGE_CURVE('',#886,#862,#891,.T.) ;
#911=EDGE_CURVE('',#749,#910,#908,.T.) ;
#916=EDGE_CURVE('',#910,#886,#915,.T.) ;
#933=EDGE_CURVE('',#814,#910,#932,.T.) ;
#954=EDGE_CURVE('',#951,#953,#949,.T.) ;
#959=EDGE_CURVE('',#779,#951,#958,.F.) ;
#964=EDGE_CURVE('',#781,#953,#963,.F.) ;
#976=EDGE_CURVE('',#953,#951,#975,.T.) ;
#1026=EDGE_CURVE('',#1023,#1025,#997,.T.) ;
#1052=EDGE_CURVE('',#1025,#1023,#1027,.T.) ;
#1071=EDGE_CURVE('',#1068,#1070,#1066,.T.) ;
#1076=EDGE_CURVE('',#1070,#1068,#1075,.T.) ;
#1097=EDGE_CURVE('',#1023,#1096,#1094,.F.) ;
#1116=EDGE_CURVE('',#1096,#1115,#1098,.T.) ;
#1121=EDGE_CURVE('',#1025,#1115,#1120,.F.) ;
#1145=EDGE_CURVE('',#1115,#1096,#1129,.T.) ;
#1166=EDGE_CURVE('',#1163,#1165,#1161,.T.) ;
#1171=EDGE_CURVE('',#1163,#1068,#1170,.F.) ;
#1176=EDGE_CURVE('',#1165,#1070,#1175,.F.) ;
#1188=EDGE_CURVE('',#1165,#1163,#1187,.T.) ;
#1205=EDGE_CURVE('',#1096,#1165,#1204,.T.) ;
#1210=EDGE_CURVE('',#1115,#1163,#1209,.T.) ;
#30=CLOSED_SHELL('Closed Shell',(#110,#251,#267,#347,#451,#467,#501,#513,#535,#608,#620,#652,#665,#696,#708,#768,#796,#827,#851,#875,#899,#923,#940,#971,#983,#1057,#1085,#1128,#1152,#1183,#1195,#1217,#1224)) ;
#103=ORIENTED_EDGE('',*,*,#44,.T.) ;
#104=ORIENTED_EDGE('',*,*,#54,.T.) ;
#105=ORIENTED_EDGE('',*,*,#70,.F.) ;
#106=ORIENTED_EDGE('',*,*,#77,.T.) ;
#107=ORIENTED_EDGE('',*,*,#87,.F.) ;
#108=ORIENTED_EDGE('',*,*,#101,.F.) ;
#227=ORIENTED_EDGE('',*,*,#152,.T.) ;
#228=ORIENTED_EDGE('',*,*,#189,.T.) ;
#229=ORIENTED_EDGE('',*,*,#208,.F.) ;
#230=ORIENTED_EDGE('',*,*,#225,.T.) ;
#231=ORIENTED_EDGE('',*,*,#44,.F.) ;
#248=ORIENTED_EDGE('',*,*,#241,.F.) ;
#249=ORIENTED_EDGE('',*,*,#246,.F.) ;
#263=ORIENTED_EDGE('',*,*,#225,.F.) ;
#264=ORIENTED_EDGE('',*,*,#261,.T.) ;
#265=ORIENTED_EDGE('',*,*,#54,.F.) ;
#339=ORIENTED_EDGE('',*,*,#281,.F.) ;
#340=ORIENTED_EDGE('',*,*,#325,.F.) ;
#341=ORIENTED_EDGE('',*,*,#70,.T.) ;
#342=ORIENTED_EDGE('',*,*,#261,.F.) ;
#343=ORIENTED_EDGE('',*,*,#208,.T.) ;
#344=ORIENTED_EDGE('',*,*,#332,.F.) ;
#345=ORIENTED_EDGE('',*,*,#337,.F.) ;
#427=ORIENTED_EDGE('',*,*,#77,.F.) ;
#428=ORIENTED_EDGE('',*,*,#325,.T.) ;
#429=ORIENTED_EDGE('',*,*,#389,.T.) ;
#430=ORIENTED_EDGE('',*,*,#408,.F.) ;
#431=ORIENTED_EDGE('',*,*,#425,.T.) ;
#448=ORIENTED_EDGE('',*,*,#441,.T.) ;
#449=ORIENTED_EDGE('',*,*,#446,.T.) ;
#463=ORIENTED_EDGE('',*,*,#425,.F.) ;
#464=ORIENTED_EDGE('',*,*,#461,.T.) ;
#465=ORIENTED_EDGE('',*,*,#87,.T.) ;
#493=ORIENTED_EDGE('',*,*,#479,.F.) ;
#494=ORIENTED_EDGE('',*,*,#152,.F.) ;
#495=ORIENTED_EDGE('',*,*,#101,.T.) ;
#496=ORIENTED_EDGE('',*,*,#461,.F.) ;
#497=ORIENTED_EDGE('',*,*,#408,.T.) ;
#498=ORIENTED_EDGE('',*,*,#486,.F.) ;
#499=ORIENTED_EDGE('',*,*,#491,.F.) ;
#508=ORIENTED_EDGE('',*,*,#479,.T.) ;
#509=ORIENTED_EDGE('',*,*,#506,.F.) ;
#510=ORIENTED_EDGE('',*,*,#332,.T.) ;
#511=ORIENTED_EDGE('',*,*,#189,.F.) ;
#530=ORIENTED_EDGE('',*,*,#523,.F.) ;
#531=ORIENTED_EDGE('',*,*,#446,.F.) ;
#532=ORIENTED_EDGE('',*,*,#528,.T.) ;
#533=ORIENTED_EDGE('',*,*,#241,.T.) ;
#537=ORIENTED_EDGE('',*,*,#528,.F.) ;
#538=ORIENTED_EDGE('',*,*,#441,.F.) ;
#539=ORIENTED_EDGE('',*,*,#523,.T.) ;
#540=ORIENTED_EDGE('',*,*,#246,.T.) ;
#605=ORIENTED_EDGE('',*,*,#574,.F.) ;
#606=ORIENTED_EDGE('',*,*,#603,.F.) ;
#615=ORIENTED_EDGE('',*,*,#281,.T.) ;
#616=ORIENTED_EDGE('',*,*,#613,.F.) ;
#617=ORIENTED_EDGE('',*,*,#486,.T.) ;
#618=ORIENTED_EDGE('',*,*,#389,.F.) ;
#646=ORIENTED_EDGE('',*,*,#632,.T.) ;
#647=ORIENTED_EDGE('',*,*,#613,.T.) ;
#648=ORIENTED_EDGE('',*,*,#337,.T.) ;
#649=ORIENTED_EDGE('',*,*,#639,.F.) ;
#650=ORIENTED_EDGE('',*,*,#644,.F.) ;
#659=ORIENTED_EDGE('',*,*,#639,.T.) ;
#660=ORIENTED_EDGE('',*,*,#506,.T.) ;
#661=ORIENTED_EDGE('',*,*,#491,.T.) ;
#662=ORIENTED_EDGE('',*,*,#632,.F.) ;
#663=ORIENTED_EDGE('',*,*,#657,.F.) ;
#691=ORIENTED_EDGE('',*,*,#677,.T.) ;
#692=ORIENTED_EDGE('',*,*,#684,.F.) ;
#693=ORIENTED_EDGE('',*,*,#689,.F.) ;
#694=ORIENTED_EDGE('',*,*,#574,.T.) ;
#703=ORIENTED_EDGE('',*,*,#689,.T.) ;
#704=ORIENTED_EDGE('',*,*,#701,.F.) ;
#705=ORIENTED_EDGE('',*,*,#677,.F.) ;
#706=ORIENTED_EDGE('',*,*,#603,.T.) ;
#757=ORIENTED_EDGE('',*,*,#722,.F.) ;
#758=ORIENTED_EDGE('',*,*,#729,.F.) ;
#759=ORIENTED_EDGE('',*,*,#736,.F.) ;
#760=ORIENTED_EDGE('',*,*,#743,.F.) ;
#761=ORIENTED_EDGE('',*,*,#750,.F.) ;
#762=ORIENTED_EDGE('',*,*,#755,.F.) ;
#765=ORIENTED_EDGE('',*,*,#657,.T.) ;
#766=ORIENTED_EDGE('',*,*,#644,.T.) ;
#789=ORIENTED_EDGE('',*,*,#782,.F.) ;
#790=ORIENTED_EDGE('',*,*,#787,.F.) ;
#793=ORIENTED_EDGE('',*,*,#701,.T.) ;
#794=ORIENTED_EDGE('',*,*,#684,.T.) ;
#822=ORIENTED_EDGE('',*,*,#808,.F.) ;
#823=ORIENTED_EDGE('',*,*,#722,.T.) ;
#824=ORIENTED_EDGE('',*,*,#815,.T.) ;
#825=ORIENTED_EDGE('',*,*,#820,.F.) ;
#846=ORIENTED_EDGE('',*,*,#839,.F.) ;
#847=ORIENTED_EDGE('',*,*,#729,.T.) ;
#848=ORIENTED_EDGE('',*,*,#808,.T.) ;
#849=ORIENTED_EDGE('',*,*,#844,.F.) ;
#870=ORIENTED_EDGE('',*,*,#863,.F.) ;
#871=ORIENTED_EDGE('',*,*,#736,.T.) ;
#872=ORIENTED_EDGE('',*,*,#839,.T.) ;
#873=ORIENTED_EDGE('',*,*,#868,.F.) ;
#894=ORIENTED_EDGE('',*,*,#887,.F.) ;
#895=ORIENTED_EDGE('',*,*,#743,.T.) ;
#896=ORIENTED_EDGE('',*,*,#863,.T.) ;
#897=ORIENTED_EDGE('',*,*,#892,.F.) ;
#918=ORIENTED_EDGE('',*,*,#911,.F.) ;
#919=ORIENTED_EDGE('',*,*,#750,.T.) ;
#920=ORIENTED_EDGE('',*,*,#887,.T.) ;
#921=ORIENTED_EDGE('',*,*,#916,.F.) ;
#935=ORIENTED_EDGE('',*,*,#815,.F.) ;
#936=ORIENTED_EDGE('',*,*,#755,.T.) ;
#937=ORIENTED_EDGE('',*,*,#911,.T.) ;
#938=ORIENTED_EDGE('',*,*,#933,.F.) ;
#966=ORIENTED_EDGE('',*,*,#954,.F.) ;
#967=ORIENTED_EDGE('',*,*,#959,.F.) ;
#968=ORIENTED_EDGE('',*,*,#782,.T.) ;
#969=ORIENTED_EDGE('',*,*,#964,.T.) ;
#978=ORIENTED_EDGE('',*,*,#976,.F.) ;
#979=ORIENTED_EDGE('',*,*,#964,.F.) ;
#980=ORIENTED_EDGE('',*,*,#787,.T.) ;
#981=ORIENTED_EDGE('',*,*,#959,.T.) ;
#990=ORIENTED_EDGE('',*,*,#933,.T.) ;
#991=ORIENTED_EDGE('',*,*,#916,.T.) ;
#992=ORIENTED_EDGE('',*,*,#892,.T.) ;
#993=ORIENTED_EDGE('',*,*,#868,.T.) ;
#994=ORIENTED_EDGE('',*,*,#844,.T.) ;
#995=ORIENTED_EDGE('',*,*,#820,.T.) ;
#1054=ORIENTED_EDGE('',*,*,#1026,.T.) ;
#1055=ORIENTED_EDGE('',*,*,#1052,.T.) ;
#1078=ORIENTED_EDGE('',*,*,#1071,.F.) ;
#1079=ORIENTED_EDGE('',*,*,#1076,.F.) ;
#1082=ORIENTED_EDGE('',*,*,#954,.T.) ;
#1083=ORIENTED_EDGE('',*,*,#976,.T.) ;
#1123=ORIENTED_EDGE('',*,*,#1026,.F.) ;
#1124=ORIENTED_EDGE('',*,*,#1097,.T.) ;
#1125=ORIENTED_EDGE('',*,*,#1116,.T.) ;
#1126=ORIENTED_EDGE('',*,*,#1121,.F.) ;
#1147=ORIENTED_EDGE('',*,*,#1052,.F.) ;
#1148=ORIENTED_EDGE('',*,*,#1121,.T.) ;
#1149=ORIENTED_EDGE('',*,*,#1145,.T.) ;
#1150=ORIENTED_EDGE('',*,*,#1097,.F.) ;
#1178=ORIENTED_EDGE('',*,*,#1166,.F.) ;
#1179=ORIENTED_EDGE('',*,*,#1171,.T.) ;
#1180=ORIENTED_EDGE('',*,*,#1071,.T.) ;
#1181=ORIENTED_EDGE('',*,*,#1176,.F.) ;
#1190=ORIENTED_EDGE('',*,*,#1188,.F.) ;
#1191=ORIENTED_EDGE('',*,*,#1176,.T.) ;
#1192=ORIENTED_EDGE('',*,*,#1076,.T.) ;
#1193=ORIENTED_EDGE('',*,*,#1171,.F.) ;
#1212=ORIENTED_EDGE('',*,*,#1116,.F.) ;
#1213=ORIENTED_EDGE('',*,*,#1205,.T.) ;
#1214=ORIENTED_EDGE('',*,*,#1188,.T.) ;
#1215=ORIENTED_EDGE('',*,*,#1210,.F.) ;
#1219=ORIENTED_EDGE('',*,*,#1145,.F.) ;
#1220=ORIENTED_EDGE('',*,*,#1210,.T.) ;
#1221=ORIENTED_EDGE('',*,*,#1166,.T.) ;
#1222=ORIENTED_EDGE('',*,*,#1205,.F.) ;
#102=EDGE_LOOP('',(#103,#104,#105,#106,#107,#108)) ;
#226=EDGE_LOOP('',(#227,#228,#229,#230,#231)) ;
#247=EDGE_LOOP('',(#248,#249)) ;
#262=EDGE_LOOP('',(#263,#264,#265)) ;
#338=EDGE_LOOP('',(#339,#340,#341,#342,#343,#344,#345)) ;
#426=EDGE_LOOP('',(#427,#428,#429,#430,#431)) ;
#447=EDGE_LOOP('',(#448,#449)) ;
#462=EDGE_LOOP('',(#463,#464,#465)) ;
#492=EDGE_LOOP('',(#493,#494,#495,#496,#497,#498,#499)) ;
#507=EDGE_LOOP('',(#508,#509,#510,#511)) ;
#529=EDGE_LOOP('',(#530,#531,#532,#533)) ;
#536=EDGE_LOOP('',(#537,#538,#539,#540)) ;
#604=EDGE_LOOP('',(#605,#606)) ;
#614=EDGE_LOOP('',(#615,#616,#617,#618)) ;
#645=EDGE_LOOP('',(#646,#647,#648,#649,#650)) ;
#658=EDGE_LOOP('',(#659,#660,#661,#662,#663)) ;
#690=EDGE_LOOP('',(#691,#692,#693,#694)) ;
#702=EDGE_LOOP('',(#703,#704,#705,#706)) ;
#756=EDGE_LOOP('',(#757,#758,#759,#760,#761,#762)) ;
#764=EDGE_LOOP('',(#765,#766)) ;
#788=EDGE_LOOP('',(#789,#790)) ;
#792=EDGE_LOOP('',(#793,#794)) ;
#821=EDGE_LOOP('',(#822,#823,#824,#825)) ;
#845=EDGE_LOOP('',(#846,#847,#848,#849)) ;
#869=EDGE_LOOP('',(#870,#871,#872,#873)) ;
#893=EDGE_LOOP('',(#894,#895,#896,#897)) ;
#917=EDGE_LOOP('',(#918,#919,#920,#921)) ;
#934=EDGE_LOOP('',(#935,#936,#937,#938)) ;
#965=EDGE_LOOP('',(#966,#967,#968,#969)) ;
#977=EDGE_LOOP('',(#978,#979,#980,#981)) ;
#989=EDGE_LOOP('',(#990,#991,#992,#993,#994,#995)) ;
#1053=EDGE_LOOP('',(#1054,#1055)) ;
#1077=EDGE_LOOP('',(#1078,#1079)) ;
#1081=EDGE_LOOP('',(#1082,#1083)) ;
#1122=EDGE_LOOP('',(#1123,#1124,#1125,#1126)) ;
#1146=EDGE_LOOP('',(#1147,#1148,#1149,#1150)) ;
#1177=EDGE_LOOP('',(#1178,#1179,#1180,#1181)) ;
#1189=EDGE_LOOP('',(#1190,#1191,#1192,#1193)) ;
#1211=EDGE_LOOP('',(#1212,#1213,#1214,#1215)) ;
#1218=EDGE_LOOP('',(#1219,#1220,#1221,#1222)) ;
#21=MANIFOLD_SOLID_BREP('Body.2',#30) ;
#41=VERTEX_POINT('',#40) ;
#43=VERTEX_POINT('',#42) ;
#53=VERTEX_POINT('',#52) ;
#69=VERTEX_POINT('',#68) ;
#76=VERTEX_POINT('',#75) ;
#86=VERTEX_POINT('',#85) ;
#151=VERTEX_POINT('',#150) ;
#188=VERTEX_POINT('',#187) ;
#207=VERTEX_POINT('',#206) ;
#238=VERTEX_POINT('',#237) ;
#240=VERTEX_POINT('',#239) ;
#278=VERTEX_POINT('',#277) ;
#280=VERTEX_POINT('',#279) ;
#331=VERTEX_POINT('',#330) ;
#388=VERTEX_POINT('',#387) ;
#407=VERTEX_POINT('',#406) ;
#438=VERTEX_POINT('',#437) ;
#440=VERTEX_POINT('',#439) ;
#478=VERTEX_POINT('',#477) ;
#485=VERTEX_POINT('',#484) ;
#571=VERTEX_POINT('',#570) ;
#573=VERTEX_POINT('',#572) ;
#631=VERTEX_POINT('',#630) ;
#638=VERTEX_POINT('',#637) ;
#676=VERTEX_POINT('',#675) ;
#683=VERTEX_POINT('',#682) ;
#719=VERTEX_POINT('',#718) ;
#721=VERTEX_POINT('',#720) ;
#728=VERTEX_POINT('',#727) ;
#735=VERTEX_POINT('',#734) ;
#742=VERTEX_POINT('',#741) ;
#749=VERTEX_POINT('',#748) ;
#779=VERTEX_POINT('',#778) ;
#781=VERTEX_POINT('',#780) ;
#807=VERTEX_POINT('',#806) ;
#814=VERTEX_POINT('',#813) ;
#838=VERTEX_POINT('',#837) ;
#862=VERTEX_POINT('',#861) ;
#886=VERTEX_POINT('',#885) ;
#910=VERTEX_POINT('',#909) ;
#951=VERTEX_POINT('',#950) ;
#953=VERTEX_POINT('',#952) ;
#1023=VERTEX_POINT('',#1022) ;
#1025=VERTEX_POINT('',#1024) ;
#1068=VERTEX_POINT('',#1067) ;
#1070=VERTEX_POINT('',#1069) ;
#1096=VERTEX_POINT('',#1095) ;
#1115=VERTEX_POINT('',#1114) ;
#1163=VERTEX_POINT('',#1162) ;
#1165=VERTEX_POINT('',#1164) ;
#110=ADVANCED_FACE('Body.2',(#109),#35,.T.) ;
#251=ADVANCED_FACE('Body.2',(#232,#250),#115,.T.) ;
#267=ADVANCED_FACE('Body.2',(#266),#256,.T.) ;
#347=ADVANCED_FACE('Body.2',(#346),#272,.T.) ;
#451=ADVANCED_FACE('Body.2',(#432,#450),#352,.F.) ;
#467=ADVANCED_FACE('Body.2',(#466),#456,.T.) ;
#501=ADVANCED_FACE('Body.2',(#500),#472,.T.) ;
#513=ADVANCED_FACE('Body.2',(#512),#256,.T.) ;
#535=ADVANCED_FACE('Body.2',(#534),#518,.F.) ;
#608=ADVANCED_FACE('Body.2',(#541,#607),#518,.F.) ;
#620=ADVANCED_FACE('Body.2',(#619),#456,.T.) ;
#652=ADVANCED_FACE('Body.2',(#651),#625,.T.) ;
#665=ADVANCED_FACE('Body.2',(#664),#625,.T.) ;
#696=ADVANCED_FACE('Body.2',(#695),#670,.F.) ;
#708=ADVANCED_FACE('Body.2',(#707),#670,.F.) ;
#768=ADVANCED_FACE('Body.2',(#763,#767),#713,.F.) ;
#796=ADVANCED_FACE('Body.2',(#791,#795),#773,.F.) ;
#827=ADVANCED_FACE('Body.2',(#826),#801,.T.) ;
#851=ADVANCED_FACE('Body.2',(#850),#832,.T.) ;
#875=ADVANCED_FACE('Body.2',(#874),#856,.T.) ;
#899=ADVANCED_FACE('Body.2',(#898),#880,.T.) ;
#923=ADVANCED_FACE('Body.2',(#922),#904,.T.) ;
#940=ADVANCED_FACE('Body.2',(#939),#928,.T.) ;
#971=ADVANCED_FACE('Body.2',(#970),#945,.F.) ;
#983=ADVANCED_FACE('Body.2',(#982),#945,.F.) ;
#1057=ADVANCED_FACE('Body.2',(#996,#1056),#988,.T.) ;
#1085=ADVANCED_FACE('Body.2',(#1080,#1084),#1062,.F.) ;
#1128=ADVANCED_FACE('Body.2',(#1127),#1090,.T.) ;
#1152=ADVANCED_FACE('Body.2',(#1151),#1090,.T.) ;
#1183=ADVANCED_FACE('Body.2',(#1182),#1157,.T.) ;
#1195=ADVANCED_FACE('Body.2',(#1194),#1157,.T.) ;
#1217=ADVANCED_FACE('Body.2',(#1216),#1200,.T.) ;
#1224=ADVANCED_FACE('Body.2',(#1223),#1200,.T.) ;
#4=APPLICATION_PROTOCOL_DEFINITION('international standard','ap242_managed_model_based_3d_engineering',2014,#1) ;
#45=B_SPLINE_CURVE_WITH_KNOTS('',5,(#46,#47,#48,#49,#50,#51),.UNSPECIFIED.,.F.,.U.,(6,6),(0.,2.28510495419),.UNSPECIFIED.) ;
#55=B_SPLINE_CURVE_WITH_KNOTS('',5,(#56,#57,#58,#59,#60,#61,#62,#63,#64,#65,#66,#67),.UNSPECIFIED.,.F.,.U.,(6,3,3,6),(0.,4.12863098246,8.25736650817,10.3067093223),.UNSPECIFIED.) ;
#78=B_SPLINE_CURVE_WITH_KNOTS('',5,(#79,#80,#81,#82,#83,#84),.UNSPECIFIED.,.F.,.U.,(6,6),(0.,2.28510345041),.UNSPECIFIED.) ;
#88=B_SPLINE_CURVE_WITH_KNOTS('',5,(#89,#90,#91,#92,#93,#94,#95,#96,#97,#98,#99,#100),.UNSPECIFIED.,.F.,.U.,(6,3,3,6),(0.,4.12866921551,8.2573391447,10.3066726586),.UNSPECIFIED.) ;
#116=B_SPLINE_CURVE_WITH_KNOTS('',5,(#117,#118,#119,#120,#121,#122,#123,#124,#125,#126,#127,#128,#129,#130,#131,#132,#133,#134,#135,#136,#137,#138,#139,#140,#141,#142,#143,#144,#145,#146,#147,#148,#149),.UNSPECIFIED.,.F.,.U.,(6,3,3,3,3,3,3,3,3,3,6),(0.,0.0106711870143,2.51147509611,5.49758277233,8.99399125409,12.7229577151,16.4866849603,20.1182109513,22.3582051676,25.3999856813,28.0048076242),.UNSPECIFIED.) ;
#153=B_SPLINE_CURVE_WITH_KNOTS('',5,(#154,#155,#156,#157,#158,#159,#160,#161,#162,#163,#164,#165,#166,#167,#168,#169,#170,#171,#172,#173,#174,#175,#176,#177,#178,#179,#180,#181,#182,#183,#184,#185,#186),.UNSPECIFIED.,.F.,.U.,(6,3,3,3,3,3,3,3,3,3,6),(0.,0.0110059533141,2.51849533379,5.44538807711,8.5667020708,11.3341174767,13.4089816229,15.8627683213,17.378749188,20.6734028883,20.9815155413),.UNSPECIFIED.) ;
#190=B_SPLINE_CURVE_WITH_KNOTS('',5,(#191,#192,#193,#194,#195,#196,#197,#198,#199,#200,#201,#202,#203,#204,#205),.UNSPECIFIED.,.F.,.U.,(6,3,3,3,6),(0.,0.0107134906358,3.91682500044,7.68451821589,9.8514387772),.UNSPECIFIED.) ;
#209=B_SPLINE_CURVE_WITH_KNOTS('',5,(#210,#211,#212,#213,#214,#215,#216,#217,#218,#219,#220,#221,#222,#223,#224),.UNSPECIFIED.,.F.,.U.,(6,3,3,3,6),(0.,0.0107134922483,2.53318478503,5.02885105849,7.31578110505),.UNSPECIFIED.) ;
#282=B_SPLINE_CURVE_WITH_KNOTS('',5,(#283,#284,#285,#286,#287,#288,#289,#290,#291,#292,#293,#294,#295,#296,#297,#298,#299,#300,#301,#302,#303,#304,#305,#306,#307,#308,#309,#310,#311,#312,#313,#314,#315,#316,#317,#318,#319,#320,#321,#322,#323,#324),.UNSPECIFIED.,.F.,.U.,(6,3,3,3,3,3,3,3,3,3,3,3,3,6),(0.,0.0106711870318,0.0382266621347,0.0784835967753,0.156967193551,0.313934387101,0.627868774203,1.25573754841,2.51147509681,5.49758277065,12.7229577076,20.1182109472,25.3999856842,28.0048020851),.UNSPECIFIED.) ;
#353=B_SPLINE_CURVE_WITH_KNOTS('',5,(#354,#355,#356,#357,#358,#359,#360,#361,#362,#363,#364,#365,#366,#367,#368,#369,#370,#371,#372,#373,#374,#375,#376,#377,#378,#379,#380,#381,#382,#383,#384,#385,#386),.UNSPECIFIED.,.F.,.U.,(6,3,3,3,3,3,3,3,3,3,6),(0.,0.0110059533141,2.5184953338,5.44538807713,8.56670207081,11.3341174768,13.4089816229,15.8627683214,17.378749188,20.6734028884,20.9815155414),.UNSPECIFIED.) ;
#390=B_SPLINE_CURVE_WITH_KNOTS('',5,(#391,#392,#393,#394,#395,#396,#397,#398,#399,#400,#401,#402,#403,#404,#405),.UNSPECIFIED.,.F.,.U.,(6,3,3,3,6),(0.,0.0107134906358,3.91682500044,7.68451821591,9.85143877721),.UNSPECIFIED.) ;
#409=B_SPLINE_CURVE_WITH_KNOTS('',5,(#410,#411,#412,#413,#414,#415,#416,#417,#418,#419,#420,#421,#422,#423,#424),.UNSPECIFIED.,.F.,.U.,(6,3,3,3,6),(0.,0.0107134922483,2.53318478504,5.02885105849,7.31578061206),.UNSPECIFIED.) ;
#542=B_SPLINE_CURVE_WITH_KNOTS('',5,(#543,#544,#545,#546,#547,#548,#549,#550,#551,#552,#553,#554,#555,#556,#557,#558,#559,#560,#561,#562,#563,#564,#565,#566,#567,#568,#569),.UNSPECIFIED.,.F.,.U.,(6,3,3,3,3,3,3,3,6),(0.,0.0398955409857,0.157252643564,0.319158080853,0.638316161706,1.86904584333,3.23434379902,5.29430278347,6.70314483765),.UNSPECIFIED.) ;
#575=B_SPLINE_CURVE_WITH_KNOTS('',5,(#576,#577,#578,#579,#580,#581,#582,#583,#584,#585,#586,#587,#588,#589,#590,#591,#592,#593,#594,#595,#596,#597,#598,#599,#600,#601,#602),.UNSPECIFIED.,.F.,.U.,(6,3,3,3,3,3,3,3,6),(0.,0.0398955409854,0.157252643563,0.319158080851,0.638316161702,1.86904584331,3.23434379897,5.2943027834,6.70314483875),.UNSPECIFIED.) ;
#997=B_SPLINE_CURVE_WITH_KNOTS('',5,(#998,#999,#1000,#1001,#1002,#1003,#1004,#1005,#1006,#1007,#1008,#1009,#1010,#1011,#1012,#1013,#1014,#1015,#1016,#1017,#1018,#1019,#1020,#1021),.UNSPECIFIED.,.F.,.U.,(6,3,3,3,3,3,3,6),(0.,2.77771892629,5.5554378239,8.33315666058,11.1108754182,13.8885942397,16.6663131944,17.8115668629),.UNSPECIFIED.) ;
#1027=B_SPLINE_CURVE_WITH_KNOTS('',5,(#1028,#1029,#1030,#1031,#1032,#1033,#1034,#1035,#1036,#1037,#1038,#1039,#1040,#1041,#1042,#1043,#1044,#1045,#1046,#1047,#1048,#1049,#1050,#1051),.UNSPECIFIED.,.F.,.U.,(6,3,3,3,3,3,3,6),(0.,2.77771892475,5.5554378207,8.33315665564,11.1108754115,13.88859426,16.6663132303,17.8115668925),.UNSPECIFIED.) ;
#1098=B_SPLINE_CURVE_WITH_KNOTS('',5,(#1099,#1100,#1101,#1102,#1103,#1104,#1105,#1106,#1107,#1108,#1109,#1110,#1111,#1112,#1113),.UNSPECIFIED.,.F.,.U.,(6,3,3,3,6),(-6.28318530718,-3.14159265359,-4.4408920985E-16,3.14159265359,6.28318530718),.UNSPECIFIED.) ;
#1129=B_SPLINE_CURVE_WITH_KNOTS('',5,(#1130,#1131,#1132,#1133,#1134,#1135,#1136,#1137,#1138,#1139,#1140,#1141,#1142,#1143,#1144),.UNSPECIFIED.,.F.,.U.,(6,3,3,3,6),(-6.28318530718,-3.14159265359,-4.4408920985E-16,3.14159265359,6.28318530718),.UNSPECIFIED.) ;
#22=COLOUR_RGB('Colour',0.882352941176,0.882352941176,0.882352941176) ;
#109=FACE_OUTER_BOUND('',#102,.T.) ;
#232=FACE_OUTER_BOUND('',#226,.T.) ;
#266=FACE_OUTER_BOUND('',#262,.T.) ;
#346=FACE_OUTER_BOUND('',#338,.T.) ;
#432=FACE_OUTER_BOUND('',#426,.T.) ;
#466=FACE_OUTER_BOUND('',#462,.T.) ;
#500=FACE_OUTER_BOUND('',#492,.T.) ;
#512=FACE_OUTER_BOUND('',#507,.T.) ;
#534=FACE_OUTER_BOUND('',#529,.T.) ;
#541=FACE_OUTER_BOUND('',#536,.T.) ;
#619=FACE_OUTER_BOUND('',#614,.T.) ;
#651=FACE_OUTER_BOUND('',#645,.T.) ;
#664=FACE_OUTER_BOUND('',#658,.T.) ;
#695=FACE_OUTER_BOUND('',#690,.T.) ;
#707=FACE_OUTER_BOUND('',#702,.T.) ;
#763=FACE_OUTER_BOUND('',#756,.T.) ;
#791=FACE_OUTER_BOUND('',#788,.T.) ;
#826=FACE_OUTER_BOUND('',#821,.T.) ;
#850=FACE_OUTER_BOUND('',#845,.T.) ;
#874=FACE_OUTER_BOUND('',#869,.T.) ;
#898=FACE_OUTER_BOUND('',#893,.T.) ;
#922=FACE_OUTER_BOUND('',#917,.T.) ;
#939=FACE_OUTER_BOUND('',#934,.T.) ;
#970=FACE_OUTER_BOUND('',#965,.T.) ;
#982=FACE_OUTER_BOUND('',#977,.T.) ;
#996=FACE_OUTER_BOUND('',#989,.T.) ;
#1080=FACE_OUTER_BOUND('',#1077,.T.) ;
#1127=FACE_OUTER_BOUND('',#1122,.T.) ;
#1151=FACE_OUTER_BOUND('',#1146,.T.) ;
#1182=FACE_OUTER_BOUND('',#1177,.T.) ;
#1194=FACE_OUTER_BOUND('',#1189,.T.) ;
#1216=FACE_OUTER_BOUND('',#1211,.T.) ;
#1223=FACE_OUTER_BOUND('',#1218,.T.) ;
#7=PRODUCT_CATEGORY_RELATIONSHIP(' ',' ',#5,#6) ;
#17=PRODUCT_DEFINITION_FORMATION_WITH_SPECIFIED_SOURCE('A.1',' ',#16,.NOT_KNOWN.) ;
#20=SHAPE_DEFINITION_REPRESENTATION(#19,#13) ;
#8=(LENGTH_UNIT()NAMED_UNIT(*)SI_UNIT(.MILLI.,.METRE.)) ;
#9=(NAMED_UNIT(*)PLANE_ANGLE_UNIT()SI_UNIT($,.RADIAN.)) ;
#10=(NAMED_UNIT(*)SI_UNIT($,.STERADIAN.)SOLID_ANGLE_UNIT()) ;
#12=(GEOMETRIC_REPRESENTATION_CONTEXT(3)GLOBAL_UNCERTAINTY_ASSIGNED_CONTEXT((#11))GLOBAL_UNIT_ASSIGNED_CONTEXT((#8,#9,#10))REPRESENTATION_CONTEXT(' ',' ')) ;
ENDSEC;
END-ISO-10303-21;
