ISO-10303-21;
HEADER;
FILE_DESCRIPTION(('3DEXPERIENCE STEP','CAx-IF Rec.Pracs.--- Model Styling and Organization---1.5--- 2016-08-15','CAx-IF Rec.Pracs.---Supplemental Geometry---1.0---2011-11-01','CAx-IF Rec.Pracs.--- Composite Materials ---3.4---2017-06-13','CAx-IF Rec.Pracs.---Tessellated 3D Geometry---1.0---2015-12-17'),'2;1');

FILE_NAME('\\\\?\\D:\\School\\CarTech\\CTU.25\\Tutorials\\Model\\OEM\\Bolt_M5x40.stp','2024-09-26T02:46:31+00:00',('none'),('none'),'3DEXPERIENCE Platform3DEXPERIENCE R2024x HotFix 4.24','3DEXPERIENCE Platform STEP AP242 v3','none');

FILE_SCHEMA(('AP242_MANAGED_MODEL_BASED_3D_ENGINEERING_MIM_LF  {1 0 10303 442 1 1 4}'));

ENDSEC;
DATA;
#16=PRODUCT('Screw_ISO_4762_M5x40','Screw_ISO_4762_M5x40','',(#2)) ;
#2=PRODUCT_CONTEXT(' ',#1,'mechanical') ;
#1=APPLICATION_CONTEXT('managed model based 3d engineering') ;
#18=PRODUCT_DEFINITION('Screw_ISO_4762_M5x40',' ',#17,#3) ;
#3=PRODUCT_DEFINITION_CONTEXT('part definition',#1,' ') ;
#19=PRODUCT_DEFINITION_SHAPE(' ',' ',#18) ;
#569=MECHANICAL_DESIGN_GEOMETRIC_PRESENTATION_REPRESENTATION(' ',(#29),#12) ;
#5=PRODUCT_CATEGORY('part','specification') ;
#13=SHAPE_REPRESENTATION(' ',(#15,#21),#12) ;
#14=CARTESIAN_POINT('',(0.,0.,0.)) ;
#31=CARTESIAN_POINT('Axis2P3D Location',(2.,5.,1.15470053838)) ;
#36=CARTESIAN_POINT('Line Origine',(2.,3.75,1.15470053838)) ;
#40=CARTESIAN_POINT('Vertex',(2.,5.,1.15470053838)) ;
#42=CARTESIAN_POINT('Vertex',(2.,2.5,1.15470053838)) ;
#45=CARTESIAN_POINT('Line Origine',(2.,5.,2.36484387628E-10)) ;
#49=CARTESIAN_POINT('Vertex',(2.,5.,-1.15470053791)) ;
#52=CARTESIAN_POINT('Line Origine',(2.,3.75,-1.15470053791)) ;
#56=CARTESIAN_POINT('Vertex',(2.,2.5,-1.15470053791)) ;
#59=CARTESIAN_POINT('Line Origine',(2.,2.5,2.36484387628E-10)) ;
#71=CARTESIAN_POINT('Axis2P3D Location',(0.,5.,2.30940107676)) ;
#76=CARTESIAN_POINT('Line Origine',(0.,3.75,2.30940107676)) ;
#80=CARTESIAN_POINT('Vertex',(0.,5.,2.30940107676)) ;
#82=CARTESIAN_POINT('Vertex',(0.,2.5,2.30940107676)) ;
#85=CARTESIAN_POINT('Line Origine',(0.999999999796,5.,1.73205080769)) ;
#90=CARTESIAN_POINT('Line Origine',(0.999999999796,2.5,1.73205080769)) ;
#102=CARTESIAN_POINT('Axis2P3D Location',(0.,5.,-7.1054273576E-15)) ;
#107=CARTESIAN_POINT('Axis2P3D Location',(-4.4408920985E-16,5.,-7.21644966006E-15)) ;
#111=CARTESIAN_POINT('Vertex',(1.79784576967,5.,3.29093460739)) ;
#113=CARTESIAN_POINT('Vertex',(-1.79784576967,5.,-3.29093460739)) ;
#116=CARTESIAN_POINT('Axis2P3D Location',(4.4408920985E-16,5.,-6.99440505514E-15)) ;
#125=CARTESIAN_POINT('Line Origine',(-1.,5.,1.73205080722)) ;
#129=CARTESIAN_POINT('Vertex',(-2.,5.,1.15470053814)) ;
#132=CARTESIAN_POINT('Line Origine',(-2.,5.,-7.1054273576E-15)) ;
#136=CARTESIAN_POINT('Vertex',(-2.,5.,-1.15470053814)) ;
#139=CARTESIAN_POINT('Line Origine',(-1.,5.,-1.73205080722)) ;
#143=CARTESIAN_POINT('Vertex',(0.,5.,-2.30940107629)) ;
#146=CARTESIAN_POINT('Line Origine',(1.,5.,-1.73205080722)) ;
#160=CARTESIAN_POINT('Axis2P3D Location',(2.,5.,-1.15470053838)) ;
#165=CARTESIAN_POINT('Line Origine',(4.08559852616E-10,3.75,-2.30940107652)) ;
#169=CARTESIAN_POINT('Vertex',(4.08559852616E-10,2.5,-2.30940107652)) ;
#172=CARTESIAN_POINT('Line Origine',(1.0000000002,2.5,-1.73205080745)) ;
#184=CARTESIAN_POINT('Axis2P3D Location',(0.,2.5,0.)) ;
#189=CARTESIAN_POINT('Line Origine',(-1.,2.5,-1.73205080722)) ;
#193=CARTESIAN_POINT('Vertex',(-2.,2.5,-1.15470053814)) ;
#196=CARTESIAN_POINT('Line Origine',(-2.,2.5,0.)) ;
#200=CARTESIAN_POINT('Vertex',(-2.,2.5,1.15470053814)) ;
#203=CARTESIAN_POINT('Line Origine',(-1.,2.5,1.73205080722)) ;
#217=CARTESIAN_POINT('Axis2P3D Location',(-2.,5.,1.15470053838)) ;
#222=CARTESIAN_POINT('Line Origine',(-2.,3.75,1.15470053838)) ;
#234=CARTESIAN_POINT('Axis2P3D Location',(0.,4.5,0.)) ;
#239=CARTESIAN_POINT('Axis2P3D Location',(-1.79784576977,4.5,-3.29093460709)) ;
#243=CARTESIAN_POINT('Vertex',(-2.03755853907,4.5,-3.72972588803)) ;
#246=CARTESIAN_POINT('Axis2P3D Location',(1.79784576977,4.5,3.29093460709)) ;
#250=CARTESIAN_POINT('Vertex',(2.03755853907,4.5,3.72972588803)) ;
#253=CARTESIAN_POINT('Axis2P3D Location',(0.,4.5,0.)) ;
#265=CARTESIAN_POINT('Axis2P3D Location',(0.,4.5,0.)) ;
#270=CARTESIAN_POINT('Axis2P3D Location',(0.,4.5,0.)) ;
#282=CARTESIAN_POINT('Axis2P3D Location',(-2.,5.,-1.15470053838)) ;
#287=CARTESIAN_POINT('Line Origine',(-2.,3.75,-1.15470053838)) ;
#299=CARTESIAN_POINT('Axis2P3D Location',(6.66133814775E-16,5.,-2.30940107676)) ;
#311=CARTESIAN_POINT('Axis2P3D Location',(0.,-17.5,0.)) ;
#316=CARTESIAN_POINT('Line Origine',(-2.03755853907,-17.5,-3.72972588803)) ;
#320=CARTESIAN_POINT('Vertex',(-2.03755853891,3.5527136788E-15,-3.72972588812)) ;
#323=CARTESIAN_POINT('Line Origine',(2.03755853907,-17.5,3.72972588803)) ;
#327=CARTESIAN_POINT('Vertex',(2.03755853907,3.5527136788E-15,3.72972588803)) ;
#330=CARTESIAN_POINT('Axis2P3D Location',(0.,3.5527136788E-15,0.)) ;
#342=CARTESIAN_POINT('Axis2P3D Location',(0.,3.5527136788E-15,0.)) ;
#354=CARTESIAN_POINT('Axis2P3D Location',(0.,0.,-4.25)) ;
#363=CARTESIAN_POINT('Axis2P3D Location',(0.,0.,0.)) ;
#367=CARTESIAN_POINT('Vertex',(1.29444895498,0.,2.36947291717)) ;
#369=CARTESIAN_POINT('Vertex',(-1.29444895498,0.,-2.36947291717)) ;
#372=CARTESIAN_POINT('Axis2P3D Location',(0.,0.,0.)) ;
#382=CARTESIAN_POINT('Axis2P3D Location',(0.,-0.2,0.)) ;
#387=CARTESIAN_POINT('Axis2P3D Location',(-1.29444895423,-0.2,-2.3694729171)) ;
#391=CARTESIAN_POINT('Vertex',(-1.19856384651,-0.199999999255,-2.19395640473)) ;
#394=CARTESIAN_POINT('Axis2P3D Location',(1.29444895423,-0.2,2.3694729171)) ;
#398=CARTESIAN_POINT('Vertex',(1.19856384651,-0.2,2.19395640473)) ;
#401=CARTESIAN_POINT('Axis2P3D Location',(0.,-0.2,0.)) ;
#413=CARTESIAN_POINT('Axis2P3D Location',(0.,-0.2,0.)) ;
#418=CARTESIAN_POINT('Axis2P3D Location',(0.,-0.2,0.)) ;
#430=CARTESIAN_POINT('Axis2P3D Location',(0.,-17.5,0.)) ;
#435=CARTESIAN_POINT('Line Origine',(-1.19856384651,-17.5,-2.19395640473)) ;
#439=CARTESIAN_POINT('Vertex',(-1.19856384651,-18.,-2.19395640473)) ;
#442=CARTESIAN_POINT('Line Origine',(1.19856384651,-17.5,2.19395640473)) ;
#446=CARTESIAN_POINT('Vertex',(1.19856384651,-18.,2.19395640473)) ;
#449=CARTESIAN_POINT('Axis2P3D Location',(0.,-18.,0.)) ;
#461=CARTESIAN_POINT('Axis2P3D Location',(0.,-17.5,0.)) ;
#466=CARTESIAN_POINT('Axis2P3D Location',(0.,-18.,0.)) ;
#478=CARTESIAN_POINT('Line Origine',(-1.19856384651,-17.5,-2.19395640473)) ;
#482=CARTESIAN_POINT('Vertex',(-1.19856384651,-39.5999999996,-2.19395640473)) ;
#485=CARTESIAN_POINT('Line Origine',(1.19856384651,-17.5,2.19395640473)) ;
#489=CARTESIAN_POINT('Vertex',(1.19856384651,-39.5999999996,2.19395640473)) ;
#492=CARTESIAN_POINT('Axis2P3D Location',(0.,-39.5999999996,0.)) ;
#504=CARTESIAN_POINT('Axis2P3D Location',(0.,-39.5999999996,0.)) ;
#516=CARTESIAN_POINT('Axis2P3D Location',(0.,-40.,0.)) ;
#521=CARTESIAN_POINT('Line Origine',(-1695025.7505,3535492.85593,-3102723.82428)) ;
#525=CARTESIAN_POINT('Vertex',(-1.00679363088,-39.9999999999,-1.84292338017)) ;
#528=CARTESIAN_POINT('Line Origine',(1695025.7505,3535492.85593,3102723.82428)) ;
#532=CARTESIAN_POINT('Vertex',(1.00679363105,-40.,1.84292337994)) ;
#535=CARTESIAN_POINT('Axis2P3D Location',(0.,-39.9999999999,0.)) ;
#547=CARTESIAN_POINT('Axis2P3D Location',(0.,-39.9999999999,0.)) ;
#559=CARTESIAN_POINT('Axis2P3D Location',(0.,-40.,-2.1)) ;
#6=PRODUCT_RELATED_PRODUCT_CATEGORY('part',$,(#16)) ;
#11=UNCERTAINTY_MEASURE_WITH_UNIT(LENGTH_MEASURE(0.005),#8,'distance_accuracy_value','CONFUSED CURVE UNCERTAINTY') ;
#29=STYLED_ITEM(' ',(#28),#21) ;
#28=PRESENTATION_STYLE_ASSIGNMENT((#27)) ;
#27=SURFACE_STYLE_USAGE(.BOTH.,#26) ;
#26=SURFACE_SIDE_STYLE(' ',(#25)) ;
#25=SURFACE_STYLE_FILL_AREA(#24) ;
#24=FILL_AREA_STYLE(' ',(#23)) ;
#23=FILL_AREA_STYLE_COLOUR(' ',#22) ;
#38=VECTOR('Line Direction',#37,1.) ;
#47=VECTOR('Line Direction',#46,1.) ;
#54=VECTOR('Line Direction',#53,1.) ;
#61=VECTOR('Line Direction',#60,1.) ;
#78=VECTOR('Line Direction',#77,1.) ;
#87=VECTOR('Line Direction',#86,1.) ;
#92=VECTOR('Line Direction',#91,1.) ;
#127=VECTOR('Line Direction',#126,1.) ;
#134=VECTOR('Line Direction',#133,1.) ;
#141=VECTOR('Line Direction',#140,1.) ;
#148=VECTOR('Line Direction',#147,1.) ;
#167=VECTOR('Line Direction',#166,1.) ;
#174=VECTOR('Line Direction',#173,1.) ;
#191=VECTOR('Line Direction',#190,1.) ;
#198=VECTOR('Line Direction',#197,1.) ;
#205=VECTOR('Line Direction',#204,1.) ;
#224=VECTOR('Line Direction',#223,1.) ;
#289=VECTOR('Line Direction',#288,1.) ;
#318=VECTOR('Line Direction',#317,1.) ;
#325=VECTOR('Line Direction',#324,1.) ;
#437=VECTOR('Line Direction',#436,1.) ;
#444=VECTOR('Line Direction',#443,1.) ;
#480=VECTOR('Line Direction',#479,1.) ;
#487=VECTOR('Line Direction',#486,1.) ;
#523=VECTOR('Line Direction',#522,1.) ;
#530=VECTOR('Line Direction',#529,1.) ;
#32=DIRECTION('Axis2P3D Direction',(-1.,-0.,-1.92296268638E-16)) ;
#33=DIRECTION('Axis2P3D XDirection',(1.92296268638E-16,0.,-1.)) ;
#37=DIRECTION('Vector Direction',(0.,-1.,0.)) ;
#46=DIRECTION('Vector Direction',(1.92296268678E-16,0.,-1.)) ;
#53=DIRECTION('Vector Direction',(0.,-1.,0.)) ;
#60=DIRECTION('Vector Direction',(1.92296268678E-16,0.,-1.)) ;
#72=DIRECTION('Axis2P3D Direction',(-0.5,-0.,-0.866025403784)) ;
#73=DIRECTION('Axis2P3D XDirection',(0.866025403784,0.,-0.5)) ;
#77=DIRECTION('Vector Direction',(0.,-1.,0.)) ;
#86=DIRECTION('Vector Direction',(0.866025403784,0.,-0.5)) ;
#91=DIRECTION('Vector Direction',(0.866025403784,0.,-0.5)) ;
#103=DIRECTION('Axis2P3D Direction',(-0.,1.,0.)) ;
#104=DIRECTION('Axis2P3D XDirection',(1.,0.,0.)) ;
#108=DIRECTION('Axis2P3D Direction',(-0.,1.,0.)) ;
#117=DIRECTION('Axis2P3D Direction',(-0.,1.,0.)) ;
#126=DIRECTION('Vector Direction',(0.866025403829,0.,0.499999999923)) ;
#133=DIRECTION('Vector Direction',(0.,0.,1.)) ;
#140=DIRECTION('Vector Direction',(-0.866025403829,0.,0.499999999923)) ;
#147=DIRECTION('Vector Direction',(-0.866025403829,0.,-0.499999999923)) ;
#161=DIRECTION('Axis2P3D Direction',(-0.5,0.,0.866025403784)) ;
#162=DIRECTION('Axis2P3D XDirection',(-0.866025403784,0.,-0.5)) ;
#166=DIRECTION('Vector Direction',(0.,-1.,0.)) ;
#173=DIRECTION('Vector Direction',(-0.866025403784,0.,-0.5)) ;
#185=DIRECTION('Axis2P3D Direction',(0.,1.,-0.)) ;
#186=DIRECTION('Axis2P3D XDirection',(-1.,0.,0.)) ;
#190=DIRECTION('Vector Direction',(-0.866025403829,0.,0.499999999923)) ;
#197=DIRECTION('Vector Direction',(0.,0.,1.)) ;
#204=DIRECTION('Vector Direction',(0.866025403829,0.,0.499999999923)) ;
#218=DIRECTION('Axis2P3D Direction',(0.5,0.,-0.866025403784)) ;
#219=DIRECTION('Axis2P3D XDirection',(0.866025403784,0.,0.5)) ;
#223=DIRECTION('Vector Direction',(0.,-1.,0.)) ;
#235=DIRECTION('Axis2P3D Direction',(0.,1.,0.)) ;
#236=DIRECTION('Axis2P3D XDirection',(0.479425538604,0.,0.87758256189)) ;
#240=DIRECTION('Axis2P3D Direction',(0.87758256189,0.,-0.479425538604)) ;
#247=DIRECTION('Axis2P3D Direction',(-0.87758256189,0.,0.479425538604)) ;
#254=DIRECTION('Axis2P3D Direction',(-0.,1.,0.)) ;
#266=DIRECTION('Axis2P3D Direction',(0.,1.,0.)) ;
#267=DIRECTION('Axis2P3D XDirection',(-0.479425538604,0.,-0.87758256189)) ;
#271=DIRECTION('Axis2P3D Direction',(0.,1.,0.)) ;
#283=DIRECTION('Axis2P3D Direction',(1.,0.,-0.)) ;
#284=DIRECTION('Axis2P3D XDirection',(0.,0.,1.)) ;
#288=DIRECTION('Vector Direction',(0.,-1.,0.)) ;
#300=DIRECTION('Axis2P3D Direction',(0.5,0.,0.866025403784)) ;
#301=DIRECTION('Axis2P3D XDirection',(-0.866025403784,0.,0.5)) ;
#312=DIRECTION('Axis2P3D Direction',(-0.,1.,0.)) ;
#313=DIRECTION('Axis2P3D XDirection',(-0.479425538604,-0.,-0.87758256189)) ;
#317=DIRECTION('Vector Direction',(0.,1.,0.)) ;
#324=DIRECTION('Vector Direction',(0.,1.,0.)) ;
#331=DIRECTION('Axis2P3D Direction',(-0.,1.,0.)) ;
#343=DIRECTION('Axis2P3D Direction',(-0.,1.,0.)) ;
#355=DIRECTION('Axis2P3D Direction',(-0.,1.,0.)) ;
#356=DIRECTION('Axis2P3D XDirection',(1.,0.,0.)) ;
#364=DIRECTION('Axis2P3D Direction',(-0.,1.,0.)) ;
#373=DIRECTION('Axis2P3D Direction',(-0.,1.,0.)) ;
#383=DIRECTION('Axis2P3D Direction',(0.,1.,0.)) ;
#384=DIRECTION('Axis2P3D XDirection',(0.479425538604,0.,0.87758256189)) ;
#388=DIRECTION('Axis2P3D Direction',(0.87758256189,0.,-0.479425538604)) ;
#395=DIRECTION('Axis2P3D Direction',(-0.87758256189,0.,0.479425538604)) ;
#402=DIRECTION('Axis2P3D Direction',(-0.,1.,0.)) ;
#414=DIRECTION('Axis2P3D Direction',(0.,1.,0.)) ;
#415=DIRECTION('Axis2P3D XDirection',(-0.479425538604,0.,-0.87758256189)) ;
#419=DIRECTION('Axis2P3D Direction',(0.,1.,0.)) ;
#431=DIRECTION('Axis2P3D Direction',(-0.,1.,0.)) ;
#432=DIRECTION('Axis2P3D XDirection',(0.479425538604,0.,0.87758256189)) ;
#436=DIRECTION('Vector Direction',(0.,1.,0.)) ;
#443=DIRECTION('Vector Direction',(0.,1.,0.)) ;
#450=DIRECTION('Axis2P3D Direction',(-0.,1.,0.)) ;
#462=DIRECTION('Axis2P3D Direction',(0.,1.,0.)) ;
#463=DIRECTION('Axis2P3D XDirection',(-0.479425538604,0.,-0.87758256189)) ;
#467=DIRECTION('Axis2P3D Direction',(0.,1.,0.)) ;
#479=DIRECTION('Vector Direction',(0.,1.,0.)) ;
#486=DIRECTION('Vector Direction',(0.,1.,0.)) ;
#493=DIRECTION('Axis2P3D Direction',(-0.,1.,0.)) ;
#505=DIRECTION('Axis2P3D Direction',(0.,1.,0.)) ;
#517=DIRECTION('Axis2P3D Direction',(0.,1.,0.)) ;
#518=DIRECTION('Axis2P3D XDirection',(-0.479425538604,0.,-0.87758256189)) ;
#522=DIRECTION('Vector Direction',(-0.339005049421,0.707106781187,-0.620544580563)) ;
#529=DIRECTION('Vector Direction',(0.339005049421,0.707106781187,0.620544580563)) ;
#536=DIRECTION('Axis2P3D Direction',(-0.,1.,0.)) ;
#548=DIRECTION('Axis2P3D Direction',(-0.,1.,0.)) ;
#560=DIRECTION('Axis2P3D Direction',(-0.,1.,0.)) ;
#561=DIRECTION('Axis2P3D XDirection',(1.,0.,0.)) ;
#15=AXIS2_PLACEMENT_3D('',#14,$,$) ;
#34=AXIS2_PLACEMENT_3D('Plane Axis2P3D',#31,#32,#33) ;
#74=AXIS2_PLACEMENT_3D('Plane Axis2P3D',#71,#72,#73) ;
#105=AXIS2_PLACEMENT_3D('Plane Axis2P3D',#102,#103,#104) ;
#109=AXIS2_PLACEMENT_3D('Circle Axis2P3D',#107,#108,$) ;
#118=AXIS2_PLACEMENT_3D('Circle Axis2P3D',#116,#117,$) ;
#163=AXIS2_PLACEMENT_3D('Plane Axis2P3D',#160,#161,#162) ;
#187=AXIS2_PLACEMENT_3D('Plane Axis2P3D',#184,#185,#186) ;
#220=AXIS2_PLACEMENT_3D('Plane Axis2P3D',#217,#218,#219) ;
#237=AXIS2_PLACEMENT_3D('Torus Axis2P3D',#234,#235,#236) ;
#241=AXIS2_PLACEMENT_3D('Circle Axis2P3D',#239,#240,$) ;
#248=AXIS2_PLACEMENT_3D('Circle Axis2P3D',#246,#247,$) ;
#255=AXIS2_PLACEMENT_3D('Circle Axis2P3D',#253,#254,$) ;
#268=AXIS2_PLACEMENT_3D('Torus Axis2P3D',#265,#266,#267) ;
#272=AXIS2_PLACEMENT_3D('Circle Axis2P3D',#270,#271,$) ;
#285=AXIS2_PLACEMENT_3D('Plane Axis2P3D',#282,#283,#284) ;
#302=AXIS2_PLACEMENT_3D('Plane Axis2P3D',#299,#300,#301) ;
#314=AXIS2_PLACEMENT_3D('Cylinder Axis2P3D',#311,#312,#313) ;
#332=AXIS2_PLACEMENT_3D('Circle Axis2P3D',#330,#331,$) ;
#344=AXIS2_PLACEMENT_3D('Circle Axis2P3D',#342,#343,$) ;
#357=AXIS2_PLACEMENT_3D('Plane Axis2P3D',#354,#355,#356) ;
#365=AXIS2_PLACEMENT_3D('Circle Axis2P3D',#363,#364,$) ;
#374=AXIS2_PLACEMENT_3D('Circle Axis2P3D',#372,#373,$) ;
#385=AXIS2_PLACEMENT_3D('Torus Axis2P3D',#382,#383,#384) ;
#389=AXIS2_PLACEMENT_3D('Circle Axis2P3D',#387,#388,$) ;
#396=AXIS2_PLACEMENT_3D('Circle Axis2P3D',#394,#395,$) ;
#403=AXIS2_PLACEMENT_3D('Circle Axis2P3D',#401,#402,$) ;
#416=AXIS2_PLACEMENT_3D('Torus Axis2P3D',#413,#414,#415) ;
#420=AXIS2_PLACEMENT_3D('Circle Axis2P3D',#418,#419,$) ;
#433=AXIS2_PLACEMENT_3D('Cylinder Axis2P3D',#430,#431,#432) ;
#451=AXIS2_PLACEMENT_3D('Circle Axis2P3D',#449,#450,$) ;
#464=AXIS2_PLACEMENT_3D('Cylinder Axis2P3D',#461,#462,#463) ;
#468=AXIS2_PLACEMENT_3D('Circle Axis2P3D',#466,#467,$) ;
#494=AXIS2_PLACEMENT_3D('Circle Axis2P3D',#492,#493,$) ;
#506=AXIS2_PLACEMENT_3D('Circle Axis2P3D',#504,#505,$) ;
#519=AXIS2_PLACEMENT_3D('Cone Axis2P3D',#516,#517,#518) ;
#537=AXIS2_PLACEMENT_3D('Circle Axis2P3D',#535,#536,$) ;
#549=AXIS2_PLACEMENT_3D('Circle Axis2P3D',#547,#548,$) ;
#562=AXIS2_PLACEMENT_3D('Plane Axis2P3D',#559,#560,#561) ;
#39=LINE('Line',#36,#38) ;
#48=LINE('Line',#45,#47) ;
#55=LINE('Line',#52,#54) ;
#62=LINE('Line',#59,#61) ;
#79=LINE('Line',#76,#78) ;
#88=LINE('Line',#85,#87) ;
#93=LINE('Line',#90,#92) ;
#128=LINE('Line',#125,#127) ;
#135=LINE('Line',#132,#134) ;
#142=LINE('Line',#139,#141) ;
#149=LINE('Line',#146,#148) ;
#168=LINE('Line',#165,#167) ;
#175=LINE('Line',#172,#174) ;
#192=LINE('Line',#189,#191) ;
#199=LINE('Line',#196,#198) ;
#206=LINE('Line',#203,#205) ;
#225=LINE('Line',#222,#224) ;
#290=LINE('Line',#287,#289) ;
#319=LINE('Line',#316,#318) ;
#326=LINE('Line',#323,#325) ;
#438=LINE('Line',#435,#437) ;
#445=LINE('Line',#442,#444) ;
#481=LINE('Line',#478,#480) ;
#488=LINE('Line',#485,#487) ;
#524=LINE('Line',#521,#523) ;
#531=LINE('Line',#528,#530) ;
#110=CIRCLE('generated circle',#109,3.75000000022) ;
#119=CIRCLE('generated circle',#118,3.75000000022) ;
#242=CIRCLE('generated circle',#241,0.5) ;
#249=CIRCLE('generated circle',#248,0.5) ;
#256=CIRCLE('generated circle',#255,4.25) ;
#273=CIRCLE('generated circle',#272,4.25) ;
#333=CIRCLE('generated circle',#332,4.25) ;
#345=CIRCLE('generated circle',#344,4.25) ;
#366=CIRCLE('generated circle',#365,2.70000000042) ;
#375=CIRCLE('generated circle',#374,2.70000000042) ;
#390=CIRCLE('generated circle',#389,0.2) ;
#397=CIRCLE('generated circle',#396,0.2) ;
#404=CIRCLE('generated circle',#403,2.5) ;
#421=CIRCLE('generated circle',#420,2.5) ;
#452=CIRCLE('generated circle',#451,2.5) ;
#469=CIRCLE('generated circle',#468,2.5) ;
#495=CIRCLE('generated circle',#494,2.5) ;
#507=CIRCLE('generated circle',#506,2.5) ;
#538=CIRCLE('generated circle',#537,2.10000000009) ;
#550=CIRCLE('generated circle',#549,2.10000000007) ;
#35=PLANE('',#34) ;
#75=PLANE('',#74) ;
#106=PLANE('',#105) ;
#164=PLANE('',#163) ;
#188=PLANE('',#187) ;
#221=PLANE('',#220) ;
#286=PLANE('',#285) ;
#303=PLANE('',#302) ;
#358=PLANE('',#357) ;
#563=PLANE('',#562) ;
#315=CYLINDRICAL_SURFACE('generated cylinder',#314,4.25) ;
#434=CYLINDRICAL_SURFACE('generated cylinder',#433,2.5) ;
#465=CYLINDRICAL_SURFACE('generated cylinder',#464,2.5) ;
#520=CONICAL_SURFACE('Cone',#519,2.1,0.785398163397) ;
#238=TOROIDAL_SURFACE('homeo Torus',#237,3.75,0.5) ;
#269=TOROIDAL_SURFACE('homeo Torus',#268,3.75,0.5) ;
#386=TOROIDAL_SURFACE('homeo Torus',#385,2.7,0.2) ;
#417=TOROIDAL_SURFACE('homeo Torus',#416,2.7,0.2) ;
#158=FACE_BOUND('',#151,.T.) ;
#380=FACE_BOUND('',#377,.T.) ;
#44=EDGE_CURVE('',#41,#43,#39,.T.) ;
#51=EDGE_CURVE('',#41,#50,#48,.T.) ;
#58=EDGE_CURVE('',#50,#57,#55,.T.) ;
#63=EDGE_CURVE('',#43,#57,#62,.T.) ;
#84=EDGE_CURVE('',#81,#83,#79,.T.) ;
#89=EDGE_CURVE('',#81,#41,#88,.T.) ;
#94=EDGE_CURVE('',#83,#43,#93,.T.) ;
#115=EDGE_CURVE('',#112,#114,#110,.T.) ;
#120=EDGE_CURVE('',#114,#112,#119,.T.) ;
#131=EDGE_CURVE('',#130,#81,#128,.T.) ;
#138=EDGE_CURVE('',#137,#130,#135,.T.) ;
#145=EDGE_CURVE('',#144,#137,#142,.T.) ;
#150=EDGE_CURVE('',#50,#144,#149,.T.) ;
#171=EDGE_CURVE('',#144,#170,#168,.T.) ;
#176=EDGE_CURVE('',#57,#170,#175,.T.) ;
#195=EDGE_CURVE('',#170,#194,#192,.T.) ;
#202=EDGE_CURVE('',#194,#201,#199,.T.) ;
#207=EDGE_CURVE('',#201,#83,#206,.T.) ;
#226=EDGE_CURVE('',#130,#201,#225,.T.) ;
#245=EDGE_CURVE('',#244,#114,#242,.T.) ;
#252=EDGE_CURVE('',#251,#112,#249,.T.) ;
#257=EDGE_CURVE('',#251,#244,#256,.T.) ;
#274=EDGE_CURVE('',#244,#251,#273,.T.) ;
#291=EDGE_CURVE('',#137,#194,#290,.T.) ;
#322=EDGE_CURVE('',#321,#244,#319,.T.) ;
#329=EDGE_CURVE('',#328,#251,#326,.T.) ;
#334=EDGE_CURVE('',#328,#321,#333,.T.) ;
#346=EDGE_CURVE('',#321,#328,#345,.T.) ;
#371=EDGE_CURVE('',#368,#370,#366,.T.) ;
#376=EDGE_CURVE('',#370,#368,#375,.T.) ;
#393=EDGE_CURVE('',#392,#370,#390,.F.) ;
#400=EDGE_CURVE('',#399,#368,#397,.F.) ;
#405=EDGE_CURVE('',#399,#392,#404,.T.) ;
#422=EDGE_CURVE('',#392,#399,#421,.T.) ;
#441=EDGE_CURVE('',#440,#392,#438,.T.) ;
#448=EDGE_CURVE('',#447,#399,#445,.T.) ;
#453=EDGE_CURVE('',#447,#440,#452,.T.) ;
#470=EDGE_CURVE('',#440,#447,#469,.T.) ;
#484=EDGE_CURVE('',#483,#440,#481,.T.) ;
#491=EDGE_CURVE('',#490,#447,#488,.T.) ;
#496=EDGE_CURVE('',#490,#483,#495,.T.) ;
#508=EDGE_CURVE('',#483,#490,#507,.T.) ;
#527=EDGE_CURVE('',#526,#483,#524,.T.) ;
#534=EDGE_CURVE('',#533,#490,#531,.T.) ;
#539=EDGE_CURVE('',#533,#526,#538,.T.) ;
#551=EDGE_CURVE('',#526,#533,#550,.T.) ;
#30=CLOSED_SHELL('Closed Shell',(#70,#101,#159,#183,#216,#233,#264,#281,#298,#310,#341,#353,#381,#412,#429,#460,#477,#503,#515,#546,#558,#568)) ;
#65=ORIENTED_EDGE('',*,*,#44,.F.) ;
#66=ORIENTED_EDGE('',*,*,#51,.T.) ;
#67=ORIENTED_EDGE('',*,*,#58,.T.) ;
#68=ORIENTED_EDGE('',*,*,#63,.F.) ;
#96=ORIENTED_EDGE('',*,*,#84,.F.) ;
#97=ORIENTED_EDGE('',*,*,#89,.T.) ;
#98=ORIENTED_EDGE('',*,*,#44,.T.) ;
#99=ORIENTED_EDGE('',*,*,#94,.F.) ;
#122=ORIENTED_EDGE('',*,*,#115,.T.) ;
#123=ORIENTED_EDGE('',*,*,#120,.T.) ;
#152=ORIENTED_EDGE('',*,*,#131,.F.) ;
#153=ORIENTED_EDGE('',*,*,#138,.F.) ;
#154=ORIENTED_EDGE('',*,*,#145,.F.) ;
#155=ORIENTED_EDGE('',*,*,#150,.F.) ;
#156=ORIENTED_EDGE('',*,*,#51,.F.) ;
#157=ORIENTED_EDGE('',*,*,#89,.F.) ;
#178=ORIENTED_EDGE('',*,*,#58,.F.) ;
#179=ORIENTED_EDGE('',*,*,#150,.T.) ;
#180=ORIENTED_EDGE('',*,*,#171,.T.) ;
#181=ORIENTED_EDGE('',*,*,#176,.F.) ;
#209=ORIENTED_EDGE('',*,*,#63,.T.) ;
#210=ORIENTED_EDGE('',*,*,#176,.T.) ;
#211=ORIENTED_EDGE('',*,*,#195,.T.) ;
#212=ORIENTED_EDGE('',*,*,#202,.T.) ;
#213=ORIENTED_EDGE('',*,*,#207,.T.) ;
#214=ORIENTED_EDGE('',*,*,#94,.T.) ;
#228=ORIENTED_EDGE('',*,*,#226,.F.) ;
#229=ORIENTED_EDGE('',*,*,#131,.T.) ;
#230=ORIENTED_EDGE('',*,*,#84,.T.) ;
#231=ORIENTED_EDGE('',*,*,#207,.F.) ;
#259=ORIENTED_EDGE('',*,*,#245,.T.) ;
#260=ORIENTED_EDGE('',*,*,#115,.F.) ;
#261=ORIENTED_EDGE('',*,*,#252,.F.) ;
#262=ORIENTED_EDGE('',*,*,#257,.T.) ;
#276=ORIENTED_EDGE('',*,*,#252,.T.) ;
#277=ORIENTED_EDGE('',*,*,#120,.F.) ;
#278=ORIENTED_EDGE('',*,*,#245,.F.) ;
#279=ORIENTED_EDGE('',*,*,#274,.T.) ;
#293=ORIENTED_EDGE('',*,*,#291,.F.) ;
#294=ORIENTED_EDGE('',*,*,#138,.T.) ;
#295=ORIENTED_EDGE('',*,*,#226,.T.) ;
#296=ORIENTED_EDGE('',*,*,#202,.F.) ;
#305=ORIENTED_EDGE('',*,*,#171,.F.) ;
#306=ORIENTED_EDGE('',*,*,#145,.T.) ;
#307=ORIENTED_EDGE('',*,*,#291,.T.) ;
#308=ORIENTED_EDGE('',*,*,#195,.F.) ;
#336=ORIENTED_EDGE('',*,*,#322,.T.) ;
#337=ORIENTED_EDGE('',*,*,#257,.F.) ;
#338=ORIENTED_EDGE('',*,*,#329,.F.) ;
#339=ORIENTED_EDGE('',*,*,#334,.T.) ;
#348=ORIENTED_EDGE('',*,*,#329,.T.) ;
#349=ORIENTED_EDGE('',*,*,#274,.F.) ;
#350=ORIENTED_EDGE('',*,*,#322,.F.) ;
#351=ORIENTED_EDGE('',*,*,#346,.T.) ;
#360=ORIENTED_EDGE('',*,*,#346,.F.) ;
#361=ORIENTED_EDGE('',*,*,#334,.F.) ;
#378=ORIENTED_EDGE('',*,*,#371,.T.) ;
#379=ORIENTED_EDGE('',*,*,#376,.T.) ;
#407=ORIENTED_EDGE('',*,*,#393,.T.) ;
#408=ORIENTED_EDGE('',*,*,#371,.F.) ;
#409=ORIENTED_EDGE('',*,*,#400,.F.) ;
#410=ORIENTED_EDGE('',*,*,#405,.T.) ;
#424=ORIENTED_EDGE('',*,*,#400,.T.) ;
#425=ORIENTED_EDGE('',*,*,#376,.F.) ;
#426=ORIENTED_EDGE('',*,*,#393,.F.) ;
#427=ORIENTED_EDGE('',*,*,#422,.T.) ;
#455=ORIENTED_EDGE('',*,*,#441,.T.) ;
#456=ORIENTED_EDGE('',*,*,#405,.F.) ;
#457=ORIENTED_EDGE('',*,*,#448,.F.) ;
#458=ORIENTED_EDGE('',*,*,#453,.T.) ;
#472=ORIENTED_EDGE('',*,*,#448,.T.) ;
#473=ORIENTED_EDGE('',*,*,#422,.F.) ;
#474=ORIENTED_EDGE('',*,*,#441,.F.) ;
#475=ORIENTED_EDGE('',*,*,#470,.T.) ;
#498=ORIENTED_EDGE('',*,*,#484,.T.) ;
#499=ORIENTED_EDGE('',*,*,#453,.F.) ;
#500=ORIENTED_EDGE('',*,*,#491,.F.) ;
#501=ORIENTED_EDGE('',*,*,#496,.T.) ;
#510=ORIENTED_EDGE('',*,*,#491,.T.) ;
#511=ORIENTED_EDGE('',*,*,#470,.F.) ;
#512=ORIENTED_EDGE('',*,*,#484,.F.) ;
#513=ORIENTED_EDGE('',*,*,#508,.T.) ;
#541=ORIENTED_EDGE('',*,*,#527,.T.) ;
#542=ORIENTED_EDGE('',*,*,#496,.F.) ;
#543=ORIENTED_EDGE('',*,*,#534,.F.) ;
#544=ORIENTED_EDGE('',*,*,#539,.T.) ;
#553=ORIENTED_EDGE('',*,*,#534,.T.) ;
#554=ORIENTED_EDGE('',*,*,#508,.F.) ;
#555=ORIENTED_EDGE('',*,*,#527,.F.) ;
#556=ORIENTED_EDGE('',*,*,#551,.T.) ;
#565=ORIENTED_EDGE('',*,*,#539,.F.) ;
#566=ORIENTED_EDGE('',*,*,#551,.F.) ;
#64=EDGE_LOOP('',(#65,#66,#67,#68)) ;
#95=EDGE_LOOP('',(#96,#97,#98,#99)) ;
#121=EDGE_LOOP('',(#122,#123)) ;
#151=EDGE_LOOP('',(#152,#153,#154,#155,#156,#157)) ;
#177=EDGE_LOOP('',(#178,#179,#180,#181)) ;
#208=EDGE_LOOP('',(#209,#210,#211,#212,#213,#214)) ;
#227=EDGE_LOOP('',(#228,#229,#230,#231)) ;
#258=EDGE_LOOP('',(#259,#260,#261,#262)) ;
#275=EDGE_LOOP('',(#276,#277,#278,#279)) ;
#292=EDGE_LOOP('',(#293,#294,#295,#296)) ;
#304=EDGE_LOOP('',(#305,#306,#307,#308)) ;
#335=EDGE_LOOP('',(#336,#337,#338,#339)) ;
#347=EDGE_LOOP('',(#348,#349,#350,#351)) ;
#359=EDGE_LOOP('',(#360,#361)) ;
#377=EDGE_LOOP('',(#378,#379)) ;
#406=EDGE_LOOP('',(#407,#408,#409,#410)) ;
#423=EDGE_LOOP('',(#424,#425,#426,#427)) ;
#454=EDGE_LOOP('',(#455,#456,#457,#458)) ;
#471=EDGE_LOOP('',(#472,#473,#474,#475)) ;
#497=EDGE_LOOP('',(#498,#499,#500,#501)) ;
#509=EDGE_LOOP('',(#510,#511,#512,#513)) ;
#540=EDGE_LOOP('',(#541,#542,#543,#544)) ;
#552=EDGE_LOOP('',(#553,#554,#555,#556)) ;
#564=EDGE_LOOP('',(#565,#566)) ;
#21=MANIFOLD_SOLID_BREP('Body.2',#30) ;
#41=VERTEX_POINT('',#40) ;
#43=VERTEX_POINT('',#42) ;
#50=VERTEX_POINT('',#49) ;
#57=VERTEX_POINT('',#56) ;
#81=VERTEX_POINT('',#80) ;
#83=VERTEX_POINT('',#82) ;
#112=VERTEX_POINT('',#111) ;
#114=VERTEX_POINT('',#113) ;
#130=VERTEX_POINT('',#129) ;
#137=VERTEX_POINT('',#136) ;
#144=VERTEX_POINT('',#143) ;
#170=VERTEX_POINT('',#169) ;
#194=VERTEX_POINT('',#193) ;
#201=VERTEX_POINT('',#200) ;
#244=VERTEX_POINT('',#243) ;
#251=VERTEX_POINT('',#250) ;
#321=VERTEX_POINT('',#320) ;
#328=VERTEX_POINT('',#327) ;
#368=VERTEX_POINT('',#367) ;
#370=VERTEX_POINT('',#369) ;
#392=VERTEX_POINT('',#391) ;
#399=VERTEX_POINT('',#398) ;
#440=VERTEX_POINT('',#439) ;
#447=VERTEX_POINT('',#446) ;
#483=VERTEX_POINT('',#482) ;
#490=VERTEX_POINT('',#489) ;
#526=VERTEX_POINT('',#525) ;
#533=VERTEX_POINT('',#532) ;
#70=ADVANCED_FACE('Body.2',(#69),#35,.T.) ;
#101=ADVANCED_FACE('Body.2',(#100),#75,.T.) ;
#159=ADVANCED_FACE('Body.2',(#124,#158),#106,.T.) ;
#183=ADVANCED_FACE('Body.2',(#182),#164,.T.) ;
#216=ADVANCED_FACE('Body.2',(#215),#188,.T.) ;
#233=ADVANCED_FACE('Body.2',(#232),#221,.T.) ;
#264=ADVANCED_FACE('Body.2',(#263),#238,.T.) ;
#281=ADVANCED_FACE('Body.2',(#280),#269,.T.) ;
#298=ADVANCED_FACE('Body.2',(#297),#286,.T.) ;
#310=ADVANCED_FACE('Body.2',(#309),#303,.T.) ;
#341=ADVANCED_FACE('Body.2',(#340),#315,.T.) ;
#353=ADVANCED_FACE('Body.2',(#352),#315,.T.) ;
#381=ADVANCED_FACE('Body.2',(#362,#380),#358,.F.) ;
#412=ADVANCED_FACE('Body.2',(#411),#386,.F.) ;
#429=ADVANCED_FACE('Body.2',(#428),#417,.F.) ;
#460=ADVANCED_FACE('Body.2',(#459),#434,.T.) ;
#477=ADVANCED_FACE('Body.2',(#476),#465,.T.) ;
#503=ADVANCED_FACE('Body.2',(#502),#434,.T.) ;
#515=ADVANCED_FACE('Body.2',(#514),#465,.T.) ;
#546=ADVANCED_FACE('Body.2',(#545),#520,.T.) ;
#558=ADVANCED_FACE('Body.2',(#557),#520,.T.) ;
#568=ADVANCED_FACE('Body.2',(#567),#563,.F.) ;
#4=APPLICATION_PROTOCOL_DEFINITION('international standard','ap242_managed_model_based_3d_engineering',2014,#1) ;
#22=COLOUR_RGB('Colour',0.882352941176,0.882352941176,0.882352941176) ;
#69=FACE_OUTER_BOUND('',#64,.T.) ;
#100=FACE_OUTER_BOUND('',#95,.T.) ;
#124=FACE_OUTER_BOUND('',#121,.T.) ;
#182=FACE_OUTER_BOUND('',#177,.T.) ;
#215=FACE_OUTER_BOUND('',#208,.T.) ;
#232=FACE_OUTER_BOUND('',#227,.T.) ;
#263=FACE_OUTER_BOUND('',#258,.T.) ;
#280=FACE_OUTER_BOUND('',#275,.T.) ;
#297=FACE_OUTER_BOUND('',#292,.T.) ;
#309=FACE_OUTER_BOUND('',#304,.T.) ;
#340=FACE_OUTER_BOUND('',#335,.T.) ;
#352=FACE_OUTER_BOUND('',#347,.T.) ;
#362=FACE_OUTER_BOUND('',#359,.T.) ;
#411=FACE_OUTER_BOUND('',#406,.T.) ;
#428=FACE_OUTER_BOUND('',#423,.T.) ;
#459=FACE_OUTER_BOUND('',#454,.T.) ;
#476=FACE_OUTER_BOUND('',#471,.T.) ;
#502=FACE_OUTER_BOUND('',#497,.T.) ;
#514=FACE_OUTER_BOUND('',#509,.T.) ;
#545=FACE_OUTER_BOUND('',#540,.T.) ;
#557=FACE_OUTER_BOUND('',#552,.T.) ;
#567=FACE_OUTER_BOUND('',#564,.T.) ;
#7=PRODUCT_CATEGORY_RELATIONSHIP(' ',' ',#5,#6) ;
#17=PRODUCT_DEFINITION_FORMATION_WITH_SPECIFIED_SOURCE('A.1',' ',#16,.NOT_KNOWN.) ;
#20=SHAPE_DEFINITION_REPRESENTATION(#19,#13) ;
#8=(LENGTH_UNIT()NAMED_UNIT(*)SI_UNIT(.MILLI.,.METRE.)) ;
#9=(NAMED_UNIT(*)PLANE_ANGLE_UNIT()SI_UNIT($,.RADIAN.)) ;
#10=(NAMED_UNIT(*)SI_UNIT($,.STERADIAN.)SOLID_ANGLE_UNIT()) ;
#12=(GEOMETRIC_REPRESENTATION_CONTEXT(3)GLOBAL_UNCERTAINTY_ASSIGNED_CONTEXT((#11))GLOBAL_UNIT_ASSIGNED_CONTEXT((#8,#9,#10))REPRESENTATION_CONTEXT(' ',' ')) ;
ENDSEC;
END-ISO-10303-21;
