ISO-10303-21;
HEADER;
FILE_DESCRIPTION(('3DEXPERIENCE STEP','CAx-IF Rec.Pracs.--- Model Styling and Organization---1.5--- 2016-08-15','CAx-IF Rec.Pracs.---Supplemental Geometry---1.0---2011-11-01','CAx-IF Rec.Pracs.--- Composite Materials ---3.4---2017-06-13','CAx-IF Rec.Pracs.---Tessellated 3D Geometry---1.0---2015-12-17'),'2;1');

FILE_NAME('\\\\?\\D:\\School\\CarTech\\CTU.25\\Tutorials\\Model\\OEM\\BRK_PRS_Sensor.stp','2024-09-26T02:45:08+00:00',('none'),('none'),'3DEXPERIENCE Platform3DEXPERIENCE R2024x HotFix 4.24','3DEXPERIENCE Platform STEP AP242 v3','none');

FILE_SCHEMA(('AP242_MANAGED_MODEL_BASED_3D_ENGINEERING_MIM_LF  {1 0 10303 442 1 1 4}'));

ENDSEC;
DATA;
#16=PRODUCT('Brake_pressure_sensor','Brake_pressure_sensor','',(#2)) ;
#2=PRODUCT_CONTEXT(' ',#1,'mechanical') ;
#1=APPLICATION_CONTEXT('managed model based 3d engineering') ;
#18=PRODUCT_DEFINITION('Brake_pressure_sensor',' ',#17,#3) ;
#3=PRODUCT_DEFINITION_CONTEXT('part definition',#1,' ') ;
#19=PRODUCT_DEFINITION_SHAPE(' ',' ',#18) ;
#982=MECHANICAL_DESIGN_GEOMETRIC_PRESENTATION_REPRESENTATION(' ',(#29),#12) ;
#5=PRODUCT_CATEGORY('part','specification') ;
#13=SHAPE_REPRESENTATION(' ',(#15,#21),#12) ;
#14=CARTESIAN_POINT('',(0.,0.,0.)) ;
#31=CARTESIAN_POINT('Axis2P3D Location',(0.,0.,-17.3)) ;
#36=CARTESIAN_POINT('Line Origine',(1.75,0.,-17.3000000007)) ;
#40=CARTESIAN_POINT('Vertex',(1.75,0.,-12.6000000007)) ;
#42=CARTESIAN_POINT('Vertex',(1.75,8.881784197E-16,-21.9999999993)) ;
#46=CARTESIAN_POINT('Control Point',(1.75,8.881784197E-16,-12.6000000007)) ;
#47=CARTESIAN_POINT('Control Point',(1.75,-0.549778714378,-12.6000000007)) ;
#48=CARTESIAN_POINT('Control Point',(1.53410240373,-1.09955742876,-12.6000000006)) ;
#49=CARTESIAN_POINT('Control Point',(1.09955742876,-1.53410240373,-12.6000000005)) ;
#50=CARTESIAN_POINT('Control Point',(1.4594251733E-16,-1.96589759627,-12.6000000004)) ;
#51=CARTESIAN_POINT('Control Point',(-1.09955742876,-1.53410240373,-12.6000000002)) ;
#52=CARTESIAN_POINT('Control Point',(-1.53410240373,-1.09955742876,-12.6000000001)) ;
#53=CARTESIAN_POINT('Control Point',(-1.75,-0.549778714378,-12.6000000001)) ;
#54=CARTESIAN_POINT('Control Point',(-1.75,-3.88332382226E-16,-12.6)) ;
#55=CARTESIAN_POINT('Vertex',(-1.75,-2.14313189851E-16,-12.6)) ;
#58=CARTESIAN_POINT('Line Origine',(-1.75,-2.14313189851E-16,-17.3000000007)) ;
#62=CARTESIAN_POINT('Vertex',(-1.75,-2.14313189851E-16,-21.9999999993)) ;
#66=CARTESIAN_POINT('Control Point',(1.75,8.881784197E-16,-21.9999999993)) ;
#67=CARTESIAN_POINT('Control Point',(1.75,-0.549778714378,-21.9999999993)) ;
#68=CARTESIAN_POINT('Control Point',(1.53410240373,-1.09955742876,-21.9999999994)) ;
#69=CARTESIAN_POINT('Control Point',(1.09955742876,-1.53410240373,-21.9999999995)) ;
#70=CARTESIAN_POINT('Control Point',(1.4594251733E-16,-1.96589759627,-21.9999999996)) ;
#71=CARTESIAN_POINT('Control Point',(-1.09955742876,-1.53410240373,-21.9999999998)) ;
#72=CARTESIAN_POINT('Control Point',(-1.53410240373,-1.09955742876,-21.9999999999)) ;
#73=CARTESIAN_POINT('Control Point',(-1.75,-0.549778714378,-21.9999999999)) ;
#74=CARTESIAN_POINT('Control Point',(-1.75,-3.88332382226E-16,-22.)) ;
#83=CARTESIAN_POINT('Axis2P3D Location',(0.,0.,-12.6000000007)) ;
#88=CARTESIAN_POINT('Axis2P3D Location',(0.,0.,-21.9999999993)) ;
#100=CARTESIAN_POINT('Axis2P3D Location',(0.,0.,-12.6)) ;
#105=CARTESIAN_POINT('Axis2P3D Location',(-8.881784197E-16,-8.881784197E-16,-12.6)) ;
#109=CARTESIAN_POINT('Vertex',(-9.,2.14003699532E-16,-12.6)) ;
#111=CARTESIAN_POINT('Vertex',(9.,-1.31618581877E-15,-12.6)) ;
#114=CARTESIAN_POINT('Axis2P3D Location',(8.881784197E-16,8.881784197E-16,-12.6)) ;
#128=CARTESIAN_POINT('Axis2P3D Location',(0.,0.,-22.)) ;
#138=CARTESIAN_POINT('Axis2P3D Location',(0.,0.,-12.3)) ;
#143=CARTESIAN_POINT('Axis2P3D Location',(0.,0.,-11.9999999993)) ;
#147=CARTESIAN_POINT('Vertex',(-9.,-1.10218211924E-15,-11.9999999993)) ;
#149=CARTESIAN_POINT('Vertex',(9.,2.20436423847E-15,-11.9999999993)) ;
#152=CARTESIAN_POINT('Line Origine',(9.,2.20436423847E-15,-12.3000000007)) ;
#157=CARTESIAN_POINT('Line Origine',(-9.,-1.10218211924E-15,-12.3000000007)) ;
#169=CARTESIAN_POINT('Axis2P3D Location',(0.,0.,-11.9999999993)) ;
#181=CARTESIAN_POINT('Axis2P3D Location',(0.,0.,-12.)) ;
#186=CARTESIAN_POINT('Axis2P3D Location',(1.7763568394E-15,-1.7763568394E-15,-12.)) ;
#190=CARTESIAN_POINT('Vertex',(-10.3000000007,-3.03774304261E-15,-12.)) ;
#192=CARTESIAN_POINT('Vertex',(10.3000000007,1.97215226305E-31,-12.)) ;
#195=CARTESIAN_POINT('Axis2P3D Location',(-1.7763568394E-15,1.7763568394E-15,-12.)) ;
#209=CARTESIAN_POINT('Axis2P3D Location',(2.6645352591E-15,-4.4408920985E-15,-11.5)) ;
#214=CARTESIAN_POINT('Axis2P3D Location',(-10.3,6.5708755309E-15,-11.5)) ;
#218=CARTESIAN_POINT('Vertex',(-10.8,1.40525172042E-14,-11.5)) ;
#221=CARTESIAN_POINT('Axis2P3D Location',(2.6645352591E-15,-4.4408920985E-15,-11.5)) ;
#225=CARTESIAN_POINT('Vertex',(10.8,-1.46645930115E-14,-11.5)) ;
#228=CARTESIAN_POINT('Axis2P3D Location',(10.3,-1.87653923862E-14,-11.5)) ;
#240=CARTESIAN_POINT('Axis2P3D Location',(-4.4408920985E-16,-8.881784197E-16,-11.5)) ;
#245=CARTESIAN_POINT('Axis2P3D Location',(-4.4408920985E-16,-8.881784197E-16,-11.5)) ;
#257=CARTESIAN_POINT('Axis2P3D Location',(0.,0.,-1.8)) ;
#262=CARTESIAN_POINT('Line Origine',(-10.8,1.32261854308E-15,-1.80000000075)) ;
#266=CARTESIAN_POINT('Vertex',(-10.8,1.32261854308E-15,0.110000000149)) ;
#269=CARTESIAN_POINT('Axis2P3D Location',(0.,0.,0.110000000149)) ;
#273=CARTESIAN_POINT('Vertex',(10.8,0.,0.110000000149)) ;
#276=CARTESIAN_POINT('Line Origine',(10.8,0.,-1.80000000075)) ;
#288=CARTESIAN_POINT('Axis2P3D Location',(0.,0.,0.110000000149)) ;
#300=CARTESIAN_POINT('Axis2P3D Location',(0.,0.,0.11)) ;
#305=CARTESIAN_POINT('Line Origine',(2.26452775113,11.1125000007,0.11)) ;
#309=CARTESIAN_POINT('Vertex',(4.52905550227,11.1125000007,0.11)) ;
#311=CARTESIAN_POINT('Vertex',(0.,11.1125000007,0.11)) ;
#314=CARTESIAN_POINT('Axis2P3D Location',(-4.46236008145E-08,-8.10425202502E-08,0.11)) ;
#318=CARTESIAN_POINT('Vertex',(7.35917954892,9.47852712125,0.11)) ;
#321=CARTESIAN_POINT('Line Origine',(9.62370730005,5.55625000037,0.11)) ;
#325=CARTESIAN_POINT('Vertex',(11.8882350512,1.6339728795,0.11)) ;
#328=CARTESIAN_POINT('Axis2P3D Location',(-1.41366527373E-08,0.,0.11)) ;
#332=CARTESIAN_POINT('Vertex',(11.8882350512,-1.6339728795,0.11)) ;
#335=CARTESIAN_POINT('Line Origine',(9.62370730005,-5.55625000037,0.11)) ;
#339=CARTESIAN_POINT('Vertex',(7.35917954892,-9.47852712125,0.11)) ;
#342=CARTESIAN_POINT('Axis2P3D Location',(-4.46235945972E-08,8.10425095921E-08,0.11)) ;
#346=CARTESIAN_POINT('Vertex',(4.52905550227,-11.1125000007,0.11)) ;
#349=CARTESIAN_POINT('Line Origine',(2.26452775113,-11.1125000007,0.11)) ;
#353=CARTESIAN_POINT('Vertex',(0.,-11.1125000007,0.11)) ;
#356=CARTESIAN_POINT('Line Origine',(-2.26452775113,-11.1125000007,0.11)) ;
#360=CARTESIAN_POINT('Vertex',(-4.52905550227,-11.1125000007,0.11)) ;
#363=CARTESIAN_POINT('Axis2P3D Location',(4.46236008145E-08,8.10425202502E-08,0.11)) ;
#367=CARTESIAN_POINT('Vertex',(-7.35917954892,-9.47852712125,0.11)) ;
#370=CARTESIAN_POINT('Line Origine',(-9.62370730005,-5.55625000037,0.11)) ;
#374=CARTESIAN_POINT('Vertex',(-11.8882350512,-1.6339728795,0.11)) ;
#377=CARTESIAN_POINT('Axis2P3D Location',(1.41366527373E-08,0.,0.11)) ;
#381=CARTESIAN_POINT('Vertex',(-11.8882350512,1.6339728795,0.11)) ;
#384=CARTESIAN_POINT('Line Origine',(-9.62370730005,5.55625000037,0.11)) ;
#388=CARTESIAN_POINT('Vertex',(-7.35917954892,9.47852712125,0.11)) ;
#391=CARTESIAN_POINT('Axis2P3D Location',(4.46235945972E-08,-8.10425095921E-08,0.11)) ;
#395=CARTESIAN_POINT('Vertex',(-4.52905550227,11.1125000007,0.11)) ;
#398=CARTESIAN_POINT('Line Origine',(-2.26452775113,11.1125000007,0.11)) ;
#424=CARTESIAN_POINT('Axis2P3D Location',(0.,11.1125,9.)) ;
#429=CARTESIAN_POINT('Line Origine',(2.26452775113,11.1125,8.49000000022)) ;
#433=CARTESIAN_POINT('Vertex',(4.52905550227,11.1125,8.49000000022)) ;
#435=CARTESIAN_POINT('Vertex',(0.,11.1125,8.49000000022)) ;
#438=CARTESIAN_POINT('Line Origine',(4.52905550227,11.1125,4.29999999981)) ;
#443=CARTESIAN_POINT('Line Origine',(0.,11.1125,4.29999999981)) ;
#455=CARTESIAN_POINT('Axis2P3D Location',(0.,0.,4.555)) ;
#460=CARTESIAN_POINT('Line Origine',(7.35917954801,9.47852712082,4.5549999997)) ;
#464=CARTESIAN_POINT('Vertex',(7.35917954785,9.47852712095,8.49000000052)) ;
#467=CARTESIAN_POINT('Axis2P3D Location',(0.,0.,8.49000000052)) ;
#479=CARTESIAN_POINT('Axis2P3D Location',(11.8882350511,1.63397287918,9.)) ;
#484=CARTESIAN_POINT('Line Origine',(9.6237072995,5.5562500001,8.49000000022)) ;
#488=CARTESIAN_POINT('Vertex',(11.8882350511,1.63397287918,8.49000000022)) ;
#491=CARTESIAN_POINT('Line Origine',(11.8882350511,1.63397287918,4.29999999981)) ;
#503=CARTESIAN_POINT('Line Origine',(11.8882350511,-1.63397287918,4.5549999997)) ;
#507=CARTESIAN_POINT('Vertex',(11.8882350511,-1.63397287897,8.49000000052)) ;
#510=CARTESIAN_POINT('Axis2P3D Location',(0.,0.,8.49000000052)) ;
#522=CARTESIAN_POINT('Axis2P3D Location',(7.35917954801,-9.47852712082,9.)) ;
#527=CARTESIAN_POINT('Line Origine',(9.62370729961,-5.5562499999,8.49000000022)) ;
#531=CARTESIAN_POINT('Vertex',(7.35917954801,-9.47852712082,8.49000000022)) ;
#534=CARTESIAN_POINT('Line Origine',(7.35917954801,-9.47852712082,4.29999999981)) ;
#546=CARTESIAN_POINT('Line Origine',(4.52905550309,-11.1125,4.5549999997)) ;
#550=CARTESIAN_POINT('Vertex',(4.52905550328,-11.1124999999,8.49000000052)) ;
#553=CARTESIAN_POINT('Axis2P3D Location',(0.,0.,8.49000000052)) ;
#565=CARTESIAN_POINT('Axis2P3D Location',(-4.52905550308,-11.1125,9.)) ;
#570=CARTESIAN_POINT('Line Origine',(2.26452775125,-11.1125,8.49000000022)) ;
#574=CARTESIAN_POINT('Vertex',(-8.14308620534E-10,-11.1125,8.49000000022)) ;
#577=CARTESIAN_POINT('Line Origine',(-8.14308620534E-10,-11.1125,4.29999999981)) ;
#589=CARTESIAN_POINT('Line Origine',(-2.26452775195,-11.1125,8.49000000022)) ;
#593=CARTESIAN_POINT('Vertex',(-4.52905550308,-11.1125,8.49000000022)) ;
#596=CARTESIAN_POINT('Line Origine',(-4.52905550308,-11.1125,4.29999999981)) ;
#608=CARTESIAN_POINT('Line Origine',(-7.35917954801,-9.47852712082,4.5549999997)) ;
#612=CARTESIAN_POINT('Vertex',(-7.35917954801,-9.47852712082,8.49000000052)) ;
#615=CARTESIAN_POINT('Axis2P3D Location',(0.,0.,8.49000000052)) ;
#627=CARTESIAN_POINT('Axis2P3D Location',(-7.35917954801,-9.47852712082,9.)) ;
#632=CARTESIAN_POINT('Line Origine',(-11.8882350512,-1.63397287898,4.29999999981)) ;
#636=CARTESIAN_POINT('Vertex',(-11.8882350512,-1.63397287898,8.49000000022)) ;
#639=CARTESIAN_POINT('Line Origine',(-9.62370729961,-5.5562499999,8.49000000022)) ;
#651=CARTESIAN_POINT('Line Origine',(-11.8882350511,1.63397287918,4.5549999997)) ;
#655=CARTESIAN_POINT('Vertex',(-11.8882350511,1.63397287918,8.49000000052)) ;
#658=CARTESIAN_POINT('Axis2P3D Location',(0.,0.,8.49000000052)) ;
#670=CARTESIAN_POINT('Axis2P3D Location',(-11.8882350511,1.63397287918,9.)) ;
#675=CARTESIAN_POINT('Line Origine',(-7.3591795479,9.47852712102,4.29999999981)) ;
#679=CARTESIAN_POINT('Vertex',(-7.3591795479,9.47852712102,8.49000000022)) ;
#682=CARTESIAN_POINT('Line Origine',(-9.6237072995,5.5562500001,8.49000000022)) ;
#694=CARTESIAN_POINT('Line Origine',(-4.52905550308,11.1125,4.5549999997)) ;
#698=CARTESIAN_POINT('Vertex',(-4.52905550239,11.1125000003,8.49000000052)) ;
#701=CARTESIAN_POINT('Axis2P3D Location',(0.,0.,8.49000000052)) ;
#713=CARTESIAN_POINT('Line Origine',(-2.26452775113,11.1125,8.49000000022)) ;
#725=CARTESIAN_POINT('Axis2P3D Location',(0.,0.,8.49)) ;
#746=CARTESIAN_POINT('Axis2P3D Location',(1.7763568394E-15,1.7763568394E-15,8.49)) ;
#750=CARTESIAN_POINT('Vertex',(8.00999999978,-1.85527332779E-16,8.49)) ;
#752=CARTESIAN_POINT('Vertex',(-8.00999999978,-7.95414753311E-16,8.49)) ;
#755=CARTESIAN_POINT('Axis2P3D Location',(-1.7763568394E-15,-1.7763568394E-15,8.49)) ;
#765=CARTESIAN_POINT('Axis2P3D Location',(0.,-1.7763568394E-15,9.)) ;
#770=CARTESIAN_POINT('Axis2P3D Location',(0.,-1.7763568394E-15,9.)) ;
#774=CARTESIAN_POINT('Vertex',(7.5,-6.02551101264E-15,9.)) ;
#776=CARTESIAN_POINT('Vertex',(-7.5,-1.7763568394E-15,9.)) ;
#779=CARTESIAN_POINT('Axis2P3D Location',(-8.01,-1.7763568394E-15,9.)) ;
#784=CARTESIAN_POINT('Axis2P3D Location',(8.01,-6.31445349642E-15,9.)) ;
#796=CARTESIAN_POINT('Axis2P3D Location',(-4.4408920985E-16,-2.6645352591E-15,9.)) ;
#801=CARTESIAN_POINT('Axis2P3D Location',(-4.4408920985E-16,-2.6645352591E-15,9.)) ;
#813=CARTESIAN_POINT('Axis2P3D Location',(0.,0.,9.)) ;
#822=CARTESIAN_POINT('Axis2P3D Location',(8.881784197E-16,8.881784197E-16,9.)) ;
#826=CARTESIAN_POINT('Vertex',(5.,-3.36468379447E-16,9.)) ;
#828=CARTESIAN_POINT('Vertex',(-5.,-2.75855020126E-16,9.)) ;
#831=CARTESIAN_POINT('Axis2P3D Location',(-8.881784197E-16,-8.881784197E-16,9.)) ;
#841=CARTESIAN_POINT('Axis2P3D Location',(0.,0.,13.7)) ;
#846=CARTESIAN_POINT('Line Origine',(5.,0.,13.6999999993)) ;
#850=CARTESIAN_POINT('Vertex',(5.00000000035,1.2246467988E-15,17.8999999996)) ;
#853=CARTESIAN_POINT('Line Origine',(-5.,6.12323399574E-16,13.6999999993)) ;
#857=CARTESIAN_POINT('Vertex',(-5.,6.12323399574E-16,17.8999999993)) ;
#861=CARTESIAN_POINT('Control Point',(5.,-1.57772181044E-30,17.8999999993)) ;
#862=CARTESIAN_POINT('Control Point',(5.,0.785398163397,17.8999999992)) ;
#863=CARTESIAN_POINT('Control Point',(4.84578743123,1.57079632679,17.8999999992)) ;
#864=CARTESIAN_POINT('Control Point',(4.53720988735,2.31576841827,17.8999999992)) ;
#865=CARTESIAN_POINT('Control Point',(3.64457865905,3.64457865905,17.8999999991)) ;
#866=CARTESIAN_POINT('Control Point',(2.31576841827,4.53720988735,17.899999999)) ;
#867=CARTESIAN_POINT('Control Point',(1.57079632679,4.84578743123,17.899999999)) ;
#868=CARTESIAN_POINT('Control Point',(-4.25243723713E-16,5.15421256877,17.8999999989)) ;
#869=CARTESIAN_POINT('Control Point',(-1.57079632679,4.84578743123,17.8999999989)) ;
#870=CARTESIAN_POINT('Control Point',(-2.31576841827,4.53720988735,17.8999999988)) ;
#871=CARTESIAN_POINT('Control Point',(-3.64457865905,3.64457865905,17.8999999988)) ;
#872=CARTESIAN_POINT('Control Point',(-4.53720988735,2.31576841827,17.8999999987)) ;
#873=CARTESIAN_POINT('Control Point',(-4.84578743123,1.57079632679,17.8999999987)) ;
#874=CARTESIAN_POINT('Control Point',(-5.,0.785398163397,17.8999999986)) ;
#875=CARTESIAN_POINT('Control Point',(-5.,6.49922519577E-16,17.8999999986)) ;
#884=CARTESIAN_POINT('Axis2P3D Location',(0.,0.,17.8999999993)) ;
#888=CARTESIAN_POINT('Vertex',(2.5,-4.33012701892,17.8999999993)) ;
#891=CARTESIAN_POINT('Axis2P3D Location',(0.,0.,17.8999999993)) ;
#904=CARTESIAN_POINT('Axis2P3D Location',(6.43929354283E-15,6.2172489379E-15,22.9)) ;
#909=CARTESIAN_POINT('Line Origine',(1767766.95297,-1.76514519679E-09,-1767744.05297)) ;
#913=CARTESIAN_POINT('Vertex',(4.5,1.72390701302E-15,18.4)) ;
#916=CARTESIAN_POINT('Line Origine',(-1767766.95297,-2.7286307307E-09,-1767744.05297)) ;
#920=CARTESIAN_POINT('Vertex',(-4.49999999984,-7.28726743317E-16,18.4000000002)) ;
#923=CARTESIAN_POINT('Axis2P3D Location',(4.44089209852E-16,2.22044604922E-16,18.4)) ;
#935=CARTESIAN_POINT('Line Origine',(883883.476483,-1530931.08924,-1767744.05297)) ;
#939=CARTESIAN_POINT('Vertex',(2.25,-3.89711431703,18.4)) ;
#942=CARTESIAN_POINT('Axis2P3D Location',(4.44089209852E-16,2.22044604922E-16,18.4)) ;
#954=CARTESIAN_POINT('Axis2P3D Location',(-4.4408920985E-16,-7.60901324002E-15,22.9)) ;
#959=CARTESIAN_POINT('Axis2P3D Location',(-4.4408920985E-16,-7.69185074542E-16,18.4)) ;
#971=CARTESIAN_POINT('Axis2P3D Location',(0.,0.,18.4)) ;
#6=PRODUCT_RELATED_PRODUCT_CATEGORY('part',$,(#16)) ;
#11=UNCERTAINTY_MEASURE_WITH_UNIT(LENGTH_MEASURE(0.005),#8,'distance_accuracy_value','CONFUSED CURVE UNCERTAINTY') ;
#29=STYLED_ITEM(' ',(#28),#21) ;
#28=PRESENTATION_STYLE_ASSIGNMENT((#27)) ;
#27=SURFACE_STYLE_USAGE(.BOTH.,#26) ;
#26=SURFACE_SIDE_STYLE(' ',(#25)) ;
#25=SURFACE_STYLE_FILL_AREA(#24) ;
#24=FILL_AREA_STYLE(' ',(#23)) ;
#23=FILL_AREA_STYLE_COLOUR(' ',#22) ;
#38=VECTOR('Line Direction',#37,1.) ;
#60=VECTOR('Line Direction',#59,1.) ;
#154=VECTOR('Line Direction',#153,1.) ;
#159=VECTOR('Line Direction',#158,1.) ;
#264=VECTOR('Line Direction',#263,1.) ;
#278=VECTOR('Line Direction',#277,1.) ;
#307=VECTOR('Line Direction',#306,1.) ;
#323=VECTOR('Line Direction',#322,1.) ;
#337=VECTOR('Line Direction',#336,1.) ;
#351=VECTOR('Line Direction',#350,1.) ;
#358=VECTOR('Line Direction',#357,1.) ;
#372=VECTOR('Line Direction',#371,1.) ;
#386=VECTOR('Line Direction',#385,1.) ;
#400=VECTOR('Line Direction',#399,1.) ;
#431=VECTOR('Line Direction',#430,1.) ;
#440=VECTOR('Line Direction',#439,1.) ;
#445=VECTOR('Line Direction',#444,1.) ;
#462=VECTOR('Line Direction',#461,1.) ;
#486=VECTOR('Line Direction',#485,1.) ;
#493=VECTOR('Line Direction',#492,1.) ;
#505=VECTOR('Line Direction',#504,1.) ;
#529=VECTOR('Line Direction',#528,1.) ;
#536=VECTOR('Line Direction',#535,1.) ;
#548=VECTOR('Line Direction',#547,1.) ;
#572=VECTOR('Line Direction',#571,1.) ;
#579=VECTOR('Line Direction',#578,1.) ;
#591=VECTOR('Line Direction',#590,1.) ;
#598=VECTOR('Line Direction',#597,1.) ;
#610=VECTOR('Line Direction',#609,1.) ;
#634=VECTOR('Line Direction',#633,1.) ;
#641=VECTOR('Line Direction',#640,1.) ;
#653=VECTOR('Line Direction',#652,1.) ;
#677=VECTOR('Line Direction',#676,1.) ;
#684=VECTOR('Line Direction',#683,1.) ;
#696=VECTOR('Line Direction',#695,1.) ;
#715=VECTOR('Line Direction',#714,1.) ;
#848=VECTOR('Line Direction',#847,1.) ;
#855=VECTOR('Line Direction',#854,1.) ;
#911=VECTOR('Line Direction',#910,1.) ;
#918=VECTOR('Line Direction',#917,1.) ;
#937=VECTOR('Line Direction',#936,1.) ;
#32=DIRECTION('Axis2P3D Direction',(0.,0.,-1.)) ;
#33=DIRECTION('Axis2P3D XDirection',(1.,5.07530525543E-16,0.)) ;
#37=DIRECTION('Vector Direction',(0.,0.,-1.)) ;
#59=DIRECTION('Vector Direction',(0.,0.,-1.)) ;
#84=DIRECTION('Axis2P3D Direction',(0.,0.,-1.)) ;
#89=DIRECTION('Axis2P3D Direction',(0.,0.,-1.)) ;
#101=DIRECTION('Axis2P3D Direction',(0.,0.,1.)) ;
#102=DIRECTION('Axis2P3D XDirection',(1.,0.,0.)) ;
#106=DIRECTION('Axis2P3D Direction',(0.,0.,1.)) ;
#115=DIRECTION('Axis2P3D Direction',(0.,0.,1.)) ;
#129=DIRECTION('Axis2P3D Direction',(0.,0.,-1.)) ;
#130=DIRECTION('Axis2P3D XDirection',(1.,0.,0.)) ;
#139=DIRECTION('Axis2P3D Direction',(-0.,0.,-1.)) ;
#140=DIRECTION('Axis2P3D XDirection',(1.,2.64687485605E-28,-0.)) ;
#144=DIRECTION('Axis2P3D Direction',(-0.,0.,-1.)) ;
#153=DIRECTION('Vector Direction',(0.,0.,-1.)) ;
#158=DIRECTION('Vector Direction',(0.,0.,-1.)) ;
#170=DIRECTION('Axis2P3D Direction',(-0.,0.,-1.)) ;
#182=DIRECTION('Axis2P3D Direction',(0.,0.,-1.)) ;
#183=DIRECTION('Axis2P3D XDirection',(1.,0.,0.)) ;
#187=DIRECTION('Axis2P3D Direction',(0.,0.,-1.)) ;
#196=DIRECTION('Axis2P3D Direction',(0.,0.,-1.)) ;
#210=DIRECTION('Axis2P3D Direction',(-0.,0.,-1.)) ;
#211=DIRECTION('Axis2P3D XDirection',(-1.,1.06910365334E-15,0.)) ;
#215=DIRECTION('Axis2P3D Direction',(-1.06910365334E-15,-1.,0.)) ;
#222=DIRECTION('Axis2P3D Direction',(0.,0.,-1.)) ;
#229=DIRECTION('Axis2P3D Direction',(1.39072818328E-15,1.,0.)) ;
#241=DIRECTION('Axis2P3D Direction',(0.,0.,-1.)) ;
#242=DIRECTION('Axis2P3D XDirection',(1.,-1.6447748513E-16,0.)) ;
#246=DIRECTION('Axis2P3D Direction',(0.,0.,-1.)) ;
#258=DIRECTION('Axis2P3D Direction',(0.,0.,1.)) ;
#259=DIRECTION('Axis2P3D XDirection',(1.,0.,0.)) ;
#263=DIRECTION('Vector Direction',(0.,0.,1.)) ;
#270=DIRECTION('Axis2P3D Direction',(0.,0.,1.)) ;
#277=DIRECTION('Vector Direction',(0.,0.,1.)) ;
#289=DIRECTION('Axis2P3D Direction',(0.,0.,1.)) ;
#301=DIRECTION('Axis2P3D Direction',(0.,0.,1.)) ;
#302=DIRECTION('Axis2P3D XDirection',(1.,0.,0.)) ;
#306=DIRECTION('Vector Direction',(1.,0.,0.)) ;
#315=DIRECTION('Axis2P3D Direction',(0.,0.,1.)) ;
#322=DIRECTION('Vector Direction',(-0.499999999927,0.866025403826,0.)) ;
#329=DIRECTION('Axis2P3D Direction',(0.,0.,1.)) ;
#336=DIRECTION('Vector Direction',(0.499999999927,0.866025403826,0.)) ;
#343=DIRECTION('Axis2P3D Direction',(0.,0.,1.)) ;
#350=DIRECTION('Vector Direction',(-1.,0.,0.)) ;
#357=DIRECTION('Vector Direction',(1.,0.,0.)) ;
#364=DIRECTION('Axis2P3D Direction',(0.,0.,1.)) ;
#371=DIRECTION('Vector Direction',(-0.499999999927,0.866025403826,0.)) ;
#378=DIRECTION('Axis2P3D Direction',(0.,0.,1.)) ;
#385=DIRECTION('Vector Direction',(0.499999999927,0.866025403826,0.)) ;
#392=DIRECTION('Axis2P3D Direction',(0.,0.,1.)) ;
#399=DIRECTION('Vector Direction',(-1.,0.,0.)) ;
#425=DIRECTION('Axis2P3D Direction',(-0.,-1.,-0.)) ;
#426=DIRECTION('Axis2P3D XDirection',(-1.,0.,0.)) ;
#430=DIRECTION('Vector Direction',(-1.,0.,0.)) ;
#439=DIRECTION('Vector Direction',(0.,0.,1.)) ;
#444=DIRECTION('Vector Direction',(0.,0.,-1.)) ;
#456=DIRECTION('Axis2P3D Direction',(0.,0.,1.)) ;
#457=DIRECTION('Axis2P3D XDirection',(0.377421291924,-0.926041666667,0.)) ;
#461=DIRECTION('Vector Direction',(0.,0.,1.)) ;
#468=DIRECTION('Axis2P3D Direction',(0.,0.,1.)) ;
#480=DIRECTION('Axis2P3D Direction',(-0.866025403784,-0.5,-0.)) ;
#481=DIRECTION('Axis2P3D XDirection',(-0.5,0.866025403784,0.)) ;
#485=DIRECTION('Vector Direction',(-0.5,0.866025403784,0.)) ;
#492=DIRECTION('Vector Direction',(0.,0.,1.)) ;
#504=DIRECTION('Vector Direction',(0.,0.,1.)) ;
#511=DIRECTION('Axis2P3D Direction',(0.,0.,1.)) ;
#523=DIRECTION('Axis2P3D Direction',(-0.866025403784,0.5,0.)) ;
#524=DIRECTION('Axis2P3D XDirection',(0.5,0.866025403784,0.)) ;
#528=DIRECTION('Vector Direction',(0.5,0.866025403784,0.)) ;
#535=DIRECTION('Vector Direction',(0.,0.,1.)) ;
#547=DIRECTION('Vector Direction',(0.,0.,1.)) ;
#554=DIRECTION('Axis2P3D Direction',(0.,0.,1.)) ;
#566=DIRECTION('Axis2P3D Direction',(-0.,1.,0.)) ;
#567=DIRECTION('Axis2P3D XDirection',(1.,0.,0.)) ;
#571=DIRECTION('Vector Direction',(1.,0.,0.)) ;
#578=DIRECTION('Vector Direction',(0.,0.,-1.)) ;
#590=DIRECTION('Vector Direction',(1.,0.,0.)) ;
#597=DIRECTION('Vector Direction',(0.,0.,1.)) ;
#609=DIRECTION('Vector Direction',(0.,0.,1.)) ;
#616=DIRECTION('Axis2P3D Direction',(0.,0.,1.)) ;
#628=DIRECTION('Axis2P3D Direction',(-0.866025403784,-0.5,-0.)) ;
#629=DIRECTION('Axis2P3D XDirection',(-0.5,0.866025403784,0.)) ;
#633=DIRECTION('Vector Direction',(0.,0.,1.)) ;
#640=DIRECTION('Vector Direction',(-0.5,0.866025403784,0.)) ;
#652=DIRECTION('Vector Direction',(0.,0.,1.)) ;
#659=DIRECTION('Axis2P3D Direction',(0.,0.,1.)) ;
#671=DIRECTION('Axis2P3D Direction',(-0.866025403784,0.5,0.)) ;
#672=DIRECTION('Axis2P3D XDirection',(0.5,0.866025403784,0.)) ;
#676=DIRECTION('Vector Direction',(0.,0.,1.)) ;
#683=DIRECTION('Vector Direction',(0.5,0.866025403784,0.)) ;
#695=DIRECTION('Vector Direction',(0.,0.,1.)) ;
#702=DIRECTION('Axis2P3D Direction',(0.,0.,1.)) ;
#714=DIRECTION('Vector Direction',(-1.,0.,0.)) ;
#726=DIRECTION('Axis2P3D Direction',(0.,0.,1.)) ;
#727=DIRECTION('Axis2P3D XDirection',(1.,0.,0.)) ;
#747=DIRECTION('Axis2P3D Direction',(0.,0.,1.)) ;
#756=DIRECTION('Axis2P3D Direction',(0.,0.,1.)) ;
#766=DIRECTION('Axis2P3D Direction',(0.,-0.,1.)) ;
#767=DIRECTION('Axis2P3D XDirection',(-1.,0.,0.)) ;
#771=DIRECTION('Axis2P3D Direction',(0.,0.,1.)) ;
#780=DIRECTION('Axis2P3D Direction',(0.,1.,0.)) ;
#785=DIRECTION('Axis2P3D Direction',(-5.66553889765E-16,-1.,0.)) ;
#797=DIRECTION('Axis2P3D Direction',(-0.,0.,1.)) ;
#798=DIRECTION('Axis2P3D XDirection',(1.,4.14483262527E-16,0.)) ;
#802=DIRECTION('Axis2P3D Direction',(-0.,0.,1.)) ;
#814=DIRECTION('Axis2P3D Direction',(0.,0.,1.)) ;
#815=DIRECTION('Axis2P3D XDirection',(1.,0.,0.)) ;
#823=DIRECTION('Axis2P3D Direction',(0.,0.,1.)) ;
#832=DIRECTION('Axis2P3D Direction',(0.,0.,1.)) ;
#842=DIRECTION('Axis2P3D Direction',(0.,0.,1.)) ;
#843=DIRECTION('Axis2P3D XDirection',(1.,-4.2256504377E-16,0.)) ;
#847=DIRECTION('Vector Direction',(0.,0.,1.)) ;
#854=DIRECTION('Vector Direction',(0.,0.,1.)) ;
#885=DIRECTION('Axis2P3D Direction',(0.,0.,1.)) ;
#892=DIRECTION('Axis2P3D Direction',(0.,0.,1.)) ;
#905=DIRECTION('Axis2P3D Direction',(-1.33226762955E-15,-1.33226762955E-15,-1.)) ;
#906=DIRECTION('Axis2P3D XDirection',(-1.,-2.11282521885E-16,1.31708901597E-15)) ;
#910=DIRECTION('Vector Direction',(0.707106781186,-7.06060565616E-16,-0.707106781187)) ;
#917=DIRECTION('Vector Direction',(-0.707106781186,-1.09145477918E-15,-0.707106781187)) ;
#924=DIRECTION('Axis2P3D Direction',(-1.33226762955E-15,-1.33226762955E-15,-1.)) ;
#936=DIRECTION('Vector Direction',(0.353553390593,-0.612372435695,-0.707106781187)) ;
#943=DIRECTION('Axis2P3D Direction',(-1.33226762955E-15,-1.33226762955E-15,-1.)) ;
#955=DIRECTION('Axis2P3D Direction',(-0.,1.51996181455E-15,-1.)) ;
#956=DIRECTION('Axis2P3D XDirection',(0.5,-0.866025403784,-1.31708901597E-15)) ;
#960=DIRECTION('Axis2P3D Direction',(0.,1.51996181455E-15,-1.)) ;
#972=DIRECTION('Axis2P3D Direction',(0.,0.,1.)) ;
#973=DIRECTION('Axis2P3D XDirection',(1.,0.,0.)) ;
#15=AXIS2_PLACEMENT_3D('',#14,$,$) ;
#34=AXIS2_PLACEMENT_3D('Cylinder Axis2P3D',#31,#32,#33) ;
#85=AXIS2_PLACEMENT_3D('Circle Axis2P3D',#83,#84,$) ;
#90=AXIS2_PLACEMENT_3D('Circle Axis2P3D',#88,#89,$) ;
#103=AXIS2_PLACEMENT_3D('Plane Axis2P3D',#100,#101,#102) ;
#107=AXIS2_PLACEMENT_3D('Circle Axis2P3D',#105,#106,$) ;
#116=AXIS2_PLACEMENT_3D('Circle Axis2P3D',#114,#115,$) ;
#131=AXIS2_PLACEMENT_3D('Plane Axis2P3D',#128,#129,#130) ;
#141=AXIS2_PLACEMENT_3D('Cylinder Axis2P3D',#138,#139,#140) ;
#145=AXIS2_PLACEMENT_3D('Circle Axis2P3D',#143,#144,$) ;
#171=AXIS2_PLACEMENT_3D('Circle Axis2P3D',#169,#170,$) ;
#184=AXIS2_PLACEMENT_3D('Plane Axis2P3D',#181,#182,#183) ;
#188=AXIS2_PLACEMENT_3D('Circle Axis2P3D',#186,#187,$) ;
#197=AXIS2_PLACEMENT_3D('Circle Axis2P3D',#195,#196,$) ;
#212=AXIS2_PLACEMENT_3D('Torus Axis2P3D',#209,#210,#211) ;
#216=AXIS2_PLACEMENT_3D('Circle Axis2P3D',#214,#215,$) ;
#223=AXIS2_PLACEMENT_3D('Circle Axis2P3D',#221,#222,$) ;
#230=AXIS2_PLACEMENT_3D('Circle Axis2P3D',#228,#229,$) ;
#243=AXIS2_PLACEMENT_3D('Torus Axis2P3D',#240,#241,#242) ;
#247=AXIS2_PLACEMENT_3D('Circle Axis2P3D',#245,#246,$) ;
#260=AXIS2_PLACEMENT_3D('Cylinder Axis2P3D',#257,#258,#259) ;
#271=AXIS2_PLACEMENT_3D('Circle Axis2P3D',#269,#270,$) ;
#290=AXIS2_PLACEMENT_3D('Circle Axis2P3D',#288,#289,$) ;
#303=AXIS2_PLACEMENT_3D('Plane Axis2P3D',#300,#301,#302) ;
#316=AXIS2_PLACEMENT_3D('Circle Axis2P3D',#314,#315,$) ;
#330=AXIS2_PLACEMENT_3D('Circle Axis2P3D',#328,#329,$) ;
#344=AXIS2_PLACEMENT_3D('Circle Axis2P3D',#342,#343,$) ;
#365=AXIS2_PLACEMENT_3D('Circle Axis2P3D',#363,#364,$) ;
#379=AXIS2_PLACEMENT_3D('Circle Axis2P3D',#377,#378,$) ;
#393=AXIS2_PLACEMENT_3D('Circle Axis2P3D',#391,#392,$) ;
#427=AXIS2_PLACEMENT_3D('Plane Axis2P3D',#424,#425,#426) ;
#458=AXIS2_PLACEMENT_3D('Cylinder Axis2P3D',#455,#456,#457) ;
#469=AXIS2_PLACEMENT_3D('Circle Axis2P3D',#467,#468,$) ;
#482=AXIS2_PLACEMENT_3D('Plane Axis2P3D',#479,#480,#481) ;
#512=AXIS2_PLACEMENT_3D('Circle Axis2P3D',#510,#511,$) ;
#525=AXIS2_PLACEMENT_3D('Plane Axis2P3D',#522,#523,#524) ;
#555=AXIS2_PLACEMENT_3D('Circle Axis2P3D',#553,#554,$) ;
#568=AXIS2_PLACEMENT_3D('Plane Axis2P3D',#565,#566,#567) ;
#617=AXIS2_PLACEMENT_3D('Circle Axis2P3D',#615,#616,$) ;
#630=AXIS2_PLACEMENT_3D('Plane Axis2P3D',#627,#628,#629) ;
#660=AXIS2_PLACEMENT_3D('Circle Axis2P3D',#658,#659,$) ;
#673=AXIS2_PLACEMENT_3D('Plane Axis2P3D',#670,#671,#672) ;
#703=AXIS2_PLACEMENT_3D('Circle Axis2P3D',#701,#702,$) ;
#728=AXIS2_PLACEMENT_3D('Plane Axis2P3D',#725,#726,#727) ;
#748=AXIS2_PLACEMENT_3D('Circle Axis2P3D',#746,#747,$) ;
#757=AXIS2_PLACEMENT_3D('Circle Axis2P3D',#755,#756,$) ;
#768=AXIS2_PLACEMENT_3D('Torus Axis2P3D',#765,#766,#767) ;
#772=AXIS2_PLACEMENT_3D('Circle Axis2P3D',#770,#771,$) ;
#781=AXIS2_PLACEMENT_3D('Circle Axis2P3D',#779,#780,$) ;
#786=AXIS2_PLACEMENT_3D('Circle Axis2P3D',#784,#785,$) ;
#799=AXIS2_PLACEMENT_3D('Torus Axis2P3D',#796,#797,#798) ;
#803=AXIS2_PLACEMENT_3D('Circle Axis2P3D',#801,#802,$) ;
#816=AXIS2_PLACEMENT_3D('Plane Axis2P3D',#813,#814,#815) ;
#824=AXIS2_PLACEMENT_3D('Circle Axis2P3D',#822,#823,$) ;
#833=AXIS2_PLACEMENT_3D('Circle Axis2P3D',#831,#832,$) ;
#844=AXIS2_PLACEMENT_3D('Cylinder Axis2P3D',#841,#842,#843) ;
#886=AXIS2_PLACEMENT_3D('Circle Axis2P3D',#884,#885,$) ;
#893=AXIS2_PLACEMENT_3D('Circle Axis2P3D',#891,#892,$) ;
#907=AXIS2_PLACEMENT_3D('Cone Axis2P3D',#904,#905,#906) ;
#925=AXIS2_PLACEMENT_3D('Circle Axis2P3D',#923,#924,$) ;
#944=AXIS2_PLACEMENT_3D('Circle Axis2P3D',#942,#943,$) ;
#957=AXIS2_PLACEMENT_3D('Cone Axis2P3D',#954,#955,#956) ;
#961=AXIS2_PLACEMENT_3D('Circle Axis2P3D',#959,#960,$) ;
#974=AXIS2_PLACEMENT_3D('Plane Axis2P3D',#971,#972,#973) ;
#39=LINE('Line',#36,#38) ;
#61=LINE('Line',#58,#60) ;
#155=LINE('Line',#152,#154) ;
#160=LINE('Line',#157,#159) ;
#265=LINE('Line',#262,#264) ;
#279=LINE('Line',#276,#278) ;
#308=LINE('Line',#305,#307) ;
#324=LINE('Line',#321,#323) ;
#338=LINE('Line',#335,#337) ;
#352=LINE('Line',#349,#351) ;
#359=LINE('Line',#356,#358) ;
#373=LINE('Line',#370,#372) ;
#387=LINE('Line',#384,#386) ;
#401=LINE('Line',#398,#400) ;
#432=LINE('Line',#429,#431) ;
#441=LINE('Line',#438,#440) ;
#446=LINE('Line',#443,#445) ;
#463=LINE('Line',#460,#462) ;
#487=LINE('Line',#484,#486) ;
#494=LINE('Line',#491,#493) ;
#506=LINE('Line',#503,#505) ;
#530=LINE('Line',#527,#529) ;
#537=LINE('Line',#534,#536) ;
#549=LINE('Line',#546,#548) ;
#573=LINE('Line',#570,#572) ;
#580=LINE('Line',#577,#579) ;
#592=LINE('Line',#589,#591) ;
#599=LINE('Line',#596,#598) ;
#611=LINE('Line',#608,#610) ;
#635=LINE('Line',#632,#634) ;
#642=LINE('Line',#639,#641) ;
#654=LINE('Line',#651,#653) ;
#678=LINE('Line',#675,#677) ;
#685=LINE('Line',#682,#684) ;
#697=LINE('Line',#694,#696) ;
#716=LINE('Line',#713,#715) ;
#849=LINE('Line',#846,#848) ;
#856=LINE('Line',#853,#855) ;
#912=LINE('Line',#909,#911) ;
#919=LINE('Line',#916,#918) ;
#938=LINE('Line',#935,#937) ;
#86=CIRCLE('generated circle',#85,1.75) ;
#91=CIRCLE('generated circle',#90,1.75) ;
#108=CIRCLE('generated circle',#107,9.) ;
#117=CIRCLE('generated circle',#116,9.) ;
#146=CIRCLE('generated circle',#145,9.) ;
#172=CIRCLE('generated circle',#171,9.) ;
#189=CIRCLE('generated circle',#188,10.3000000007) ;
#198=CIRCLE('generated circle',#197,10.3000000007) ;
#217=CIRCLE('generated circle',#216,0.5) ;
#224=CIRCLE('generated circle',#223,10.8) ;
#231=CIRCLE('generated circle',#230,0.5) ;
#248=CIRCLE('generated circle',#247,10.8) ;
#272=CIRCLE('generated circle',#271,10.8) ;
#291=CIRCLE('generated circle',#290,10.8) ;
#317=CIRCLE('generated circle',#316,12.0000000923) ;
#331=CIRCLE('generated circle',#330,12.0000000141) ;
#345=CIRCLE('generated circle',#344,12.0000000923) ;
#366=CIRCLE('generated circle',#365,12.0000000923) ;
#380=CIRCLE('generated circle',#379,12.0000000141) ;
#394=CIRCLE('generated circle',#393,12.0000000923) ;
#470=CIRCLE('generated circle',#469,12.) ;
#513=CIRCLE('generated circle',#512,12.) ;
#556=CIRCLE('generated circle',#555,12.) ;
#618=CIRCLE('generated circle',#617,12.) ;
#661=CIRCLE('generated circle',#660,12.) ;
#704=CIRCLE('generated circle',#703,12.) ;
#749=CIRCLE('generated circle',#748,8.00999999978) ;
#758=CIRCLE('generated circle',#757,8.00999999978) ;
#773=CIRCLE('generated circle',#772,7.5) ;
#782=CIRCLE('generated circle',#781,0.51) ;
#787=CIRCLE('generated circle',#786,0.51) ;
#804=CIRCLE('generated circle',#803,7.5) ;
#825=CIRCLE('generated circle',#824,5.) ;
#834=CIRCLE('generated circle',#833,5.) ;
#887=CIRCLE('generated circle',#886,5.) ;
#894=CIRCLE('generated circle',#893,5.) ;
#926=CIRCLE('generated circle',#925,4.5) ;
#945=CIRCLE('generated circle',#944,4.5) ;
#962=CIRCLE('generated circle',#961,4.5) ;
#104=PLANE('',#103) ;
#132=PLANE('',#131) ;
#185=PLANE('',#184) ;
#304=PLANE('',#303) ;
#428=PLANE('',#427) ;
#483=PLANE('',#482) ;
#526=PLANE('',#525) ;
#569=PLANE('',#568) ;
#631=PLANE('',#630) ;
#674=PLANE('',#673) ;
#729=PLANE('',#728) ;
#817=PLANE('',#816) ;
#975=PLANE('',#974) ;
#35=CYLINDRICAL_SURFACE('generated cylinder',#34,1.75) ;
#142=CYLINDRICAL_SURFACE('generated cylinder',#141,9.) ;
#261=CYLINDRICAL_SURFACE('generated cylinder',#260,10.8) ;
#459=CYLINDRICAL_SURFACE('generated cylinder',#458,12.) ;
#845=CYLINDRICAL_SURFACE('generated cylinder',#844,5.) ;
#908=CONICAL_SURFACE('Cone',#907,0.,0.785398163397) ;
#958=CONICAL_SURFACE('Cone',#957,0.,0.785398163397) ;
#213=TOROIDAL_SURFACE('homeo Torus',#212,10.3,0.5) ;
#244=TOROIDAL_SURFACE('homeo Torus',#243,10.3,0.5) ;
#769=TOROIDAL_SURFACE('homeo Torus',#768,8.01,0.51) ;
#800=TOROIDAL_SURFACE('homeo Torus',#799,8.01,0.51) ;
#126=FACE_BOUND('',#123,.T.) ;
#207=FACE_BOUND('',#204,.T.) ;
#422=FACE_BOUND('',#419,.T.) ;
#763=FACE_BOUND('',#760,.T.) ;
#839=FACE_BOUND('',#836,.T.) ;
#44=EDGE_CURVE('',#41,#43,#39,.T.) ;
#57=EDGE_CURVE('',#41,#56,#45,.T.) ;
#64=EDGE_CURVE('',#56,#63,#61,.T.) ;
#75=EDGE_CURVE('',#43,#63,#65,.T.) ;
#87=EDGE_CURVE('',#56,#41,#86,.T.) ;
#92=EDGE_CURVE('',#63,#43,#91,.T.) ;
#113=EDGE_CURVE('',#110,#112,#108,.F.) ;
#118=EDGE_CURVE('',#112,#110,#117,.F.) ;
#151=EDGE_CURVE('',#148,#150,#146,.T.) ;
#156=EDGE_CURVE('',#112,#150,#155,.F.) ;
#161=EDGE_CURVE('',#110,#148,#160,.F.) ;
#173=EDGE_CURVE('',#150,#148,#172,.T.) ;
#194=EDGE_CURVE('',#191,#193,#189,.T.) ;
#199=EDGE_CURVE('',#193,#191,#198,.T.) ;
#220=EDGE_CURVE('',#191,#219,#217,.F.) ;
#227=EDGE_CURVE('',#219,#226,#224,.T.) ;
#232=EDGE_CURVE('',#193,#226,#231,.F.) ;
#249=EDGE_CURVE('',#226,#219,#248,.T.) ;
#268=EDGE_CURVE('',#219,#267,#265,.T.) ;
#275=EDGE_CURVE('',#274,#267,#272,.T.) ;
#280=EDGE_CURVE('',#226,#274,#279,.T.) ;
#292=EDGE_CURVE('',#267,#274,#291,.T.) ;
#313=EDGE_CURVE('',#310,#312,#308,.F.) ;
#320=EDGE_CURVE('',#319,#310,#317,.T.) ;
#327=EDGE_CURVE('',#326,#319,#324,.T.) ;
#334=EDGE_CURVE('',#333,#326,#331,.T.) ;
#341=EDGE_CURVE('',#340,#333,#338,.T.) ;
#348=EDGE_CURVE('',#347,#340,#345,.T.) ;
#355=EDGE_CURVE('',#354,#347,#352,.F.) ;
#362=EDGE_CURVE('',#361,#354,#359,.T.) ;
#369=EDGE_CURVE('',#368,#361,#366,.T.) ;
#376=EDGE_CURVE('',#375,#368,#373,.F.) ;
#383=EDGE_CURVE('',#382,#375,#380,.T.) ;
#390=EDGE_CURVE('',#389,#382,#387,.F.) ;
#397=EDGE_CURVE('',#396,#389,#394,.T.) ;
#402=EDGE_CURVE('',#312,#396,#401,.T.) ;
#437=EDGE_CURVE('',#434,#436,#432,.T.) ;
#442=EDGE_CURVE('',#434,#310,#441,.F.) ;
#447=EDGE_CURVE('',#436,#312,#446,.T.) ;
#466=EDGE_CURVE('',#465,#319,#463,.F.) ;
#471=EDGE_CURVE('',#465,#434,#470,.T.) ;
#490=EDGE_CURVE('',#489,#465,#487,.T.) ;
#495=EDGE_CURVE('',#489,#326,#494,.F.) ;
#509=EDGE_CURVE('',#508,#333,#506,.F.) ;
#514=EDGE_CURVE('',#508,#489,#513,.T.) ;
#533=EDGE_CURVE('',#532,#508,#530,.T.) ;
#538=EDGE_CURVE('',#532,#340,#537,.F.) ;
#552=EDGE_CURVE('',#551,#347,#549,.F.) ;
#557=EDGE_CURVE('',#551,#532,#556,.T.) ;
#576=EDGE_CURVE('',#575,#551,#573,.T.) ;
#581=EDGE_CURVE('',#575,#354,#580,.T.) ;
#595=EDGE_CURVE('',#594,#575,#592,.T.) ;
#600=EDGE_CURVE('',#594,#361,#599,.F.) ;
#614=EDGE_CURVE('',#613,#368,#611,.F.) ;
#619=EDGE_CURVE('',#613,#594,#618,.T.) ;
#638=EDGE_CURVE('',#637,#375,#635,.F.) ;
#643=EDGE_CURVE('',#613,#637,#642,.T.) ;
#657=EDGE_CURVE('',#656,#382,#654,.F.) ;
#662=EDGE_CURVE('',#656,#637,#661,.T.) ;
#681=EDGE_CURVE('',#680,#389,#678,.F.) ;
#686=EDGE_CURVE('',#656,#680,#685,.T.) ;
#700=EDGE_CURVE('',#699,#396,#697,.F.) ;
#705=EDGE_CURVE('',#699,#680,#704,.T.) ;
#717=EDGE_CURVE('',#436,#699,#716,.T.) ;
#754=EDGE_CURVE('',#751,#753,#749,.F.) ;
#759=EDGE_CURVE('',#753,#751,#758,.F.) ;
#778=EDGE_CURVE('',#775,#777,#773,.F.) ;
#783=EDGE_CURVE('',#777,#753,#782,.T.) ;
#788=EDGE_CURVE('',#775,#751,#787,.T.) ;
#805=EDGE_CURVE('',#777,#775,#804,.F.) ;
#830=EDGE_CURVE('',#827,#829,#825,.T.) ;
#835=EDGE_CURVE('',#829,#827,#834,.T.) ;
#852=EDGE_CURVE('',#827,#851,#849,.T.) ;
#859=EDGE_CURVE('',#829,#858,#856,.T.) ;
#876=EDGE_CURVE('',#851,#858,#860,.T.) ;
#890=EDGE_CURVE('',#889,#851,#887,.T.) ;
#895=EDGE_CURVE('',#858,#889,#894,.T.) ;
#915=EDGE_CURVE('',#914,#851,#912,.T.) ;
#922=EDGE_CURVE('',#921,#858,#919,.T.) ;
#927=EDGE_CURVE('',#914,#921,#926,.F.) ;
#941=EDGE_CURVE('',#940,#889,#938,.T.) ;
#946=EDGE_CURVE('',#940,#914,#945,.F.) ;
#963=EDGE_CURVE('',#921,#940,#962,.F.) ;
#30=CLOSED_SHELL('Closed Shell',(#82,#99,#127,#137,#168,#180,#208,#239,#256,#287,#299,#423,#454,#478,#502,#521,#545,#564,#588,#607,#626,#650,#669,#693,#712,#724,#764,#795,#812,#840,#883,#903,#934,#953,#970,#981)) ;
#77=ORIENTED_EDGE('',*,*,#44,.F.) ;
#78=ORIENTED_EDGE('',*,*,#57,.T.) ;
#79=ORIENTED_EDGE('',*,*,#64,.T.) ;
#80=ORIENTED_EDGE('',*,*,#75,.F.) ;
#94=ORIENTED_EDGE('',*,*,#64,.F.) ;
#95=ORIENTED_EDGE('',*,*,#87,.T.) ;
#96=ORIENTED_EDGE('',*,*,#44,.T.) ;
#97=ORIENTED_EDGE('',*,*,#92,.F.) ;
#120=ORIENTED_EDGE('',*,*,#113,.T.) ;
#121=ORIENTED_EDGE('',*,*,#118,.T.) ;
#124=ORIENTED_EDGE('',*,*,#87,.F.) ;
#125=ORIENTED_EDGE('',*,*,#57,.F.) ;
#134=ORIENTED_EDGE('',*,*,#75,.T.) ;
#135=ORIENTED_EDGE('',*,*,#92,.T.) ;
#163=ORIENTED_EDGE('',*,*,#151,.T.) ;
#164=ORIENTED_EDGE('',*,*,#156,.F.) ;
#165=ORIENTED_EDGE('',*,*,#113,.F.) ;
#166=ORIENTED_EDGE('',*,*,#161,.T.) ;
#175=ORIENTED_EDGE('',*,*,#173,.T.) ;
#176=ORIENTED_EDGE('',*,*,#161,.F.) ;
#177=ORIENTED_EDGE('',*,*,#118,.F.) ;
#178=ORIENTED_EDGE('',*,*,#156,.T.) ;
#201=ORIENTED_EDGE('',*,*,#194,.T.) ;
#202=ORIENTED_EDGE('',*,*,#199,.T.) ;
#205=ORIENTED_EDGE('',*,*,#151,.F.) ;
#206=ORIENTED_EDGE('',*,*,#173,.F.) ;
#234=ORIENTED_EDGE('',*,*,#220,.T.) ;
#235=ORIENTED_EDGE('',*,*,#227,.T.) ;
#236=ORIENTED_EDGE('',*,*,#232,.F.) ;
#237=ORIENTED_EDGE('',*,*,#194,.F.) ;
#251=ORIENTED_EDGE('',*,*,#232,.T.) ;
#252=ORIENTED_EDGE('',*,*,#249,.T.) ;
#253=ORIENTED_EDGE('',*,*,#220,.F.) ;
#254=ORIENTED_EDGE('',*,*,#199,.F.) ;
#282=ORIENTED_EDGE('',*,*,#268,.T.) ;
#283=ORIENTED_EDGE('',*,*,#275,.F.) ;
#284=ORIENTED_EDGE('',*,*,#280,.F.) ;
#285=ORIENTED_EDGE('',*,*,#227,.F.) ;
#294=ORIENTED_EDGE('',*,*,#280,.T.) ;
#295=ORIENTED_EDGE('',*,*,#292,.F.) ;
#296=ORIENTED_EDGE('',*,*,#268,.F.) ;
#297=ORIENTED_EDGE('',*,*,#249,.F.) ;
#404=ORIENTED_EDGE('',*,*,#313,.F.) ;
#405=ORIENTED_EDGE('',*,*,#320,.F.) ;
#406=ORIENTED_EDGE('',*,*,#327,.F.) ;
#407=ORIENTED_EDGE('',*,*,#334,.F.) ;
#408=ORIENTED_EDGE('',*,*,#341,.F.) ;
#409=ORIENTED_EDGE('',*,*,#348,.F.) ;
#410=ORIENTED_EDGE('',*,*,#355,.F.) ;
#411=ORIENTED_EDGE('',*,*,#362,.F.) ;
#412=ORIENTED_EDGE('',*,*,#369,.F.) ;
#413=ORIENTED_EDGE('',*,*,#376,.F.) ;
#414=ORIENTED_EDGE('',*,*,#383,.F.) ;
#415=ORIENTED_EDGE('',*,*,#390,.F.) ;
#416=ORIENTED_EDGE('',*,*,#397,.F.) ;
#417=ORIENTED_EDGE('',*,*,#402,.F.) ;
#420=ORIENTED_EDGE('',*,*,#292,.T.) ;
#421=ORIENTED_EDGE('',*,*,#275,.T.) ;
#449=ORIENTED_EDGE('',*,*,#437,.F.) ;
#450=ORIENTED_EDGE('',*,*,#442,.T.) ;
#451=ORIENTED_EDGE('',*,*,#313,.T.) ;
#452=ORIENTED_EDGE('',*,*,#447,.F.) ;
#473=ORIENTED_EDGE('',*,*,#466,.T.) ;
#474=ORIENTED_EDGE('',*,*,#320,.T.) ;
#475=ORIENTED_EDGE('',*,*,#442,.F.) ;
#476=ORIENTED_EDGE('',*,*,#471,.F.) ;
#497=ORIENTED_EDGE('',*,*,#490,.F.) ;
#498=ORIENTED_EDGE('',*,*,#495,.T.) ;
#499=ORIENTED_EDGE('',*,*,#327,.T.) ;
#500=ORIENTED_EDGE('',*,*,#466,.F.) ;
#516=ORIENTED_EDGE('',*,*,#509,.T.) ;
#517=ORIENTED_EDGE('',*,*,#334,.T.) ;
#518=ORIENTED_EDGE('',*,*,#495,.F.) ;
#519=ORIENTED_EDGE('',*,*,#514,.F.) ;
#540=ORIENTED_EDGE('',*,*,#533,.F.) ;
#541=ORIENTED_EDGE('',*,*,#538,.T.) ;
#542=ORIENTED_EDGE('',*,*,#341,.T.) ;
#543=ORIENTED_EDGE('',*,*,#509,.F.) ;
#559=ORIENTED_EDGE('',*,*,#552,.T.) ;
#560=ORIENTED_EDGE('',*,*,#348,.T.) ;
#561=ORIENTED_EDGE('',*,*,#538,.F.) ;
#562=ORIENTED_EDGE('',*,*,#557,.F.) ;
#583=ORIENTED_EDGE('',*,*,#576,.F.) ;
#584=ORIENTED_EDGE('',*,*,#581,.T.) ;
#585=ORIENTED_EDGE('',*,*,#355,.T.) ;
#586=ORIENTED_EDGE('',*,*,#552,.F.) ;
#602=ORIENTED_EDGE('',*,*,#595,.F.) ;
#603=ORIENTED_EDGE('',*,*,#600,.T.) ;
#604=ORIENTED_EDGE('',*,*,#362,.T.) ;
#605=ORIENTED_EDGE('',*,*,#581,.F.) ;
#621=ORIENTED_EDGE('',*,*,#614,.T.) ;
#622=ORIENTED_EDGE('',*,*,#369,.T.) ;
#623=ORIENTED_EDGE('',*,*,#600,.F.) ;
#624=ORIENTED_EDGE('',*,*,#619,.F.) ;
#645=ORIENTED_EDGE('',*,*,#638,.T.) ;
#646=ORIENTED_EDGE('',*,*,#376,.T.) ;
#647=ORIENTED_EDGE('',*,*,#614,.F.) ;
#648=ORIENTED_EDGE('',*,*,#643,.T.) ;
#664=ORIENTED_EDGE('',*,*,#657,.T.) ;
#665=ORIENTED_EDGE('',*,*,#383,.T.) ;
#666=ORIENTED_EDGE('',*,*,#638,.F.) ;
#667=ORIENTED_EDGE('',*,*,#662,.F.) ;
#688=ORIENTED_EDGE('',*,*,#681,.T.) ;
#689=ORIENTED_EDGE('',*,*,#390,.T.) ;
#690=ORIENTED_EDGE('',*,*,#657,.F.) ;
#691=ORIENTED_EDGE('',*,*,#686,.T.) ;
#707=ORIENTED_EDGE('',*,*,#700,.T.) ;
#708=ORIENTED_EDGE('',*,*,#397,.T.) ;
#709=ORIENTED_EDGE('',*,*,#681,.F.) ;
#710=ORIENTED_EDGE('',*,*,#705,.F.) ;
#719=ORIENTED_EDGE('',*,*,#717,.F.) ;
#720=ORIENTED_EDGE('',*,*,#447,.T.) ;
#721=ORIENTED_EDGE('',*,*,#402,.T.) ;
#722=ORIENTED_EDGE('',*,*,#700,.F.) ;
#731=ORIENTED_EDGE('',*,*,#705,.T.) ;
#732=ORIENTED_EDGE('',*,*,#686,.F.) ;
#733=ORIENTED_EDGE('',*,*,#662,.T.) ;
#734=ORIENTED_EDGE('',*,*,#643,.F.) ;
#735=ORIENTED_EDGE('',*,*,#619,.T.) ;
#736=ORIENTED_EDGE('',*,*,#595,.T.) ;
#737=ORIENTED_EDGE('',*,*,#576,.T.) ;
#738=ORIENTED_EDGE('',*,*,#557,.T.) ;
#739=ORIENTED_EDGE('',*,*,#533,.T.) ;
#740=ORIENTED_EDGE('',*,*,#514,.T.) ;
#741=ORIENTED_EDGE('',*,*,#490,.T.) ;
#742=ORIENTED_EDGE('',*,*,#471,.T.) ;
#743=ORIENTED_EDGE('',*,*,#437,.T.) ;
#744=ORIENTED_EDGE('',*,*,#717,.T.) ;
#761=ORIENTED_EDGE('',*,*,#754,.T.) ;
#762=ORIENTED_EDGE('',*,*,#759,.T.) ;
#790=ORIENTED_EDGE('',*,*,#778,.T.) ;
#791=ORIENTED_EDGE('',*,*,#783,.T.) ;
#792=ORIENTED_EDGE('',*,*,#754,.F.) ;
#793=ORIENTED_EDGE('',*,*,#788,.F.) ;
#807=ORIENTED_EDGE('',*,*,#805,.T.) ;
#808=ORIENTED_EDGE('',*,*,#788,.T.) ;
#809=ORIENTED_EDGE('',*,*,#759,.F.) ;
#810=ORIENTED_EDGE('',*,*,#783,.F.) ;
#819=ORIENTED_EDGE('',*,*,#805,.F.) ;
#820=ORIENTED_EDGE('',*,*,#778,.F.) ;
#837=ORIENTED_EDGE('',*,*,#830,.F.) ;
#838=ORIENTED_EDGE('',*,*,#835,.F.) ;
#878=ORIENTED_EDGE('',*,*,#852,.F.) ;
#879=ORIENTED_EDGE('',*,*,#830,.T.) ;
#880=ORIENTED_EDGE('',*,*,#859,.T.) ;
#881=ORIENTED_EDGE('',*,*,#876,.F.) ;
#897=ORIENTED_EDGE('',*,*,#859,.F.) ;
#898=ORIENTED_EDGE('',*,*,#835,.T.) ;
#899=ORIENTED_EDGE('',*,*,#852,.T.) ;
#900=ORIENTED_EDGE('',*,*,#890,.F.) ;
#901=ORIENTED_EDGE('',*,*,#895,.F.) ;
#929=ORIENTED_EDGE('',*,*,#915,.T.) ;
#930=ORIENTED_EDGE('',*,*,#876,.T.) ;
#931=ORIENTED_EDGE('',*,*,#922,.F.) ;
#932=ORIENTED_EDGE('',*,*,#927,.F.) ;
#948=ORIENTED_EDGE('',*,*,#941,.T.) ;
#949=ORIENTED_EDGE('',*,*,#890,.T.) ;
#950=ORIENTED_EDGE('',*,*,#915,.F.) ;
#951=ORIENTED_EDGE('',*,*,#946,.F.) ;
#965=ORIENTED_EDGE('',*,*,#941,.F.) ;
#966=ORIENTED_EDGE('',*,*,#963,.F.) ;
#967=ORIENTED_EDGE('',*,*,#922,.T.) ;
#968=ORIENTED_EDGE('',*,*,#895,.T.) ;
#977=ORIENTED_EDGE('',*,*,#963,.T.) ;
#978=ORIENTED_EDGE('',*,*,#946,.T.) ;
#979=ORIENTED_EDGE('',*,*,#927,.T.) ;
#76=EDGE_LOOP('',(#77,#78,#79,#80)) ;
#93=EDGE_LOOP('',(#94,#95,#96,#97)) ;
#119=EDGE_LOOP('',(#120,#121)) ;
#123=EDGE_LOOP('',(#124,#125)) ;
#133=EDGE_LOOP('',(#134,#135)) ;
#162=EDGE_LOOP('',(#163,#164,#165,#166)) ;
#174=EDGE_LOOP('',(#175,#176,#177,#178)) ;
#200=EDGE_LOOP('',(#201,#202)) ;
#204=EDGE_LOOP('',(#205,#206)) ;
#233=EDGE_LOOP('',(#234,#235,#236,#237)) ;
#250=EDGE_LOOP('',(#251,#252,#253,#254)) ;
#281=EDGE_LOOP('',(#282,#283,#284,#285)) ;
#293=EDGE_LOOP('',(#294,#295,#296,#297)) ;
#403=EDGE_LOOP('',(#404,#405,#406,#407,#408,#409,#410,#411,#412,#413,#414,#415,#416,#417)) ;
#419=EDGE_LOOP('',(#420,#421)) ;
#448=EDGE_LOOP('',(#449,#450,#451,#452)) ;
#472=EDGE_LOOP('',(#473,#474,#475,#476)) ;
#496=EDGE_LOOP('',(#497,#498,#499,#500)) ;
#515=EDGE_LOOP('',(#516,#517,#518,#519)) ;
#539=EDGE_LOOP('',(#540,#541,#542,#543)) ;
#558=EDGE_LOOP('',(#559,#560,#561,#562)) ;
#582=EDGE_LOOP('',(#583,#584,#585,#586)) ;
#601=EDGE_LOOP('',(#602,#603,#604,#605)) ;
#620=EDGE_LOOP('',(#621,#622,#623,#624)) ;
#644=EDGE_LOOP('',(#645,#646,#647,#648)) ;
#663=EDGE_LOOP('',(#664,#665,#666,#667)) ;
#687=EDGE_LOOP('',(#688,#689,#690,#691)) ;
#706=EDGE_LOOP('',(#707,#708,#709,#710)) ;
#718=EDGE_LOOP('',(#719,#720,#721,#722)) ;
#730=EDGE_LOOP('',(#731,#732,#733,#734,#735,#736,#737,#738,#739,#740,#741,#742,#743,#744)) ;
#760=EDGE_LOOP('',(#761,#762)) ;
#789=EDGE_LOOP('',(#790,#791,#792,#793)) ;
#806=EDGE_LOOP('',(#807,#808,#809,#810)) ;
#818=EDGE_LOOP('',(#819,#820)) ;
#836=EDGE_LOOP('',(#837,#838)) ;
#877=EDGE_LOOP('',(#878,#879,#880,#881)) ;
#896=EDGE_LOOP('',(#897,#898,#899,#900,#901)) ;
#928=EDGE_LOOP('',(#929,#930,#931,#932)) ;
#947=EDGE_LOOP('',(#948,#949,#950,#951)) ;
#964=EDGE_LOOP('',(#965,#966,#967,#968)) ;
#976=EDGE_LOOP('',(#977,#978,#979)) ;
#21=MANIFOLD_SOLID_BREP('KA_sensors_ALS',#30) ;
#41=VERTEX_POINT('',#40) ;
#43=VERTEX_POINT('',#42) ;
#56=VERTEX_POINT('',#55) ;
#63=VERTEX_POINT('',#62) ;
#110=VERTEX_POINT('',#109) ;
#112=VERTEX_POINT('',#111) ;
#148=VERTEX_POINT('',#147) ;
#150=VERTEX_POINT('',#149) ;
#191=VERTEX_POINT('',#190) ;
#193=VERTEX_POINT('',#192) ;
#219=VERTEX_POINT('',#218) ;
#226=VERTEX_POINT('',#225) ;
#267=VERTEX_POINT('',#266) ;
#274=VERTEX_POINT('',#273) ;
#310=VERTEX_POINT('',#309) ;
#312=VERTEX_POINT('',#311) ;
#319=VERTEX_POINT('',#318) ;
#326=VERTEX_POINT('',#325) ;
#333=VERTEX_POINT('',#332) ;
#340=VERTEX_POINT('',#339) ;
#347=VERTEX_POINT('',#346) ;
#354=VERTEX_POINT('',#353) ;
#361=VERTEX_POINT('',#360) ;
#368=VERTEX_POINT('',#367) ;
#375=VERTEX_POINT('',#374) ;
#382=VERTEX_POINT('',#381) ;
#389=VERTEX_POINT('',#388) ;
#396=VERTEX_POINT('',#395) ;
#434=VERTEX_POINT('',#433) ;
#436=VERTEX_POINT('',#435) ;
#465=VERTEX_POINT('',#464) ;
#489=VERTEX_POINT('',#488) ;
#508=VERTEX_POINT('',#507) ;
#532=VERTEX_POINT('',#531) ;
#551=VERTEX_POINT('',#550) ;
#575=VERTEX_POINT('',#574) ;
#594=VERTEX_POINT('',#593) ;
#613=VERTEX_POINT('',#612) ;
#637=VERTEX_POINT('',#636) ;
#656=VERTEX_POINT('',#655) ;
#680=VERTEX_POINT('',#679) ;
#699=VERTEX_POINT('',#698) ;
#751=VERTEX_POINT('',#750) ;
#753=VERTEX_POINT('',#752) ;
#775=VERTEX_POINT('',#774) ;
#777=VERTEX_POINT('',#776) ;
#827=VERTEX_POINT('',#826) ;
#829=VERTEX_POINT('',#828) ;
#851=VERTEX_POINT('',#850) ;
#858=VERTEX_POINT('',#857) ;
#889=VERTEX_POINT('',#888) ;
#914=VERTEX_POINT('',#913) ;
#921=VERTEX_POINT('',#920) ;
#940=VERTEX_POINT('',#939) ;
#82=ADVANCED_FACE('KA_sensors_ALS',(#81),#35,.T.) ;
#99=ADVANCED_FACE('KA_sensors_ALS',(#98),#35,.T.) ;
#127=ADVANCED_FACE('KA_sensors_ALS',(#122,#126),#104,.F.) ;
#137=ADVANCED_FACE('KA_sensors_ALS',(#136),#132,.T.) ;
#168=ADVANCED_FACE('KA_sensors_ALS',(#167),#142,.T.) ;
#180=ADVANCED_FACE('KA_sensors_ALS',(#179),#142,.T.) ;
#208=ADVANCED_FACE('KA_sensors_ALS',(#203,#207),#185,.T.) ;
#239=ADVANCED_FACE('KA_sensors_ALS',(#238),#213,.T.) ;
#256=ADVANCED_FACE('KA_sensors_ALS',(#255),#244,.T.) ;
#287=ADVANCED_FACE('KA_sensors_ALS',(#286),#261,.T.) ;
#299=ADVANCED_FACE('KA_sensors_ALS',(#298),#261,.T.) ;
#423=ADVANCED_FACE('KA_sensors_ALS',(#418,#422),#304,.F.) ;
#454=ADVANCED_FACE('KA_sensors_ALS',(#453),#428,.F.) ;
#478=ADVANCED_FACE('KA_sensors_ALS',(#477),#459,.T.) ;
#502=ADVANCED_FACE('KA_sensors_ALS',(#501),#483,.F.) ;
#521=ADVANCED_FACE('KA_sensors_ALS',(#520),#459,.T.) ;
#545=ADVANCED_FACE('KA_sensors_ALS',(#544),#526,.F.) ;
#564=ADVANCED_FACE('KA_sensors_ALS',(#563),#459,.T.) ;
#588=ADVANCED_FACE('KA_sensors_ALS',(#587),#569,.F.) ;
#607=ADVANCED_FACE('KA_sensors_ALS',(#606),#569,.F.) ;
#626=ADVANCED_FACE('KA_sensors_ALS',(#625),#459,.T.) ;
#650=ADVANCED_FACE('KA_sensors_ALS',(#649),#631,.T.) ;
#669=ADVANCED_FACE('KA_sensors_ALS',(#668),#459,.T.) ;
#693=ADVANCED_FACE('KA_sensors_ALS',(#692),#674,.T.) ;
#712=ADVANCED_FACE('KA_sensors_ALS',(#711),#459,.T.) ;
#724=ADVANCED_FACE('KA_sensors_ALS',(#723),#428,.F.) ;
#764=ADVANCED_FACE('KA_sensors_ALS',(#745,#763),#729,.T.) ;
#795=ADVANCED_FACE('KA_sensors_ALS',(#794),#769,.F.) ;
#812=ADVANCED_FACE('KA_sensors_ALS',(#811),#800,.F.) ;
#840=ADVANCED_FACE('KA_sensors_ALS',(#821,#839),#817,.T.) ;
#883=ADVANCED_FACE('KA_sensors_ALS',(#882),#845,.T.) ;
#903=ADVANCED_FACE('KA_sensors_ALS',(#902),#845,.T.) ;
#934=ADVANCED_FACE('KA_sensors_ALS',(#933),#908,.T.) ;
#953=ADVANCED_FACE('KA_sensors_ALS',(#952),#908,.T.) ;
#970=ADVANCED_FACE('KA_sensors_ALS',(#969),#958,.T.) ;
#981=ADVANCED_FACE('KA_sensors_ALS',(#980),#975,.T.) ;
#4=APPLICATION_PROTOCOL_DEFINITION('international standard','ap242_managed_model_based_3d_engineering',2014,#1) ;
#45=B_SPLINE_CURVE_WITH_KNOTS('',5,(#46,#47,#48,#49,#50,#51,#52,#53,#54),.UNSPECIFIED.,.F.,.U.,(6,3,6),(-2.74889357189,0.,2.74889357189),.UNSPECIFIED.) ;
#65=B_SPLINE_CURVE_WITH_KNOTS('',5,(#66,#67,#68,#69,#70,#71,#72,#73,#74),.UNSPECIFIED.,.F.,.U.,(6,3,6),(-2.74889357189,0.,2.74889357189),.UNSPECIFIED.) ;
#860=B_SPLINE_CURVE_WITH_KNOTS('',5,(#861,#862,#863,#864,#865,#866,#867,#868,#869,#870,#871,#872,#873,#874,#875),.UNSPECIFIED.,.F.,.U.,(6,3,3,3,6),(-7.85398163397,-3.92699081699,4.4408920985E-16,3.92699081699,7.85398163397),.UNSPECIFIED.) ;
#22=COLOUR_RGB('Colour',0.882352941176,0.882352941176,0.882352941176) ;
#81=FACE_OUTER_BOUND('',#76,.T.) ;
#98=FACE_OUTER_BOUND('',#93,.T.) ;
#122=FACE_OUTER_BOUND('',#119,.T.) ;
#136=FACE_OUTER_BOUND('',#133,.T.) ;
#167=FACE_OUTER_BOUND('',#162,.T.) ;
#179=FACE_OUTER_BOUND('',#174,.T.) ;
#203=FACE_OUTER_BOUND('',#200,.T.) ;
#238=FACE_OUTER_BOUND('',#233,.T.) ;
#255=FACE_OUTER_BOUND('',#250,.T.) ;
#286=FACE_OUTER_BOUND('',#281,.T.) ;
#298=FACE_OUTER_BOUND('',#293,.T.) ;
#418=FACE_OUTER_BOUND('',#403,.T.) ;
#453=FACE_OUTER_BOUND('',#448,.T.) ;
#477=FACE_OUTER_BOUND('',#472,.T.) ;
#501=FACE_OUTER_BOUND('',#496,.T.) ;
#520=FACE_OUTER_BOUND('',#515,.T.) ;
#544=FACE_OUTER_BOUND('',#539,.T.) ;
#563=FACE_OUTER_BOUND('',#558,.T.) ;
#587=FACE_OUTER_BOUND('',#582,.T.) ;
#606=FACE_OUTER_BOUND('',#601,.T.) ;
#625=FACE_OUTER_BOUND('',#620,.T.) ;
#649=FACE_OUTER_BOUND('',#644,.T.) ;
#668=FACE_OUTER_BOUND('',#663,.T.) ;
#692=FACE_OUTER_BOUND('',#687,.T.) ;
#711=FACE_OUTER_BOUND('',#706,.T.) ;
#723=FACE_OUTER_BOUND('',#718,.T.) ;
#745=FACE_OUTER_BOUND('',#730,.T.) ;
#794=FACE_OUTER_BOUND('',#789,.T.) ;
#811=FACE_OUTER_BOUND('',#806,.T.) ;
#821=FACE_OUTER_BOUND('',#818,.T.) ;
#882=FACE_OUTER_BOUND('',#877,.T.) ;
#902=FACE_OUTER_BOUND('',#896,.T.) ;
#933=FACE_OUTER_BOUND('',#928,.T.) ;
#952=FACE_OUTER_BOUND('',#947,.T.) ;
#969=FACE_OUTER_BOUND('',#964,.T.) ;
#980=FACE_OUTER_BOUND('',#976,.T.) ;
#7=PRODUCT_CATEGORY_RELATIONSHIP(' ',' ',#5,#6) ;
#17=PRODUCT_DEFINITION_FORMATION_WITH_SPECIFIED_SOURCE('A.1',' ',#16,.NOT_KNOWN.) ;
#20=SHAPE_DEFINITION_REPRESENTATION(#19,#13) ;
#8=(LENGTH_UNIT()NAMED_UNIT(*)SI_UNIT(.MILLI.,.METRE.)) ;
#9=(NAMED_UNIT(*)PLANE_ANGLE_UNIT()SI_UNIT($,.RADIAN.)) ;
#10=(NAMED_UNIT(*)SI_UNIT($,.STERADIAN.)SOLID_ANGLE_UNIT()) ;
#12=(GEOMETRIC_REPRESENTATION_CONTEXT(3)GLOBAL_UNCERTAINTY_ASSIGNED_CONTEXT((#11))GLOBAL_UNIT_ASSIGNED_CONTEXT((#8,#9,#10))REPRESENTATION_CONTEXT(' ',' ')) ;
ENDSEC;
END-ISO-10303-21;
