ISO-10303-21;
HEADER;
FILE_DESCRIPTION(('3DEXPERIENCE STEP','CAx-IF Rec.Pracs.--- Model Styling and Organization---1.5--- 2016-08-15','CAx-IF Rec.Pracs.---Supplemental Geometry---1.0---2011-11-01','CAx-IF Rec.Pracs.--- Composite Materials ---3.4---2017-06-13','CAx-IF Rec.Pracs.---Tessellated 3D Geometry---1.0---2015-12-17'),'2;1');

FILE_NAME('\\\\?\\D:\\School\\CarTech\\CTU.25\\Tutorials\\Model\\OEM\\Sensor_Connection.stp','2024-09-26T02:44:30+00:00',('none'),('none'),'3DEXPERIENCE Platform3DEXPERIENCE R2024x HotFix 4.24','3DEXPERIENCE Platform STEP AP242 v3','none');

FILE_SCHEMA(('AP242_MANAGED_MODEL_BASED_3D_ENGINEERING_MIM_LF  {1 0 10303 442 1 1 4}'));

ENDSEC;
DATA;
#16=PRODUCT('Sensor_screw','Sensor_screw','',(#2)) ;
#2=PRODUCT_CONTEXT(' ',#1,'mechanical') ;
#1=APPLICATION_CONTEXT('managed model based 3d engineering') ;
#18=PRODUCT_DEFINITION('Sensor_screw',' ',#17,#3) ;
#3=PRODUCT_DEFINITION_CONTEXT('part definition',#1,' ') ;
#19=PRODUCT_DEFINITION_SHAPE(' ',' ',#18) ;
#1322=MECHANICAL_DESIGN_GEOMETRIC_PRESENTATION_REPRESENTATION(' ',(#29),#12) ;
#5=PRODUCT_CATEGORY('part','specification') ;
#13=SHAPE_REPRESENTATION(' ',(#15,#21),#12) ;
#14=CARTESIAN_POINT('',(0.,0.,0.)) ;
#31=CARTESIAN_POINT('Axis2P3D Location',(-1.55431223448E-12,21.1,0.)) ;
#36=CARTESIAN_POINT('Line Origine',(0.,19.85,1.53080849894E-16)) ;
#40=CARTESIAN_POINT('Vertex',(4.1,19.85,-6.72647524671E-16)) ;
#42=CARTESIAN_POINT('Vertex',(3.,19.85,-4.07234832847E-16)) ;
#46=CARTESIAN_POINT('Control Point',(4.1,19.85,-6.71337985203E-16)) ;
#47=CARTESIAN_POINT('Control Point',(4.1,19.85,-0.00659778607297)) ;
#48=CARTESIAN_POINT('Control Point',(4.1,19.8500435308,-0.0131955721459)) ;
#49=CARTESIAN_POINT('Control Point',(4.09998009201,19.8500652982,-0.0139960547352)) ;
#50=CARTESIAN_POINT('Control Point',(4.09990046717,19.8503264813,-0.0326558208261)) ;
#51=CARTESIAN_POINT('Control Point',(4.09971474342,19.8509358344,-0.0513084842885)) ;
#52=CARTESIAN_POINT('Control Point',(4.09951585183,19.8515886034,-0.0652900077232)) ;
#53=CARTESIAN_POINT('Control Point',(4.09891321034,19.8535679296,-0.0978854582361)) ;
#54=CARTESIAN_POINT('Control Point',(4.09798910999,19.8566096881,-0.130393911308)) ;
#55=CARTESIAN_POINT('Control Point',(4.09735689376,19.858693863,-0.148932347974)) ;
#56=CARTESIAN_POINT('Control Point',(4.09515137625,19.8659805268,-0.204406457437)) ;
#57=CARTESIAN_POINT('Control Point',(4.09203342418,19.8763541778,-0.259374926216)) ;
#58=CARTESIAN_POINT('Control Point',(4.08956186025,19.8846282263,-0.295722911407)) ;
#59=CARTESIAN_POINT('Control Point',(4.07568009495,19.9315140662,-0.47122276927)) ;
#60=CARTESIAN_POINT('Control Point',(4.05345354311,20.0096367983,-0.636371024432)) ;
#61=CARTESIAN_POINT('Control Point',(4.0318667699,20.0900589979,-0.757326379503)) ;
#62=CARTESIAN_POINT('Control Point',(3.98309502506,20.2939526887,-0.985302771966)) ;
#63=CARTESIAN_POINT('Control Point',(3.93849577597,20.5574339653,-1.14337682211)) ;
#64=CARTESIAN_POINT('Control Point',(3.91942509006,20.709619827,-1.2041666802)) ;
#65=CARTESIAN_POINT('Control Point',(3.89152356494,21.1092681563,-1.29168932639)) ;
#66=CARTESIAN_POINT('Control Point',(3.91557117548,21.5187980043,-1.21611777517)) ;
#67=CARTESIAN_POINT('Control Point',(3.95049056623,21.7459737846,-1.11085196767)) ;
#68=CARTESIAN_POINT('Control Point',(4.01915788103,22.0702365051,-0.852642254653)) ;
#69=CARTESIAN_POINT('Control Point',(4.07462798551,22.2668926177,-0.492376217216)) ;
#70=CARTESIAN_POINT('Control Point',(4.0915563311,22.322304766,-0.33283762964)) ;
#71=CARTESIAN_POINT('Control Point',(4.1,22.35,-0.166418851226)) ;
#72=CARTESIAN_POINT('Control Point',(4.1,22.35,-1.44246454079E-15)) ;
#73=CARTESIAN_POINT('Vertex',(4.1,22.35,-1.41638472441E-15)) ;
#76=CARTESIAN_POINT('Line Origine',(0.,22.35,-3.06161699787E-16)) ;
#80=CARTESIAN_POINT('Vertex',(3.,22.35,-8.612732121E-16)) ;
#84=CARTESIAN_POINT('Control Point',(3.,19.85,-4.05925293379E-16)) ;
#85=CARTESIAN_POINT('Control Point',(3.,19.85,-0.0066013334033)) ;
#86=CARTESIAN_POINT('Control Point',(3.,19.8500435776,-0.0132026668066)) ;
#87=CARTESIAN_POINT('Control Point',(2.99997276308,19.8500653686,-0.0140035824915)) ;
#88=CARTESIAN_POINT('Control Point',(2.99986382522,19.8503268319,-0.0326732973048)) ;
#89=CARTESIAN_POINT('Control Point',(2.99960973095,19.8509368218,-0.0513353729393)) ;
#90=CARTESIAN_POINT('Control Point',(2.99933762448,19.851590247,-0.0653233379233)) ;
#91=CARTESIAN_POINT('Control Point',(2.99851316498,19.853571382,-0.0979316185994)) ;
#92=CARTESIAN_POINT('Control Point',(2.99724901766,19.8566151156,-0.130446281181)) ;
#93=CARTESIAN_POINT('Control Point',(2.99638420345,19.8587002622,-0.148985433102)) ;
#94=CARTESIAN_POINT('Control Point',(2.99336744986,19.865988458,-0.204451463019)) ;
#95=CARTESIAN_POINT('Control Point',(2.98910338779,19.8763561353,-0.259376768071)) ;
#96=CARTESIAN_POINT('Control Point',(2.98572376429,19.8846198813,-0.295676459679)) ;
#97=CARTESIAN_POINT('Control Point',(2.9666562117,19.931622449,-0.471648604643)) ;
#98=CARTESIAN_POINT('Control Point',(2.93608093474,20.0098001812,-0.6366259501)) ;
#99=CARTESIAN_POINT('Control Point',(2.90633295575,20.0900968557,-0.757148569916)) ;
#100=CARTESIAN_POINT('Control Point',(2.83869122637,20.2930176503,-0.98433779646)) ;
#101=CARTESIAN_POINT('Control Point',(2.77575443195,20.5555012354,-1.14241291494)) ;
#102=CARTESIAN_POINT('Control Point',(2.74825186272,20.7078386947,-1.20384760447)) ;
#103=CARTESIAN_POINT('Control Point',(2.71600106196,21.0293419748,-1.27452413484)) ;
#104=CARTESIAN_POINT('Control Point',(2.73194120285,21.3577727625,-1.23949795852)) ;
#105=CARTESIAN_POINT('Control Point',(2.75272597388,21.5159134068,-1.19519030512)) ;
#106=CARTESIAN_POINT('Control Point',(2.82603676702,21.8875538511,-1.02364323073)) ;
#107=CARTESIAN_POINT('Control Point',(2.92282262302,22.165200374,-0.720156522488)) ;
#108=CARTESIAN_POINT('Control Point',(2.97424392751,22.2881854259,-0.497250434365)) ;
#109=CARTESIAN_POINT('Control Point',(3.,22.35,-0.248625368952)) ;
#110=CARTESIAN_POINT('Control Point',(3.,22.35,-3.30014613307E-16)) ;
#119=CARTESIAN_POINT('Axis2P3D Location',(0.,17.6000000001,0.)) ;
#124=CARTESIAN_POINT('Axis2P3D Location',(0.,32.2,0.)) ;
#128=CARTESIAN_POINT('Vertex',(1.43827661581,32.2,2.63274768567)) ;
#130=CARTESIAN_POINT('Vertex',(-1.43827661581,32.2,-2.63274768567)) ;
#133=CARTESIAN_POINT('Line Origine',(-1.43827661581,17.5999999996,-2.63274768567)) ;
#137=CARTESIAN_POINT('Vertex',(-1.43827661581,13.5000000005,-2.63274768567)) ;
#140=CARTESIAN_POINT('Axis2P3D Location',(0.,13.5000000005,0.)) ;
#144=CARTESIAN_POINT('Vertex',(1.43827661581,13.5000000005,2.63274768567)) ;
#147=CARTESIAN_POINT('Line Origine',(1.43827661581,17.5999999996,2.63274768567)) ;
#159=CARTESIAN_POINT('Control Point',(3.,22.35,8.89913143176E-16)) ;
#160=CARTESIAN_POINT('Control Point',(3.,22.35,0.0066013334033)) ;
#161=CARTESIAN_POINT('Control Point',(2.99998184267,22.35,0.0132026668066)) ;
#162=CARTESIAN_POINT('Control Point',(2.99997276307,22.3499346314,0.0140035819823)) ;
#163=CARTESIAN_POINT('Control Point',(2.99986382525,22.349673168,0.0326732988324)) ;
#164=CARTESIAN_POINT('Control Point',(2.99960973085,22.3490631783,0.0513353683564)) ;
#165=CARTESIAN_POINT('Control Point',(2.99933762739,22.3484097527,0.0653233235765)) ;
#166=CARTESIAN_POINT('Control Point',(2.99851318059,22.3464286163,0.0979315739707)) ;
#167=CARTESIAN_POINT('Control Point',(2.99724905304,22.3433848816,0.130446199518)) ;
#168=CARTESIAN_POINT('Control Point',(2.99638424948,22.341299735,0.148985332933)) ;
#169=CARTESIAN_POINT('Control Point',(2.99336751371,22.334011543,0.204451329134)) ;
#170=CARTESIAN_POINT('Control Point',(2.98910342568,22.3236438745,0.259376670676)) ;
#171=CARTESIAN_POINT('Control Point',(2.9857237547,22.3153801331,0.295676428535)) ;
#172=CARTESIAN_POINT('Control Point',(2.96665624911,22.2683774949,0.47164872611)) ;
#173=CARTESIAN_POINT('Control Point',(2.93608078885,22.1902000375,0.636625476281)) ;
#174=CARTESIAN_POINT('Control Point',(2.90633272508,22.1099035646,0.757148154117)) ;
#175=CARTESIAN_POINT('Control Point',(2.83869148513,21.9069818781,0.98433826293)) ;
#176=CARTESIAN_POINT('Control Point',(2.77575414167,21.6444992936,1.14241239164)) ;
#177=CARTESIAN_POINT('Control Point',(2.74825182536,21.4921620577,1.20384752959)) ;
#178=CARTESIAN_POINT('Control Point',(2.71600109902,21.1706572784,1.27452420915)) ;
#179=CARTESIAN_POINT('Control Point',(2.73194116607,20.8422279785,1.23949788477)) ;
#180=CARTESIAN_POINT('Control Point',(2.75272624637,20.6840871512,1.19519080197)) ;
#181=CARTESIAN_POINT('Control Point',(2.82603634924,20.3124452932,1.02364246896)) ;
#182=CARTESIAN_POINT('Control Point',(2.92282326357,20.034800938,0.720157690458)) ;
#183=CARTESIAN_POINT('Control Point',(2.97424392747,19.911814574,0.497248989509)) ;
#184=CARTESIAN_POINT('Control Point',(3.,19.85,0.248625368944)) ;
#185=CARTESIAN_POINT('Control Point',(3.,19.85,-2.22044604925E-16)) ;
#193=CARTESIAN_POINT('Control Point',(4.1,22.35,0.)) ;
#194=CARTESIAN_POINT('Control Point',(4.1,22.35,0.00659778607297)) ;
#195=CARTESIAN_POINT('Control Point',(4.1,22.3499564692,0.0131955721459)) ;
#196=CARTESIAN_POINT('Control Point',(4.09998009201,22.3499347018,0.0139960547352)) ;
#197=CARTESIAN_POINT('Control Point',(4.09990046717,22.3496735187,0.032655820826)) ;
#198=CARTESIAN_POINT('Control Point',(4.09971474342,22.3490641656,0.0513084842882)) ;
#199=CARTESIAN_POINT('Control Point',(4.09951585183,22.3484113966,0.0652900077227)) ;
#200=CARTESIAN_POINT('Control Point',(4.09891321034,22.3464320704,0.0978854582355)) ;
#201=CARTESIAN_POINT('Control Point',(4.09798910999,22.3433903119,0.130393911307)) ;
#202=CARTESIAN_POINT('Control Point',(4.09735689376,22.341306137,0.148932347973)) ;
#203=CARTESIAN_POINT('Control Point',(4.09515137625,22.3340194732,0.204406457437)) ;
#204=CARTESIAN_POINT('Control Point',(4.09203342418,22.3236458222,0.259374926216)) ;
#205=CARTESIAN_POINT('Control Point',(4.08956186025,22.3153717737,0.295722911408)) ;
#206=CARTESIAN_POINT('Control Point',(4.07568009495,22.2684859338,0.471222769268)) ;
#207=CARTESIAN_POINT('Control Point',(4.05345354311,22.1903632017,0.636371024428)) ;
#208=CARTESIAN_POINT('Control Point',(4.0318667699,22.1099410021,0.757326379507)) ;
#209=CARTESIAN_POINT('Control Point',(3.98309502506,21.9060473113,0.985302771968)) ;
#210=CARTESIAN_POINT('Control Point',(3.93849577597,21.6425660347,1.14337682211)) ;
#211=CARTESIAN_POINT('Control Point',(3.91942509006,21.490380173,1.2041666802)) ;
#212=CARTESIAN_POINT('Control Point',(3.89152356494,21.0907318437,1.29168932639)) ;
#213=CARTESIAN_POINT('Control Point',(3.91557117548,20.6812019957,1.21611777517)) ;
#214=CARTESIAN_POINT('Control Point',(3.95049056623,20.4540262154,1.11085196767)) ;
#215=CARTESIAN_POINT('Control Point',(4.01915788103,20.1297634949,0.85264225465)) ;
#216=CARTESIAN_POINT('Control Point',(4.07462798551,19.9331073823,0.492376217217)) ;
#217=CARTESIAN_POINT('Control Point',(4.0915563311,19.877695234,0.332837629639)) ;
#218=CARTESIAN_POINT('Control Point',(4.1,19.85,0.166418851225)) ;
#219=CARTESIAN_POINT('Control Point',(4.1,19.85,1.65708062468E-16)) ;
#228=CARTESIAN_POINT('Axis2P3D Location',(0.,17.6000000001,0.)) ;
#234=CARTESIAN_POINT('Control Point',(1.96564470828,22.9375010901,3.59808850375)) ;
#235=CARTESIAN_POINT('Control Point',(2.5308311288,22.9375010901,3.28932575499)) ;
#236=CARTESIAN_POINT('Control Point',(3.03539212536,22.9375010901,2.86958891208)) ;
#237=CARTESIAN_POINT('Control Point',(3.45017646571,22.93750109,2.35466095956)) ;
#238=CARTESIAN_POINT('Control Point',(4.05549266584,22.93750109,1.18991396381)) ;
#239=CARTESIAN_POINT('Control Point',(4.17545213435,22.9375010899,-0.117240576458)) ;
#240=CARTESIAN_POINT('Control Point',(4.1046399071,22.9375010899,-0.774646443295)) ;
#241=CARTESIAN_POINT('Control Point',(3.70906259791,22.9375010899,-2.02627013223)) ;
#242=CARTESIAN_POINT('Control Point',(2.86958891208,22.9375010898,-3.03539212536)) ;
#243=CARTESIAN_POINT('Control Point',(2.35466095956,22.9375010898,-3.45017646571)) ;
#244=CARTESIAN_POINT('Control Point',(1.18991396382,22.9375010897,-4.05549266584)) ;
#245=CARTESIAN_POINT('Control Point',(-0.117240576456,22.9375010897,-4.17545213435)) ;
#246=CARTESIAN_POINT('Control Point',(-0.774646443293,22.9375010897,-4.1046399071)) ;
#247=CARTESIAN_POINT('Control Point',(-1.40045828776,22.9375010896,-3.90685125251)) ;
#248=CARTESIAN_POINT('Control Point',(-1.96564470828,22.9375010896,-3.59808850375)) ;
#249=CARTESIAN_POINT('Vertex',(1.96564470828,22.9375010901,3.59808850375)) ;
#251=CARTESIAN_POINT('Vertex',(-1.96564470828,22.9375010896,-3.59808850375)) ;
#254=CARTESIAN_POINT('Line Origine',(1.96564470828,17.5999999996,3.59808850375)) ;
#258=CARTESIAN_POINT('Vertex',(1.96564470835,19.2624989102,3.59808850388)) ;
#262=CARTESIAN_POINT('Control Point',(1.96564470828,19.2624989101,3.59808850375)) ;
#263=CARTESIAN_POINT('Control Point',(2.5308311288,19.2624989101,3.28932575499)) ;
#264=CARTESIAN_POINT('Control Point',(3.03539212536,19.2624989101,2.86958891208)) ;
#265=CARTESIAN_POINT('Control Point',(3.45017646571,19.2624989101,2.35466095956)) ;
#266=CARTESIAN_POINT('Control Point',(4.05549266584,19.2624989102,1.18991396381)) ;
#267=CARTESIAN_POINT('Control Point',(4.17545213435,19.2624989102,-0.117240576458)) ;
#268=CARTESIAN_POINT('Control Point',(4.1046399071,19.2624989102,-0.774646443295)) ;
#269=CARTESIAN_POINT('Control Point',(3.70906259791,19.2624989102,-2.02627013223)) ;
#270=CARTESIAN_POINT('Control Point',(2.86958891208,19.2624989103,-3.03539212536)) ;
#271=CARTESIAN_POINT('Control Point',(2.35466095956,19.2624989103,-3.45017646571)) ;
#272=CARTESIAN_POINT('Control Point',(1.18991396382,19.2624989103,-4.05549266584)) ;
#273=CARTESIAN_POINT('Control Point',(-0.117240576456,19.2624989104,-4.17545213435)) ;
#274=CARTESIAN_POINT('Control Point',(-0.774646443293,19.2624989104,-4.1046399071)) ;
#275=CARTESIAN_POINT('Control Point',(-1.40045828776,19.2624989104,-3.90685125251)) ;
#276=CARTESIAN_POINT('Control Point',(-1.96564470828,19.2624989104,-3.59808850375)) ;
#277=CARTESIAN_POINT('Vertex',(-1.96564470835,19.2624989102,-3.59808850388)) ;
#280=CARTESIAN_POINT('Line Origine',(-1.96564470828,17.5999999996,-3.59808850375)) ;
#296=CARTESIAN_POINT('Axis2P3D Location',(0.,32.2,0.)) ;
#301=CARTESIAN_POINT('Axis2P3D Location',(0.,13.5000000005,0.)) ;
#313=CARTESIAN_POINT('Control Point',(-3.,22.35,-6.66133814775E-16)) ;
#314=CARTESIAN_POINT('Control Point',(-3.,22.35,0.0066013334033)) ;
#315=CARTESIAN_POINT('Control Point',(-2.99998184267,22.35,0.0132026668066)) ;
#316=CARTESIAN_POINT('Control Point',(-2.99997276307,22.3499346314,0.0140035819823)) ;
#317=CARTESIAN_POINT('Control Point',(-2.99986382525,22.349673168,0.0326732988324)) ;
#318=CARTESIAN_POINT('Control Point',(-2.99960973085,22.3490631783,0.0513353683564)) ;
#319=CARTESIAN_POINT('Control Point',(-2.99933762739,22.3484097527,0.0653233235764)) ;
#320=CARTESIAN_POINT('Control Point',(-2.99851318059,22.3464286163,0.0979315739706)) ;
#321=CARTESIAN_POINT('Control Point',(-2.99724905304,22.3433848816,0.130446199518)) ;
#322=CARTESIAN_POINT('Control Point',(-2.99638424948,22.341299735,0.148985332933)) ;
#323=CARTESIAN_POINT('Control Point',(-2.99336751371,22.334011543,0.204451329134)) ;
#324=CARTESIAN_POINT('Control Point',(-2.98910342568,22.3236438745,0.259376670676)) ;
#325=CARTESIAN_POINT('Control Point',(-2.9857237547,22.3153801331,0.295676428535)) ;
#326=CARTESIAN_POINT('Control Point',(-2.96665624911,22.2683774949,0.471648726118)) ;
#327=CARTESIAN_POINT('Control Point',(-2.93608078885,22.1902000375,0.636625476295)) ;
#328=CARTESIAN_POINT('Control Point',(-2.90633272509,22.1099035646,0.757148154105)) ;
#329=CARTESIAN_POINT('Control Point',(-2.83869148513,21.9069818782,0.984338262927)) ;
#330=CARTESIAN_POINT('Control Point',(-2.77575414167,21.6444992936,1.14241239164)) ;
#331=CARTESIAN_POINT('Control Point',(-2.74825182536,21.4921620577,1.20384752959)) ;
#332=CARTESIAN_POINT('Control Point',(-2.71600109902,21.1706572784,1.27452420915)) ;
#333=CARTESIAN_POINT('Control Point',(-2.73194116607,20.8422279785,1.23949788477)) ;
#334=CARTESIAN_POINT('Control Point',(-2.75272624637,20.6840871512,1.19519080197)) ;
#335=CARTESIAN_POINT('Control Point',(-2.82603634924,20.3124452932,1.02364246897)) ;
#336=CARTESIAN_POINT('Control Point',(-2.92282326357,20.034800938,0.720157690463)) ;
#337=CARTESIAN_POINT('Control Point',(-2.97424392747,19.911814574,0.497248989502)) ;
#338=CARTESIAN_POINT('Control Point',(-3.,19.85,0.248625368941)) ;
#339=CARTESIAN_POINT('Control Point',(-3.,19.85,6.66133814775E-16)) ;
#340=CARTESIAN_POINT('Vertex',(-3.,22.35,-1.99840144433E-15)) ;
#342=CARTESIAN_POINT('Vertex',(-3.,19.85,-4.88498130835E-15)) ;
#346=CARTESIAN_POINT('Control Point',(-3.,19.85,-4.88671603183E-15)) ;
#347=CARTESIAN_POINT('Control Point',(-3.,19.85,-0.00660133340331)) ;
#348=CARTESIAN_POINT('Control Point',(-2.99998184267,19.85,-0.0132026668066)) ;
#349=CARTESIAN_POINT('Control Point',(-2.99997276307,19.8500653686,-0.0140035819823)) ;
#350=CARTESIAN_POINT('Control Point',(-2.99986382525,19.850326832,-0.0326732988324)) ;
#351=CARTESIAN_POINT('Control Point',(-2.99960973085,19.8509368217,-0.0513353683564)) ;
#352=CARTESIAN_POINT('Control Point',(-2.99933762739,19.8515902473,-0.0653233235764)) ;
#353=CARTESIAN_POINT('Control Point',(-2.99851318059,19.8535713837,-0.0979315739707)) ;
#354=CARTESIAN_POINT('Control Point',(-2.99724905304,19.8566151184,-0.130446199518)) ;
#355=CARTESIAN_POINT('Control Point',(-2.99638424948,19.858700265,-0.148985332933)) ;
#356=CARTESIAN_POINT('Control Point',(-2.99336751371,19.865988457,-0.204451329134)) ;
#357=CARTESIAN_POINT('Control Point',(-2.98910342568,19.8763561255,-0.259376670676)) ;
#358=CARTESIAN_POINT('Control Point',(-2.9857237547,19.8846198669,-0.295676428535)) ;
#359=CARTESIAN_POINT('Control Point',(-2.96665624911,19.9316225051,-0.471648726111)) ;
#360=CARTESIAN_POINT('Control Point',(-2.93608078885,20.0097999625,-0.636625476282)) ;
#361=CARTESIAN_POINT('Control Point',(-2.90633272508,20.0900964354,-0.757148154116)) ;
#362=CARTESIAN_POINT('Control Point',(-2.83869148513,20.2930181219,-0.984338262931)) ;
#363=CARTESIAN_POINT('Control Point',(-2.77575414167,20.5555007064,-1.14241239164)) ;
#364=CARTESIAN_POINT('Control Point',(-2.74825182536,20.7078379423,-1.20384752959)) ;
#365=CARTESIAN_POINT('Control Point',(-2.71600109902,21.0293427216,-1.27452420915)) ;
#366=CARTESIAN_POINT('Control Point',(-2.73194116607,21.3577720215,-1.23949788477)) ;
#367=CARTESIAN_POINT('Control Point',(-2.75272624637,21.5159128488,-1.19519080197)) ;
#368=CARTESIAN_POINT('Control Point',(-2.82603634924,21.8875547068,-1.02364246897)) ;
#369=CARTESIAN_POINT('Control Point',(-2.92282326357,22.165199062,-0.720157690462)) ;
#370=CARTESIAN_POINT('Control Point',(-2.97424392747,22.288185426,-0.497248989503)) ;
#371=CARTESIAN_POINT('Control Point',(-3.,22.35,-0.248625368942)) ;
#372=CARTESIAN_POINT('Control Point',(-3.,22.35,5.55111512313E-16)) ;
#379=CARTESIAN_POINT('Axis2P3D Location',(0.,13.5,0.)) ;
#384=CARTESIAN_POINT('Axis2P3D Location',(0.,12.0000000002,0.)) ;
#388=CARTESIAN_POINT('Vertex',(2.15741492362,12.0000000002,3.94912152832)) ;
#390=CARTESIAN_POINT('Vertex',(-2.15741492362,12.0000000002,-3.94912152833)) ;
#393=CARTESIAN_POINT('Line Origine',(1695025.96624,-3535518.90593,3102724.21919)) ;
#398=CARTESIAN_POINT('Line Origine',(-1695025.96624,-3535518.90593,-3102724.21919)) ;
#410=CARTESIAN_POINT('Axis2P3D Location',(0.,22.9375010896,0.)) ;
#415=CARTESIAN_POINT('Axis2P3D Location',(0.,23.6000000001,0.)) ;
#419=CARTESIAN_POINT('Vertex',(2.28326360527,23.6000000001,4.17948599486)) ;
#421=CARTESIAN_POINT('Vertex',(-2.28326360526,23.6000000001,-4.17948599487)) ;
#424=CARTESIAN_POINT('Line Origine',(1695026.22993,3535554.79344,3102724.70186)) ;
#429=CARTESIAN_POINT('Line Origine',(-1695026.22993,3535554.79344,-3102724.70186)) ;
#442=CARTESIAN_POINT('Control Point',(-1.96564470828,22.9375010901,-3.59808850375)) ;
#443=CARTESIAN_POINT('Control Point',(-2.5308311288,22.9375010901,-3.28932575499)) ;
#444=CARTESIAN_POINT('Control Point',(-3.03539212536,22.9375010901,-2.86958891208)) ;
#445=CARTESIAN_POINT('Control Point',(-3.45017646571,22.9375010901,-2.35466095956)) ;
#446=CARTESIAN_POINT('Control Point',(-4.05549266584,22.9375010901,-1.18991396381)) ;
#447=CARTESIAN_POINT('Control Point',(-4.17545213435,22.9375010901,0.117240576458)) ;
#448=CARTESIAN_POINT('Control Point',(-4.1046399071,22.9375010901,0.774646443295)) ;
#449=CARTESIAN_POINT('Control Point',(-3.70906259791,22.9375010901,2.02627013223)) ;
#450=CARTESIAN_POINT('Control Point',(-2.86958891208,22.9375010901,3.03539212536)) ;
#451=CARTESIAN_POINT('Control Point',(-2.35466095956,22.9375010901,3.45017646571)) ;
#452=CARTESIAN_POINT('Control Point',(-1.18991396382,22.9375010901,4.05549266584)) ;
#453=CARTESIAN_POINT('Control Point',(0.117240576456,22.9375010901,4.17545213435)) ;
#454=CARTESIAN_POINT('Control Point',(0.774646443293,22.9375010901,4.1046399071)) ;
#455=CARTESIAN_POINT('Control Point',(1.40045828776,22.9375010901,3.90685125251)) ;
#456=CARTESIAN_POINT('Control Point',(1.96564470828,22.9375010901,3.59808850375)) ;
#459=CARTESIAN_POINT('Control Point',(-1.96564470828,19.2624989101,-3.59808850375)) ;
#460=CARTESIAN_POINT('Control Point',(-2.5308311288,19.2624989101,-3.28932575499)) ;
#461=CARTESIAN_POINT('Control Point',(-3.03539212536,19.2624989101,-2.86958891208)) ;
#462=CARTESIAN_POINT('Control Point',(-3.45017646571,19.26249891,-2.35466095956)) ;
#463=CARTESIAN_POINT('Control Point',(-4.05549266584,19.26249891,-1.18991396381)) ;
#464=CARTESIAN_POINT('Control Point',(-4.17545213435,19.26249891,0.117240576458)) ;
#465=CARTESIAN_POINT('Control Point',(-4.1046399071,19.26249891,0.774646443295)) ;
#466=CARTESIAN_POINT('Control Point',(-3.70906259791,19.2624989099,2.02627013223)) ;
#467=CARTESIAN_POINT('Control Point',(-2.86958891208,19.2624989099,3.03539212536)) ;
#468=CARTESIAN_POINT('Control Point',(-2.35466095956,19.2624989099,3.45017646571)) ;
#469=CARTESIAN_POINT('Control Point',(-1.18991396382,19.2624989099,4.05549266584)) ;
#470=CARTESIAN_POINT('Control Point',(0.117240576456,19.2624989098,4.17545213435)) ;
#471=CARTESIAN_POINT('Control Point',(0.774646443293,19.2624989098,4.1046399071)) ;
#472=CARTESIAN_POINT('Control Point',(1.40045828776,19.2624989098,3.90685125251)) ;
#473=CARTESIAN_POINT('Control Point',(1.96564470828,19.2624989098,3.59808850375)) ;
#482=CARTESIAN_POINT('Control Point',(-4.1,19.85,4.4408920985E-15)) ;
#483=CARTESIAN_POINT('Control Point',(-4.1,19.85,-0.00659778607297)) ;
#484=CARTESIAN_POINT('Control Point',(-4.09998672842,19.85,-0.0131955721459)) ;
#485=CARTESIAN_POINT('Control Point',(-4.099980092,19.8500652982,-0.0139960541769)) ;
#486=CARTESIAN_POINT('Control Point',(-4.09990046719,19.8503264814,-0.032655822501)) ;
#487=CARTESIAN_POINT('Control Point',(-4.09971474335,19.8509358343,-0.0513084792637)) ;
#488=CARTESIAN_POINT('Control Point',(-4.09951585426,19.8515886037,-0.0652899932029)) ;
#489=CARTESIAN_POINT('Control Point',(-4.09891322339,19.8535679313,-0.0978854155831)) ;
#490=CARTESIAN_POINT('Control Point',(-4.09798913973,19.8566096914,-0.130393836006)) ;
#491=CARTESIAN_POINT('Control Point',(-4.09735693262,19.8586938667,-0.148932256756)) ;
#492=CARTESIAN_POINT('Control Point',(-4.09515143082,19.8659805282,-0.204406337157)) ;
#493=CARTESIAN_POINT('Control Point',(-4.09203345766,19.8763541712,-0.259374836997)) ;
#494=CARTESIAN_POINT('Control Point',(-4.08956185337,19.8846282132,-0.295722877254)) ;
#495=CARTESIAN_POINT('Control Point',(-4.07568012166,19.9315141169,-0.471222901701)) ;
#496=CARTESIAN_POINT('Control Point',(-4.05345343953,20.0096366017,-0.636370510872)) ;
#497=CARTESIAN_POINT('Control Point',(-4.03186659791,20.0900585653,-0.757325979999)) ;
#498=CARTESIAN_POINT('Control Point',(-3.98309521751,20.2939531728,-0.985303218972)) ;
#499=CARTESIAN_POINT('Control Point',(-3.93849556065,20.5574334236,-1.14337632196)) ;
#500=CARTESIAN_POINT('Control Point',(-3.91942506406,20.7096190873,-1.20416662296)) ;
#501=CARTESIAN_POINT('Control Point',(-3.89152360386,21.1092692634,-1.29168941206)) ;
#502=CARTESIAN_POINT('Control Point',(-3.91557111723,21.5187963474,-1.21611764696)) ;
#503=CARTESIAN_POINT('Control Point',(-3.95049104284,21.7459727659,-1.11085322254)) ;
#504=CARTESIAN_POINT('Control Point',(-4.01915755375,22.0702372046,-0.852641392911)) ;
#505=CARTESIAN_POINT('Control Point',(-4.07462821026,22.2668921373,-0.492376808969)) ;
#506=CARTESIAN_POINT('Control Point',(-4.09155633108,22.322304766,-0.332836919111)) ;
#507=CARTESIAN_POINT('Control Point',(-4.1,22.35,-0.166418851225)) ;
#508=CARTESIAN_POINT('Control Point',(-4.1,22.35,2.72087180156E-15)) ;
#509=CARTESIAN_POINT('Vertex',(-4.1,19.85,4.4408920985E-15)) ;
#511=CARTESIAN_POINT('Vertex',(-4.1,22.35,-2.88657986403E-15)) ;
#515=CARTESIAN_POINT('Control Point',(-4.1,22.35,-2.8883145875E-15)) ;
#516=CARTESIAN_POINT('Control Point',(-4.1,22.35,0.00659778607297)) ;
#517=CARTESIAN_POINT('Control Point',(-4.09998672842,22.35,0.0131955721459)) ;
#518=CARTESIAN_POINT('Control Point',(-4.099980092,22.3499347018,0.0139960541769)) ;
#519=CARTESIAN_POINT('Control Point',(-4.09990046719,22.3496735186,0.0326558225009)) ;
#520=CARTESIAN_POINT('Control Point',(-4.09971474335,22.3490641657,0.0513084792636)) ;
#521=CARTESIAN_POINT('Control Point',(-4.09951585426,22.3484113963,0.0652899932027)) ;
#522=CARTESIAN_POINT('Control Point',(-4.09891322339,22.3464320687,0.0978854155828)) ;
#523=CARTESIAN_POINT('Control Point',(-4.09798913973,22.3433903086,0.130393836006)) ;
#524=CARTESIAN_POINT('Control Point',(-4.09735693262,22.3413061333,0.148932256756)) ;
#525=CARTESIAN_POINT('Control Point',(-4.09515143082,22.3340194718,0.204406337157)) ;
#526=CARTESIAN_POINT('Control Point',(-4.09203345766,22.3236458288,0.259374836997)) ;
#527=CARTESIAN_POINT('Control Point',(-4.08956185337,22.3153717868,0.295722877254)) ;
#528=CARTESIAN_POINT('Control Point',(-4.07568012166,22.2684858831,0.471222901701)) ;
#529=CARTESIAN_POINT('Control Point',(-4.05345343953,22.1903633983,0.636370510872)) ;
#530=CARTESIAN_POINT('Control Point',(-4.03186659791,22.1099414347,0.757325979999)) ;
#531=CARTESIAN_POINT('Control Point',(-3.9830952175,21.9060468272,0.985303218973)) ;
#532=CARTESIAN_POINT('Control Point',(-3.93849556065,21.6425665764,1.14337632196)) ;
#533=CARTESIAN_POINT('Control Point',(-3.91942506406,21.4903809127,1.20416662295)) ;
#534=CARTESIAN_POINT('Control Point',(-3.89152360386,21.0907307366,1.29168941206)) ;
#535=CARTESIAN_POINT('Control Point',(-3.91557111723,20.6812036526,1.21611764696)) ;
#536=CARTESIAN_POINT('Control Point',(-3.95049104283,20.4540272341,1.11085322254)) ;
#537=CARTESIAN_POINT('Control Point',(-4.01915755375,20.1297627954,0.852641392912)) ;
#538=CARTESIAN_POINT('Control Point',(-4.07462821026,19.9331078626,0.492376808958)) ;
#539=CARTESIAN_POINT('Control Point',(-4.09155633108,19.877695234,0.332836919124)) ;
#540=CARTESIAN_POINT('Control Point',(-4.1,19.85,0.166418851232)) ;
#541=CARTESIAN_POINT('Control Point',(-4.1,19.85,2.72004641033E-15)) ;
#548=CARTESIAN_POINT('Axis2P3D Location',(0.,19.2624989104,0.)) ;
#553=CARTESIAN_POINT('Line Origine',(1695026.22993,-3535512.59344,3102724.70186)) ;
#557=CARTESIAN_POINT('Vertex',(2.28326360522,18.6,4.17948599479)) ;
#560=CARTESIAN_POINT('Axis2P3D Location',(0.,18.6,0.)) ;
#564=CARTESIAN_POINT('Vertex',(-2.28326360522,18.6,-4.17948599479)) ;
#567=CARTESIAN_POINT('Line Origine',(-1695026.22993,-3535512.59344,-3102724.70186)) ;
#579=CARTESIAN_POINT('Axis2P3D Location',(0.,12.0000000002,0.)) ;
#591=CARTESIAN_POINT('Line Origine',(0.,22.35,-3.06161699787E-16)) ;
#596=CARTESIAN_POINT('Line Origine',(0.,19.85,1.53080849894E-16)) ;
#615=CARTESIAN_POINT('Axis2P3D Location',(0.,17.6000000001,0.)) ;
#620=CARTESIAN_POINT('Axis2P3D Location',(0.,4.72525130135E-10,0.)) ;
#624=CARTESIAN_POINT('Vertex',(2.15741492372,4.72525130135E-10,3.94912152851)) ;
#626=CARTESIAN_POINT('Vertex',(-2.15741492372,4.72525130135E-10,-3.94912152851)) ;
#629=CARTESIAN_POINT('Line Origine',(2.15741492372,17.5999999996,3.94912152851)) ;
#634=CARTESIAN_POINT('Line Origine',(-2.15741492372,17.5999999996,-3.94912152851)) ;
#646=CARTESIAN_POINT('Axis2P3D Location',(0.,23.6000000001,0.)) ;
#658=CARTESIAN_POINT('Axis2P3D Location',(0.,18.6,0.)) ;
#670=CARTESIAN_POINT('Axis2P3D Location',(0.,17.6000000001,0.)) ;
#675=CARTESIAN_POINT('Line Origine',(2.28326360522,17.5999999996,4.17948599479)) ;
#679=CARTESIAN_POINT('Vertex',(2.28326360522,16.0000000005,4.17948599479)) ;
#682=CARTESIAN_POINT('Axis2P3D Location',(0.,16.0000000005,0.)) ;
#686=CARTESIAN_POINT('Vertex',(-2.28326360522,16.0000000005,-4.17948599479)) ;
#689=CARTESIAN_POINT('Line Origine',(-2.28326360522,17.5999999996,-4.17948599479)) ;
#701=CARTESIAN_POINT('Axis2P3D Location',(0.,4.72525130135E-10,0.)) ;
#713=CARTESIAN_POINT('Axis2P3D Location',(0.,0.,4.5)) ;
#718=CARTESIAN_POINT('Line Origine',(6.5,0.,0.)) ;
#722=CARTESIAN_POINT('Vertex',(6.5,0.,-2.59807621129)) ;
#724=CARTESIAN_POINT('Vertex',(6.5,0.,2.59807621129)) ;
#727=CARTESIAN_POINT('Axis2P3D Location',(-8.43271497075E-09,0.,-5.86826143234E-09)) ;
#731=CARTESIAN_POINT('Vertex',(3.35597877018,0.,6.14307793416)) ;
#734=CARTESIAN_POINT('Axis2P3D Location',(5.67510927141E-10,0.,3.94547861049E-09)) ;
#738=CARTESIAN_POINT('Vertex',(-3.64207216166,0.,5.97790183686)) ;
#741=CARTESIAN_POINT('Axis2P3D Location',(1.19164322854E-08,0.,-9.75489378163E-09)) ;
#745=CARTESIAN_POINT('Vertex',(-6.5,0.,2.59807621129)) ;
#748=CARTESIAN_POINT('Line Origine',(-6.5,0.,0.)) ;
#752=CARTESIAN_POINT('Vertex',(-6.5,0.,-2.59807621129)) ;
#755=CARTESIAN_POINT('Axis2P3D Location',(8.43271497075E-09,0.,5.86826143234E-09)) ;
#759=CARTESIAN_POINT('Vertex',(-3.35597877018,0.,-6.14307793416)) ;
#762=CARTESIAN_POINT('Axis2P3D Location',(-6.38395114549E-10,0.,1.64275704151E-10)) ;
#781=CARTESIAN_POINT('Axis2P3D Location',(0.,16.0000000005,0.)) ;
#793=CARTESIAN_POINT('Axis2P3D Location',(0.,16.,8.)) ;
#798=CARTESIAN_POINT('Axis2P3D Location',(-6.38395114549E-10,16.,1.64275704151E-10)) ;
#802=CARTESIAN_POINT('Vertex',(6.5,16.,-2.59807621129)) ;
#804=CARTESIAN_POINT('Vertex',(-3.35597877018,16.,-6.14307793416)) ;
#807=CARTESIAN_POINT('Axis2P3D Location',(8.43271497075E-09,16.,5.86826143234E-09)) ;
#811=CARTESIAN_POINT('Vertex',(-6.5,16.,-2.59807621129)) ;
#814=CARTESIAN_POINT('Line Origine',(-6.5,16.,0.)) ;
#818=CARTESIAN_POINT('Vertex',(-6.5,16.,2.59807621129)) ;
#821=CARTESIAN_POINT('Axis2P3D Location',(1.19164322854E-08,16.,-9.75489378163E-09)) ;
#825=CARTESIAN_POINT('Vertex',(-3.64207216166,16.,5.97790183686)) ;
#828=CARTESIAN_POINT('Axis2P3D Location',(5.67510927141E-10,16.,3.94547861049E-09)) ;
#832=CARTESIAN_POINT('Vertex',(3.35597877018,16.,6.14307793416)) ;
#835=CARTESIAN_POINT('Axis2P3D Location',(-8.43271497075E-09,16.,-5.86826232052E-09)) ;
#839=CARTESIAN_POINT('Vertex',(6.5,16.,2.59807621129)) ;
#842=CARTESIAN_POINT('Line Origine',(6.5,16.,0.)) ;
#861=CARTESIAN_POINT('Axis2P3D Location',(8.881784197E-15,-7.,-5.96744875736E-16)) ;
#866=CARTESIAN_POINT('Line Origine',(-847512.623552,1767759.95297,-1551361.45141)) ;
#870=CARTESIAN_POINT('Vertex',(-3.83540430894,1.00000000024,-7.02066049533)) ;
#873=CARTESIAN_POINT('Axis2P3D Location',(-1.7763568394E-15,1.,5.13478148888E-16)) ;
#877=CARTESIAN_POINT('Vertex',(6.5,1.00000000021,-4.6636895269)) ;
#881=CARTESIAN_POINT('Control Point',(6.5,-2.98834679224E-10,-2.59807621053)) ;
#882=CARTESIAN_POINT('Control Point',(6.50000000002,0.170316864732,-3.056961154)) ;
#883=CARTESIAN_POINT('Control Point',(6.49999861008,0.38442704891,-3.54089088904)) ;
#884=CARTESIAN_POINT('Control Point',(6.5,0.653696655131,-4.06964767554)) ;
#885=CARTESIAN_POINT('Control Point',(6.5,1.00000000021,-4.6636895269)) ;
#894=CARTESIAN_POINT('Axis2P3D Location',(-1.77635683972E-15,1.00000000024,5.13478148921E-16)) ;
#898=CARTESIAN_POINT('Vertex',(-6.5,1.00000000019,-4.66368952686)) ;
#902=CARTESIAN_POINT('Control Point',(-6.5,-3.13675252439E-10,-2.59807621049)) ;
#903=CARTESIAN_POINT('Control Point',(-6.50000000003,0.170316864706,-3.05696115393)) ;
#904=CARTESIAN_POINT('Control Point',(-6.49999861008,0.384427048875,-3.54089088899)) ;
#905=CARTESIAN_POINT('Control Point',(-6.5,0.653696655136,-4.06964767554)) ;
#906=CARTESIAN_POINT('Control Point',(-6.5,1.00000000019,-4.66368952686)) ;
#915=CARTESIAN_POINT('Axis2P3D Location',(-6.5,0.,4.6636895266)) ;
#920=CARTESIAN_POINT('Line Origine',(-6.5,8.,4.6636895266)) ;
#924=CARTESIAN_POINT('Vertex',(-6.5,1.,4.6636895266)) ;
#926=CARTESIAN_POINT('Vertex',(-6.5,15.,4.6636895266)) ;
#930=CARTESIAN_POINT('Control Point',(-6.5,15.9999999997,2.59807621209)) ;
#931=CARTESIAN_POINT('Control Point',(-6.5,15.9987075916,2.60155834894)) ;
#932=CARTESIAN_POINT('Control Point',(-6.5,15.9974151835,2.60504048579)) ;
#933=CARTESIAN_POINT('Control Point',(-6.5,15.9996894314,2.59891287978)) ;
#934=CARTESIAN_POINT('Control Point',(-6.5,15.8638116413,2.96488156594)) ;
#935=CARTESIAN_POINT('Control Point',(-6.5,15.7008202288,3.34834083206)) ;
#936=CARTESIAN_POINT('Control Point',(-6.5,15.5071392681,3.75385234207)) ;
#937=CARTESIAN_POINT('Control Point',(-6.5,15.2768315379,4.18881822768)) ;
#938=CARTESIAN_POINT('Control Point',(-6.5,15.,4.6636895266)) ;
#941=CARTESIAN_POINT('Control Point',(-6.5,16.,-2.59807621135)) ;
#942=CARTESIAN_POINT('Control Point',(-6.5,15.9987075919,-2.6015583482)) ;
#943=CARTESIAN_POINT('Control Point',(-6.5,15.9974151837,-2.60504048505)) ;
#944=CARTESIAN_POINT('Control Point',(-6.5,15.9996894317,-2.59891287903)) ;
#945=CARTESIAN_POINT('Control Point',(-6.5,15.8638116415,-2.96488156533)) ;
#946=CARTESIAN_POINT('Control Point',(-6.5,15.700820229,-3.34834083161)) ;
#947=CARTESIAN_POINT('Control Point',(-6.5,15.5071392683,-3.75385234163)) ;
#948=CARTESIAN_POINT('Control Point',(-6.5,15.276831538,-4.18881822742)) ;
#949=CARTESIAN_POINT('Control Point',(-6.5,15.,-4.66368952654)) ;
#950=CARTESIAN_POINT('Vertex',(-6.5,15.,-4.66368952654)) ;
#953=CARTESIAN_POINT('Line Origine',(-6.5,8.,-4.66368952686)) ;
#959=CARTESIAN_POINT('Control Point',(-6.5,2.79262102375E-10,2.59807621209)) ;
#960=CARTESIAN_POINT('Control Point',(-6.5,0.00129240841015,2.60155834894)) ;
#961=CARTESIAN_POINT('Control Point',(-6.5,0.00258481654103,2.60504048579)) ;
#962=CARTESIAN_POINT('Control Point',(-6.5,0.00031056855103,2.59891287978)) ;
#963=CARTESIAN_POINT('Control Point',(-6.5,0.136188358739,2.96488156593)) ;
#964=CARTESIAN_POINT('Control Point',(-6.5,0.299179771218,3.34834083204)) ;
#965=CARTESIAN_POINT('Control Point',(-6.5,0.492860731926,3.75385234208)) ;
#966=CARTESIAN_POINT('Control Point',(-6.5,0.723168462138,4.18881822769)) ;
#967=CARTESIAN_POINT('Control Point',(-6.5,1.00000000004,4.6636895266)) ;
#980=CARTESIAN_POINT('Line Origine',(-919762.115596,1767759.95297,1509648.18773)) ;
#984=CARTESIAN_POINT('Vertex',(-4.16236818583,1.00000000024,6.83188781299)) ;
#987=CARTESIAN_POINT('Axis2P3D Location',(-1.77635683944E-15,1.00000000003,5.13478148892E-16)) ;
#999=CARTESIAN_POINT('Line Origine',(847512.473185,1767759.95297,1551361.53355)) ;
#1003=CARTESIAN_POINT('Vertex',(3.83540430894,1.00000000024,7.02066049533)) ;
#1006=CARTESIAN_POINT('Axis2P3D Location',(-1.77635683972E-15,1.00000000024,5.13478148921E-16)) ;
#1018=CARTESIAN_POINT('Axis2P3D Location',(-1.77635683972E-15,1.00000000024,5.13478148921E-16)) ;
#1022=CARTESIAN_POINT('Vertex',(6.5,1.,4.66368952656)) ;
#1026=CARTESIAN_POINT('Control Point',(6.5,2.64449795395E-10,2.59807621205)) ;
#1027=CARTESIAN_POINT('Control Point',(6.49999999998,0.170316865188,3.05696115511)) ;
#1028=CARTESIAN_POINT('Control Point',(6.49999861011,0.384427049323,3.54089088979)) ;
#1029=CARTESIAN_POINT('Control Point',(6.5,0.653696655322,4.06964767584)) ;
#1030=CARTESIAN_POINT('Control Point',(6.5,1.00000000002,4.66368952656)) ;
#1039=CARTESIAN_POINT('Axis2P3D Location',(6.5,0.,4.66368952656)) ;
#1044=CARTESIAN_POINT('Line Origine',(6.5,8.,-4.6636895269)) ;
#1048=CARTESIAN_POINT('Vertex',(6.5,15.,-4.66368952654)) ;
#1052=CARTESIAN_POINT('Control Point',(6.5,16.,-2.59807621135)) ;
#1053=CARTESIAN_POINT('Control Point',(6.5,15.9987075919,-2.6015583482)) ;
#1054=CARTESIAN_POINT('Control Point',(6.5,15.9974151837,-2.60504048505)) ;
#1055=CARTESIAN_POINT('Control Point',(6.5,15.9996894317,-2.59891287903)) ;
#1056=CARTESIAN_POINT('Control Point',(6.5,15.8638116415,-2.96488156531)) ;
#1057=CARTESIAN_POINT('Control Point',(6.5,15.700820229,-3.34834083155)) ;
#1058=CARTESIAN_POINT('Control Point',(6.5,15.5071392683,-3.75385234168)) ;
#1059=CARTESIAN_POINT('Control Point',(6.5,15.276831538,-4.18881822745)) ;
#1060=CARTESIAN_POINT('Control Point',(6.5,15.,-4.66368952654)) ;
#1063=CARTESIAN_POINT('Control Point',(6.5,16.,2.59807621135)) ;
#1064=CARTESIAN_POINT('Control Point',(6.5,15.9987075919,2.6015583482)) ;
#1065=CARTESIAN_POINT('Control Point',(6.5,15.9974151837,2.60504048506)) ;
#1066=CARTESIAN_POINT('Control Point',(6.5,15.9996894317,2.59891287904)) ;
#1067=CARTESIAN_POINT('Control Point',(6.5,15.8638116415,2.96488156529)) ;
#1068=CARTESIAN_POINT('Control Point',(6.5,15.700820229,3.34834083151)) ;
#1069=CARTESIAN_POINT('Control Point',(6.5,15.5071392683,3.75385234173)) ;
#1070=CARTESIAN_POINT('Control Point',(6.5,15.276831538,4.18881822747)) ;
#1071=CARTESIAN_POINT('Control Point',(6.5,15.,4.66368952654)) ;
#1072=CARTESIAN_POINT('Vertex',(6.5,15.,4.66368952654)) ;
#1075=CARTESIAN_POINT('Line Origine',(6.5,8.,4.66368952656)) ;
#1091=CARTESIAN_POINT('Axis2P3D Location',(8.881784197E-15,23.,-5.96744875736E-16)) ;
#1096=CARTESIAN_POINT('Axis2P3D Location',(-1.7763568394E-15,15.,5.13478148888E-16)) ;
#1100=CARTESIAN_POINT('Vertex',(-3.83540430883,15.,-7.02066049512)) ;
#1103=CARTESIAN_POINT('Line Origine',(-847512.623552,-1767743.95297,-1551361.45141)) ;
#1115=CARTESIAN_POINT('Axis2P3D Location',(-1.7763568394E-15,15.,5.13478148888E-16)) ;
#1127=CARTESIAN_POINT('Line Origine',(-919762.115596,-1767743.95297,1509648.18773)) ;
#1131=CARTESIAN_POINT('Vertex',(-4.1623681857,15.,6.83188781279)) ;
#1134=CARTESIAN_POINT('Axis2P3D Location',(-1.7763568394E-15,15.,5.13478148888E-16)) ;
#1146=CARTESIAN_POINT('Axis2P3D Location',(-1.7763568394E-15,15.,5.13478148888E-16)) ;
#1150=CARTESIAN_POINT('Vertex',(3.83540430883,15.,7.02066049512)) ;
#1153=CARTESIAN_POINT('Line Origine',(847512.570323,-1767743.95297,1551361.48049)) ;
#1165=CARTESIAN_POINT('Axis2P3D Location',(-1.7763568394E-15,15.,5.13478148888E-16)) ;
#1177=CARTESIAN_POINT('Axis2P3D Location',(0.,17.6000000001,0.)) ;
#1182=CARTESIAN_POINT('Line Origine',(-3.83540430883,17.5999999996,-7.02066049512)) ;
#1201=CARTESIAN_POINT('Line Origine',(3.83540430883,17.5999999996,7.02066049512)) ;
#1222=CARTESIAN_POINT('Axis2P3D Location',(0.,32.2,0.)) ;
#1227=CARTESIAN_POINT('Axis2P3D Location',(0.,32.2,-1.32818403064E-16)) ;
#1231=CARTESIAN_POINT('Vertex',(1.80383806662,32.2,3.3019034329)) ;
#1233=CARTESIAN_POINT('Vertex',(-1.80383806661,32.2,-3.3019034329)) ;
#1236=CARTESIAN_POINT('Axis2P3D Location',(0.,32.2,-1.32818403064E-16)) ;
#1250=CARTESIAN_POINT('Line Origine',(2.28326360522,17.5999999996,4.17948599479)) ;
#1254=CARTESIAN_POINT('Vertex',(2.28326360522,31.2,4.17948599479)) ;
#1257=CARTESIAN_POINT('Line Origine',(-2.28326360522,17.5999999996,-4.17948599479)) ;
#1261=CARTESIAN_POINT('Vertex',(-2.28326360522,31.2,-4.17948599479)) ;
#1264=CARTESIAN_POINT('Axis2P3D Location',(0.,31.2,0.)) ;
#1276=CARTESIAN_POINT('Axis2P3D Location',(0.,31.2,0.)) ;
#1288=CARTESIAN_POINT('Axis2P3D Location',(-1.05748718902E-15,35.9624989104,-2.28428314735E-15)) ;
#1293=CARTESIAN_POINT('Line Origine',(2.04355083592,31.7,3.74069471384)) ;
#1298=CARTESIAN_POINT('Line Origine',(-2.04355083592,31.7,-3.74069471385)) ;
#1310=CARTESIAN_POINT('Axis2P3D Location',(6.07014269356E-15,35.9624989104,-2.77607702597E-15)) ;
#6=PRODUCT_RELATED_PRODUCT_CATEGORY('part',$,(#16)) ;
#11=UNCERTAINTY_MEASURE_WITH_UNIT(LENGTH_MEASURE(0.005),#8,'distance_accuracy_value','CONFUSED CURVE UNCERTAINTY') ;
#29=STYLED_ITEM(' ',(#28),#21) ;
#28=PRESENTATION_STYLE_ASSIGNMENT((#27)) ;
#27=SURFACE_STYLE_USAGE(.BOTH.,#26) ;
#26=SURFACE_SIDE_STYLE(' ',(#25)) ;
#25=SURFACE_STYLE_FILL_AREA(#24) ;
#24=FILL_AREA_STYLE(' ',(#23)) ;
#23=FILL_AREA_STYLE_COLOUR(' ',#22) ;
#38=VECTOR('Line Direction',#37,1.) ;
#78=VECTOR('Line Direction',#77,1.) ;
#135=VECTOR('Line Direction',#134,1.) ;
#149=VECTOR('Line Direction',#148,1.) ;
#256=VECTOR('Line Direction',#255,1.) ;
#282=VECTOR('Line Direction',#281,1.) ;
#395=VECTOR('Line Direction',#394,1.) ;
#400=VECTOR('Line Direction',#399,1.) ;
#426=VECTOR('Line Direction',#425,1.) ;
#431=VECTOR('Line Direction',#430,1.) ;
#555=VECTOR('Line Direction',#554,1.) ;
#569=VECTOR('Line Direction',#568,1.) ;
#593=VECTOR('Line Direction',#592,1.) ;
#598=VECTOR('Line Direction',#597,1.) ;
#631=VECTOR('Line Direction',#630,1.) ;
#636=VECTOR('Line Direction',#635,1.) ;
#677=VECTOR('Line Direction',#676,1.) ;
#691=VECTOR('Line Direction',#690,1.) ;
#720=VECTOR('Line Direction',#719,1.) ;
#750=VECTOR('Line Direction',#749,1.) ;
#816=VECTOR('Line Direction',#815,1.) ;
#844=VECTOR('Line Direction',#843,1.) ;
#868=VECTOR('Line Direction',#867,1.) ;
#922=VECTOR('Line Direction',#921,1.) ;
#955=VECTOR('Line Direction',#954,1.) ;
#982=VECTOR('Line Direction',#981,1.) ;
#1001=VECTOR('Line Direction',#1000,1.) ;
#1046=VECTOR('Line Direction',#1045,1.) ;
#1077=VECTOR('Line Direction',#1076,1.) ;
#1105=VECTOR('Line Direction',#1104,1.) ;
#1129=VECTOR('Line Direction',#1128,1.) ;
#1155=VECTOR('Line Direction',#1154,1.) ;
#1184=VECTOR('Line Direction',#1183,1.) ;
#1203=VECTOR('Line Direction',#1202,1.) ;
#1252=VECTOR('Line Direction',#1251,1.) ;
#1259=VECTOR('Line Direction',#1258,1.) ;
#1295=VECTOR('Line Direction',#1294,1.) ;
#1300=VECTOR('Line Direction',#1299,1.) ;
#32=DIRECTION('Axis2P3D Direction',(1.,0.,0.)) ;
#33=DIRECTION('Axis2P3D XDirection',(-0.,1.,-2.64687485605E-28)) ;
#37=DIRECTION('Vector Direction',(1.,0.,0.)) ;
#77=DIRECTION('Vector Direction',(1.,0.,0.)) ;
#120=DIRECTION('Axis2P3D Direction',(-0.,1.,0.)) ;
#121=DIRECTION('Axis2P3D XDirection',(-0.479425538604,0.,-0.877582561891)) ;
#125=DIRECTION('Axis2P3D Direction',(-0.,1.,0.)) ;
#134=DIRECTION('Vector Direction',(0.,1.,0.)) ;
#141=DIRECTION('Axis2P3D Direction',(-0.,1.,0.)) ;
#148=DIRECTION('Vector Direction',(0.,1.,0.)) ;
#229=DIRECTION('Axis2P3D Direction',(-0.,1.,0.)) ;
#230=DIRECTION('Axis2P3D XDirection',(-0.479425538604,-0.,-0.87758256189)) ;
#255=DIRECTION('Vector Direction',(0.,1.,0.)) ;
#281=DIRECTION('Vector Direction',(0.,1.,0.)) ;
#297=DIRECTION('Axis2P3D Direction',(-0.,1.,0.)) ;
#302=DIRECTION('Axis2P3D Direction',(-0.,1.,0.)) ;
#380=DIRECTION('Axis2P3D Direction',(-0.,-1.,-0.)) ;
#381=DIRECTION('Axis2P3D XDirection',(0.479425538604,0.,0.87758256189)) ;
#385=DIRECTION('Axis2P3D Direction',(0.,-1.,-0.)) ;
#394=DIRECTION('Vector Direction',(0.339005049421,-0.707106781187,0.620544580563)) ;
#399=DIRECTION('Vector Direction',(-0.339005049421,-0.707106781187,-0.620544580563)) ;
#411=DIRECTION('Axis2P3D Direction',(0.,1.,0.)) ;
#412=DIRECTION('Axis2P3D XDirection',(-0.479425538604,0.,-0.87758256189)) ;
#416=DIRECTION('Axis2P3D Direction',(-0.,1.,0.)) ;
#425=DIRECTION('Vector Direction',(0.339005049421,0.707106781187,0.620544580563)) ;
#430=DIRECTION('Vector Direction',(-0.339005049421,0.707106781187,-0.620544580563)) ;
#549=DIRECTION('Axis2P3D Direction',(-0.,-1.,-0.)) ;
#550=DIRECTION('Axis2P3D XDirection',(0.479425538604,0.,0.87758256189)) ;
#554=DIRECTION('Vector Direction',(0.339005049421,-0.707106781187,0.620544580563)) ;
#561=DIRECTION('Axis2P3D Direction',(0.,-1.,-0.)) ;
#568=DIRECTION('Vector Direction',(-0.339005049421,-0.707106781187,-0.620544580563)) ;
#580=DIRECTION('Axis2P3D Direction',(0.,-1.,-0.)) ;
#592=DIRECTION('Vector Direction',(1.,0.,0.)) ;
#597=DIRECTION('Vector Direction',(1.,0.,0.)) ;
#616=DIRECTION('Axis2P3D Direction',(-0.,1.,0.)) ;
#617=DIRECTION('Axis2P3D XDirection',(-0.479425538604,0.,-0.87758256189)) ;
#621=DIRECTION('Axis2P3D Direction',(-0.,1.,0.)) ;
#630=DIRECTION('Vector Direction',(0.,1.,0.)) ;
#635=DIRECTION('Vector Direction',(0.,1.,0.)) ;
#647=DIRECTION('Axis2P3D Direction',(-0.,1.,0.)) ;
#659=DIRECTION('Axis2P3D Direction',(0.,-1.,-0.)) ;
#671=DIRECTION('Axis2P3D Direction',(-0.,1.,0.)) ;
#672=DIRECTION('Axis2P3D XDirection',(-0.479425538603,0.,-0.877582561891)) ;
#676=DIRECTION('Vector Direction',(0.,1.,0.)) ;
#683=DIRECTION('Axis2P3D Direction',(-0.,1.,0.)) ;
#690=DIRECTION('Vector Direction',(0.,1.,0.)) ;
#702=DIRECTION('Axis2P3D Direction',(-0.,1.,0.)) ;
#714=DIRECTION('Axis2P3D Direction',(-0.,1.,0.)) ;
#715=DIRECTION('Axis2P3D XDirection',(1.,0.,0.)) ;
#719=DIRECTION('Vector Direction',(0.,0.,-1.)) ;
#728=DIRECTION('Axis2P3D Direction',(-0.,1.,0.)) ;
#735=DIRECTION('Axis2P3D Direction',(-0.,1.,0.)) ;
#742=DIRECTION('Axis2P3D Direction',(-0.,1.,0.)) ;
#749=DIRECTION('Vector Direction',(0.,0.,-1.)) ;
#756=DIRECTION('Axis2P3D Direction',(-0.,1.,0.)) ;
#763=DIRECTION('Axis2P3D Direction',(-0.,1.,0.)) ;
#782=DIRECTION('Axis2P3D Direction',(-0.,1.,0.)) ;
#794=DIRECTION('Axis2P3D Direction',(-0.,1.,0.)) ;
#795=DIRECTION('Axis2P3D XDirection',(1.,0.,0.)) ;
#799=DIRECTION('Axis2P3D Direction',(-0.,1.,0.)) ;
#808=DIRECTION('Axis2P3D Direction',(-0.,1.,0.)) ;
#815=DIRECTION('Vector Direction',(0.,0.,-1.)) ;
#822=DIRECTION('Axis2P3D Direction',(-0.,1.,0.)) ;
#829=DIRECTION('Axis2P3D Direction',(-0.,1.,0.)) ;
#836=DIRECTION('Axis2P3D Direction',(-0.,1.,0.)) ;
#843=DIRECTION('Vector Direction',(0.,0.,-1.)) ;
#862=DIRECTION('Axis2P3D Direction',(-1.33226762955E-15,1.,1.38777878078E-16)) ;
#863=DIRECTION('Axis2P3D XDirection',(5.10516628971E-11,1.31708901597E-16,-1.)) ;
#867=DIRECTION('Vector Direction',(-0.339005049421,0.707106781187,-0.620544580563)) ;
#874=DIRECTION('Axis2P3D Direction',(-1.33226762955E-15,1.,1.38777878078E-16)) ;
#895=DIRECTION('Axis2P3D Direction',(-1.33226762955E-15,1.,1.38777878078E-16)) ;
#916=DIRECTION('Axis2P3D Direction',(1.,-0.,0.)) ;
#917=DIRECTION('Axis2P3D XDirection',(0.,0.,-1.)) ;
#921=DIRECTION('Vector Direction',(0.,1.,0.)) ;
#954=DIRECTION('Vector Direction',(0.,1.,0.)) ;
#981=DIRECTION('Vector Direction',(-0.367904846238,0.707106781187,0.603859275091)) ;
#988=DIRECTION('Axis2P3D Direction',(-1.33226762955E-15,1.,1.38777878078E-16)) ;
#1000=DIRECTION('Vector Direction',(0.339004989274,0.707106781187,0.620544613422)) ;
#1007=DIRECTION('Axis2P3D Direction',(-1.33226762955E-15,1.,1.38777878078E-16)) ;
#1019=DIRECTION('Axis2P3D Direction',(-1.33226762955E-15,1.,1.38777878078E-16)) ;
#1040=DIRECTION('Axis2P3D Direction',(1.,-0.,0.)) ;
#1041=DIRECTION('Axis2P3D XDirection',(0.,0.,-1.)) ;
#1045=DIRECTION('Vector Direction',(0.,1.,0.)) ;
#1076=DIRECTION('Vector Direction',(0.,1.,0.)) ;
#1092=DIRECTION('Axis2P3D Direction',(-1.33226762955E-15,-1.,1.38777878078E-16)) ;
#1093=DIRECTION('Axis2P3D XDirection',(-3.33066907388E-16,1.31708901597E-16,1.)) ;
#1097=DIRECTION('Axis2P3D Direction',(-1.33226762955E-15,-1.,1.38777878078E-16)) ;
#1104=DIRECTION('Vector Direction',(-0.339005049421,-0.707106781187,-0.620544580563)) ;
#1116=DIRECTION('Axis2P3D Direction',(-1.33226762955E-15,-1.,1.38777878078E-16)) ;
#1128=DIRECTION('Vector Direction',(-0.367904846238,-0.707106781187,0.603859275091)) ;
#1135=DIRECTION('Axis2P3D Direction',(-1.33226762955E-15,-1.,1.38777878078E-16)) ;
#1147=DIRECTION('Axis2P3D Direction',(-1.33226762955E-15,-1.,1.38777878078E-16)) ;
#1154=DIRECTION('Vector Direction',(0.339005028129,-0.707106781187,0.620544592195)) ;
#1166=DIRECTION('Axis2P3D Direction',(-1.33226762955E-15,-1.,1.38777878078E-16)) ;
#1178=DIRECTION('Axis2P3D Direction',(-0.,1.,0.)) ;
#1179=DIRECTION('Axis2P3D XDirection',(-1.,0.,3.04673525652E-12)) ;
#1183=DIRECTION('Vector Direction',(0.,1.,0.)) ;
#1202=DIRECTION('Vector Direction',(0.,1.,0.)) ;
#1223=DIRECTION('Axis2P3D Direction',(0.,1.,-0.)) ;
#1224=DIRECTION('Axis2P3D XDirection',(-1.,0.,0.)) ;
#1228=DIRECTION('Axis2P3D Direction',(0.,1.,-0.)) ;
#1237=DIRECTION('Axis2P3D Direction',(0.,1.,-0.)) ;
#1251=DIRECTION('Vector Direction',(0.,1.,0.)) ;
#1258=DIRECTION('Vector Direction',(0.,1.,0.)) ;
#1265=DIRECTION('Axis2P3D Direction',(-0.,1.,0.)) ;
#1277=DIRECTION('Axis2P3D Direction',(-0.,1.,0.)) ;
#1289=DIRECTION('Axis2P3D Direction',(2.22044604925E-16,-1.,6.66133814775E-16)) ;
#1290=DIRECTION('Axis2P3D XDirection',(-0.520296023214,3.9512670479E-16,0.853985976599)) ;
#1294=DIRECTION('Vector Direction',(0.339005049421,-0.707106781187,0.620544580564)) ;
#1299=DIRECTION('Vector Direction',(-0.339005049421,-0.707106781187,-0.620544580564)) ;
#1311=DIRECTION('Axis2P3D Direction',(-1.55431223448E-15,-1.,8.74300631892E-16)) ;
#1312=DIRECTION('Axis2P3D XDirection',(-0.479425538603,0.,-0.877582561891)) ;
#15=AXIS2_PLACEMENT_3D('',#14,$,$) ;
#34=AXIS2_PLACEMENT_3D('Cylinder Axis2P3D',#31,#32,#33) ;
#122=AXIS2_PLACEMENT_3D('Cylinder Axis2P3D',#119,#120,#121) ;
#126=AXIS2_PLACEMENT_3D('Circle Axis2P3D',#124,#125,$) ;
#142=AXIS2_PLACEMENT_3D('Circle Axis2P3D',#140,#141,$) ;
#231=AXIS2_PLACEMENT_3D('Cylinder Axis2P3D',#228,#229,#230) ;
#298=AXIS2_PLACEMENT_3D('Circle Axis2P3D',#296,#297,$) ;
#303=AXIS2_PLACEMENT_3D('Circle Axis2P3D',#301,#302,$) ;
#382=AXIS2_PLACEMENT_3D('Cone Axis2P3D',#379,#380,#381) ;
#386=AXIS2_PLACEMENT_3D('Circle Axis2P3D',#384,#385,$) ;
#413=AXIS2_PLACEMENT_3D('Cone Axis2P3D',#410,#411,#412) ;
#417=AXIS2_PLACEMENT_3D('Circle Axis2P3D',#415,#416,$) ;
#551=AXIS2_PLACEMENT_3D('Cone Axis2P3D',#548,#549,#550) ;
#562=AXIS2_PLACEMENT_3D('Circle Axis2P3D',#560,#561,$) ;
#581=AXIS2_PLACEMENT_3D('Circle Axis2P3D',#579,#580,$) ;
#618=AXIS2_PLACEMENT_3D('Cylinder Axis2P3D',#615,#616,#617) ;
#622=AXIS2_PLACEMENT_3D('Circle Axis2P3D',#620,#621,$) ;
#648=AXIS2_PLACEMENT_3D('Circle Axis2P3D',#646,#647,$) ;
#660=AXIS2_PLACEMENT_3D('Circle Axis2P3D',#658,#659,$) ;
#673=AXIS2_PLACEMENT_3D('Cylinder Axis2P3D',#670,#671,#672) ;
#684=AXIS2_PLACEMENT_3D('Circle Axis2P3D',#682,#683,$) ;
#703=AXIS2_PLACEMENT_3D('Circle Axis2P3D',#701,#702,$) ;
#716=AXIS2_PLACEMENT_3D('Plane Axis2P3D',#713,#714,#715) ;
#729=AXIS2_PLACEMENT_3D('Circle Axis2P3D',#727,#728,$) ;
#736=AXIS2_PLACEMENT_3D('Circle Axis2P3D',#734,#735,$) ;
#743=AXIS2_PLACEMENT_3D('Circle Axis2P3D',#741,#742,$) ;
#757=AXIS2_PLACEMENT_3D('Circle Axis2P3D',#755,#756,$) ;
#764=AXIS2_PLACEMENT_3D('Circle Axis2P3D',#762,#763,$) ;
#783=AXIS2_PLACEMENT_3D('Circle Axis2P3D',#781,#782,$) ;
#796=AXIS2_PLACEMENT_3D('Plane Axis2P3D',#793,#794,#795) ;
#800=AXIS2_PLACEMENT_3D('Circle Axis2P3D',#798,#799,$) ;
#809=AXIS2_PLACEMENT_3D('Circle Axis2P3D',#807,#808,$) ;
#823=AXIS2_PLACEMENT_3D('Circle Axis2P3D',#821,#822,$) ;
#830=AXIS2_PLACEMENT_3D('Circle Axis2P3D',#828,#829,$) ;
#837=AXIS2_PLACEMENT_3D('Circle Axis2P3D',#835,#836,$) ;
#864=AXIS2_PLACEMENT_3D('Cone Axis2P3D',#861,#862,#863) ;
#875=AXIS2_PLACEMENT_3D('Circle Axis2P3D',#873,#874,$) ;
#896=AXIS2_PLACEMENT_3D('Circle Axis2P3D',#894,#895,$) ;
#918=AXIS2_PLACEMENT_3D('Plane Axis2P3D',#915,#916,#917) ;
#989=AXIS2_PLACEMENT_3D('Circle Axis2P3D',#987,#988,$) ;
#1008=AXIS2_PLACEMENT_3D('Circle Axis2P3D',#1006,#1007,$) ;
#1020=AXIS2_PLACEMENT_3D('Circle Axis2P3D',#1018,#1019,$) ;
#1042=AXIS2_PLACEMENT_3D('Plane Axis2P3D',#1039,#1040,#1041) ;
#1094=AXIS2_PLACEMENT_3D('Cone Axis2P3D',#1091,#1092,#1093) ;
#1098=AXIS2_PLACEMENT_3D('Circle Axis2P3D',#1096,#1097,$) ;
#1117=AXIS2_PLACEMENT_3D('Circle Axis2P3D',#1115,#1116,$) ;
#1136=AXIS2_PLACEMENT_3D('Circle Axis2P3D',#1134,#1135,$) ;
#1148=AXIS2_PLACEMENT_3D('Circle Axis2P3D',#1146,#1147,$) ;
#1167=AXIS2_PLACEMENT_3D('Circle Axis2P3D',#1165,#1166,$) ;
#1180=AXIS2_PLACEMENT_3D('Cylinder Axis2P3D',#1177,#1178,#1179) ;
#1225=AXIS2_PLACEMENT_3D('Plane Axis2P3D',#1222,#1223,#1224) ;
#1229=AXIS2_PLACEMENT_3D('Circle Axis2P3D',#1227,#1228,$) ;
#1238=AXIS2_PLACEMENT_3D('Circle Axis2P3D',#1236,#1237,$) ;
#1266=AXIS2_PLACEMENT_3D('Circle Axis2P3D',#1264,#1265,$) ;
#1278=AXIS2_PLACEMENT_3D('Circle Axis2P3D',#1276,#1277,$) ;
#1291=AXIS2_PLACEMENT_3D('Cone Axis2P3D',#1288,#1289,#1290) ;
#1313=AXIS2_PLACEMENT_3D('Cone Axis2P3D',#1310,#1311,#1312) ;
#39=LINE('Line',#36,#38) ;
#79=LINE('Line',#76,#78) ;
#136=LINE('Line',#133,#135) ;
#150=LINE('Line',#147,#149) ;
#257=LINE('Line',#254,#256) ;
#283=LINE('Line',#280,#282) ;
#396=LINE('Line',#393,#395) ;
#401=LINE('Line',#398,#400) ;
#427=LINE('Line',#424,#426) ;
#432=LINE('Line',#429,#431) ;
#556=LINE('Line',#553,#555) ;
#570=LINE('Line',#567,#569) ;
#594=LINE('Line',#591,#593) ;
#599=LINE('Line',#596,#598) ;
#632=LINE('Line',#629,#631) ;
#637=LINE('Line',#634,#636) ;
#678=LINE('Line',#675,#677) ;
#692=LINE('Line',#689,#691) ;
#721=LINE('Line',#718,#720) ;
#751=LINE('Line',#748,#750) ;
#817=LINE('Line',#814,#816) ;
#845=LINE('Line',#842,#844) ;
#869=LINE('Line',#866,#868) ;
#923=LINE('Line',#920,#922) ;
#956=LINE('Line',#953,#955) ;
#983=LINE('Line',#980,#982) ;
#1002=LINE('Line',#999,#1001) ;
#1047=LINE('Line',#1044,#1046) ;
#1078=LINE('Line',#1075,#1077) ;
#1106=LINE('Line',#1103,#1105) ;
#1130=LINE('Line',#1127,#1129) ;
#1156=LINE('Line',#1153,#1155) ;
#1185=LINE('Line',#1182,#1184) ;
#1204=LINE('Line',#1201,#1203) ;
#1253=LINE('Line',#1250,#1252) ;
#1260=LINE('Line',#1257,#1259) ;
#1296=LINE('Line',#1293,#1295) ;
#1301=LINE('Line',#1298,#1300) ;
#127=CIRCLE('generated circle',#126,3.) ;
#143=CIRCLE('generated circle',#142,3.) ;
#299=CIRCLE('generated circle',#298,3.) ;
#304=CIRCLE('generated circle',#303,3.) ;
#387=CIRCLE('generated circle',#386,4.49999999979) ;
#418=CIRCLE('generated circle',#417,4.76249891049) ;
#563=CIRCLE('generated circle',#562,4.7624989104) ;
#582=CIRCLE('generated circle',#581,4.49999999979) ;
#623=CIRCLE('generated circle',#622,4.5) ;
#649=CIRCLE('generated circle',#648,4.76249891049) ;
#661=CIRCLE('generated circle',#660,4.7624989104) ;
#685=CIRCLE('generated circle',#684,4.7624989104) ;
#704=CIRCLE('generated circle',#703,4.5) ;
#730=CIRCLE('generated circle',#729,7.00000000998) ;
#737=CIRCLE('generated circle',#736,6.99999999706) ;
#744=CIRCLE('generated circle',#743,7.00000001466) ;
#758=CIRCLE('generated circle',#757,7.00000000998) ;
#765=CIRCLE('generated circle',#764,7.00000000063) ;
#784=CIRCLE('generated circle',#783,4.7624989104) ;
#801=CIRCLE('generated circle',#800,7.00000000063) ;
#810=CIRCLE('generated circle',#809,7.00000000998) ;
#824=CIRCLE('generated circle',#823,7.00000001466) ;
#831=CIRCLE('generated circle',#830,6.99999999706) ;
#838=CIRCLE('generated circle',#837,7.00000000998) ;
#876=CIRCLE('generated circle',#875,8.) ;
#897=CIRCLE('generated circle',#896,8.00000000023) ;
#990=CIRCLE('generated circle',#989,8.00000000002) ;
#1009=CIRCLE('generated circle',#1008,8.00000000023) ;
#1021=CIRCLE('generated circle',#1020,8.00000000023) ;
#1099=CIRCLE('generated circle',#1098,8.) ;
#1118=CIRCLE('generated circle',#1117,8.) ;
#1137=CIRCLE('generated circle',#1136,8.) ;
#1149=CIRCLE('generated circle',#1148,8.) ;
#1168=CIRCLE('generated circle',#1167,8.) ;
#1230=CIRCLE('generated circle',#1229,3.7624989104) ;
#1239=CIRCLE('generated circle',#1238,3.7624989104) ;
#1267=CIRCLE('generated circle',#1266,4.7624989104) ;
#1279=CIRCLE('generated circle',#1278,4.7624989104) ;
#717=PLANE('',#716) ;
#797=PLANE('',#796) ;
#919=PLANE('',#918) ;
#1043=PLANE('',#1042) ;
#1226=PLANE('',#1225) ;
#35=CYLINDRICAL_SURFACE('generated cylinder',#34,1.25) ;
#123=CYLINDRICAL_SURFACE('generated cylinder',#122,3.) ;
#232=CYLINDRICAL_SURFACE('generated cylinder',#231,4.1) ;
#619=CYLINDRICAL_SURFACE('generated cylinder',#618,4.5) ;
#674=CYLINDRICAL_SURFACE('generated cylinder',#673,4.7624989104) ;
#1181=CYLINDRICAL_SURFACE('generated cylinder',#1180,8.) ;
#383=CONICAL_SURFACE('Cone',#382,3.,0.785398163397) ;
#414=CONICAL_SURFACE('Cone',#413,4.1,0.785398163397) ;
#552=CONICAL_SURFACE('Cone',#551,4.1,0.785398163397) ;
#865=CONICAL_SURFACE('Cone',#864,0.,0.785398163397) ;
#1095=CONICAL_SURFACE('Cone',#1094,0.,0.785398163397) ;
#1292=CONICAL_SURFACE('Cone',#1291,0.,0.785398163397) ;
#1314=CONICAL_SURFACE('Cone',#1313,0.,0.785398163397) ;
#190=FACE_BOUND('',#187,.T.) ;
#294=FACE_BOUND('',#291,.T.) ;
#377=FACE_BOUND('',#374,.T.) ;
#546=FACE_BOUND('',#543,.T.) ;
#779=FACE_BOUND('',#776,.T.) ;
#859=FACE_BOUND('',#856,.T.) ;
#1248=FACE_BOUND('',#1245,.T.) ;
#44=EDGE_CURVE('',#41,#43,#39,.F.) ;
#75=EDGE_CURVE('',#41,#74,#45,.T.) ;
#82=EDGE_CURVE('',#74,#81,#79,.F.) ;
#111=EDGE_CURVE('',#43,#81,#83,.T.) ;
#132=EDGE_CURVE('',#129,#131,#127,.T.) ;
#139=EDGE_CURVE('',#138,#131,#136,.T.) ;
#146=EDGE_CURVE('',#145,#138,#143,.T.) ;
#151=EDGE_CURVE('',#145,#129,#150,.T.) ;
#186=EDGE_CURVE('',#81,#43,#158,.T.) ;
#220=EDGE_CURVE('',#74,#41,#192,.T.) ;
#253=EDGE_CURVE('',#250,#252,#233,.T.) ;
#260=EDGE_CURVE('',#250,#259,#257,.F.) ;
#279=EDGE_CURVE('',#259,#278,#261,.T.) ;
#284=EDGE_CURVE('',#252,#278,#283,.F.) ;
#300=EDGE_CURVE('',#131,#129,#299,.T.) ;
#305=EDGE_CURVE('',#138,#145,#304,.T.) ;
#344=EDGE_CURVE('',#341,#343,#312,.T.) ;
#373=EDGE_CURVE('',#343,#341,#345,.T.) ;
#392=EDGE_CURVE('',#389,#391,#387,.F.) ;
#397=EDGE_CURVE('',#389,#145,#396,.F.) ;
#402=EDGE_CURVE('',#391,#138,#401,.F.) ;
#423=EDGE_CURVE('',#420,#422,#418,.T.) ;
#428=EDGE_CURVE('',#420,#250,#427,.F.) ;
#433=EDGE_CURVE('',#422,#252,#432,.F.) ;
#457=EDGE_CURVE('',#252,#250,#441,.T.) ;
#474=EDGE_CURVE('',#278,#259,#458,.T.) ;
#513=EDGE_CURVE('',#510,#512,#481,.T.) ;
#542=EDGE_CURVE('',#512,#510,#514,.T.) ;
#559=EDGE_CURVE('',#259,#558,#556,.T.) ;
#566=EDGE_CURVE('',#558,#565,#563,.F.) ;
#571=EDGE_CURVE('',#278,#565,#570,.T.) ;
#583=EDGE_CURVE('',#391,#389,#582,.F.) ;
#595=EDGE_CURVE('',#341,#512,#594,.F.) ;
#600=EDGE_CURVE('',#343,#510,#599,.F.) ;
#628=EDGE_CURVE('',#625,#627,#623,.T.) ;
#633=EDGE_CURVE('',#625,#389,#632,.T.) ;
#638=EDGE_CURVE('',#627,#391,#637,.T.) ;
#650=EDGE_CURVE('',#422,#420,#649,.T.) ;
#662=EDGE_CURVE('',#565,#558,#661,.F.) ;
#681=EDGE_CURVE('',#558,#680,#678,.F.) ;
#688=EDGE_CURVE('',#680,#687,#685,.T.) ;
#693=EDGE_CURVE('',#565,#687,#692,.F.) ;
#705=EDGE_CURVE('',#627,#625,#704,.T.) ;
#726=EDGE_CURVE('',#723,#725,#721,.F.) ;
#733=EDGE_CURVE('',#732,#725,#730,.T.) ;
#740=EDGE_CURVE('',#739,#732,#737,.T.) ;
#747=EDGE_CURVE('',#746,#739,#744,.T.) ;
#754=EDGE_CURVE('',#746,#753,#751,.T.) ;
#761=EDGE_CURVE('',#760,#753,#758,.T.) ;
#766=EDGE_CURVE('',#723,#760,#765,.T.) ;
#785=EDGE_CURVE('',#687,#680,#784,.T.) ;
#806=EDGE_CURVE('',#803,#805,#801,.T.) ;
#813=EDGE_CURVE('',#805,#812,#810,.T.) ;
#820=EDGE_CURVE('',#819,#812,#817,.T.) ;
#827=EDGE_CURVE('',#819,#826,#824,.T.) ;
#834=EDGE_CURVE('',#826,#833,#831,.T.) ;
#841=EDGE_CURVE('',#833,#840,#838,.T.) ;
#846=EDGE_CURVE('',#840,#803,#845,.T.) ;
#872=EDGE_CURVE('',#871,#760,#869,.F.) ;
#879=EDGE_CURVE('',#878,#871,#876,.T.) ;
#886=EDGE_CURVE('',#723,#878,#880,.T.) ;
#900=EDGE_CURVE('',#871,#899,#897,.T.) ;
#907=EDGE_CURVE('',#753,#899,#901,.T.) ;
#928=EDGE_CURVE('',#925,#927,#923,.T.) ;
#939=EDGE_CURVE('',#819,#927,#929,.T.) ;
#952=EDGE_CURVE('',#812,#951,#940,.T.) ;
#957=EDGE_CURVE('',#899,#951,#956,.T.) ;
#968=EDGE_CURVE('',#746,#925,#958,.T.) ;
#986=EDGE_CURVE('',#739,#985,#983,.T.) ;
#991=EDGE_CURVE('',#925,#985,#990,.T.) ;
#1005=EDGE_CURVE('',#1004,#732,#1002,.F.) ;
#1010=EDGE_CURVE('',#985,#1004,#1009,.T.) ;
#1024=EDGE_CURVE('',#1004,#1023,#1021,.T.) ;
#1031=EDGE_CURVE('',#725,#1023,#1025,.T.) ;
#1050=EDGE_CURVE('',#878,#1049,#1047,.T.) ;
#1061=EDGE_CURVE('',#803,#1049,#1051,.T.) ;
#1074=EDGE_CURVE('',#840,#1073,#1062,.T.) ;
#1079=EDGE_CURVE('',#1023,#1073,#1078,.T.) ;
#1102=EDGE_CURVE('',#1049,#1101,#1099,.F.) ;
#1107=EDGE_CURVE('',#805,#1101,#1106,.T.) ;
#1119=EDGE_CURVE('',#1101,#951,#1118,.F.) ;
#1133=EDGE_CURVE('',#826,#1132,#1130,.T.) ;
#1138=EDGE_CURVE('',#927,#1132,#1137,.F.) ;
#1152=EDGE_CURVE('',#1132,#1151,#1149,.F.) ;
#1157=EDGE_CURVE('',#833,#1151,#1156,.T.) ;
#1169=EDGE_CURVE('',#1151,#1073,#1168,.F.) ;
#1186=EDGE_CURVE('',#1101,#871,#1185,.F.) ;
#1205=EDGE_CURVE('',#1151,#1004,#1204,.F.) ;
#1235=EDGE_CURVE('',#1232,#1234,#1230,.T.) ;
#1240=EDGE_CURVE('',#1234,#1232,#1239,.T.) ;
#1256=EDGE_CURVE('',#1255,#420,#1253,.F.) ;
#1263=EDGE_CURVE('',#1262,#422,#1260,.F.) ;
#1268=EDGE_CURVE('',#1255,#1262,#1267,.T.) ;
#1280=EDGE_CURVE('',#1262,#1255,#1279,.T.) ;
#1297=EDGE_CURVE('',#1232,#1255,#1296,.T.) ;
#1302=EDGE_CURVE('',#1234,#1262,#1301,.T.) ;
#30=CLOSED_SHELL('Closed Shell',(#118,#191,#227,#295,#378,#409,#440,#547,#578,#590,#607,#614,#645,#657,#669,#700,#712,#780,#792,#860,#893,#914,#979,#998,#1017,#1038,#1090,#1114,#1126,#1145,#1164,#1176,#1193,#1200,#1214,#1221,#1249,#1275,#1287,#1309,#1321)) ;
#113=ORIENTED_EDGE('',*,*,#44,.F.) ;
#114=ORIENTED_EDGE('',*,*,#75,.T.) ;
#115=ORIENTED_EDGE('',*,*,#82,.T.) ;
#116=ORIENTED_EDGE('',*,*,#111,.F.) ;
#153=ORIENTED_EDGE('',*,*,#132,.T.) ;
#154=ORIENTED_EDGE('',*,*,#139,.F.) ;
#155=ORIENTED_EDGE('',*,*,#146,.F.) ;
#156=ORIENTED_EDGE('',*,*,#151,.T.) ;
#188=ORIENTED_EDGE('',*,*,#111,.T.) ;
#189=ORIENTED_EDGE('',*,*,#186,.T.) ;
#222=ORIENTED_EDGE('',*,*,#82,.F.) ;
#223=ORIENTED_EDGE('',*,*,#220,.T.) ;
#224=ORIENTED_EDGE('',*,*,#44,.T.) ;
#225=ORIENTED_EDGE('',*,*,#186,.F.) ;
#286=ORIENTED_EDGE('',*,*,#253,.F.) ;
#287=ORIENTED_EDGE('',*,*,#260,.T.) ;
#288=ORIENTED_EDGE('',*,*,#279,.T.) ;
#289=ORIENTED_EDGE('',*,*,#284,.F.) ;
#292=ORIENTED_EDGE('',*,*,#220,.F.) ;
#293=ORIENTED_EDGE('',*,*,#75,.F.) ;
#307=ORIENTED_EDGE('',*,*,#300,.T.) ;
#308=ORIENTED_EDGE('',*,*,#151,.F.) ;
#309=ORIENTED_EDGE('',*,*,#305,.F.) ;
#310=ORIENTED_EDGE('',*,*,#139,.T.) ;
#375=ORIENTED_EDGE('',*,*,#344,.F.) ;
#376=ORIENTED_EDGE('',*,*,#373,.F.) ;
#404=ORIENTED_EDGE('',*,*,#392,.F.) ;
#405=ORIENTED_EDGE('',*,*,#397,.T.) ;
#406=ORIENTED_EDGE('',*,*,#146,.T.) ;
#407=ORIENTED_EDGE('',*,*,#402,.F.) ;
#435=ORIENTED_EDGE('',*,*,#423,.F.) ;
#436=ORIENTED_EDGE('',*,*,#428,.T.) ;
#437=ORIENTED_EDGE('',*,*,#253,.T.) ;
#438=ORIENTED_EDGE('',*,*,#433,.F.) ;
#476=ORIENTED_EDGE('',*,*,#457,.F.) ;
#477=ORIENTED_EDGE('',*,*,#284,.T.) ;
#478=ORIENTED_EDGE('',*,*,#474,.T.) ;
#479=ORIENTED_EDGE('',*,*,#260,.F.) ;
#544=ORIENTED_EDGE('',*,*,#513,.T.) ;
#545=ORIENTED_EDGE('',*,*,#542,.T.) ;
#573=ORIENTED_EDGE('',*,*,#279,.F.) ;
#574=ORIENTED_EDGE('',*,*,#559,.T.) ;
#575=ORIENTED_EDGE('',*,*,#566,.T.) ;
#576=ORIENTED_EDGE('',*,*,#571,.F.) ;
#585=ORIENTED_EDGE('',*,*,#583,.F.) ;
#586=ORIENTED_EDGE('',*,*,#402,.T.) ;
#587=ORIENTED_EDGE('',*,*,#305,.T.) ;
#588=ORIENTED_EDGE('',*,*,#397,.F.) ;
#602=ORIENTED_EDGE('',*,*,#595,.T.) ;
#603=ORIENTED_EDGE('',*,*,#513,.F.) ;
#604=ORIENTED_EDGE('',*,*,#600,.F.) ;
#605=ORIENTED_EDGE('',*,*,#373,.T.) ;
#609=ORIENTED_EDGE('',*,*,#600,.T.) ;
#610=ORIENTED_EDGE('',*,*,#542,.F.) ;
#611=ORIENTED_EDGE('',*,*,#595,.F.) ;
#612=ORIENTED_EDGE('',*,*,#344,.T.) ;
#640=ORIENTED_EDGE('',*,*,#628,.F.) ;
#641=ORIENTED_EDGE('',*,*,#633,.T.) ;
#642=ORIENTED_EDGE('',*,*,#392,.T.) ;
#643=ORIENTED_EDGE('',*,*,#638,.F.) ;
#652=ORIENTED_EDGE('',*,*,#650,.F.) ;
#653=ORIENTED_EDGE('',*,*,#433,.T.) ;
#654=ORIENTED_EDGE('',*,*,#457,.T.) ;
#655=ORIENTED_EDGE('',*,*,#428,.F.) ;
#664=ORIENTED_EDGE('',*,*,#474,.F.) ;
#665=ORIENTED_EDGE('',*,*,#571,.T.) ;
#666=ORIENTED_EDGE('',*,*,#662,.T.) ;
#667=ORIENTED_EDGE('',*,*,#559,.F.) ;
#695=ORIENTED_EDGE('',*,*,#566,.F.) ;
#696=ORIENTED_EDGE('',*,*,#681,.T.) ;
#697=ORIENTED_EDGE('',*,*,#688,.T.) ;
#698=ORIENTED_EDGE('',*,*,#693,.F.) ;
#707=ORIENTED_EDGE('',*,*,#705,.F.) ;
#708=ORIENTED_EDGE('',*,*,#638,.T.) ;
#709=ORIENTED_EDGE('',*,*,#583,.T.) ;
#710=ORIENTED_EDGE('',*,*,#633,.F.) ;
#768=ORIENTED_EDGE('',*,*,#726,.T.) ;
#769=ORIENTED_EDGE('',*,*,#733,.F.) ;
#770=ORIENTED_EDGE('',*,*,#740,.F.) ;
#771=ORIENTED_EDGE('',*,*,#747,.F.) ;
#772=ORIENTED_EDGE('',*,*,#754,.T.) ;
#773=ORIENTED_EDGE('',*,*,#761,.F.) ;
#774=ORIENTED_EDGE('',*,*,#766,.F.) ;
#777=ORIENTED_EDGE('',*,*,#705,.T.) ;
#778=ORIENTED_EDGE('',*,*,#628,.T.) ;
#787=ORIENTED_EDGE('',*,*,#662,.F.) ;
#788=ORIENTED_EDGE('',*,*,#693,.T.) ;
#789=ORIENTED_EDGE('',*,*,#785,.T.) ;
#790=ORIENTED_EDGE('',*,*,#681,.F.) ;
#848=ORIENTED_EDGE('',*,*,#806,.T.) ;
#849=ORIENTED_EDGE('',*,*,#813,.T.) ;
#850=ORIENTED_EDGE('',*,*,#820,.F.) ;
#851=ORIENTED_EDGE('',*,*,#827,.T.) ;
#852=ORIENTED_EDGE('',*,*,#834,.T.) ;
#853=ORIENTED_EDGE('',*,*,#841,.T.) ;
#854=ORIENTED_EDGE('',*,*,#846,.T.) ;
#857=ORIENTED_EDGE('',*,*,#688,.F.) ;
#858=ORIENTED_EDGE('',*,*,#785,.F.) ;
#888=ORIENTED_EDGE('',*,*,#766,.T.) ;
#889=ORIENTED_EDGE('',*,*,#872,.F.) ;
#890=ORIENTED_EDGE('',*,*,#879,.F.) ;
#891=ORIENTED_EDGE('',*,*,#886,.F.) ;
#909=ORIENTED_EDGE('',*,*,#900,.F.) ;
#910=ORIENTED_EDGE('',*,*,#872,.T.) ;
#911=ORIENTED_EDGE('',*,*,#761,.T.) ;
#912=ORIENTED_EDGE('',*,*,#907,.T.) ;
#970=ORIENTED_EDGE('',*,*,#928,.T.) ;
#971=ORIENTED_EDGE('',*,*,#939,.F.) ;
#972=ORIENTED_EDGE('',*,*,#820,.T.) ;
#973=ORIENTED_EDGE('',*,*,#952,.T.) ;
#974=ORIENTED_EDGE('',*,*,#957,.F.) ;
#975=ORIENTED_EDGE('',*,*,#907,.F.) ;
#976=ORIENTED_EDGE('',*,*,#754,.F.) ;
#977=ORIENTED_EDGE('',*,*,#968,.T.) ;
#993=ORIENTED_EDGE('',*,*,#986,.T.) ;
#994=ORIENTED_EDGE('',*,*,#991,.F.) ;
#995=ORIENTED_EDGE('',*,*,#968,.F.) ;
#996=ORIENTED_EDGE('',*,*,#747,.T.) ;
#1012=ORIENTED_EDGE('',*,*,#986,.F.) ;
#1013=ORIENTED_EDGE('',*,*,#740,.T.) ;
#1014=ORIENTED_EDGE('',*,*,#1005,.F.) ;
#1015=ORIENTED_EDGE('',*,*,#1010,.F.) ;
#1033=ORIENTED_EDGE('',*,*,#1024,.F.) ;
#1034=ORIENTED_EDGE('',*,*,#1005,.T.) ;
#1035=ORIENTED_EDGE('',*,*,#733,.T.) ;
#1036=ORIENTED_EDGE('',*,*,#1031,.T.) ;
#1081=ORIENTED_EDGE('',*,*,#1031,.F.) ;
#1082=ORIENTED_EDGE('',*,*,#726,.F.) ;
#1083=ORIENTED_EDGE('',*,*,#886,.T.) ;
#1084=ORIENTED_EDGE('',*,*,#1050,.T.) ;
#1085=ORIENTED_EDGE('',*,*,#1061,.F.) ;
#1086=ORIENTED_EDGE('',*,*,#846,.F.) ;
#1087=ORIENTED_EDGE('',*,*,#1074,.T.) ;
#1088=ORIENTED_EDGE('',*,*,#1079,.F.) ;
#1109=ORIENTED_EDGE('',*,*,#1061,.T.) ;
#1110=ORIENTED_EDGE('',*,*,#1102,.T.) ;
#1111=ORIENTED_EDGE('',*,*,#1107,.F.) ;
#1112=ORIENTED_EDGE('',*,*,#806,.F.) ;
#1121=ORIENTED_EDGE('',*,*,#952,.F.) ;
#1122=ORIENTED_EDGE('',*,*,#813,.F.) ;
#1123=ORIENTED_EDGE('',*,*,#1107,.T.) ;
#1124=ORIENTED_EDGE('',*,*,#1119,.T.) ;
#1140=ORIENTED_EDGE('',*,*,#1133,.F.) ;
#1141=ORIENTED_EDGE('',*,*,#827,.F.) ;
#1142=ORIENTED_EDGE('',*,*,#939,.T.) ;
#1143=ORIENTED_EDGE('',*,*,#1138,.T.) ;
#1159=ORIENTED_EDGE('',*,*,#1133,.T.) ;
#1160=ORIENTED_EDGE('',*,*,#1152,.T.) ;
#1161=ORIENTED_EDGE('',*,*,#1157,.F.) ;
#1162=ORIENTED_EDGE('',*,*,#834,.F.) ;
#1171=ORIENTED_EDGE('',*,*,#1074,.F.) ;
#1172=ORIENTED_EDGE('',*,*,#841,.F.) ;
#1173=ORIENTED_EDGE('',*,*,#1157,.T.) ;
#1174=ORIENTED_EDGE('',*,*,#1169,.T.) ;
#1188=ORIENTED_EDGE('',*,*,#879,.T.) ;
#1189=ORIENTED_EDGE('',*,*,#1186,.F.) ;
#1190=ORIENTED_EDGE('',*,*,#1102,.F.) ;
#1191=ORIENTED_EDGE('',*,*,#1050,.F.) ;
#1195=ORIENTED_EDGE('',*,*,#1119,.F.) ;
#1196=ORIENTED_EDGE('',*,*,#1186,.T.) ;
#1197=ORIENTED_EDGE('',*,*,#900,.T.) ;
#1198=ORIENTED_EDGE('',*,*,#957,.T.) ;
#1207=ORIENTED_EDGE('',*,*,#991,.T.) ;
#1208=ORIENTED_EDGE('',*,*,#1010,.T.) ;
#1209=ORIENTED_EDGE('',*,*,#1205,.F.) ;
#1210=ORIENTED_EDGE('',*,*,#1152,.F.) ;
#1211=ORIENTED_EDGE('',*,*,#1138,.F.) ;
#1212=ORIENTED_EDGE('',*,*,#928,.F.) ;
#1216=ORIENTED_EDGE('',*,*,#1169,.F.) ;
#1217=ORIENTED_EDGE('',*,*,#1205,.T.) ;
#1218=ORIENTED_EDGE('',*,*,#1024,.T.) ;
#1219=ORIENTED_EDGE('',*,*,#1079,.T.) ;
#1242=ORIENTED_EDGE('',*,*,#1235,.T.) ;
#1243=ORIENTED_EDGE('',*,*,#1240,.T.) ;
#1246=ORIENTED_EDGE('',*,*,#132,.F.) ;
#1247=ORIENTED_EDGE('',*,*,#300,.F.) ;
#1270=ORIENTED_EDGE('',*,*,#1256,.T.) ;
#1271=ORIENTED_EDGE('',*,*,#423,.T.) ;
#1272=ORIENTED_EDGE('',*,*,#1263,.F.) ;
#1273=ORIENTED_EDGE('',*,*,#1268,.F.) ;
#1282=ORIENTED_EDGE('',*,*,#1263,.T.) ;
#1283=ORIENTED_EDGE('',*,*,#650,.T.) ;
#1284=ORIENTED_EDGE('',*,*,#1256,.F.) ;
#1285=ORIENTED_EDGE('',*,*,#1280,.F.) ;
#1304=ORIENTED_EDGE('',*,*,#1297,.T.) ;
#1305=ORIENTED_EDGE('',*,*,#1268,.T.) ;
#1306=ORIENTED_EDGE('',*,*,#1302,.F.) ;
#1307=ORIENTED_EDGE('',*,*,#1235,.F.) ;
#1316=ORIENTED_EDGE('',*,*,#1302,.T.) ;
#1317=ORIENTED_EDGE('',*,*,#1280,.T.) ;
#1318=ORIENTED_EDGE('',*,*,#1297,.F.) ;
#1319=ORIENTED_EDGE('',*,*,#1240,.F.) ;
#112=EDGE_LOOP('',(#113,#114,#115,#116)) ;
#152=EDGE_LOOP('',(#153,#154,#155,#156)) ;
#187=EDGE_LOOP('',(#188,#189)) ;
#221=EDGE_LOOP('',(#222,#223,#224,#225)) ;
#285=EDGE_LOOP('',(#286,#287,#288,#289)) ;
#291=EDGE_LOOP('',(#292,#293)) ;
#306=EDGE_LOOP('',(#307,#308,#309,#310)) ;
#374=EDGE_LOOP('',(#375,#376)) ;
#403=EDGE_LOOP('',(#404,#405,#406,#407)) ;
#434=EDGE_LOOP('',(#435,#436,#437,#438)) ;
#475=EDGE_LOOP('',(#476,#477,#478,#479)) ;
#543=EDGE_LOOP('',(#544,#545)) ;
#572=EDGE_LOOP('',(#573,#574,#575,#576)) ;
#584=EDGE_LOOP('',(#585,#586,#587,#588)) ;
#601=EDGE_LOOP('',(#602,#603,#604,#605)) ;
#608=EDGE_LOOP('',(#609,#610,#611,#612)) ;
#639=EDGE_LOOP('',(#640,#641,#642,#643)) ;
#651=EDGE_LOOP('',(#652,#653,#654,#655)) ;
#663=EDGE_LOOP('',(#664,#665,#666,#667)) ;
#694=EDGE_LOOP('',(#695,#696,#697,#698)) ;
#706=EDGE_LOOP('',(#707,#708,#709,#710)) ;
#767=EDGE_LOOP('',(#768,#769,#770,#771,#772,#773,#774)) ;
#776=EDGE_LOOP('',(#777,#778)) ;
#786=EDGE_LOOP('',(#787,#788,#789,#790)) ;
#847=EDGE_LOOP('',(#848,#849,#850,#851,#852,#853,#854)) ;
#856=EDGE_LOOP('',(#857,#858)) ;
#887=EDGE_LOOP('',(#888,#889,#890,#891)) ;
#908=EDGE_LOOP('',(#909,#910,#911,#912)) ;
#969=EDGE_LOOP('',(#970,#971,#972,#973,#974,#975,#976,#977)) ;
#992=EDGE_LOOP('',(#993,#994,#995,#996)) ;
#1011=EDGE_LOOP('',(#1012,#1013,#1014,#1015)) ;
#1032=EDGE_LOOP('',(#1033,#1034,#1035,#1036)) ;
#1080=EDGE_LOOP('',(#1081,#1082,#1083,#1084,#1085,#1086,#1087,#1088)) ;
#1108=EDGE_LOOP('',(#1109,#1110,#1111,#1112)) ;
#1120=EDGE_LOOP('',(#1121,#1122,#1123,#1124)) ;
#1139=EDGE_LOOP('',(#1140,#1141,#1142,#1143)) ;
#1158=EDGE_LOOP('',(#1159,#1160,#1161,#1162)) ;
#1170=EDGE_LOOP('',(#1171,#1172,#1173,#1174)) ;
#1187=EDGE_LOOP('',(#1188,#1189,#1190,#1191)) ;
#1194=EDGE_LOOP('',(#1195,#1196,#1197,#1198)) ;
#1206=EDGE_LOOP('',(#1207,#1208,#1209,#1210,#1211,#1212)) ;
#1215=EDGE_LOOP('',(#1216,#1217,#1218,#1219)) ;
#1241=EDGE_LOOP('',(#1242,#1243)) ;
#1245=EDGE_LOOP('',(#1246,#1247)) ;
#1269=EDGE_LOOP('',(#1270,#1271,#1272,#1273)) ;
#1281=EDGE_LOOP('',(#1282,#1283,#1284,#1285)) ;
#1303=EDGE_LOOP('',(#1304,#1305,#1306,#1307)) ;
#1315=EDGE_LOOP('',(#1316,#1317,#1318,#1319)) ;
#21=MANIFOLD_SOLID_BREP('Body.2',#30) ;
#41=VERTEX_POINT('',#40) ;
#43=VERTEX_POINT('',#42) ;
#74=VERTEX_POINT('',#73) ;
#81=VERTEX_POINT('',#80) ;
#129=VERTEX_POINT('',#128) ;
#131=VERTEX_POINT('',#130) ;
#138=VERTEX_POINT('',#137) ;
#145=VERTEX_POINT('',#144) ;
#250=VERTEX_POINT('',#249) ;
#252=VERTEX_POINT('',#251) ;
#259=VERTEX_POINT('',#258) ;
#278=VERTEX_POINT('',#277) ;
#341=VERTEX_POINT('',#340) ;
#343=VERTEX_POINT('',#342) ;
#389=VERTEX_POINT('',#388) ;
#391=VERTEX_POINT('',#390) ;
#420=VERTEX_POINT('',#419) ;
#422=VERTEX_POINT('',#421) ;
#510=VERTEX_POINT('',#509) ;
#512=VERTEX_POINT('',#511) ;
#558=VERTEX_POINT('',#557) ;
#565=VERTEX_POINT('',#564) ;
#625=VERTEX_POINT('',#624) ;
#627=VERTEX_POINT('',#626) ;
#680=VERTEX_POINT('',#679) ;
#687=VERTEX_POINT('',#686) ;
#723=VERTEX_POINT('',#722) ;
#725=VERTEX_POINT('',#724) ;
#732=VERTEX_POINT('',#731) ;
#739=VERTEX_POINT('',#738) ;
#746=VERTEX_POINT('',#745) ;
#753=VERTEX_POINT('',#752) ;
#760=VERTEX_POINT('',#759) ;
#803=VERTEX_POINT('',#802) ;
#805=VERTEX_POINT('',#804) ;
#812=VERTEX_POINT('',#811) ;
#819=VERTEX_POINT('',#818) ;
#826=VERTEX_POINT('',#825) ;
#833=VERTEX_POINT('',#832) ;
#840=VERTEX_POINT('',#839) ;
#871=VERTEX_POINT('',#870) ;
#878=VERTEX_POINT('',#877) ;
#899=VERTEX_POINT('',#898) ;
#925=VERTEX_POINT('',#924) ;
#927=VERTEX_POINT('',#926) ;
#951=VERTEX_POINT('',#950) ;
#985=VERTEX_POINT('',#984) ;
#1004=VERTEX_POINT('',#1003) ;
#1023=VERTEX_POINT('',#1022) ;
#1049=VERTEX_POINT('',#1048) ;
#1073=VERTEX_POINT('',#1072) ;
#1101=VERTEX_POINT('',#1100) ;
#1132=VERTEX_POINT('',#1131) ;
#1151=VERTEX_POINT('',#1150) ;
#1232=VERTEX_POINT('',#1231) ;
#1234=VERTEX_POINT('',#1233) ;
#1255=VERTEX_POINT('',#1254) ;
#1262=VERTEX_POINT('',#1261) ;
#118=ADVANCED_FACE('Body.2',(#117),#35,.F.) ;
#191=ADVANCED_FACE('Body.2',(#157,#190),#123,.F.) ;
#227=ADVANCED_FACE('Body.2',(#226),#35,.F.) ;
#295=ADVANCED_FACE('Body.2',(#290,#294),#232,.T.) ;
#378=ADVANCED_FACE('Body.2',(#311,#377),#123,.F.) ;
#409=ADVANCED_FACE('Body.2',(#408),#383,.F.) ;
#440=ADVANCED_FACE('Body.2',(#439),#414,.T.) ;
#547=ADVANCED_FACE('Body.2',(#480,#546),#232,.T.) ;
#578=ADVANCED_FACE('Body.2',(#577),#552,.T.) ;
#590=ADVANCED_FACE('Body.2',(#589),#383,.F.) ;
#607=ADVANCED_FACE('Body.2',(#606),#35,.F.) ;
#614=ADVANCED_FACE('Body.2',(#613),#35,.F.) ;
#645=ADVANCED_FACE('Body.2',(#644),#619,.F.) ;
#657=ADVANCED_FACE('Body.2',(#656),#414,.T.) ;
#669=ADVANCED_FACE('Body.2',(#668),#552,.T.) ;
#700=ADVANCED_FACE('Body.2',(#699),#674,.T.) ;
#712=ADVANCED_FACE('Body.2',(#711),#619,.F.) ;
#780=ADVANCED_FACE('Body.2',(#775,#779),#717,.F.) ;
#792=ADVANCED_FACE('Body.2',(#791),#674,.T.) ;
#860=ADVANCED_FACE('Body.2',(#855,#859),#797,.T.) ;
#893=ADVANCED_FACE('Body.2',(#892),#865,.T.) ;
#914=ADVANCED_FACE('Body.2',(#913),#865,.T.) ;
#979=ADVANCED_FACE('Body.2',(#978),#919,.F.) ;
#998=ADVANCED_FACE('Body.2',(#997),#865,.T.) ;
#1017=ADVANCED_FACE('Body.2',(#1016),#865,.T.) ;
#1038=ADVANCED_FACE('Body.2',(#1037),#865,.T.) ;
#1090=ADVANCED_FACE('Body.2',(#1089),#1043,.T.) ;
#1114=ADVANCED_FACE('Body.2',(#1113),#1095,.T.) ;
#1126=ADVANCED_FACE('Body.2',(#1125),#1095,.T.) ;
#1145=ADVANCED_FACE('Body.2',(#1144),#1095,.T.) ;
#1164=ADVANCED_FACE('Body.2',(#1163),#1095,.T.) ;
#1176=ADVANCED_FACE('Body.2',(#1175),#1095,.T.) ;
#1193=ADVANCED_FACE('Body.2',(#1192),#1181,.T.) ;
#1200=ADVANCED_FACE('Body.2',(#1199),#1181,.T.) ;
#1214=ADVANCED_FACE('Body.2',(#1213),#1181,.T.) ;
#1221=ADVANCED_FACE('Body.2',(#1220),#1181,.T.) ;
#1249=ADVANCED_FACE('Body.2',(#1244,#1248),#1226,.T.) ;
#1275=ADVANCED_FACE('Body.2',(#1274),#674,.T.) ;
#1287=ADVANCED_FACE('Body.2',(#1286),#674,.T.) ;
#1309=ADVANCED_FACE('Body.2',(#1308),#1292,.T.) ;
#1321=ADVANCED_FACE('Body.2',(#1320),#1314,.T.) ;
#4=APPLICATION_PROTOCOL_DEFINITION('international standard','ap242_managed_model_based_3d_engineering',2014,#1) ;
#45=B_SPLINE_CURVE_WITH_KNOTS('',5,(#46,#47,#48,#49,#50,#51,#52,#53,#54,#55,#56,#57,#58,#59,#60,#61,#62,#63,#64,#65,#66,#67,#68,#69,#70,#71,#72),.UNSPECIFIED.,.F.,.U.,(6,3,3,3,3,3,3,3,6),(0.,0.0329889303649,0.131957026304,0.263914052608,0.527828105216,1.55121237081,2.69625447976,4.40989255471,5.5866515369),.UNSPECIFIED.) ;
#83=B_SPLINE_CURVE_WITH_KNOTS('',5,(#84,#85,#86,#87,#88,#89,#90,#91,#92,#93,#94,#95,#96,#97,#98,#99,#100,#101,#102,#103,#104,#105,#106,#107,#108,#109,#110),.UNSPECIFIED.,.F.,.U.,(6,3,3,3,3,3,3,3,6),(0.,0.0330066670165,0.132028321491,0.264056642981,0.528113285963,1.55804234382,2.71344246282,3.86008241385,5.61812925745),.UNSPECIFIED.) ;
#158=B_SPLINE_CURVE_WITH_KNOTS('',5,(#159,#160,#161,#162,#163,#164,#165,#166,#167,#168,#169,#170,#171,#172,#173,#174,#175,#176,#177,#178,#179,#180,#181,#182,#183,#184,#185),.UNSPECIFIED.,.F.,.U.,(6,3,3,3,3,3,3,3,6),(0.,0.0330066670165,0.13202832149,0.264056642981,0.528113285962,1.55804234376,2.71344246276,3.86008241378,5.61812925734),.UNSPECIFIED.) ;
#192=B_SPLINE_CURVE_WITH_KNOTS('',5,(#193,#194,#195,#196,#197,#198,#199,#200,#201,#202,#203,#204,#205,#206,#207,#208,#209,#210,#211,#212,#213,#214,#215,#216,#217,#218,#219),.UNSPECIFIED.,.F.,.U.,(6,3,3,3,3,3,3,3,6),(0.,0.0329889303649,0.131957026303,0.263914052606,0.527828105211,1.55121237079,2.69625447975,4.40989255468,5.58665153686),.UNSPECIFIED.) ;
#233=B_SPLINE_CURVE_WITH_KNOTS('',5,(#234,#235,#236,#237,#238,#239,#240,#241,#242,#243,#244,#245,#246,#247,#248),.UNSPECIFIED.,.F.,.U.,(6,3,3,3,6),(-6.44026493986,-3.22013246993,-4.4408920985E-16,3.22013246993,6.44026493986),.UNSPECIFIED.) ;
#261=B_SPLINE_CURVE_WITH_KNOTS('',5,(#262,#263,#264,#265,#266,#267,#268,#269,#270,#271,#272,#273,#274,#275,#276),.UNSPECIFIED.,.F.,.U.,(6,3,3,3,6),(-6.44026493986,-3.22013246993,-4.4408920985E-16,3.22013246993,6.44026493986),.UNSPECIFIED.) ;
#312=B_SPLINE_CURVE_WITH_KNOTS('',5,(#313,#314,#315,#316,#317,#318,#319,#320,#321,#322,#323,#324,#325,#326,#327,#328,#329,#330,#331,#332,#333,#334,#335,#336,#337,#338,#339),.UNSPECIFIED.,.F.,.U.,(6,3,3,3,3,3,3,3,6),(0.,0.0330066670165,0.13202832149,0.264056642981,0.528113285961,1.55804234382,2.71344246282,3.86008241384,5.61812925737),.UNSPECIFIED.) ;
#345=B_SPLINE_CURVE_WITH_KNOTS('',5,(#346,#347,#348,#349,#350,#351,#352,#353,#354,#355,#356,#357,#358,#359,#360,#361,#362,#363,#364,#365,#366,#367,#368,#369,#370,#371,#372),.UNSPECIFIED.,.F.,.U.,(6,3,3,3,3,3,3,3,6),(0.,0.0330066670165,0.13202832149,0.264056642981,0.528113285962,1.55804234377,2.71344246277,3.86008241379,5.61812925733),.UNSPECIFIED.) ;
#441=B_SPLINE_CURVE_WITH_KNOTS('',5,(#442,#443,#444,#445,#446,#447,#448,#449,#450,#451,#452,#453,#454,#455,#456),.UNSPECIFIED.,.F.,.U.,(6,3,3,3,6),(-6.44026493986,-3.22013246993,-4.4408920985E-16,3.22013246993,6.44026493986),.UNSPECIFIED.) ;
#458=B_SPLINE_CURVE_WITH_KNOTS('',5,(#459,#460,#461,#462,#463,#464,#465,#466,#467,#468,#469,#470,#471,#472,#473),.UNSPECIFIED.,.F.,.U.,(6,3,3,3,6),(-6.44026493986,-3.22013246993,-4.4408920985E-16,3.22013246993,6.44026493986),.UNSPECIFIED.) ;
#481=B_SPLINE_CURVE_WITH_KNOTS('',5,(#482,#483,#484,#485,#486,#487,#488,#489,#490,#491,#492,#493,#494,#495,#496,#497,#498,#499,#500,#501,#502,#503,#504,#505,#506,#507,#508),.UNSPECIFIED.,.F.,.U.,(6,3,3,3,3,3,3,3,6),(0.,0.0329889303649,0.131957026304,0.263914052608,0.527828105215,1.55121237077,2.6962544797,4.40989255455,5.58665153674),.UNSPECIFIED.) ;
#514=B_SPLINE_CURVE_WITH_KNOTS('',5,(#515,#516,#517,#518,#519,#520,#521,#522,#523,#524,#525,#526,#527,#528,#529,#530,#531,#532,#533,#534,#535,#536,#537,#538,#539,#540,#541),.UNSPECIFIED.,.F.,.U.,(6,3,3,3,3,3,3,3,6),(0.,0.0329889303649,0.131957026303,0.263914052607,0.527828105213,1.55121237077,2.69625447972,4.4098925546,5.58665153683),.UNSPECIFIED.) ;
#880=B_SPLINE_CURVE_WITH_KNOTS('',4,(#881,#882,#883,#884,#885),.UNSPECIFIED.,.F.,.U.,(5,5),(0.,24.3680509216),.UNSPECIFIED.) ;
#901=B_SPLINE_CURVE_WITH_KNOTS('',4,(#902,#903,#904,#905,#906),.UNSPECIFIED.,.F.,.U.,(5,5),(0.,24.3680509199),.UNSPECIFIED.) ;
#929=B_SPLINE_CURVE_WITH_KNOTS('',5,(#930,#931,#932,#933,#934,#935,#936,#937,#938),.UNSPECIFIED.,.F.,.U.,(6,3,6),(0.,0.0185712114732,24.3680508973),.UNSPECIFIED.) ;
#940=B_SPLINE_CURVE_WITH_KNOTS('',5,(#941,#942,#943,#944,#945,#946,#947,#948,#949),.UNSPECIFIED.,.F.,.U.,(6,3,6),(0.,0.0185712114733,24.3680509081),.UNSPECIFIED.) ;
#958=B_SPLINE_CURVE_WITH_KNOTS('',5,(#959,#960,#961,#962,#963,#964,#965,#966,#967),.UNSPECIFIED.,.F.,.U.,(6,3,6),(0.,0.0185712114732,24.3680508968),.UNSPECIFIED.) ;
#1025=B_SPLINE_CURVE_WITH_KNOTS('',4,(#1026,#1027,#1028,#1029,#1030),.UNSPECIFIED.,.F.,.U.,(5,5),(0.,24.3680508966),.UNSPECIFIED.) ;
#1051=B_SPLINE_CURVE_WITH_KNOTS('',5,(#1052,#1053,#1054,#1055,#1056,#1057,#1058,#1059,#1060),.UNSPECIFIED.,.F.,.U.,(6,3,6),(0.,0.0185712114733,24.3680509066),.UNSPECIFIED.) ;
#1062=B_SPLINE_CURVE_WITH_KNOTS('',5,(#1063,#1064,#1065,#1066,#1067,#1068,#1069,#1070,#1071),.UNSPECIFIED.,.F.,.U.,(6,3,6),(0.,0.0185712114733,24.3680509053),.UNSPECIFIED.) ;
#22=COLOUR_RGB('Colour',0.882352941176,0.882352941176,0.882352941176) ;
#117=FACE_OUTER_BOUND('',#112,.T.) ;
#157=FACE_OUTER_BOUND('',#152,.T.) ;
#226=FACE_OUTER_BOUND('',#221,.T.) ;
#290=FACE_OUTER_BOUND('',#285,.T.) ;
#311=FACE_OUTER_BOUND('',#306,.T.) ;
#408=FACE_OUTER_BOUND('',#403,.T.) ;
#439=FACE_OUTER_BOUND('',#434,.T.) ;
#480=FACE_OUTER_BOUND('',#475,.T.) ;
#577=FACE_OUTER_BOUND('',#572,.T.) ;
#589=FACE_OUTER_BOUND('',#584,.T.) ;
#606=FACE_OUTER_BOUND('',#601,.T.) ;
#613=FACE_OUTER_BOUND('',#608,.T.) ;
#644=FACE_OUTER_BOUND('',#639,.T.) ;
#656=FACE_OUTER_BOUND('',#651,.T.) ;
#668=FACE_OUTER_BOUND('',#663,.T.) ;
#699=FACE_OUTER_BOUND('',#694,.T.) ;
#711=FACE_OUTER_BOUND('',#706,.T.) ;
#775=FACE_OUTER_BOUND('',#767,.T.) ;
#791=FACE_OUTER_BOUND('',#786,.T.) ;
#855=FACE_OUTER_BOUND('',#847,.T.) ;
#892=FACE_OUTER_BOUND('',#887,.T.) ;
#913=FACE_OUTER_BOUND('',#908,.T.) ;
#978=FACE_OUTER_BOUND('',#969,.T.) ;
#997=FACE_OUTER_BOUND('',#992,.T.) ;
#1016=FACE_OUTER_BOUND('',#1011,.T.) ;
#1037=FACE_OUTER_BOUND('',#1032,.T.) ;
#1089=FACE_OUTER_BOUND('',#1080,.T.) ;
#1113=FACE_OUTER_BOUND('',#1108,.T.) ;
#1125=FACE_OUTER_BOUND('',#1120,.T.) ;
#1144=FACE_OUTER_BOUND('',#1139,.T.) ;
#1163=FACE_OUTER_BOUND('',#1158,.T.) ;
#1175=FACE_OUTER_BOUND('',#1170,.T.) ;
#1192=FACE_OUTER_BOUND('',#1187,.T.) ;
#1199=FACE_OUTER_BOUND('',#1194,.T.) ;
#1213=FACE_OUTER_BOUND('',#1206,.T.) ;
#1220=FACE_OUTER_BOUND('',#1215,.T.) ;
#1244=FACE_OUTER_BOUND('',#1241,.T.) ;
#1274=FACE_OUTER_BOUND('',#1269,.T.) ;
#1286=FACE_OUTER_BOUND('',#1281,.T.) ;
#1308=FACE_OUTER_BOUND('',#1303,.T.) ;
#1320=FACE_OUTER_BOUND('',#1315,.T.) ;
#7=PRODUCT_CATEGORY_RELATIONSHIP(' ',' ',#5,#6) ;
#17=PRODUCT_DEFINITION_FORMATION_WITH_SPECIFIED_SOURCE('A.1',' ',#16,.NOT_KNOWN.) ;
#20=SHAPE_DEFINITION_REPRESENTATION(#19,#13) ;
#8=(LENGTH_UNIT()NAMED_UNIT(*)SI_UNIT(.MILLI.,.METRE.)) ;
#9=(NAMED_UNIT(*)PLANE_ANGLE_UNIT()SI_UNIT($,.RADIAN.)) ;
#10=(NAMED_UNIT(*)SI_UNIT($,.STERADIAN.)SOLID_ANGLE_UNIT()) ;
#12=(GEOMETRIC_REPRESENTATION_CONTEXT(3)GLOBAL_UNCERTAINTY_ASSIGNED_CONTEXT((#11))GLOBAL_UNIT_ASSIGNED_CONTEXT((#8,#9,#10))REPRESENTATION_CONTEXT(' ',' ')) ;
ENDSEC;
END-ISO-10303-21;
