ISO-10303-21;
HEADER;
FILE_DESCRIPTION(('3DEXPERIENCE STEP','CAx-IF Rec.Pracs.--- Model Styling and Organization---1.5--- 2016-08-15','CAx-IF Rec.Pracs.---Supplemental Geometry---1.0---2011-11-01','CAx-IF Rec.Pracs.--- Composite Materials ---3.4---2017-06-13','CAx-IF Rec.Pracs.---Tessellated 3D Geometry---1.0---2015-12-17'),'2;1');

FILE_NAME('\\\\?\\D:\\School\\CarTech\\CTU.25\\Tutorials\\Model\\OEM\\Fitted_Bolet_M6_8x30.stp','2024-09-26T02:49:22+00:00',('none'),('none'),'3DEXPERIENCE Platform3DEXPERIENCE R2024x HotFix 4.24','3DEXPERIENCE Platform STEP AP242 v3','none');

FILE_SCHEMA(('AP242_MANAGED_MODEL_BASED_3D_ENGINEERING_MIM_LF  {1 0 10303 442 1 1 4}'));

ENDSEC;
DATA;
#16=PRODUCT('Screw_ISO_7379_M6_8_30','Screw_ISO_7379_M6_8_30','',(#2)) ;
#2=PRODUCT_CONTEXT(' ',#1,'mechanical') ;
#1=APPLICATION_CONTEXT('managed model based 3d engineering') ;
#18=PRODUCT_DEFINITION('Screw_ISO_7379_M6_8_30',' ',#17,#3) ;
#3=PRODUCT_DEFINITION_CONTEXT('part definition',#1,' ') ;
#19=PRODUCT_DEFINITION_SHAPE(' ',' ',#18) ;
#1012=MECHANICAL_DESIGN_GEOMETRIC_PRESENTATION_REPRESENTATION(' ',(#29),#12) ;
#5=PRODUCT_CATEGORY('part','specification') ;
#13=SHAPE_REPRESENTATION(' ',(#15,#21),#12) ;
#14=CARTESIAN_POINT('',(0.,0.,0.)) ;
#31=CARTESIAN_POINT('Axis2P3D Location',(1.42365190401E-15,0.,-17.75)) ;
#36=CARTESIAN_POINT('Line Origine',(1.91770215442,3.51033024756,-17.75)) ;
#40=CARTESIAN_POINT('Vertex',(1.91770215442,3.51033024756,-1.)) ;
#42=CARTESIAN_POINT('Vertex',(1.91770215442,3.51033024756,-30.)) ;
#45=CARTESIAN_POINT('Axis2P3D Location',(2.17374806849E-15,4.32858917977E-28,-30.)) ;
#49=CARTESIAN_POINT('Vertex',(-1.91770215442,-3.51033024756,-30.)) ;
#52=CARTESIAN_POINT('Line Origine',(-1.91770215442,-3.51033024756,-17.75)) ;
#56=CARTESIAN_POINT('Vertex',(-1.91770215442,-3.51033024756,-1.)) ;
#59=CARTESIAN_POINT('Axis2P3D Location',(3.98010209724E-16,-5.91868316417E-28,-1.)) ;
#71=CARTESIAN_POINT('Axis2P3D Location',(2.17374806849E-15,4.32858917977E-28,-30.)) ;
#76=CARTESIAN_POINT('Axis2P3D Location',(3.98010209724E-16,-5.91868316417E-28,-1.)) ;
#88=CARTESIAN_POINT('Axis2P3D Location',(2.17374806849E-15,-4.,-30.)) ;
#97=CARTESIAN_POINT('Axis2P3D Location',(1.95170346356E-15,0.,-30.)) ;
#101=CARTESIAN_POINT('Vertex',(-1.30883171968,-2.39580039307,-30.)) ;
#103=CARTESIAN_POINT('Vertex',(1.30883171968,2.39580039307,-30.)) ;
#106=CARTESIAN_POINT('Axis2P3D Location',(2.39579267342E-15,0.,-30.)) ;
#116=CARTESIAN_POINT('Axis2P3D Location',(3.67394039744E-16,0.,-0.5)) ;
#121=CARTESIAN_POINT('Axis2P3D Location',(1.91770215442,3.51033024756,-0.5)) ;
#125=CARTESIAN_POINT('Vertex',(1.67798938511,3.07153896662,-0.5)) ;
#128=CARTESIAN_POINT('Axis2P3D Location',(-1.91770215442,-3.51033024756,-0.5)) ;
#132=CARTESIAN_POINT('Vertex',(-1.67798938511,-3.07153896662,-0.5)) ;
#135=CARTESIAN_POINT('Axis2P3D Location',(3.67394039744E-16,0.,-0.5)) ;
#147=CARTESIAN_POINT('Axis2P3D Location',(3.67394039744E-16,0.,-0.5)) ;
#152=CARTESIAN_POINT('Axis2P3D Location',(3.67394039744E-16,0.,-0.5)) ;
#164=CARTESIAN_POINT('Axis2P3D Location',(2.20620120866E-15,0.,-30.53)) ;
#169=CARTESIAN_POINT('Axis2P3D Location',(1.30883172039,2.39580039396,-30.53)) ;
#173=CARTESIAN_POINT('Vertex',(1.05473618493,1.93068163616,-30.53)) ;
#176=CARTESIAN_POINT('Axis2P3D Location',(2.20620120866E-15,0.,-30.53)) ;
#180=CARTESIAN_POINT('Vertex',(-1.05473618493,-1.93068163616,-30.53)) ;
#183=CARTESIAN_POINT('Axis2P3D Location',(-1.30883172039,-2.39580039396,-30.53)) ;
#195=CARTESIAN_POINT('Axis2P3D Location',(2.20620120866E-15,0.,-30.53)) ;
#200=CARTESIAN_POINT('Axis2P3D Location',(2.20620120866E-15,0.,-30.53)) ;
#212=CARTESIAN_POINT('Axis2P3D Location',(-1.91770215442,-3.51033024756,-0.5)) ;
#216=CARTESIAN_POINT('Vertex',(-1.91770215442,-3.51033024756,-1.11022302463E-16)) ;
#219=CARTESIAN_POINT('Axis2P3D Location',(3.36777869765E-16,0.,0.)) ;
#223=CARTESIAN_POINT('Vertex',(1.91770215442,3.51033024756,1.11022302463E-16)) ;
#226=CARTESIAN_POINT('Axis2P3D Location',(1.91770215442,3.51033024756,-0.5)) ;
#238=CARTESIAN_POINT('Axis2P3D Location',(3.36777869765E-16,0.,0.)) ;
#250=CARTESIAN_POINT('Axis2P3D Location',(1.42365190401E-15,0.,-17.75)) ;
#255=CARTESIAN_POINT('Line Origine',(1.05473618493,1.93068163616,-17.75)) ;
#259=CARTESIAN_POINT('Vertex',(1.05473618493,1.93068163616,-32.5)) ;
#262=CARTESIAN_POINT('Axis2P3D Location',(2.32682891838E-15,5.21197472666E-28,-32.5)) ;
#266=CARTESIAN_POINT('Vertex',(-1.05473618493,-1.93068163616,-32.5)) ;
#269=CARTESIAN_POINT('Line Origine',(-1.05473618493,-1.93068163616,-17.75)) ;
#281=CARTESIAN_POINT('Axis2P3D Location',(2.32682891838E-15,5.21197472666E-28,-32.5)) ;
#293=CARTESIAN_POINT('Axis2P3D Location',(3.36777869766E-16,-6.5,0.)) ;
#298=CARTESIAN_POINT('Axis2P3D Location',(3.36777869766E-16,0.,0.)) ;
#302=CARTESIAN_POINT('Vertex',(3.11626600102,5.70428665169,1.90816259172E-16)) ;
#304=CARTESIAN_POINT('Vertex',(-3.11626600102,-5.70428665169,-1.90816259172E-16)) ;
#307=CARTESIAN_POINT('Axis2P3D Location',(3.36777869766E-16,0.,0.)) ;
#321=CARTESIAN_POINT('Axis2P3D Location',(2.32682891838E-15,0.,-32.5)) ;
#326=CARTESIAN_POINT('Line Origine',(1198564.37388,2193957.37007,-4330157.61367)) ;
#330=CARTESIAN_POINT('Vertex',(1.4382766158,2.63274768566,-33.885640646)) ;
#333=CARTESIAN_POINT('Axis2P3D Location',(2.41167493748E-15,0.,-33.8856406461)) ;
#337=CARTESIAN_POINT('Vertex',(-1.43827661582,-2.63274768569,-33.8856406461)) ;
#340=CARTESIAN_POINT('Line Origine',(-1198564.37388,-2193957.37007,-4330157.61367)) ;
#352=CARTESIAN_POINT('Axis2P3D Location',(2.41167493748E-15,0.,-33.8856406461)) ;
#364=CARTESIAN_POINT('Axis2P3D Location',(1.42365190401E-15,0.,-17.75)) ;
#369=CARTESIAN_POINT('Line Origine',(-3.11626600093,-5.70428665229,-17.75)) ;
#373=CARTESIAN_POINT('Vertex',(-3.11626600093,-5.70428665229,4.5)) ;
#376=CARTESIAN_POINT('Line Origine',(3.11626600093,5.70428665229,-17.75)) ;
#380=CARTESIAN_POINT('Vertex',(3.11626600093,5.70428665229,4.5)) ;
#383=CARTESIAN_POINT('Axis2P3D Location',(6.12323399578E-17,-7.86213136733E-28,4.5)) ;
#395=CARTESIAN_POINT('Axis2P3D Location',(6.12323399578E-17,-7.86213136733E-28,4.5)) ;
#407=CARTESIAN_POINT('Axis2P3D Location',(1.42365190401E-15,0.,-17.75)) ;
#412=CARTESIAN_POINT('Line Origine',(1.43827661581,2.63274768567,-17.75)) ;
#416=CARTESIAN_POINT('Vertex',(1.43827661581,2.63274768567,-40.1999999993)) ;
#419=CARTESIAN_POINT('Axis2P3D Location',(2.79831793601E-15,7.93280221082E-28,-40.1999999993)) ;
#423=CARTESIAN_POINT('Vertex',(-1.43827661581,-2.63274768567,-40.1999999993)) ;
#426=CARTESIAN_POINT('Line Origine',(-1.43827661581,-2.63274768567,-17.75)) ;
#438=CARTESIAN_POINT('Axis2P3D Location',(2.79831793601E-15,7.93280221082E-28,-40.1999999993)) ;
#450=CARTESIAN_POINT('Axis2P3D Location',(0.,0.,5.5)) ;
#455=CARTESIAN_POINT('Line Origine',(-1695026.56552,-3102725.31617,-3535525.65593)) ;
#459=CARTESIAN_POINT('Vertex',(-2.63684046232,-4.8267040904,5.5)) ;
#462=CARTESIAN_POINT('Line Origine',(1695026.56552,3102725.31617,-3535525.65593)) ;
#466=CARTESIAN_POINT('Vertex',(2.63684046224,4.82670409025,5.50000000017)) ;
#469=CARTESIAN_POINT('Axis2P3D Location',(7.69123481558E-32,0.,5.5)) ;
#481=CARTESIAN_POINT('Axis2P3D Location',(7.69123481558E-32,0.,5.5)) ;
#493=CARTESIAN_POINT('Axis2P3D Location',(2.84730380802E-15,0.,-41.)) ;
#498=CARTESIAN_POINT('Line Origine',(1695025.77447,3102723.86816,3535491.80593)) ;
#502=CARTESIAN_POINT('Vertex',(1.05473618488,1.93068163606,-41.0000000001)) ;
#505=CARTESIAN_POINT('Axis2P3D Location',(2.84730380802E-15,0.,-41.)) ;
#509=CARTESIAN_POINT('Vertex',(-1.05473618493,-1.93068163616,-41.)) ;
#512=CARTESIAN_POINT('Line Origine',(-1695025.77447,-3102723.86816,3535491.80593)) ;
#524=CARTESIAN_POINT('Axis2P3D Location',(2.84730380802E-15,0.,-41.)) ;
#536=CARTESIAN_POINT('Axis2P3D Location',(0.,0.,5.5)) ;
#545=CARTESIAN_POINT('Line Origine',(1.73204999976,-0.999999533407,5.5)) ;
#549=CARTESIAN_POINT('Vertex',(2.30939999968,0.,5.5)) ;
#551=CARTESIAN_POINT('Vertex',(1.15469999984,-1.99999906681,5.5)) ;
#554=CARTESIAN_POINT('Line Origine',(0.,-1.99999906681,5.5)) ;
#558=CARTESIAN_POINT('Vertex',(-1.15469999984,-1.99999906681,5.5)) ;
#561=CARTESIAN_POINT('Line Origine',(-1.73204999976,-0.999999533407,5.5)) ;
#565=CARTESIAN_POINT('Vertex',(-2.30939999968,0.,5.5)) ;
#568=CARTESIAN_POINT('Line Origine',(-1.73204999976,0.999999533407,5.5)) ;
#572=CARTESIAN_POINT('Vertex',(-1.15469999984,1.99999906681,5.5)) ;
#575=CARTESIAN_POINT('Line Origine',(0.,1.99999906681,5.5)) ;
#579=CARTESIAN_POINT('Vertex',(1.15469999984,1.99999906681,5.5)) ;
#582=CARTESIAN_POINT('Line Origine',(1.73204999976,0.999999533407,5.5)) ;
#596=CARTESIAN_POINT('Axis2P3D Location',(2.84730380802E-15,-2.2,-41.)) ;
#605=CARTESIAN_POINT('Axis2P3D Location',(-3.25415844689E-10,3.64041241596E-10,-41.)) ;
#609=CARTESIAN_POINT('Vertex',(-0.444542152807,-0.813728951663,-41.)) ;
#611=CARTESIAN_POINT('Vertex',(0.444542152807,0.813728952035,-41.)) ;
#614=CARTESIAN_POINT('Axis2P3D Location',(3.25421539297E-10,8.48743297865E-12,-41.)) ;
#624=CARTESIAN_POINT('Axis2P3D Location',(2.3094,0.,5.5)) ;
#629=CARTESIAN_POINT('Line Origine',(2.3094,3.83469600198E-29,3.84999999963)) ;
#633=CARTESIAN_POINT('Vertex',(2.3094,-2.60080703333E-13,2.19999999999)) ;
#637=CARTESIAN_POINT('Control Point',(1.15470000016,-1.99999906722,2.1999999999)) ;
#638=CARTESIAN_POINT('Control Point',(1.15844083989,-1.99351974275,2.19784022507)) ;
#639=CARTESIAN_POINT('Control Point',(1.16218167962,-1.98704041827,2.19568045025)) ;
#640=CARTESIAN_POINT('Control Point',(1.15501129547,-1.99945988792,2.19982030375)) ;
#641=CARTESIAN_POINT('Control Point',(1.23745767714,-1.85665856598,2.15224392964)) ;
#642=CARTESIAN_POINT('Control Point',(1.31256126669,-1.72657533305,2.11527949189)) ;
#643=CARTESIAN_POINT('Control Point',(1.38270377078,-1.60508495219,2.08639282504)) ;
#644=CARTESIAN_POINT('Control Point',(1.53389066874,-1.34322156348,2.03650598608)) ;
#645=CARTESIAN_POINT('Control Point',(1.67396812779,-1.10060028741,2.01815699284)) ;
#646=CARTESIAN_POINT('Control Point',(1.75082052734,-0.967488026714,2.01642862892)) ;
#647=CARTESIAN_POINT('Control Point',(1.89786147181,-0.712805640094,2.02910262232)) ;
#648=CARTESIAN_POINT('Control Point',(2.05482092257,-0.44094389666,2.07572832996)) ;
#649=CARTESIAN_POINT('Control Point',(2.13265648372,-0.306128750103,2.1060745265)) ;
#650=CARTESIAN_POINT('Control Point',(2.21634843058,-0.161170045965,2.14627665133)) ;
#651=CARTESIAN_POINT('Control Point',(2.3094,-2.60176851468E-13,2.19999999999)) ;
#652=CARTESIAN_POINT('Vertex',(1.15470000016,-1.99999906722,2.19999999925)) ;
#655=CARTESIAN_POINT('Line Origine',(1.15470000016,-1.99999906722,3.84999999963)) ;
#667=CARTESIAN_POINT('Axis2P3D Location',(1.1547,-1.9999990675,5.5)) ;
#673=CARTESIAN_POINT('Control Point',(-1.09260446935,-1.9999990675,2.18244092595)) ;
#674=CARTESIAN_POINT('Control Point',(-1.08509375109,-1.9999990675,2.1803619857)) ;
#675=CARTESIAN_POINT('Control Point',(-1.07758303283,-1.9999990675,2.17828304544)) ;
#676=CARTESIAN_POINT('Control Point',(-1.09199767931,-1.9999990675,2.18227299855)) ;
#677=CARTESIAN_POINT('Control Point',(-0.931414356938,-1.9999990675,2.13784787203)) ;
#678=CARTESIAN_POINT('Control Point',(-0.784364776804,-1.9999990675,2.10345788047)) ;
#679=CARTESIAN_POINT('Control Point',(-0.64645320434,-1.9999990675,2.07680279704)) ;
#680=CARTESIAN_POINT('Control Point',(-0.348099061933,-1.9999990675,2.03145470774)) ;
#681=CARTESIAN_POINT('Control Point',(-0.0692629824693,-1.9999990675,2.01691257905)) ;
#682=CARTESIAN_POINT('Control Point',(0.0843864856831,-1.9999990675,2.01724498919)) ;
#683=CARTESIAN_POINT('Control Point',(0.370177574846,-1.9999990675,2.03338141109)) ;
#684=CARTESIAN_POINT('Control Point',(0.677316876037,-1.9999990675,2.08202508643)) ;
#685=CARTESIAN_POINT('Control Point',(0.8239895319,-1.9999990675,2.11158644605)) ;
#686=CARTESIAN_POINT('Control Point',(0.981210934779,-1.9999990675,2.14991802074)) ;
#687=CARTESIAN_POINT('Control Point',(1.1547,-1.9999990675,2.19999999999)) ;
#688=CARTESIAN_POINT('Vertex',(-1.09260446935,-1.9999990675,2.18244092539)) ;
#692=CARTESIAN_POINT('Control Point',(-1.09260446935,-1.9999990675,2.18244092539)) ;
#693=CARTESIAN_POINT('Control Point',(-1.10504938175,-1.9999990675,2.18588563313)) ;
#694=CARTESIAN_POINT('Control Point',(-1.1174813021,-1.9999990675,2.18936451357)) ;
#695=CARTESIAN_POINT('Control Point',(-1.12990080518,-1.9999990675,2.19287708908)) ;
#696=CARTESIAN_POINT('Control Point',(-1.14230683962,-1.9999990675,2.19642240211)) ;
#697=CARTESIAN_POINT('Control Point',(-1.15469999968,-1.9999990675,2.19999999925)) ;
#698=CARTESIAN_POINT('Vertex',(-1.15469999968,-1.9999990675,2.19999999925)) ;
#701=CARTESIAN_POINT('Line Origine',(-1.15469999968,-1.9999990675,3.84999999963)) ;
#714=CARTESIAN_POINT('Axis2P3D Location',(-1.1547,-1.9999990675,5.5)) ;
#720=CARTESIAN_POINT('Control Point',(-2.30939999984,-2.79441580986E-10,2.1999999999)) ;
#721=CARTESIAN_POINT('Control Point',(-2.30565916011,-0.0064793247524,2.19784022507)) ;
#722=CARTESIAN_POINT('Control Point',(-2.30191832038,-0.0129586492254,2.19568045025)) ;
#723=CARTESIAN_POINT('Control Point',(-2.30908870453,-0.000539179575409,2.19982030375)) ;
#724=CARTESIAN_POINT('Control Point',(-2.22664232287,-0.143340501513,2.15224392964)) ;
#725=CARTESIAN_POINT('Control Point',(-2.15153873331,-0.273423734448,2.11527949189)) ;
#726=CARTESIAN_POINT('Control Point',(-2.08139622922,-0.394914115313,2.08639282504)) ;
#727=CARTESIAN_POINT('Control Point',(-1.93020933125,-0.656777504038,2.03650598608)) ;
#728=CARTESIAN_POINT('Control Point',(-1.7901318722,-0.89939878011,2.01815699284)) ;
#729=CARTESIAN_POINT('Control Point',(-1.71327947267,-1.03251104076,2.01642862892)) ;
#730=CARTESIAN_POINT('Control Point',(-1.56623852819,-1.2871934274,2.02910262232)) ;
#731=CARTESIAN_POINT('Control Point',(-1.40927907743,-1.55905517084,2.07572832996)) ;
#732=CARTESIAN_POINT('Control Point',(-1.33144351628,-1.69387031739,2.1060745265)) ;
#733=CARTESIAN_POINT('Control Point',(-1.24775156942,-1.83882902153,2.14627665133)) ;
#734=CARTESIAN_POINT('Control Point',(-1.1547,-1.9999990675,2.19999999999)) ;
#735=CARTESIAN_POINT('Vertex',(-2.30939999984,-2.79213763221E-10,2.19999999925)) ;
#738=CARTESIAN_POINT('Line Origine',(-2.30939999984,-2.79213763221E-10,3.84999999963)) ;
#750=CARTESIAN_POINT('Axis2P3D Location',(-2.3094,0.,5.5)) ;
#756=CARTESIAN_POINT('Control Point',(-1.15470000016,1.99999906722,2.1999999999)) ;
#757=CARTESIAN_POINT('Control Point',(-1.15844083989,1.99351974275,2.19784022507)) ;
#758=CARTESIAN_POINT('Control Point',(-1.16218167962,1.98704041827,2.19568045025)) ;
#759=CARTESIAN_POINT('Control Point',(-1.15501129547,1.99945988792,2.19982030375)) ;
#760=CARTESIAN_POINT('Control Point',(-1.23745767714,1.85665856598,2.15224392964)) ;
#761=CARTESIAN_POINT('Control Point',(-1.31256126669,1.72657533305,2.11527949189)) ;
#762=CARTESIAN_POINT('Control Point',(-1.38270377078,1.60508495219,2.08639282504)) ;
#763=CARTESIAN_POINT('Control Point',(-1.53389066874,1.34322156348,2.03650598608)) ;
#764=CARTESIAN_POINT('Control Point',(-1.6739681278,1.10060028741,2.01815699284)) ;
#765=CARTESIAN_POINT('Control Point',(-1.75082052733,0.967488026726,2.01642862892)) ;
#766=CARTESIAN_POINT('Control Point',(-1.89786147182,0.712805640084,2.02910262232)) ;
#767=CARTESIAN_POINT('Control Point',(-2.05482092256,0.440943896668,2.07572832996)) ;
#768=CARTESIAN_POINT('Control Point',(-2.13265648372,0.306128750101,2.1060745265)) ;
#769=CARTESIAN_POINT('Control Point',(-2.21634843058,0.161170045966,2.14627665133)) ;
#770=CARTESIAN_POINT('Control Point',(-2.3094,2.60849888408E-13,2.19999999999)) ;
#771=CARTESIAN_POINT('Vertex',(-1.15470000016,1.99999906722,2.19999999925)) ;
#774=CARTESIAN_POINT('Line Origine',(-1.15470000016,1.99999906722,3.84999999963)) ;
#786=CARTESIAN_POINT('Axis2P3D Location',(-1.1547,1.9999990675,5.5)) ;
#792=CARTESIAN_POINT('Control Point',(1.09260446935,1.9999990675,2.18244092595)) ;
#793=CARTESIAN_POINT('Control Point',(1.08509375109,1.9999990675,2.1803619857)) ;
#794=CARTESIAN_POINT('Control Point',(1.07758303283,1.9999990675,2.17828304544)) ;
#795=CARTESIAN_POINT('Control Point',(1.09199767931,1.9999990675,2.18227299855)) ;
#796=CARTESIAN_POINT('Control Point',(0.931414356942,1.9999990675,2.13784787203)) ;
#797=CARTESIAN_POINT('Control Point',(0.78436477682,1.9999990675,2.10345788047)) ;
#798=CARTESIAN_POINT('Control Point',(0.646453204334,1.9999990675,2.07680279704)) ;
#799=CARTESIAN_POINT('Control Point',(0.348099061925,1.9999990675,2.03145470774)) ;
#800=CARTESIAN_POINT('Control Point',(0.0692629824595,1.9999990675,2.01691257905)) ;
#801=CARTESIAN_POINT('Control Point',(-0.0843864856759,1.9999990675,2.01724498919)) ;
#802=CARTESIAN_POINT('Control Point',(-0.370177574848,1.9999990675,2.03338141109)) ;
#803=CARTESIAN_POINT('Control Point',(-0.67731687606,1.9999990675,2.08202508644)) ;
#804=CARTESIAN_POINT('Control Point',(-0.823989531873,1.9999990675,2.11158644604)) ;
#805=CARTESIAN_POINT('Control Point',(-0.981210934766,1.9999990675,2.14991802073)) ;
#806=CARTESIAN_POINT('Control Point',(-1.1547,1.9999990675,2.19999999999)) ;
#807=CARTESIAN_POINT('Vertex',(1.09260446935,1.9999990675,2.18244092539)) ;
#811=CARTESIAN_POINT('Control Point',(1.09260446935,1.9999990675,2.18244092539)) ;
#812=CARTESIAN_POINT('Control Point',(1.10504938175,1.9999990675,2.18588563313)) ;
#813=CARTESIAN_POINT('Control Point',(1.1174813021,1.9999990675,2.18936451357)) ;
#814=CARTESIAN_POINT('Control Point',(1.12990080518,1.9999990675,2.19287708908)) ;
#815=CARTESIAN_POINT('Control Point',(1.14230683962,1.9999990675,2.19642240211)) ;
#816=CARTESIAN_POINT('Control Point',(1.15469999968,1.9999990675,2.19999999925)) ;
#817=CARTESIAN_POINT('Vertex',(1.15469999968,1.9999990675,2.19999999925)) ;
#820=CARTESIAN_POINT('Line Origine',(1.15469999968,1.9999990675,3.84999999963)) ;
#833=CARTESIAN_POINT('Axis2P3D Location',(1.1547,1.9999990675,5.5)) ;
#839=CARTESIAN_POINT('Control Point',(2.30939999984,2.79444245521E-10,2.1999999999)) ;
#840=CARTESIAN_POINT('Control Point',(2.30565916011,0.00647932475239,2.19784022507)) ;
#841=CARTESIAN_POINT('Control Point',(2.30191832038,0.0129586492253,2.19568045025)) ;
#842=CARTESIAN_POINT('Control Point',(2.30908870453,0.000539179575409,2.19982030375)) ;
#843=CARTESIAN_POINT('Control Point',(2.22664232286,0.143340501526,2.15224392963)) ;
#844=CARTESIAN_POINT('Control Point',(2.15153873331,0.273423734464,2.11527949188)) ;
#845=CARTESIAN_POINT('Control Point',(2.08139622923,0.394914115294,2.08639282504)) ;
#846=CARTESIAN_POINT('Control Point',(1.93020933126,0.656777504022,2.03650598608)) ;
#847=CARTESIAN_POINT('Control Point',(1.79013187219,0.899398780111,2.01815699284)) ;
#848=CARTESIAN_POINT('Control Point',(1.71327947268,1.03251104076,2.01642862893)) ;
#849=CARTESIAN_POINT('Control Point',(1.56623852819,1.2871934274,2.02910262231)) ;
#850=CARTESIAN_POINT('Control Point',(1.40927907744,1.55905517084,2.07572832996)) ;
#851=CARTESIAN_POINT('Control Point',(1.33144351628,1.6938703174,2.1060745265)) ;
#852=CARTESIAN_POINT('Control Point',(1.24775156942,1.83882902153,2.14627665133)) ;
#853=CARTESIAN_POINT('Control Point',(1.1547,1.9999990675,2.19999999999)) ;
#862=CARTESIAN_POINT('Axis2P3D Location',(2.80199187645E-15,0.,-40.26)) ;
#867=CARTESIAN_POINT('Line Origine',(1198563.96637,2193956.62412,-4330166.84591)) ;
#871=CARTESIAN_POINT('Vertex',(0.239712769302,0.438791280945,-40.26)) ;
#874=CARTESIAN_POINT('Axis2P3D Location',(2.80199187645E-15,0.,-40.26)) ;
#878=CARTESIAN_POINT('Vertex',(-0.239712769274,-0.438791280895,-40.2599999999)) ;
#881=CARTESIAN_POINT('Line Origine',(-1198563.96637,-2193956.62412,-4330166.84591)) ;
#893=CARTESIAN_POINT('Axis2P3D Location',(2.80199187645E-15,0.,-40.26)) ;
#905=CARTESIAN_POINT('Axis2P3D Location',(2.83709803736E-16,0.,0.866667288333)) ;
#910=CARTESIAN_POINT('Line Origine',(2075973.47828,3800043.96258,2500000.86665)) ;
#914=CARTESIAN_POINT('Vertex',(2.83709803736E-16,0.,0.866667288333)) ;
#917=CARTESIAN_POINT('Line Origine',(-2075973.47828,-3800043.96258,2500000.86665)) ;
#940=CARTESIAN_POINT('Axis2P3D Location',(1.42365190401E-15,0.,-17.75)) ;
#945=CARTESIAN_POINT('Line Origine',(0.239712769302,0.438791280945,-17.75)) ;
#949=CARTESIAN_POINT('Vertex',(0.239712769302,0.438791280945,-39.1819851175)) ;
#952=CARTESIAN_POINT('Axis2P3D Location',(2.73598250269E-15,7.5730823576E-28,-39.1819851175)) ;
#956=CARTESIAN_POINT('Vertex',(-0.239712769302,-0.438791280945,-39.1819851175)) ;
#959=CARTESIAN_POINT('Line Origine',(-0.239712769302,-0.438791280945,-17.75)) ;
#971=CARTESIAN_POINT('Axis2P3D Location',(2.73598250269E-15,7.5730823576E-28,-39.1819851175)) ;
#983=CARTESIAN_POINT('Axis2P3D Location',(2.7248391281E-15,0.,-39.)) ;
#988=CARTESIAN_POINT('Line Origine',(2252563.20422,4123289.2877,-1710139.71661)) ;
#992=CARTESIAN_POINT('Vertex',(2.7248391281E-15,0.,-39.)) ;
#995=CARTESIAN_POINT('Line Origine',(-2252563.20422,-4123289.2877,-1710139.71661)) ;
#6=PRODUCT_RELATED_PRODUCT_CATEGORY('part',$,(#16)) ;
#11=UNCERTAINTY_MEASURE_WITH_UNIT(LENGTH_MEASURE(0.005),#8,'distance_accuracy_value','CONFUSED CURVE UNCERTAINTY') ;
#29=STYLED_ITEM(' ',(#28),#21) ;
#28=PRESENTATION_STYLE_ASSIGNMENT((#27)) ;
#27=SURFACE_STYLE_USAGE(.BOTH.,#26) ;
#26=SURFACE_SIDE_STYLE(' ',(#25)) ;
#25=SURFACE_STYLE_FILL_AREA(#24) ;
#24=FILL_AREA_STYLE(' ',(#23)) ;
#23=FILL_AREA_STYLE_COLOUR(' ',#22) ;
#38=VECTOR('Line Direction',#37,1.) ;
#54=VECTOR('Line Direction',#53,1.) ;
#257=VECTOR('Line Direction',#256,1.) ;
#271=VECTOR('Line Direction',#270,1.) ;
#328=VECTOR('Line Direction',#327,1.) ;
#342=VECTOR('Line Direction',#341,1.) ;
#371=VECTOR('Line Direction',#370,1.) ;
#378=VECTOR('Line Direction',#377,1.) ;
#414=VECTOR('Line Direction',#413,1.) ;
#428=VECTOR('Line Direction',#427,1.) ;
#457=VECTOR('Line Direction',#456,1.) ;
#464=VECTOR('Line Direction',#463,1.) ;
#500=VECTOR('Line Direction',#499,1.) ;
#514=VECTOR('Line Direction',#513,1.) ;
#547=VECTOR('Line Direction',#546,1.) ;
#556=VECTOR('Line Direction',#555,1.) ;
#563=VECTOR('Line Direction',#562,1.) ;
#570=VECTOR('Line Direction',#569,1.) ;
#577=VECTOR('Line Direction',#576,1.) ;
#584=VECTOR('Line Direction',#583,1.) ;
#631=VECTOR('Line Direction',#630,1.) ;
#657=VECTOR('Line Direction',#656,1.) ;
#703=VECTOR('Line Direction',#702,1.) ;
#740=VECTOR('Line Direction',#739,1.) ;
#776=VECTOR('Line Direction',#775,1.) ;
#822=VECTOR('Line Direction',#821,1.) ;
#869=VECTOR('Line Direction',#868,1.) ;
#883=VECTOR('Line Direction',#882,1.) ;
#912=VECTOR('Line Direction',#911,1.) ;
#919=VECTOR('Line Direction',#918,1.) ;
#947=VECTOR('Line Direction',#946,1.) ;
#961=VECTOR('Line Direction',#960,1.) ;
#990=VECTOR('Line Direction',#989,1.) ;
#997=VECTOR('Line Direction',#996,1.) ;
#32=DIRECTION('Axis2P3D Direction',(6.12323399574E-17,3.53354218757E-29,-1.)) ;
#33=DIRECTION('Axis2P3D XDirection',(-0.479425538604,-0.87758256189,-2.93563475641E-17)) ;
#37=DIRECTION('Vector Direction',(6.12323414195E-17,0.,-1.)) ;
#46=DIRECTION('Axis2P3D Direction',(6.12323399574E-17,3.53354218757E-29,-1.)) ;
#53=DIRECTION('Vector Direction',(6.12323414195E-17,0.,-1.)) ;
#60=DIRECTION('Axis2P3D Direction',(6.12323399574E-17,3.53354218757E-29,-1.)) ;
#72=DIRECTION('Axis2P3D Direction',(6.12323399574E-17,3.53354218757E-29,-1.)) ;
#77=DIRECTION('Axis2P3D Direction',(6.12323399574E-17,3.53354218757E-29,-1.)) ;
#89=DIRECTION('Axis2P3D Direction',(6.12323399574E-17,0.,-1.)) ;
#90=DIRECTION('Axis2P3D XDirection',(0.,1.,0.)) ;
#98=DIRECTION('Axis2P3D Direction',(6.12323399574E-17,0.,-1.)) ;
#107=DIRECTION('Axis2P3D Direction',(6.12323399574E-17,0.,-1.)) ;
#117=DIRECTION('Axis2P3D Direction',(6.12323399574E-17,0.,-1.)) ;
#118=DIRECTION('Axis2P3D XDirection',(-0.479425538604,-0.87758256189,-2.46716227694E-17)) ;
#122=DIRECTION('Axis2P3D Direction',(-0.87758256189,0.479425538604,-5.37364337704E-17)) ;
#129=DIRECTION('Axis2P3D Direction',(0.87758256189,-0.479425538604,5.37364337704E-17)) ;
#136=DIRECTION('Axis2P3D Direction',(6.12323399574E-17,0.,-1.)) ;
#148=DIRECTION('Axis2P3D Direction',(6.12323399574E-17,0.,-1.)) ;
#149=DIRECTION('Axis2P3D XDirection',(0.479425538604,0.87758256189,2.46716227694E-17)) ;
#153=DIRECTION('Axis2P3D Direction',(6.12323399574E-17,0.,-1.)) ;
#165=DIRECTION('Axis2P3D Direction',(6.12323399574E-17,0.,-1.)) ;
#166=DIRECTION('Axis2P3D XDirection',(-0.479425538604,-0.87758256189,0.)) ;
#170=DIRECTION('Axis2P3D Direction',(-0.87758256189,0.479425538604,-5.37364337704E-17)) ;
#177=DIRECTION('Axis2P3D Direction',(6.12323399574E-17,0.,-1.)) ;
#184=DIRECTION('Axis2P3D Direction',(0.87758256189,-0.479425538604,5.37364337704E-17)) ;
#196=DIRECTION('Axis2P3D Direction',(6.12323399574E-17,0.,-1.)) ;
#197=DIRECTION('Axis2P3D XDirection',(0.479425538604,0.87758256189,0.)) ;
#201=DIRECTION('Axis2P3D Direction',(6.12323399574E-17,0.,-1.)) ;
#213=DIRECTION('Axis2P3D Direction',(0.87758256189,-0.479425538604,5.37364337704E-17)) ;
#220=DIRECTION('Axis2P3D Direction',(6.12323399574E-17,0.,-1.)) ;
#227=DIRECTION('Axis2P3D Direction',(-0.87758256189,0.479425538604,-5.37364337704E-17)) ;
#239=DIRECTION('Axis2P3D Direction',(6.12323399574E-17,0.,-1.)) ;
#251=DIRECTION('Axis2P3D Direction',(6.12323399574E-17,3.53354218757E-29,-1.)) ;
#252=DIRECTION('Axis2P3D XDirection',(-0.479425538604,-0.87758256189,-2.93563475641E-17)) ;
#256=DIRECTION('Vector Direction',(6.12323414195E-17,0.,-1.)) ;
#263=DIRECTION('Axis2P3D Direction',(6.12323399574E-17,3.53354218757E-29,-1.)) ;
#270=DIRECTION('Vector Direction',(6.12323414195E-17,0.,-1.)) ;
#282=DIRECTION('Axis2P3D Direction',(6.12323399574E-17,3.53354218757E-29,-1.)) ;
#294=DIRECTION('Axis2P3D Direction',(6.12323399574E-17,0.,-1.)) ;
#295=DIRECTION('Axis2P3D XDirection',(0.,1.,0.)) ;
#299=DIRECTION('Axis2P3D Direction',(6.12323399574E-17,0.,-1.)) ;
#308=DIRECTION('Axis2P3D Direction',(6.12323399574E-17,0.,-1.)) ;
#322=DIRECTION('Axis2P3D Direction',(6.12323399574E-17,0.,-1.)) ;
#323=DIRECTION('Axis2P3D XDirection',(-0.479425538604,-0.87758256189,0.)) ;
#327=DIRECTION('Vector Direction',(0.239712769302,0.438791280945,-0.866025403785)) ;
#334=DIRECTION('Axis2P3D Direction',(6.12323399574E-17,-3.08148791102E-33,-1.)) ;
#341=DIRECTION('Vector Direction',(-0.239712769302,-0.438791280945,-0.866025403785)) ;
#353=DIRECTION('Axis2P3D Direction',(6.12323399574E-17,-3.08148791102E-33,-1.)) ;
#365=DIRECTION('Axis2P3D Direction',(6.12323399574E-17,3.53354218757E-29,-1.)) ;
#366=DIRECTION('Axis2P3D XDirection',(0.479425538604,0.87758256189,2.93563475641E-17)) ;
#370=DIRECTION('Vector Direction',(6.12323525218E-17,0.,-1.)) ;
#377=DIRECTION('Vector Direction',(6.12323525218E-17,0.,-1.)) ;
#384=DIRECTION('Axis2P3D Direction',(6.12323399574E-17,3.53354218757E-29,-1.)) ;
#396=DIRECTION('Axis2P3D Direction',(6.12323399574E-17,3.53354218757E-29,-1.)) ;
#408=DIRECTION('Axis2P3D Direction',(6.12323399574E-17,3.53354218757E-29,-1.)) ;
#409=DIRECTION('Axis2P3D XDirection',(-0.479425538603,-0.877582561891,-2.93563475641E-17)) ;
#413=DIRECTION('Vector Direction',(6.12323414195E-17,0.,-1.)) ;
#420=DIRECTION('Axis2P3D Direction',(6.12323399574E-17,3.53354218757E-29,-1.)) ;
#427=DIRECTION('Vector Direction',(6.12323414195E-17,0.,-1.)) ;
#439=DIRECTION('Axis2P3D Direction',(6.12323399574E-17,3.53354218757E-29,-1.)) ;
#451=DIRECTION('Axis2P3D Direction',(6.12323399574E-17,0.,-1.)) ;
#452=DIRECTION('Axis2P3D XDirection',(0.479425538604,0.87758256189,0.)) ;
#456=DIRECTION('Vector Direction',(-0.339005049421,-0.620544580563,-0.707106781187)) ;
#463=DIRECTION('Vector Direction',(0.339005049421,0.620544580563,-0.707106781187)) ;
#470=DIRECTION('Axis2P3D Direction',(6.12323399574E-17,-3.08148791102E-33,-1.)) ;
#482=DIRECTION('Axis2P3D Direction',(6.12323399574E-17,-3.08148791102E-33,-1.)) ;
#494=DIRECTION('Axis2P3D Direction',(-6.12323399574E-17,-0.,1.)) ;
#495=DIRECTION('Axis2P3D XDirection',(-0.479425538604,-0.87758256189,0.)) ;
#499=DIRECTION('Vector Direction',(0.339005049421,0.620544580563,0.707106781187)) ;
#506=DIRECTION('Axis2P3D Direction',(-6.12323399574E-17,3.08148791102E-33,1.)) ;
#513=DIRECTION('Vector Direction',(-0.339005049421,-0.620544580563,0.707106781187)) ;
#525=DIRECTION('Axis2P3D Direction',(-6.12323399574E-17,3.08148791102E-33,1.)) ;
#537=DIRECTION('Axis2P3D Direction',(6.12323399574E-17,0.,-1.)) ;
#538=DIRECTION('Axis2P3D XDirection',(0.,1.,0.)) ;
#546=DIRECTION('Vector Direction',(-0.500000000076,-0.86602540374,0.)) ;
#555=DIRECTION('Vector Direction',(-1.,0.,0.)) ;
#562=DIRECTION('Vector Direction',(-0.500000000076,0.86602540374,0.)) ;
#569=DIRECTION('Vector Direction',(0.500000000076,0.86602540374,0.)) ;
#576=DIRECTION('Vector Direction',(1.,0.,0.)) ;
#583=DIRECTION('Vector Direction',(0.500000000076,-0.86602540374,0.)) ;
#597=DIRECTION('Axis2P3D Direction',(6.12323399574E-17,0.,-1.)) ;
#598=DIRECTION('Axis2P3D XDirection',(0.,1.,0.)) ;
#606=DIRECTION('Axis2P3D Direction',(6.12323399574E-17,0.,-1.)) ;
#615=DIRECTION('Axis2P3D Direction',(6.12323399574E-17,0.,-1.)) ;
#625=DIRECTION('Axis2P3D Direction',(0.866025403784,-0.5,5.30287619362E-17)) ;
#626=DIRECTION('Axis2P3D XDirection',(-0.5,-0.866025403784,-3.06161699787E-17)) ;
#630=DIRECTION('Vector Direction',(0.,2.32405818249E-29,-1.)) ;
#656=DIRECTION('Vector Direction',(6.72862439015E-17,0.,-1.)) ;
#668=DIRECTION('Axis2P3D Direction',(1.92296358297E-16,-1.,1.17747559838E-32)) ;
#669=DIRECTION('Axis2P3D XDirection',(-1.,-1.92296358297E-16,-6.12323399574E-17)) ;
#702=DIRECTION('Vector Direction',(6.72862439015E-17,0.,-1.)) ;
#715=DIRECTION('Axis2P3D Direction',(-0.866025403784,-0.5,-5.30287619362E-17)) ;
#716=DIRECTION('Axis2P3D XDirection',(-0.5,0.866025403784,-3.06161699787E-17)) ;
#739=DIRECTION('Vector Direction',(0.,0.,-1.)) ;
#751=DIRECTION('Axis2P3D Direction',(-0.866025403784,0.5,-5.30287619362E-17)) ;
#752=DIRECTION('Axis2P3D XDirection',(0.5,0.866025403784,3.06161699787E-17)) ;
#775=DIRECTION('Vector Direction',(6.72862439015E-17,0.,-1.)) ;
#787=DIRECTION('Axis2P3D Direction',(-0.,1.,0.)) ;
#788=DIRECTION('Axis2P3D XDirection',(1.,0.,6.12323399574E-17)) ;
#821=DIRECTION('Vector Direction',(6.72862439015E-17,0.,-1.)) ;
#834=DIRECTION('Axis2P3D Direction',(0.866025403784,0.5,5.30287619362E-17)) ;
#835=DIRECTION('Axis2P3D XDirection',(0.5,-0.866025403784,3.06161699787E-17)) ;
#863=DIRECTION('Axis2P3D Direction',(6.12323399574E-17,0.,-1.)) ;
#864=DIRECTION('Axis2P3D XDirection',(-0.479425538604,-0.87758256189,0.)) ;
#868=DIRECTION('Vector Direction',(0.239712769302,0.438791280945,-0.866025403785)) ;
#875=DIRECTION('Axis2P3D Direction',(6.12323399574E-17,-3.08148791102E-33,-1.)) ;
#882=DIRECTION('Vector Direction',(-0.239712769302,-0.438791280945,-0.866025403785)) ;
#894=DIRECTION('Axis2P3D Direction',(6.12323399574E-17,-3.08148791102E-33,-1.)) ;
#906=DIRECTION('Axis2P3D Direction',(-6.12323399574E-17,-0.,1.)) ;
#907=DIRECTION('Axis2P3D XDirection',(0.479425538604,0.87758256189,0.)) ;
#911=DIRECTION('Vector Direction',(0.415194695655,0.760008792517,0.499999999997)) ;
#918=DIRECTION('Vector Direction',(-0.415194695655,-0.760008792517,0.499999999997)) ;
#941=DIRECTION('Axis2P3D Direction',(6.12323399574E-17,3.53354218757E-29,-1.)) ;
#942=DIRECTION('Axis2P3D XDirection',(-0.479425538604,-0.87758256189,-2.93563475641E-17)) ;
#946=DIRECTION('Vector Direction',(6.12323400317E-17,0.,-1.)) ;
#953=DIRECTION('Axis2P3D Direction',(6.12323399574E-17,3.53354218757E-29,-1.)) ;
#960=DIRECTION('Vector Direction',(6.12323400317E-17,0.,-1.)) ;
#972=DIRECTION('Axis2P3D Direction',(6.12323399574E-17,3.53354218757E-29,-1.)) ;
#984=DIRECTION('Axis2P3D Direction',(6.12323399574E-17,0.,-1.)) ;
#985=DIRECTION('Axis2P3D XDirection',(-0.479425538604,-0.87758256189,-4.95546391455E-17)) ;
#989=DIRECTION('Vector Direction',(0.450512640843,0.82465785754,-0.342020143322)) ;
#996=DIRECTION('Vector Direction',(-0.450512640843,-0.82465785754,-0.342020143322)) ;
#15=AXIS2_PLACEMENT_3D('',#14,$,$) ;
#34=AXIS2_PLACEMENT_3D('Cylinder Axis2P3D',#31,#32,#33) ;
#47=AXIS2_PLACEMENT_3D('Circle Axis2P3D',#45,#46,$) ;
#61=AXIS2_PLACEMENT_3D('Circle Axis2P3D',#59,#60,$) ;
#73=AXIS2_PLACEMENT_3D('Circle Axis2P3D',#71,#72,$) ;
#78=AXIS2_PLACEMENT_3D('Circle Axis2P3D',#76,#77,$) ;
#91=AXIS2_PLACEMENT_3D('Plane Axis2P3D',#88,#89,#90) ;
#99=AXIS2_PLACEMENT_3D('Circle Axis2P3D',#97,#98,$) ;
#108=AXIS2_PLACEMENT_3D('Circle Axis2P3D',#106,#107,$) ;
#119=AXIS2_PLACEMENT_3D('Torus Axis2P3D',#116,#117,#118) ;
#123=AXIS2_PLACEMENT_3D('Circle Axis2P3D',#121,#122,$) ;
#130=AXIS2_PLACEMENT_3D('Circle Axis2P3D',#128,#129,$) ;
#137=AXIS2_PLACEMENT_3D('Circle Axis2P3D',#135,#136,$) ;
#150=AXIS2_PLACEMENT_3D('Torus Axis2P3D',#147,#148,#149) ;
#154=AXIS2_PLACEMENT_3D('Circle Axis2P3D',#152,#153,$) ;
#167=AXIS2_PLACEMENT_3D('Torus Axis2P3D',#164,#165,#166) ;
#171=AXIS2_PLACEMENT_3D('Circle Axis2P3D',#169,#170,$) ;
#178=AXIS2_PLACEMENT_3D('Circle Axis2P3D',#176,#177,$) ;
#185=AXIS2_PLACEMENT_3D('Circle Axis2P3D',#183,#184,$) ;
#198=AXIS2_PLACEMENT_3D('Torus Axis2P3D',#195,#196,#197) ;
#202=AXIS2_PLACEMENT_3D('Circle Axis2P3D',#200,#201,$) ;
#214=AXIS2_PLACEMENT_3D('Circle Axis2P3D',#212,#213,$) ;
#221=AXIS2_PLACEMENT_3D('Circle Axis2P3D',#219,#220,$) ;
#228=AXIS2_PLACEMENT_3D('Circle Axis2P3D',#226,#227,$) ;
#240=AXIS2_PLACEMENT_3D('Circle Axis2P3D',#238,#239,$) ;
#253=AXIS2_PLACEMENT_3D('Cylinder Axis2P3D',#250,#251,#252) ;
#264=AXIS2_PLACEMENT_3D('Circle Axis2P3D',#262,#263,$) ;
#283=AXIS2_PLACEMENT_3D('Circle Axis2P3D',#281,#282,$) ;
#296=AXIS2_PLACEMENT_3D('Plane Axis2P3D',#293,#294,#295) ;
#300=AXIS2_PLACEMENT_3D('Circle Axis2P3D',#298,#299,$) ;
#309=AXIS2_PLACEMENT_3D('Circle Axis2P3D',#307,#308,$) ;
#324=AXIS2_PLACEMENT_3D('Cone Axis2P3D',#321,#322,#323) ;
#335=AXIS2_PLACEMENT_3D('Circle Axis2P3D',#333,#334,$) ;
#354=AXIS2_PLACEMENT_3D('Circle Axis2P3D',#352,#353,$) ;
#367=AXIS2_PLACEMENT_3D('Cylinder Axis2P3D',#364,#365,#366) ;
#385=AXIS2_PLACEMENT_3D('Circle Axis2P3D',#383,#384,$) ;
#397=AXIS2_PLACEMENT_3D('Circle Axis2P3D',#395,#396,$) ;
#410=AXIS2_PLACEMENT_3D('Cylinder Axis2P3D',#407,#408,#409) ;
#421=AXIS2_PLACEMENT_3D('Circle Axis2P3D',#419,#420,$) ;
#440=AXIS2_PLACEMENT_3D('Circle Axis2P3D',#438,#439,$) ;
#453=AXIS2_PLACEMENT_3D('Cone Axis2P3D',#450,#451,#452) ;
#471=AXIS2_PLACEMENT_3D('Circle Axis2P3D',#469,#470,$) ;
#483=AXIS2_PLACEMENT_3D('Circle Axis2P3D',#481,#482,$) ;
#496=AXIS2_PLACEMENT_3D('Cone Axis2P3D',#493,#494,#495) ;
#507=AXIS2_PLACEMENT_3D('Circle Axis2P3D',#505,#506,$) ;
#526=AXIS2_PLACEMENT_3D('Circle Axis2P3D',#524,#525,$) ;
#539=AXIS2_PLACEMENT_3D('Plane Axis2P3D',#536,#537,#538) ;
#599=AXIS2_PLACEMENT_3D('Plane Axis2P3D',#596,#597,#598) ;
#607=AXIS2_PLACEMENT_3D('Circle Axis2P3D',#605,#606,$) ;
#616=AXIS2_PLACEMENT_3D('Circle Axis2P3D',#614,#615,$) ;
#627=AXIS2_PLACEMENT_3D('Plane Axis2P3D',#624,#625,#626) ;
#670=AXIS2_PLACEMENT_3D('Plane Axis2P3D',#667,#668,#669) ;
#717=AXIS2_PLACEMENT_3D('Plane Axis2P3D',#714,#715,#716) ;
#753=AXIS2_PLACEMENT_3D('Plane Axis2P3D',#750,#751,#752) ;
#789=AXIS2_PLACEMENT_3D('Plane Axis2P3D',#786,#787,#788) ;
#836=AXIS2_PLACEMENT_3D('Plane Axis2P3D',#833,#834,#835) ;
#865=AXIS2_PLACEMENT_3D('Cone Axis2P3D',#862,#863,#864) ;
#876=AXIS2_PLACEMENT_3D('Circle Axis2P3D',#874,#875,$) ;
#895=AXIS2_PLACEMENT_3D('Circle Axis2P3D',#893,#894,$) ;
#908=AXIS2_PLACEMENT_3D('Cone Axis2P3D',#905,#906,#907) ;
#943=AXIS2_PLACEMENT_3D('Cylinder Axis2P3D',#940,#941,#942) ;
#954=AXIS2_PLACEMENT_3D('Circle Axis2P3D',#952,#953,$) ;
#973=AXIS2_PLACEMENT_3D('Circle Axis2P3D',#971,#972,$) ;
#986=AXIS2_PLACEMENT_3D('Cone Axis2P3D',#983,#984,#985) ;
#39=LINE('Line',#36,#38) ;
#55=LINE('Line',#52,#54) ;
#258=LINE('Line',#255,#257) ;
#272=LINE('Line',#269,#271) ;
#329=LINE('Line',#326,#328) ;
#343=LINE('Line',#340,#342) ;
#372=LINE('Line',#369,#371) ;
#379=LINE('Line',#376,#378) ;
#415=LINE('Line',#412,#414) ;
#429=LINE('Line',#426,#428) ;
#458=LINE('Line',#455,#457) ;
#465=LINE('Line',#462,#464) ;
#501=LINE('Line',#498,#500) ;
#515=LINE('Line',#512,#514) ;
#548=LINE('Line',#545,#547) ;
#557=LINE('Line',#554,#556) ;
#564=LINE('Line',#561,#563) ;
#571=LINE('Line',#568,#570) ;
#578=LINE('Line',#575,#577) ;
#585=LINE('Line',#582,#584) ;
#632=LINE('Line',#629,#631) ;
#658=LINE('Line',#655,#657) ;
#704=LINE('Line',#701,#703) ;
#741=LINE('Line',#738,#740) ;
#777=LINE('Line',#774,#776) ;
#823=LINE('Line',#820,#822) ;
#870=LINE('Line',#867,#869) ;
#884=LINE('Line',#881,#883) ;
#913=LINE('Line',#910,#912) ;
#920=LINE('Line',#917,#919) ;
#948=LINE('Line',#945,#947) ;
#962=LINE('Line',#959,#961) ;
#991=LINE('Line',#988,#990) ;
#998=LINE('Line',#995,#997) ;
#48=CIRCLE('generated circle',#47,4.) ;
#62=CIRCLE('generated circle',#61,4.) ;
#74=CIRCLE('generated circle',#73,4.) ;
#79=CIRCLE('generated circle',#78,4.) ;
#100=CIRCLE('generated circle',#99,2.72999999888) ;
#109=CIRCLE('generated circle',#108,2.72999999888) ;
#124=CIRCLE('generated circle',#123,0.5) ;
#131=CIRCLE('generated circle',#130,0.5) ;
#138=CIRCLE('generated circle',#137,3.5) ;
#155=CIRCLE('generated circle',#154,3.5) ;
#172=CIRCLE('generated circle',#171,0.53) ;
#179=CIRCLE('generated circle',#178,2.2) ;
#186=CIRCLE('generated circle',#185,0.53) ;
#203=CIRCLE('generated circle',#202,2.2) ;
#215=CIRCLE('generated circle',#214,0.5) ;
#222=CIRCLE('generated circle',#221,4.) ;
#229=CIRCLE('generated circle',#228,0.5) ;
#241=CIRCLE('generated circle',#240,4.) ;
#265=CIRCLE('generated circle',#264,2.2) ;
#284=CIRCLE('generated circle',#283,2.2) ;
#301=CIRCLE('generated circle',#300,6.49999999951) ;
#310=CIRCLE('generated circle',#309,6.49999999951) ;
#336=CIRCLE('generated circle',#335,3.00000000002) ;
#355=CIRCLE('generated circle',#354,3.00000000002) ;
#386=CIRCLE('generated circle',#385,6.5) ;
#398=CIRCLE('generated circle',#397,6.5) ;
#422=CIRCLE('generated circle',#421,3.) ;
#441=CIRCLE('generated circle',#440,3.) ;
#472=CIRCLE('generated circle',#471,5.5) ;
#484=CIRCLE('generated circle',#483,5.5) ;
#508=CIRCLE('generated circle',#507,2.2) ;
#527=CIRCLE('generated circle',#526,2.2) ;
#608=CIRCLE('generated circle',#607,0.92723919929) ;
#617=CIRCLE('generated circle',#616,0.92723919929) ;
#877=CIRCLE('generated circle',#876,0.5) ;
#896=CIRCLE('generated circle',#895,0.5) ;
#955=CIRCLE('generated circle',#954,0.5) ;
#974=CIRCLE('generated circle',#973,0.5) ;
#92=PLANE('',#91) ;
#297=PLANE('',#296) ;
#540=PLANE('',#539) ;
#600=PLANE('',#599) ;
#628=PLANE('',#627) ;
#671=PLANE('',#670) ;
#718=PLANE('',#717) ;
#754=PLANE('',#753) ;
#790=PLANE('',#789) ;
#837=PLANE('',#836) ;
#35=CYLINDRICAL_SURFACE('generated cylinder',#34,4.) ;
#254=CYLINDRICAL_SURFACE('generated cylinder',#253,2.2) ;
#368=CYLINDRICAL_SURFACE('generated cylinder',#367,6.5) ;
#411=CYLINDRICAL_SURFACE('generated cylinder',#410,3.) ;
#944=CYLINDRICAL_SURFACE('generated cylinder',#943,0.5) ;
#325=CONICAL_SURFACE('Cone',#324,2.2,0.523598775598) ;
#454=CONICAL_SURFACE('Cone',#453,5.5,0.785398163397) ;
#497=CONICAL_SURFACE('Cone',#496,2.2,0.785398163397) ;
#866=CONICAL_SURFACE('Cone',#865,0.5,0.523598775598) ;
#909=CONICAL_SURFACE('Cone',#908,0.,1.0471975512) ;
#987=CONICAL_SURFACE('Cone',#986,0.,1.2217304764) ;
#120=TOROIDAL_SURFACE('homeo Torus',#119,4.,0.5) ;
#151=TOROIDAL_SURFACE('homeo Torus',#150,4.,0.5) ;
#168=TOROIDAL_SURFACE('homeo Torus',#167,2.73,0.53) ;
#199=TOROIDAL_SURFACE('homeo Torus',#198,2.73,0.53) ;
#114=FACE_BOUND('',#111,.T.) ;
#319=FACE_BOUND('',#316,.T.) ;
#594=FACE_BOUND('',#587,.T.) ;
#622=FACE_BOUND('',#619,.T.) ;
#44=EDGE_CURVE('',#41,#43,#39,.T.) ;
#51=EDGE_CURVE('',#50,#43,#48,.T.) ;
#58=EDGE_CURVE('',#57,#50,#55,.T.) ;
#63=EDGE_CURVE('',#57,#41,#62,.T.) ;
#75=EDGE_CURVE('',#43,#50,#74,.T.) ;
#80=EDGE_CURVE('',#41,#57,#79,.T.) ;
#105=EDGE_CURVE('',#102,#104,#100,.T.) ;
#110=EDGE_CURVE('',#104,#102,#109,.T.) ;
#127=EDGE_CURVE('',#126,#41,#124,.F.) ;
#134=EDGE_CURVE('',#133,#57,#131,.F.) ;
#139=EDGE_CURVE('',#126,#133,#138,.F.) ;
#156=EDGE_CURVE('',#133,#126,#155,.F.) ;
#175=EDGE_CURVE('',#104,#174,#172,.F.) ;
#182=EDGE_CURVE('',#181,#174,#179,.T.) ;
#187=EDGE_CURVE('',#102,#181,#186,.F.) ;
#204=EDGE_CURVE('',#174,#181,#203,.T.) ;
#218=EDGE_CURVE('',#217,#133,#215,.F.) ;
#225=EDGE_CURVE('',#217,#224,#222,.T.) ;
#230=EDGE_CURVE('',#224,#126,#229,.F.) ;
#242=EDGE_CURVE('',#224,#217,#241,.T.) ;
#261=EDGE_CURVE('',#174,#260,#258,.T.) ;
#268=EDGE_CURVE('',#267,#260,#265,.T.) ;
#273=EDGE_CURVE('',#181,#267,#272,.T.) ;
#285=EDGE_CURVE('',#260,#267,#284,.T.) ;
#306=EDGE_CURVE('',#303,#305,#301,.T.) ;
#311=EDGE_CURVE('',#305,#303,#310,.T.) ;
#332=EDGE_CURVE('',#260,#331,#329,.T.) ;
#339=EDGE_CURVE('',#338,#331,#336,.T.) ;
#344=EDGE_CURVE('',#267,#338,#343,.T.) ;
#356=EDGE_CURVE('',#331,#338,#355,.T.) ;
#375=EDGE_CURVE('',#374,#305,#372,.T.) ;
#382=EDGE_CURVE('',#381,#303,#379,.T.) ;
#387=EDGE_CURVE('',#381,#374,#386,.T.) ;
#399=EDGE_CURVE('',#374,#381,#398,.T.) ;
#418=EDGE_CURVE('',#331,#417,#415,.T.) ;
#425=EDGE_CURVE('',#424,#417,#422,.T.) ;
#430=EDGE_CURVE('',#338,#424,#429,.T.) ;
#442=EDGE_CURVE('',#417,#424,#441,.T.) ;
#461=EDGE_CURVE('',#460,#374,#458,.T.) ;
#468=EDGE_CURVE('',#467,#381,#465,.T.) ;
#473=EDGE_CURVE('',#467,#460,#472,.T.) ;
#485=EDGE_CURVE('',#460,#467,#484,.T.) ;
#504=EDGE_CURVE('',#417,#503,#501,.F.) ;
#511=EDGE_CURVE('',#510,#503,#508,.F.) ;
#516=EDGE_CURVE('',#424,#510,#515,.F.) ;
#528=EDGE_CURVE('',#503,#510,#527,.F.) ;
#553=EDGE_CURVE('',#550,#552,#548,.T.) ;
#560=EDGE_CURVE('',#552,#559,#557,.T.) ;
#567=EDGE_CURVE('',#559,#566,#564,.T.) ;
#574=EDGE_CURVE('',#566,#573,#571,.T.) ;
#581=EDGE_CURVE('',#573,#580,#578,.T.) ;
#586=EDGE_CURVE('',#580,#550,#585,.T.) ;
#613=EDGE_CURVE('',#610,#612,#608,.T.) ;
#618=EDGE_CURVE('',#612,#610,#617,.T.) ;
#635=EDGE_CURVE('',#550,#634,#632,.T.) ;
#654=EDGE_CURVE('',#653,#634,#636,.T.) ;
#659=EDGE_CURVE('',#552,#653,#658,.T.) ;
#690=EDGE_CURVE('',#689,#653,#672,.T.) ;
#700=EDGE_CURVE('',#689,#699,#691,.T.) ;
#705=EDGE_CURVE('',#559,#699,#704,.T.) ;
#737=EDGE_CURVE('',#736,#699,#719,.T.) ;
#742=EDGE_CURVE('',#566,#736,#741,.T.) ;
#773=EDGE_CURVE('',#772,#736,#755,.T.) ;
#778=EDGE_CURVE('',#573,#772,#777,.T.) ;
#809=EDGE_CURVE('',#808,#772,#791,.T.) ;
#819=EDGE_CURVE('',#808,#818,#810,.T.) ;
#824=EDGE_CURVE('',#580,#818,#823,.T.) ;
#854=EDGE_CURVE('',#634,#818,#838,.T.) ;
#873=EDGE_CURVE('',#612,#872,#870,.F.) ;
#880=EDGE_CURVE('',#879,#872,#877,.T.) ;
#885=EDGE_CURVE('',#610,#879,#884,.F.) ;
#897=EDGE_CURVE('',#872,#879,#896,.T.) ;
#916=EDGE_CURVE('',#915,#808,#913,.T.) ;
#921=EDGE_CURVE('',#915,#689,#920,.T.) ;
#951=EDGE_CURVE('',#872,#950,#948,.F.) ;
#958=EDGE_CURVE('',#957,#950,#955,.T.) ;
#963=EDGE_CURVE('',#879,#957,#962,.F.) ;
#975=EDGE_CURVE('',#950,#957,#974,.T.) ;
#994=EDGE_CURVE('',#950,#993,#991,.F.) ;
#999=EDGE_CURVE('',#957,#993,#998,.F.) ;
#30=CLOSED_SHELL('Closed Shell',(#70,#87,#115,#146,#163,#194,#211,#237,#249,#280,#292,#320,#351,#363,#394,#406,#437,#449,#480,#492,#523,#535,#595,#623,#666,#713,#749,#785,#832,#861,#892,#904,#930,#939,#970,#982,#1005,#1011)) ;
#65=ORIENTED_EDGE('',*,*,#44,.T.) ;
#66=ORIENTED_EDGE('',*,*,#51,.F.) ;
#67=ORIENTED_EDGE('',*,*,#58,.F.) ;
#68=ORIENTED_EDGE('',*,*,#63,.T.) ;
#82=ORIENTED_EDGE('',*,*,#58,.T.) ;
#83=ORIENTED_EDGE('',*,*,#75,.F.) ;
#84=ORIENTED_EDGE('',*,*,#44,.F.) ;
#85=ORIENTED_EDGE('',*,*,#80,.T.) ;
#94=ORIENTED_EDGE('',*,*,#75,.T.) ;
#95=ORIENTED_EDGE('',*,*,#51,.T.) ;
#112=ORIENTED_EDGE('',*,*,#105,.F.) ;
#113=ORIENTED_EDGE('',*,*,#110,.F.) ;
#141=ORIENTED_EDGE('',*,*,#127,.T.) ;
#142=ORIENTED_EDGE('',*,*,#63,.F.) ;
#143=ORIENTED_EDGE('',*,*,#134,.F.) ;
#144=ORIENTED_EDGE('',*,*,#139,.F.) ;
#158=ORIENTED_EDGE('',*,*,#134,.T.) ;
#159=ORIENTED_EDGE('',*,*,#80,.F.) ;
#160=ORIENTED_EDGE('',*,*,#127,.F.) ;
#161=ORIENTED_EDGE('',*,*,#156,.F.) ;
#189=ORIENTED_EDGE('',*,*,#175,.T.) ;
#190=ORIENTED_EDGE('',*,*,#182,.F.) ;
#191=ORIENTED_EDGE('',*,*,#187,.F.) ;
#192=ORIENTED_EDGE('',*,*,#105,.T.) ;
#206=ORIENTED_EDGE('',*,*,#187,.T.) ;
#207=ORIENTED_EDGE('',*,*,#204,.F.) ;
#208=ORIENTED_EDGE('',*,*,#175,.F.) ;
#209=ORIENTED_EDGE('',*,*,#110,.T.) ;
#232=ORIENTED_EDGE('',*,*,#218,.F.) ;
#233=ORIENTED_EDGE('',*,*,#225,.T.) ;
#234=ORIENTED_EDGE('',*,*,#230,.T.) ;
#235=ORIENTED_EDGE('',*,*,#139,.T.) ;
#244=ORIENTED_EDGE('',*,*,#230,.F.) ;
#245=ORIENTED_EDGE('',*,*,#242,.T.) ;
#246=ORIENTED_EDGE('',*,*,#218,.T.) ;
#247=ORIENTED_EDGE('',*,*,#156,.T.) ;
#275=ORIENTED_EDGE('',*,*,#261,.T.) ;
#276=ORIENTED_EDGE('',*,*,#268,.F.) ;
#277=ORIENTED_EDGE('',*,*,#273,.F.) ;
#278=ORIENTED_EDGE('',*,*,#182,.T.) ;
#287=ORIENTED_EDGE('',*,*,#273,.T.) ;
#288=ORIENTED_EDGE('',*,*,#285,.F.) ;
#289=ORIENTED_EDGE('',*,*,#261,.F.) ;
#290=ORIENTED_EDGE('',*,*,#204,.T.) ;
#313=ORIENTED_EDGE('',*,*,#306,.T.) ;
#314=ORIENTED_EDGE('',*,*,#311,.T.) ;
#317=ORIENTED_EDGE('',*,*,#225,.F.) ;
#318=ORIENTED_EDGE('',*,*,#242,.F.) ;
#346=ORIENTED_EDGE('',*,*,#332,.T.) ;
#347=ORIENTED_EDGE('',*,*,#339,.F.) ;
#348=ORIENTED_EDGE('',*,*,#344,.F.) ;
#349=ORIENTED_EDGE('',*,*,#268,.T.) ;
#358=ORIENTED_EDGE('',*,*,#344,.T.) ;
#359=ORIENTED_EDGE('',*,*,#356,.F.) ;
#360=ORIENTED_EDGE('',*,*,#332,.F.) ;
#361=ORIENTED_EDGE('',*,*,#285,.T.) ;
#389=ORIENTED_EDGE('',*,*,#375,.T.) ;
#390=ORIENTED_EDGE('',*,*,#306,.F.) ;
#391=ORIENTED_EDGE('',*,*,#382,.F.) ;
#392=ORIENTED_EDGE('',*,*,#387,.T.) ;
#401=ORIENTED_EDGE('',*,*,#382,.T.) ;
#402=ORIENTED_EDGE('',*,*,#311,.F.) ;
#403=ORIENTED_EDGE('',*,*,#375,.F.) ;
#404=ORIENTED_EDGE('',*,*,#399,.T.) ;
#432=ORIENTED_EDGE('',*,*,#418,.T.) ;
#433=ORIENTED_EDGE('',*,*,#425,.F.) ;
#434=ORIENTED_EDGE('',*,*,#430,.F.) ;
#435=ORIENTED_EDGE('',*,*,#339,.T.) ;
#444=ORIENTED_EDGE('',*,*,#430,.T.) ;
#445=ORIENTED_EDGE('',*,*,#442,.F.) ;
#446=ORIENTED_EDGE('',*,*,#418,.F.) ;
#447=ORIENTED_EDGE('',*,*,#356,.T.) ;
#475=ORIENTED_EDGE('',*,*,#461,.T.) ;
#476=ORIENTED_EDGE('',*,*,#387,.F.) ;
#477=ORIENTED_EDGE('',*,*,#468,.F.) ;
#478=ORIENTED_EDGE('',*,*,#473,.T.) ;
#487=ORIENTED_EDGE('',*,*,#468,.T.) ;
#488=ORIENTED_EDGE('',*,*,#399,.F.) ;
#489=ORIENTED_EDGE('',*,*,#461,.F.) ;
#490=ORIENTED_EDGE('',*,*,#485,.T.) ;
#518=ORIENTED_EDGE('',*,*,#504,.T.) ;
#519=ORIENTED_EDGE('',*,*,#511,.F.) ;
#520=ORIENTED_EDGE('',*,*,#516,.F.) ;
#521=ORIENTED_EDGE('',*,*,#425,.T.) ;
#530=ORIENTED_EDGE('',*,*,#516,.T.) ;
#531=ORIENTED_EDGE('',*,*,#528,.F.) ;
#532=ORIENTED_EDGE('',*,*,#504,.F.) ;
#533=ORIENTED_EDGE('',*,*,#442,.T.) ;
#542=ORIENTED_EDGE('',*,*,#473,.F.) ;
#543=ORIENTED_EDGE('',*,*,#485,.F.) ;
#588=ORIENTED_EDGE('',*,*,#553,.T.) ;
#589=ORIENTED_EDGE('',*,*,#560,.T.) ;
#590=ORIENTED_EDGE('',*,*,#567,.T.) ;
#591=ORIENTED_EDGE('',*,*,#574,.T.) ;
#592=ORIENTED_EDGE('',*,*,#581,.T.) ;
#593=ORIENTED_EDGE('',*,*,#586,.T.) ;
#602=ORIENTED_EDGE('',*,*,#528,.T.) ;
#603=ORIENTED_EDGE('',*,*,#511,.T.) ;
#620=ORIENTED_EDGE('',*,*,#613,.F.) ;
#621=ORIENTED_EDGE('',*,*,#618,.F.) ;
#661=ORIENTED_EDGE('',*,*,#635,.T.) ;
#662=ORIENTED_EDGE('',*,*,#654,.F.) ;
#663=ORIENTED_EDGE('',*,*,#659,.F.) ;
#664=ORIENTED_EDGE('',*,*,#553,.F.) ;
#707=ORIENTED_EDGE('',*,*,#690,.F.) ;
#708=ORIENTED_EDGE('',*,*,#700,.T.) ;
#709=ORIENTED_EDGE('',*,*,#705,.F.) ;
#710=ORIENTED_EDGE('',*,*,#560,.F.) ;
#711=ORIENTED_EDGE('',*,*,#659,.T.) ;
#744=ORIENTED_EDGE('',*,*,#737,.F.) ;
#745=ORIENTED_EDGE('',*,*,#742,.F.) ;
#746=ORIENTED_EDGE('',*,*,#567,.F.) ;
#747=ORIENTED_EDGE('',*,*,#705,.T.) ;
#780=ORIENTED_EDGE('',*,*,#773,.F.) ;
#781=ORIENTED_EDGE('',*,*,#778,.F.) ;
#782=ORIENTED_EDGE('',*,*,#574,.F.) ;
#783=ORIENTED_EDGE('',*,*,#742,.T.) ;
#826=ORIENTED_EDGE('',*,*,#809,.F.) ;
#827=ORIENTED_EDGE('',*,*,#819,.T.) ;
#828=ORIENTED_EDGE('',*,*,#824,.F.) ;
#829=ORIENTED_EDGE('',*,*,#581,.F.) ;
#830=ORIENTED_EDGE('',*,*,#778,.T.) ;
#856=ORIENTED_EDGE('',*,*,#854,.F.) ;
#857=ORIENTED_EDGE('',*,*,#635,.F.) ;
#858=ORIENTED_EDGE('',*,*,#586,.F.) ;
#859=ORIENTED_EDGE('',*,*,#824,.T.) ;
#887=ORIENTED_EDGE('',*,*,#873,.T.) ;
#888=ORIENTED_EDGE('',*,*,#880,.F.) ;
#889=ORIENTED_EDGE('',*,*,#885,.F.) ;
#890=ORIENTED_EDGE('',*,*,#613,.T.) ;
#899=ORIENTED_EDGE('',*,*,#885,.T.) ;
#900=ORIENTED_EDGE('',*,*,#897,.F.) ;
#901=ORIENTED_EDGE('',*,*,#873,.F.) ;
#902=ORIENTED_EDGE('',*,*,#618,.T.) ;
#923=ORIENTED_EDGE('',*,*,#819,.F.) ;
#924=ORIENTED_EDGE('',*,*,#916,.F.) ;
#925=ORIENTED_EDGE('',*,*,#921,.T.) ;
#926=ORIENTED_EDGE('',*,*,#690,.T.) ;
#927=ORIENTED_EDGE('',*,*,#654,.T.) ;
#928=ORIENTED_EDGE('',*,*,#854,.T.) ;
#932=ORIENTED_EDGE('',*,*,#737,.T.) ;
#933=ORIENTED_EDGE('',*,*,#700,.F.) ;
#934=ORIENTED_EDGE('',*,*,#921,.F.) ;
#935=ORIENTED_EDGE('',*,*,#916,.T.) ;
#936=ORIENTED_EDGE('',*,*,#809,.T.) ;
#937=ORIENTED_EDGE('',*,*,#773,.T.) ;
#965=ORIENTED_EDGE('',*,*,#951,.T.) ;
#966=ORIENTED_EDGE('',*,*,#958,.F.) ;
#967=ORIENTED_EDGE('',*,*,#963,.F.) ;
#968=ORIENTED_EDGE('',*,*,#880,.T.) ;
#977=ORIENTED_EDGE('',*,*,#963,.T.) ;
#978=ORIENTED_EDGE('',*,*,#975,.F.) ;
#979=ORIENTED_EDGE('',*,*,#951,.F.) ;
#980=ORIENTED_EDGE('',*,*,#897,.T.) ;
#1001=ORIENTED_EDGE('',*,*,#994,.T.) ;
#1002=ORIENTED_EDGE('',*,*,#999,.F.) ;
#1003=ORIENTED_EDGE('',*,*,#958,.T.) ;
#1007=ORIENTED_EDGE('',*,*,#999,.T.) ;
#1008=ORIENTED_EDGE('',*,*,#994,.F.) ;
#1009=ORIENTED_EDGE('',*,*,#975,.T.) ;
#64=EDGE_LOOP('',(#65,#66,#67,#68)) ;
#81=EDGE_LOOP('',(#82,#83,#84,#85)) ;
#93=EDGE_LOOP('',(#94,#95)) ;
#111=EDGE_LOOP('',(#112,#113)) ;
#140=EDGE_LOOP('',(#141,#142,#143,#144)) ;
#157=EDGE_LOOP('',(#158,#159,#160,#161)) ;
#188=EDGE_LOOP('',(#189,#190,#191,#192)) ;
#205=EDGE_LOOP('',(#206,#207,#208,#209)) ;
#231=EDGE_LOOP('',(#232,#233,#234,#235)) ;
#243=EDGE_LOOP('',(#244,#245,#246,#247)) ;
#274=EDGE_LOOP('',(#275,#276,#277,#278)) ;
#286=EDGE_LOOP('',(#287,#288,#289,#290)) ;
#312=EDGE_LOOP('',(#313,#314)) ;
#316=EDGE_LOOP('',(#317,#318)) ;
#345=EDGE_LOOP('',(#346,#347,#348,#349)) ;
#357=EDGE_LOOP('',(#358,#359,#360,#361)) ;
#388=EDGE_LOOP('',(#389,#390,#391,#392)) ;
#400=EDGE_LOOP('',(#401,#402,#403,#404)) ;
#431=EDGE_LOOP('',(#432,#433,#434,#435)) ;
#443=EDGE_LOOP('',(#444,#445,#446,#447)) ;
#474=EDGE_LOOP('',(#475,#476,#477,#478)) ;
#486=EDGE_LOOP('',(#487,#488,#489,#490)) ;
#517=EDGE_LOOP('',(#518,#519,#520,#521)) ;
#529=EDGE_LOOP('',(#530,#531,#532,#533)) ;
#541=EDGE_LOOP('',(#542,#543)) ;
#587=EDGE_LOOP('',(#588,#589,#590,#591,#592,#593)) ;
#601=EDGE_LOOP('',(#602,#603)) ;
#619=EDGE_LOOP('',(#620,#621)) ;
#660=EDGE_LOOP('',(#661,#662,#663,#664)) ;
#706=EDGE_LOOP('',(#707,#708,#709,#710,#711)) ;
#743=EDGE_LOOP('',(#744,#745,#746,#747)) ;
#779=EDGE_LOOP('',(#780,#781,#782,#783)) ;
#825=EDGE_LOOP('',(#826,#827,#828,#829,#830)) ;
#855=EDGE_LOOP('',(#856,#857,#858,#859)) ;
#886=EDGE_LOOP('',(#887,#888,#889,#890)) ;
#898=EDGE_LOOP('',(#899,#900,#901,#902)) ;
#922=EDGE_LOOP('',(#923,#924,#925,#926,#927,#928)) ;
#931=EDGE_LOOP('',(#932,#933,#934,#935,#936,#937)) ;
#964=EDGE_LOOP('',(#965,#966,#967,#968)) ;
#976=EDGE_LOOP('',(#977,#978,#979,#980)) ;
#1000=EDGE_LOOP('',(#1001,#1002,#1003)) ;
#1006=EDGE_LOOP('',(#1007,#1008,#1009)) ;
#21=MANIFOLD_SOLID_BREP('Body.2',#30) ;
#41=VERTEX_POINT('',#40) ;
#43=VERTEX_POINT('',#42) ;
#50=VERTEX_POINT('',#49) ;
#57=VERTEX_POINT('',#56) ;
#102=VERTEX_POINT('',#101) ;
#104=VERTEX_POINT('',#103) ;
#126=VERTEX_POINT('',#125) ;
#133=VERTEX_POINT('',#132) ;
#174=VERTEX_POINT('',#173) ;
#181=VERTEX_POINT('',#180) ;
#217=VERTEX_POINT('',#216) ;
#224=VERTEX_POINT('',#223) ;
#260=VERTEX_POINT('',#259) ;
#267=VERTEX_POINT('',#266) ;
#303=VERTEX_POINT('',#302) ;
#305=VERTEX_POINT('',#304) ;
#331=VERTEX_POINT('',#330) ;
#338=VERTEX_POINT('',#337) ;
#374=VERTEX_POINT('',#373) ;
#381=VERTEX_POINT('',#380) ;
#417=VERTEX_POINT('',#416) ;
#424=VERTEX_POINT('',#423) ;
#460=VERTEX_POINT('',#459) ;
#467=VERTEX_POINT('',#466) ;
#503=VERTEX_POINT('',#502) ;
#510=VERTEX_POINT('',#509) ;
#550=VERTEX_POINT('',#549) ;
#552=VERTEX_POINT('',#551) ;
#559=VERTEX_POINT('',#558) ;
#566=VERTEX_POINT('',#565) ;
#573=VERTEX_POINT('',#572) ;
#580=VERTEX_POINT('',#579) ;
#610=VERTEX_POINT('',#609) ;
#612=VERTEX_POINT('',#611) ;
#634=VERTEX_POINT('',#633) ;
#653=VERTEX_POINT('',#652) ;
#689=VERTEX_POINT('',#688) ;
#699=VERTEX_POINT('',#698) ;
#736=VERTEX_POINT('',#735) ;
#772=VERTEX_POINT('',#771) ;
#808=VERTEX_POINT('',#807) ;
#818=VERTEX_POINT('',#817) ;
#872=VERTEX_POINT('',#871) ;
#879=VERTEX_POINT('',#878) ;
#915=VERTEX_POINT('',#914) ;
#950=VERTEX_POINT('',#949) ;
#957=VERTEX_POINT('',#956) ;
#993=VERTEX_POINT('',#992) ;
#70=ADVANCED_FACE('Body.2',(#69),#35,.T.) ;
#87=ADVANCED_FACE('Body.2',(#86),#35,.T.) ;
#115=ADVANCED_FACE('Body.2',(#96,#114),#92,.T.) ;
#146=ADVANCED_FACE('Body.2',(#145),#120,.F.) ;
#163=ADVANCED_FACE('Body.2',(#162),#151,.F.) ;
#194=ADVANCED_FACE('Body.2',(#193),#168,.F.) ;
#211=ADVANCED_FACE('Body.2',(#210),#199,.F.) ;
#237=ADVANCED_FACE('Body.2',(#236),#120,.F.) ;
#249=ADVANCED_FACE('Body.2',(#248),#151,.F.) ;
#280=ADVANCED_FACE('Body.2',(#279),#254,.T.) ;
#292=ADVANCED_FACE('Body.2',(#291),#254,.T.) ;
#320=ADVANCED_FACE('Body.2',(#315,#319),#297,.T.) ;
#351=ADVANCED_FACE('Body.2',(#350),#325,.T.) ;
#363=ADVANCED_FACE('Body.2',(#362),#325,.T.) ;
#394=ADVANCED_FACE('Body.2',(#393),#368,.T.) ;
#406=ADVANCED_FACE('Body.2',(#405),#368,.T.) ;
#437=ADVANCED_FACE('Body.2',(#436),#411,.T.) ;
#449=ADVANCED_FACE('Body.2',(#448),#411,.T.) ;
#480=ADVANCED_FACE('Body.2',(#479),#454,.T.) ;
#492=ADVANCED_FACE('Body.2',(#491),#454,.T.) ;
#523=ADVANCED_FACE('Body.2',(#522),#497,.T.) ;
#535=ADVANCED_FACE('Body.2',(#534),#497,.T.) ;
#595=ADVANCED_FACE('Body.2',(#544,#594),#540,.F.) ;
#623=ADVANCED_FACE('Body.2',(#604,#622),#600,.T.) ;
#666=ADVANCED_FACE('Body.2',(#665),#628,.F.) ;
#713=ADVANCED_FACE('Body.2',(#712),#671,.F.) ;
#749=ADVANCED_FACE('Body.2',(#748),#718,.F.) ;
#785=ADVANCED_FACE('Body.2',(#784),#754,.F.) ;
#832=ADVANCED_FACE('Body.2',(#831),#790,.F.) ;
#861=ADVANCED_FACE('Body.2',(#860),#837,.F.) ;
#892=ADVANCED_FACE('Body.2',(#891),#866,.F.) ;
#904=ADVANCED_FACE('Body.2',(#903),#866,.F.) ;
#930=ADVANCED_FACE('Body.2',(#929),#909,.F.) ;
#939=ADVANCED_FACE('Body.2',(#938),#909,.F.) ;
#970=ADVANCED_FACE('Body.2',(#969),#944,.F.) ;
#982=ADVANCED_FACE('Body.2',(#981),#944,.F.) ;
#1005=ADVANCED_FACE('Body.2',(#1004),#987,.F.) ;
#1011=ADVANCED_FACE('Body.2',(#1010),#987,.F.) ;
#4=APPLICATION_PROTOCOL_DEFINITION('international standard','ap242_managed_model_based_3d_engineering',2014,#1) ;
#636=B_SPLINE_CURVE_WITH_KNOTS('',5,(#637,#638,#639,#640,#641,#642,#643,#644,#645,#646,#647,#648,#649,#650,#651),.UNSPECIFIED.,.F.,.U.,(6,3,3,3,6),(0.,0.0389358943624,30.9433857255,69.8809890937,104.792915872),.UNSPECIFIED.) ;
#672=B_SPLINE_CURVE_WITH_KNOTS('',5,(#673,#674,#675,#676,#677,#678,#679,#680,#681,#682,#683,#684,#685,#686,#687),.UNSPECIFIED.,.F.,.U.,(6,3,3,3,6),(0.,0.0389656519829,30.942645662,69.8801834782,102.42577932),.UNSPECIFIED.) ;
#691=B_SPLINE_CURVE_WITH_KNOTS('',5,(#692,#693,#694,#695,#696,#697),.UNSPECIFIED.,.F.,.U.,(6,6),(0.,0.0912601495865),.UNSPECIFIED.) ;
#719=B_SPLINE_CURVE_WITH_KNOTS('',5,(#720,#721,#722,#723,#724,#725,#726,#727,#728,#729,#730,#731,#732,#733,#734),.UNSPECIFIED.,.F.,.U.,(6,3,3,3,6),(0.,0.0389358943625,30.9433857247,69.8809890959,104.792915874),.UNSPECIFIED.) ;
#755=B_SPLINE_CURVE_WITH_KNOTS('',5,(#756,#757,#758,#759,#760,#761,#762,#763,#764,#765,#766,#767,#768,#769,#770),.UNSPECIFIED.,.F.,.U.,(6,3,3,3,6),(0.,0.0389358943624,30.9433857254,69.8809890937,104.792915872),.UNSPECIFIED.) ;
#791=B_SPLINE_CURVE_WITH_KNOTS('',5,(#792,#793,#794,#795,#796,#797,#798,#799,#800,#801,#802,#803,#804,#805,#806),.UNSPECIFIED.,.F.,.U.,(6,3,3,3,6),(0.,0.0389656519829,30.9426456613,69.8801834787,102.425779323),.UNSPECIFIED.) ;
#810=B_SPLINE_CURVE_WITH_KNOTS('',5,(#811,#812,#813,#814,#815,#816),.UNSPECIFIED.,.F.,.U.,(6,6),(0.,0.0912601495865),.UNSPECIFIED.) ;
#838=B_SPLINE_CURVE_WITH_KNOTS('',5,(#839,#840,#841,#842,#843,#844,#845,#846,#847,#848,#849,#850,#851,#852,#853),.UNSPECIFIED.,.F.,.U.,(6,3,3,3,6),(0.,0.0389358943624,30.9433857276,69.8809890983,104.792915876),.UNSPECIFIED.) ;
#22=COLOUR_RGB('Colour',0.882352941176,0.882352941176,0.882352941176) ;
#69=FACE_OUTER_BOUND('',#64,.T.) ;
#86=FACE_OUTER_BOUND('',#81,.T.) ;
#96=FACE_OUTER_BOUND('',#93,.T.) ;
#145=FACE_OUTER_BOUND('',#140,.T.) ;
#162=FACE_OUTER_BOUND('',#157,.T.) ;
#193=FACE_OUTER_BOUND('',#188,.T.) ;
#210=FACE_OUTER_BOUND('',#205,.T.) ;
#236=FACE_OUTER_BOUND('',#231,.T.) ;
#248=FACE_OUTER_BOUND('',#243,.T.) ;
#279=FACE_OUTER_BOUND('',#274,.T.) ;
#291=FACE_OUTER_BOUND('',#286,.T.) ;
#315=FACE_OUTER_BOUND('',#312,.T.) ;
#350=FACE_OUTER_BOUND('',#345,.T.) ;
#362=FACE_OUTER_BOUND('',#357,.T.) ;
#393=FACE_OUTER_BOUND('',#388,.T.) ;
#405=FACE_OUTER_BOUND('',#400,.T.) ;
#436=FACE_OUTER_BOUND('',#431,.T.) ;
#448=FACE_OUTER_BOUND('',#443,.T.) ;
#479=FACE_OUTER_BOUND('',#474,.T.) ;
#491=FACE_OUTER_BOUND('',#486,.T.) ;
#522=FACE_OUTER_BOUND('',#517,.T.) ;
#534=FACE_OUTER_BOUND('',#529,.T.) ;
#544=FACE_OUTER_BOUND('',#541,.T.) ;
#604=FACE_OUTER_BOUND('',#601,.T.) ;
#665=FACE_OUTER_BOUND('',#660,.T.) ;
#712=FACE_OUTER_BOUND('',#706,.T.) ;
#748=FACE_OUTER_BOUND('',#743,.T.) ;
#784=FACE_OUTER_BOUND('',#779,.T.) ;
#831=FACE_OUTER_BOUND('',#825,.T.) ;
#860=FACE_OUTER_BOUND('',#855,.T.) ;
#891=FACE_OUTER_BOUND('',#886,.T.) ;
#903=FACE_OUTER_BOUND('',#898,.T.) ;
#929=FACE_OUTER_BOUND('',#922,.T.) ;
#938=FACE_OUTER_BOUND('',#931,.T.) ;
#969=FACE_OUTER_BOUND('',#964,.T.) ;
#981=FACE_OUTER_BOUND('',#976,.T.) ;
#1004=FACE_OUTER_BOUND('',#1000,.T.) ;
#1010=FACE_OUTER_BOUND('',#1006,.T.) ;
#7=PRODUCT_CATEGORY_RELATIONSHIP(' ',' ',#5,#6) ;
#17=PRODUCT_DEFINITION_FORMATION_WITH_SPECIFIED_SOURCE('A.1',' ',#16,.NOT_KNOWN.) ;
#20=SHAPE_DEFINITION_REPRESENTATION(#19,#13) ;
#8=(LENGTH_UNIT()NAMED_UNIT(*)SI_UNIT(.MILLI.,.METRE.)) ;
#9=(NAMED_UNIT(*)PLANE_ANGLE_UNIT()SI_UNIT($,.RADIAN.)) ;
#10=(NAMED_UNIT(*)SI_UNIT($,.STERADIAN.)SOLID_ANGLE_UNIT()) ;
#12=(GEOMETRIC_REPRESENTATION_CONTEXT(3)GLOBAL_UNCERTAINTY_ASSIGNED_CONTEXT((#11))GLOBAL_UNIT_ASSIGNED_CONTEXT((#8,#9,#10))REPRESENTATION_CONTEXT(' ',' ')) ;
ENDSEC;
END-ISO-10303-21;
