ISO-10303-21;
HEADER;
FILE_DESCRIPTION(('3DEXPERIENCE STEP','CAx-IF Rec.Pracs.--- Model Styling and Organization---1.5--- 2016-08-15','CAx-IF Rec.Pracs.---Supplemental Geometry---1.0---2011-11-01','CAx-IF Rec.Pracs.--- Composite Materials ---3.4---2017-06-13','CAx-IF Rec.Pracs.---Tessellated 3D Geometry---1.0---2015-12-17'),'2;1');

FILE_NAME('\\\\?\\D:\\School\\CarTech\\CTU.25\\Tutorials\\Model\\OEM\\Hex_Bolt_M6x60.stp','2024-09-26T02:37:49+00:00',('none'),('none'),'3DEXPERIENCE Platform3DEXPERIENCE R2024x HotFix 4.24','3DEXPERIENCE Platform STEP AP242 v3','none');

FILE_SCHEMA(('AP242_MANAGED_MODEL_BASED_3D_ENGINEERING_MIM_LF  {1 0 10303 442 1 1 4}'));

ENDSEC;
DATA;
#16=PRODUCT('Bolt_ISO_4014_M6x60','Bolt_ISO_4014_M6x60','',(#2)) ;
#2=PRODUCT_CONTEXT(' ',#1,'mechanical') ;
#1=APPLICATION_CONTEXT('managed model based 3d engineering') ;
#18=PRODUCT_DEFINITION('Bolt_ISO_4014_M6x60',' ',#17,#3) ;
#3=PRODUCT_DEFINITION_CONTEXT('part definition',#1,' ') ;
#19=PRODUCT_DEFINITION_SHAPE(' ',' ',#18) ;
#800=MECHANICAL_DESIGN_GEOMETRIC_PRESENTATION_REPRESENTATION(' ',(#29),#12) ;
#5=PRODUCT_CATEGORY('part','specification') ;
#13=SHAPE_REPRESENTATION(' ',(#15,#21),#12) ;
#14=CARTESIAN_POINT('',(0.,0.,0.)) ;
#31=CARTESIAN_POINT('Axis2P3D Location',(3.91886975727E-15,0.,-60.)) ;
#36=CARTESIAN_POINT('Axis2P3D Location',(3.91886975727E-15,0.,-60.)) ;
#40=CARTESIAN_POINT('Vertex',(1.17878754304,2.15775612405,-60.)) ;
#42=CARTESIAN_POINT('Vertex',(-1.17878754297,-2.15775612391,-60.0000000002)) ;
#45=CARTESIAN_POINT('Line Origine',(1695025.8365,3102723.9817,3535472.67656)) ;
#49=CARTESIAN_POINT('Vertex',(1.43827661574,2.63274768554,-59.4587500001)) ;
#52=CARTESIAN_POINT('Axis2P3D Location',(3.88572775327E-15,0.,-59.45875)) ;
#56=CARTESIAN_POINT('Vertex',(-1.43827661581,-2.63274768567,-59.45875)) ;
#59=CARTESIAN_POINT('Line Origine',(-1695025.8365,-3102723.9817,3535472.67656)) ;
#71=CARTESIAN_POINT('Axis2P3D Location',(3.91886975727E-15,0.,-60.)) ;
#77=CARTESIAN_POINT('Control Point',(1.17878754251,2.15775612369,-60.)) ;
#78=CARTESIAN_POINT('Control Point',(0.976550097934,2.2682389432,-60.)) ;
#79=CARTESIAN_POINT('Control Point',(0.761369298786,2.35502789739,-60.)) ;
#80=CARTESIAN_POINT('Control Point',(0.536911887752,2.41610560702,-60.)) ;
#81=CARTESIAN_POINT('Control Point',(0.0779335691546,2.48452670464,-60.)) ;
#82=CARTESIAN_POINT('Control Point',(-0.384428317765,2.44500602753,-60.)) ;
#83=CARTESIAN_POINT('Control Point',(-0.612272541468,2.39811655545,-60.)) ;
#84=CARTESIAN_POINT('Control Point',(-1.05266899715,2.25185136508,-60.)) ;
#85=CARTESIAN_POINT('Control Point',(-1.44732955279,2.0077541613,-60.)) ;
#86=CARTESIAN_POINT('Control Point',(-1.62942930573,1.86300853891,-60.)) ;
#87=CARTESIAN_POINT('Control Point',(-1.95627880444,1.53359702281,-60.)) ;
#88=CARTESIAN_POINT('Control Point',(-2.19813521703,1.13755930653,-60.)) ;
#89=CARTESIAN_POINT('Control Point',(-2.29522333076,0.926169822103,-60.)) ;
#90=CARTESIAN_POINT('Control Point',(-2.43804553316,0.484644782887,-60.)) ;
#91=CARTESIAN_POINT('Control Point',(-2.47494498549,0.0220663271522,-60.)) ;
#92=CARTESIAN_POINT('Control Point',(-2.46608582061,-0.21038394924,-60.)) ;
#93=CARTESIAN_POINT('Control Point',(-2.39408319629,-0.668814055874,-60.)) ;
#94=CARTESIAN_POINT('Control Point',(-2.21806885908,-1.09818493219,-60.)) ;
#95=CARTESIAN_POINT('Control Point',(-2.10517276148,-1.30157148171,-60.)) ;
#96=CARTESIAN_POINT('Control Point',(-1.87407605397,-1.62226166146,-60.)) ;
#97=CARTESIAN_POINT('Control Point',(-1.58517102685,-1.89005306307,-60.)) ;
#98=CARTESIAN_POINT('Control Point',(-1.45697493289,-1.99055066205,-60.)) ;
#99=CARTESIAN_POINT('Control Point',(-1.3210853901,-2.08001845525,-60.)) ;
#100=CARTESIAN_POINT('Control Point',(-1.17878754251,-2.15775612369,-60.)) ;
#107=CARTESIAN_POINT('Axis2P3D Location',(3.88572775327E-15,0.,-59.45875)) ;
#119=CARTESIAN_POINT('Axis2P3D Location',(1.95943487864E-15,0.,-28.)) ;
#124=CARTESIAN_POINT('Line Origine',(1.43827661581,2.63274768567,-28.)) ;
#128=CARTESIAN_POINT('Vertex',(1.43827661581,2.63274768567,-42.)) ;
#131=CARTESIAN_POINT('Axis2P3D Location',(2.81668763804E-15,4.94695906259E-28,-42.)) ;
#135=CARTESIAN_POINT('Vertex',(-1.43827661581,-2.63274768567,-42.)) ;
#138=CARTESIAN_POINT('Line Origine',(-1.43827661581,-2.63274768567,-28.)) ;
#150=CARTESIAN_POINT('Axis2P3D Location',(2.81668763804E-15,4.94695906259E-28,-42.)) ;
#162=CARTESIAN_POINT('Axis2P3D Location',(2.81668763804E-15,3.,-42.)) ;
#172=CARTESIAN_POINT('Control Point',(1.17878754251,2.15775612369,-42.)) ;
#173=CARTESIAN_POINT('Control Point',(0.976550097934,2.2682389432,-42.)) ;
#174=CARTESIAN_POINT('Control Point',(0.761369298787,2.35502789739,-42.)) ;
#175=CARTESIAN_POINT('Control Point',(0.536911887752,2.41610560702,-42.)) ;
#176=CARTESIAN_POINT('Control Point',(0.0779335691545,2.48452670464,-42.)) ;
#177=CARTESIAN_POINT('Control Point',(-0.384428317766,2.44500602753,-42.)) ;
#178=CARTESIAN_POINT('Control Point',(-0.612272541469,2.39811655545,-42.)) ;
#179=CARTESIAN_POINT('Control Point',(-1.05266899715,2.25185136508,-42.)) ;
#180=CARTESIAN_POINT('Control Point',(-1.44732955279,2.0077541613,-42.)) ;
#181=CARTESIAN_POINT('Control Point',(-1.62942930573,1.86300853891,-42.)) ;
#182=CARTESIAN_POINT('Control Point',(-1.95627880444,1.53359702281,-42.)) ;
#183=CARTESIAN_POINT('Control Point',(-2.19813521702,1.13755930653,-42.)) ;
#184=CARTESIAN_POINT('Control Point',(-2.29522333076,0.9261698221,-42.)) ;
#185=CARTESIAN_POINT('Control Point',(-2.43804553317,0.48464478288,-42.)) ;
#186=CARTESIAN_POINT('Control Point',(-2.4749449855,0.0220663271398,-42.)) ;
#187=CARTESIAN_POINT('Control Point',(-2.46608582061,-0.210383949229,-42.)) ;
#188=CARTESIAN_POINT('Control Point',(-2.3940831963,-0.668814055864,-42.)) ;
#189=CARTESIAN_POINT('Control Point',(-2.21806885908,-1.09818493217,-42.)) ;
#190=CARTESIAN_POINT('Control Point',(-2.10517276148,-1.30157148171,-42.)) ;
#191=CARTESIAN_POINT('Control Point',(-1.87407605396,-1.62226166148,-42.)) ;
#192=CARTESIAN_POINT('Control Point',(-1.58517102683,-1.89005306309,-42.)) ;
#193=CARTESIAN_POINT('Control Point',(-1.45697493291,-1.99055066204,-42.)) ;
#194=CARTESIAN_POINT('Control Point',(-1.32108539012,-2.08001845524,-42.)) ;
#195=CARTESIAN_POINT('Control Point',(-1.17878754251,-2.15775612369,-42.)) ;
#196=CARTESIAN_POINT('Vertex',(-1.17878754284,-2.15775612367,-42.0000000002)) ;
#198=CARTESIAN_POINT('Vertex',(1.17878754284,2.15775612367,-42.0000000002)) ;
#202=CARTESIAN_POINT('Control Point',(-1.17878754251,-2.15775612369,-42.)) ;
#203=CARTESIAN_POINT('Control Point',(-0.976550097934,-2.2682389432,-42.)) ;
#204=CARTESIAN_POINT('Control Point',(-0.761369298785,-2.35502789739,-42.)) ;
#205=CARTESIAN_POINT('Control Point',(-0.536911887753,-2.41610560702,-42.)) ;
#206=CARTESIAN_POINT('Control Point',(-0.0779335691546,-2.48452670464,-42.)) ;
#207=CARTESIAN_POINT('Control Point',(0.384428317766,-2.44500602753,-42.)) ;
#208=CARTESIAN_POINT('Control Point',(0.612272541468,-2.39811655545,-42.)) ;
#209=CARTESIAN_POINT('Control Point',(1.05266899715,-2.25185136508,-42.)) ;
#210=CARTESIAN_POINT('Control Point',(1.44732955279,-2.0077541613,-42.)) ;
#211=CARTESIAN_POINT('Control Point',(1.62942930573,-1.86300853892,-42.)) ;
#212=CARTESIAN_POINT('Control Point',(1.95627880444,-1.53359702281,-42.)) ;
#213=CARTESIAN_POINT('Control Point',(2.19813521703,-1.13755930653,-42.)) ;
#214=CARTESIAN_POINT('Control Point',(2.29522333076,-0.926169822103,-42.)) ;
#215=CARTESIAN_POINT('Control Point',(2.43804553317,-0.484644782882,-42.)) ;
#216=CARTESIAN_POINT('Control Point',(2.47494498549,-0.0220663271416,-42.)) ;
#217=CARTESIAN_POINT('Control Point',(2.46608582061,0.210383949231,-42.)) ;
#218=CARTESIAN_POINT('Control Point',(2.3940831963,0.668814055864,-42.)) ;
#219=CARTESIAN_POINT('Control Point',(2.21806885908,1.09818493217,-42.)) ;
#220=CARTESIAN_POINT('Control Point',(2.10517276148,1.30157148172,-42.)) ;
#221=CARTESIAN_POINT('Control Point',(1.87407605396,1.62226166148,-42.)) ;
#222=CARTESIAN_POINT('Control Point',(1.58517102683,1.89005306309,-42.)) ;
#223=CARTESIAN_POINT('Control Point',(1.45697493291,1.99055066204,-42.)) ;
#224=CARTESIAN_POINT('Control Point',(1.32108539012,2.08001845524,-42.)) ;
#225=CARTESIAN_POINT('Control Point',(1.17878754251,2.15775612369,-42.)) ;
#232=CARTESIAN_POINT('Axis2P3D Location',(2.81668763804E-15,0.,-42.)) ;
#237=CARTESIAN_POINT('Line Origine',(-2075974.06767,-3800045.04146,2499957.29021)) ;
#241=CARTESIAN_POINT('Vertex',(-1.43827661575,-2.63274768556,-41.6875091669)) ;
#244=CARTESIAN_POINT('Axis2P3D Location',(2.79755309311E-15,0.,-41.6875091668)) ;
#248=CARTESIAN_POINT('Vertex',(1.43827661581,2.63274768567,-41.6875091668)) ;
#251=CARTESIAN_POINT('Line Origine',(2075974.06767,3800045.04146,2499957.29021)) ;
#263=CARTESIAN_POINT('Axis2P3D Location',(2.79755309311E-15,0.,-41.6875091668)) ;
#275=CARTESIAN_POINT('Line Origine',(-1.43827661581,-2.63274768567,-28.)) ;
#279=CARTESIAN_POINT('Vertex',(-1.43827661581,-2.63274768567,-0.300000000745)) ;
#282=CARTESIAN_POINT('Axis2P3D Location',(2.63299061866E-16,-9.78791185929E-28,-0.300000000745)) ;
#286=CARTESIAN_POINT('Vertex',(1.43827661581,2.63274768567,-0.300000000745)) ;
#289=CARTESIAN_POINT('Line Origine',(1.43827661581,2.63274768567,-28.)) ;
#301=CARTESIAN_POINT('Axis2P3D Location',(2.63299061866E-16,-9.78791185929E-28,-0.300000000745)) ;
#313=CARTESIAN_POINT('Axis2P3D Location',(2.63299061817E-16,0.,-0.3)) ;
#318=CARTESIAN_POINT('Axis2P3D Location',(-1.58210427739,-2.89602245424,-0.3)) ;
#322=CARTESIAN_POINT('Vertex',(-1.58210427739,-2.89602245424,-1.11022302463E-16)) ;
#325=CARTESIAN_POINT('Axis2P3D Location',(2.4492935983E-16,0.,0.)) ;
#329=CARTESIAN_POINT('Vertex',(1.58210427739,2.89602245424,1.11022302463E-16)) ;
#332=CARTESIAN_POINT('Axis2P3D Location',(1.58210427739,2.89602245424,-0.3)) ;
#344=CARTESIAN_POINT('Axis2P3D Location',(2.63299061817E-16,0.,-0.3)) ;
#349=CARTESIAN_POINT('Axis2P3D Location',(2.4492935983E-16,0.,0.)) ;
#361=CARTESIAN_POINT('Axis2P3D Location',(2.44929359829E-16,3.3,0.)) ;
#366=CARTESIAN_POINT('Axis2P3D Location',(-1.10909878991E-09,7.92168552977E-10,-6.79127291474E-26)) ;
#370=CARTESIAN_POINT('Vertex',(-2.12864939123,-3.89646657445,-1.30342183174E-16)) ;
#372=CARTESIAN_POINT('Vertex',(2.12864939123,3.89646657482,1.30342183174E-16)) ;
#375=CARTESIAN_POINT('Axis2P3D Location',(1.10909927976E-09,-4.19639878402E-10,6.79127291474E-26)) ;
#389=CARTESIAN_POINT('Axis2P3D Location',(2.35744508836E-16,0.,0.15)) ;
#394=CARTESIAN_POINT('Axis2P3D Location',(-2.1286493914,-3.89646657479,0.15)) ;
#398=CARTESIAN_POINT('Vertex',(-2.20056322219,-4.02810395908,0.15)) ;
#401=CARTESIAN_POINT('Axis2P3D Location',(2.35744508836E-16,0.,0.15)) ;
#405=CARTESIAN_POINT('Vertex',(2.20056322219,4.02810395908,0.15)) ;
#408=CARTESIAN_POINT('Axis2P3D Location',(2.1286493914,3.89646657479,0.15)) ;
#420=CARTESIAN_POINT('Axis2P3D Location',(2.35744508836E-16,0.,0.15)) ;
#425=CARTESIAN_POINT('Axis2P3D Location',(2.35744508836E-16,0.,0.15)) ;
#437=CARTESIAN_POINT('Axis2P3D Location',(2.35744508836E-16,4.59,0.15)) ;
#442=CARTESIAN_POINT('Line Origine',(4.4408920985E-16,4.99999766812,0.15)) ;
#446=CARTESIAN_POINT('Vertex',(-2.8867499996,4.99999766812,0.15)) ;
#448=CARTESIAN_POINT('Vertex',(2.8867499996,4.99999766812,0.15)) ;
#451=CARTESIAN_POINT('Line Origine',(4.3301249994,2.49999883413,0.15)) ;
#455=CARTESIAN_POINT('Vertex',(5.7734999992,1.4901146983E-10,0.15)) ;
#458=CARTESIAN_POINT('Line Origine',(4.3301249994,-2.49999883384,0.15)) ;
#462=CARTESIAN_POINT('Vertex',(2.8867499996,-4.99999766782,0.15)) ;
#465=CARTESIAN_POINT('Line Origine',(4.4408920985E-16,-4.99999766782,0.15)) ;
#469=CARTESIAN_POINT('Vertex',(-2.8867499996,-4.99999766782,0.15)) ;
#472=CARTESIAN_POINT('Line Origine',(-4.3301249994,-2.49999883384,0.15)) ;
#476=CARTESIAN_POINT('Vertex',(-5.7734999992,1.4901146983E-10,0.15)) ;
#479=CARTESIAN_POINT('Line Origine',(-4.3301249994,2.49999883413,0.15)) ;
#497=CARTESIAN_POINT('Axis2P3D Location',(-2.88675,4.99999766875,4.)) ;
#503=CARTESIAN_POINT('Control Point',(2.73151117523,4.99999766875,3.66708297049)) ;
#504=CARTESIAN_POINT('Control Point',(2.72781939933,4.99999766875,3.66779806929)) ;
#505=CARTESIAN_POINT('Control Point',(2.72412762344,4.99999766875,3.66851316809)) ;
#506=CARTESIAN_POINT('Control Point',(2.73078081768,4.99999766875,3.66722442896)) ;
#507=CARTESIAN_POINT('Control Point',(2.33028762664,4.99999766875,3.74478018617)) ;
#508=CARTESIAN_POINT('Control Point',(1.96326815087,4.99999766875,3.80490230612)) ;
#509=CARTESIAN_POINT('Control Point',(1.61872772111,4.99999766875,3.85156211298)) ;
#510=CARTESIAN_POINT('Control Point',(0.910604911785,4.99999766875,3.92702490876)) ;
#511=CARTESIAN_POINT('Control Point',(0.246427525299,4.99999766875,3.95391600565)) ;
#512=CARTESIAN_POINT('Control Point',(-0.103923217125,4.99999766875,3.95591736944)) ;
#513=CARTESIAN_POINT('Control Point',(-0.713899477886,4.99999766875,3.93817114714)) ;
#514=CARTESIAN_POINT('Control Point',(-1.35526762899,4.99999766875,3.88007434384)) ;
#515=CARTESIAN_POINT('Control Point',(-1.63391991771,4.99999766875,3.84797406272)) ;
#516=CARTESIAN_POINT('Control Point',(-2.04206925157,4.99999766875,3.79098499206)) ;
#517=CARTESIAN_POINT('Control Point',(-2.48488974597,4.99999766875,3.71387643564)) ;
#518=CARTESIAN_POINT('Control Point',(-2.61508447488,4.99999766875,3.68999651996)) ;
#519=CARTESIAN_POINT('Control Point',(-2.74887605523,4.99999766875,3.66421598114)) ;
#520=CARTESIAN_POINT('Control Point',(-2.88675,4.99999766875,3.63636363637)) ;
#521=CARTESIAN_POINT('Vertex',(2.73151117523,4.99999766875,3.66708297049)) ;
#523=CARTESIAN_POINT('Vertex',(-2.88675,4.99999766875,3.6363636367)) ;
#527=CARTESIAN_POINT('Control Point',(2.73151117523,4.99999766875,3.66708297096)) ;
#528=CARTESIAN_POINT('Control Point',(2.76256912306,4.99999766875,3.66106703122)) ;
#529=CARTESIAN_POINT('Control Point',(2.79362226753,4.99999766875,3.65498616202)) ;
#530=CARTESIAN_POINT('Control Point',(2.82467060984,4.99999766875,3.64884127931)) ;
#531=CARTESIAN_POINT('Control Point',(2.85571318029,4.99999766875,3.6426334811)) ;
#532=CARTESIAN_POINT('Control Point',(2.8867499992,4.99999766875,3.6363636367)) ;
#533=CARTESIAN_POINT('Vertex',(2.8867499992,4.99999766875,3.6363636367)) ;
#536=CARTESIAN_POINT('Line Origine',(2.8867499992,4.99999766875,1.89318181854)) ;
#541=CARTESIAN_POINT('Line Origine',(-2.88675,4.99999766875,1.89318181854)) ;
#554=CARTESIAN_POINT('Axis2P3D Location',(2.88675,4.99999766875,4.)) ;
#560=CARTESIAN_POINT('Control Point',(2.88675,4.99999766875,3.63636363637)) ;
#561=CARTESIAN_POINT('Control Point',(2.88858996625,4.99681075373,3.63710703099)) ;
#562=CARTESIAN_POINT('Control Point',(2.89042993249,4.9936238387,3.6378504256)) ;
#563=CARTESIAN_POINT('Control Point',(2.88712430067,4.99934936097,3.6365148514)) ;
#564=CARTESIAN_POINT('Control Point',(3.09270959072,4.64326519332,3.71955650441)) ;
#565=CARTESIAN_POINT('Control Point',(3.2801471689,4.31861378467,3.78417460198)) ;
#566=CARTESIAN_POINT('Control Point',(3.45537739974,4.01510612182,3.83473784707)) ;
#567=CARTESIAN_POINT('Control Point',(3.8863319188,3.26867099907,3.93443206226)) ;
#568=CARTESIAN_POINT('Control Point',(4.28121785826,2.58470848872,3.96240466361)) ;
#569=CARTESIAN_POINT('Control Point',(4.51987602861,2.17134041203,3.95703690727)) ;
#570=CARTESIAN_POINT('Control Point',(4.89121638265,1.52816005194,3.9141997561)) ;
#571=CARTESIAN_POINT('Control Point',(5.30338962574,0.814255053385,3.80522564251)) ;
#572=CARTESIAN_POINT('Control Point',(5.45023899656,0.559904482066,3.75959218772)) ;
#573=CARTESIAN_POINT('Control Point',(5.6058321389,0.290409254228,3.70410584947)) ;
#574=CARTESIAN_POINT('Control Point',(5.7734999996,6.98295643531E-10,3.63636363653)) ;
#575=CARTESIAN_POINT('Vertex',(5.7734999996,6.98295643531E-10,3.63636363653)) ;
#578=CARTESIAN_POINT('Line Origine',(5.7734999996,6.98034519075E-10,1.89318181854)) ;
#590=CARTESIAN_POINT('Axis2P3D Location',(5.7735,0.,4.)) ;
#596=CARTESIAN_POINT('Control Point',(5.7735,-5.14682465325E-13,3.63636363637)) ;
#597=CARTESIAN_POINT('Control Point',(5.77166003375,-0.00318691502491,3.63710703099)) ;
#598=CARTESIAN_POINT('Control Point',(5.76982006751,-0.00637383004931,3.63785042561)) ;
#599=CARTESIAN_POINT('Control Point',(5.77312569933,-0.000648307776098,3.6365148514)) ;
#600=CARTESIAN_POINT('Control Point',(5.56754040927,-0.356732475444,3.71955650441)) ;
#601=CARTESIAN_POINT('Control Point',(5.3801028311,-0.681383884091,3.78417460199)) ;
#602=CARTESIAN_POINT('Control Point',(5.20487260027,-0.98489154691,3.83473784707)) ;
#603=CARTESIAN_POINT('Control Point',(4.77391808122,-1.73132666965,3.93443206225)) ;
#604=CARTESIAN_POINT('Control Point',(4.37903214175,-2.41528918001,3.96240466361)) ;
#605=CARTESIAN_POINT('Control Point',(4.14037397137,-2.82865725676,3.95703690727)) ;
#606=CARTESIAN_POINT('Control Point',(3.76903361734,-3.47183761683,3.9141997561)) ;
#607=CARTESIAN_POINT('Control Point',(3.35686037425,-4.18574261538,3.80522564251)) ;
#608=CARTESIAN_POINT('Control Point',(3.21001100345,-4.44009318667,3.75959218772)) ;
#609=CARTESIAN_POINT('Control Point',(3.05441786111,-4.70958841451,3.70410584947)) ;
#610=CARTESIAN_POINT('Control Point',(2.8867500004,-4.99999766805,3.63636363653)) ;
#611=CARTESIAN_POINT('Vertex',(2.8867500004,-4.99999766805,3.63636363653)) ;
#614=CARTESIAN_POINT('Line Origine',(2.8867500004,-4.99999766805,1.89318181854)) ;
#626=CARTESIAN_POINT('Axis2P3D Location',(2.88675,-4.99999766875,4.)) ;
#632=CARTESIAN_POINT('Control Point',(-2.73151117523,-4.99999766875,3.66708297049)) ;
#633=CARTESIAN_POINT('Control Point',(-2.72781939933,-4.99999766875,3.66779806929)) ;
#634=CARTESIAN_POINT('Control Point',(-2.72412762344,-4.99999766875,3.66851316809)) ;
#635=CARTESIAN_POINT('Control Point',(-2.73078081768,-4.99999766875,3.66722442896)) ;
#636=CARTESIAN_POINT('Control Point',(-2.33028762665,-4.99999766875,3.74478018617)) ;
#637=CARTESIAN_POINT('Control Point',(-1.96326815089,-4.99999766875,3.80490230612)) ;
#638=CARTESIAN_POINT('Control Point',(-1.61872772109,-4.99999766875,3.85156211298)) ;
#639=CARTESIAN_POINT('Control Point',(-0.910604911778,-4.99999766875,3.92702490876)) ;
#640=CARTESIAN_POINT('Control Point',(-0.246427525302,-4.99999766875,3.95391600565)) ;
#641=CARTESIAN_POINT('Control Point',(0.103923217124,-4.99999766875,3.95591736944)) ;
#642=CARTESIAN_POINT('Control Point',(0.713899477872,-4.99999766875,3.93817114714)) ;
#643=CARTESIAN_POINT('Control Point',(1.35526762894,-4.99999766875,3.88007434384)) ;
#644=CARTESIAN_POINT('Control Point',(1.63391991776,-4.99999766875,3.84797406272)) ;
#645=CARTESIAN_POINT('Control Point',(2.0420692516,-4.99999766875,3.79098499205)) ;
#646=CARTESIAN_POINT('Control Point',(2.48488974597,-4.99999766875,3.71387643564)) ;
#647=CARTESIAN_POINT('Control Point',(2.61508447488,-4.99999766875,3.68999651996)) ;
#648=CARTESIAN_POINT('Control Point',(2.74887605523,-4.99999766875,3.66421598114)) ;
#649=CARTESIAN_POINT('Control Point',(2.88675,-4.99999766875,3.63636363637)) ;
#650=CARTESIAN_POINT('Vertex',(-2.73151117523,-4.99999766875,3.66708297049)) ;
#654=CARTESIAN_POINT('Control Point',(-2.73151117523,-4.99999766875,3.66708297096)) ;
#655=CARTESIAN_POINT('Control Point',(-2.76256912306,-4.99999766875,3.66106703122)) ;
#656=CARTESIAN_POINT('Control Point',(-2.79362226753,-4.99999766875,3.65498616202)) ;
#657=CARTESIAN_POINT('Control Point',(-2.82467060984,-4.99999766875,3.64884127931)) ;
#658=CARTESIAN_POINT('Control Point',(-2.85571318029,-4.99999766875,3.6426334811)) ;
#659=CARTESIAN_POINT('Control Point',(-2.8867499992,-4.99999766875,3.6363636367)) ;
#660=CARTESIAN_POINT('Vertex',(-2.8867499992,-4.99999766875,3.6363636367)) ;
#663=CARTESIAN_POINT('Line Origine',(-2.8867499992,-4.99999766875,1.89318181854)) ;
#676=CARTESIAN_POINT('Axis2P3D Location',(-2.88675,-4.99999766875,4.)) ;
#682=CARTESIAN_POINT('Control Point',(-2.88675,-4.99999766875,3.63636363637)) ;
#683=CARTESIAN_POINT('Control Point',(-2.88858996625,-4.99681075373,3.63710703099)) ;
#684=CARTESIAN_POINT('Control Point',(-2.89042993249,-4.9936238387,3.6378504256)) ;
#685=CARTESIAN_POINT('Control Point',(-2.88712430067,-4.99934936097,3.6365148514)) ;
#686=CARTESIAN_POINT('Control Point',(-3.09270959071,-4.64326519333,3.71955650441)) ;
#687=CARTESIAN_POINT('Control Point',(-3.28014716889,-4.31861378468,3.78417460198)) ;
#688=CARTESIAN_POINT('Control Point',(-3.45537739975,-4.01510612181,3.83473784707)) ;
#689=CARTESIAN_POINT('Control Point',(-3.88633191878,-3.2686709991,3.93443206225)) ;
#690=CARTESIAN_POINT('Control Point',(-4.28121785823,-2.58470848878,3.96240466361)) ;
#691=CARTESIAN_POINT('Control Point',(-4.51987602865,-2.17134041197,3.95703690727)) ;
#692=CARTESIAN_POINT('Control Point',(-4.89121638267,-1.5281600519,3.91419975609)) ;
#693=CARTESIAN_POINT('Control Point',(-5.30338962573,-0.814255053397,3.80522564252)) ;
#694=CARTESIAN_POINT('Control Point',(-5.45023899657,-0.559904482043,3.75959218771)) ;
#695=CARTESIAN_POINT('Control Point',(-5.6058321389,-0.290409254222,3.70410584947)) ;
#696=CARTESIAN_POINT('Control Point',(-5.7734999996,-6.98296531709E-10,3.63636363653)) ;
#697=CARTESIAN_POINT('Vertex',(-5.7734999996,-6.98296531709E-10,3.63636363653)) ;
#700=CARTESIAN_POINT('Line Origine',(-5.7734999996,-6.98034519075E-10,1.89318181854)) ;
#712=CARTESIAN_POINT('Axis2P3D Location',(-5.7735,0.,4.)) ;
#718=CARTESIAN_POINT('Control Point',(-5.7735,5.14113839249E-13,3.63636363637)) ;
#719=CARTESIAN_POINT('Control Point',(-5.77166003375,0.00318691502492,3.63710703099)) ;
#720=CARTESIAN_POINT('Control Point',(-5.76982006751,0.00637383004932,3.63785042561)) ;
#721=CARTESIAN_POINT('Control Point',(-5.77312569933,0.0006483077761,3.6365148514)) ;
#722=CARTESIAN_POINT('Control Point',(-5.56754040927,0.356732475442,3.71955650441)) ;
#723=CARTESIAN_POINT('Control Point',(-5.38010283109,0.681383884106,3.78417460199)) ;
#724=CARTESIAN_POINT('Control Point',(-5.20487260027,0.984891546907,3.83473784707)) ;
#725=CARTESIAN_POINT('Control Point',(-4.7739180812,1.73132666969,3.93443206226)) ;
#726=CARTESIAN_POINT('Control Point',(-4.37903214173,2.41528918005,3.96240466361)) ;
#727=CARTESIAN_POINT('Control Point',(-4.14037397139,2.82865725671,3.95703690727)) ;
#728=CARTESIAN_POINT('Control Point',(-3.76903361736,3.4718376168,3.91419975611)) ;
#729=CARTESIAN_POINT('Control Point',(-3.35686037425,4.18574261539,3.80522564251)) ;
#730=CARTESIAN_POINT('Control Point',(-3.21001100345,4.44009318667,3.75959218772)) ;
#731=CARTESIAN_POINT('Control Point',(-3.05441786111,4.70958841451,3.70410584947)) ;
#732=CARTESIAN_POINT('Control Point',(-2.8867500004,4.99999766805,3.63636363653)) ;
#741=CARTESIAN_POINT('Axis2P3D Location',(0.,0.,4.)) ;
#746=CARTESIAN_POINT('Line Origine',(-2222579.26254,-4068404.05061,-1873027.98256)) ;
#750=CARTESIAN_POINT('Vertex',(-2.33646522064,-4.27687089859,4.00000000002)) ;
#753=CARTESIAN_POINT('Axis2P3D Location',(0.,0.,4.)) ;
#757=CARTESIAN_POINT('Vertex',(2.33646522066,4.27687089863,4.)) ;
#760=CARTESIAN_POINT('Line Origine',(2222579.26254,4068404.05061,-1873027.98256)) ;
#775=CARTESIAN_POINT('Axis2P3D Location',(0.,0.,4.)) ;
#790=CARTESIAN_POINT('Axis2P3D Location',(0.,4.87346841694,4.)) ;
#6=PRODUCT_RELATED_PRODUCT_CATEGORY('part',$,(#16)) ;
#11=UNCERTAINTY_MEASURE_WITH_UNIT(LENGTH_MEASURE(0.005),#8,'distance_accuracy_value','CONFUSED CURVE UNCERTAINTY') ;
#29=STYLED_ITEM(' ',(#28),#21) ;
#28=PRESENTATION_STYLE_ASSIGNMENT((#27)) ;
#27=SURFACE_STYLE_USAGE(.BOTH.,#26) ;
#26=SURFACE_SIDE_STYLE(' ',(#25)) ;
#25=SURFACE_STYLE_FILL_AREA(#24) ;
#24=FILL_AREA_STYLE(' ',(#23)) ;
#23=FILL_AREA_STYLE_COLOUR(' ',#22) ;
#47=VECTOR('Line Direction',#46,1.) ;
#61=VECTOR('Line Direction',#60,1.) ;
#126=VECTOR('Line Direction',#125,1.) ;
#140=VECTOR('Line Direction',#139,1.) ;
#239=VECTOR('Line Direction',#238,1.) ;
#253=VECTOR('Line Direction',#252,1.) ;
#277=VECTOR('Line Direction',#276,1.) ;
#291=VECTOR('Line Direction',#290,1.) ;
#444=VECTOR('Line Direction',#443,1.) ;
#453=VECTOR('Line Direction',#452,1.) ;
#460=VECTOR('Line Direction',#459,1.) ;
#467=VECTOR('Line Direction',#466,1.) ;
#474=VECTOR('Line Direction',#473,1.) ;
#481=VECTOR('Line Direction',#480,1.) ;
#538=VECTOR('Line Direction',#537,1.) ;
#543=VECTOR('Line Direction',#542,1.) ;
#580=VECTOR('Line Direction',#579,1.) ;
#616=VECTOR('Line Direction',#615,1.) ;
#665=VECTOR('Line Direction',#664,1.) ;
#702=VECTOR('Line Direction',#701,1.) ;
#748=VECTOR('Line Direction',#747,1.) ;
#762=VECTOR('Line Direction',#761,1.) ;
#32=DIRECTION('Axis2P3D Direction',(-6.12323399574E-17,-0.,1.)) ;
#33=DIRECTION('Axis2P3D XDirection',(0.479425538604,0.87758256189,0.)) ;
#37=DIRECTION('Axis2P3D Direction',(-6.12323399574E-17,3.08148791102E-33,1.)) ;
#46=DIRECTION('Vector Direction',(0.339005049421,0.620544580563,0.707106781187)) ;
#53=DIRECTION('Axis2P3D Direction',(-6.12323399574E-17,3.08148791102E-33,1.)) ;
#60=DIRECTION('Vector Direction',(-0.339005049421,-0.620544580563,0.707106781187)) ;
#72=DIRECTION('Axis2P3D Direction',(6.12323399574E-17,0.,-1.)) ;
#73=DIRECTION('Axis2P3D XDirection',(0.,1.,0.)) ;
#108=DIRECTION('Axis2P3D Direction',(-6.12323399574E-17,3.08148791102E-33,1.)) ;
#120=DIRECTION('Axis2P3D Direction',(6.12323399574E-17,3.53354218757E-29,-1.)) ;
#121=DIRECTION('Axis2P3D XDirection',(0.479425538604,0.877582561891,2.93563475641E-17)) ;
#125=DIRECTION('Vector Direction',(6.12323414195E-17,0.,-1.)) ;
#132=DIRECTION('Axis2P3D Direction',(6.12323399574E-17,3.53354218757E-29,-1.)) ;
#139=DIRECTION('Vector Direction',(6.12323414195E-17,0.,-1.)) ;
#151=DIRECTION('Axis2P3D Direction',(6.12323399574E-17,3.53354218757E-29,-1.)) ;
#163=DIRECTION('Axis2P3D Direction',(6.12323399574E-17,0.,-1.)) ;
#164=DIRECTION('Axis2P3D XDirection',(0.,1.,0.)) ;
#233=DIRECTION('Axis2P3D Direction',(-6.12323399574E-17,-0.,1.)) ;
#234=DIRECTION('Axis2P3D XDirection',(-0.479425538604,-0.87758256189,0.)) ;
#238=DIRECTION('Vector Direction',(-0.415194695655,-0.760008792517,0.499999999997)) ;
#245=DIRECTION('Axis2P3D Direction',(-6.12323399574E-17,3.08148791102E-33,1.)) ;
#252=DIRECTION('Vector Direction',(0.415194695655,0.760008792517,0.499999999997)) ;
#264=DIRECTION('Axis2P3D Direction',(-6.12323399574E-17,3.08148791102E-33,1.)) ;
#276=DIRECTION('Vector Direction',(6.12323414195E-17,0.,-1.)) ;
#283=DIRECTION('Axis2P3D Direction',(6.12323399574E-17,3.53354218757E-29,-1.)) ;
#290=DIRECTION('Vector Direction',(6.12323414195E-17,0.,-1.)) ;
#302=DIRECTION('Axis2P3D Direction',(6.12323399574E-17,3.53354218757E-29,-1.)) ;
#314=DIRECTION('Axis2P3D Direction',(6.12323399574E-17,0.,-1.)) ;
#315=DIRECTION('Axis2P3D XDirection',(-0.479425538604,-0.87758256189,-3.70074341542E-17)) ;
#319=DIRECTION('Axis2P3D Direction',(0.87758256189,-0.479425538604,5.37364337704E-17)) ;
#326=DIRECTION('Axis2P3D Direction',(6.12323399574E-17,0.,-1.)) ;
#333=DIRECTION('Axis2P3D Direction',(-0.87758256189,0.479425538604,-5.37364337704E-17)) ;
#345=DIRECTION('Axis2P3D Direction',(6.12323399574E-17,0.,-1.)) ;
#346=DIRECTION('Axis2P3D XDirection',(0.479425538604,0.87758256189,3.70074341542E-17)) ;
#350=DIRECTION('Axis2P3D Direction',(6.12323399574E-17,0.,-1.)) ;
#362=DIRECTION('Axis2P3D Direction',(6.12323399574E-17,0.,-1.)) ;
#363=DIRECTION('Axis2P3D XDirection',(0.,1.,0.)) ;
#367=DIRECTION('Axis2P3D Direction',(6.12323399574E-17,0.,-1.)) ;
#376=DIRECTION('Axis2P3D Direction',(6.12323399574E-17,0.,-1.)) ;
#390=DIRECTION('Axis2P3D Direction',(6.12323399574E-17,0.,-1.)) ;
#391=DIRECTION('Axis2P3D XDirection',(-0.479425538604,-0.87758256189,-3.02348318253E-17)) ;
#395=DIRECTION('Axis2P3D Direction',(0.87758256189,-0.479425538604,5.37364337704E-17)) ;
#402=DIRECTION('Axis2P3D Direction',(6.12323399574E-17,-3.08148791102E-33,-1.)) ;
#409=DIRECTION('Axis2P3D Direction',(-0.87758256189,0.479425538604,-5.37364337704E-17)) ;
#421=DIRECTION('Axis2P3D Direction',(6.12323399574E-17,0.,-1.)) ;
#422=DIRECTION('Axis2P3D XDirection',(0.479425538604,0.87758256189,3.02348318253E-17)) ;
#426=DIRECTION('Axis2P3D Direction',(6.12323399574E-17,-3.08148791102E-33,-1.)) ;
#438=DIRECTION('Axis2P3D Direction',(6.12323399574E-17,0.,-1.)) ;
#439=DIRECTION('Axis2P3D XDirection',(0.,1.,0.)) ;
#443=DIRECTION('Vector Direction',(1.,0.,5.7688907497E-17)) ;
#452=DIRECTION('Vector Direction',(-0.500000000006,0.866025403781,-3.3651862707E-17)) ;
#459=DIRECTION('Vector Direction',(-0.500000000006,-0.866025403781,-3.3651862707E-17)) ;
#466=DIRECTION('Vector Direction',(-1.,0.,-5.7688907497E-17)) ;
#473=DIRECTION('Vector Direction',(0.500000000006,-0.866025403781,3.3651862707E-17)) ;
#480=DIRECTION('Vector Direction',(0.500000000006,0.866025403781,3.3651862707E-17)) ;
#498=DIRECTION('Axis2P3D Direction',(-0.,1.,0.)) ;
#499=DIRECTION('Axis2P3D XDirection',(1.,0.,1.22464679915E-16)) ;
#537=DIRECTION('Vector Direction',(1.27378912866E-16,0.,-1.)) ;
#542=DIRECTION('Vector Direction',(1.27378912866E-16,0.,-1.)) ;
#555=DIRECTION('Axis2P3D Direction',(0.866025403784,0.5,1.06057523872E-16)) ;
#556=DIRECTION('Axis2P3D XDirection',(0.5,-0.866025403784,6.12323399574E-17)) ;
#579=DIRECTION('Vector Direction',(2.54757825731E-16,0.,-1.)) ;
#591=DIRECTION('Axis2P3D Direction',(0.866025403784,-0.5,1.06057523872E-16)) ;
#592=DIRECTION('Axis2P3D XDirection',(-0.5,-0.866025403784,-6.12323399574E-17)) ;
#615=DIRECTION('Vector Direction',(1.27378912866E-16,0.,-1.)) ;
#627=DIRECTION('Axis2P3D Direction',(0.,-1.,-0.)) ;
#628=DIRECTION('Axis2P3D XDirection',(-1.,0.,-1.22464679915E-16)) ;
#664=DIRECTION('Vector Direction',(1.27378912866E-16,0.,-1.)) ;
#677=DIRECTION('Axis2P3D Direction',(-0.866025403784,-0.5,-1.06057523872E-16)) ;
#678=DIRECTION('Axis2P3D XDirection',(-0.5,0.866025403784,-6.12323399574E-17)) ;
#701=DIRECTION('Vector Direction',(2.54757825731E-16,0.,-1.)) ;
#713=DIRECTION('Axis2P3D Direction',(-0.866025403784,0.5,-1.06057523872E-16)) ;
#714=DIRECTION('Axis2P3D XDirection',(0.5,0.866025403784,6.12323399574E-17)) ;
#742=DIRECTION('Axis2P3D Direction',(6.12323399574E-17,0.,-1.)) ;
#743=DIRECTION('Axis2P3D XDirection',(-0.479425538604,-0.87758256189,-5.02231612697E-17)) ;
#747=DIRECTION('Vector Direction',(-0.444515618861,-0.813680382435,-0.374606593412)) ;
#754=DIRECTION('Axis2P3D Direction',(6.12323399574E-17,-3.08148791102E-33,-1.)) ;
#761=DIRECTION('Vector Direction',(0.444515618861,0.813680382435,-0.374606593412)) ;
#776=DIRECTION('Axis2P3D Direction',(6.12323399574E-17,-3.08148791102E-33,-1.)) ;
#791=DIRECTION('Axis2P3D Direction',(6.12323399574E-17,0.,-1.)) ;
#792=DIRECTION('Axis2P3D XDirection',(0.,1.,0.)) ;
#15=AXIS2_PLACEMENT_3D('',#14,$,$) ;
#34=AXIS2_PLACEMENT_3D('Cone Axis2P3D',#31,#32,#33) ;
#38=AXIS2_PLACEMENT_3D('Circle Axis2P3D',#36,#37,$) ;
#54=AXIS2_PLACEMENT_3D('Circle Axis2P3D',#52,#53,$) ;
#74=AXIS2_PLACEMENT_3D('Plane Axis2P3D',#71,#72,#73) ;
#109=AXIS2_PLACEMENT_3D('Circle Axis2P3D',#107,#108,$) ;
#122=AXIS2_PLACEMENT_3D('Cylinder Axis2P3D',#119,#120,#121) ;
#133=AXIS2_PLACEMENT_3D('Circle Axis2P3D',#131,#132,$) ;
#152=AXIS2_PLACEMENT_3D('Circle Axis2P3D',#150,#151,$) ;
#165=AXIS2_PLACEMENT_3D('Plane Axis2P3D',#162,#163,#164) ;
#235=AXIS2_PLACEMENT_3D('Cone Axis2P3D',#232,#233,#234) ;
#246=AXIS2_PLACEMENT_3D('Circle Axis2P3D',#244,#245,$) ;
#265=AXIS2_PLACEMENT_3D('Circle Axis2P3D',#263,#264,$) ;
#284=AXIS2_PLACEMENT_3D('Circle Axis2P3D',#282,#283,$) ;
#303=AXIS2_PLACEMENT_3D('Circle Axis2P3D',#301,#302,$) ;
#316=AXIS2_PLACEMENT_3D('Torus Axis2P3D',#313,#314,#315) ;
#320=AXIS2_PLACEMENT_3D('Circle Axis2P3D',#318,#319,$) ;
#327=AXIS2_PLACEMENT_3D('Circle Axis2P3D',#325,#326,$) ;
#334=AXIS2_PLACEMENT_3D('Circle Axis2P3D',#332,#333,$) ;
#347=AXIS2_PLACEMENT_3D('Torus Axis2P3D',#344,#345,#346) ;
#351=AXIS2_PLACEMENT_3D('Circle Axis2P3D',#349,#350,$) ;
#364=AXIS2_PLACEMENT_3D('Plane Axis2P3D',#361,#362,#363) ;
#368=AXIS2_PLACEMENT_3D('Circle Axis2P3D',#366,#367,$) ;
#377=AXIS2_PLACEMENT_3D('Circle Axis2P3D',#375,#376,$) ;
#392=AXIS2_PLACEMENT_3D('Torus Axis2P3D',#389,#390,#391) ;
#396=AXIS2_PLACEMENT_3D('Circle Axis2P3D',#394,#395,$) ;
#403=AXIS2_PLACEMENT_3D('Circle Axis2P3D',#401,#402,$) ;
#410=AXIS2_PLACEMENT_3D('Circle Axis2P3D',#408,#409,$) ;
#423=AXIS2_PLACEMENT_3D('Torus Axis2P3D',#420,#421,#422) ;
#427=AXIS2_PLACEMENT_3D('Circle Axis2P3D',#425,#426,$) ;
#440=AXIS2_PLACEMENT_3D('Plane Axis2P3D',#437,#438,#439) ;
#500=AXIS2_PLACEMENT_3D('Plane Axis2P3D',#497,#498,#499) ;
#557=AXIS2_PLACEMENT_3D('Plane Axis2P3D',#554,#555,#556) ;
#593=AXIS2_PLACEMENT_3D('Plane Axis2P3D',#590,#591,#592) ;
#629=AXIS2_PLACEMENT_3D('Plane Axis2P3D',#626,#627,#628) ;
#679=AXIS2_PLACEMENT_3D('Plane Axis2P3D',#676,#677,#678) ;
#715=AXIS2_PLACEMENT_3D('Plane Axis2P3D',#712,#713,#714) ;
#744=AXIS2_PLACEMENT_3D('Cone Axis2P3D',#741,#742,#743) ;
#755=AXIS2_PLACEMENT_3D('Circle Axis2P3D',#753,#754,$) ;
#777=AXIS2_PLACEMENT_3D('Circle Axis2P3D',#775,#776,$) ;
#793=AXIS2_PLACEMENT_3D('Plane Axis2P3D',#790,#791,#792) ;
#48=LINE('Line',#45,#47) ;
#62=LINE('Line',#59,#61) ;
#127=LINE('Line',#124,#126) ;
#141=LINE('Line',#138,#140) ;
#240=LINE('Line',#237,#239) ;
#254=LINE('Line',#251,#253) ;
#278=LINE('Line',#275,#277) ;
#292=LINE('Line',#289,#291) ;
#445=LINE('Line',#442,#444) ;
#454=LINE('Line',#451,#453) ;
#461=LINE('Line',#458,#460) ;
#468=LINE('Line',#465,#467) ;
#475=LINE('Line',#472,#474) ;
#482=LINE('Line',#479,#481) ;
#539=LINE('Line',#536,#538) ;
#544=LINE('Line',#541,#543) ;
#581=LINE('Line',#578,#580) ;
#617=LINE('Line',#614,#616) ;
#666=LINE('Line',#663,#665) ;
#703=LINE('Line',#700,#702) ;
#749=LINE('Line',#746,#748) ;
#763=LINE('Line',#760,#762) ;
#39=CIRCLE('generated circle',#38,2.45875) ;
#55=CIRCLE('generated circle',#54,3.) ;
#110=CIRCLE('generated circle',#109,3.) ;
#134=CIRCLE('generated circle',#133,3.) ;
#153=CIRCLE('generated circle',#152,3.) ;
#247=CIRCLE('generated circle',#246,3.) ;
#266=CIRCLE('generated circle',#265,3.) ;
#285=CIRCLE('generated circle',#284,3.) ;
#304=CIRCLE('generated circle',#303,3.) ;
#321=CIRCLE('generated circle',#320,0.3) ;
#328=CIRCLE('generated circle',#327,3.3) ;
#335=CIRCLE('generated circle',#334,0.3) ;
#352=CIRCLE('generated circle',#351,3.3) ;
#369=CIRCLE('generated circle',#368,4.43999999978) ;
#378=CIRCLE('generated circle',#377,4.43999999978) ;
#397=CIRCLE('generated circle',#396,0.15) ;
#404=CIRCLE('generated circle',#403,4.59) ;
#411=CIRCLE('generated circle',#410,0.15) ;
#428=CIRCLE('generated circle',#427,4.59) ;
#756=CIRCLE('generated circle',#755,4.87346841694) ;
#778=CIRCLE('generated circle',#777,4.87346841694) ;
#75=PLANE('',#74) ;
#166=PLANE('',#165) ;
#365=PLANE('',#364) ;
#441=PLANE('',#440) ;
#501=PLANE('',#500) ;
#558=PLANE('',#557) ;
#594=PLANE('',#593) ;
#630=PLANE('',#629) ;
#680=PLANE('',#679) ;
#716=PLANE('',#715) ;
#794=PLANE('',#793) ;
#123=CYLINDRICAL_SURFACE('generated cylinder',#122,3.) ;
#35=CONICAL_SURFACE('Cone',#34,2.45875,0.785398163397) ;
#236=CONICAL_SURFACE('Cone',#235,2.45875,1.0471975512) ;
#745=CONICAL_SURFACE('Cone',#744,4.87346841694,1.18682389136) ;
#317=TOROIDAL_SURFACE('homeo Torus',#316,3.3,0.3) ;
#348=TOROIDAL_SURFACE('homeo Torus',#347,3.3,0.3) ;
#393=TOROIDAL_SURFACE('homeo Torus',#392,4.44,0.15) ;
#424=TOROIDAL_SURFACE('homeo Torus',#423,4.44,0.15) ;
#230=FACE_BOUND('',#227,.T.) ;
#387=FACE_BOUND('',#384,.T.) ;
#495=FACE_BOUND('',#492,.T.) ;
#44=EDGE_CURVE('',#41,#43,#39,.F.) ;
#51=EDGE_CURVE('',#41,#50,#48,.T.) ;
#58=EDGE_CURVE('',#50,#57,#55,.F.) ;
#63=EDGE_CURVE('',#43,#57,#62,.T.) ;
#101=EDGE_CURVE('',#43,#41,#76,.F.) ;
#111=EDGE_CURVE('',#57,#50,#110,.F.) ;
#130=EDGE_CURVE('',#50,#129,#127,.F.) ;
#137=EDGE_CURVE('',#129,#136,#134,.T.) ;
#142=EDGE_CURVE('',#57,#136,#141,.F.) ;
#154=EDGE_CURVE('',#136,#129,#153,.T.) ;
#200=EDGE_CURVE('',#197,#199,#171,.F.) ;
#226=EDGE_CURVE('',#199,#197,#201,.F.) ;
#243=EDGE_CURVE('',#197,#242,#240,.T.) ;
#250=EDGE_CURVE('',#242,#249,#247,.F.) ;
#255=EDGE_CURVE('',#199,#249,#254,.T.) ;
#267=EDGE_CURVE('',#249,#242,#266,.F.) ;
#281=EDGE_CURVE('',#242,#280,#278,.F.) ;
#288=EDGE_CURVE('',#280,#287,#285,.T.) ;
#293=EDGE_CURVE('',#249,#287,#292,.F.) ;
#305=EDGE_CURVE('',#287,#280,#304,.T.) ;
#324=EDGE_CURVE('',#280,#323,#321,.T.) ;
#331=EDGE_CURVE('',#323,#330,#328,.T.) ;
#336=EDGE_CURVE('',#287,#330,#335,.T.) ;
#353=EDGE_CURVE('',#330,#323,#352,.T.) ;
#374=EDGE_CURVE('',#371,#373,#369,.T.) ;
#379=EDGE_CURVE('',#373,#371,#378,.T.) ;
#400=EDGE_CURVE('',#371,#399,#397,.F.) ;
#407=EDGE_CURVE('',#399,#406,#404,.T.) ;
#412=EDGE_CURVE('',#373,#406,#411,.F.) ;
#429=EDGE_CURVE('',#406,#399,#428,.T.) ;
#450=EDGE_CURVE('',#447,#449,#445,.T.) ;
#457=EDGE_CURVE('',#456,#449,#454,.T.) ;
#464=EDGE_CURVE('',#456,#463,#461,.T.) ;
#471=EDGE_CURVE('',#463,#470,#468,.T.) ;
#478=EDGE_CURVE('',#477,#470,#475,.T.) ;
#483=EDGE_CURVE('',#477,#447,#482,.T.) ;
#525=EDGE_CURVE('',#522,#524,#502,.T.) ;
#535=EDGE_CURVE('',#522,#534,#526,.T.) ;
#540=EDGE_CURVE('',#534,#449,#539,.T.) ;
#545=EDGE_CURVE('',#524,#447,#544,.T.) ;
#577=EDGE_CURVE('',#534,#576,#559,.T.) ;
#582=EDGE_CURVE('',#576,#456,#581,.T.) ;
#613=EDGE_CURVE('',#576,#612,#595,.T.) ;
#618=EDGE_CURVE('',#612,#463,#617,.T.) ;
#652=EDGE_CURVE('',#651,#612,#631,.T.) ;
#662=EDGE_CURVE('',#651,#661,#653,.T.) ;
#667=EDGE_CURVE('',#661,#470,#666,.T.) ;
#699=EDGE_CURVE('',#661,#698,#681,.T.) ;
#704=EDGE_CURVE('',#698,#477,#703,.T.) ;
#733=EDGE_CURVE('',#698,#524,#717,.T.) ;
#752=EDGE_CURVE('',#651,#751,#749,.F.) ;
#759=EDGE_CURVE('',#751,#758,#756,.T.) ;
#764=EDGE_CURVE('',#522,#758,#763,.F.) ;
#779=EDGE_CURVE('',#758,#751,#778,.T.) ;
#30=CLOSED_SHELL('Closed Shell',(#70,#106,#118,#149,#161,#231,#262,#274,#300,#312,#343,#360,#388,#419,#436,#496,#553,#589,#625,#675,#711,#740,#774,#789,#799)) ;
#65=ORIENTED_EDGE('',*,*,#44,.F.) ;
#66=ORIENTED_EDGE('',*,*,#51,.T.) ;
#67=ORIENTED_EDGE('',*,*,#58,.T.) ;
#68=ORIENTED_EDGE('',*,*,#63,.F.) ;
#103=ORIENTED_EDGE('',*,*,#44,.T.) ;
#104=ORIENTED_EDGE('',*,*,#101,.T.) ;
#113=ORIENTED_EDGE('',*,*,#101,.F.) ;
#114=ORIENTED_EDGE('',*,*,#63,.T.) ;
#115=ORIENTED_EDGE('',*,*,#111,.T.) ;
#116=ORIENTED_EDGE('',*,*,#51,.F.) ;
#144=ORIENTED_EDGE('',*,*,#58,.F.) ;
#145=ORIENTED_EDGE('',*,*,#130,.T.) ;
#146=ORIENTED_EDGE('',*,*,#137,.T.) ;
#147=ORIENTED_EDGE('',*,*,#142,.F.) ;
#156=ORIENTED_EDGE('',*,*,#111,.F.) ;
#157=ORIENTED_EDGE('',*,*,#142,.T.) ;
#158=ORIENTED_EDGE('',*,*,#154,.T.) ;
#159=ORIENTED_EDGE('',*,*,#130,.F.) ;
#168=ORIENTED_EDGE('',*,*,#137,.F.) ;
#169=ORIENTED_EDGE('',*,*,#154,.F.) ;
#228=ORIENTED_EDGE('',*,*,#200,.T.) ;
#229=ORIENTED_EDGE('',*,*,#226,.T.) ;
#257=ORIENTED_EDGE('',*,*,#200,.F.) ;
#258=ORIENTED_EDGE('',*,*,#243,.T.) ;
#259=ORIENTED_EDGE('',*,*,#250,.T.) ;
#260=ORIENTED_EDGE('',*,*,#255,.F.) ;
#269=ORIENTED_EDGE('',*,*,#226,.F.) ;
#270=ORIENTED_EDGE('',*,*,#255,.T.) ;
#271=ORIENTED_EDGE('',*,*,#267,.T.) ;
#272=ORIENTED_EDGE('',*,*,#243,.F.) ;
#295=ORIENTED_EDGE('',*,*,#250,.F.) ;
#296=ORIENTED_EDGE('',*,*,#281,.T.) ;
#297=ORIENTED_EDGE('',*,*,#288,.T.) ;
#298=ORIENTED_EDGE('',*,*,#293,.F.) ;
#307=ORIENTED_EDGE('',*,*,#267,.F.) ;
#308=ORIENTED_EDGE('',*,*,#293,.T.) ;
#309=ORIENTED_EDGE('',*,*,#305,.T.) ;
#310=ORIENTED_EDGE('',*,*,#281,.F.) ;
#338=ORIENTED_EDGE('',*,*,#288,.F.) ;
#339=ORIENTED_EDGE('',*,*,#324,.T.) ;
#340=ORIENTED_EDGE('',*,*,#331,.T.) ;
#341=ORIENTED_EDGE('',*,*,#336,.F.) ;
#355=ORIENTED_EDGE('',*,*,#305,.F.) ;
#356=ORIENTED_EDGE('',*,*,#336,.T.) ;
#357=ORIENTED_EDGE('',*,*,#353,.T.) ;
#358=ORIENTED_EDGE('',*,*,#324,.F.) ;
#381=ORIENTED_EDGE('',*,*,#374,.T.) ;
#382=ORIENTED_EDGE('',*,*,#379,.T.) ;
#385=ORIENTED_EDGE('',*,*,#353,.F.) ;
#386=ORIENTED_EDGE('',*,*,#331,.F.) ;
#414=ORIENTED_EDGE('',*,*,#374,.F.) ;
#415=ORIENTED_EDGE('',*,*,#400,.T.) ;
#416=ORIENTED_EDGE('',*,*,#407,.T.) ;
#417=ORIENTED_EDGE('',*,*,#412,.F.) ;
#431=ORIENTED_EDGE('',*,*,#379,.F.) ;
#432=ORIENTED_EDGE('',*,*,#412,.T.) ;
#433=ORIENTED_EDGE('',*,*,#429,.T.) ;
#434=ORIENTED_EDGE('',*,*,#400,.F.) ;
#485=ORIENTED_EDGE('',*,*,#450,.T.) ;
#486=ORIENTED_EDGE('',*,*,#457,.F.) ;
#487=ORIENTED_EDGE('',*,*,#464,.T.) ;
#488=ORIENTED_EDGE('',*,*,#471,.T.) ;
#489=ORIENTED_EDGE('',*,*,#478,.F.) ;
#490=ORIENTED_EDGE('',*,*,#483,.T.) ;
#493=ORIENTED_EDGE('',*,*,#429,.F.) ;
#494=ORIENTED_EDGE('',*,*,#407,.F.) ;
#547=ORIENTED_EDGE('',*,*,#525,.F.) ;
#548=ORIENTED_EDGE('',*,*,#535,.T.) ;
#549=ORIENTED_EDGE('',*,*,#540,.T.) ;
#550=ORIENTED_EDGE('',*,*,#450,.F.) ;
#551=ORIENTED_EDGE('',*,*,#545,.F.) ;
#584=ORIENTED_EDGE('',*,*,#577,.T.) ;
#585=ORIENTED_EDGE('',*,*,#582,.T.) ;
#586=ORIENTED_EDGE('',*,*,#457,.T.) ;
#587=ORIENTED_EDGE('',*,*,#540,.F.) ;
#620=ORIENTED_EDGE('',*,*,#613,.T.) ;
#621=ORIENTED_EDGE('',*,*,#618,.T.) ;
#622=ORIENTED_EDGE('',*,*,#464,.F.) ;
#623=ORIENTED_EDGE('',*,*,#582,.F.) ;
#669=ORIENTED_EDGE('',*,*,#652,.F.) ;
#670=ORIENTED_EDGE('',*,*,#662,.T.) ;
#671=ORIENTED_EDGE('',*,*,#667,.T.) ;
#672=ORIENTED_EDGE('',*,*,#471,.F.) ;
#673=ORIENTED_EDGE('',*,*,#618,.F.) ;
#706=ORIENTED_EDGE('',*,*,#699,.T.) ;
#707=ORIENTED_EDGE('',*,*,#704,.T.) ;
#708=ORIENTED_EDGE('',*,*,#478,.T.) ;
#709=ORIENTED_EDGE('',*,*,#667,.F.) ;
#735=ORIENTED_EDGE('',*,*,#733,.T.) ;
#736=ORIENTED_EDGE('',*,*,#545,.T.) ;
#737=ORIENTED_EDGE('',*,*,#483,.F.) ;
#738=ORIENTED_EDGE('',*,*,#704,.F.) ;
#766=ORIENTED_EDGE('',*,*,#699,.F.) ;
#767=ORIENTED_EDGE('',*,*,#662,.F.) ;
#768=ORIENTED_EDGE('',*,*,#752,.T.) ;
#769=ORIENTED_EDGE('',*,*,#759,.T.) ;
#770=ORIENTED_EDGE('',*,*,#764,.F.) ;
#771=ORIENTED_EDGE('',*,*,#525,.T.) ;
#772=ORIENTED_EDGE('',*,*,#733,.F.) ;
#781=ORIENTED_EDGE('',*,*,#577,.F.) ;
#782=ORIENTED_EDGE('',*,*,#535,.F.) ;
#783=ORIENTED_EDGE('',*,*,#764,.T.) ;
#784=ORIENTED_EDGE('',*,*,#779,.T.) ;
#785=ORIENTED_EDGE('',*,*,#752,.F.) ;
#786=ORIENTED_EDGE('',*,*,#652,.T.) ;
#787=ORIENTED_EDGE('',*,*,#613,.F.) ;
#796=ORIENTED_EDGE('',*,*,#779,.F.) ;
#797=ORIENTED_EDGE('',*,*,#759,.F.) ;
#64=EDGE_LOOP('',(#65,#66,#67,#68)) ;
#102=EDGE_LOOP('',(#103,#104)) ;
#112=EDGE_LOOP('',(#113,#114,#115,#116)) ;
#143=EDGE_LOOP('',(#144,#145,#146,#147)) ;
#155=EDGE_LOOP('',(#156,#157,#158,#159)) ;
#167=EDGE_LOOP('',(#168,#169)) ;
#227=EDGE_LOOP('',(#228,#229)) ;
#256=EDGE_LOOP('',(#257,#258,#259,#260)) ;
#268=EDGE_LOOP('',(#269,#270,#271,#272)) ;
#294=EDGE_LOOP('',(#295,#296,#297,#298)) ;
#306=EDGE_LOOP('',(#307,#308,#309,#310)) ;
#337=EDGE_LOOP('',(#338,#339,#340,#341)) ;
#354=EDGE_LOOP('',(#355,#356,#357,#358)) ;
#380=EDGE_LOOP('',(#381,#382)) ;
#384=EDGE_LOOP('',(#385,#386)) ;
#413=EDGE_LOOP('',(#414,#415,#416,#417)) ;
#430=EDGE_LOOP('',(#431,#432,#433,#434)) ;
#484=EDGE_LOOP('',(#485,#486,#487,#488,#489,#490)) ;
#492=EDGE_LOOP('',(#493,#494)) ;
#546=EDGE_LOOP('',(#547,#548,#549,#550,#551)) ;
#583=EDGE_LOOP('',(#584,#585,#586,#587)) ;
#619=EDGE_LOOP('',(#620,#621,#622,#623)) ;
#668=EDGE_LOOP('',(#669,#670,#671,#672,#673)) ;
#705=EDGE_LOOP('',(#706,#707,#708,#709)) ;
#734=EDGE_LOOP('',(#735,#736,#737,#738)) ;
#765=EDGE_LOOP('',(#766,#767,#768,#769,#770,#771,#772)) ;
#780=EDGE_LOOP('',(#781,#782,#783,#784,#785,#786,#787)) ;
#795=EDGE_LOOP('',(#796,#797)) ;
#21=MANIFOLD_SOLID_BREP('Body.2',#30) ;
#41=VERTEX_POINT('',#40) ;
#43=VERTEX_POINT('',#42) ;
#50=VERTEX_POINT('',#49) ;
#57=VERTEX_POINT('',#56) ;
#129=VERTEX_POINT('',#128) ;
#136=VERTEX_POINT('',#135) ;
#197=VERTEX_POINT('',#196) ;
#199=VERTEX_POINT('',#198) ;
#242=VERTEX_POINT('',#241) ;
#249=VERTEX_POINT('',#248) ;
#280=VERTEX_POINT('',#279) ;
#287=VERTEX_POINT('',#286) ;
#323=VERTEX_POINT('',#322) ;
#330=VERTEX_POINT('',#329) ;
#371=VERTEX_POINT('',#370) ;
#373=VERTEX_POINT('',#372) ;
#399=VERTEX_POINT('',#398) ;
#406=VERTEX_POINT('',#405) ;
#447=VERTEX_POINT('',#446) ;
#449=VERTEX_POINT('',#448) ;
#456=VERTEX_POINT('',#455) ;
#463=VERTEX_POINT('',#462) ;
#470=VERTEX_POINT('',#469) ;
#477=VERTEX_POINT('',#476) ;
#522=VERTEX_POINT('',#521) ;
#524=VERTEX_POINT('',#523) ;
#534=VERTEX_POINT('',#533) ;
#576=VERTEX_POINT('',#575) ;
#612=VERTEX_POINT('',#611) ;
#651=VERTEX_POINT('',#650) ;
#661=VERTEX_POINT('',#660) ;
#698=VERTEX_POINT('',#697) ;
#751=VERTEX_POINT('',#750) ;
#758=VERTEX_POINT('',#757) ;
#70=ADVANCED_FACE('Body.2',(#69),#35,.T.) ;
#106=ADVANCED_FACE('Body.2',(#105),#75,.T.) ;
#118=ADVANCED_FACE('Body.2',(#117),#35,.T.) ;
#149=ADVANCED_FACE('Body.2',(#148),#123,.T.) ;
#161=ADVANCED_FACE('Body.2',(#160),#123,.T.) ;
#231=ADVANCED_FACE('Body.2',(#170,#230),#166,.F.) ;
#262=ADVANCED_FACE('Body.2',(#261),#236,.T.) ;
#274=ADVANCED_FACE('Body.2',(#273),#236,.T.) ;
#300=ADVANCED_FACE('Body.2',(#299),#123,.T.) ;
#312=ADVANCED_FACE('Body.2',(#311),#123,.T.) ;
#343=ADVANCED_FACE('Body.2',(#342),#317,.F.) ;
#360=ADVANCED_FACE('Body.2',(#359),#348,.F.) ;
#388=ADVANCED_FACE('Body.2',(#383,#387),#365,.T.) ;
#419=ADVANCED_FACE('Body.2',(#418),#393,.T.) ;
#436=ADVANCED_FACE('Body.2',(#435),#424,.T.) ;
#496=ADVANCED_FACE('Body.2',(#491,#495),#441,.T.) ;
#553=ADVANCED_FACE('Body.2',(#552),#501,.T.) ;
#589=ADVANCED_FACE('Body.2',(#588),#558,.T.) ;
#625=ADVANCED_FACE('Body.2',(#624),#594,.T.) ;
#675=ADVANCED_FACE('Body.2',(#674),#630,.T.) ;
#711=ADVANCED_FACE('Body.2',(#710),#680,.T.) ;
#740=ADVANCED_FACE('Body.2',(#739),#716,.T.) ;
#774=ADVANCED_FACE('Body.2',(#773),#745,.T.) ;
#789=ADVANCED_FACE('Body.2',(#788),#745,.T.) ;
#799=ADVANCED_FACE('Body.2',(#798),#794,.F.) ;
#4=APPLICATION_PROTOCOL_DEFINITION('international standard','ap242_managed_model_based_3d_engineering',2014,#1) ;
#76=B_SPLINE_CURVE_WITH_KNOTS('',5,(#77,#78,#79,#80,#81,#82,#83,#84,#85,#86,#87,#88,#89,#90,#91,#92,#93,#94,#95,#96,#97,#98,#99,#100),.UNSPECIFIED.,.F.,.U.,(6,3,3,3,3,3,3,6),(0.,1.63306845648,3.26613693285,4.89920539382,6.53227385371,8.16534231557,9.79841076736,10.9474666548),.UNSPECIFIED.) ;
#171=B_SPLINE_CURVE_WITH_KNOTS('',5,(#172,#173,#174,#175,#176,#177,#178,#179,#180,#181,#182,#183,#184,#185,#186,#187,#188,#189,#190,#191,#192,#193,#194,#195),.UNSPECIFIED.,.F.,.U.,(6,3,3,3,3,3,3,6),(0.,1.63306845648,3.26613693285,4.8992053938,6.53227385368,8.16534231559,9.79841076733,10.9474666548),.UNSPECIFIED.) ;
#201=B_SPLINE_CURVE_WITH_KNOTS('',5,(#202,#203,#204,#205,#206,#207,#208,#209,#210,#211,#212,#213,#214,#215,#216,#217,#218,#219,#220,#221,#222,#223,#224,#225),.UNSPECIFIED.,.F.,.U.,(6,3,3,3,3,3,3,6),(0.,1.63306845649,3.26613693285,4.89920539382,6.53227385371,8.16534231561,9.79841076736,10.9474666549),.UNSPECIFIED.) ;
#502=B_SPLINE_CURVE_WITH_KNOTS('',5,(#503,#504,#505,#506,#507,#508,#509,#510,#511,#512,#513,#514,#515,#516,#517,#518,#519,#520),.UNSPECIFIED.,.F.,.U.,(6,3,3,3,3,6),(0.,0.0188019783294,30.9334639557,66.3903587841,92.1839526495,102.555057426),.UNSPECIFIED.) ;
#526=B_SPLINE_CURVE_WITH_KNOTS('',5,(#527,#528,#529,#530,#531,#532),.UNSPECIFIED.,.F.,.U.,(6,6),(0.,0.223798436632),.UNSPECIFIED.) ;
#559=B_SPLINE_CURVE_WITH_KNOTS('',5,(#560,#561,#562,#563,#564,#565,#566,#567,#568,#569,#570,#571,#572,#573,#574),.UNSPECIFIED.,.F.,.U.,(6,3,3,3,6),(0.,0.0187713469965,30.9338993193,79.732427418,104.956931642),.UNSPECIFIED.) ;
#595=B_SPLINE_CURVE_WITH_KNOTS('',5,(#596,#597,#598,#599,#600,#601,#602,#603,#604,#605,#606,#607,#608,#609,#610),.UNSPECIFIED.,.F.,.U.,(6,3,3,3,6),(0.,0.0187713469965,30.9338993205,79.7324274173,104.956931642),.UNSPECIFIED.) ;
#631=B_SPLINE_CURVE_WITH_KNOTS('',5,(#632,#633,#634,#635,#636,#637,#638,#639,#640,#641,#642,#643,#644,#645,#646,#647,#648,#649),.UNSPECIFIED.,.F.,.U.,(6,3,3,3,3,6),(0.,0.0188019783295,30.9334639548,66.3903587831,92.1839526465,102.555057423),.UNSPECIFIED.) ;
#653=B_SPLINE_CURVE_WITH_KNOTS('',5,(#654,#655,#656,#657,#658,#659),.UNSPECIFIED.,.F.,.U.,(6,6),(0.,0.223798436632),.UNSPECIFIED.) ;
#681=B_SPLINE_CURVE_WITH_KNOTS('',5,(#682,#683,#684,#685,#686,#687,#688,#689,#690,#691,#692,#693,#694,#695,#696),.UNSPECIFIED.,.F.,.U.,(6,3,3,3,6),(0.,0.0187713469965,30.9338993186,79.7324274132,104.956931637),.UNSPECIFIED.) ;
#717=B_SPLINE_CURVE_WITH_KNOTS('',5,(#718,#719,#720,#721,#722,#723,#724,#725,#726,#727,#728,#729,#730,#731,#732),.UNSPECIFIED.,.F.,.U.,(6,3,3,3,6),(0.,0.0187713469965,30.9338993203,79.7324274202,104.956931645),.UNSPECIFIED.) ;
#22=COLOUR_RGB('Colour',0.882352941176,0.882352941176,0.882352941176) ;
#69=FACE_OUTER_BOUND('',#64,.T.) ;
#105=FACE_OUTER_BOUND('',#102,.T.) ;
#117=FACE_OUTER_BOUND('',#112,.T.) ;
#148=FACE_OUTER_BOUND('',#143,.T.) ;
#160=FACE_OUTER_BOUND('',#155,.T.) ;
#170=FACE_OUTER_BOUND('',#167,.T.) ;
#261=FACE_OUTER_BOUND('',#256,.T.) ;
#273=FACE_OUTER_BOUND('',#268,.T.) ;
#299=FACE_OUTER_BOUND('',#294,.T.) ;
#311=FACE_OUTER_BOUND('',#306,.T.) ;
#342=FACE_OUTER_BOUND('',#337,.T.) ;
#359=FACE_OUTER_BOUND('',#354,.T.) ;
#383=FACE_OUTER_BOUND('',#380,.T.) ;
#418=FACE_OUTER_BOUND('',#413,.T.) ;
#435=FACE_OUTER_BOUND('',#430,.T.) ;
#491=FACE_OUTER_BOUND('',#484,.T.) ;
#552=FACE_OUTER_BOUND('',#546,.T.) ;
#588=FACE_OUTER_BOUND('',#583,.T.) ;
#624=FACE_OUTER_BOUND('',#619,.T.) ;
#674=FACE_OUTER_BOUND('',#668,.T.) ;
#710=FACE_OUTER_BOUND('',#705,.T.) ;
#739=FACE_OUTER_BOUND('',#734,.T.) ;
#773=FACE_OUTER_BOUND('',#765,.T.) ;
#788=FACE_OUTER_BOUND('',#780,.T.) ;
#798=FACE_OUTER_BOUND('',#795,.T.) ;
#7=PRODUCT_CATEGORY_RELATIONSHIP(' ',' ',#5,#6) ;
#17=PRODUCT_DEFINITION_FORMATION_WITH_SPECIFIED_SOURCE('A.1',' ',#16,.NOT_KNOWN.) ;
#20=SHAPE_DEFINITION_REPRESENTATION(#19,#13) ;
#8=(LENGTH_UNIT()NAMED_UNIT(*)SI_UNIT(.MILLI.,.METRE.)) ;
#9=(NAMED_UNIT(*)PLANE_ANGLE_UNIT()SI_UNIT($,.RADIAN.)) ;
#10=(NAMED_UNIT(*)SI_UNIT($,.STERADIAN.)SOLID_ANGLE_UNIT()) ;
#12=(GEOMETRIC_REPRESENTATION_CONTEXT(3)GLOBAL_UNCERTAINTY_ASSIGNED_CONTEXT((#11))GLOBAL_UNIT_ASSIGNED_CONTEXT((#8,#9,#10))REPRESENTATION_CONTEXT(' ',' ')) ;
ENDSEC;
END-ISO-10303-21;
