ISO-10303-21;
HEADER;
FILE_DESCRIPTION(('STEP AP203'),'1');
FILE_NAME('m4-20-3646035.stp','2024-09-26T02:53:24',('TraceParts'),('TraceParts S.A.'),'Spatial InterOp 3D',' ',' ');
FILE_SCHEMA(('CONFIG_CONTROL_DESIGN'));
ENDSEC;
DATA;
#1=DESIGN_CONTEXT('',#27,'design');
#2=APPLICATION_PROTOCOL_DEFINITION('INTERNATIONAL STANDARD','config_control_design',1994,#27);
#3=PRODUCT_CATEGORY_RELATIONSHIP('NONE','NONE',#28,#29);
#4=DATE_AND_TIME(#30,#31);
#5=DATE_TIME_ROLE('creation_date');
#6=DATE_TIME_ROLE('classification_date');
#7=PERSON_AND_ORGANIZATION_ROLE('creator');
#8=PERSON_AND_ORGANIZATION_ROLE('design_supplier');
#9=PERSON_AND_ORGANIZATION_ROLE('classification_officer');
#10=PERSON_AND_ORGANIZATION_ROLE('design_owner');
#11=APPROVAL_PERSON_ORGANIZATION(#32,#33,#34);
#12=APPROVAL_DATE_TIME(#4,#33);
#13=CC_DESIGN_APPROVAL(#33,(#35,#36,#37));
#14=CC_DESIGN_DATE_AND_TIME_ASSIGNMENT(#4,#5,(#37));
#15=CC_DESIGN_DATE_AND_TIME_ASSIGNMENT(#4,#6,(#35));
#16=CC_DESIGN_PERSON_AND_ORGANIZATION_ASSIGNMENT(#32,#10,(#38));
#17=CC_DESIGN_PERSON_AND_ORGANIZATION_ASSIGNMENT(#32,#7,(#37));
#18=CC_DESIGN_PERSON_AND_ORGANIZATION_ASSIGNMENT(#32,#7,(#36));
#19=CC_DESIGN_PERSON_AND_ORGANIZATION_ASSIGNMENT(#32,#8,(#36));
#20=CC_DESIGN_SECURITY_CLASSIFICATION(#35,(#36));
#21=CC_DESIGN_PERSON_AND_ORGANIZATION_ASSIGNMENT(#32,#9,(#35));
#22=SHAPE_DEFINITION_REPRESENTATION(#39,#40);
#23= (GEOMETRIC_REPRESENTATION_CONTEXT(3)GLOBAL_UNCERTAINTY_ASSIGNED_CONTEXT((#43))GLOBAL_UNIT_ASSIGNED_CONTEXT((#45,#46,#47))REPRESENTATION_CONTEXT('NONE','WORKSPACE'));
#27=APPLICATION_CONTEXT('CONFIGURATION CONTROLLED 3D DESIGNS OF MECHANICAL PARTS AND ASSEMBLIES');
#28=PRODUCT_CATEGORY('part','NONE');
#29=PRODUCT_RELATED_PRODUCT_CATEGORY('detail',' ',(#38));
#30=CALENDAR_DATE(2024,26,8);
#31=LOCAL_TIME(4,53,24.0,#49);
#32=PERSON_AND_ORGANIZATION(#50,#51);
#33=APPROVAL(#52,'SOLID MODEL');
#34=APPROVAL_ROLE('APPROVED');
#35=SECURITY_CLASSIFICATION('','',#53);
#36=PRODUCT_DEFINITION_FORMATION_WITH_SPECIFIED_SOURCE(' ','NONE',#38,.NOT_KNOWN.);
#37=PRODUCT_DEFINITION('','NONE',#36,#1);
#38=PRODUCT('1','','PART--DESC',(#54));
#39=PRODUCT_DEFINITION_SHAPE('NONE','NONE',#37);
#40=ADVANCED_BREP_SHAPE_REPRESENTATION('1',(#55,#56),#23);
#43=UNCERTAINTY_MEASURE_WITH_UNIT(LENGTH_MEASURE(1.0E-06),#45,'','');
#45= (CONVERSION_BASED_UNIT('MILLIMETRE',#59)LENGTH_UNIT()NAMED_UNIT(#62));
#46= (NAMED_UNIT(#64)PLANE_ANGLE_UNIT()SI_UNIT($,.RADIAN.));
#47= (NAMED_UNIT(#64)SOLID_ANGLE_UNIT()SI_UNIT($,.STERADIAN.));
#49=COORDINATED_UNIVERSAL_TIME_OFFSET(1,0,.AHEAD.);
#50=PERSON('','UNSPECIFIED',$,$,$,$);
#51=ORGANIZATION('UNSPECIFIED','UNSPECIFIED','UNSPECIFIED');
#52=APPROVAL_STATUS('approved');
#53=SECURITY_CLASSIFICATION_LEVEL('unclassified');
#54=MECHANICAL_CONTEXT('',#27,'mechanical');
#55=MANIFOLD_SOLID_BREP('1',#70);
#56=AXIS2_PLACEMENT_3D('',#71,#72,#73);
#59=LENGTH_MEASURE_WITH_UNIT(LENGTH_MEASURE(1.0),#74);
#62=DIMENSIONAL_EXPONENTS(1.0,0.0,0.0,0.0,0.0,0.0,0.0);
#64=DIMENSIONAL_EXPONENTS(0.0,0.0,0.0,0.0,0.0,0.0,0.0);
#70=CLOSED_SHELL('',(#75,#76,#77,#78,#79,#80,#81,#82,#83,#84,#85,#86,#87,#88,#89,#90,#91,#92,#93,#94,#95));
#71=CARTESIAN_POINT('',(0.0,0.0,0.0));
#72=DIRECTION('',(0.0,0.0,1.0));
#73=DIRECTION('',(1.0,0.0,0.0));
#74= (NAMED_UNIT(#62)LENGTH_UNIT()SI_UNIT(.MILLI.,.METRE.));
#75=ADVANCED_FACE('',(#97),#98,.T.);
#76=ADVANCED_FACE('',(#99),#100,.T.);
#77=ADVANCED_FACE('',(#101),#102,.T.);
#78=ADVANCED_FACE('',(#103),#104,.T.);
#79=ADVANCED_FACE('',(#105),#106,.T.);
#80=ADVANCED_FACE('',(#107),#108,.F.);
#81=ADVANCED_FACE('',(#109),#110,.F.);
#82=ADVANCED_FACE('',(#111),#112,.F.);
#83=ADVANCED_FACE('',(#113),#114,.F.);
#84=ADVANCED_FACE('',(#115),#116,.F.);
#85=ADVANCED_FACE('',(#117),#118,.F.);
#86=ADVANCED_FACE('',(#119),#120,.F.);
#87=ADVANCED_FACE('',(#121,#122),#123,.T.);
#88=ADVANCED_FACE('',(#124),#125,.T.);
#89=ADVANCED_FACE('',(#126,#127),#128,.T.);
#90=ADVANCED_FACE('',(#129),#130,.T.);
#91=ADVANCED_FACE('',(#131,#132),#133,.T.);
#92=ADVANCED_FACE('',(#134),#135,.T.);
#93=ADVANCED_FACE('',(#136),#137,.T.);
#94=ADVANCED_FACE('',(#138),#139,.T.);
#95=ADVANCED_FACE('',(#140),#141,.T.);
#97=FACE_OUTER_BOUND('',#142,.T.);
#98=CONICAL_SURFACE('',#143,1.8105625,0.785398163397447);
#99=FACE_OUTER_BOUND('',#144,.T.);
#100=CYLINDRICAL_SURFACE('',#145,2.0);
#101=FACE_OUTER_BOUND('',#146,.T.);
#102=CONICAL_SURFACE('',#147,1.8105625,0.785398163397447);
#103=FACE_OUTER_BOUND('',#148,.T.);
#104=CYLINDRICAL_SURFACE('',#149,2.0);
#105=FACE_OUTER_BOUND('',#150,.T.);
#106=CYLINDRICAL_SURFACE('',#151,4.0);
#107=FACE_OUTER_BOUND('',#152,.T.);
#108=PLANE('',#153);
#109=FACE_OUTER_BOUND('',#154,.T.);
#110=PLANE('',#155);
#111=FACE_OUTER_BOUND('',#156,.T.);
#112=PLANE('',#157);
#113=FACE_OUTER_BOUND('',#158,.T.);
#114=PLANE('',#159);
#115=FACE_OUTER_BOUND('',#160,.T.);
#116=PLANE('',#161);
#117=FACE_OUTER_BOUND('',#162,.T.);
#118=PLANE('',#163);
#119=FACE_OUTER_BOUND('',#164,.T.);
#120=PLANE('',#165);
#121=FACE_BOUND('',#166,.T.);
#122=FACE_OUTER_BOUND('',#167,.T.);
#123=PLANE('',#168);
#124=FACE_OUTER_BOUND('',#169,.T.);
#125=CYLINDRICAL_SURFACE('',#170,4.0);
#126=FACE_BOUND('',#171,.T.);
#127=FACE_OUTER_BOUND('',#172,.T.);
#128=PLANE('',#173);
#129=FACE_OUTER_BOUND('',#174,.T.);
#130=CYLINDRICAL_SURFACE('',#175,2.0);
#131=FACE_BOUND('',#176,.T.);
#132=FACE_OUTER_BOUND('',#177,.T.);
#133=PLANE('',#178);
#134=FACE_OUTER_BOUND('',#179,.T.);
#135=CONICAL_SURFACE('',#180,1.8105625,0.785398163397447);
#136=FACE_OUTER_BOUND('',#181,.T.);
#137=CYLINDRICAL_SURFACE('',#182,2.0);
#138=FACE_OUTER_BOUND('',#183,.T.);
#139=CONICAL_SURFACE('',#184,1.8105625,0.785398163397447);
#140=FACE_OUTER_BOUND('',#185,.T.);
#141=PLANE('',#186);
#142=EDGE_LOOP('',(#187,#188,#189,#190));
#143=AXIS2_PLACEMENT_3D('',#191,#192,#193);
#144=EDGE_LOOP('',(#194,#195,#196,#197));
#145=AXIS2_PLACEMENT_3D('',#198,#199,#200);
#146=EDGE_LOOP('',(#201,#202,#203,#204));
#147=AXIS2_PLACEMENT_3D('',#205,#206,#207);
#148=EDGE_LOOP('',(#208,#209,#210,#211));
#149=AXIS2_PLACEMENT_3D('',#212,#213,#214);
#150=EDGE_LOOP('',(#215,#216,#217,#218));
#151=AXIS2_PLACEMENT_3D('',#219,#220,#221);
#152=EDGE_LOOP('',(#222,#223,#224,#225));
#153=AXIS2_PLACEMENT_3D('',#226,#227,#228);
#154=EDGE_LOOP('',(#229,#230,#231,#232));
#155=AXIS2_PLACEMENT_3D('',#233,#234,#235);
#156=EDGE_LOOP('',(#236,#237,#238,#239));
#157=AXIS2_PLACEMENT_3D('',#240,#241,#242);
#158=EDGE_LOOP('',(#243,#244,#245,#246));
#159=AXIS2_PLACEMENT_3D('',#247,#248,#249);
#160=EDGE_LOOP('',(#250,#251,#252,#253));
#161=AXIS2_PLACEMENT_3D('',#254,#255,#256);
#162=EDGE_LOOP('',(#257,#258,#259,#260));
#163=AXIS2_PLACEMENT_3D('',#261,#262,#263);
#164=EDGE_LOOP('',(#264,#265,#266,#267,#268,#269));
#165=AXIS2_PLACEMENT_3D('',#270,#271,#272);
#166=EDGE_LOOP('',(#273,#274,#275,#276,#277,#278));
#167=EDGE_LOOP('',(#279,#280));
#168=AXIS2_PLACEMENT_3D('',#281,#282,#283);
#169=EDGE_LOOP('',(#284,#285,#286,#287));
#170=AXIS2_PLACEMENT_3D('',#288,#289,#290);
#171=EDGE_LOOP('',(#291,#292));
#172=EDGE_LOOP('',(#293,#294));
#173=AXIS2_PLACEMENT_3D('',#295,#296,#297);
#174=EDGE_LOOP('',(#298,#299,#300,#301));
#175=AXIS2_PLACEMENT_3D('',#302,#303,#304);
#176=EDGE_LOOP('',(#305,#306));
#177=EDGE_LOOP('',(#307,#308));
#178=AXIS2_PLACEMENT_3D('',#309,#310,#311);
#179=EDGE_LOOP('',(#312,#313,#314,#315));
#180=AXIS2_PLACEMENT_3D('',#316,#317,#318);
#181=EDGE_LOOP('',(#319,#320,#321,#322));
#182=AXIS2_PLACEMENT_3D('',#323,#324,#325);
#183=EDGE_LOOP('',(#326,#327,#328,#329));
#184=AXIS2_PLACEMENT_3D('',#330,#331,#332);
#185=EDGE_LOOP('',(#333,#334));
#186=AXIS2_PLACEMENT_3D('',#335,#336,#337);
#187=ORIENTED_EDGE('',*,*,#338,.F.);
#188=ORIENTED_EDGE('',*,*,#339,.T.);
#189=ORIENTED_EDGE('',*,*,#340,.F.);
#190=ORIENTED_EDGE('',*,*,#341,.F.);
#191=CARTESIAN_POINT('',(19.8105625,0.0,0.0));
#192=DIRECTION('',(-1.0,-0.0,-0.0));
#193=DIRECTION('',(0.0,1.0,0.0));
#194=ORIENTED_EDGE('',*,*,#342,.F.);
#195=ORIENTED_EDGE('',*,*,#343,.T.);
#196=ORIENTED_EDGE('',*,*,#344,.F.);
#197=ORIENTED_EDGE('',*,*,#339,.F.);
#198=CARTESIAN_POINT('',(11.05,0.0,0.0));
#199=DIRECTION('',(1.0,0.0,0.0));
#200=DIRECTION('',(0.0,1.0,0.0));
#201=ORIENTED_EDGE('',*,*,#345,.F.);
#202=ORIENTED_EDGE('',*,*,#346,.T.);
#203=ORIENTED_EDGE('',*,*,#347,.F.);
#204=ORIENTED_EDGE('',*,*,#343,.F.);
#205=CARTESIAN_POINT('',(2.2894375,0.0,0.0));
#206=DIRECTION('',(1.0,-0.0,-0.0));
#207=DIRECTION('',(0.0,1.0,0.0));
#208=ORIENTED_EDGE('',*,*,#348,.F.);
#209=ORIENTED_EDGE('',*,*,#349,.T.);
#210=ORIENTED_EDGE('',*,*,#350,.F.);
#211=ORIENTED_EDGE('',*,*,#351,.F.);
#212=CARTESIAN_POINT('',(1.05,0.0,0.0));
#213=DIRECTION('',(1.0,0.0,0.0));
#214=DIRECTION('',(0.0,1.0,0.0));
#215=ORIENTED_EDGE('',*,*,#352,.F.);
#216=ORIENTED_EDGE('',*,*,#353,.T.);
#217=ORIENTED_EDGE('',*,*,#354,.F.);
#218=ORIENTED_EDGE('',*,*,#355,.F.);
#219=CARTESIAN_POINT('',(-0.75,0.0,0.0));
#220=DIRECTION('',(1.0,0.0,0.0));
#221=DIRECTION('',(0.0,1.0,0.0));
#222=ORIENTED_EDGE('',*,*,#356,.F.);
#223=ORIENTED_EDGE('',*,*,#357,.T.);
#224=ORIENTED_EDGE('',*,*,#358,.F.);
#225=ORIENTED_EDGE('',*,*,#359,.F.);
#226=CARTESIAN_POINT('',(-2.5,0.866025403784438,-0.5));
#227=DIRECTION('',(0.0,0.866025403784438,-0.5));
#228=DIRECTION('',(0.0,0.5,0.866025403784438));
#229=ORIENTED_EDGE('',*,*,#360,.F.);
#230=ORIENTED_EDGE('',*,*,#359,.T.);
#231=ORIENTED_EDGE('',*,*,#361,.F.);
#232=ORIENTED_EDGE('',*,*,#362,.F.);
#233=CARTESIAN_POINT('',(-2.5,0.866025403784439,0.5));
#234=DIRECTION('',(0.0,0.866025403784439,0.5));
#235=DIRECTION('',(0.0,-0.5,0.866025403784439));
#236=ORIENTED_EDGE('',*,*,#363,.F.);
#237=ORIENTED_EDGE('',*,*,#362,.T.);
#238=ORIENTED_EDGE('',*,*,#364,.F.);
#239=ORIENTED_EDGE('',*,*,#365,.F.);
#240=CARTESIAN_POINT('',(-2.5,4.44089209850063E-16,1.0));
#241=DIRECTION('',(0.0,1.92296268638356E-16,1.0));
#242=DIRECTION('',(0.0,-1.0,1.92296268638356E-16));
#243=ORIENTED_EDGE('',*,*,#366,.F.);
#244=ORIENTED_EDGE('',*,*,#365,.T.);
#245=ORIENTED_EDGE('',*,*,#367,.F.);
#246=ORIENTED_EDGE('',*,*,#368,.F.);
#247=CARTESIAN_POINT('',(-2.5,-0.866025403784438,0.5));
#248=DIRECTION('',(0.0,-0.866025403784439,0.5));
#249=DIRECTION('',(0.0,-0.5,-0.866025403784439));
#250=ORIENTED_EDGE('',*,*,#369,.F.);
#251=ORIENTED_EDGE('',*,*,#370,.T.);
#252=ORIENTED_EDGE('',*,*,#371,.F.);
#253=ORIENTED_EDGE('',*,*,#357,.F.);
#254=CARTESIAN_POINT('',(-2.5,-2.22044604925031E-16,-1.0));
#255=DIRECTION('',(0.0,0.0,-1.0));
#256=DIRECTION('',(0.0,1.0,0.0));
#257=ORIENTED_EDGE('',*,*,#372,.F.);
#258=ORIENTED_EDGE('',*,*,#368,.T.);
#259=ORIENTED_EDGE('',*,*,#373,.F.);
#260=ORIENTED_EDGE('',*,*,#370,.F.);
#261=CARTESIAN_POINT('',(-2.5,-0.866025403784439,-0.5));
#262=DIRECTION('',(0.0,-0.866025403784439,-0.5));
#263=DIRECTION('',(0.0,0.5,-0.866025403784439));
#264=ORIENTED_EDGE('',*,*,#367,.T.);
#265=ORIENTED_EDGE('',*,*,#364,.T.);
#266=ORIENTED_EDGE('',*,*,#361,.T.);
#267=ORIENTED_EDGE('',*,*,#358,.T.);
#268=ORIENTED_EDGE('',*,*,#371,.T.);
#269=ORIENTED_EDGE('',*,*,#373,.T.);
#270=CARTESIAN_POINT('',(1.0,-7.14916341614684E-17,0.0));
#271=DIRECTION('',(1.0,0.0,0.0));
#272=DIRECTION('',(0.0,0.0,-1.0));
#273=ORIENTED_EDGE('',*,*,#366,.T.);
#274=ORIENTED_EDGE('',*,*,#372,.T.);
#275=ORIENTED_EDGE('',*,*,#369,.T.);
#276=ORIENTED_EDGE('',*,*,#356,.T.);
#277=ORIENTED_EDGE('',*,*,#360,.T.);
#278=ORIENTED_EDGE('',*,*,#363,.T.);
#279=ORIENTED_EDGE('',*,*,#353,.F.);
#280=ORIENTED_EDGE('',*,*,#374,.F.);
#281=CARTESIAN_POINT('',(-1.5,2.0,0.0));
#282=DIRECTION('',(-1.0,6.12303176911189E-17,0.0));
#283=DIRECTION('',(-6.12303176911189E-17,-1.0,-0.0));
#284=ORIENTED_EDGE('',*,*,#352,.T.);
#285=ORIENTED_EDGE('',*,*,#375,.F.);
#286=ORIENTED_EDGE('',*,*,#354,.T.);
#287=ORIENTED_EDGE('',*,*,#374,.T.);
#288=CARTESIAN_POINT('',(-0.75,0.0,0.0));
#289=DIRECTION('',(1.0,0.0,0.0));
#290=DIRECTION('',(0.0,1.0,0.0));
#291=ORIENTED_EDGE('',*,*,#349,.F.);
#292=ORIENTED_EDGE('',*,*,#376,.F.);
#293=ORIENTED_EDGE('',*,*,#355,.T.);
#294=ORIENTED_EDGE('',*,*,#375,.T.);
#295=CARTESIAN_POINT('',(0.0,3.0,0.0));
#296=DIRECTION('',(1.0,0.0,0.0));
#297=DIRECTION('',(0.0,1.0,0.0));
#298=ORIENTED_EDGE('',*,*,#348,.T.);
#299=ORIENTED_EDGE('',*,*,#377,.F.);
#300=ORIENTED_EDGE('',*,*,#350,.T.);
#301=ORIENTED_EDGE('',*,*,#376,.T.);
#302=CARTESIAN_POINT('',(1.05,0.0,0.0));
#303=DIRECTION('',(1.0,0.0,0.0));
#304=DIRECTION('',(0.0,1.0,0.0));
#305=ORIENTED_EDGE('',*,*,#346,.F.);
#306=ORIENTED_EDGE('',*,*,#378,.F.);
#307=ORIENTED_EDGE('',*,*,#351,.T.);
#308=ORIENTED_EDGE('',*,*,#377,.T.);
#309=CARTESIAN_POINT('',(2.1,1.8105625,0.0));
#310=DIRECTION('',(1.0,0.0,0.0));
#311=DIRECTION('',(0.0,1.0,0.0));
#312=ORIENTED_EDGE('',*,*,#345,.T.);
#313=ORIENTED_EDGE('',*,*,#379,.F.);
#314=ORIENTED_EDGE('',*,*,#347,.T.);
#315=ORIENTED_EDGE('',*,*,#378,.T.);
#316=CARTESIAN_POINT('',(2.2894375,0.0,0.0));
#317=DIRECTION('',(1.0,-0.0,-0.0));
#318=DIRECTION('',(0.0,1.0,0.0));
#319=ORIENTED_EDGE('',*,*,#342,.T.);
#320=ORIENTED_EDGE('',*,*,#380,.F.);
#321=ORIENTED_EDGE('',*,*,#344,.T.);
#322=ORIENTED_EDGE('',*,*,#379,.T.);
#323=CARTESIAN_POINT('',(11.05,0.0,0.0));
#324=DIRECTION('',(1.0,0.0,0.0));
#325=DIRECTION('',(0.0,1.0,0.0));
#326=ORIENTED_EDGE('',*,*,#338,.T.);
#327=ORIENTED_EDGE('',*,*,#381,.F.);
#328=ORIENTED_EDGE('',*,*,#340,.T.);
#329=ORIENTED_EDGE('',*,*,#380,.T.);
#330=CARTESIAN_POINT('',(19.8105625,0.0,0.0));
#331=DIRECTION('',(-1.0,-0.0,-0.0));
#332=DIRECTION('',(0.0,1.0,0.0));
#333=ORIENTED_EDGE('',*,*,#341,.T.);
#334=ORIENTED_EDGE('',*,*,#381,.T.);
#335=CARTESIAN_POINT('',(20.0,0.8105625,0.0));
#336=DIRECTION('',(1.0,0.0,0.0));
#337=DIRECTION('',(0.0,1.0,0.0));
#338=EDGE_CURVE('',#382,#383,#384,.T.);
#339=EDGE_CURVE('',#382,#385,#386,.T.);
#340=EDGE_CURVE('',#387,#385,#388,.T.);
#341=EDGE_CURVE('',#383,#387,#389,.T.);
#342=EDGE_CURVE('',#390,#382,#391,.T.);
#343=EDGE_CURVE('',#390,#392,#393,.T.);
#344=EDGE_CURVE('',#385,#392,#394,.T.);
#345=EDGE_CURVE('',#395,#390,#396,.T.);
#346=EDGE_CURVE('',#395,#397,#398,.T.);
#347=EDGE_CURVE('',#392,#397,#399,.T.);
#348=EDGE_CURVE('',#400,#401,#402,.T.);
#349=EDGE_CURVE('',#400,#403,#404,.T.);
#350=EDGE_CURVE('',#405,#403,#406,.T.);
#351=EDGE_CURVE('',#401,#405,#407,.T.);
#352=EDGE_CURVE('',#408,#409,#410,.T.);
#353=EDGE_CURVE('',#408,#411,#412,.T.);
#354=EDGE_CURVE('',#413,#411,#414,.T.);
#355=EDGE_CURVE('',#409,#413,#415,.T.);
#356=EDGE_CURVE('',#416,#417,#418,.T.);
#357=EDGE_CURVE('',#416,#419,#420,.T.);
#358=EDGE_CURVE('',#421,#419,#422,.T.);
#359=EDGE_CURVE('',#417,#421,#423,.T.);
#360=EDGE_CURVE('',#417,#424,#425,.T.);
#361=EDGE_CURVE('',#426,#421,#427,.T.);
#362=EDGE_CURVE('',#424,#426,#428,.T.);
#363=EDGE_CURVE('',#424,#429,#430,.T.);
#364=EDGE_CURVE('',#431,#426,#432,.T.);
#365=EDGE_CURVE('',#429,#431,#433,.T.);
#366=EDGE_CURVE('',#429,#434,#435,.T.);
#367=EDGE_CURVE('',#436,#431,#437,.T.);
#368=EDGE_CURVE('',#434,#436,#438,.T.);
#369=EDGE_CURVE('',#439,#416,#440,.T.);
#370=EDGE_CURVE('',#439,#441,#442,.T.);
#371=EDGE_CURVE('',#419,#441,#443,.T.);
#372=EDGE_CURVE('',#434,#439,#444,.T.);
#373=EDGE_CURVE('',#441,#436,#445,.T.);
#374=EDGE_CURVE('',#411,#408,#446,.T.);
#375=EDGE_CURVE('',#413,#409,#447,.T.);
#376=EDGE_CURVE('',#403,#400,#448,.T.);
#377=EDGE_CURVE('',#405,#401,#449,.T.);
#378=EDGE_CURVE('',#397,#395,#450,.T.);
#379=EDGE_CURVE('',#392,#390,#451,.T.);
#380=EDGE_CURVE('',#385,#382,#452,.T.);
#381=EDGE_CURVE('',#387,#383,#453,.T.);
#382=VERTEX_POINT('',#454);
#383=VERTEX_POINT('',#455);
#384=LINE('',#456,#457);
#385=VERTEX_POINT('',#458);
#386=CIRCLE('',#459,2.0);
#387=VERTEX_POINT('',#460);
#388=LINE('',#461,#462);
#389=CIRCLE('',#463,1.621125);
#390=VERTEX_POINT('',#464);
#391=LINE('',#465,#466);
#392=VERTEX_POINT('',#467);
#393=CIRCLE('',#468,2.0);
#394=LINE('',#469,#470);
#395=VERTEX_POINT('',#471);
#396=LINE('',#472,#473);
#397=VERTEX_POINT('',#474);
#398=CIRCLE('',#475,1.621125);
#399=LINE('',#476,#477);
#400=VERTEX_POINT('',#478);
#401=VERTEX_POINT('',#479);
#402=LINE('',#480,#481);
#403=VERTEX_POINT('',#482);
#404=CIRCLE('',#483,2.0);
#405=VERTEX_POINT('',#484);
#406=LINE('',#485,#486);
#407=CIRCLE('',#487,2.0);
#408=VERTEX_POINT('',#488);
#409=VERTEX_POINT('',#489);
#410=LINE('',#490,#491);
#411=VERTEX_POINT('',#492);
#412=CIRCLE('',#493,4.0);
#413=VERTEX_POINT('',#494);
#414=LINE('',#495,#496);
#415=CIRCLE('',#497,4.0);
#416=VERTEX_POINT('',#498);
#417=VERTEX_POINT('',#499);
#418=LINE('',#500,#501);
#419=VERTEX_POINT('',#502);
#420=LINE('',#503,#504);
#421=VERTEX_POINT('',#505);
#422=LINE('',#506,#507);
#423=LINE('',#508,#509);
#424=VERTEX_POINT('',#510);
#425=LINE('',#511,#512);
#426=VERTEX_POINT('',#513);
#427=LINE('',#514,#515);
#428=LINE('',#516,#517);
#429=VERTEX_POINT('',#518);
#430=LINE('',#519,#520);
#431=VERTEX_POINT('',#521);
#432=LINE('',#522,#523);
#433=LINE('',#524,#525);
#434=VERTEX_POINT('',#526);
#435=LINE('',#527,#528);
#436=VERTEX_POINT('',#529);
#437=LINE('',#530,#531);
#438=LINE('',#532,#533);
#439=VERTEX_POINT('',#534);
#440=LINE('',#535,#536);
#441=VERTEX_POINT('',#537);
#442=LINE('',#538,#539);
#443=LINE('',#540,#541);
#444=LINE('',#542,#543);
#445=LINE('',#544,#545);
#446=CIRCLE('',#546,4.0);
#447=CIRCLE('',#547,4.0);
#448=CIRCLE('',#548,2.0);
#449=CIRCLE('',#549,2.0);
#450=CIRCLE('',#550,1.621125);
#451=CIRCLE('',#551,2.0);
#452=CIRCLE('',#552,2.0);
#453=CIRCLE('',#553,1.621125);
#454=CARTESIAN_POINT('',(19.621125,2.0,0.0));
#455=CARTESIAN_POINT('',(20.0,1.621125,0.0));
#456=CARTESIAN_POINT('',(19.8105625,1.8105625,-2.21722634149253E-16));
#457=VECTOR('',#554,1.0);
#458=CARTESIAN_POINT('',(19.621125,-2.0,2.44921270764475E-16));
#459=AXIS2_PLACEMENT_3D('',#555,#556,#557);
#460=CARTESIAN_POINT('',(20.0,-1.621125,1.9852399753403E-16));
#461=CARTESIAN_POINT('',(19.8105625,-1.8105625,2.21722634149253E-16));
#462=VECTOR('',#558,1.0);
#463=AXIS2_PLACEMENT_3D('',#559,#560,#561);
#464=CARTESIAN_POINT('',(2.478875,2.0,0.0));
#465=CARTESIAN_POINT('',(11.05,2.0,-2.44921270764475E-16));
#466=VECTOR('',#562,1.0);
#467=CARTESIAN_POINT('',(2.478875,-2.0,2.44921270764475E-16));
#468=AXIS2_PLACEMENT_3D('',#563,#564,#565);
#469=CARTESIAN_POINT('',(11.05,-2.0,2.44921270764475E-16));
#470=VECTOR('',#566,1.0);
#471=CARTESIAN_POINT('',(2.1,1.621125,0.0));
#472=CARTESIAN_POINT('',(2.2894375,1.8105625,-2.21722634149253E-16));
#473=VECTOR('',#567,1.0);
#474=CARTESIAN_POINT('',(2.1,-1.621125,1.9852399753403E-16));
#475=AXIS2_PLACEMENT_3D('',#568,#569,#570);
#476=CARTESIAN_POINT('',(2.2894375,-1.8105625,2.21722634149253E-16));
#477=VECTOR('',#571,1.0);
#478=CARTESIAN_POINT('',(0.0,2.0,0.0));
#479=CARTESIAN_POINT('',(2.1,2.0,0.0));
#480=CARTESIAN_POINT('',(1.05,2.0,-2.44921270764475E-16));
#481=VECTOR('',#572,1.0);
#482=CARTESIAN_POINT('',(0.0,-2.0,2.44921270764475E-16));
#483=AXIS2_PLACEMENT_3D('',#573,#574,#575);
#484=CARTESIAN_POINT('',(2.1,-2.0,2.44921270764475E-16));
#485=CARTESIAN_POINT('',(1.05,-2.0,2.44921270764475E-16));
#486=VECTOR('',#576,1.0);
#487=AXIS2_PLACEMENT_3D('',#577,#578,#579);
#488=CARTESIAN_POINT('',(-1.5,4.0,0.0));
#489=CARTESIAN_POINT('',(0.0,4.0,0.0));
#490=CARTESIAN_POINT('',(-0.75,4.0,-4.89842541528951E-16));
#491=VECTOR('',#580,1.0);
#492=CARTESIAN_POINT('',(-1.5,-4.0,4.89842541528951E-16));
#493=AXIS2_PLACEMENT_3D('',#581,#582,#583);
#494=CARTESIAN_POINT('',(0.0,-4.0,4.89842541528951E-16));
#495=CARTESIAN_POINT('',(-0.75,-4.0,4.89842541528951E-16));
#496=VECTOR('',#584,1.0);
#497=AXIS2_PLACEMENT_3D('',#585,#586,#587);
#498=CARTESIAN_POINT('',(-1.5,0.577350269189625,-1.0));
#499=CARTESIAN_POINT('',(-1.5,1.15470053837925,-2.12110377521129E-16));
#500=CARTESIAN_POINT('',(-1.5,1.11602540378444,-0.0669872981077808));
#501=VECTOR('',#588,1.0);
#502=CARTESIAN_POINT('',(1.0,0.577350269189625,-1.0));
#503=CARTESIAN_POINT('',(-2.5,0.577350269189625,-1.0));
#504=VECTOR('',#589,1.0);
#505=CARTESIAN_POINT('',(1.0,1.15470053837925,-2.12110377521129E-16));
#506=CARTESIAN_POINT('',(1.0,0.577350269189625,-1.0));
#507=VECTOR('',#590,0.999999999999999);
#508=CARTESIAN_POINT('',(-2.5,1.15470053837925,-2.12110377521129E-16));
#509=VECTOR('',#591,1.0);
#510=CARTESIAN_POINT('',(-1.5,0.577350269189626,1.0));
#511=CARTESIAN_POINT('',(-1.5,1.11602540378444,0.0669872981077806));
#512=VECTOR('',#592,1.0);
#513=CARTESIAN_POINT('',(1.0,0.577350269189626,1.0));
#514=CARTESIAN_POINT('',(1.0,1.15470053837925,-2.12110377521129E-16));
#515=VECTOR('',#593,1.0);
#516=CARTESIAN_POINT('',(-2.5,0.577350269189626,1.0));
#517=VECTOR('',#594,1.0);
#518=CARTESIAN_POINT('',(-1.5,-0.577350269189626,1.0));
#519=CARTESIAN_POINT('',(-1.5,1.0,1.0));
#520=VECTOR('',#595,1.0);
#521=CARTESIAN_POINT('',(1.0,-0.577350269189626,1.0));
#522=CARTESIAN_POINT('',(1.0,0.577350269189626,1.0));
#523=VECTOR('',#596,1.0);
#524=CARTESIAN_POINT('',(-2.5,-0.577350269189626,1.0));
#525=VECTOR('',#597,1.0);
#526=CARTESIAN_POINT('',(-1.5,-1.15470053837925,7.07050159149938E-17));
#527=CARTESIAN_POINT('',(-1.5,-0.616025403784438,0.933012701892219));
#528=VECTOR('',#598,1.0);
#529=CARTESIAN_POINT('',(1.0,-1.15470053837925,7.07050159149938E-17));
#530=CARTESIAN_POINT('',(1.0,-0.577350269189626,1.0));
#531=VECTOR('',#599,0.999999999999999);
#532=CARTESIAN_POINT('',(-2.5,-1.15470053837925,7.07050159149938E-17));
#533=VECTOR('',#600,1.0);
#534=CARTESIAN_POINT('',(-1.5,-0.577350269189626,-1.0));
#535=CARTESIAN_POINT('',(-1.5,1.0,-1.0));
#536=VECTOR('',#601,1.0);
#537=CARTESIAN_POINT('',(1.0,-0.577350269189626,-1.0));
#538=CARTESIAN_POINT('',(-2.5,-0.577350269189626,-1.0));
#539=VECTOR('',#602,1.0);
#540=CARTESIAN_POINT('',(1.0,-0.577350269189626,-1.0));
#541=VECTOR('',#603,1.0);
#542=CARTESIAN_POINT('',(-1.5,-0.616025403784439,-0.933012701892219));
#543=VECTOR('',#604,1.0);
#544=CARTESIAN_POINT('',(1.0,-1.15470053837925,7.07050159149938E-17));
#545=VECTOR('',#605,1.0);
#546=AXIS2_PLACEMENT_3D('',#606,#607,#608);
#547=AXIS2_PLACEMENT_3D('',#609,#610,#611);
#548=AXIS2_PLACEMENT_3D('',#612,#613,#614);
#549=AXIS2_PLACEMENT_3D('',#615,#616,#617);
#550=AXIS2_PLACEMENT_3D('',#618,#619,#620);
#551=AXIS2_PLACEMENT_3D('',#621,#622,#623);
#552=AXIS2_PLACEMENT_3D('',#624,#625,#626);
#553=AXIS2_PLACEMENT_3D('',#627,#628,#629);
#554=DIRECTION('',(0.707106781186548,-0.707106781186547,8.65927457071935E-17));
#555=CARTESIAN_POINT('',(19.621125,0.0,0.0));
#556=DIRECTION('',(1.0,0.0,0.0));
#557=DIRECTION('',(0.0,1.0,0.0));
#558=DIRECTION('',(-0.707106781186548,-0.707106781186547,8.65927457071935E-17));
#559=CARTESIAN_POINT('',(20.0,0.0,0.0));
#560=DIRECTION('',(1.0,0.0,0.0));
#561=DIRECTION('',(0.0,1.0,0.0));
#562=DIRECTION('',(1.0,0.0,0.0));
#563=CARTESIAN_POINT('',(2.478875,0.0,0.0));
#564=DIRECTION('',(1.0,0.0,0.0));
#565=DIRECTION('',(0.0,1.0,0.0));
#566=DIRECTION('',(-1.0,-0.0,-0.0));
#567=DIRECTION('',(0.707106781186548,0.707106781186547,-8.65927457071935E-17));
#568=CARTESIAN_POINT('',(2.1,0.0,0.0));
#569=DIRECTION('',(1.0,0.0,0.0));
#570=DIRECTION('',(0.0,1.0,0.0));
#571=DIRECTION('',(-0.707106781186548,0.707106781186547,-8.65927457071935E-17));
#572=DIRECTION('',(1.0,0.0,0.0));
#573=CARTESIAN_POINT('',(0.0,0.0,0.0));
#574=DIRECTION('',(1.0,0.0,0.0));
#575=DIRECTION('',(0.0,1.0,0.0));
#576=DIRECTION('',(-1.0,-0.0,-0.0));
#577=CARTESIAN_POINT('',(2.1,0.0,0.0));
#578=DIRECTION('',(1.0,0.0,0.0));
#579=DIRECTION('',(0.0,1.0,0.0));
#580=DIRECTION('',(1.0,0.0,0.0));
#581=CARTESIAN_POINT('',(-1.5,0.0,0.0));
#582=DIRECTION('',(1.0,0.0,0.0));
#583=DIRECTION('',(0.0,1.0,0.0));
#584=DIRECTION('',(-1.0,-0.0,-0.0));
#585=CARTESIAN_POINT('',(0.0,0.0,0.0));
#586=DIRECTION('',(1.0,0.0,0.0));
#587=DIRECTION('',(0.0,1.0,0.0));
#588=DIRECTION('',(3.06151588455594E-17,0.5,0.866025403784438));
#589=DIRECTION('',(1.0,0.0,0.0));
#590=DIRECTION('',(-0.0,-0.5,-0.866025403784438));
#591=DIRECTION('',(1.0,0.0,0.0));
#592=DIRECTION('',(-3.06151588455594E-17,-0.5,0.866025403784439));
#593=DIRECTION('',(0.0,0.5,-0.866025403784439));
#594=DIRECTION('',(1.0,0.0,0.0));
#595=DIRECTION('',(-6.12303176911189E-17,-1.0,1.92296268638356E-16));
#596=DIRECTION('',(0.0,1.0,-1.92296268638356E-16));
#597=DIRECTION('',(1.0,0.0,0.0));
#598=DIRECTION('',(-3.06151588455594E-17,-0.5,-0.866025403784439));
#599=DIRECTION('',(0.0,0.5,0.866025403784439));
#600=DIRECTION('',(1.0,0.0,0.0));
#601=DIRECTION('',(6.12303176911189E-17,1.0,0.0));
#602=DIRECTION('',(1.0,0.0,0.0));
#603=DIRECTION('',(-0.0,-1.0,-0.0));
#604=DIRECTION('',(3.06151588455594E-17,0.5,-0.866025403784439));
#605=DIRECTION('',(0.0,-0.5,0.866025403784439));
#606=CARTESIAN_POINT('',(-1.5,0.0,0.0));
#607=DIRECTION('',(1.0,0.0,0.0));
#608=DIRECTION('',(0.0,1.0,0.0));
#609=CARTESIAN_POINT('',(0.0,0.0,0.0));
#610=DIRECTION('',(1.0,0.0,0.0));
#611=DIRECTION('',(0.0,1.0,0.0));
#612=CARTESIAN_POINT('',(0.0,0.0,0.0));
#613=DIRECTION('',(1.0,0.0,0.0));
#614=DIRECTION('',(0.0,1.0,0.0));
#615=CARTESIAN_POINT('',(2.1,0.0,0.0));
#616=DIRECTION('',(1.0,0.0,0.0));
#617=DIRECTION('',(0.0,1.0,0.0));
#618=CARTESIAN_POINT('',(2.1,0.0,0.0));
#619=DIRECTION('',(1.0,0.0,0.0));
#620=DIRECTION('',(0.0,1.0,0.0));
#621=CARTESIAN_POINT('',(2.478875,0.0,0.0));
#622=DIRECTION('',(1.0,0.0,0.0));
#623=DIRECTION('',(0.0,1.0,0.0));
#624=CARTESIAN_POINT('',(19.621125,0.0,0.0));
#625=DIRECTION('',(1.0,0.0,0.0));
#626=DIRECTION('',(0.0,1.0,0.0));
#627=CARTESIAN_POINT('',(20.0,0.0,0.0));
#628=DIRECTION('',(1.0,0.0,0.0));
#629=DIRECTION('',(0.0,1.0,0.0));
ENDSEC;
END-ISO-10303-21;
