ISO-10303-21;
HEADER;
FILE_DESCRIPTION(('3DEXPERIENCE STEP','CAx-IF Rec.Pracs.--- Model Styling and Organization---1.5--- 2016-08-15','CAx-IF Rec.Pracs.---Supplemental Geometry---1.0---2011-11-01','CAx-IF Rec.Pracs.--- Composite Materials ---3.4---2017-06-13','CAx-IF Rec.Pracs.---Tessellated 3D Geometry---1.0---2015-12-17'),'2;1');

FILE_NAME('\\\\?\\D:\\School\\CarTech\\CTU.25\\Tutorials\\Model\\OEM\\MC_Inlet.stp','2024-09-26T02:36:01+00:00',('none'),('none'),'3DEXPERIENCE Platform3DEXPERIENCE R2024x HotFix 4.24','3DEXPERIENCE Platform STEP AP242 v3','none');

FILE_SCHEMA(('AP242_MANAGED_MODEL_BASED_3D_ENGINEERING_MIM_LF  {1 0 10303 442 1 1 4}'));

ENDSEC;
DATA;
#16=PRODUCT('Master_cylinder_hose_inlet_fitting_R','Master_cylinder_hose_inlet_fitting_R','',(#2)) ;
#2=PRODUCT_CONTEXT(' ',#1,'mechanical') ;
#1=APPLICATION_CONTEXT('managed model based 3d engineering') ;
#18=PRODUCT_DEFINITION('Master_cylinder_hose_inlet_fitting_R',' ',#17,#3) ;
#3=PRODUCT_DEFINITION_CONTEXT('part definition',#1,' ') ;
#19=PRODUCT_DEFINITION_SHAPE(' ',' ',#18) ;
#1485=MECHANICAL_DESIGN_GEOMETRIC_PRESENTATION_REPRESENTATION(' ',(#29),#12) ;
#5=PRODUCT_CATEGORY('part','specification') ;
#13=SHAPE_REPRESENTATION(' ',(#15,#21),#12) ;
#14=CARTESIAN_POINT('',(0.,0.,0.)) ;
#31=CARTESIAN_POINT('Axis2P3D Location',(-4.4408920985E-16,-5.55111512313E-16,0.1)) ;
#36=CARTESIAN_POINT('Axis2P3D Location',(-4.4408920985E-16,-5.55111512313E-16,3.72529007642E-10)) ;
#40=CARTESIAN_POINT('Vertex',(2.63274768567,1.43827661581,3.72529007642E-10)) ;
#42=CARTESIAN_POINT('Vertex',(-2.63274768567,-1.43827661581,3.72529007642E-10)) ;
#45=CARTESIAN_POINT('Line Origine',(-2.63274768567,-1.43827661581,0.0999999996275)) ;
#49=CARTESIAN_POINT('Vertex',(-2.63274768567,-1.43827661581,10.0000000004)) ;
#52=CARTESIAN_POINT('Axis2P3D Location',(-4.4408920985E-16,-5.55111512313E-16,10.0000000004)) ;
#56=CARTESIAN_POINT('Vertex',(2.63274768567,1.43827661581,10.0000000004)) ;
#59=CARTESIAN_POINT('Line Origine',(2.63274768567,1.43827661581,0.0999999996275)) ;
#71=CARTESIAN_POINT('Axis2P3D Location',(0.,0.,0.)) ;
#76=CARTESIAN_POINT('Axis2P3D Location',(1.33684086023E-09,-2.94106961007E-10,0.)) ;
#80=CARTESIAN_POINT('Vertex',(2.18438279442,3.99848544784,0.)) ;
#82=CARTESIAN_POINT('Vertex',(-0.479135705158,-4.53098698333,0.)) ;
#85=CARTESIAN_POINT('Axis2P3D Location',(5.43809142162E-09,1.82162462892E-08,0.)) ;
#89=CARTESIAN_POINT('Vertex',(-2.18438261002,-3.99848554842,0.)) ;
#92=CARTESIAN_POINT('Axis2P3D Location',(-3.58943985646E-10,2.74276601431E-10,0.)) ;
#103=CARTESIAN_POINT('Control Point',(2.63274768554,1.43827661499,0.)) ;
#104=CARTESIAN_POINT('Control Point',(2.47006938717,1.73605724272,0.)) ;
#105=CARTESIAN_POINT('Control Point',(2.26529047742,2.01083694626,0.)) ;
#106=CARTESIAN_POINT('Control Point',(2.02245594967,2.25492375695,0.)) ;
#107=CARTESIAN_POINT('Control Point',(1.47500507004,2.6673030263,0.)) ;
#108=CARTESIAN_POINT('Control Point',(0.834693875412,2.91175073157,0.)) ;
#109=CARTESIAN_POINT('Control Point',(0.498860725166,2.98766584613,0.)) ;
#110=CARTESIAN_POINT('Control Point',(-0.184340488349,3.04239444347,0.)) ;
#111=CARTESIAN_POINT('Control Point',(-0.855931513059,2.90557867683,0.)) ;
#112=CARTESIAN_POINT('Control Point',(-1.18014253202,2.78967253013,0.)) ;
#113=CARTESIAN_POINT('Control Point',(-1.78625920869,2.46970108092,0.)) ;
#114=CARTESIAN_POINT('Control Point',(-2.2799120699,1.99424350093,0.)) ;
#115=CARTESIAN_POINT('Control Point',(-2.49150077123,1.72262390272,0.)) ;
#116=CARTESIAN_POINT('Control Point',(-2.83171186747,1.12763175909,0.)) ;
#117=CARTESIAN_POINT('Control Point',(-2.99364088029,0.461649700951,0.)) ;
#118=CARTESIAN_POINT('Control Point',(-3.02669193119,0.118933269115,0.)) ;
#119=CARTESIAN_POINT('Control Point',(-3.00207725899,-0.413045558312,0.)) ;
#120=CARTESIAN_POINT('Control Point',(-2.86362291536,-0.923518605868,0.)) ;
#121=CARTESIAN_POINT('Control Point',(-2.80007361533,-1.10127682323,0.)) ;
#122=CARTESIAN_POINT('Control Point',(-2.72287148728,-1.27330610244,0.)) ;
#123=CARTESIAN_POINT('Control Point',(-2.63274768554,-1.43827661499,0.)) ;
#130=CARTESIAN_POINT('Axis2P3D Location',(-4.4408920985E-16,-5.55111512313E-16,0.1)) ;
#135=CARTESIAN_POINT('Axis2P3D Location',(-4.4408920985E-16,-5.55111512313E-16,10.0000000004)) ;
#147=CARTESIAN_POINT('Axis2P3D Location',(-4.4408920985E-16,-5.55111512313E-16,11.7320508076)) ;
#152=CARTESIAN_POINT('Axis2P3D Location',(-4.4408920985E-16,-5.55111512313E-16,11.0103629711)) ;
#156=CARTESIAN_POINT('Vertex',(-1.09697820238,-0.599281923269,11.0103629711)) ;
#158=CARTESIAN_POINT('Vertex',(1.09697820242,-0.599281923198,11.0103629711)) ;
#161=CARTESIAN_POINT('Axis2P3D Location',(-4.4408920985E-16,-5.55111512313E-16,11.0103629711)) ;
#165=CARTESIAN_POINT('Vertex',(1.09697820228,0.599281923212,11.0103629712)) ;
#168=CARTESIAN_POINT('Line Origine',(3800043.96258,2075973.47828,-2499988.26793)) ;
#173=CARTESIAN_POINT('Line Origine',(-3800043.96258,-2075973.47828,-2499988.26793)) ;
#186=CARTESIAN_POINT('Axis2P3D Location',(-7.40241201672E-15,3.78017062099E-14,-4.55625000002)) ;
#191=CARTESIAN_POINT('Line Origine',(-185898.54946,-1757965.22415,1767762.39672)) ;
#195=CARTESIAN_POINT('Vertex',(-0.584295805344,-5.52544228769,1.)) ;
#198=CARTESIAN_POINT('Line Origine',(847512.694913,1551361.41242,1767762.39672)) ;
#202=CARTESIAN_POINT('Vertex',(2.66380837317,4.87606798699,1.)) ;
#205=CARTESIAN_POINT('Axis2P3D Location',(-2.84463242423E-27,-4.44089209833E-16,1.)) ;
#217=CARTESIAN_POINT('Axis2P3D Location',(-7.40241201672E-15,3.78017062099E-14,-4.55625000002)) ;
#222=CARTESIAN_POINT('Axis2P3D Location',(-2.82727748431E-27,-4.44089209833E-16,1.)) ;
#226=CARTESIAN_POINT('Vertex',(-2.66380814888,-4.87606810952,1.)) ;
#229=CARTESIAN_POINT('Line Origine',(-847512.473953,-1551361.53313,1767762.39672)) ;
#241=CARTESIAN_POINT('Axis2P3D Location',(-2.84621014604E-27,-4.44089209833E-16,1.)) ;
#253=CARTESIAN_POINT('Axis2P3D Location',(-4.4408920985E-16,-5.55111512313E-16,11.0103629711)) ;
#257=CARTESIAN_POINT('Vertex',(-1.09697820242,0.599281923198,11.0103629711)) ;
#260=CARTESIAN_POINT('Axis2P3D Location',(-4.4408920985E-16,-5.55111512313E-16,11.0103629711)) ;
#273=CARTESIAN_POINT('Axis2P3D Location',(4.4408920985E-16,-1.20129600711E-16,22.4)) ;
#278=CARTESIAN_POINT('Line Origine',(-1.09697820236,0.599281923255,22.4000000004)) ;
#282=CARTESIAN_POINT('Vertex',(-1.09697820236,0.599281923255,22.5)) ;
#286=CARTESIAN_POINT('Control Point',(1.09697820236,-0.599281923259,22.4999999996)) ;
#287=CARTESIAN_POINT('Control Point',(0.908708233607,-0.943907789427,22.4999999997)) ;
#288=CARTESIAN_POINT('Control Point',(0.585104003679,-1.21460021175,22.4999999997)) ;
#289=CARTESIAN_POINT('Control Point',(0.16390325292,-1.33818387869,22.4999999997)) ;
#290=CARTESIAN_POINT('Control Point',(-0.673215367098,-1.23231246354,22.4999999998)) ;
#291=CARTESIAN_POINT('Control Point',(-1.21460021175,-0.585104003682,22.4999999999)) ;
#292=CARTESIAN_POINT('Control Point',(-1.33818387869,-0.163903252923,22.4999999999)) ;
#293=CARTESIAN_POINT('Control Point',(-1.28524817112,0.254656057087,22.5)) ;
#294=CARTESIAN_POINT('Control Point',(-1.09697820236,0.599281923255,22.5)) ;
#295=CARTESIAN_POINT('Vertex',(1.09697820236,-0.599281923255,22.4999999996)) ;
#298=CARTESIAN_POINT('Line Origine',(1.09697820236,-0.599281923255,22.4000000004)) ;
#312=CARTESIAN_POINT('Control Point',(-1.09697820214,0.599281923665,22.4999999996)) ;
#313=CARTESIAN_POINT('Control Point',(-0.90870823328,0.943907789723,22.4999999996)) ;
#314=CARTESIAN_POINT('Control Point',(-0.585104003306,1.21460021191,22.4999999995)) ;
#315=CARTESIAN_POINT('Control Point',(-0.163903252574,1.33818387871,22.4999999995)) ;
#316=CARTESIAN_POINT('Control Point',(0.673215367309,1.23231246338,22.4999999994)) ;
#317=CARTESIAN_POINT('Control Point',(1.2146002118,0.585104003533,22.4999999993)) ;
#318=CARTESIAN_POINT('Control Point',(1.33818387868,0.163903252824,22.4999999993)) ;
#319=CARTESIAN_POINT('Control Point',(1.28524817109,-0.254656057127,22.4999999992)) ;
#320=CARTESIAN_POINT('Control Point',(1.09697820236,-0.599281923255,22.4999999992)) ;
#330=CARTESIAN_POINT('Axis2P3D Location',(0.,0.,11.25)) ;
#335=CARTESIAN_POINT('Line Origine',(2.66380814888,4.87606810952,11.25)) ;
#339=CARTESIAN_POINT('Vertex',(2.66380814888,4.87606810952,10.)) ;
#342=CARTESIAN_POINT('Axis2P3D Location',(0.,0.,10.)) ;
#346=CARTESIAN_POINT('Vertex',(-2.66380814888,-4.87606810952,10.)) ;
#349=CARTESIAN_POINT('Line Origine',(-2.66380814888,-4.87606810952,11.25)) ;
#362=CARTESIAN_POINT('Axis2P3D Location',(0.,0.,10.)) ;
#374=CARTESIAN_POINT('Axis2P3D Location',(0.,-3.,22.5)) ;
#379=CARTESIAN_POINT('Axis2P3D Location',(2.02095167268E-08,5.65170896749E-08,22.5)) ;
#383=CARTESIAN_POINT('Vertex',(-0.356594124809,-1.96795341186,22.5)) ;
#385=CARTESIAN_POINT('Vertex',(-0.958851076663,-1.75516512431,22.5)) ;
#388=CARTESIAN_POINT('Axis2P3D Location',(-1.14957754427E-09,2.03969729995E-10,22.5)) ;
#392=CARTESIAN_POINT('Vertex',(0.958850868046,1.75516523793,22.5)) ;
#395=CARTESIAN_POINT('Axis2P3D Location',(6.4443117509E-10,-5.25159027376E-10,22.5)) ;
#410=CARTESIAN_POINT('Axis2P3D Location',(0.,-5.55625000002,10.)) ;
#415=CARTESIAN_POINT('Axis2P3D Location',(3.50146578398E-09,-2.49264608954E-10,10.)) ;
#419=CARTESIAN_POINT('Vertex',(7.79422870092,4.49999988301,10.)) ;
#421=CARTESIAN_POINT('Vertex',(7.79422863387,-4.49999999965,10.)) ;
#424=CARTESIAN_POINT('Axis2P3D Location',(5.56060353318E-09,-9.61513979547E-09,10.)) ;
#428=CARTESIAN_POINT('Vertex',(-1.86264392378E-09,-8.99999999965,10.)) ;
#431=CARTESIAN_POINT('Axis2P3D Location',(-1.26825907554E-08,-5.45317657696E-08,10.)) ;
#435=CARTESIAN_POINT('Vertex',(-4.31482984684,-7.89824305626,10.)) ;
#438=CARTESIAN_POINT('Axis2P3D Location',(-1.10644595708E-08,-9.73081171196E-09,10.)) ;
#442=CARTESIAN_POINT('Vertex',(-7.79422863387,-4.49999999965,10.)) ;
#445=CARTESIAN_POINT('Axis2P3D Location',(-4.73129091461E-09,-5.78793901695E-10,10.)) ;
#449=CARTESIAN_POINT('Vertex',(-7.79422863387,4.49999999849,10.)) ;
#452=CARTESIAN_POINT('Axis2P3D Location',(-4.71763073051E-10,3.36871153195E-09,10.)) ;
#456=CARTESIAN_POINT('Vertex',(1.86263994246E-09,9.00000000035,10.)) ;
#459=CARTESIAN_POINT('Axis2P3D Location',(-5.34743826996E-09,-1.537449279E-08,10.)) ;
#463=CARTESIAN_POINT('Vertex',(4.31482984684,7.89824305696,10.)) ;
#466=CARTESIAN_POINT('Axis2P3D Location',(7.39844630004E-10,1.45848844113E-09,10.)) ;
#486=CARTESIAN_POINT('Axis2P3D Location',(-1.50990331349E-14,1.94289029309E-14,24.5)) ;
#491=CARTESIAN_POINT('Line Origine',(-315187.654191,-1739441.50308,-1767742.45297)) ;
#495=CARTESIAN_POINT('Vertex',(-0.5348911863,-2.95193011754,21.5)) ;
#498=CARTESIAN_POINT('Line Origine',(-847512.623004,-1551361.45171,-1767742.45297)) ;
#502=CARTESIAN_POINT('Vertex',(-1.4382766149,-2.63274768622,21.5)) ;
#505=CARTESIAN_POINT('Axis2P3D Location',(-4.44089209843E-16,4.44089209811E-16,21.5)) ;
#517=CARTESIAN_POINT('Axis2P3D Location',(-1.50990331349E-14,1.94289029309E-14,24.5)) ;
#522=CARTESIAN_POINT('Axis2P3D Location',(-4.44089209843E-16,4.44089209811E-16,21.5)) ;
#526=CARTESIAN_POINT('Vertex',(1.43827661581,2.63274768567,21.5)) ;
#529=CARTESIAN_POINT('Line Origine',(847512.438639,1551361.55243,-1767742.45297)) ;
#541=CARTESIAN_POINT('Axis2P3D Location',(-4.44089209843E-16,4.44089209811E-16,21.5)) ;
#553=CARTESIAN_POINT('Axis2P3D Location',(0.,0.,10.)) ;
#559=CARTESIAN_POINT('Control Point',(7.79422870145,4.49999988325,9.99999999999)) ;
#560=CARTESIAN_POINT('Control Point',(8.26824070365,3.678987012,10.0000000082)) ;
#561=CARTESIAN_POINT('Control Point',(8.73510496815,2.87035206277,10.0711327229)) ;
#562=CARTESIAN_POINT('Control Point',(9.23372628105,2.006717587,10.2154114947)) ;
#563=CARTESIAN_POINT('Control Point',(9.76663842062,1.08368603631,10.4426188985)) ;
#564=CARTESIAN_POINT('Control Point',(10.3923048454,-5.79092329644E-13,10.8038475773)) ;
#565=CARTESIAN_POINT('Vertex',(10.3923048454,-5.81311620094E-13,10.8038475773)) ;
#569=CARTESIAN_POINT('Control Point',(10.3923048454,-2.80397927099E-12,10.8038475773)) ;
#570=CARTESIAN_POINT('Control Point',(10.3691693868,-0.0400717898053,10.790490314)) ;
#571=CARTESIAN_POINT('Control Point',(10.3458407867,-0.0799205590052,10.7771330508)) ;
#572=CARTESIAN_POINT('Control Point',(10.3237979712,-0.118657375683,10.7646233886)) ;
#573=CARTESIAN_POINT('Control Point',(10.2786060421,-0.196932040745,10.7391838903)) ;
#574=CARTESIAN_POINT('Control Point',(10.2338772945,-0.274404380871,10.7144379042)) ;
#575=CARTESIAN_POINT('Control Point',(10.2116263217,-0.312944114886,10.7022358612)) ;
#576=CARTESIAN_POINT('Control Point',(10.1452065785,-0.427986182132,10.666135533)) ;
#577=CARTESIAN_POINT('Control Point',(10.0797657292,-0.541332597463,10.6315321378)) ;
#578=CARTESIAN_POINT('Control Point',(10.0365552208,-0.616175031409,10.6091103163)) ;
#579=CARTESIAN_POINT('Control Point',(9.90812124675,-0.838628049702,10.5437352138)) ;
#580=CARTESIAN_POINT('Control Point',(9.7831287272,-1.0551203458,10.4838883972)) ;
#581=CARTESIAN_POINT('Control Point',(9.70119552615,-1.19703233476,10.4463206013)) ;
#582=CARTESIAN_POINT('Control Point',(9.45921366545,-1.61615683792,10.3402804666)) ;
#583=CARTESIAN_POINT('Control Point',(9.22767531851,-2.01719521841,10.2533857451)) ;
#584=CARTESIAN_POINT('Control Point',(9.07706116248,-2.27806887357,10.203214473)) ;
#585=CARTESIAN_POINT('Control Point',(8.72182810903,-2.8933505938,10.0999191242)) ;
#586=CARTESIAN_POINT('Control Point',(8.3805940612,-3.48438526939,10.0365775188)) ;
#587=CARTESIAN_POINT('Control Point',(8.18411767318,-3.82469237494,10.0121895852)) ;
#588=CARTESIAN_POINT('Control Point',(7.98917315345,-4.16234618776,9.99999999999)) ;
#589=CARTESIAN_POINT('Control Point',(7.79422863383,-4.5000000004,10.)) ;
#598=CARTESIAN_POINT('Control Point',(7.79422863383,-4.5000000004,10.)) ;
#599=CARTESIAN_POINT('Control Point',(7.32021661803,-5.32101289509,10.)) ;
#600=CARTESIAN_POINT('Control Point',(6.85335033072,-6.12964670227,10.0711327107)) ;
#601=CARTESIAN_POINT('Control Point',(6.35473157947,-6.99328268489,10.2154114817)) ;
#602=CARTESIAN_POINT('Control Point',(5.82181886538,-7.91631393271,10.4426188882)) ;
#603=CARTESIAN_POINT('Control Point',(5.19615242271,-9.,10.8038475773)) ;
#604=CARTESIAN_POINT('Vertex',(5.19615242271,-9.,10.8038475773)) ;
#608=CARTESIAN_POINT('Control Point',(5.19615242271,-9.,10.8038475773)) ;
#609=CARTESIAN_POINT('Control Point',(5.14988150545,-9.,10.790490314)) ;
#610=CARTESIAN_POINT('Control Point',(5.10370715895,-8.99972122425,10.7771330508)) ;
#611=CARTESIAN_POINT('Control Point',(5.05913868394,-8.99999999447,10.7646233886)) ;
#612=CARTESIAN_POINT('Control Point',(4.96875487094,-8.99999996829,10.7391838903)) ;
#613=CARTESIAN_POINT('Control Point',(4.87929748254,-8.99999990671,10.7144379042)) ;
#614=CARTESIAN_POINT('Control Point',(4.8347956074,-8.99999986596,10.7022358612)) ;
#615=CARTESIAN_POINT('Control Point',(4.70195638306,-8.99999971465,10.666135533)) ;
#616=CARTESIAN_POINT('Control Point',(4.57107508332,-8.99999948441,10.6315321378)) ;
#617=CARTESIAN_POINT('Control Point',(4.48465438005,-8.99999930341,10.6091103163)) ;
#618=CARTESIAN_POINT('Control Point',(4.22778742803,-8.99999872831,10.5437352138)) ;
#619=CARTESIAN_POINT('Control Point',(3.97780334011,-8.99999817915,10.4838883972)) ;
#620=CARTESIAN_POINT('Control Point',(3.81393735204,-8.9999979401,10.4463206013)) ;
#621=CARTESIAN_POINT('Control Point',(3.32997395458,-8.99999775306,10.3402804666)) ;
#622=CARTESIAN_POINT('Control Point',(2.8668953557,-8.99999885291,10.2533857451)) ;
#623=CARTESIAN_POINT('Control Point',(2.56566506513,-8.99999999519,10.203214473)) ;
#624=CARTESIAN_POINT('Control Point',(1.85519893804,-9.00000000676,10.0999191242)) ;
#625=CARTESIAN_POINT('Control Point',(1.17273087039,-8.99999999049,10.0365775187)) ;
#626=CARTESIAN_POINT('Control Point',(0.779778077725,-9.,10.0121895852)) ;
#627=CARTESIAN_POINT('Control Point',(0.389889038104,-9.,9.99999999997)) ;
#628=CARTESIAN_POINT('Control Point',(-1.29831601026E-09,-9.,10.)) ;
#636=CARTESIAN_POINT('Line Origine',(-2075975.63569,-3800047.91171,2500007.40191)) ;
#640=CARTESIAN_POINT('Vertex',(-4.91672240858,-9.,10.7248317084)) ;
#644=CARTESIAN_POINT('Control Point',(-1.30600774639E-09,-9.,10.)) ;
#645=CARTESIAN_POINT('Control Point',(-0.905118958845,-9.,10.0000000001)) ;
#646=CARTESIAN_POINT('Control Point',(-1.79675733287,-8.99999855634,10.0649106352)) ;
#647=CARTESIAN_POINT('Control Point',(-2.74469071328,-9.00000064699,10.1961508962)) ;
#648=CARTESIAN_POINT('Control Point',(-3.75241807113,-9.,10.4025563851)) ;
#649=CARTESIAN_POINT('Control Point',(-4.91672240858,-9.,10.7248317084)) ;
#658=CARTESIAN_POINT('Control Point',(-4.91672240859,-8.99999999999,10.7248317084)) ;
#659=CARTESIAN_POINT('Control Point',(-5.00935170154,-8.99999999999,10.7504711691)) ;
#660=CARTESIAN_POINT('Control Point',(-5.1017931175,-9.,10.7766083922)) ;
#661=CARTESIAN_POINT('Control Point',(-5.19615242271,-9.,10.8038475773)) ;
#662=CARTESIAN_POINT('Vertex',(-5.19615242271,-9.,10.8038475773)) ;
#666=CARTESIAN_POINT('Control Point',(-5.1961524227,-8.99999999998,10.8038475773)) ;
#667=CARTESIAN_POINT('Control Point',(-5.21928788133,-8.95992821018,10.790490314)) ;
#668=CARTESIAN_POINT('Control Point',(-5.24213362769,-8.91980066523,10.7771330507)) ;
#669=CARTESIAN_POINT('Control Point',(-5.26465928729,-8.88134261878,10.7646233886)) ;
#670=CARTESIAN_POINT('Control Point',(-5.30985117112,-8.80306792754,10.7391838903)) ;
#671=CARTESIAN_POINT('Control Point',(-5.35457981199,-8.72559552585,10.7144379042)) ;
#672=CARTESIAN_POINT('Control Point',(-5.37683071427,-8.68705575108,10.7022358612)) ;
#673=CARTESIAN_POINT('Control Point',(-5.4432501954,-8.57201353253,10.666135533)) ;
#674=CARTESIAN_POINT('Control Point',(-5.50869064587,-8.45866688696,10.6315321378)) ;
#675=CARTESIAN_POINT('Control Point',(-5.55190084076,-8.38382427202,10.6091103163)) ;
#676=CARTESIAN_POINT('Control Point',(-5.68033381871,-8.16137067863,10.5437352138)) ;
#677=CARTESIAN_POINT('Control Point',(-5.80532538709,-7.94487783336,10.4838883972)) ;
#678=CARTESIAN_POINT('Control Point',(-5.88725817411,-7.80296560534,10.4463206013)) ;
#679=CARTESIAN_POINT('Control Point',(-6.12923971086,-7.38384091511,10.3402804666)) ;
#680=CARTESIAN_POINT('Control Point',(-6.3607799628,-6.98280363444,10.2533857451)) ;
#681=CARTESIAN_POINT('Control Point',(-6.51139609733,-6.72193112157,10.203214473)) ;
#682=CARTESIAN_POINT('Control Point',(-6.86662917076,-6.10664941302,10.0999191242)) ;
#683=CARTESIAN_POINT('Control Point',(-7.20786319034,-5.51561472125,10.0365775188)) ;
#684=CARTESIAN_POINT('Control Point',(-7.40433959479,-5.17530762529,10.0121895852)) ;
#685=CARTESIAN_POINT('Control Point',(-7.59928411448,-4.83765381255,9.99999999999)) ;
#686=CARTESIAN_POINT('Control Point',(-7.79422863405,-4.49999999999,9.99999999999)) ;
#696=CARTESIAN_POINT('Control Point',(-7.79422863405,-4.49999999999,9.99999999999)) ;
#697=CARTESIAN_POINT('Control Point',(-8.26824064984,-3.67898710526,10.)) ;
#698=CARTESIAN_POINT('Control Point',(-8.73510492563,-2.87035213634,10.0711327106)) ;
#699=CARTESIAN_POINT('Control Point',(-9.23372625061,-2.00671763979,10.2154114817)) ;
#700=CARTESIAN_POINT('Control Point',(-9.76663840271,-1.08368606733,10.4426188882)) ;
#701=CARTESIAN_POINT('Control Point',(-10.3923048454,5.84106445359E-13,10.8038475773)) ;
#702=CARTESIAN_POINT('Vertex',(-10.3923048454,5.84196064123E-13,10.8038475773)) ;
#706=CARTESIAN_POINT('Control Point',(-10.3923048454,2.7906565947E-12,10.8038475773)) ;
#707=CARTESIAN_POINT('Control Point',(-10.3691693868,0.0400717898031,10.790490314)) ;
#708=CARTESIAN_POINT('Control Point',(-10.3458407867,0.079920559001,10.7771330508)) ;
#709=CARTESIAN_POINT('Control Point',(-10.3237979712,0.118657375677,10.7646233886)) ;
#710=CARTESIAN_POINT('Control Point',(-10.2786060421,0.196932040735,10.7391838904)) ;
#711=CARTESIAN_POINT('Control Point',(-10.2338772945,0.274404380857,10.7144379042)) ;
#712=CARTESIAN_POINT('Control Point',(-10.2116263217,0.31294411487,10.7022358612)) ;
#713=CARTESIAN_POINT('Control Point',(-10.1452065785,0.427986182113,10.666135533)) ;
#714=CARTESIAN_POINT('Control Point',(-10.0797657292,0.54133259744,10.6315321378)) ;
#715=CARTESIAN_POINT('Control Point',(-10.0365552208,0.616175031386,10.6091103163)) ;
#716=CARTESIAN_POINT('Control Point',(-9.90812124677,0.838628049677,10.5437352138)) ;
#717=CARTESIAN_POINT('Control Point',(-9.78312872722,1.05512034578,10.4838883972)) ;
#718=CARTESIAN_POINT('Control Point',(-9.70119552616,1.19703233475,10.4463206013)) ;
#719=CARTESIAN_POINT('Control Point',(-9.45921366545,1.61615683792,10.3402804666)) ;
#720=CARTESIAN_POINT('Control Point',(-9.2276753185,2.01719521843,10.2533857451)) ;
#721=CARTESIAN_POINT('Control Point',(-9.07706116246,2.2780688736,10.203214473)) ;
#722=CARTESIAN_POINT('Control Point',(-8.72182810922,2.89335059348,10.0999191242)) ;
#723=CARTESIAN_POINT('Control Point',(-8.38059406157,3.48438526874,10.0365775188)) ;
#724=CARTESIAN_POINT('Control Point',(-8.18411767374,3.82469237398,10.0121895853)) ;
#725=CARTESIAN_POINT('Control Point',(-7.98917315418,4.16234618649,10.)) ;
#726=CARTESIAN_POINT('Control Point',(-7.79422863475,4.49999999881,10.)) ;
#735=CARTESIAN_POINT('Control Point',(-7.79422863475,4.49999999881,10.)) ;
#736=CARTESIAN_POINT('Control Point',(-7.32021661883,5.32101289381,9.99999999992)) ;
#737=CARTESIAN_POINT('Control Point',(-6.85335033116,6.12964670136,10.0711327105)) ;
#738=CARTESIAN_POINT('Control Point',(-6.35473157992,6.99328268417,10.2154114816)) ;
#739=CARTESIAN_POINT('Control Point',(-5.82181886559,7.91631393234,10.4426188881)) ;
#740=CARTESIAN_POINT('Control Point',(-5.19615242271,9.,10.8038475773)) ;
#741=CARTESIAN_POINT('Vertex',(-5.19615242271,9.,10.8038475773)) ;
#745=CARTESIAN_POINT('Control Point',(-5.19615242271,9.,10.8038475773)) ;
#746=CARTESIAN_POINT('Control Point',(-5.14988150545,9.,10.790490314)) ;
#747=CARTESIAN_POINT('Control Point',(-5.10370715895,8.99972122424,10.7771330508)) ;
#748=CARTESIAN_POINT('Control Point',(-5.05913868394,8.99999999447,10.7646233886)) ;
#749=CARTESIAN_POINT('Control Point',(-4.96875487094,8.99999996829,10.7391838903)) ;
#750=CARTESIAN_POINT('Control Point',(-4.87929748254,8.99999990671,10.7144379042)) ;
#751=CARTESIAN_POINT('Control Point',(-4.83479560739,8.99999986596,10.7022358612)) ;
#752=CARTESIAN_POINT('Control Point',(-4.70195638305,8.99999971465,10.666135533)) ;
#753=CARTESIAN_POINT('Control Point',(-4.57107508332,8.99999948441,10.6315321378)) ;
#754=CARTESIAN_POINT('Control Point',(-4.48465438005,8.99999930341,10.6091103163)) ;
#755=CARTESIAN_POINT('Control Point',(-4.22778742803,8.99999872831,10.5437352138)) ;
#756=CARTESIAN_POINT('Control Point',(-3.9778033401,8.99999817915,10.4838883972)) ;
#757=CARTESIAN_POINT('Control Point',(-3.81393735203,8.9999979401,10.4463206013)) ;
#758=CARTESIAN_POINT('Control Point',(-3.32997395458,8.99999775306,10.3402804666)) ;
#759=CARTESIAN_POINT('Control Point',(-2.8668953557,8.99999885291,10.2533857451)) ;
#760=CARTESIAN_POINT('Control Point',(-2.56566506514,8.99999999519,10.203214473)) ;
#761=CARTESIAN_POINT('Control Point',(-1.85519893791,9.00000000676,10.0999191241)) ;
#762=CARTESIAN_POINT('Control Point',(-1.17273087015,8.99999999049,10.0365775187)) ;
#763=CARTESIAN_POINT('Control Point',(-0.779778077366,9.,10.0121895852)) ;
#764=CARTESIAN_POINT('Control Point',(-0.389889037629,9.,9.99999999995)) ;
#765=CARTESIAN_POINT('Control Point',(1.89226635484E-09,9.,10.)) ;
#773=CARTESIAN_POINT('Line Origine',(2075975.63569,3800047.91171,2500007.40191)) ;
#777=CARTESIAN_POINT('Vertex',(4.91672240858,9.,10.7248317084)) ;
#781=CARTESIAN_POINT('Control Point',(1.89997262368E-09,9.,10.)) ;
#782=CARTESIAN_POINT('Control Point',(0.905118959343,8.99999999996,10.0000000001)) ;
#783=CARTESIAN_POINT('Control Point',(1.79675733317,8.99999855641,10.0649106352)) ;
#784=CARTESIAN_POINT('Control Point',(2.74469071348,9.00000064695,10.1961508962)) ;
#785=CARTESIAN_POINT('Control Point',(3.75241807126,9.,10.4025563851)) ;
#786=CARTESIAN_POINT('Control Point',(4.91672240858,9.,10.7248317084)) ;
#795=CARTESIAN_POINT('Control Point',(4.91672240859,8.99999999999,10.7248317084)) ;
#796=CARTESIAN_POINT('Control Point',(5.00935170154,8.99999999999,10.7504711691)) ;
#797=CARTESIAN_POINT('Control Point',(5.1017931175,9.,10.7766083922)) ;
#798=CARTESIAN_POINT('Control Point',(5.19615242271,9.,10.8038475773)) ;
#799=CARTESIAN_POINT('Vertex',(5.19615242271,9.,10.8038475773)) ;
#803=CARTESIAN_POINT('Control Point',(5.1961524227,8.99999999998,10.8038475773)) ;
#804=CARTESIAN_POINT('Control Point',(5.21928788133,8.95992821018,10.790490314)) ;
#805=CARTESIAN_POINT('Control Point',(5.2421336277,8.91980066523,10.7771330507)) ;
#806=CARTESIAN_POINT('Control Point',(5.26465928729,8.88134261878,10.7646233886)) ;
#807=CARTESIAN_POINT('Control Point',(5.30985117112,8.80306792754,10.7391838903)) ;
#808=CARTESIAN_POINT('Control Point',(5.35457981199,8.72559552584,10.7144379042)) ;
#809=CARTESIAN_POINT('Control Point',(5.37683071427,8.68705575108,10.7022358612)) ;
#810=CARTESIAN_POINT('Control Point',(5.4432501954,8.57201353253,10.666135533)) ;
#811=CARTESIAN_POINT('Control Point',(5.50869064587,8.45866688696,10.6315321378)) ;
#812=CARTESIAN_POINT('Control Point',(5.55190084076,8.38382427202,10.6091103163)) ;
#813=CARTESIAN_POINT('Control Point',(5.68033381871,8.16137067862,10.5437352138)) ;
#814=CARTESIAN_POINT('Control Point',(5.80532538709,7.94487783335,10.4838883972)) ;
#815=CARTESIAN_POINT('Control Point',(5.88725817411,7.80296560534,10.4463206013)) ;
#816=CARTESIAN_POINT('Control Point',(6.12923971086,7.38384091512,10.3402804666)) ;
#817=CARTESIAN_POINT('Control Point',(6.3607799628,6.98280363445,10.2533857451)) ;
#818=CARTESIAN_POINT('Control Point',(6.51139609733,6.72193112157,10.203214473)) ;
#819=CARTESIAN_POINT('Control Point',(6.86662918511,6.10664938815,10.09991912)) ;
#820=CARTESIAN_POINT('Control Point',(7.20786321794,5.51561467348,10.0365775136)) ;
#821=CARTESIAN_POINT('Control Point',(7.40433963554,5.1753075547,10.0121895802)) ;
#822=CARTESIAN_POINT('Control Point',(7.5992841684,4.83765371915,9.99999999662)) ;
#823=CARTESIAN_POINT('Control Point',(7.79422870145,4.49999988325,9.99999999999)) ;
#832=CARTESIAN_POINT('Axis2P3D Location',(0.,0.,11.25)) ;
#837=CARTESIAN_POINT('Line Origine',(-1.43827661581,-2.63274768567,11.25)) ;
#841=CARTESIAN_POINT('Vertex',(-1.43827661581,-2.63274768567,21.)) ;
#844=CARTESIAN_POINT('Axis2P3D Location',(0.,0.,21.)) ;
#848=CARTESIAN_POINT('Vertex',(1.43827661581,2.63274768567,21.)) ;
#851=CARTESIAN_POINT('Line Origine',(1.43827661581,2.63274768567,11.25)) ;
#864=CARTESIAN_POINT('Axis2P3D Location',(0.,0.,11.25)) ;
#869=CARTESIAN_POINT('Axis2P3D Location',(0.,0.,21.)) ;
#881=CARTESIAN_POINT('Axis2P3D Location',(10.3923048454,0.,14.)) ;
#887=CARTESIAN_POINT('Control Point',(10.3923048454,-9.36094292156E-13,13.1961524227)) ;
#888=CARTESIAN_POINT('Control Point',(10.3914438451,0.00149129618259,13.1966495214)) ;
#889=CARTESIAN_POINT('Control Point',(10.3905828449,0.00298259236612,13.1971466202)) ;
#890=CARTESIAN_POINT('Control Point',(10.3919854778,0.000553160847131,13.1963368026)) ;
#891=CARTESIAN_POINT('Control Point',(10.0246860256,0.636734473696,13.4083728007)) ;
#892=CARTESIAN_POINT('Control Point',(9.68890092371,1.21833133061,13.5741078603)) ;
#893=CARTESIAN_POINT('Control Point',(9.37451071881,1.76287113889,13.7041045603)) ;
#894=CARTESIAN_POINT('Control Point',(8.86353245975,2.64791144516,13.8737769889)) ;
#895=CARTESIAN_POINT('Control Point',(8.38059408196,3.4843852524,13.9634224779)) ;
#896=CARTESIAN_POINT('Control Point',(8.18411769455,3.82469233789,13.9878104115)) ;
#897=CARTESIAN_POINT('Control Point',(7.98917318869,4.1623461267,13.9999999978)) ;
#898=CARTESIAN_POINT('Control Point',(7.79422867788,4.49999992407,14.)) ;
#899=CARTESIAN_POINT('Vertex',(10.3923048454,0.,13.1961524226)) ;
#901=CARTESIAN_POINT('Vertex',(7.79422867788,4.49999992407,14.)) ;
#904=CARTESIAN_POINT('Line Origine',(10.3923048454,0.,12.)) ;
#909=CARTESIAN_POINT('Line Origine',(5.19615242282,8.99999999977,12.)) ;
#913=CARTESIAN_POINT('Vertex',(5.19615242282,8.99999999977,13.1961524228)) ;
#917=CARTESIAN_POINT('Control Point',(7.79422867788,4.49999992407,14.)) ;
#918=CARTESIAN_POINT('Control Point',(7.79238639927,4.50319084423,14.)) ;
#919=CARTESIAN_POINT('Control Point',(7.79054412066,4.50638176438,14.)) ;
#920=CARTESIAN_POINT('Control Point',(7.79373326503,4.5008580043,13.9999999738)) ;
#921=CARTESIAN_POINT('Control Point',(7.51653728829,4.98097551967,13.9999559294)) ;
#922=CARTESIAN_POINT('Control Point',(7.23933358436,5.46110641892,13.9752662091)) ;
#923=CARTESIAN_POINT('Control Point',(6.95816581282,5.94810328468,13.9259750791)) ;
#924=CARTESIAN_POINT('Control Point',(6.46423445401,6.80361749359,13.7970479481)) ;
#925=CARTESIAN_POINT('Control Point',(5.92793062533,7.73252297315,13.5785741892)) ;
#926=CARTESIAN_POINT('Control Point',(5.69717632053,8.13220115313,13.4715182636)) ;
#927=CARTESIAN_POINT('Control Point',(5.45445856577,8.55260063627,13.345285544)) ;
#928=CARTESIAN_POINT('Control Point',(5.19615242282,8.99999999977,13.1961524228)) ;
#939=CARTESIAN_POINT('Axis2P3D Location',(5.19615242271,-9.,14.)) ;
#945=CARTESIAN_POINT('Control Point',(5.19615242271,-9.,13.1961524227)) ;
#946=CARTESIAN_POINT('Control Point',(5.19701342296,-8.99850870382,13.1966495214)) ;
#947=CARTESIAN_POINT('Control Point',(5.19787442322,-8.99701740763,13.1971466202)) ;
#948=CARTESIAN_POINT('Control Point',(5.19647179027,-8.99944683915,13.1963368026)) ;
#949=CARTESIAN_POINT('Control Point',(5.56377124249,-8.36326552632,13.4083728007)) ;
#950=CARTESIAN_POINT('Control Point',(5.89955634438,-7.78166866942,13.5741078603)) ;
#951=CARTESIAN_POINT('Control Point',(6.21394654932,-7.23712886107,13.7041045603)) ;
#952=CARTESIAN_POINT('Control Point',(6.72492481724,-6.35208853947,13.8737769919)) ;
#953=CARTESIAN_POINT('Control Point',(7.20786320292,-5.51561471854,13.963422481)) ;
#954=CARTESIAN_POINT('Control Point',(7.40433959833,-5.1753076192,13.9878104145)) ;
#955=CARTESIAN_POINT('Control Point',(7.59928411221,-4.83765381651,13.9999999999)) ;
#956=CARTESIAN_POINT('Control Point',(7.79422863121,-4.50000000495,14.)) ;
#957=CARTESIAN_POINT('Vertex',(5.19615242271,-9.,13.1961524226)) ;
#959=CARTESIAN_POINT('Vertex',(7.79422863121,-4.50000000495,14.)) ;
#962=CARTESIAN_POINT('Line Origine',(5.19615242271,-9.,12.)) ;
#968=CARTESIAN_POINT('Control Point',(7.79422863121,-4.50000000495,14.)) ;
#969=CARTESIAN_POINT('Control Point',(7.79607090982,-4.49680908479,14.)) ;
#970=CARTESIAN_POINT('Control Point',(7.79791318843,-4.49361816464,14.)) ;
#971=CARTESIAN_POINT('Control Point',(7.79472404406,-4.49914192472,13.9999999738)) ;
#972=CARTESIAN_POINT('Control Point',(8.07192002083,-4.0190244093,13.9999559265)) ;
#973=CARTESIAN_POINT('Control Point',(8.34912372518,-3.53889350933,13.9752662032)) ;
#974=CARTESIAN_POINT('Control Point',(8.63029149738,-3.05189664242,13.9259750703)) ;
#975=CARTESIAN_POINT('Control Point',(9.12422284966,-2.19638244482,13.7970479359)) ;
#976=CARTESIAN_POINT('Control Point',(9.66052667195,-1.26747697632,13.5785741757)) ;
#977=CARTESIAN_POINT('Control Point',(9.89128096795,-0.867798811585,13.471518253)) ;
#978=CARTESIAN_POINT('Control Point',(10.1339987132,-0.447399344955,13.3452855377)) ;
#979=CARTESIAN_POINT('Control Point',(10.3923048453,-2.23971952096E-10,13.1961524228)) ;
#990=CARTESIAN_POINT('Axis2P3D Location',(-5.19615242271,-9.,14.)) ;
#996=CARTESIAN_POINT('Control Point',(-4.9167224077,-9.,13.2751682918)) ;
#997=CARTESIAN_POINT('Control Point',(-4.91499026098,-9.,13.2756477439)) ;
#998=CARTESIAN_POINT('Control Point',(-4.91325811426,-9.,13.276127196)) ;
#999=CARTESIAN_POINT('Control Point',(-4.91609819947,-9.,13.2753410634)) ;
#1000=CARTESIAN_POINT('Control Point',(-4.20018456856,-9.,13.4734792043)) ;
#1001=CARTESIAN_POINT('Control Point',(-3.54253630024,-9.,13.6277121783)) ;
#1002=CARTESIAN_POINT('Control Point',(-2.9243158119,-9.,13.7476876502)) ;
#1003=CARTESIAN_POINT('Control Point',(-1.96150413362,-9.,13.8949819289)) ;
#1004=CARTESIAN_POINT('Control Point',(-1.04364850276,-9.,13.971002152)) ;
#1005=CARTESIAN_POINT('Control Point',(-0.694324840829,-9.,13.9903356591)) ;
#1006=CARTESIAN_POINT('Control Point',(-0.347162383728,-9.,14.0000000018)) ;
#1007=CARTESIAN_POINT('Control Point',(8.183231337E-08,-9.,14.)) ;
#1008=CARTESIAN_POINT('Vertex',(-4.91672240857,-9.,13.2751682916)) ;
#1010=CARTESIAN_POINT('Vertex',(8.183231337E-08,-9.,14.)) ;
#1014=CARTESIAN_POINT('Control Point',(-4.91672240857,-9.,13.2751682916)) ;
#1015=CARTESIAN_POINT('Control Point',(-4.91845427601,-9.,13.2746889168)) ;
#1016=CARTESIAN_POINT('Control Point',(-4.92018614344,-9.,13.274209542)) ;
#1017=CARTESIAN_POINT('Control Point',(-4.91734654571,-9.,13.2749955256)) ;
#1018=CARTESIAN_POINT('Control Point',(-4.97252558664,-9.,13.2597202958)) ;
#1019=CARTESIAN_POINT('Control Point',(-5.02805086449,-9.,13.244184216)) ;
#1020=CARTESIAN_POINT('Control Point',(-5.08371981501,-9.,13.2284432333)) ;
#1021=CARTESIAN_POINT('Control Point',(-5.13975031169,-9.,13.2124343097)) ;
#1022=CARTESIAN_POINT('Control Point',(-5.19615242271,-9.,13.1961524227)) ;
#1023=CARTESIAN_POINT('Vertex',(-5.19615242271,-9.,13.1961524226)) ;
#1026=CARTESIAN_POINT('Line Origine',(-5.19615242271,-9.,12.)) ;
#1032=CARTESIAN_POINT('Control Point',(8.18235239564E-08,-9.,14.)) ;
#1033=CARTESIAN_POINT('Control Point',(0.00368463904507,-9.,14.)) ;
#1034=CARTESIAN_POINT('Control Point',(0.00736919626661,-9.,14.)) ;
#1035=CARTESIAN_POINT('Control Point',(0.000990907524392,-9.,13.9999999738)) ;
#1036=CARTESIAN_POINT('Control Point',(0.555382861022,-9.,13.9999559234)) ;
#1037=CARTESIAN_POINT('Control Point',(1.10979027049,-9.,13.975266197)) ;
#1038=CARTESIAN_POINT('Control Point',(1.67212581668,-9.,13.9259750608)) ;
#1039=CARTESIAN_POINT('Control Point',(2.65998850725,-9.,13.7970479229)) ;
#1040=CARTESIAN_POINT('Control Point',(3.73259613793,-9.,13.5785741613)) ;
#1041=CARTESIAN_POINT('Control Point',(4.1941047114,-9.,13.4715182417)) ;
#1042=CARTESIAN_POINT('Control Point',(4.67954018143,-9.,13.345285531)) ;
#1043=CARTESIAN_POINT('Control Point',(5.19615242244,-9.,13.1961524228)) ;
#1056=CARTESIAN_POINT('Axis2P3D Location',(-10.3923048454,0.,14.)) ;
#1062=CARTESIAN_POINT('Control Point',(-10.3923048454,9.32849480412E-13,13.1961524227)) ;
#1063=CARTESIAN_POINT('Control Point',(-10.3914438451,-0.00149129618253,13.1966495214)) ;
#1064=CARTESIAN_POINT('Control Point',(-10.3905828449,-0.00298259236599,13.1971466202)) ;
#1065=CARTESIAN_POINT('Control Point',(-10.3919854778,-0.000553160847134,13.1963368026)) ;
#1066=CARTESIAN_POINT('Control Point',(-10.0246860256,-0.636734473746,13.4083728007)) ;
#1067=CARTESIAN_POINT('Control Point',(-9.68890092368,-1.21833133066,13.5741078603)) ;
#1068=CARTESIAN_POINT('Control Point',(-9.37451071886,-1.7628711388,13.7041045603)) ;
#1069=CARTESIAN_POINT('Control Point',(-8.86353244908,-2.64791146364,13.8737769925)) ;
#1070=CARTESIAN_POINT('Control Point',(-8.38059406177,-3.48438528739,13.9634224817)) ;
#1071=CARTESIAN_POINT('Control Point',(-8.1841176647,-3.82469238959,13.9878104152)) ;
#1072=CARTESIAN_POINT('Control Point',(-7.9891731492,-4.1623461951,14.0000000003)) ;
#1073=CARTESIAN_POINT('Control Point',(-7.79422862852,-4.50000000957,14.)) ;
#1074=CARTESIAN_POINT('Vertex',(-10.3923048454,0.,13.1961524226)) ;
#1076=CARTESIAN_POINT('Vertex',(-7.79422862852,-4.50000000957,14.)) ;
#1079=CARTESIAN_POINT('Line Origine',(-10.3923048454,0.,12.)) ;
#1085=CARTESIAN_POINT('Control Point',(-7.79422862852,-4.50000000957,14.)) ;
#1086=CARTESIAN_POINT('Control Point',(-7.79238634991,-4.50319092973,14.)) ;
#1087=CARTESIAN_POINT('Control Point',(-7.7905440713,-4.50638184988,14.)) ;
#1088=CARTESIAN_POINT('Control Point',(-7.79373321567,-4.5008580898,13.9999999738)) ;
#1089=CARTESIAN_POINT('Control Point',(-7.5165372389,-4.98097560522,13.9999559259)) ;
#1090=CARTESIAN_POINT('Control Point',(-7.23933353446,-5.46110650536,13.975266202)) ;
#1091=CARTESIAN_POINT('Control Point',(-6.95816576213,-5.94810337248,13.9259750685)) ;
#1092=CARTESIAN_POINT('Control Point',(-6.46423441119,-6.80361756775,13.7970479335)) ;
#1093=CARTESIAN_POINT('Control Point',(-5.92793059024,-7.73252303393,13.5785741729)) ;
#1094=CARTESIAN_POINT('Control Point',(-5.69717629596,-8.13220119569,13.4715182509)) ;
#1095=CARTESIAN_POINT('Control Point',(-5.4544585527,-8.55260065892,13.3452855364)) ;
#1096=CARTESIAN_POINT('Control Point',(-5.19615242282,-8.99999999977,13.1961524228)) ;
#1107=CARTESIAN_POINT('Axis2P3D Location',(-5.19615242271,9.,14.)) ;
#1113=CARTESIAN_POINT('Control Point',(-5.19615242271,9.,13.1961524227)) ;
#1114=CARTESIAN_POINT('Control Point',(-5.19701342296,8.99850870382,13.1966495214)) ;
#1115=CARTESIAN_POINT('Control Point',(-5.19787442322,8.99701740763,13.1971466202)) ;
#1116=CARTESIAN_POINT('Control Point',(-5.19647179027,8.99944683915,13.1963368026)) ;
#1117=CARTESIAN_POINT('Control Point',(-5.56377124251,8.36326552628,13.4083728007)) ;
#1118=CARTESIAN_POINT('Control Point',(-5.8995563444,7.78166866939,13.5741078603)) ;
#1119=CARTESIAN_POINT('Control Point',(-6.21394654927,7.23712886116,13.7041045603)) ;
#1120=CARTESIAN_POINT('Control Point',(-6.72492483357,6.35208851119,13.8737769973)) ;
#1121=CARTESIAN_POINT('Control Point',(-7.20786323378,5.51561466509,13.9634224867)) ;
#1122=CARTESIAN_POINT('Control Point',(-7.40433964395,5.1753075402,13.9878104202)) ;
#1123=CARTESIAN_POINT('Control Point',(-7.59928417256,4.83765371199,14.0000000036)) ;
#1124=CARTESIAN_POINT('Control Point',(-7.79422870664,4.49999987429,14.)) ;
#1125=CARTESIAN_POINT('Vertex',(-5.19615242271,9.,13.1961524226)) ;
#1127=CARTESIAN_POINT('Vertex',(-7.79422870664,4.49999987429,14.)) ;
#1130=CARTESIAN_POINT('Line Origine',(-5.19615242271,9.,12.)) ;
#1136=CARTESIAN_POINT('Control Point',(-7.79422870664,4.49999987429,14.)) ;
#1137=CARTESIAN_POINT('Control Point',(-7.79607098525,4.49680895414,14.)) ;
#1138=CARTESIAN_POINT('Control Point',(-7.79791326386,4.49361803398,13.9999999999)) ;
#1139=CARTESIAN_POINT('Control Point',(-7.79472411949,4.49914179406,13.9999999737)) ;
#1140=CARTESIAN_POINT('Control Point',(-8.07192009625,4.01902427867,13.9999559211)) ;
#1141=CARTESIAN_POINT('Control Point',(-8.34912380128,3.53889337751,13.9752661925)) ;
#1142=CARTESIAN_POINT('Control Point',(-8.63029157497,3.05189650804,13.925975054)) ;
#1143=CARTESIAN_POINT('Control Point',(-9.12422291517,2.19638233135,13.7970479135)) ;
#1144=CARTESIAN_POINT('Control Point',(-9.66052672554,1.26747688349,13.5785741508)) ;
#1145=CARTESIAN_POINT('Control Point',(-9.89128100553,0.867798746484,13.4715182335)) ;
#1146=CARTESIAN_POINT('Control Point',(-10.1339987332,0.447399310316,13.3452855261)) ;
#1147=CARTESIAN_POINT('Control Point',(-10.3923048453,2.23973728453E-10,13.1961524228)) ;
#1158=CARTESIAN_POINT('Axis2P3D Location',(5.19615242271,9.,14.)) ;
#1164=CARTESIAN_POINT('Control Point',(4.9167224077,9.,13.2751682918)) ;
#1165=CARTESIAN_POINT('Control Point',(4.91499026098,9.,13.2756477439)) ;
#1166=CARTESIAN_POINT('Control Point',(4.91325811426,9.,13.276127196)) ;
#1167=CARTESIAN_POINT('Control Point',(4.91609819947,9.,13.2753410634)) ;
#1168=CARTESIAN_POINT('Control Point',(4.20018456855,9.,13.4734792043)) ;
#1169=CARTESIAN_POINT('Control Point',(3.54253630025,9.,13.6277121783)) ;
#1170=CARTESIAN_POINT('Control Point',(2.92431581192,9.,13.7476876502)) ;
#1171=CARTESIAN_POINT('Control Point',(1.96150413362,9.,13.8949819289)) ;
#1172=CARTESIAN_POINT('Control Point',(1.04364850276,9.,13.971002152)) ;
#1173=CARTESIAN_POINT('Control Point',(0.694324840829,9.,13.9903356591)) ;
#1174=CARTESIAN_POINT('Control Point',(0.347162383728,9.,14.0000000018)) ;
#1175=CARTESIAN_POINT('Control Point',(-8.18323124818E-08,9.,14.)) ;
#1176=CARTESIAN_POINT('Vertex',(4.91672240857,9.,13.2751682916)) ;
#1178=CARTESIAN_POINT('Vertex',(-8.18323124818E-08,9.,14.)) ;
#1182=CARTESIAN_POINT('Control Point',(4.91672240857,9.,13.2751682916)) ;
#1183=CARTESIAN_POINT('Control Point',(4.91845427601,9.,13.2746889168)) ;
#1184=CARTESIAN_POINT('Control Point',(4.92018614344,9.,13.274209542)) ;
#1185=CARTESIAN_POINT('Control Point',(4.91734654571,9.,13.2749955256)) ;
#1186=CARTESIAN_POINT('Control Point',(4.97252558664,9.,13.2597202958)) ;
#1187=CARTESIAN_POINT('Control Point',(5.02805086449,9.,13.244184216)) ;
#1188=CARTESIAN_POINT('Control Point',(5.08371981501,9.,13.2284432333)) ;
#1189=CARTESIAN_POINT('Control Point',(5.13975031169,9.,13.2124343097)) ;
#1190=CARTESIAN_POINT('Control Point',(5.19615242271,9.,13.1961524227)) ;
#1193=CARTESIAN_POINT('Control Point',(-8.18235417199E-08,9.,14.)) ;
#1194=CARTESIAN_POINT('Control Point',(-0.00368463904509,9.,14.)) ;
#1195=CARTESIAN_POINT('Control Point',(-0.00736919626665,9.,14.)) ;
#1196=CARTESIAN_POINT('Control Point',(-0.000990907524408,9.,13.9999999738)) ;
#1197=CARTESIAN_POINT('Control Point',(-0.555382860987,9.,13.9999559234)) ;
#1198=CARTESIAN_POINT('Control Point',(-1.10979027042,9.,13.975266197)) ;
#1199=CARTESIAN_POINT('Control Point',(-1.67212581676,9.,13.9259750608)) ;
#1200=CARTESIAN_POINT('Control Point',(-2.65998850726,9.,13.7970479229)) ;
#1201=CARTESIAN_POINT('Control Point',(-3.73259613788,9.,13.5785741613)) ;
#1202=CARTESIAN_POINT('Control Point',(-4.19410471144,9.,13.4715182417)) ;
#1203=CARTESIAN_POINT('Control Point',(-4.67954018146,9.,13.345285531)) ;
#1204=CARTESIAN_POINT('Control Point',(-5.19615242244,9.,13.1961524228)) ;
#1217=CARTESIAN_POINT('Axis2P3D Location',(0.,-2.5,21.)) ;
#1226=CARTESIAN_POINT('Axis2P3D Location',(-4.4408920985E-16,0.,21.)) ;
#1230=CARTESIAN_POINT('Vertex',(-1.19856384583,-2.19395640492,21.)) ;
#1232=CARTESIAN_POINT('Vertex',(1.19856384583,2.19395640492,21.)) ;
#1235=CARTESIAN_POINT('Axis2P3D Location',(4.4408920985E-16,0.,21.)) ;
#1245=CARTESIAN_POINT('Axis2P3D Location',(0.,0.,14.)) ;
#1250=CARTESIAN_POINT('Axis2P3D Location',(0.,0.,14.)) ;
#1261=CARTESIAN_POINT('Line Origine',(2075975.63569,3800047.91171,-2499983.40191)) ;
#1265=CARTESIAN_POINT('Vertex',(4.31482984731,7.89824305679,14.0000000001)) ;
#1268=CARTESIAN_POINT('Axis2P3D Location',(0.,0.,14.0000000001)) ;
#1280=CARTESIAN_POINT('Axis2P3D Location',(0.,0.,14.)) ;
#1291=CARTESIAN_POINT('Axis2P3D Location',(0.,0.,13.9999969731)) ;
#1295=CARTESIAN_POINT('Vertex',(-4.3148323609,-7.89824765791,13.9999969731)) ;
#1298=CARTESIAN_POINT('Line Origine',(-2075975.63569,-3800047.91171,-2499983.40191)) ;
#1309=CARTESIAN_POINT('Axis2P3D Location',(0.,0.,13.9999985607)) ;
#1321=CARTESIAN_POINT('Axis2P3D Location',(0.,0.,14.)) ;
#1332=CARTESIAN_POINT('Axis2P3D Location',(0.,0.,14.)) ;
#1344=CARTESIAN_POINT('Control Point',(-8.18235648126E-08,9.00000399517,13.9999976934)) ;
#1345=CARTESIAN_POINT('Control Point',(1.12500043803,9.00000397565,13.9999977106)) ;
#1346=CARTESIAN_POINT('Control Point',(2.25019117118,8.81246290393,13.9999977277)) ;
#1347=CARTESIAN_POINT('Control Point',(3.32755089476,8.43760045782,13.9999977449)) ;
#1348=CARTESIAN_POINT('Control Point',(4.31483170578,7.89824645869,13.9999977621)) ;
#1356=CARTESIAN_POINT('Axis2P3D Location',(0.,0.,11.25)) ;
#1361=CARTESIAN_POINT('Line Origine',(-1.19856384651,-2.19395640473,11.25)) ;
#1365=CARTESIAN_POINT('Vertex',(-1.19856384651,-2.19395640473,14.5)) ;
#1368=CARTESIAN_POINT('Line Origine',(1.19856384651,2.19395640473,11.25)) ;
#1372=CARTESIAN_POINT('Vertex',(1.19856384651,2.19395640473,14.5)) ;
#1375=CARTESIAN_POINT('Axis2P3D Location',(0.,0.,14.5)) ;
#1387=CARTESIAN_POINT('Axis2P3D Location',(0.,0.,14.5)) ;
#1399=CARTESIAN_POINT('Axis2P3D Location',(0.,-12.,14.)) ;
#1415=CARTESIAN_POINT('Control Point',(-1.43827661499,-2.63274768554,14.)) ;
#1416=CARTESIAN_POINT('Control Point',(-1.14049569018,-2.79542614619,14.)) ;
#1417=CARTESIAN_POINT('Control Point',(-0.819715737767,-2.91600285044,14.)) ;
#1418=CARTESIAN_POINT('Control Point',(-0.483497876239,-2.99019054222,14.)) ;
#1419=CARTESIAN_POINT('Control Point',(0.19997659533,-3.04140680219,14.)) ;
#1420=CARTESIAN_POINT('Control Point',(0.87085584164,-2.90114054807,14.)) ;
#1421=CARTESIAN_POINT('Control Point',(1.19446584073,-2.78356984888,14.)) ;
#1422=CARTESIAN_POINT('Control Point',(1.7989308257,-2.46048654544,14.)) ;
#1423=CARTESIAN_POINT('Control Point',(2.29013344794,-1.98249723274,14.)) ;
#1424=CARTESIAN_POINT('Control Point',(2.50032239123,-1.70979459756,14.)) ;
#1425=CARTESIAN_POINT('Control Point',(2.83747123101,-1.11306033635,14.)) ;
#1426=CARTESIAN_POINT('Control Point',(2.99597438694,-0.446255051087,14.)) ;
#1427=CARTESIAN_POINT('Control Point',(3.02726342076,-0.103373428092,14.)) ;
#1428=CARTESIAN_POINT('Control Point',(2.99206526175,0.581112721621,14.)) ;
#1429=CARTESIAN_POINT('Control Point',(2.76849100576,1.22900983664,14.)) ;
#1430=CARTESIAN_POINT('Control Point',(2.61113241576,1.53525123767,14.)) ;
#1431=CARTESIAN_POINT('Control Point',(2.30299071296,1.96959596573,14.)) ;
#1432=CARTESIAN_POINT('Control Point',(1.91067553558,2.3243368896,14.)) ;
#1433=CARTESIAN_POINT('Control Point',(1.76115789496,2.43957899622,14.)) ;
#1434=CARTESIAN_POINT('Control Point',(1.6032469143,2.54262400029,14.)) ;
#1435=CARTESIAN_POINT('Control Point',(1.43827662058,2.63274768367,14.)) ;
#1436=CARTESIAN_POINT('Vertex',(-1.43827661499,-2.63274768554,14.)) ;
#1438=CARTESIAN_POINT('Vertex',(1.43827662058,2.63274768367,14.)) ;
#1441=CARTESIAN_POINT('Axis2P3D Location',(5.7576787782E-10,2.80484968584E-10,14.)) ;
#1451=CARTESIAN_POINT('Axis2P3D Location',(4.4408920985E-16,-4.4408920985E-16,14.5)) ;
#1456=CARTESIAN_POINT('Axis2P3D Location',(-1.43827661581,-2.63274768567,14.5)) ;
#1461=CARTESIAN_POINT('Axis2P3D Location',(1.43827661581,2.63274768567,14.5)) ;
#1473=CARTESIAN_POINT('Axis2P3D Location',(-8.881784197E-16,0.,14.5)) ;
#6=PRODUCT_RELATED_PRODUCT_CATEGORY('part',$,(#16)) ;
#11=UNCERTAINTY_MEASURE_WITH_UNIT(LENGTH_MEASURE(0.005),#8,'distance_accuracy_value','CONFUSED CURVE UNCERTAINTY') ;
#29=STYLED_ITEM(' ',(#28),#21) ;
#28=PRESENTATION_STYLE_ASSIGNMENT((#27)) ;
#27=SURFACE_STYLE_USAGE(.BOTH.,#26) ;
#26=SURFACE_SIDE_STYLE(' ',(#25)) ;
#25=SURFACE_STYLE_FILL_AREA(#24) ;
#24=FILL_AREA_STYLE(' ',(#23)) ;
#23=FILL_AREA_STYLE_COLOUR(' ',#22) ;
#47=VECTOR('Line Direction',#46,1.) ;
#61=VECTOR('Line Direction',#60,1.) ;
#170=VECTOR('Line Direction',#169,1.) ;
#175=VECTOR('Line Direction',#174,1.) ;
#193=VECTOR('Line Direction',#192,1.) ;
#200=VECTOR('Line Direction',#199,1.) ;
#231=VECTOR('Line Direction',#230,1.) ;
#280=VECTOR('Line Direction',#279,1.) ;
#300=VECTOR('Line Direction',#299,1.) ;
#337=VECTOR('Line Direction',#336,1.) ;
#351=VECTOR('Line Direction',#350,1.) ;
#493=VECTOR('Line Direction',#492,1.) ;
#500=VECTOR('Line Direction',#499,1.) ;
#531=VECTOR('Line Direction',#530,1.) ;
#638=VECTOR('Line Direction',#637,1.) ;
#775=VECTOR('Line Direction',#774,1.) ;
#839=VECTOR('Line Direction',#838,1.) ;
#853=VECTOR('Line Direction',#852,1.) ;
#906=VECTOR('Line Direction',#905,1.) ;
#911=VECTOR('Line Direction',#910,1.) ;
#964=VECTOR('Line Direction',#963,1.) ;
#1028=VECTOR('Line Direction',#1027,1.) ;
#1081=VECTOR('Line Direction',#1080,1.) ;
#1132=VECTOR('Line Direction',#1131,1.) ;
#1263=VECTOR('Line Direction',#1262,1.) ;
#1300=VECTOR('Line Direction',#1299,1.) ;
#1363=VECTOR('Line Direction',#1362,1.) ;
#1370=VECTOR('Line Direction',#1369,1.) ;
#32=DIRECTION('Axis2P3D Direction',(0.,0.,1.)) ;
#33=DIRECTION('Axis2P3D XDirection',(-0.87758256189,-0.479425538604,0.)) ;
#37=DIRECTION('Axis2P3D Direction',(0.,0.,1.)) ;
#46=DIRECTION('Vector Direction',(0.,0.,1.)) ;
#53=DIRECTION('Axis2P3D Direction',(0.,0.,1.)) ;
#60=DIRECTION('Vector Direction',(0.,0.,1.)) ;
#72=DIRECTION('Axis2P3D Direction',(0.,0.,-1.)) ;
#73=DIRECTION('Axis2P3D XDirection',(1.,0.,0.)) ;
#77=DIRECTION('Axis2P3D Direction',(0.,0.,-1.)) ;
#86=DIRECTION('Axis2P3D Direction',(0.,0.,-1.)) ;
#93=DIRECTION('Axis2P3D Direction',(0.,0.,-1.)) ;
#131=DIRECTION('Axis2P3D Direction',(0.,-0.,1.)) ;
#132=DIRECTION('Axis2P3D XDirection',(0.87758256189,0.479425538604,0.)) ;
#136=DIRECTION('Axis2P3D Direction',(0.,-0.,1.)) ;
#148=DIRECTION('Axis2P3D Direction',(0.,0.,-1.)) ;
#149=DIRECTION('Axis2P3D XDirection',(-0.87758256189,-0.479425538604,0.)) ;
#153=DIRECTION('Axis2P3D Direction',(0.,0.,-1.)) ;
#162=DIRECTION('Axis2P3D Direction',(0.,0.,-1.)) ;
#169=DIRECTION('Vector Direction',(0.760008792517,0.415194695655,-0.499999999997)) ;
#174=DIRECTION('Vector Direction',(-0.760008792517,-0.415194695655,-0.499999999997)) ;
#187=DIRECTION('Axis2P3D Direction',(1.33226762955E-15,-6.88338275268E-15,1.)) ;
#188=DIRECTION('Axis2P3D XDirection',(-0.105160099949,-0.994455304867,-6.71715398143E-15)) ;
#192=DIRECTION('Vector Direction',(-0.0743594197842,-0.703186089658,0.707106781187)) ;
#199=DIRECTION('Vector Direction',(0.339005077965,0.62054456497,0.707106781187)) ;
#206=DIRECTION('Axis2P3D Direction',(1.33226762955E-15,-6.88338275268E-15,1.)) ;
#218=DIRECTION('Axis2P3D Direction',(1.33226762955E-15,-6.88338275268E-15,1.)) ;
#219=DIRECTION('Axis2P3D XDirection',(0.105160099949,0.994455304867,6.71715398143E-15)) ;
#223=DIRECTION('Axis2P3D Direction',(1.33226762955E-15,-6.88338275268E-15,1.)) ;
#230=DIRECTION('Vector Direction',(-0.339004989581,-0.620544613254,0.707106781187)) ;
#242=DIRECTION('Axis2P3D Direction',(1.33226762955E-15,-6.88338275268E-15,1.)) ;
#254=DIRECTION('Axis2P3D Direction',(0.,0.,-1.)) ;
#261=DIRECTION('Axis2P3D Direction',(0.,0.,-1.)) ;
#274=DIRECTION('Axis2P3D Direction',(0.,0.,-1.)) ;
#275=DIRECTION('Axis2P3D XDirection',(-0.87758256189,0.479425538604,0.)) ;
#279=DIRECTION('Vector Direction',(0.,0.,-1.)) ;
#299=DIRECTION('Vector Direction',(0.,0.,-1.)) ;
#331=DIRECTION('Axis2P3D Direction',(0.,0.,-1.)) ;
#332=DIRECTION('Axis2P3D XDirection',(-0.479425538604,-0.87758256189,-0.)) ;
#336=DIRECTION('Vector Direction',(0.,0.,-1.)) ;
#343=DIRECTION('Axis2P3D Direction',(0.,0.,-1.)) ;
#350=DIRECTION('Vector Direction',(0.,0.,-1.)) ;
#363=DIRECTION('Axis2P3D Direction',(0.,0.,-1.)) ;
#375=DIRECTION('Axis2P3D Direction',(0.,0.,-1.)) ;
#376=DIRECTION('Axis2P3D XDirection',(1.,0.,0.)) ;
#380=DIRECTION('Axis2P3D Direction',(0.,0.,-1.)) ;
#389=DIRECTION('Axis2P3D Direction',(0.,0.,-1.)) ;
#396=DIRECTION('Axis2P3D Direction',(0.,0.,-1.)) ;
#411=DIRECTION('Axis2P3D Direction',(0.,0.,-1.)) ;
#412=DIRECTION('Axis2P3D XDirection',(1.,0.,0.)) ;
#416=DIRECTION('Axis2P3D Direction',(0.,0.,-1.)) ;
#425=DIRECTION('Axis2P3D Direction',(0.,0.,-1.)) ;
#432=DIRECTION('Axis2P3D Direction',(0.,0.,-1.)) ;
#439=DIRECTION('Axis2P3D Direction',(0.,0.,-1.)) ;
#446=DIRECTION('Axis2P3D Direction',(0.,0.,-1.)) ;
#453=DIRECTION('Axis2P3D Direction',(0.,0.,-1.)) ;
#460=DIRECTION('Axis2P3D Direction',(0.,0.,-1.)) ;
#467=DIRECTION('Axis2P3D Direction',(0.,0.,-1.)) ;
#487=DIRECTION('Axis2P3D Direction',(4.88498130835E-15,-6.32827124036E-15,-1.)) ;
#488=DIRECTION('Axis2P3D XDirection',(-0.1782970621,-0.983976705845,5.40006496546E-15)) ;
#492=DIRECTION('Vector Direction',(-0.126075061677,-0.695776601233,-0.707106781187)) ;
#499=DIRECTION('Vector Direction',(-0.339005049202,-0.620544580683,-0.707106781187)) ;
#506=DIRECTION('Axis2P3D Direction',(4.88498130835E-15,-6.32827124036E-15,-1.)) ;
#518=DIRECTION('Axis2P3D Direction',(4.88498130835E-15,-6.32827124036E-15,-1.)) ;
#519=DIRECTION('Axis2P3D XDirection',(0.1782970621,0.983976705845,-5.40006496546E-15)) ;
#523=DIRECTION('Axis2P3D Direction',(4.88498130835E-15,-6.32827124036E-15,-1.)) ;
#530=DIRECTION('Vector Direction',(0.339004975456,0.620544620971,-0.707106781187)) ;
#542=DIRECTION('Axis2P3D Direction',(4.88498130835E-15,-6.32827124036E-15,-1.)) ;
#554=DIRECTION('Axis2P3D Direction',(-0.,-0.,1.)) ;
#555=DIRECTION('Axis2P3D XDirection',(0.479425538604,0.87758256189,0.)) ;
#637=DIRECTION('Vector Direction',(-0.415194695655,-0.760008792517,0.499999999997)) ;
#774=DIRECTION('Vector Direction',(0.415194695655,0.760008792517,0.499999999997)) ;
#833=DIRECTION('Axis2P3D Direction',(0.,0.,-1.)) ;
#834=DIRECTION('Axis2P3D XDirection',(0.479425538604,0.87758256189,0.)) ;
#838=DIRECTION('Vector Direction',(0.,0.,-1.)) ;
#845=DIRECTION('Axis2P3D Direction',(0.,0.,-1.)) ;
#852=DIRECTION('Vector Direction',(0.,0.,-1.)) ;
#865=DIRECTION('Axis2P3D Direction',(-0.,0.,-1.)) ;
#866=DIRECTION('Axis2P3D XDirection',(-0.479425538604,-0.87758256189,0.)) ;
#870=DIRECTION('Axis2P3D Direction',(-0.,0.,-1.)) ;
#882=DIRECTION('Axis2P3D Direction',(-0.866025403784,-0.5,-0.)) ;
#883=DIRECTION('Axis2P3D XDirection',(-0.5,0.866025403784,0.)) ;
#905=DIRECTION('Vector Direction',(0.,0.,-1.)) ;
#910=DIRECTION('Vector Direction',(0.,0.,-1.)) ;
#940=DIRECTION('Axis2P3D Direction',(-0.866025403784,0.5,0.)) ;
#941=DIRECTION('Axis2P3D XDirection',(0.5,0.866025403784,0.)) ;
#963=DIRECTION('Vector Direction',(0.,0.,-1.)) ;
#991=DIRECTION('Axis2P3D Direction',(-0.,1.,0.)) ;
#992=DIRECTION('Axis2P3D XDirection',(1.,0.,0.)) ;
#1027=DIRECTION('Vector Direction',(0.,0.,-1.)) ;
#1057=DIRECTION('Axis2P3D Direction',(0.866025403784,0.5,0.)) ;
#1058=DIRECTION('Axis2P3D XDirection',(0.5,-0.866025403784,0.)) ;
#1080=DIRECTION('Vector Direction',(0.,0.,-1.)) ;
#1108=DIRECTION('Axis2P3D Direction',(0.866025403784,-0.5,0.)) ;
#1109=DIRECTION('Axis2P3D XDirection',(-0.5,-0.866025403784,0.)) ;
#1131=DIRECTION('Vector Direction',(0.,0.,-1.)) ;
#1159=DIRECTION('Axis2P3D Direction',(-0.,-1.,-0.)) ;
#1160=DIRECTION('Axis2P3D XDirection',(-1.,0.,0.)) ;
#1218=DIRECTION('Axis2P3D Direction',(0.,0.,-1.)) ;
#1219=DIRECTION('Axis2P3D XDirection',(1.,0.,0.)) ;
#1227=DIRECTION('Axis2P3D Direction',(0.,0.,-1.)) ;
#1236=DIRECTION('Axis2P3D Direction',(0.,0.,-1.)) ;
#1246=DIRECTION('Axis2P3D Direction',(0.,0.,-1.)) ;
#1247=DIRECTION('Axis2P3D XDirection',(-0.479425538604,-0.87758256189,0.)) ;
#1251=DIRECTION('Axis2P3D Direction',(0.,0.,-1.)) ;
#1262=DIRECTION('Vector Direction',(0.415194695655,0.760008792517,-0.499999999997)) ;
#1269=DIRECTION('Axis2P3D Direction',(0.,0.,-1.)) ;
#1281=DIRECTION('Axis2P3D Direction',(0.,0.,-1.)) ;
#1292=DIRECTION('Axis2P3D Direction',(0.,0.,-1.)) ;
#1299=DIRECTION('Vector Direction',(-0.415194695655,-0.760008792517,-0.499999999997)) ;
#1310=DIRECTION('Axis2P3D Direction',(0.,0.,-1.)) ;
#1322=DIRECTION('Axis2P3D Direction',(0.,0.,-1.)) ;
#1333=DIRECTION('Axis2P3D Direction',(0.,0.,-1.)) ;
#1357=DIRECTION('Axis2P3D Direction',(-0.,0.,-1.)) ;
#1358=DIRECTION('Axis2P3D XDirection',(0.479425538603,0.877582561891,0.)) ;
#1362=DIRECTION('Vector Direction',(0.,0.,-1.)) ;
#1369=DIRECTION('Vector Direction',(0.,0.,-1.)) ;
#1376=DIRECTION('Axis2P3D Direction',(-0.,0.,-1.)) ;
#1388=DIRECTION('Axis2P3D Direction',(-0.,0.,-1.)) ;
#1400=DIRECTION('Axis2P3D Direction',(0.,0.,-1.)) ;
#1401=DIRECTION('Axis2P3D XDirection',(1.,0.,0.)) ;
#1442=DIRECTION('Axis2P3D Direction',(0.,0.,-1.)) ;
#1452=DIRECTION('Axis2P3D Direction',(0.,-0.,-1.)) ;
#1453=DIRECTION('Axis2P3D XDirection',(-0.479425538604,-0.87758256189,0.)) ;
#1457=DIRECTION('Axis2P3D Direction',(0.87758256189,-0.479425538604,0.)) ;
#1462=DIRECTION('Axis2P3D Direction',(-0.87758256189,0.479425538604,-0.)) ;
#1474=DIRECTION('Axis2P3D Direction',(1.84726810056E-15,-3.47305164285E-16,1.)) ;
#1475=DIRECTION('Axis2P3D XDirection',(-0.479425538604,-0.87758256189,7.1054273576E-16)) ;
#15=AXIS2_PLACEMENT_3D('',#14,$,$) ;
#34=AXIS2_PLACEMENT_3D('Cylinder Axis2P3D',#31,#32,#33) ;
#38=AXIS2_PLACEMENT_3D('Circle Axis2P3D',#36,#37,$) ;
#54=AXIS2_PLACEMENT_3D('Circle Axis2P3D',#52,#53,$) ;
#74=AXIS2_PLACEMENT_3D('Plane Axis2P3D',#71,#72,#73) ;
#78=AXIS2_PLACEMENT_3D('Circle Axis2P3D',#76,#77,$) ;
#87=AXIS2_PLACEMENT_3D('Circle Axis2P3D',#85,#86,$) ;
#94=AXIS2_PLACEMENT_3D('Circle Axis2P3D',#92,#93,$) ;
#133=AXIS2_PLACEMENT_3D('Cylinder Axis2P3D',#130,#131,#132) ;
#137=AXIS2_PLACEMENT_3D('Circle Axis2P3D',#135,#136,$) ;
#150=AXIS2_PLACEMENT_3D('Cone Axis2P3D',#147,#148,#149) ;
#154=AXIS2_PLACEMENT_3D('Circle Axis2P3D',#152,#153,$) ;
#163=AXIS2_PLACEMENT_3D('Circle Axis2P3D',#161,#162,$) ;
#189=AXIS2_PLACEMENT_3D('Cone Axis2P3D',#186,#187,#188) ;
#207=AXIS2_PLACEMENT_3D('Circle Axis2P3D',#205,#206,$) ;
#220=AXIS2_PLACEMENT_3D('Cone Axis2P3D',#217,#218,#219) ;
#224=AXIS2_PLACEMENT_3D('Circle Axis2P3D',#222,#223,$) ;
#243=AXIS2_PLACEMENT_3D('Circle Axis2P3D',#241,#242,$) ;
#255=AXIS2_PLACEMENT_3D('Circle Axis2P3D',#253,#254,$) ;
#262=AXIS2_PLACEMENT_3D('Circle Axis2P3D',#260,#261,$) ;
#276=AXIS2_PLACEMENT_3D('Cylinder Axis2P3D',#273,#274,#275) ;
#333=AXIS2_PLACEMENT_3D('Cylinder Axis2P3D',#330,#331,#332) ;
#344=AXIS2_PLACEMENT_3D('Circle Axis2P3D',#342,#343,$) ;
#364=AXIS2_PLACEMENT_3D('Circle Axis2P3D',#362,#363,$) ;
#377=AXIS2_PLACEMENT_3D('Plane Axis2P3D',#374,#375,#376) ;
#381=AXIS2_PLACEMENT_3D('Circle Axis2P3D',#379,#380,$) ;
#390=AXIS2_PLACEMENT_3D('Circle Axis2P3D',#388,#389,$) ;
#397=AXIS2_PLACEMENT_3D('Circle Axis2P3D',#395,#396,$) ;
#413=AXIS2_PLACEMENT_3D('Plane Axis2P3D',#410,#411,#412) ;
#417=AXIS2_PLACEMENT_3D('Circle Axis2P3D',#415,#416,$) ;
#426=AXIS2_PLACEMENT_3D('Circle Axis2P3D',#424,#425,$) ;
#433=AXIS2_PLACEMENT_3D('Circle Axis2P3D',#431,#432,$) ;
#440=AXIS2_PLACEMENT_3D('Circle Axis2P3D',#438,#439,$) ;
#447=AXIS2_PLACEMENT_3D('Circle Axis2P3D',#445,#446,$) ;
#454=AXIS2_PLACEMENT_3D('Circle Axis2P3D',#452,#453,$) ;
#461=AXIS2_PLACEMENT_3D('Circle Axis2P3D',#459,#460,$) ;
#468=AXIS2_PLACEMENT_3D('Circle Axis2P3D',#466,#467,$) ;
#489=AXIS2_PLACEMENT_3D('Cone Axis2P3D',#486,#487,#488) ;
#507=AXIS2_PLACEMENT_3D('Circle Axis2P3D',#505,#506,$) ;
#520=AXIS2_PLACEMENT_3D('Cone Axis2P3D',#517,#518,#519) ;
#524=AXIS2_PLACEMENT_3D('Circle Axis2P3D',#522,#523,$) ;
#543=AXIS2_PLACEMENT_3D('Circle Axis2P3D',#541,#542,$) ;
#556=AXIS2_PLACEMENT_3D('Cone Axis2P3D',#553,#554,#555) ;
#835=AXIS2_PLACEMENT_3D('Cylinder Axis2P3D',#832,#833,#834) ;
#846=AXIS2_PLACEMENT_3D('Circle Axis2P3D',#844,#845,$) ;
#867=AXIS2_PLACEMENT_3D('Cylinder Axis2P3D',#864,#865,#866) ;
#871=AXIS2_PLACEMENT_3D('Circle Axis2P3D',#869,#870,$) ;
#884=AXIS2_PLACEMENT_3D('Plane Axis2P3D',#881,#882,#883) ;
#942=AXIS2_PLACEMENT_3D('Plane Axis2P3D',#939,#940,#941) ;
#993=AXIS2_PLACEMENT_3D('Plane Axis2P3D',#990,#991,#992) ;
#1059=AXIS2_PLACEMENT_3D('Plane Axis2P3D',#1056,#1057,#1058) ;
#1110=AXIS2_PLACEMENT_3D('Plane Axis2P3D',#1107,#1108,#1109) ;
#1161=AXIS2_PLACEMENT_3D('Plane Axis2P3D',#1158,#1159,#1160) ;
#1220=AXIS2_PLACEMENT_3D('Plane Axis2P3D',#1217,#1218,#1219) ;
#1228=AXIS2_PLACEMENT_3D('Circle Axis2P3D',#1226,#1227,$) ;
#1237=AXIS2_PLACEMENT_3D('Circle Axis2P3D',#1235,#1236,$) ;
#1248=AXIS2_PLACEMENT_3D('Cone Axis2P3D',#1245,#1246,#1247) ;
#1252=AXIS2_PLACEMENT_3D('Circle Axis2P3D',#1250,#1251,$) ;
#1270=AXIS2_PLACEMENT_3D('Circle Axis2P3D',#1268,#1269,$) ;
#1282=AXIS2_PLACEMENT_3D('Circle Axis2P3D',#1280,#1281,$) ;
#1293=AXIS2_PLACEMENT_3D('Circle Axis2P3D',#1291,#1292,$) ;
#1311=AXIS2_PLACEMENT_3D('Circle Axis2P3D',#1309,#1310,$) ;
#1323=AXIS2_PLACEMENT_3D('Circle Axis2P3D',#1321,#1322,$) ;
#1334=AXIS2_PLACEMENT_3D('Circle Axis2P3D',#1332,#1333,$) ;
#1359=AXIS2_PLACEMENT_3D('Cylinder Axis2P3D',#1356,#1357,#1358) ;
#1377=AXIS2_PLACEMENT_3D('Circle Axis2P3D',#1375,#1376,$) ;
#1389=AXIS2_PLACEMENT_3D('Circle Axis2P3D',#1387,#1388,$) ;
#1402=AXIS2_PLACEMENT_3D('Plane Axis2P3D',#1399,#1400,#1401) ;
#1443=AXIS2_PLACEMENT_3D('Circle Axis2P3D',#1441,#1442,$) ;
#1454=AXIS2_PLACEMENT_3D('Torus Axis2P3D',#1451,#1452,#1453) ;
#1458=AXIS2_PLACEMENT_3D('Circle Axis2P3D',#1456,#1457,$) ;
#1463=AXIS2_PLACEMENT_3D('Circle Axis2P3D',#1461,#1462,$) ;
#1476=AXIS2_PLACEMENT_3D('Torus Axis2P3D',#1473,#1474,#1475) ;
#48=LINE('Line',#45,#47) ;
#62=LINE('Line',#59,#61) ;
#171=LINE('Line',#168,#170) ;
#176=LINE('Line',#173,#175) ;
#194=LINE('Line',#191,#193) ;
#201=LINE('Line',#198,#200) ;
#232=LINE('Line',#229,#231) ;
#281=LINE('Line',#278,#280) ;
#301=LINE('Line',#298,#300) ;
#338=LINE('Line',#335,#337) ;
#352=LINE('Line',#349,#351) ;
#494=LINE('Line',#491,#493) ;
#501=LINE('Line',#498,#500) ;
#532=LINE('Line',#529,#531) ;
#639=LINE('Line',#636,#638) ;
#776=LINE('Line',#773,#775) ;
#840=LINE('Line',#837,#839) ;
#854=LINE('Line',#851,#853) ;
#907=LINE('Line',#904,#906) ;
#912=LINE('Line',#909,#911) ;
#965=LINE('Line',#962,#964) ;
#1029=LINE('Line',#1026,#1028) ;
#1082=LINE('Line',#1079,#1081) ;
#1133=LINE('Line',#1130,#1132) ;
#1264=LINE('Line',#1261,#1263) ;
#1301=LINE('Line',#1298,#1300) ;
#1364=LINE('Line',#1361,#1363) ;
#1371=LINE('Line',#1368,#1370) ;
#39=CIRCLE('generated circle',#38,3.) ;
#55=CIRCLE('generated circle',#54,3.) ;
#79=CIRCLE('generated circle',#78,4.55625000035) ;
#88=CIRCLE('generated circle',#87,4.55625001919) ;
#95=CIRCLE('generated circle',#94,4.55625000066) ;
#138=CIRCLE('generated circle',#137,3.) ;
#155=CIRCLE('generated circle',#154,1.25000000002) ;
#164=CIRCLE('generated circle',#163,1.25000000002) ;
#208=CIRCLE('generated circle',#207,5.55625000002) ;
#225=CIRCLE('generated circle',#224,5.55625000002) ;
#244=CIRCLE('generated circle',#243,5.55625000002) ;
#256=CIRCLE('generated circle',#255,1.25000000002) ;
#263=CIRCLE('generated circle',#262,1.25000000002) ;
#345=CIRCLE('generated circle',#344,5.55625000002) ;
#365=CIRCLE('generated circle',#364,5.55625000002) ;
#382=CIRCLE('generated circle',#381,2.00000005949) ;
#391=CIRCLE('generated circle',#390,2.00000000027) ;
#398=CIRCLE('generated circle',#397,2.00000000005) ;
#418=CIRCLE('generated circle',#417,8.9999999965) ;
#427=CIRCLE('generated circle',#426,8.99999999003) ;
#434=CIRCLE('generated circle',#433,8.99999994512) ;
#441=CIRCLE('generated circle',#440,8.99999998521) ;
#448=CIRCLE('generated circle',#447,8.99999999527) ;
#455=CIRCLE('generated circle',#454,8.99999999698) ;
#462=CIRCLE('generated circle',#461,9.00000001573) ;
#469=CIRCLE('generated circle',#468,8.99999999804) ;
#508=CIRCLE('generated circle',#507,3.) ;
#525=CIRCLE('generated circle',#524,3.) ;
#544=CIRCLE('generated circle',#543,3.) ;
#847=CIRCLE('generated circle',#846,3.) ;
#872=CIRCLE('generated circle',#871,3.) ;
#1229=CIRCLE('generated circle',#1228,2.49999999985) ;
#1238=CIRCLE('generated circle',#1237,2.49999999985) ;
#1253=CIRCLE('generated circle',#1252,9.) ;
#1271=CIRCLE('generated circle',#1270,8.99999999979) ;
#1283=CIRCLE('generated circle',#1282,9.) ;
#1294=CIRCLE('generated circle',#1293,9.00000524269) ;
#1312=CIRCLE('generated circle',#1311,9.00000249297) ;
#1324=CIRCLE('generated circle',#1323,9.) ;
#1335=CIRCLE('generated circle',#1334,9.) ;
#1378=CIRCLE('generated circle',#1377,2.5) ;
#1390=CIRCLE('generated circle',#1389,2.5) ;
#1444=CIRCLE('generated circle',#1443,3.00000000001) ;
#1459=CIRCLE('generated circle',#1458,0.5) ;
#1464=CIRCLE('generated circle',#1463,0.5) ;
#75=PLANE('',#74) ;
#378=PLANE('',#377) ;
#414=PLANE('',#413) ;
#885=PLANE('',#884) ;
#943=PLANE('',#942) ;
#994=PLANE('',#993) ;
#1060=PLANE('',#1059) ;
#1111=PLANE('',#1110) ;
#1162=PLANE('',#1161) ;
#1221=PLANE('',#1220) ;
#1403=PLANE('',#1402) ;
#35=CYLINDRICAL_SURFACE('generated cylinder',#34,3.) ;
#134=CYLINDRICAL_SURFACE('generated cylinder',#133,3.) ;
#277=CYLINDRICAL_SURFACE('generated cylinder',#276,1.25) ;
#334=CYLINDRICAL_SURFACE('generated cylinder',#333,5.55625000002) ;
#836=CYLINDRICAL_SURFACE('generated cylinder',#835,3.) ;
#868=CYLINDRICAL_SURFACE('generated cylinder',#867,3.) ;
#1360=CYLINDRICAL_SURFACE('generated cylinder',#1359,2.5) ;
#151=CONICAL_SURFACE('Cone',#150,0.,1.0471975512) ;
#190=CONICAL_SURFACE('Cone',#189,0.,0.785398163397) ;
#221=CONICAL_SURFACE('Cone',#220,0.,0.785398163397) ;
#490=CONICAL_SURFACE('Cone',#489,0.,0.785398163397) ;
#521=CONICAL_SURFACE('Cone',#520,0.,0.785398163397) ;
#557=CONICAL_SURFACE('Cone',#556,9.,1.0471975512) ;
#1249=CONICAL_SURFACE('Cone',#1248,9.,1.0471975512) ;
#1455=TOROIDAL_SURFACE('homeo Torus',#1454,3.,0.5) ;
#1477=TOROIDAL_SURFACE('homeo Torus',#1476,3.,0.5) ;
#128=FACE_BOUND('',#125,.T.) ;
#408=FACE_BOUND('',#405,.T.) ;
#484=FACE_BOUND('',#481,.T.) ;
#1243=FACE_BOUND('',#1240,.T.) ;
#1449=FACE_BOUND('',#1446,.T.) ;
#44=EDGE_CURVE('',#41,#43,#39,.F.) ;
#51=EDGE_CURVE('',#50,#43,#48,.F.) ;
#58=EDGE_CURVE('',#50,#57,#55,.T.) ;
#63=EDGE_CURVE('',#57,#41,#62,.F.) ;
#84=EDGE_CURVE('',#81,#83,#79,.T.) ;
#91=EDGE_CURVE('',#83,#90,#88,.T.) ;
#96=EDGE_CURVE('',#90,#81,#95,.T.) ;
#124=EDGE_CURVE('',#43,#41,#102,.F.) ;
#139=EDGE_CURVE('',#57,#50,#138,.T.) ;
#160=EDGE_CURVE('',#157,#159,#155,.F.) ;
#167=EDGE_CURVE('',#166,#159,#164,.T.) ;
#172=EDGE_CURVE('',#166,#57,#171,.T.) ;
#177=EDGE_CURVE('',#157,#50,#176,.T.) ;
#197=EDGE_CURVE('',#83,#196,#194,.T.) ;
#204=EDGE_CURVE('',#81,#203,#201,.T.) ;
#209=EDGE_CURVE('',#203,#196,#208,.F.) ;
#228=EDGE_CURVE('',#196,#227,#225,.F.) ;
#233=EDGE_CURVE('',#90,#227,#232,.T.) ;
#245=EDGE_CURVE('',#227,#203,#244,.F.) ;
#259=EDGE_CURVE('',#166,#258,#256,.F.) ;
#264=EDGE_CURVE('',#157,#258,#263,.T.) ;
#284=EDGE_CURVE('',#258,#283,#281,.F.) ;
#297=EDGE_CURVE('',#296,#283,#285,.T.) ;
#302=EDGE_CURVE('',#159,#296,#301,.F.) ;
#321=EDGE_CURVE('',#283,#296,#311,.T.) ;
#341=EDGE_CURVE('',#340,#203,#338,.T.) ;
#348=EDGE_CURVE('',#340,#347,#345,.T.) ;
#353=EDGE_CURVE('',#347,#227,#352,.T.) ;
#366=EDGE_CURVE('',#347,#340,#365,.T.) ;
#387=EDGE_CURVE('',#384,#386,#382,.T.) ;
#394=EDGE_CURVE('',#393,#384,#391,.T.) ;
#399=EDGE_CURVE('',#386,#393,#398,.T.) ;
#423=EDGE_CURVE('',#420,#422,#418,.T.) ;
#430=EDGE_CURVE('',#422,#429,#427,.T.) ;
#437=EDGE_CURVE('',#429,#436,#434,.T.) ;
#444=EDGE_CURVE('',#436,#443,#441,.T.) ;
#451=EDGE_CURVE('',#443,#450,#448,.T.) ;
#458=EDGE_CURVE('',#450,#457,#455,.T.) ;
#465=EDGE_CURVE('',#457,#464,#462,.T.) ;
#470=EDGE_CURVE('',#464,#420,#469,.T.) ;
#497=EDGE_CURVE('',#384,#496,#494,.T.) ;
#504=EDGE_CURVE('',#503,#386,#501,.F.) ;
#509=EDGE_CURVE('',#496,#503,#508,.T.) ;
#528=EDGE_CURVE('',#527,#496,#525,.T.) ;
#533=EDGE_CURVE('',#527,#393,#532,.F.) ;
#545=EDGE_CURVE('',#503,#527,#544,.T.) ;
#567=EDGE_CURVE('',#420,#566,#558,.T.) ;
#590=EDGE_CURVE('',#566,#422,#568,.T.) ;
#606=EDGE_CURVE('',#422,#605,#597,.T.) ;
#629=EDGE_CURVE('',#605,#429,#607,.T.) ;
#642=EDGE_CURVE('',#641,#436,#639,.F.) ;
#650=EDGE_CURVE('',#429,#641,#643,.T.) ;
#664=EDGE_CURVE('',#641,#663,#657,.T.) ;
#687=EDGE_CURVE('',#663,#443,#665,.T.) ;
#704=EDGE_CURVE('',#443,#703,#695,.T.) ;
#727=EDGE_CURVE('',#703,#450,#705,.T.) ;
#743=EDGE_CURVE('',#450,#742,#734,.T.) ;
#766=EDGE_CURVE('',#742,#457,#744,.T.) ;
#779=EDGE_CURVE('',#778,#464,#776,.F.) ;
#787=EDGE_CURVE('',#457,#778,#780,.T.) ;
#801=EDGE_CURVE('',#778,#800,#794,.T.) ;
#824=EDGE_CURVE('',#800,#420,#802,.T.) ;
#843=EDGE_CURVE('',#503,#842,#840,.T.) ;
#850=EDGE_CURVE('',#849,#842,#847,.T.) ;
#855=EDGE_CURVE('',#527,#849,#854,.T.) ;
#873=EDGE_CURVE('',#842,#849,#872,.T.) ;
#903=EDGE_CURVE('',#900,#902,#886,.T.) ;
#908=EDGE_CURVE('',#900,#566,#907,.T.) ;
#915=EDGE_CURVE('',#914,#800,#912,.T.) ;
#929=EDGE_CURVE('',#902,#914,#916,.T.) ;
#961=EDGE_CURVE('',#958,#960,#944,.T.) ;
#966=EDGE_CURVE('',#958,#605,#965,.T.) ;
#980=EDGE_CURVE('',#960,#900,#967,.T.) ;
#1012=EDGE_CURVE('',#1009,#1011,#995,.T.) ;
#1025=EDGE_CURVE('',#1009,#1024,#1013,.T.) ;
#1030=EDGE_CURVE('',#1024,#663,#1029,.T.) ;
#1044=EDGE_CURVE('',#1011,#958,#1031,.T.) ;
#1078=EDGE_CURVE('',#1075,#1077,#1061,.T.) ;
#1083=EDGE_CURVE('',#1075,#703,#1082,.T.) ;
#1097=EDGE_CURVE('',#1077,#1024,#1084,.T.) ;
#1129=EDGE_CURVE('',#1126,#1128,#1112,.T.) ;
#1134=EDGE_CURVE('',#1126,#742,#1133,.T.) ;
#1148=EDGE_CURVE('',#1128,#1075,#1135,.T.) ;
#1180=EDGE_CURVE('',#1177,#1179,#1163,.T.) ;
#1191=EDGE_CURVE('',#1177,#914,#1181,.T.) ;
#1205=EDGE_CURVE('',#1179,#1126,#1192,.T.) ;
#1234=EDGE_CURVE('',#1231,#1233,#1229,.T.) ;
#1239=EDGE_CURVE('',#1233,#1231,#1238,.T.) ;
#1254=EDGE_CURVE('',#902,#960,#1253,.T.) ;
#1267=EDGE_CURVE('',#1266,#1177,#1264,.T.) ;
#1272=EDGE_CURVE('',#1266,#902,#1271,.T.) ;
#1284=EDGE_CURVE('',#960,#1011,#1283,.T.) ;
#1297=EDGE_CURVE('',#1011,#1296,#1294,.T.) ;
#1302=EDGE_CURVE('',#1296,#1009,#1301,.T.) ;
#1313=EDGE_CURVE('',#1296,#1077,#1312,.T.) ;
#1325=EDGE_CURVE('',#1077,#1128,#1324,.T.) ;
#1336=EDGE_CURVE('',#1128,#1179,#1335,.T.) ;
#1349=EDGE_CURVE('',#1179,#1266,#1343,.T.) ;
#1367=EDGE_CURVE('',#1231,#1366,#1364,.T.) ;
#1374=EDGE_CURVE('',#1233,#1373,#1371,.T.) ;
#1379=EDGE_CURVE('',#1373,#1366,#1378,.F.) ;
#1391=EDGE_CURVE('',#1366,#1373,#1390,.F.) ;
#1440=EDGE_CURVE('',#1437,#1439,#1414,.T.) ;
#1445=EDGE_CURVE('',#1439,#1437,#1444,.F.) ;
#1460=EDGE_CURVE('',#1437,#1366,#1459,.T.) ;
#1465=EDGE_CURVE('',#1439,#1373,#1464,.T.) ;
#30=CLOSED_SHELL('Closed Shell',(#70,#129,#146,#185,#216,#240,#252,#272,#310,#329,#361,#373,#409,#485,#516,#540,#552,#596,#635,#656,#694,#733,#772,#793,#831,#863,#880,#938,#989,#1055,#1106,#1157,#1216,#1244,#1260,#1279,#1290,#1308,#1320,#1331,#1342,#1355,#1386,#1398,#1450,#1472,#1484)) ;
#65=ORIENTED_EDGE('',*,*,#44,.T.) ;
#66=ORIENTED_EDGE('',*,*,#51,.F.) ;
#67=ORIENTED_EDGE('',*,*,#58,.T.) ;
#68=ORIENTED_EDGE('',*,*,#63,.T.) ;
#98=ORIENTED_EDGE('',*,*,#84,.T.) ;
#99=ORIENTED_EDGE('',*,*,#91,.T.) ;
#100=ORIENTED_EDGE('',*,*,#96,.T.) ;
#126=ORIENTED_EDGE('',*,*,#124,.F.) ;
#127=ORIENTED_EDGE('',*,*,#44,.F.) ;
#141=ORIENTED_EDGE('',*,*,#124,.T.) ;
#142=ORIENTED_EDGE('',*,*,#63,.F.) ;
#143=ORIENTED_EDGE('',*,*,#139,.T.) ;
#144=ORIENTED_EDGE('',*,*,#51,.T.) ;
#179=ORIENTED_EDGE('',*,*,#160,.T.) ;
#180=ORIENTED_EDGE('',*,*,#167,.F.) ;
#181=ORIENTED_EDGE('',*,*,#172,.T.) ;
#182=ORIENTED_EDGE('',*,*,#58,.F.) ;
#183=ORIENTED_EDGE('',*,*,#177,.F.) ;
#211=ORIENTED_EDGE('',*,*,#197,.F.) ;
#212=ORIENTED_EDGE('',*,*,#84,.F.) ;
#213=ORIENTED_EDGE('',*,*,#204,.T.) ;
#214=ORIENTED_EDGE('',*,*,#209,.T.) ;
#235=ORIENTED_EDGE('',*,*,#197,.T.) ;
#236=ORIENTED_EDGE('',*,*,#228,.T.) ;
#237=ORIENTED_EDGE('',*,*,#233,.F.) ;
#238=ORIENTED_EDGE('',*,*,#91,.F.) ;
#247=ORIENTED_EDGE('',*,*,#233,.T.) ;
#248=ORIENTED_EDGE('',*,*,#245,.T.) ;
#249=ORIENTED_EDGE('',*,*,#204,.F.) ;
#250=ORIENTED_EDGE('',*,*,#96,.F.) ;
#266=ORIENTED_EDGE('',*,*,#259,.T.) ;
#267=ORIENTED_EDGE('',*,*,#264,.F.) ;
#268=ORIENTED_EDGE('',*,*,#177,.T.) ;
#269=ORIENTED_EDGE('',*,*,#139,.F.) ;
#270=ORIENTED_EDGE('',*,*,#172,.F.) ;
#304=ORIENTED_EDGE('',*,*,#160,.F.) ;
#305=ORIENTED_EDGE('',*,*,#264,.T.) ;
#306=ORIENTED_EDGE('',*,*,#284,.T.) ;
#307=ORIENTED_EDGE('',*,*,#297,.F.) ;
#308=ORIENTED_EDGE('',*,*,#302,.F.) ;
#323=ORIENTED_EDGE('',*,*,#259,.F.) ;
#324=ORIENTED_EDGE('',*,*,#167,.T.) ;
#325=ORIENTED_EDGE('',*,*,#302,.T.) ;
#326=ORIENTED_EDGE('',*,*,#321,.F.) ;
#327=ORIENTED_EDGE('',*,*,#284,.F.) ;
#355=ORIENTED_EDGE('',*,*,#341,.F.) ;
#356=ORIENTED_EDGE('',*,*,#348,.T.) ;
#357=ORIENTED_EDGE('',*,*,#353,.T.) ;
#358=ORIENTED_EDGE('',*,*,#228,.F.) ;
#359=ORIENTED_EDGE('',*,*,#209,.F.) ;
#368=ORIENTED_EDGE('',*,*,#353,.F.) ;
#369=ORIENTED_EDGE('',*,*,#366,.T.) ;
#370=ORIENTED_EDGE('',*,*,#341,.T.) ;
#371=ORIENTED_EDGE('',*,*,#245,.F.) ;
#401=ORIENTED_EDGE('',*,*,#387,.F.) ;
#402=ORIENTED_EDGE('',*,*,#394,.F.) ;
#403=ORIENTED_EDGE('',*,*,#399,.F.) ;
#406=ORIENTED_EDGE('',*,*,#321,.T.) ;
#407=ORIENTED_EDGE('',*,*,#297,.T.) ;
#472=ORIENTED_EDGE('',*,*,#423,.T.) ;
#473=ORIENTED_EDGE('',*,*,#430,.T.) ;
#474=ORIENTED_EDGE('',*,*,#437,.T.) ;
#475=ORIENTED_EDGE('',*,*,#444,.T.) ;
#476=ORIENTED_EDGE('',*,*,#451,.T.) ;
#477=ORIENTED_EDGE('',*,*,#458,.T.) ;
#478=ORIENTED_EDGE('',*,*,#465,.T.) ;
#479=ORIENTED_EDGE('',*,*,#470,.T.) ;
#482=ORIENTED_EDGE('',*,*,#366,.F.) ;
#483=ORIENTED_EDGE('',*,*,#348,.F.) ;
#511=ORIENTED_EDGE('',*,*,#497,.F.) ;
#512=ORIENTED_EDGE('',*,*,#387,.T.) ;
#513=ORIENTED_EDGE('',*,*,#504,.F.) ;
#514=ORIENTED_EDGE('',*,*,#509,.F.) ;
#535=ORIENTED_EDGE('',*,*,#497,.T.) ;
#536=ORIENTED_EDGE('',*,*,#528,.F.) ;
#537=ORIENTED_EDGE('',*,*,#533,.T.) ;
#538=ORIENTED_EDGE('',*,*,#394,.T.) ;
#547=ORIENTED_EDGE('',*,*,#504,.T.) ;
#548=ORIENTED_EDGE('',*,*,#399,.T.) ;
#549=ORIENTED_EDGE('',*,*,#533,.F.) ;
#550=ORIENTED_EDGE('',*,*,#545,.F.) ;
#592=ORIENTED_EDGE('',*,*,#423,.F.) ;
#593=ORIENTED_EDGE('',*,*,#567,.T.) ;
#594=ORIENTED_EDGE('',*,*,#590,.T.) ;
#631=ORIENTED_EDGE('',*,*,#430,.F.) ;
#632=ORIENTED_EDGE('',*,*,#606,.T.) ;
#633=ORIENTED_EDGE('',*,*,#629,.T.) ;
#652=ORIENTED_EDGE('',*,*,#642,.T.) ;
#653=ORIENTED_EDGE('',*,*,#437,.F.) ;
#654=ORIENTED_EDGE('',*,*,#650,.T.) ;
#689=ORIENTED_EDGE('',*,*,#444,.F.) ;
#690=ORIENTED_EDGE('',*,*,#642,.F.) ;
#691=ORIENTED_EDGE('',*,*,#664,.T.) ;
#692=ORIENTED_EDGE('',*,*,#687,.T.) ;
#729=ORIENTED_EDGE('',*,*,#451,.F.) ;
#730=ORIENTED_EDGE('',*,*,#704,.T.) ;
#731=ORIENTED_EDGE('',*,*,#727,.T.) ;
#768=ORIENTED_EDGE('',*,*,#458,.F.) ;
#769=ORIENTED_EDGE('',*,*,#743,.T.) ;
#770=ORIENTED_EDGE('',*,*,#766,.T.) ;
#789=ORIENTED_EDGE('',*,*,#779,.T.) ;
#790=ORIENTED_EDGE('',*,*,#465,.F.) ;
#791=ORIENTED_EDGE('',*,*,#787,.T.) ;
#826=ORIENTED_EDGE('',*,*,#470,.F.) ;
#827=ORIENTED_EDGE('',*,*,#779,.F.) ;
#828=ORIENTED_EDGE('',*,*,#801,.T.) ;
#829=ORIENTED_EDGE('',*,*,#824,.T.) ;
#857=ORIENTED_EDGE('',*,*,#843,.T.) ;
#858=ORIENTED_EDGE('',*,*,#850,.F.) ;
#859=ORIENTED_EDGE('',*,*,#855,.F.) ;
#860=ORIENTED_EDGE('',*,*,#528,.T.) ;
#861=ORIENTED_EDGE('',*,*,#509,.T.) ;
#875=ORIENTED_EDGE('',*,*,#855,.T.) ;
#876=ORIENTED_EDGE('',*,*,#873,.F.) ;
#877=ORIENTED_EDGE('',*,*,#843,.F.) ;
#878=ORIENTED_EDGE('',*,*,#545,.T.) ;
#931=ORIENTED_EDGE('',*,*,#903,.F.) ;
#932=ORIENTED_EDGE('',*,*,#908,.T.) ;
#933=ORIENTED_EDGE('',*,*,#567,.F.) ;
#934=ORIENTED_EDGE('',*,*,#824,.F.) ;
#935=ORIENTED_EDGE('',*,*,#915,.F.) ;
#936=ORIENTED_EDGE('',*,*,#929,.F.) ;
#982=ORIENTED_EDGE('',*,*,#961,.F.) ;
#983=ORIENTED_EDGE('',*,*,#966,.T.) ;
#984=ORIENTED_EDGE('',*,*,#606,.F.) ;
#985=ORIENTED_EDGE('',*,*,#590,.F.) ;
#986=ORIENTED_EDGE('',*,*,#908,.F.) ;
#987=ORIENTED_EDGE('',*,*,#980,.F.) ;
#1046=ORIENTED_EDGE('',*,*,#1012,.F.) ;
#1047=ORIENTED_EDGE('',*,*,#1025,.T.) ;
#1048=ORIENTED_EDGE('',*,*,#1030,.T.) ;
#1049=ORIENTED_EDGE('',*,*,#664,.F.) ;
#1050=ORIENTED_EDGE('',*,*,#650,.F.) ;
#1051=ORIENTED_EDGE('',*,*,#629,.F.) ;
#1052=ORIENTED_EDGE('',*,*,#966,.F.) ;
#1053=ORIENTED_EDGE('',*,*,#1044,.F.) ;
#1099=ORIENTED_EDGE('',*,*,#1078,.F.) ;
#1100=ORIENTED_EDGE('',*,*,#1083,.T.) ;
#1101=ORIENTED_EDGE('',*,*,#704,.F.) ;
#1102=ORIENTED_EDGE('',*,*,#687,.F.) ;
#1103=ORIENTED_EDGE('',*,*,#1030,.F.) ;
#1104=ORIENTED_EDGE('',*,*,#1097,.F.) ;
#1150=ORIENTED_EDGE('',*,*,#1129,.F.) ;
#1151=ORIENTED_EDGE('',*,*,#1134,.T.) ;
#1152=ORIENTED_EDGE('',*,*,#743,.F.) ;
#1153=ORIENTED_EDGE('',*,*,#727,.F.) ;
#1154=ORIENTED_EDGE('',*,*,#1083,.F.) ;
#1155=ORIENTED_EDGE('',*,*,#1148,.F.) ;
#1207=ORIENTED_EDGE('',*,*,#1180,.F.) ;
#1208=ORIENTED_EDGE('',*,*,#1191,.T.) ;
#1209=ORIENTED_EDGE('',*,*,#915,.T.) ;
#1210=ORIENTED_EDGE('',*,*,#801,.F.) ;
#1211=ORIENTED_EDGE('',*,*,#787,.F.) ;
#1212=ORIENTED_EDGE('',*,*,#766,.F.) ;
#1213=ORIENTED_EDGE('',*,*,#1134,.F.) ;
#1214=ORIENTED_EDGE('',*,*,#1205,.F.) ;
#1223=ORIENTED_EDGE('',*,*,#850,.T.) ;
#1224=ORIENTED_EDGE('',*,*,#873,.T.) ;
#1241=ORIENTED_EDGE('',*,*,#1234,.F.) ;
#1242=ORIENTED_EDGE('',*,*,#1239,.F.) ;
#1256=ORIENTED_EDGE('',*,*,#1254,.T.) ;
#1257=ORIENTED_EDGE('',*,*,#980,.T.) ;
#1258=ORIENTED_EDGE('',*,*,#903,.T.) ;
#1274=ORIENTED_EDGE('',*,*,#1267,.F.) ;
#1275=ORIENTED_EDGE('',*,*,#1272,.T.) ;
#1276=ORIENTED_EDGE('',*,*,#929,.T.) ;
#1277=ORIENTED_EDGE('',*,*,#1191,.F.) ;
#1286=ORIENTED_EDGE('',*,*,#1284,.T.) ;
#1287=ORIENTED_EDGE('',*,*,#1044,.T.) ;
#1288=ORIENTED_EDGE('',*,*,#961,.T.) ;
#1304=ORIENTED_EDGE('',*,*,#1297,.T.) ;
#1305=ORIENTED_EDGE('',*,*,#1302,.T.) ;
#1306=ORIENTED_EDGE('',*,*,#1012,.T.) ;
#1315=ORIENTED_EDGE('',*,*,#1302,.F.) ;
#1316=ORIENTED_EDGE('',*,*,#1313,.T.) ;
#1317=ORIENTED_EDGE('',*,*,#1097,.T.) ;
#1318=ORIENTED_EDGE('',*,*,#1025,.F.) ;
#1327=ORIENTED_EDGE('',*,*,#1325,.T.) ;
#1328=ORIENTED_EDGE('',*,*,#1148,.T.) ;
#1329=ORIENTED_EDGE('',*,*,#1078,.T.) ;
#1338=ORIENTED_EDGE('',*,*,#1336,.T.) ;
#1339=ORIENTED_EDGE('',*,*,#1205,.T.) ;
#1340=ORIENTED_EDGE('',*,*,#1129,.T.) ;
#1351=ORIENTED_EDGE('',*,*,#1349,.T.) ;
#1352=ORIENTED_EDGE('',*,*,#1267,.T.) ;
#1353=ORIENTED_EDGE('',*,*,#1180,.T.) ;
#1381=ORIENTED_EDGE('',*,*,#1367,.F.) ;
#1382=ORIENTED_EDGE('',*,*,#1234,.T.) ;
#1383=ORIENTED_EDGE('',*,*,#1374,.T.) ;
#1384=ORIENTED_EDGE('',*,*,#1379,.T.) ;
#1393=ORIENTED_EDGE('',*,*,#1374,.F.) ;
#1394=ORIENTED_EDGE('',*,*,#1239,.T.) ;
#1395=ORIENTED_EDGE('',*,*,#1367,.T.) ;
#1396=ORIENTED_EDGE('',*,*,#1391,.T.) ;
#1405=ORIENTED_EDGE('',*,*,#1284,.F.) ;
#1406=ORIENTED_EDGE('',*,*,#1254,.F.) ;
#1407=ORIENTED_EDGE('',*,*,#1272,.F.) ;
#1408=ORIENTED_EDGE('',*,*,#1349,.F.) ;
#1409=ORIENTED_EDGE('',*,*,#1336,.F.) ;
#1410=ORIENTED_EDGE('',*,*,#1325,.F.) ;
#1411=ORIENTED_EDGE('',*,*,#1313,.F.) ;
#1412=ORIENTED_EDGE('',*,*,#1297,.F.) ;
#1447=ORIENTED_EDGE('',*,*,#1440,.F.) ;
#1448=ORIENTED_EDGE('',*,*,#1445,.F.) ;
#1467=ORIENTED_EDGE('',*,*,#1445,.T.) ;
#1468=ORIENTED_EDGE('',*,*,#1460,.T.) ;
#1469=ORIENTED_EDGE('',*,*,#1379,.F.) ;
#1470=ORIENTED_EDGE('',*,*,#1465,.F.) ;
#1479=ORIENTED_EDGE('',*,*,#1440,.T.) ;
#1480=ORIENTED_EDGE('',*,*,#1465,.T.) ;
#1481=ORIENTED_EDGE('',*,*,#1391,.F.) ;
#1482=ORIENTED_EDGE('',*,*,#1460,.F.) ;
#64=EDGE_LOOP('',(#65,#66,#67,#68)) ;
#97=EDGE_LOOP('',(#98,#99,#100)) ;
#125=EDGE_LOOP('',(#126,#127)) ;
#140=EDGE_LOOP('',(#141,#142,#143,#144)) ;
#178=EDGE_LOOP('',(#179,#180,#181,#182,#183)) ;
#210=EDGE_LOOP('',(#211,#212,#213,#214)) ;
#234=EDGE_LOOP('',(#235,#236,#237,#238)) ;
#246=EDGE_LOOP('',(#247,#248,#249,#250)) ;
#265=EDGE_LOOP('',(#266,#267,#268,#269,#270)) ;
#303=EDGE_LOOP('',(#304,#305,#306,#307,#308)) ;
#322=EDGE_LOOP('',(#323,#324,#325,#326,#327)) ;
#354=EDGE_LOOP('',(#355,#356,#357,#358,#359)) ;
#367=EDGE_LOOP('',(#368,#369,#370,#371)) ;
#400=EDGE_LOOP('',(#401,#402,#403)) ;
#405=EDGE_LOOP('',(#406,#407)) ;
#471=EDGE_LOOP('',(#472,#473,#474,#475,#476,#477,#478,#479)) ;
#481=EDGE_LOOP('',(#482,#483)) ;
#510=EDGE_LOOP('',(#511,#512,#513,#514)) ;
#534=EDGE_LOOP('',(#535,#536,#537,#538)) ;
#546=EDGE_LOOP('',(#547,#548,#549,#550)) ;
#591=EDGE_LOOP('',(#592,#593,#594)) ;
#630=EDGE_LOOP('',(#631,#632,#633)) ;
#651=EDGE_LOOP('',(#652,#653,#654)) ;
#688=EDGE_LOOP('',(#689,#690,#691,#692)) ;
#728=EDGE_LOOP('',(#729,#730,#731)) ;
#767=EDGE_LOOP('',(#768,#769,#770)) ;
#788=EDGE_LOOP('',(#789,#790,#791)) ;
#825=EDGE_LOOP('',(#826,#827,#828,#829)) ;
#856=EDGE_LOOP('',(#857,#858,#859,#860,#861)) ;
#874=EDGE_LOOP('',(#875,#876,#877,#878)) ;
#930=EDGE_LOOP('',(#931,#932,#933,#934,#935,#936)) ;
#981=EDGE_LOOP('',(#982,#983,#984,#985,#986,#987)) ;
#1045=EDGE_LOOP('',(#1046,#1047,#1048,#1049,#1050,#1051,#1052,#1053)) ;
#1098=EDGE_LOOP('',(#1099,#1100,#1101,#1102,#1103,#1104)) ;
#1149=EDGE_LOOP('',(#1150,#1151,#1152,#1153,#1154,#1155)) ;
#1206=EDGE_LOOP('',(#1207,#1208,#1209,#1210,#1211,#1212,#1213,#1214)) ;
#1222=EDGE_LOOP('',(#1223,#1224)) ;
#1240=EDGE_LOOP('',(#1241,#1242)) ;
#1255=EDGE_LOOP('',(#1256,#1257,#1258)) ;
#1273=EDGE_LOOP('',(#1274,#1275,#1276,#1277)) ;
#1285=EDGE_LOOP('',(#1286,#1287,#1288)) ;
#1303=EDGE_LOOP('',(#1304,#1305,#1306)) ;
#1314=EDGE_LOOP('',(#1315,#1316,#1317,#1318)) ;
#1326=EDGE_LOOP('',(#1327,#1328,#1329)) ;
#1337=EDGE_LOOP('',(#1338,#1339,#1340)) ;
#1350=EDGE_LOOP('',(#1351,#1352,#1353)) ;
#1380=EDGE_LOOP('',(#1381,#1382,#1383,#1384)) ;
#1392=EDGE_LOOP('',(#1393,#1394,#1395,#1396)) ;
#1404=EDGE_LOOP('',(#1405,#1406,#1407,#1408,#1409,#1410,#1411,#1412)) ;
#1446=EDGE_LOOP('',(#1447,#1448)) ;
#1466=EDGE_LOOP('',(#1467,#1468,#1469,#1470)) ;
#1478=EDGE_LOOP('',(#1479,#1480,#1481,#1482)) ;
#21=MANIFOLD_SOLID_BREP('Body.2',#30) ;
#41=VERTEX_POINT('',#40) ;
#43=VERTEX_POINT('',#42) ;
#50=VERTEX_POINT('',#49) ;
#57=VERTEX_POINT('',#56) ;
#81=VERTEX_POINT('',#80) ;
#83=VERTEX_POINT('',#82) ;
#90=VERTEX_POINT('',#89) ;
#157=VERTEX_POINT('',#156) ;
#159=VERTEX_POINT('',#158) ;
#166=VERTEX_POINT('',#165) ;
#196=VERTEX_POINT('',#195) ;
#203=VERTEX_POINT('',#202) ;
#227=VERTEX_POINT('',#226) ;
#258=VERTEX_POINT('',#257) ;
#283=VERTEX_POINT('',#282) ;
#296=VERTEX_POINT('',#295) ;
#340=VERTEX_POINT('',#339) ;
#347=VERTEX_POINT('',#346) ;
#384=VERTEX_POINT('',#383) ;
#386=VERTEX_POINT('',#385) ;
#393=VERTEX_POINT('',#392) ;
#420=VERTEX_POINT('',#419) ;
#422=VERTEX_POINT('',#421) ;
#429=VERTEX_POINT('',#428) ;
#436=VERTEX_POINT('',#435) ;
#443=VERTEX_POINT('',#442) ;
#450=VERTEX_POINT('',#449) ;
#457=VERTEX_POINT('',#456) ;
#464=VERTEX_POINT('',#463) ;
#496=VERTEX_POINT('',#495) ;
#503=VERTEX_POINT('',#502) ;
#527=VERTEX_POINT('',#526) ;
#566=VERTEX_POINT('',#565) ;
#605=VERTEX_POINT('',#604) ;
#641=VERTEX_POINT('',#640) ;
#663=VERTEX_POINT('',#662) ;
#703=VERTEX_POINT('',#702) ;
#742=VERTEX_POINT('',#741) ;
#778=VERTEX_POINT('',#777) ;
#800=VERTEX_POINT('',#799) ;
#842=VERTEX_POINT('',#841) ;
#849=VERTEX_POINT('',#848) ;
#900=VERTEX_POINT('',#899) ;
#902=VERTEX_POINT('',#901) ;
#914=VERTEX_POINT('',#913) ;
#958=VERTEX_POINT('',#957) ;
#960=VERTEX_POINT('',#959) ;
#1009=VERTEX_POINT('',#1008) ;
#1011=VERTEX_POINT('',#1010) ;
#1024=VERTEX_POINT('',#1023) ;
#1075=VERTEX_POINT('',#1074) ;
#1077=VERTEX_POINT('',#1076) ;
#1126=VERTEX_POINT('',#1125) ;
#1128=VERTEX_POINT('',#1127) ;
#1177=VERTEX_POINT('',#1176) ;
#1179=VERTEX_POINT('',#1178) ;
#1231=VERTEX_POINT('',#1230) ;
#1233=VERTEX_POINT('',#1232) ;
#1266=VERTEX_POINT('',#1265) ;
#1296=VERTEX_POINT('',#1295) ;
#1366=VERTEX_POINT('',#1365) ;
#1373=VERTEX_POINT('',#1372) ;
#1437=VERTEX_POINT('',#1436) ;
#1439=VERTEX_POINT('',#1438) ;
#70=ADVANCED_FACE('Body.2',(#69),#35,.F.) ;
#129=ADVANCED_FACE('Body.2',(#101,#128),#75,.T.) ;
#146=ADVANCED_FACE('Body.2',(#145),#134,.F.) ;
#185=ADVANCED_FACE('Body.2',(#184),#151,.F.) ;
#216=ADVANCED_FACE('Body.2',(#215),#190,.T.) ;
#240=ADVANCED_FACE('Body.2',(#239),#221,.T.) ;
#252=ADVANCED_FACE('Body.2',(#251),#221,.T.) ;
#272=ADVANCED_FACE('Body.2',(#271),#151,.F.) ;
#310=ADVANCED_FACE('Body.2',(#309),#277,.F.) ;
#329=ADVANCED_FACE('Body.2',(#328),#277,.F.) ;
#361=ADVANCED_FACE('Body.2',(#360),#334,.T.) ;
#373=ADVANCED_FACE('Body.2',(#372),#334,.T.) ;
#409=ADVANCED_FACE('Body.2',(#404,#408),#378,.F.) ;
#485=ADVANCED_FACE('Body.2',(#480,#484),#414,.T.) ;
#516=ADVANCED_FACE('Body.2',(#515),#490,.T.) ;
#540=ADVANCED_FACE('Body.2',(#539),#521,.T.) ;
#552=ADVANCED_FACE('Body.2',(#551),#490,.T.) ;
#596=ADVANCED_FACE('Body.2',(#595),#557,.T.) ;
#635=ADVANCED_FACE('Body.2',(#634),#557,.T.) ;
#656=ADVANCED_FACE('Body.2',(#655),#557,.T.) ;
#694=ADVANCED_FACE('Body.2',(#693),#557,.T.) ;
#733=ADVANCED_FACE('Body.2',(#732),#557,.T.) ;
#772=ADVANCED_FACE('Body.2',(#771),#557,.T.) ;
#793=ADVANCED_FACE('Body.2',(#792),#557,.T.) ;
#831=ADVANCED_FACE('Body.2',(#830),#557,.T.) ;
#863=ADVANCED_FACE('Body.2',(#862),#836,.T.) ;
#880=ADVANCED_FACE('Body.2',(#879),#868,.T.) ;
#938=ADVANCED_FACE('Body.2',(#937),#885,.F.) ;
#989=ADVANCED_FACE('Body.2',(#988),#943,.F.) ;
#1055=ADVANCED_FACE('Body.2',(#1054),#994,.F.) ;
#1106=ADVANCED_FACE('Body.2',(#1105),#1060,.F.) ;
#1157=ADVANCED_FACE('Body.2',(#1156),#1111,.F.) ;
#1216=ADVANCED_FACE('Body.2',(#1215),#1162,.F.) ;
#1244=ADVANCED_FACE('Body.2',(#1225,#1243),#1221,.T.) ;
#1260=ADVANCED_FACE('Body.2',(#1259),#1249,.T.) ;
#1279=ADVANCED_FACE('Body.2',(#1278),#1249,.T.) ;
#1290=ADVANCED_FACE('Body.2',(#1289),#1249,.T.) ;
#1308=ADVANCED_FACE('Body.2',(#1307),#1249,.T.) ;
#1320=ADVANCED_FACE('Body.2',(#1319),#1249,.T.) ;
#1331=ADVANCED_FACE('Body.2',(#1330),#1249,.T.) ;
#1342=ADVANCED_FACE('Body.2',(#1341),#1249,.T.) ;
#1355=ADVANCED_FACE('Body.2',(#1354),#1249,.T.) ;
#1386=ADVANCED_FACE('Body.2',(#1385),#1360,.T.) ;
#1398=ADVANCED_FACE('Body.2',(#1397),#1360,.T.) ;
#1450=ADVANCED_FACE('Body.2',(#1413,#1449),#1403,.F.) ;
#1472=ADVANCED_FACE('Body.2',(#1471),#1455,.F.) ;
#1484=ADVANCED_FACE('Body.2',(#1483),#1477,.F.) ;
#4=APPLICATION_PROTOCOL_DEFINITION('international standard','ap242_managed_model_based_3d_engineering',2014,#1) ;
#102=B_SPLINE_CURVE_WITH_KNOTS('',5,(#103,#104,#105,#106,#107,#108,#109,#110,#111,#112,#113,#114,#115,#116,#117,#118,#119,#120,#121,#122,#123),.UNSPECIFIED.,.F.,.U.,(6,3,3,3,3,3,6),(0.,2.40703707199,4.81407404346,7.22111097436,9.62814802991,12.0351852865,13.3686841864),.UNSPECIFIED.) ;
#285=B_SPLINE_CURVE_WITH_KNOTS('',5,(#286,#287,#288,#289,#290,#291,#292,#293,#294),.UNSPECIFIED.,.F.,.U.,(6,3,6),(-1.96349540849,0.,1.96349540849),.UNSPECIFIED.) ;
#311=B_SPLINE_CURVE_WITH_KNOTS('',5,(#312,#313,#314,#315,#316,#317,#318,#319,#320),.UNSPECIFIED.,.F.,.U.,(6,3,6),(-1.96349540826,0.,1.96349540826),.UNSPECIFIED.) ;
#558=B_SPLINE_CURVE_WITH_KNOTS('',5,(#559,#560,#561,#562,#563,#564),.UNSPECIFIED.,.F.,.U.,(6,6),(0.,52.6680002463),.UNSPECIFIED.) ;
#568=B_SPLINE_CURVE_WITH_KNOTS('',5,(#569,#570,#571,#572,#573,#574,#575,#576,#577,#578,#579,#580,#581,#582,#583,#584,#585,#586,#587,#588,#589),.UNSPECIFIED.,.F.,.U.,(6,3,3,3,3,3,6),(0.,1.93257643828,3.86515287656,7.73030575312,15.4606115062,30.9212230125,52.6692732986),.UNSPECIFIED.) ;
#597=B_SPLINE_CURVE_WITH_KNOTS('',5,(#598,#599,#600,#601,#602,#603),.UNSPECIFIED.,.F.,.U.,(6,6),(0.,52.6680017518),.UNSPECIFIED.) ;
#607=B_SPLINE_CURVE_WITH_KNOTS('',5,(#608,#609,#610,#611,#612,#613,#614,#615,#616,#617,#618,#619,#620,#621,#622,#623,#624,#625,#626,#627,#628),.UNSPECIFIED.,.F.,.U.,(6,3,3,3,3,3,6),(0.,1.93257643819,3.86515287637,7.73030575274,15.4606115055,30.921223011,52.6692733065),.UNSPECIFIED.) ;
#643=B_SPLINE_CURVE_WITH_KNOTS('',5,(#644,#645,#646,#647,#648,#649),.UNSPECIFIED.,.F.,.U.,(6,6),(0.,50.28438653),.UNSPECIFIED.) ;
#657=B_SPLINE_CURVE_WITH_KNOTS('',3,(#658,#659,#660,#661),.UNSPECIFIED.,.F.,.U.,(4,4),(0.,2.38292277478),.UNSPECIFIED.) ;
#665=B_SPLINE_CURVE_WITH_KNOTS('',5,(#666,#667,#668,#669,#670,#671,#672,#673,#674,#675,#676,#677,#678,#679,#680,#681,#682,#683,#684,#685,#686),.UNSPECIFIED.,.F.,.U.,(6,3,3,3,3,3,6),(0.,1.93257643812,3.86515287624,7.73030575248,15.460611505,30.9212230099,52.6692732909),.UNSPECIFIED.) ;
#695=B_SPLINE_CURVE_WITH_KNOTS('',5,(#696,#697,#698,#699,#700,#701),.UNSPECIFIED.,.F.,.U.,(6,6),(0.,52.6680017536),.UNSPECIFIED.) ;
#705=B_SPLINE_CURVE_WITH_KNOTS('',5,(#706,#707,#708,#709,#710,#711,#712,#713,#714,#715,#716,#717,#718,#719,#720,#721,#722,#723,#724,#725,#726),.UNSPECIFIED.,.F.,.U.,(6,3,3,3,3,3,6),(0.,1.93257643818,3.86515287636,7.73030575271,15.4606115054,30.9212230108,52.6692732765),.UNSPECIFIED.) ;
#734=B_SPLINE_CURVE_WITH_KNOTS('',5,(#735,#736,#737,#738,#739,#740),.UNSPECIFIED.,.F.,.U.,(6,6),(0.,52.6680017699),.UNSPECIFIED.) ;
#744=B_SPLINE_CURVE_WITH_KNOTS('',5,(#745,#746,#747,#748,#749,#750,#751,#752,#753,#754,#755,#756,#757,#758,#759,#760,#761,#762,#763,#764,#765),.UNSPECIFIED.,.F.,.U.,(6,3,3,3,3,3,6),(0.,1.9325764382,3.86515287641,7.73030575281,15.4606115056,30.9212230113,52.6692733134),.UNSPECIFIED.) ;
#780=B_SPLINE_CURVE_WITH_KNOTS('',5,(#781,#782,#783,#784,#785,#786),.UNSPECIFIED.,.F.,.U.,(6,6),(0.,50.2843865246),.UNSPECIFIED.) ;
#794=B_SPLINE_CURVE_WITH_KNOTS('',3,(#795,#796,#797,#798),.UNSPECIFIED.,.F.,.U.,(4,4),(0.,2.38292277478),.UNSPECIFIED.) ;
#802=B_SPLINE_CURVE_WITH_KNOTS('',5,(#803,#804,#805,#806,#807,#808,#809,#810,#811,#812,#813,#814,#815,#816,#817,#818,#819,#820,#821,#822,#823),.UNSPECIFIED.,.F.,.U.,(6,3,3,3,3,3,6),(0.,1.93257643814,3.86515287628,7.73030575257,15.4606115051,30.9212230103,52.6692747951),.UNSPECIFIED.) ;
#886=B_SPLINE_CURVE_WITH_KNOTS('',5,(#887,#888,#889,#890,#891,#892,#893,#894,#895,#896,#897,#898),.UNSPECIFIED.,.F.,.U.,(6,3,3,6),(0.,0.00896157476069,30.9212230109,52.6692723141),.UNSPECIFIED.) ;
#916=B_SPLINE_CURVE_WITH_KNOTS('',5,(#917,#918,#919,#920,#921,#922,#923,#924,#925,#926,#927,#928),.UNSPECIFIED.,.F.,.U.,(6,3,3,6),(0.,0.0184227861078,30.9240390716,52.6680027272),.UNSPECIFIED.) ;
#944=B_SPLINE_CURVE_WITH_KNOTS('',5,(#945,#946,#947,#948,#949,#950,#951,#952,#953,#954,#955,#956),.UNSPECIFIED.,.F.,.U.,(6,3,3,6),(0.,0.00896157476068,30.9212230103,52.6692732276),.UNSPECIFIED.) ;
#967=B_SPLINE_CURVE_WITH_KNOTS('',5,(#968,#969,#970,#971,#972,#973,#974,#975,#976,#977,#978,#979),.UNSPECIFIED.,.F.,.U.,(6,3,3,6),(0.,0.0184227861078,30.9240390747,52.668001818),.UNSPECIFIED.) ;
#995=B_SPLINE_CURVE_WITH_KNOTS('',5,(#996,#997,#998,#999,#1000,#1001,#1002,#1003,#1004,#1005,#1006,#1007),.UNSPECIFIED.,.F.,.U.,(6,3,3,6),(0.,0.00898638769449,30.9213248729,50.2860825314),.UNSPECIFIED.) ;
#1013=B_SPLINE_CURVE_WITH_KNOTS('',5,(#1014,#1015,#1016,#1017,#1018,#1019,#1020,#1021,#1022),.UNSPECIFIED.,.F.,.U.,(6,3,6),(0.,0.00898493875817,2.38292277479),.UNSPECIFIED.) ;
#1031=B_SPLINE_CURVE_WITH_KNOTS('',5,(#1032,#1033,#1034,#1035,#1036,#1037,#1038,#1039,#1040,#1041,#1042,#1043),.UNSPECIFIED.,.F.,.U.,(6,3,3,6),(0.,0.0184227861077,30.9240390724,52.6680008386),.UNSPECIFIED.) ;
#1061=B_SPLINE_CURVE_WITH_KNOTS('',5,(#1062,#1063,#1064,#1065,#1066,#1067,#1068,#1069,#1070,#1071,#1072,#1073),.UNSPECIFIED.,.F.,.U.,(6,3,3,6),(0.,0.00896157476069,30.9212230134,52.6692734178),.UNSPECIFIED.) ;
#1084=B_SPLINE_CURVE_WITH_KNOTS('',5,(#1085,#1086,#1087,#1088,#1089,#1090,#1091,#1092,#1093,#1094,#1095,#1096),.UNSPECIFIED.,.F.,.U.,(6,3,3,6),(0.,0.0184227861078,30.9240390753,52.6680016302),.UNSPECIFIED.) ;
#1112=B_SPLINE_CURVE_WITH_KNOTS('',5,(#1113,#1114,#1115,#1116,#1117,#1118,#1119,#1120,#1121,#1122,#1123,#1124),.UNSPECIFIED.,.F.,.U.,(6,3,3,6),(0.,0.00896157476065,30.9212230119,52.6692749122),.UNSPECIFIED.) ;
#1135=B_SPLINE_CURVE_WITH_KNOTS('',5,(#1136,#1137,#1138,#1139,#1140,#1141,#1142,#1143,#1144,#1145,#1146,#1147),.UNSPECIFIED.,.F.,.U.,(6,3,3,6),(0.,0.0184227861077,30.9240390731,52.6680001329),.UNSPECIFIED.) ;
#1163=B_SPLINE_CURVE_WITH_KNOTS('',5,(#1164,#1165,#1166,#1167,#1168,#1169,#1170,#1171,#1172,#1173,#1174,#1175),.UNSPECIFIED.,.F.,.U.,(6,3,3,6),(0.,0.00898638769443,30.9213248731,50.2860825316),.UNSPECIFIED.) ;
#1181=B_SPLINE_CURVE_WITH_KNOTS('',5,(#1182,#1183,#1184,#1185,#1186,#1187,#1188,#1189,#1190),.UNSPECIFIED.,.F.,.U.,(6,3,6),(0.,0.00898493875817,2.38292277479),.UNSPECIFIED.) ;
#1192=B_SPLINE_CURVE_WITH_KNOTS('',5,(#1193,#1194,#1195,#1196,#1197,#1198,#1199,#1200,#1201,#1202,#1203,#1204),.UNSPECIFIED.,.F.,.U.,(6,3,3,6),(0.,0.0184227861078,30.9240390704,52.6680008353),.UNSPECIFIED.) ;
#1343=B_SPLINE_CURVE_WITH_KNOTS('',4,(#1344,#1345,#1346,#1347,#1348),.UNSPECIFIED.,.F.,.U.,(5,5),(-25.0000004546,25.0000004546),.UNSPECIFIED.) ;
#1414=B_SPLINE_CURVE_WITH_KNOTS('',5,(#1415,#1416,#1417,#1418,#1419,#1420,#1421,#1422,#1423,#1424,#1425,#1426,#1427,#1428,#1429,#1430,#1431,#1432,#1433,#1434,#1435),.UNSPECIFIED.,.F.,.U.,(6,3,3,3,3,3,6),(0.,2.40703695477,4.81407438088,7.22111290404,9.62815058639,12.0351939451,13.3686897024),.UNSPECIFIED.) ;
#22=COLOUR_RGB('Colour',0.882352941176,0.882352941176,0.882352941176) ;
#69=FACE_OUTER_BOUND('',#64,.T.) ;
#101=FACE_OUTER_BOUND('',#97,.T.) ;
#145=FACE_OUTER_BOUND('',#140,.T.) ;
#184=FACE_OUTER_BOUND('',#178,.T.) ;
#215=FACE_OUTER_BOUND('',#210,.T.) ;
#239=FACE_OUTER_BOUND('',#234,.T.) ;
#251=FACE_OUTER_BOUND('',#246,.T.) ;
#271=FACE_OUTER_BOUND('',#265,.T.) ;
#309=FACE_OUTER_BOUND('',#303,.T.) ;
#328=FACE_OUTER_BOUND('',#322,.T.) ;
#360=FACE_OUTER_BOUND('',#354,.T.) ;
#372=FACE_OUTER_BOUND('',#367,.T.) ;
#404=FACE_OUTER_BOUND('',#400,.T.) ;
#480=FACE_OUTER_BOUND('',#471,.T.) ;
#515=FACE_OUTER_BOUND('',#510,.T.) ;
#539=FACE_OUTER_BOUND('',#534,.T.) ;
#551=FACE_OUTER_BOUND('',#546,.T.) ;
#595=FACE_OUTER_BOUND('',#591,.T.) ;
#634=FACE_OUTER_BOUND('',#630,.T.) ;
#655=FACE_OUTER_BOUND('',#651,.T.) ;
#693=FACE_OUTER_BOUND('',#688,.T.) ;
#732=FACE_OUTER_BOUND('',#728,.T.) ;
#771=FACE_OUTER_BOUND('',#767,.T.) ;
#792=FACE_OUTER_BOUND('',#788,.T.) ;
#830=FACE_OUTER_BOUND('',#825,.T.) ;
#862=FACE_OUTER_BOUND('',#856,.T.) ;
#879=FACE_OUTER_BOUND('',#874,.T.) ;
#937=FACE_OUTER_BOUND('',#930,.T.) ;
#988=FACE_OUTER_BOUND('',#981,.T.) ;
#1054=FACE_OUTER_BOUND('',#1045,.T.) ;
#1105=FACE_OUTER_BOUND('',#1098,.T.) ;
#1156=FACE_OUTER_BOUND('',#1149,.T.) ;
#1215=FACE_OUTER_BOUND('',#1206,.T.) ;
#1225=FACE_OUTER_BOUND('',#1222,.T.) ;
#1259=FACE_OUTER_BOUND('',#1255,.T.) ;
#1278=FACE_OUTER_BOUND('',#1273,.T.) ;
#1289=FACE_OUTER_BOUND('',#1285,.T.) ;
#1307=FACE_OUTER_BOUND('',#1303,.T.) ;
#1319=FACE_OUTER_BOUND('',#1314,.T.) ;
#1330=FACE_OUTER_BOUND('',#1326,.T.) ;
#1341=FACE_OUTER_BOUND('',#1337,.T.) ;
#1354=FACE_OUTER_BOUND('',#1350,.T.) ;
#1385=FACE_OUTER_BOUND('',#1380,.T.) ;
#1397=FACE_OUTER_BOUND('',#1392,.T.) ;
#1413=FACE_OUTER_BOUND('',#1404,.T.) ;
#1471=FACE_OUTER_BOUND('',#1466,.T.) ;
#1483=FACE_OUTER_BOUND('',#1478,.T.) ;
#7=PRODUCT_CATEGORY_RELATIONSHIP(' ',' ',#5,#6) ;
#17=PRODUCT_DEFINITION_FORMATION_WITH_SPECIFIED_SOURCE('A.1',' ',#16,.NOT_KNOWN.) ;
#20=SHAPE_DEFINITION_REPRESENTATION(#19,#13) ;
#8=(LENGTH_UNIT()NAMED_UNIT(*)SI_UNIT(.MILLI.,.METRE.)) ;
#9=(NAMED_UNIT(*)PLANE_ANGLE_UNIT()SI_UNIT($,.RADIAN.)) ;
#10=(NAMED_UNIT(*)SI_UNIT($,.STERADIAN.)SOLID_ANGLE_UNIT()) ;
#12=(GEOMETRIC_REPRESENTATION_CONTEXT(3)GLOBAL_UNCERTAINTY_ASSIGNED_CONTEXT((#11))GLOBAL_UNIT_ASSIGNED_CONTEXT((#8,#9,#10))REPRESENTATION_CONTEXT(' ',' ')) ;
ENDSEC;
END-ISO-10303-21;
