ISO-10303-21;
HEADER;
FILE_DESCRIPTION(('3DEXPERIENCE STEP','CAx-IF Rec.Pracs.--- Model Styling and Organization---1.5--- 2016-08-15','CAx-IF Rec.Pracs.---Supplemental Geometry---1.0---2011-11-01','CAx-IF Rec.Pracs.--- Composite Materials ---3.4---2017-06-13','CAx-IF Rec.Pracs.---Tessellated 3D Geometry---1.0---2015-12-17'),'2;1');

FILE_NAME('\\\\?\\D:\\School\\CarTech\\CTU.25\\Tutorials\\Model\\OEM\\Nut_M6.stp','2024-09-26T02:50:15+00:00',('none'),('none'),'3DEXPERIENCE Platform3DEXPERIENCE R2024x HotFix 4.24','3DEXPERIENCE Platform STEP AP242 v3','none');

FILE_SCHEMA(('AP242_MANAGED_MODEL_BASED_3D_ENGINEERING_MIM_LF  {1 0 10303 442 1 1 4}'));

ENDSEC;
DATA;
#16=PRODUCT('Nut_ISO_7040-M6_1','Nut_ISO_7040-M6_1','',(#2)) ;
#2=PRODUCT_CONTEXT(' ',#1,'mechanical') ;
#1=APPLICATION_CONTEXT('managed model based 3d engineering') ;
#18=PRODUCT_DEFINITION('Nut_ISO_7040-M6_1',' ',#17,#3) ;
#3=PRODUCT_DEFINITION_CONTEXT('part definition',#1,' ') ;
#19=PRODUCT_DEFINITION_SHAPE(' ',' ',#18) ;
#919=MECHANICAL_DESIGN_GEOMETRIC_PRESENTATION_REPRESENTATION(' ',(#29),#12) ;
#5=PRODUCT_CATEGORY('part','specification') ;
#13=SHAPE_REPRESENTATION(' ',(#15,#21),#12) ;
#14=CARTESIAN_POINT('',(0.,0.,0.)) ;
#31=CARTESIAN_POINT('Axis2P3D Location',(0.,0.1,0.)) ;
#36=CARTESIAN_POINT('Line Origine',(-2.15753672841,0.0999999996275,1.17866768666)) ;
#40=CARTESIAN_POINT('Vertex',(-2.15753672841,4.90000000075,1.17866768666)) ;
#42=CARTESIAN_POINT('Vertex',(-2.15753672827,1.00000000009,1.17866768658)) ;
#46=CARTESIAN_POINT('Control Point',(2.15753672841,1.00000000037,-1.17866768666)) ;
#47=CARTESIAN_POINT('Control Point',(1.78724735386,1.00000000034,-1.85647784024)) ;
#48=CARTESIAN_POINT('Control Point',(1.15078255444,1.0000000003,-2.38887569648)) ;
#49=CARTESIAN_POINT('Control Point',(0.32236491785,1.00000000026,-2.63194005262)) ;
#50=CARTESIAN_POINT('Control Point',(-1.324079984,1.00000000019,-2.42371215328)) ;
#51=CARTESIAN_POINT('Control Point',(-2.38887569648,1.00000000011,-1.15078255444)) ;
#52=CARTESIAN_POINT('Control Point',(-2.63194005262,1.00000000007,-0.32236491785)) ;
#53=CARTESIAN_POINT('Control Point',(-2.52782610295,1.00000000004,0.500857533077)) ;
#54=CARTESIAN_POINT('Control Point',(-2.15753672841,1.,1.17866768666)) ;
#55=CARTESIAN_POINT('Vertex',(2.15753672841,1.00000000037,-1.17866768666)) ;
#58=CARTESIAN_POINT('Line Origine',(2.15753672841,0.0999999996275,-1.17866768666)) ;
#62=CARTESIAN_POINT('Vertex',(2.15753672841,4.90000000075,-1.17866768666)) ;
#66=CARTESIAN_POINT('Control Point',(2.15753672841,4.90000000075,-1.17866768666)) ;
#67=CARTESIAN_POINT('Control Point',(1.78724735386,4.90000000067,-1.85647784024)) ;
#68=CARTESIAN_POINT('Control Point',(1.15078255444,4.9000000006,-2.38887569648)) ;
#69=CARTESIAN_POINT('Control Point',(0.32236491785,4.90000000052,-2.63194005262)) ;
#70=CARTESIAN_POINT('Control Point',(-1.324079984,4.90000000037,-2.42371215328)) ;
#71=CARTESIAN_POINT('Control Point',(-2.38887569648,4.90000000022,-1.15078255444)) ;
#72=CARTESIAN_POINT('Control Point',(-2.63194005262,4.90000000015,-0.32236491785)) ;
#73=CARTESIAN_POINT('Control Point',(-2.52782610295,4.90000000007,0.500857533077)) ;
#74=CARTESIAN_POINT('Control Point',(-2.15753672841,4.9,1.17866768666)) ;
#84=CARTESIAN_POINT('Control Point',(-2.15753672841,1.00000000037,1.17866768666)) ;
#85=CARTESIAN_POINT('Control Point',(-1.78724735386,1.00000000041,1.85647784024)) ;
#86=CARTESIAN_POINT('Control Point',(-1.15078255444,1.00000000045,2.38887569648)) ;
#87=CARTESIAN_POINT('Control Point',(-0.32236491785,1.00000000048,2.63194005262)) ;
#88=CARTESIAN_POINT('Control Point',(1.324079984,1.00000000056,2.42371215328)) ;
#89=CARTESIAN_POINT('Control Point',(2.38887569648,1.00000000063,1.15078255444)) ;
#90=CARTESIAN_POINT('Control Point',(2.63194005262,1.00000000067,0.32236491785)) ;
#91=CARTESIAN_POINT('Control Point',(2.52782610295,1.0000000007,-0.500857533077)) ;
#92=CARTESIAN_POINT('Control Point',(2.15753672841,1.00000000074,-1.17866768666)) ;
#95=CARTESIAN_POINT('Control Point',(-2.15753672841,4.90000000075,1.17866768666)) ;
#96=CARTESIAN_POINT('Control Point',(-1.78724735386,4.90000000082,1.85647784024)) ;
#97=CARTESIAN_POINT('Control Point',(-1.15078255444,4.9000000009,2.38887569648)) ;
#98=CARTESIAN_POINT('Control Point',(-0.32236491785,4.90000000097,2.63194005262)) ;
#99=CARTESIAN_POINT('Control Point',(1.324079984,4.90000000112,2.42371215328)) ;
#100=CARTESIAN_POINT('Control Point',(2.38887569648,4.90000000127,1.15078255444)) ;
#101=CARTESIAN_POINT('Control Point',(2.63194005262,4.90000000135,0.32236491785)) ;
#102=CARTESIAN_POINT('Control Point',(2.52782610295,4.90000000142,-0.500857533077)) ;
#103=CARTESIAN_POINT('Control Point',(2.15753672841,4.9000000015,-1.17866768666)) ;
#112=CARTESIAN_POINT('Axis2P3D Location',(0.,1.,0.)) ;
#117=CARTESIAN_POINT('Axis2P3D Location',(0.,7.18070047867E-12,0.)) ;
#121=CARTESIAN_POINT('Vertex',(3.67755431338,4.51161330517E-11,-2.00905707794)) ;
#123=CARTESIAN_POINT('Vertex',(-3.67755431344,7.18070047867E-12,2.00905707797)) ;
#126=CARTESIAN_POINT('Line Origine',(3800045.04135,-2499998.29028,-2075974.06761)) ;
#131=CARTESIAN_POINT('Line Origine',(-3800045.04135,-2499998.29028,2075974.06761)) ;
#143=CARTESIAN_POINT('Axis2P3D Location',(0.,4.9,3.63)) ;
#148=CARTESIAN_POINT('Axis2P3D Location',(1.10909947892E-09,4.9,-4.94145169228E-10)) ;
#152=CARTESIAN_POINT('Vertex',(1.7403147053,4.9,3.18562469922)) ;
#154=CARTESIAN_POINT('Vertex',(-1.7403147053,4.9,-3.185624699)) ;
#157=CARTESIAN_POINT('Axis2P3D Location',(-1.10909947892E-09,4.9,7.17662373972E-10)) ;
#171=CARTESIAN_POINT('Axis2P3D Location',(0.,1.25932597683E-11,0.)) ;
#183=CARTESIAN_POINT('Axis2P3D Location',(0.,0.,5.)) ;
#188=CARTESIAN_POINT('Axis2P3D Location',(4.4408920985E-16,0.,0.)) ;
#192=CARTESIAN_POINT('Vertex',(2.39712769352,0.,4.38791280985)) ;
#194=CARTESIAN_POINT('Vertex',(-2.39712769352,0.,-4.38791280985)) ;
#197=CARTESIAN_POINT('Axis2P3D Location',(-4.4408920985E-16,0.,0.)) ;
#211=CARTESIAN_POINT('Axis2P3D Location',(0.,2.45,0.)) ;
#216=CARTESIAN_POINT('Line Origine',(1.74031470513,2.44999999925,3.18562469966)) ;
#220=CARTESIAN_POINT('Vertex',(1.74031470513,7.3799999997,3.18562469966)) ;
#223=CARTESIAN_POINT('Axis2P3D Location',(0.,7.3799999997,0.)) ;
#227=CARTESIAN_POINT('Vertex',(-1.74031470513,7.3799999997,-3.18562469966)) ;
#230=CARTESIAN_POINT('Line Origine',(-1.74031470513,2.44999999925,-3.18562469966)) ;
#242=CARTESIAN_POINT('Axis2P3D Location',(0.,7.3799999997,0.)) ;
#254=CARTESIAN_POINT('Axis2P3D Location',(0.,-8.881784197E-16,0.)) ;
#260=CARTESIAN_POINT('Control Point',(4.99949984996,0.207259421635,-2.88761745798)) ;
#261=CARTESIAN_POINT('Control Point',(4.95488135862,0.200358988169,-2.91337795597)) ;
#262=CARTESIAN_POINT('Control Point',(4.91013842922,0.193458554703,-2.93849194109)) ;
#263=CARTESIAN_POINT('Control Point',(4.86739983862,0.187172073935,-2.96388540341)) ;
#264=CARTESIAN_POINT('Control Point',(4.78119167594,0.174514914673,-3.01365757938)) ;
#265=CARTESIAN_POINT('Control Point',(4.69671397673,0.162557756079,-3.06243055719)) ;
#266=CARTESIAN_POINT('Control Point',(4.65488896441,0.156749190369,-3.0865780936)) ;
#267=CARTESIAN_POINT('Control Point',(4.53060164007,0.139819604019,-3.15833494465)) ;
#268=CARTESIAN_POINT('Control Point',(4.40972318865,0.124339417881,-3.22812368377)) ;
#269=CARTESIAN_POINT('Control Point',(4.330515491,0.114628865319,-3.27385405033)) ;
#270=CARTESIAN_POINT('Control Point',(4.09665281342,0.087237344791,-3.40887450209)) ;
#271=CARTESIAN_POINT('Control Point',(3.87305195448,0.0648388203081,-3.53797139511)) ;
#272=CARTESIAN_POINT('Control Point',(3.72764016744,0.0519234329626,-3.62192598492)) ;
#273=CARTESIAN_POINT('Control Point',(3.12453409571,0.00522602865692,-3.97012945104)) ;
#274=CARTESIAN_POINT('Control Point',(2.56354132044,-0.00938943173604,-4.29401873803)) ;
#275=CARTESIAN_POINT('Control Point',(2.14030491039,-0.00495921032145,-4.53837447128)) ;
#276=CARTESIAN_POINT('Control Point',(1.49631325124,0.0251464228382,-4.91018316205)) ;
#277=CARTESIAN_POINT('Control Point',(0.777798483022,0.0997995538615,-5.32501788904)) ;
#278=CARTESIAN_POINT('Control Point',(0.534463828291,0.129183284945,-5.46550723213)) ;
#279=CARTESIAN_POINT('Control Point',(0.277192165018,0.164545188903,-5.61404307108)) ;
#280=CARTESIAN_POINT('Control Point',(0.00100015003936,0.207259421635,-5.77350260528)) ;
#281=CARTESIAN_POINT('Vertex',(4.99949984996,0.207259421635,-2.88761745798)) ;
#283=CARTESIAN_POINT('Vertex',(-0.00100015004077,0.207259421634,-5.77350260527)) ;
#287=CARTESIAN_POINT('Control Point',(5.0005,0.207259421634,2.88588514729)) ;
#288=CARTESIAN_POINT('Control Point',(5.0005,0.200358988168,2.83436415132)) ;
#289=CARTESIAN_POINT('Control Point',(4.9998778844,0.193458554702,2.78305864525)) ;
#290=CARTESIAN_POINT('Control Point',(5.00049997257,0.187172073934,2.73334920891)) ;
#291=CARTESIAN_POINT('Control Point',(5.00049986002,0.174514914671,2.63380466203)) ;
#292=CARTESIAN_POINT('Control Point',(5.00049964821,0.162557756078,2.53625833956)) ;
#293=CARTESIAN_POINT('Control Point',(5.00049952202,0.156749190367,2.48796304816)) ;
#294=CARTESIAN_POINT('Control Point',(5.00049911576,0.139819604017,2.3444486424)) ;
#295=CARTESIAN_POINT('Control Point',(5.00049871102,0.124339417879,2.20487046314)) ;
#296=CARTESIAN_POINT('Control Point',(5.00049852136,0.114628865318,2.11340940151)) ;
#297=CARTESIAN_POINT('Control Point',(5.00049832383,0.0872373447901,1.84336815587)) ;
#298=CARTESIAN_POINT('Control Point',(5.00049908327,0.0648388203078,1.58517568521)) ;
#299=CARTESIAN_POINT('Control Point',(5.00049999729,0.0519234329624,1.41726808871)) ;
#300=CARTESIAN_POINT('Control Point',(5.00050000876,0.00522602865384,0.720861176337)) ;
#301=CARTESIAN_POINT('Control Point',(5.00049997168,-0.00938943173498,0.0730825381115)) ;
#302=CARTESIAN_POINT('Control Point',(5.00050003921,-0.0049592103228,-0.415628811359)) ;
#303=CARTESIAN_POINT('Control Point',(5.00049998119,0.0251464228356,-1.15924629343)) ;
#304=CARTESIAN_POINT('Control Point',(5.00050000903,0.0997995538649,-1.98891569924)) ;
#305=CARTESIAN_POINT('Control Point',(5.00050002175,0.12918328494,-2.26989436331)) ;
#306=CARTESIAN_POINT('Control Point',(5.0005,0.164545188898,-2.56696607887)) ;
#307=CARTESIAN_POINT('Control Point',(5.0005,0.207259421634,-2.88588514729)) ;
#308=CARTESIAN_POINT('Vertex',(5.0005,0.207259421634,2.88588514729)) ;
#312=CARTESIAN_POINT('Control Point',(2.39803511033,0.000507152237142,4.38957382569)) ;
#313=CARTESIAN_POINT('Control Point',(2.99167890859,-0.0038269276861,4.04683341896)) ;
#314=CARTESIAN_POINT('Control Point',(3.58149705798,0.0260954501227,3.70630122165)) ;
#315=CARTESIAN_POINT('Control Point',(4.21082283379,0.0852872725767,3.34296034557)) ;
#316=CARTESIAN_POINT('Control Point',(4.99949984996,0.207259421633,2.88761745798)) ;
#317=CARTESIAN_POINT('Vertex',(2.39803511033,0.000507152237142,4.38957382569)) ;
#320=CARTESIAN_POINT('Line Origine',(2315448.74617,1294094.55562,4238400.50012)) ;
#325=CARTESIAN_POINT('Line Origine',(-2315448.74617,1294094.55562,-4238400.50012)) ;
#329=CARTESIAN_POINT('Vertex',(-2.39803511038,0.000507152266699,-4.38957382579)) ;
#333=CARTESIAN_POINT('Control Point',(-2.39803511033,0.000507152237155,-4.38957382569)) ;
#334=CARTESIAN_POINT('Control Point',(-1.85561155656,0.00446728294454,-4.70274221047)) ;
#335=CARTESIAN_POINT('Control Point',(-1.30880491583,0.0369044982909,-5.01844141426)) ;
#336=CARTESIAN_POINT('Control Point',(-0.721629239642,0.0958111647057,-5.3574472064)) ;
#337=CARTESIAN_POINT('Control Point',(-0.00100015004078,0.207259421634,-5.77350260527)) ;
#350=CARTESIAN_POINT('Control Point',(-0.00100015003937,0.207259421635,5.77350260528)) ;
#351=CARTESIAN_POINT('Control Point',(-0.0456186413805,0.200358988169,5.74774210729)) ;
#352=CARTESIAN_POINT('Control Point',(-0.0897394551905,0.193458554703,5.72155058634)) ;
#353=CARTESIAN_POINT('Control Point',(-0.133100133956,0.187172073935,5.69723461232)) ;
#354=CARTESIAN_POINT('Control Point',(-0.219308184092,0.174514914672,5.64746224142)) ;
#355=CARTESIAN_POINT('Control Point',(-0.303785671496,0.162557756078,5.59868889674)) ;
#356=CARTESIAN_POINT('Control Point',(-0.345610557629,0.156749190367,5.57454114176)) ;
#357=CARTESIAN_POINT('Control Point',(-0.469897475705,0.139819604018,5.50278358705)) ;
#358=CARTESIAN_POINT('Control Point',(-0.590775522387,0.12433941788,5.43299414691)) ;
#359=CARTESIAN_POINT('Control Point',(-0.669983030375,0.114628865319,5.38726345185)) ;
#360=CARTESIAN_POINT('Control Point',(-0.9038455104,0.0872373447919,5.25224265796)) ;
#361=CARTESIAN_POINT('Control Point',(-1.12744712877,0.0648388203103,5.12314708032)) ;
#362=CARTESIAN_POINT('Control Point',(-1.27285982983,0.0519234329649,5.03919407365)) ;
#363=CARTESIAN_POINT('Control Point',(-1.87596591307,0.00522602865393,4.69099062738)) ;
#364=CARTESIAN_POINT('Control Point',(-2.43695865128,-0.00938943173213,4.36710127616)) ;
#365=CARTESIAN_POINT('Control Point',(-2.86019512877,-0.00495921032362,4.12274565991)) ;
#366=CARTESIAN_POINT('Control Point',(-3.50418672994,0.025146422836,3.75093686862)) ;
#367=CARTESIAN_POINT('Control Point',(-4.22270152604,0.0997995538644,3.33610218983)) ;
#368=CARTESIAN_POINT('Control Point',(-4.46603619341,0.129183284941,3.1956128688)) ;
#369=CARTESIAN_POINT('Control Point',(-4.72330783496,0.1645451889,3.04707699219)) ;
#370=CARTESIAN_POINT('Control Point',(-4.99949984996,0.207259421635,2.88761745798)) ;
#371=CARTESIAN_POINT('Vertex',(0.00100015004078,0.207259421634,5.77350260527)) ;
#373=CARTESIAN_POINT('Vertex',(-4.99949984996,0.207259421635,2.88761745798)) ;
#377=CARTESIAN_POINT('Control Point',(-5.0005,0.207259421634,2.88588514729)) ;
#378=CARTESIAN_POINT('Control Point',(-5.0005,0.200358988168,2.83436415132)) ;
#379=CARTESIAN_POINT('Control Point',(-4.9998778844,0.193458554702,2.78305864526)) ;
#380=CARTESIAN_POINT('Control Point',(-5.00049997256,0.187172073935,2.73334920892)) ;
#381=CARTESIAN_POINT('Control Point',(-5.00049986002,0.174514914672,2.63380466204)) ;
#382=CARTESIAN_POINT('Control Point',(-5.00049964821,0.162557756079,2.53625833957)) ;
#383=CARTESIAN_POINT('Control Point',(-5.00049952202,0.156749190368,2.48796304818)) ;
#384=CARTESIAN_POINT('Control Point',(-5.00049911576,0.139819604018,2.34444864241)) ;
#385=CARTESIAN_POINT('Control Point',(-5.00049871102,0.12433941788,2.20487046314)) ;
#386=CARTESIAN_POINT('Control Point',(-5.00049852136,0.114628865318,2.11340940152)) ;
#387=CARTESIAN_POINT('Control Point',(-5.00049832383,0.0872373447894,1.84336815586)) ;
#388=CARTESIAN_POINT('Control Point',(-5.00049908327,0.0648388203068,1.5851756852)) ;
#389=CARTESIAN_POINT('Control Point',(-5.00049999729,0.0519234329616,1.4172680887)) ;
#390=CARTESIAN_POINT('Control Point',(-5.00050000876,0.00522602865087,0.720861176287)) ;
#391=CARTESIAN_POINT('Control Point',(-5.00049997168,-0.00938943173746,0.0730825380273)) ;
#392=CARTESIAN_POINT('Control Point',(-5.00050003925,-0.00495921031733,-0.415628811281)) ;
#393=CARTESIAN_POINT('Control Point',(-5.00049998117,0.0251464228276,-1.1592462934)) ;
#394=CARTESIAN_POINT('Control Point',(-5.00050000903,0.0997995538704,-1.98891569929)) ;
#395=CARTESIAN_POINT('Control Point',(-5.00050002175,0.129183284935,-2.26989436327)) ;
#396=CARTESIAN_POINT('Control Point',(-5.0005,0.164545188895,-2.56696607885)) ;
#397=CARTESIAN_POINT('Control Point',(-5.0005,0.207259421634,-2.88588514729)) ;
#398=CARTESIAN_POINT('Vertex',(-5.0005,0.207259421634,-2.88588514729)) ;
#402=CARTESIAN_POINT('Control Point',(-2.39803511033,0.000507152237142,-4.38957382569)) ;
#403=CARTESIAN_POINT('Control Point',(-2.99167890861,-0.00382692768764,-4.04683341894)) ;
#404=CARTESIAN_POINT('Control Point',(-3.5814970577,0.0260954501045,-3.70630122182)) ;
#405=CARTESIAN_POINT('Control Point',(-4.21082283376,0.0852872725724,-3.34296034558)) ;
#406=CARTESIAN_POINT('Control Point',(-4.99949984996,0.207259421633,-2.88761745798)) ;
#409=CARTESIAN_POINT('Control Point',(2.39803511033,0.000507152237155,4.38957382569)) ;
#410=CARTESIAN_POINT('Control Point',(1.85561155659,0.00446728294596,4.70274221046)) ;
#411=CARTESIAN_POINT('Control Point',(1.30880491571,0.0369044982959,5.01844141433)) ;
#412=CARTESIAN_POINT('Control Point',(0.721629239603,0.0958111647117,5.35744720642)) ;
#413=CARTESIAN_POINT('Control Point',(0.00100015004079,0.207259421634,5.77350260527)) ;
#425=CARTESIAN_POINT('Axis2P3D Location',(0.,7.38,3.)) ;
#434=CARTESIAN_POINT('Axis2P3D Location',(-4.4408920985E-16,7.38,0.)) ;
#438=CARTESIAN_POINT('Vertex',(-1.43827661499,7.38,-2.63274768554)) ;
#440=CARTESIAN_POINT('Vertex',(1.43827661499,7.38,2.63274768554)) ;
#443=CARTESIAN_POINT('Axis2P3D Location',(4.4408920985E-16,7.38,0.)) ;
#453=CARTESIAN_POINT('Axis2P3D Location',(-3.5527136788E-15,0.,-5.77408004217)) ;
#458=CARTESIAN_POINT('Line Origine',(0.000250037451645,2.45000000019,-5.77393568298)) ;
#462=CARTESIAN_POINT('Vertex',(0.00100014980646,4.69274057833,-5.77350260541)) ;
#466=CARTESIAN_POINT('Control Point',(0.00100014980646,4.69274057833,-5.77350260541)) ;
#467=CARTESIAN_POINT('Control Point',(0.00422477434023,4.69323927979,-5.77164086757)) ;
#468=CARTESIAN_POINT('Control Point',(0.007449398874,4.69373798126,-5.76977912972)) ;
#469=CARTESIAN_POINT('Control Point',(0.00164888298111,4.69284089945,-5.77312805914)) ;
#470=CARTESIAN_POINT('Control Point',(0.357735913174,4.74789781998,-5.5675411164)) ;
#471=CARTESIAN_POINT('Control Point',(0.682383138391,4.79073506869,-5.38010595353)) ;
#472=CARTESIAN_POINT('Control Point',(0.985888463519,4.82425211783,-5.20487707237)) ;
#473=CARTESIAN_POINT('Control Point',(1.74359000933,4.89132520229,-4.76741788093)) ;
#474=CARTESIAN_POINT('Control Point',(2.43695869346,4.90938943173,-4.3671012845)) ;
#475=CARTESIAN_POINT('Control Point',(2.86019513819,4.90495921033,-4.1227456092)) ;
#476=CARTESIAN_POINT('Control Point',(3.50418672518,4.87485357718,-3.7509368931)) ;
#477=CARTESIAN_POINT('Control Point',(4.22270152808,4.80020044615,-3.33610217822)) ;
#478=CARTESIAN_POINT('Control Point',(4.46603619057,4.77081671508,-3.19561284533)) ;
#479=CARTESIAN_POINT('Control Point',(4.72330783485,4.73545481112,-3.04707699226)) ;
#480=CARTESIAN_POINT('Control Point',(4.99949984987,4.69274057838,-2.88761745803)) ;
#481=CARTESIAN_POINT('Vertex',(5.00100007458,4.6927405782,-2.88675130289)) ;
#484=CARTESIAN_POINT('Line Origine',(5.00024996223,2.45000000019,-2.88718438046)) ;
#496=CARTESIAN_POINT('Axis2P3D Location',(5.0005,0.,-2.88704002108)) ;
#502=CARTESIAN_POINT('Control Point',(5.0005,4.69274057833,-2.88588514756)) ;
#503=CARTESIAN_POINT('Control Point',(5.0005,4.6932392798,-2.88216167187)) ;
#504=CARTESIAN_POINT('Control Point',(5.0005,4.69373798126,-2.87843819619)) ;
#505=CARTESIAN_POINT('Control Point',(5.0005,4.69284089945,-2.88513605501)) ;
#506=CARTESIAN_POINT('Control Point',(5.0005,4.74789781998,-2.47396216956)) ;
#507=CARTESIAN_POINT('Control Point',(5.0005,4.79073506868,-2.09909184384)) ;
#508=CARTESIAN_POINT('Control Point',(5.0005,4.82425211784,-1.74863408145)) ;
#509=CARTESIAN_POINT('Control Point',(5.0005,4.89132520229,-0.8737156986)) ;
#510=CARTESIAN_POINT('Control Point',(5.0005,4.90938943173,-0.0730825057298)) ;
#511=CARTESIAN_POINT('Control Point',(5.0005,4.90495921033,0.415628844879)) ;
#512=CARTESIAN_POINT('Control Point',(5.0005,4.87485357718,1.15924627706)) ;
#513=CARTESIAN_POINT('Control Point',(5.0005,4.80020044615,1.98891570682)) ;
#514=CARTESIAN_POINT('Control Point',(5.0005,4.77081671508,2.26989437259)) ;
#515=CARTESIAN_POINT('Control Point',(5.0005,4.73545481112,2.56696607875)) ;
#516=CARTESIAN_POINT('Control Point',(5.0005,4.69274057838,2.8858851472)) ;
#517=CARTESIAN_POINT('Vertex',(5.0005,4.6927405782,2.88761745748)) ;
#520=CARTESIAN_POINT('Line Origine',(5.0005,2.45000000019,2.88675130234)) ;
#532=CARTESIAN_POINT('Axis2P3D Location',(5.0005,0.,2.88704002108)) ;
#538=CARTESIAN_POINT('Control Point',(2.39803511033,4.89949284776,4.38957382569)) ;
#539=CARTESIAN_POINT('Control Point',(2.40464131937,4.89954107843,4.38575972912)) ;
#540=CARTESIAN_POINT('Control Point',(2.41124752841,4.8995893091,4.38194563255)) ;
#541=CARTESIAN_POINT('Control Point',(2.39902546869,4.89950004901,4.38900204202)) ;
#542=CARTESIAN_POINT('Control Point',(2.66674368191,4.90143094937,4.23443485955)) ;
#543=CARTESIAN_POINT('Control Point',(2.93350536037,4.89695927194,4.08041993269)) ;
#544=CARTESIAN_POINT('Control Point',(3.20302335214,4.88618121602,3.92481364759)) ;
#545=CARTESIAN_POINT('Control Point',(3.69415971986,4.85519365519,3.64125593347)) ;
#546=CARTESIAN_POINT('Control Point',(4.22633081379,4.79976190547,3.33400680914)) ;
#547=CARTESIAN_POINT('Control Point',(4.468595097,4.77046487675,3.19413546001)) ;
#548=CARTESIAN_POINT('Control Point',(4.72468113116,4.73524242519,3.04628411925)) ;
#549=CARTESIAN_POINT('Control Point',(4.99949985019,4.69274057833,2.88761745784)) ;
#550=CARTESIAN_POINT('Vertex',(2.3980351103,4.89949284776,4.38957382571)) ;
#554=CARTESIAN_POINT('Control Point',(2.3980351103,4.89949284776,4.38957382571)) ;
#555=CARTESIAN_POINT('Control Point',(2.39142892345,4.89944461726,4.39338790946)) ;
#556=CARTESIAN_POINT('Control Point',(2.38482273661,4.89939638675,4.39720199321)) ;
#557=CARTESIAN_POINT('Control Point',(2.3970447464,4.89948558813,4.39014561257)) ;
#558=CARTESIAN_POINT('Control Point',(2.12931356228,4.89750727392,4.54472028379)) ;
#559=CARTESIAN_POINT('Control Point',(1.86059434494,4.8891255331,4.69986539626)) ;
#560=CARTESIAN_POINT('Control Point',(1.58720484793,4.87429091194,4.85770689595)) ;
#561=CARTESIAN_POINT('Control Point',(1.1286770158,4.83891029695,5.12243806326)) ;
#562=CARTESIAN_POINT('Control Point',(0.628615187401,4.78165398265,5.4111488945)) ;
#563=CARTESIAN_POINT('Control Point',(0.429700086807,4.75622288745,5.52599258138)) ;
#564=CARTESIAN_POINT('Control Point',(0.221372842514,4.72682212296,5.64627037195)) ;
#565=CARTESIAN_POINT('Control Point',(0.00100015012703,4.69274057838,5.77350260522)) ;
#566=CARTESIAN_POINT('Vertex',(-0.000500074582687,4.6927405782,5.77436876036)) ;
#569=CARTESIAN_POINT('Line Origine',(0.000250037772259,2.45000000019,5.77393568279)) ;
#583=CARTESIAN_POINT('Axis2P3D Location',(-5.0005,0.,-2.88704002108)) ;
#589=CARTESIAN_POINT('Control Point',(-2.3980351103,4.89949284776,-4.38957382571)) ;
#590=CARTESIAN_POINT('Control Point',(-2.39142892345,4.89944461726,-4.39338790946)) ;
#591=CARTESIAN_POINT('Control Point',(-2.38482273661,4.89939638675,-4.39720199321)) ;
#592=CARTESIAN_POINT('Control Point',(-2.3970447464,4.89948558813,-4.39014561257)) ;
#593=CARTESIAN_POINT('Control Point',(-2.12931356229,4.89750727392,-4.54472028379)) ;
#594=CARTESIAN_POINT('Control Point',(-1.86059434495,4.88912553311,-4.69986539625)) ;
#595=CARTESIAN_POINT('Control Point',(-1.58720484792,4.87429091194,-4.85770689596)) ;
#596=CARTESIAN_POINT('Control Point',(-1.1286770158,4.83891029695,-5.12243806327)) ;
#597=CARTESIAN_POINT('Control Point',(-0.628615187399,4.78165398265,-5.4111488945)) ;
#598=CARTESIAN_POINT('Control Point',(-0.429700086807,4.75622288744,-5.52599258138)) ;
#599=CARTESIAN_POINT('Control Point',(-0.221372842514,4.72682212296,-5.64627037195)) ;
#600=CARTESIAN_POINT('Control Point',(-0.00100015012702,4.69274057838,-5.77350260522)) ;
#601=CARTESIAN_POINT('Vertex',(-2.3980351103,4.89949284776,-4.38957382571)) ;
#604=CARTESIAN_POINT('Line Origine',(-5.00024996255,2.45000000019,-2.88718438027)) ;
#608=CARTESIAN_POINT('Vertex',(-4.99949985019,4.69274057833,-2.88761745784)) ;
#612=CARTESIAN_POINT('Control Point',(-2.39803511033,4.89949284776,-4.38957382569)) ;
#613=CARTESIAN_POINT('Control Point',(-2.40464131937,4.89954107843,-4.38575972912)) ;
#614=CARTESIAN_POINT('Control Point',(-2.41124752841,4.8995893091,-4.38194563255)) ;
#615=CARTESIAN_POINT('Control Point',(-2.39902546869,4.89950004901,-4.38900204202)) ;
#616=CARTESIAN_POINT('Control Point',(-2.66674368193,4.90143094937,-4.23443485954)) ;
#617=CARTESIAN_POINT('Control Point',(-2.93350536042,4.89695927194,-4.08041993265)) ;
#618=CARTESIAN_POINT('Control Point',(-3.20302335211,4.88618121602,-3.9248136476)) ;
#619=CARTESIAN_POINT('Control Point',(-3.69415971985,4.85519365519,-3.64125593348)) ;
#620=CARTESIAN_POINT('Control Point',(-4.22633081385,4.79976190546,-3.3340068091)) ;
#621=CARTESIAN_POINT('Control Point',(-4.46859509694,4.77046487675,-3.19413546004)) ;
#622=CARTESIAN_POINT('Control Point',(-4.72468113113,4.7352424252,-3.04628411927)) ;
#623=CARTESIAN_POINT('Control Point',(-4.99949985019,4.69274057833,-2.88761745784)) ;
#634=CARTESIAN_POINT('Axis2P3D Location',(0.,0.,5.77408004217)) ;
#640=CARTESIAN_POINT('Control Point',(-0.00100014980647,4.69274057833,5.77350260541)) ;
#641=CARTESIAN_POINT('Control Point',(-0.00422477434024,4.69323927979,5.77164086757)) ;
#642=CARTESIAN_POINT('Control Point',(-0.007449398874,4.69373798126,5.76977912972)) ;
#643=CARTESIAN_POINT('Control Point',(-0.00164888298112,4.69284089945,5.77312805914)) ;
#644=CARTESIAN_POINT('Control Point',(-0.357735913163,4.74789781998,5.56754111641)) ;
#645=CARTESIAN_POINT('Control Point',(-0.682383138359,4.79073506868,5.38010595355)) ;
#646=CARTESIAN_POINT('Control Point',(-0.98588846354,4.82425211784,5.20487707235)) ;
#647=CARTESIAN_POINT('Control Point',(-1.74359000931,4.89132520228,4.76741788094)) ;
#648=CARTESIAN_POINT('Control Point',(-2.43695869343,4.90938943173,4.36710128451)) ;
#649=CARTESIAN_POINT('Control Point',(-2.86019513823,4.90495921033,4.12274560918)) ;
#650=CARTESIAN_POINT('Control Point',(-3.50418672519,4.87485357717,3.75093689309)) ;
#651=CARTESIAN_POINT('Control Point',(-4.22270152807,4.80020044616,3.33610217823)) ;
#652=CARTESIAN_POINT('Control Point',(-4.46603619059,4.77081671507,3.19561284532)) ;
#653=CARTESIAN_POINT('Control Point',(-4.72330783485,4.73545481112,3.04707699225)) ;
#654=CARTESIAN_POINT('Control Point',(-4.99949984987,4.69274057838,2.88761745803)) ;
#655=CARTESIAN_POINT('Vertex',(-5.00100007458,4.6927405782,2.88675130289)) ;
#658=CARTESIAN_POINT('Line Origine',(-5.00024996223,2.45000000019,2.88718438046)) ;
#670=CARTESIAN_POINT('Axis2P3D Location',(-5.0005,0.,2.88704002108)) ;
#676=CARTESIAN_POINT('Control Point',(-5.0005,4.69274057838,-2.8858851472)) ;
#677=CARTESIAN_POINT('Control Point',(-5.0005,4.69323927984,-2.88216167151)) ;
#678=CARTESIAN_POINT('Control Point',(-5.0005,4.69373798131,-2.87843819583)) ;
#679=CARTESIAN_POINT('Control Point',(-5.0005,4.6928408995,-2.88513605465)) ;
#680=CARTESIAN_POINT('Control Point',(-5.0005,4.74789782003,-2.47396216919)) ;
#681=CARTESIAN_POINT('Control Point',(-5.0005,4.79073506872,-2.09909184348)) ;
#682=CARTESIAN_POINT('Control Point',(-5.0005,4.82425211786,-1.74863408121)) ;
#683=CARTESIAN_POINT('Control Point',(-5.0005,4.8913252023,-0.873715698315)) ;
#684=CARTESIAN_POINT('Control Point',(-5.0005,4.90938943174,-0.0730825054751)) ;
#685=CARTESIAN_POINT('Control Point',(-5.0005,4.90495921032,0.415628845138)) ;
#686=CARTESIAN_POINT('Control Point',(-5.0005,4.87485357716,1.15924627735)) ;
#687=CARTESIAN_POINT('Control Point',(-5.0005,4.80020044612,1.98891570713)) ;
#688=CARTESIAN_POINT('Control Point',(-5.0005,4.77081671504,2.26989437295)) ;
#689=CARTESIAN_POINT('Control Point',(-5.0005,4.73545481107,2.5669660791)) ;
#690=CARTESIAN_POINT('Control Point',(-5.0005,4.69274057833,2.88588514756)) ;
#699=CARTESIAN_POINT('Axis2P3D Location',(0.,2.45,0.)) ;
#704=CARTESIAN_POINT('Line Origine',(-1.43827661581,2.44999999925,-2.63274768567)) ;
#708=CARTESIAN_POINT('Vertex',(-1.43827661581,8.00000000075,-2.63274768567)) ;
#711=CARTESIAN_POINT('Axis2P3D Location',(0.,8.00000000075,0.)) ;
#715=CARTESIAN_POINT('Vertex',(1.43827661581,8.00000000075,2.63274768567)) ;
#718=CARTESIAN_POINT('Line Origine',(1.43827661581,2.44999999925,2.63274768567)) ;
#730=CARTESIAN_POINT('Axis2P3D Location',(0.,8.00000000075,0.)) ;
#742=CARTESIAN_POINT('Axis2P3D Location',(0.,4.9,0.)) ;
#747=CARTESIAN_POINT('Line Origine',(-2315448.74617,-1294089.65562,-4238400.50012)) ;
#751=CARTESIAN_POINT('Vertex',(-2.39712769306,4.89999999998,-4.38791280953)) ;
#754=CARTESIAN_POINT('Axis2P3D Location',(0.,4.90000000001,0.)) ;
#758=CARTESIAN_POINT('Vertex',(2.39712769357,4.90000000001,4.38791280913)) ;
#761=CARTESIAN_POINT('Line Origine',(2315448.74617,-1294089.65562,4238400.50012)) ;
#776=CARTESIAN_POINT('Axis2P3D Location',(0.,4.9,0.)) ;
#791=CARTESIAN_POINT('Axis2P3D Location',(0.,8.,3.63)) ;
#796=CARTESIAN_POINT('Axis2P3D Location',(-1.10909947892E-09,8.,7.17662373972E-10)) ;
#800=CARTESIAN_POINT('Vertex',(-1.7403147053,8.,-3.185624699)) ;
#802=CARTESIAN_POINT('Vertex',(1.7403147053,8.,3.18562469922)) ;
#805=CARTESIAN_POINT('Axis2P3D Location',(1.10909947892E-09,8.,-4.94145169228E-10)) ;
#823=CARTESIAN_POINT('Axis2P3D Location',(8.881784197E-16,4.9,-8.19563972243E-10)) ;
#827=CARTESIAN_POINT('Vertex',(2.03755853884,4.9,3.72972588718)) ;
#829=CARTESIAN_POINT('Vertex',(-2.03755853884,4.9,-3.72972588882)) ;
#832=CARTESIAN_POINT('Axis2P3D Location',(-8.881784197E-16,4.9,-8.19563972243E-10)) ;
#842=CARTESIAN_POINT('Axis2P3D Location',(0.,7.38,0.)) ;
#847=CARTESIAN_POINT('Axis2P3D Location',(-1.74031470513,7.38,-3.18562469966)) ;
#851=CARTESIAN_POINT('Vertex',(-2.03755853907,7.38,-3.72972588803)) ;
#854=CARTESIAN_POINT('Axis2P3D Location',(0.,7.38,0.)) ;
#858=CARTESIAN_POINT('Vertex',(2.03755853907,7.38,3.72972588803)) ;
#861=CARTESIAN_POINT('Axis2P3D Location',(1.74031470513,7.38,3.18562469966)) ;
#873=CARTESIAN_POINT('Axis2P3D Location',(0.,7.38,0.)) ;
#878=CARTESIAN_POINT('Axis2P3D Location',(0.,7.38,0.)) ;
#890=CARTESIAN_POINT('Axis2P3D Location',(0.,2.45,0.)) ;
#895=CARTESIAN_POINT('Line Origine',(2.03755853907,2.44999999925,3.72972588803)) ;
#900=CARTESIAN_POINT('Line Origine',(-2.03755853907,2.44999999925,-3.72972588803)) ;
#6=PRODUCT_RELATED_PRODUCT_CATEGORY('part',$,(#16)) ;
#11=UNCERTAINTY_MEASURE_WITH_UNIT(LENGTH_MEASURE(0.005),#8,'distance_accuracy_value','CONFUSED CURVE UNCERTAINTY') ;
#29=STYLED_ITEM(' ',(#28),#21) ;
#28=PRESENTATION_STYLE_ASSIGNMENT((#27)) ;
#27=SURFACE_STYLE_USAGE(.BOTH.,#26) ;
#26=SURFACE_SIDE_STYLE(' ',(#25)) ;
#25=SURFACE_STYLE_FILL_AREA(#24) ;
#24=FILL_AREA_STYLE(' ',(#23)) ;
#23=FILL_AREA_STYLE_COLOUR(' ',#22) ;
#38=VECTOR('Line Direction',#37,1.) ;
#60=VECTOR('Line Direction',#59,1.) ;
#128=VECTOR('Line Direction',#127,1.) ;
#133=VECTOR('Line Direction',#132,1.) ;
#218=VECTOR('Line Direction',#217,1.) ;
#232=VECTOR('Line Direction',#231,1.) ;
#322=VECTOR('Line Direction',#321,1.) ;
#327=VECTOR('Line Direction',#326,1.) ;
#460=VECTOR('Line Direction',#459,1.) ;
#486=VECTOR('Line Direction',#485,1.) ;
#522=VECTOR('Line Direction',#521,1.) ;
#571=VECTOR('Line Direction',#570,1.) ;
#606=VECTOR('Line Direction',#605,1.) ;
#660=VECTOR('Line Direction',#659,1.) ;
#706=VECTOR('Line Direction',#705,1.) ;
#720=VECTOR('Line Direction',#719,1.) ;
#749=VECTOR('Line Direction',#748,1.) ;
#763=VECTOR('Line Direction',#762,1.) ;
#897=VECTOR('Line Direction',#896,1.) ;
#902=VECTOR('Line Direction',#901,1.) ;
#32=DIRECTION('Axis2P3D Direction',(0.,1.,0.)) ;
#33=DIRECTION('Axis2P3D XDirection',(-0.87758256189,-0.,0.479425538604)) ;
#37=DIRECTION('Vector Direction',(0.,1.,0.)) ;
#59=DIRECTION('Vector Direction',(0.,1.,0.)) ;
#113=DIRECTION('Axis2P3D Direction',(0.,-1.,0.)) ;
#114=DIRECTION('Axis2P3D XDirection',(0.87758256189,0.,-0.479425538604)) ;
#118=DIRECTION('Axis2P3D Direction',(0.,-1.,0.)) ;
#127=DIRECTION('Vector Direction',(0.760008792517,-0.499999999997,-0.415194695655)) ;
#132=DIRECTION('Vector Direction',(-0.760008792517,-0.499999999997,0.415194695655)) ;
#144=DIRECTION('Axis2P3D Direction',(-0.,1.,0.)) ;
#145=DIRECTION('Axis2P3D XDirection',(1.,0.,0.)) ;
#149=DIRECTION('Axis2P3D Direction',(-0.,1.,0.)) ;
#158=DIRECTION('Axis2P3D Direction',(-0.,1.,0.)) ;
#172=DIRECTION('Axis2P3D Direction',(0.,-1.,0.)) ;
#184=DIRECTION('Axis2P3D Direction',(-0.,1.,0.)) ;
#185=DIRECTION('Axis2P3D XDirection',(1.,0.,0.)) ;
#189=DIRECTION('Axis2P3D Direction',(-0.,1.,0.)) ;
#198=DIRECTION('Axis2P3D Direction',(-0.,1.,0.)) ;
#212=DIRECTION('Axis2P3D Direction',(-0.,1.,0.)) ;
#213=DIRECTION('Axis2P3D XDirection',(-0.479425538604,0.,-0.877582561891)) ;
#217=DIRECTION('Vector Direction',(0.,1.,0.)) ;
#224=DIRECTION('Axis2P3D Direction',(-0.,1.,0.)) ;
#231=DIRECTION('Vector Direction',(0.,1.,0.)) ;
#243=DIRECTION('Axis2P3D Direction',(-0.,1.,0.)) ;
#255=DIRECTION('Axis2P3D Direction',(0.,1.,0.)) ;
#256=DIRECTION('Axis2P3D XDirection',(-0.479425538604,0.,-0.87758256189)) ;
#321=DIRECTION('Vector Direction',(0.463089509521,0.258819045098,0.847679661232)) ;
#326=DIRECTION('Vector Direction',(-0.463089509521,0.258819045098,-0.847679661232)) ;
#426=DIRECTION('Axis2P3D Direction',(-0.,1.,0.)) ;
#427=DIRECTION('Axis2P3D XDirection',(1.,0.,0.)) ;
#435=DIRECTION('Axis2P3D Direction',(-0.,1.,0.)) ;
#444=DIRECTION('Axis2P3D Direction',(-0.,1.,0.)) ;
#454=DIRECTION('Axis2P3D Direction',(-0.5,0.,0.866025403784)) ;
#455=DIRECTION('Axis2P3D XDirection',(0.866025403784,0.,0.5)) ;
#459=DIRECTION('Vector Direction',(0.000334462356618,0.999999925423,0.000193101931627)) ;
#485=DIRECTION('Vector Direction',(0.000334462356618,0.999999925423,0.000193101931627)) ;
#497=DIRECTION('Axis2P3D Direction',(-1.,0.,0.)) ;
#498=DIRECTION('Axis2P3D XDirection',(0.,0.,1.)) ;
#521=DIRECTION('Vector Direction',(0.,0.999999925423,0.000386203863254)) ;
#533=DIRECTION('Axis2P3D Direction',(-0.5,0.,-0.866025403784)) ;
#534=DIRECTION('Axis2P3D XDirection',(-0.866025403784,0.,0.5)) ;
#570=DIRECTION('Vector Direction',(-0.000334462356618,0.999999925423,0.000193101931627)) ;
#584=DIRECTION('Axis2P3D Direction',(0.5,-0.,0.866025403784)) ;
#585=DIRECTION('Axis2P3D XDirection',(0.866025403784,0.,-0.5)) ;
#605=DIRECTION('Vector Direction',(0.000334462356618,0.999999925423,-0.000193101931627)) ;
#635=DIRECTION('Axis2P3D Direction',(0.5,0.,-0.866025403784)) ;
#636=DIRECTION('Axis2P3D XDirection',(-0.866025403784,0.,-0.5)) ;
#659=DIRECTION('Vector Direction',(-0.000334462356618,0.999999925423,-0.000193101931627)) ;
#671=DIRECTION('Axis2P3D Direction',(1.,-0.,0.)) ;
#672=DIRECTION('Axis2P3D XDirection',(0.,0.,-1.)) ;
#700=DIRECTION('Axis2P3D Direction',(0.,1.,0.)) ;
#701=DIRECTION('Axis2P3D XDirection',(0.479425538604,0.,0.877582561891)) ;
#705=DIRECTION('Vector Direction',(0.,1.,0.)) ;
#712=DIRECTION('Axis2P3D Direction',(0.,1.,0.)) ;
#719=DIRECTION('Vector Direction',(0.,1.,0.)) ;
#731=DIRECTION('Axis2P3D Direction',(0.,1.,0.)) ;
#743=DIRECTION('Axis2P3D Direction',(-0.,-1.,-0.)) ;
#744=DIRECTION('Axis2P3D XDirection',(0.479425538604,0.,0.87758256189)) ;
#748=DIRECTION('Vector Direction',(-0.463089509521,-0.258819045098,-0.847679661232)) ;
#755=DIRECTION('Axis2P3D Direction',(0.,-1.,-0.)) ;
#762=DIRECTION('Vector Direction',(0.463089509521,-0.258819045098,0.847679661232)) ;
#777=DIRECTION('Axis2P3D Direction',(0.,-1.,-0.)) ;
#792=DIRECTION('Axis2P3D Direction',(-0.,1.,0.)) ;
#793=DIRECTION('Axis2P3D XDirection',(1.,0.,0.)) ;
#797=DIRECTION('Axis2P3D Direction',(-0.,1.,0.)) ;
#806=DIRECTION('Axis2P3D Direction',(-0.,1.,0.)) ;
#824=DIRECTION('Axis2P3D Direction',(-0.,1.,0.)) ;
#833=DIRECTION('Axis2P3D Direction',(-0.,1.,0.)) ;
#843=DIRECTION('Axis2P3D Direction',(0.,1.,0.)) ;
#844=DIRECTION('Axis2P3D XDirection',(-0.479425538604,0.,-0.87758256189)) ;
#848=DIRECTION('Axis2P3D Direction',(0.87758256189,0.,-0.479425538604)) ;
#855=DIRECTION('Axis2P3D Direction',(0.,1.,0.)) ;
#862=DIRECTION('Axis2P3D Direction',(-0.87758256189,0.,0.479425538604)) ;
#874=DIRECTION('Axis2P3D Direction',(0.,1.,0.)) ;
#875=DIRECTION('Axis2P3D XDirection',(0.479425538604,0.,0.87758256189)) ;
#879=DIRECTION('Axis2P3D Direction',(-0.,1.,0.)) ;
#891=DIRECTION('Axis2P3D Direction',(-0.,1.,0.)) ;
#892=DIRECTION('Axis2P3D XDirection',(-0.479425538604,-0.,-0.87758256189)) ;
#896=DIRECTION('Vector Direction',(0.,1.,0.)) ;
#901=DIRECTION('Vector Direction',(0.,1.,0.)) ;
#15=AXIS2_PLACEMENT_3D('',#14,$,$) ;
#34=AXIS2_PLACEMENT_3D('Cylinder Axis2P3D',#31,#32,#33) ;
#115=AXIS2_PLACEMENT_3D('Cone Axis2P3D',#112,#113,#114) ;
#119=AXIS2_PLACEMENT_3D('Circle Axis2P3D',#117,#118,$) ;
#146=AXIS2_PLACEMENT_3D('Plane Axis2P3D',#143,#144,#145) ;
#150=AXIS2_PLACEMENT_3D('Circle Axis2P3D',#148,#149,$) ;
#159=AXIS2_PLACEMENT_3D('Circle Axis2P3D',#157,#158,$) ;
#173=AXIS2_PLACEMENT_3D('Circle Axis2P3D',#171,#172,$) ;
#186=AXIS2_PLACEMENT_3D('Plane Axis2P3D',#183,#184,#185) ;
#190=AXIS2_PLACEMENT_3D('Circle Axis2P3D',#188,#189,$) ;
#199=AXIS2_PLACEMENT_3D('Circle Axis2P3D',#197,#198,$) ;
#214=AXIS2_PLACEMENT_3D('Cylinder Axis2P3D',#211,#212,#213) ;
#225=AXIS2_PLACEMENT_3D('Circle Axis2P3D',#223,#224,$) ;
#244=AXIS2_PLACEMENT_3D('Circle Axis2P3D',#242,#243,$) ;
#257=AXIS2_PLACEMENT_3D('Cone Axis2P3D',#254,#255,#256) ;
#428=AXIS2_PLACEMENT_3D('Plane Axis2P3D',#425,#426,#427) ;
#436=AXIS2_PLACEMENT_3D('Circle Axis2P3D',#434,#435,$) ;
#445=AXIS2_PLACEMENT_3D('Circle Axis2P3D',#443,#444,$) ;
#456=AXIS2_PLACEMENT_3D('Plane Axis2P3D',#453,#454,#455) ;
#499=AXIS2_PLACEMENT_3D('Plane Axis2P3D',#496,#497,#498) ;
#535=AXIS2_PLACEMENT_3D('Plane Axis2P3D',#532,#533,#534) ;
#586=AXIS2_PLACEMENT_3D('Plane Axis2P3D',#583,#584,#585) ;
#637=AXIS2_PLACEMENT_3D('Plane Axis2P3D',#634,#635,#636) ;
#673=AXIS2_PLACEMENT_3D('Plane Axis2P3D',#670,#671,#672) ;
#702=AXIS2_PLACEMENT_3D('Cylinder Axis2P3D',#699,#700,#701) ;
#713=AXIS2_PLACEMENT_3D('Circle Axis2P3D',#711,#712,$) ;
#732=AXIS2_PLACEMENT_3D('Circle Axis2P3D',#730,#731,$) ;
#745=AXIS2_PLACEMENT_3D('Cone Axis2P3D',#742,#743,#744) ;
#756=AXIS2_PLACEMENT_3D('Circle Axis2P3D',#754,#755,$) ;
#778=AXIS2_PLACEMENT_3D('Circle Axis2P3D',#776,#777,$) ;
#794=AXIS2_PLACEMENT_3D('Plane Axis2P3D',#791,#792,#793) ;
#798=AXIS2_PLACEMENT_3D('Circle Axis2P3D',#796,#797,$) ;
#807=AXIS2_PLACEMENT_3D('Circle Axis2P3D',#805,#806,$) ;
#825=AXIS2_PLACEMENT_3D('Circle Axis2P3D',#823,#824,$) ;
#834=AXIS2_PLACEMENT_3D('Circle Axis2P3D',#832,#833,$) ;
#845=AXIS2_PLACEMENT_3D('Torus Axis2P3D',#842,#843,#844) ;
#849=AXIS2_PLACEMENT_3D('Circle Axis2P3D',#847,#848,$) ;
#856=AXIS2_PLACEMENT_3D('Circle Axis2P3D',#854,#855,$) ;
#863=AXIS2_PLACEMENT_3D('Circle Axis2P3D',#861,#862,$) ;
#876=AXIS2_PLACEMENT_3D('Torus Axis2P3D',#873,#874,#875) ;
#880=AXIS2_PLACEMENT_3D('Circle Axis2P3D',#878,#879,$) ;
#893=AXIS2_PLACEMENT_3D('Cylinder Axis2P3D',#890,#891,#892) ;
#39=LINE('Line',#36,#38) ;
#61=LINE('Line',#58,#60) ;
#129=LINE('Line',#126,#128) ;
#134=LINE('Line',#131,#133) ;
#219=LINE('Line',#216,#218) ;
#233=LINE('Line',#230,#232) ;
#323=LINE('Line',#320,#322) ;
#328=LINE('Line',#325,#327) ;
#461=LINE('Line',#458,#460) ;
#487=LINE('Line',#484,#486) ;
#523=LINE('Line',#520,#522) ;
#572=LINE('Line',#569,#571) ;
#607=LINE('Line',#604,#606) ;
#661=LINE('Line',#658,#660) ;
#707=LINE('Line',#704,#706) ;
#721=LINE('Line',#718,#720) ;
#750=LINE('Line',#747,#749) ;
#764=LINE('Line',#761,#763) ;
#898=LINE('Line',#895,#897) ;
#903=LINE('Line',#900,#902) ;
#120=CIRCLE('generated circle',#119,4.19055080757) ;
#151=CIRCLE('generated circle',#150,3.62999999959) ;
#160=CIRCLE('generated circle',#159,3.62999999959) ;
#174=CIRCLE('generated circle',#173,4.19055080756) ;
#191=CIRCLE('generated circle',#190,5.00000000059) ;
#200=CIRCLE('generated circle',#199,5.00000000059) ;
#226=CIRCLE('generated circle',#225,3.63) ;
#245=CIRCLE('generated circle',#244,3.63) ;
#437=CIRCLE('generated circle',#436,2.99999999949) ;
#446=CIRCLE('generated circle',#445,2.99999999949) ;
#714=CIRCLE('generated circle',#713,3.) ;
#733=CIRCLE('generated circle',#732,3.) ;
#757=CIRCLE('generated circle',#756,4.99999999998) ;
#779=CIRCLE('generated circle',#778,5.) ;
#799=CIRCLE('generated circle',#798,3.62999999959) ;
#808=CIRCLE('generated circle',#807,3.62999999959) ;
#826=CIRCLE('generated circle',#825,4.24999999986) ;
#835=CIRCLE('generated circle',#834,4.24999999986) ;
#850=CIRCLE('generated circle',#849,0.62) ;
#857=CIRCLE('generated circle',#856,4.25) ;
#864=CIRCLE('generated circle',#863,0.62) ;
#881=CIRCLE('generated circle',#880,4.25) ;
#147=PLANE('',#146) ;
#187=PLANE('',#186) ;
#429=PLANE('',#428) ;
#457=PLANE('',#456) ;
#500=PLANE('',#499) ;
#536=PLANE('',#535) ;
#587=PLANE('',#586) ;
#638=PLANE('',#637) ;
#674=PLANE('',#673) ;
#795=PLANE('',#794) ;
#35=CYLINDRICAL_SURFACE('generated cylinder',#34,2.4585) ;
#215=CYLINDRICAL_SURFACE('generated cylinder',#214,3.63) ;
#703=CYLINDRICAL_SURFACE('generated cylinder',#702,3.) ;
#894=CYLINDRICAL_SURFACE('generated cylinder',#893,4.25) ;
#116=CONICAL_SURFACE('Cone',#115,2.4585,1.0471975512) ;
#258=CONICAL_SURFACE('Cone',#257,5.,1.308996939) ;
#746=CONICAL_SURFACE('Cone',#745,5.,1.308996939) ;
#846=TOROIDAL_SURFACE('homeo Torus',#845,3.63,0.62) ;
#877=TOROIDAL_SURFACE('homeo Torus',#876,3.63,0.62) ;
#169=FACE_BOUND('',#166,.T.) ;
#209=FACE_BOUND('',#206,.T.) ;
#451=FACE_BOUND('',#448,.T.) ;
#817=FACE_BOUND('',#814,.T.) ;
#840=FACE_BOUND('',#837,.T.) ;
#44=EDGE_CURVE('',#41,#43,#39,.F.) ;
#57=EDGE_CURVE('',#56,#43,#45,.T.) ;
#64=EDGE_CURVE('',#63,#56,#61,.F.) ;
#75=EDGE_CURVE('',#63,#41,#65,.T.) ;
#93=EDGE_CURVE('',#43,#56,#83,.T.) ;
#104=EDGE_CURVE('',#41,#63,#94,.T.) ;
#125=EDGE_CURVE('',#122,#124,#120,.F.) ;
#130=EDGE_CURVE('',#56,#122,#129,.T.) ;
#135=EDGE_CURVE('',#43,#124,#134,.T.) ;
#156=EDGE_CURVE('',#153,#155,#151,.T.) ;
#161=EDGE_CURVE('',#155,#153,#160,.T.) ;
#175=EDGE_CURVE('',#124,#122,#174,.F.) ;
#196=EDGE_CURVE('',#193,#195,#191,.T.) ;
#201=EDGE_CURVE('',#195,#193,#200,.T.) ;
#222=EDGE_CURVE('',#153,#221,#219,.T.) ;
#229=EDGE_CURVE('',#221,#228,#226,.T.) ;
#234=EDGE_CURVE('',#155,#228,#233,.T.) ;
#246=EDGE_CURVE('',#228,#221,#245,.T.) ;
#285=EDGE_CURVE('',#282,#284,#259,.T.) ;
#310=EDGE_CURVE('',#309,#282,#286,.T.) ;
#319=EDGE_CURVE('',#318,#309,#311,.T.) ;
#324=EDGE_CURVE('',#318,#193,#323,.F.) ;
#331=EDGE_CURVE('',#330,#195,#328,.F.) ;
#338=EDGE_CURVE('',#330,#284,#332,.T.) ;
#375=EDGE_CURVE('',#372,#374,#349,.T.) ;
#400=EDGE_CURVE('',#374,#399,#376,.T.) ;
#407=EDGE_CURVE('',#330,#399,#401,.T.) ;
#414=EDGE_CURVE('',#318,#372,#408,.T.) ;
#442=EDGE_CURVE('',#439,#441,#437,.T.) ;
#447=EDGE_CURVE('',#441,#439,#446,.T.) ;
#464=EDGE_CURVE('',#284,#463,#461,.T.) ;
#483=EDGE_CURVE('',#463,#482,#465,.T.) ;
#488=EDGE_CURVE('',#282,#482,#487,.T.) ;
#519=EDGE_CURVE('',#482,#518,#501,.T.) ;
#524=EDGE_CURVE('',#309,#518,#523,.T.) ;
#552=EDGE_CURVE('',#551,#518,#537,.T.) ;
#568=EDGE_CURVE('',#551,#567,#553,.T.) ;
#573=EDGE_CURVE('',#372,#567,#572,.T.) ;
#603=EDGE_CURVE('',#602,#463,#588,.T.) ;
#610=EDGE_CURVE('',#399,#609,#607,.T.) ;
#624=EDGE_CURVE('',#602,#609,#611,.T.) ;
#657=EDGE_CURVE('',#567,#656,#639,.T.) ;
#662=EDGE_CURVE('',#374,#656,#661,.T.) ;
#691=EDGE_CURVE('',#609,#656,#675,.T.) ;
#710=EDGE_CURVE('',#439,#709,#707,.T.) ;
#717=EDGE_CURVE('',#709,#716,#714,.T.) ;
#722=EDGE_CURVE('',#441,#716,#721,.T.) ;
#734=EDGE_CURVE('',#716,#709,#733,.T.) ;
#753=EDGE_CURVE('',#752,#602,#750,.T.) ;
#760=EDGE_CURVE('',#759,#752,#757,.F.) ;
#765=EDGE_CURVE('',#759,#551,#764,.T.) ;
#780=EDGE_CURVE('',#752,#759,#779,.F.) ;
#804=EDGE_CURVE('',#801,#803,#799,.T.) ;
#809=EDGE_CURVE('',#803,#801,#808,.T.) ;
#831=EDGE_CURVE('',#828,#830,#826,.T.) ;
#836=EDGE_CURVE('',#830,#828,#835,.T.) ;
#853=EDGE_CURVE('',#801,#852,#850,.F.) ;
#860=EDGE_CURVE('',#852,#859,#857,.T.) ;
#865=EDGE_CURVE('',#803,#859,#864,.F.) ;
#882=EDGE_CURVE('',#859,#852,#881,.T.) ;
#899=EDGE_CURVE('',#859,#828,#898,.F.) ;
#904=EDGE_CURVE('',#852,#830,#903,.F.) ;
#30=CLOSED_SHELL('Closed Shell',(#82,#111,#142,#170,#182,#210,#241,#253,#348,#424,#452,#495,#531,#582,#633,#669,#698,#729,#741,#775,#790,#818,#841,#872,#889,#911,#918)) ;
#77=ORIENTED_EDGE('',*,*,#44,.T.) ;
#78=ORIENTED_EDGE('',*,*,#57,.F.) ;
#79=ORIENTED_EDGE('',*,*,#64,.F.) ;
#80=ORIENTED_EDGE('',*,*,#75,.T.) ;
#106=ORIENTED_EDGE('',*,*,#64,.T.) ;
#107=ORIENTED_EDGE('',*,*,#93,.F.) ;
#108=ORIENTED_EDGE('',*,*,#44,.F.) ;
#109=ORIENTED_EDGE('',*,*,#104,.T.) ;
#137=ORIENTED_EDGE('',*,*,#125,.F.) ;
#138=ORIENTED_EDGE('',*,*,#130,.F.) ;
#139=ORIENTED_EDGE('',*,*,#57,.T.) ;
#140=ORIENTED_EDGE('',*,*,#135,.T.) ;
#163=ORIENTED_EDGE('',*,*,#156,.T.) ;
#164=ORIENTED_EDGE('',*,*,#161,.T.) ;
#167=ORIENTED_EDGE('',*,*,#75,.F.) ;
#168=ORIENTED_EDGE('',*,*,#104,.F.) ;
#177=ORIENTED_EDGE('',*,*,#175,.F.) ;
#178=ORIENTED_EDGE('',*,*,#135,.F.) ;
#179=ORIENTED_EDGE('',*,*,#93,.T.) ;
#180=ORIENTED_EDGE('',*,*,#130,.T.) ;
#203=ORIENTED_EDGE('',*,*,#196,.F.) ;
#204=ORIENTED_EDGE('',*,*,#201,.F.) ;
#207=ORIENTED_EDGE('',*,*,#175,.T.) ;
#208=ORIENTED_EDGE('',*,*,#125,.T.) ;
#236=ORIENTED_EDGE('',*,*,#156,.F.) ;
#237=ORIENTED_EDGE('',*,*,#222,.T.) ;
#238=ORIENTED_EDGE('',*,*,#229,.T.) ;
#239=ORIENTED_EDGE('',*,*,#234,.F.) ;
#248=ORIENTED_EDGE('',*,*,#161,.F.) ;
#249=ORIENTED_EDGE('',*,*,#234,.T.) ;
#250=ORIENTED_EDGE('',*,*,#246,.T.) ;
#251=ORIENTED_EDGE('',*,*,#222,.F.) ;
#340=ORIENTED_EDGE('',*,*,#285,.F.) ;
#341=ORIENTED_EDGE('',*,*,#310,.F.) ;
#342=ORIENTED_EDGE('',*,*,#319,.F.) ;
#343=ORIENTED_EDGE('',*,*,#324,.T.) ;
#344=ORIENTED_EDGE('',*,*,#196,.T.) ;
#345=ORIENTED_EDGE('',*,*,#331,.F.) ;
#346=ORIENTED_EDGE('',*,*,#338,.T.) ;
#416=ORIENTED_EDGE('',*,*,#375,.T.) ;
#417=ORIENTED_EDGE('',*,*,#400,.T.) ;
#418=ORIENTED_EDGE('',*,*,#407,.F.) ;
#419=ORIENTED_EDGE('',*,*,#331,.T.) ;
#420=ORIENTED_EDGE('',*,*,#201,.T.) ;
#421=ORIENTED_EDGE('',*,*,#324,.F.) ;
#422=ORIENTED_EDGE('',*,*,#414,.T.) ;
#431=ORIENTED_EDGE('',*,*,#229,.F.) ;
#432=ORIENTED_EDGE('',*,*,#246,.F.) ;
#449=ORIENTED_EDGE('',*,*,#442,.T.) ;
#450=ORIENTED_EDGE('',*,*,#447,.T.) ;
#490=ORIENTED_EDGE('',*,*,#464,.T.) ;
#491=ORIENTED_EDGE('',*,*,#483,.T.) ;
#492=ORIENTED_EDGE('',*,*,#488,.F.) ;
#493=ORIENTED_EDGE('',*,*,#285,.T.) ;
#526=ORIENTED_EDGE('',*,*,#488,.T.) ;
#527=ORIENTED_EDGE('',*,*,#519,.T.) ;
#528=ORIENTED_EDGE('',*,*,#524,.F.) ;
#529=ORIENTED_EDGE('',*,*,#310,.T.) ;
#575=ORIENTED_EDGE('',*,*,#319,.T.) ;
#576=ORIENTED_EDGE('',*,*,#524,.T.) ;
#577=ORIENTED_EDGE('',*,*,#552,.F.) ;
#578=ORIENTED_EDGE('',*,*,#568,.T.) ;
#579=ORIENTED_EDGE('',*,*,#573,.F.) ;
#580=ORIENTED_EDGE('',*,*,#414,.F.) ;
#626=ORIENTED_EDGE('',*,*,#603,.T.) ;
#627=ORIENTED_EDGE('',*,*,#464,.F.) ;
#628=ORIENTED_EDGE('',*,*,#338,.F.) ;
#629=ORIENTED_EDGE('',*,*,#407,.T.) ;
#630=ORIENTED_EDGE('',*,*,#610,.T.) ;
#631=ORIENTED_EDGE('',*,*,#624,.F.) ;
#664=ORIENTED_EDGE('',*,*,#573,.T.) ;
#665=ORIENTED_EDGE('',*,*,#657,.T.) ;
#666=ORIENTED_EDGE('',*,*,#662,.F.) ;
#667=ORIENTED_EDGE('',*,*,#375,.F.) ;
#693=ORIENTED_EDGE('',*,*,#662,.T.) ;
#694=ORIENTED_EDGE('',*,*,#691,.F.) ;
#695=ORIENTED_EDGE('',*,*,#610,.F.) ;
#696=ORIENTED_EDGE('',*,*,#400,.F.) ;
#724=ORIENTED_EDGE('',*,*,#442,.F.) ;
#725=ORIENTED_EDGE('',*,*,#710,.T.) ;
#726=ORIENTED_EDGE('',*,*,#717,.T.) ;
#727=ORIENTED_EDGE('',*,*,#722,.F.) ;
#736=ORIENTED_EDGE('',*,*,#447,.F.) ;
#737=ORIENTED_EDGE('',*,*,#722,.T.) ;
#738=ORIENTED_EDGE('',*,*,#734,.T.) ;
#739=ORIENTED_EDGE('',*,*,#710,.F.) ;
#767=ORIENTED_EDGE('',*,*,#519,.F.) ;
#768=ORIENTED_EDGE('',*,*,#483,.F.) ;
#769=ORIENTED_EDGE('',*,*,#603,.F.) ;
#770=ORIENTED_EDGE('',*,*,#753,.F.) ;
#771=ORIENTED_EDGE('',*,*,#760,.F.) ;
#772=ORIENTED_EDGE('',*,*,#765,.T.) ;
#773=ORIENTED_EDGE('',*,*,#552,.T.) ;
#782=ORIENTED_EDGE('',*,*,#691,.T.) ;
#783=ORIENTED_EDGE('',*,*,#657,.F.) ;
#784=ORIENTED_EDGE('',*,*,#568,.F.) ;
#785=ORIENTED_EDGE('',*,*,#765,.F.) ;
#786=ORIENTED_EDGE('',*,*,#780,.F.) ;
#787=ORIENTED_EDGE('',*,*,#753,.T.) ;
#788=ORIENTED_EDGE('',*,*,#624,.T.) ;
#811=ORIENTED_EDGE('',*,*,#804,.T.) ;
#812=ORIENTED_EDGE('',*,*,#809,.T.) ;
#815=ORIENTED_EDGE('',*,*,#734,.F.) ;
#816=ORIENTED_EDGE('',*,*,#717,.F.) ;
#820=ORIENTED_EDGE('',*,*,#780,.T.) ;
#821=ORIENTED_EDGE('',*,*,#760,.T.) ;
#838=ORIENTED_EDGE('',*,*,#831,.F.) ;
#839=ORIENTED_EDGE('',*,*,#836,.F.) ;
#867=ORIENTED_EDGE('',*,*,#804,.F.) ;
#868=ORIENTED_EDGE('',*,*,#853,.T.) ;
#869=ORIENTED_EDGE('',*,*,#860,.T.) ;
#870=ORIENTED_EDGE('',*,*,#865,.F.) ;
#884=ORIENTED_EDGE('',*,*,#809,.F.) ;
#885=ORIENTED_EDGE('',*,*,#865,.T.) ;
#886=ORIENTED_EDGE('',*,*,#882,.T.) ;
#887=ORIENTED_EDGE('',*,*,#853,.F.) ;
#906=ORIENTED_EDGE('',*,*,#882,.F.) ;
#907=ORIENTED_EDGE('',*,*,#899,.T.) ;
#908=ORIENTED_EDGE('',*,*,#831,.T.) ;
#909=ORIENTED_EDGE('',*,*,#904,.F.) ;
#913=ORIENTED_EDGE('',*,*,#860,.F.) ;
#914=ORIENTED_EDGE('',*,*,#904,.T.) ;
#915=ORIENTED_EDGE('',*,*,#836,.T.) ;
#916=ORIENTED_EDGE('',*,*,#899,.F.) ;
#76=EDGE_LOOP('',(#77,#78,#79,#80)) ;
#105=EDGE_LOOP('',(#106,#107,#108,#109)) ;
#136=EDGE_LOOP('',(#137,#138,#139,#140)) ;
#162=EDGE_LOOP('',(#163,#164)) ;
#166=EDGE_LOOP('',(#167,#168)) ;
#176=EDGE_LOOP('',(#177,#178,#179,#180)) ;
#202=EDGE_LOOP('',(#203,#204)) ;
#206=EDGE_LOOP('',(#207,#208)) ;
#235=EDGE_LOOP('',(#236,#237,#238,#239)) ;
#247=EDGE_LOOP('',(#248,#249,#250,#251)) ;
#339=EDGE_LOOP('',(#340,#341,#342,#343,#344,#345,#346)) ;
#415=EDGE_LOOP('',(#416,#417,#418,#419,#420,#421,#422)) ;
#430=EDGE_LOOP('',(#431,#432)) ;
#448=EDGE_LOOP('',(#449,#450)) ;
#489=EDGE_LOOP('',(#490,#491,#492,#493)) ;
#525=EDGE_LOOP('',(#526,#527,#528,#529)) ;
#574=EDGE_LOOP('',(#575,#576,#577,#578,#579,#580)) ;
#625=EDGE_LOOP('',(#626,#627,#628,#629,#630,#631)) ;
#663=EDGE_LOOP('',(#664,#665,#666,#667)) ;
#692=EDGE_LOOP('',(#693,#694,#695,#696)) ;
#723=EDGE_LOOP('',(#724,#725,#726,#727)) ;
#735=EDGE_LOOP('',(#736,#737,#738,#739)) ;
#766=EDGE_LOOP('',(#767,#768,#769,#770,#771,#772,#773)) ;
#781=EDGE_LOOP('',(#782,#783,#784,#785,#786,#787,#788)) ;
#810=EDGE_LOOP('',(#811,#812)) ;
#814=EDGE_LOOP('',(#815,#816)) ;
#819=EDGE_LOOP('',(#820,#821)) ;
#837=EDGE_LOOP('',(#838,#839)) ;
#866=EDGE_LOOP('',(#867,#868,#869,#870)) ;
#883=EDGE_LOOP('',(#884,#885,#886,#887)) ;
#905=EDGE_LOOP('',(#906,#907,#908,#909)) ;
#912=EDGE_LOOP('',(#913,#914,#915,#916)) ;
#21=MANIFOLD_SOLID_BREP('Body.2',#30) ;
#41=VERTEX_POINT('',#40) ;
#43=VERTEX_POINT('',#42) ;
#56=VERTEX_POINT('',#55) ;
#63=VERTEX_POINT('',#62) ;
#122=VERTEX_POINT('',#121) ;
#124=VERTEX_POINT('',#123) ;
#153=VERTEX_POINT('',#152) ;
#155=VERTEX_POINT('',#154) ;
#193=VERTEX_POINT('',#192) ;
#195=VERTEX_POINT('',#194) ;
#221=VERTEX_POINT('',#220) ;
#228=VERTEX_POINT('',#227) ;
#282=VERTEX_POINT('',#281) ;
#284=VERTEX_POINT('',#283) ;
#309=VERTEX_POINT('',#308) ;
#318=VERTEX_POINT('',#317) ;
#330=VERTEX_POINT('',#329) ;
#372=VERTEX_POINT('',#371) ;
#374=VERTEX_POINT('',#373) ;
#399=VERTEX_POINT('',#398) ;
#439=VERTEX_POINT('',#438) ;
#441=VERTEX_POINT('',#440) ;
#463=VERTEX_POINT('',#462) ;
#482=VERTEX_POINT('',#481) ;
#518=VERTEX_POINT('',#517) ;
#551=VERTEX_POINT('',#550) ;
#567=VERTEX_POINT('',#566) ;
#602=VERTEX_POINT('',#601) ;
#609=VERTEX_POINT('',#608) ;
#656=VERTEX_POINT('',#655) ;
#709=VERTEX_POINT('',#708) ;
#716=VERTEX_POINT('',#715) ;
#752=VERTEX_POINT('',#751) ;
#759=VERTEX_POINT('',#758) ;
#801=VERTEX_POINT('',#800) ;
#803=VERTEX_POINT('',#802) ;
#828=VERTEX_POINT('',#827) ;
#830=VERTEX_POINT('',#829) ;
#852=VERTEX_POINT('',#851) ;
#859=VERTEX_POINT('',#858) ;
#82=ADVANCED_FACE('Body.2',(#81),#35,.F.) ;
#111=ADVANCED_FACE('Body.2',(#110),#35,.F.) ;
#142=ADVANCED_FACE('Body.2',(#141),#116,.F.) ;
#170=ADVANCED_FACE('Body.2',(#165,#169),#147,.T.) ;
#182=ADVANCED_FACE('Body.2',(#181),#116,.F.) ;
#210=ADVANCED_FACE('Body.2',(#205,#209),#187,.F.) ;
#241=ADVANCED_FACE('Body.2',(#240),#215,.F.) ;
#253=ADVANCED_FACE('Body.2',(#252),#215,.F.) ;
#348=ADVANCED_FACE('Body.2',(#347),#258,.T.) ;
#424=ADVANCED_FACE('Body.2',(#423),#258,.T.) ;
#452=ADVANCED_FACE('Body.2',(#433,#451),#429,.F.) ;
#495=ADVANCED_FACE('Body.2',(#494),#457,.F.) ;
#531=ADVANCED_FACE('Body.2',(#530),#500,.F.) ;
#582=ADVANCED_FACE('Body.2',(#581),#536,.F.) ;
#633=ADVANCED_FACE('Body.2',(#632),#587,.F.) ;
#669=ADVANCED_FACE('Body.2',(#668),#638,.F.) ;
#698=ADVANCED_FACE('Body.2',(#697),#674,.F.) ;
#729=ADVANCED_FACE('Body.2',(#728),#703,.F.) ;
#741=ADVANCED_FACE('Body.2',(#740),#703,.F.) ;
#775=ADVANCED_FACE('Body.2',(#774),#746,.T.) ;
#790=ADVANCED_FACE('Body.2',(#789),#746,.T.) ;
#818=ADVANCED_FACE('Body.2',(#813,#817),#795,.T.) ;
#841=ADVANCED_FACE('Body.2',(#822,#840),#147,.T.) ;
#872=ADVANCED_FACE('Body.2',(#871),#846,.T.) ;
#889=ADVANCED_FACE('Body.2',(#888),#877,.T.) ;
#911=ADVANCED_FACE('Body.2',(#910),#894,.T.) ;
#918=ADVANCED_FACE('Body.2',(#917),#894,.T.) ;
#4=APPLICATION_PROTOCOL_DEFINITION('international standard','ap242_managed_model_based_3d_engineering',2014,#1) ;
#45=B_SPLINE_CURVE_WITH_KNOTS('',5,(#46,#47,#48,#49,#50,#51,#52,#53,#54),.UNSPECIFIED.,.F.,.U.,(6,3,6),(-3.86180276943,2.22044604925E-16,3.86180276943),.UNSPECIFIED.) ;
#65=B_SPLINE_CURVE_WITH_KNOTS('',5,(#66,#67,#68,#69,#70,#71,#72,#73,#74),.UNSPECIFIED.,.F.,.U.,(6,3,6),(-3.86180276943,2.22044604925E-16,3.86180276943),.UNSPECIFIED.) ;
#83=B_SPLINE_CURVE_WITH_KNOTS('',5,(#84,#85,#86,#87,#88,#89,#90,#91,#92),.UNSPECIFIED.,.F.,.U.,(6,3,6),(-3.86180276943,2.22044604925E-16,3.86180276943),.UNSPECIFIED.) ;
#94=B_SPLINE_CURVE_WITH_KNOTS('',5,(#95,#96,#97,#98,#99,#100,#101,#102,#103),.UNSPECIFIED.,.F.,.U.,(6,3,6),(-3.86180276943,2.22044604925E-16,3.86180276943),.UNSPECIFIED.) ;
#259=B_SPLINE_CURVE_WITH_KNOTS('',5,(#260,#261,#262,#263,#264,#265,#266,#267,#268,#269,#270,#271,#272,#273,#274,#275,#276,#277,#278,#279,#280),.UNSPECIFIED.,.F.,.U.,(6,3,3,3,3,3,6),(0.,3.86675964602,7.73351929205,15.4670385841,30.9340771682,80.9348490776,104.924407411),.UNSPECIFIED.) ;
#286=B_SPLINE_CURVE_WITH_KNOTS('',5,(#287,#288,#289,#290,#291,#292,#293,#294,#295,#296,#297,#298,#299,#300,#301,#302,#303,#304,#305,#306,#307),.UNSPECIFIED.,.F.,.U.,(6,3,3,3,3,3,6),(0.,3.86675964609,7.73351929218,15.4670385844,30.9340771687,80.9348490801,104.924407416),.UNSPECIFIED.) ;
#311=B_SPLINE_CURVE_WITH_KNOTS('',4,(#312,#313,#314,#315,#316),.UNSPECIFIED.,.F.,.U.,(5,5),(0.,54.8024917727),.UNSPECIFIED.) ;
#332=B_SPLINE_CURVE_WITH_KNOTS('',4,(#333,#334,#335,#336,#337),.UNSPECIFIED.,.F.,.U.,(5,5),(0.,50.074072078),.UNSPECIFIED.) ;
#349=B_SPLINE_CURVE_WITH_KNOTS('',5,(#350,#351,#352,#353,#354,#355,#356,#357,#358,#359,#360,#361,#362,#363,#364,#365,#366,#367,#368,#369,#370),.UNSPECIFIED.,.F.,.U.,(6,3,3,3,3,3,6),(0.,3.86675964627,7.73351929254,15.4670385851,30.9340771702,80.9348490821,104.924407417),.UNSPECIFIED.) ;
#376=B_SPLINE_CURVE_WITH_KNOTS('',5,(#377,#378,#379,#380,#381,#382,#383,#384,#385,#386,#387,#388,#389,#390,#391,#392,#393,#394,#395,#396,#397),.UNSPECIFIED.,.F.,.U.,(6,3,3,3,3,3,6),(0.,3.86675964595,7.7335192919,15.4670385838,30.9340771676,80.9348490833,104.92440742),.UNSPECIFIED.) ;
#401=B_SPLINE_CURVE_WITH_KNOTS('',4,(#402,#403,#404,#405,#406),.UNSPECIFIED.,.F.,.U.,(5,5),(0.,54.8024917746),.UNSPECIFIED.) ;
#408=B_SPLINE_CURVE_WITH_KNOTS('',4,(#409,#410,#411,#412,#413),.UNSPECIFIED.,.F.,.U.,(5,5),(0.,50.0740720753),.UNSPECIFIED.) ;
#465=B_SPLINE_CURVE_WITH_KNOTS('',5,(#466,#467,#468,#469,#470,#471,#472,#473,#474,#475,#476,#477,#478,#479,#480),.UNSPECIFIED.,.F.,.U.,(6,3,3,3,6),(0.,0.0187836194135,30.9340771689,80.9348490799,104.924407418),.UNSPECIFIED.) ;
#501=B_SPLINE_CURVE_WITH_KNOTS('',5,(#502,#503,#504,#505,#506,#507,#508,#509,#510,#511,#512,#513,#514,#515,#516),.UNSPECIFIED.,.F.,.U.,(6,3,3,3,6),(0.,0.0187836194134,30.9340771678,80.9348490785,104.924407417),.UNSPECIFIED.) ;
#537=B_SPLINE_CURVE_WITH_KNOTS('',5,(#538,#539,#540,#541,#542,#543,#544,#545,#546,#547,#548,#549),.UNSPECIFIED.,.F.,.U.,(6,3,3,6),(0.,0.0381417280572,30.9322155373,54.802491771),.UNSPECIFIED.) ;
#553=B_SPLINE_CURVE_WITH_KNOTS('',5,(#554,#555,#556,#557,#558,#559,#560,#561,#562,#563,#564,#565),.UNSPECIFIED.,.F.,.U.,(6,3,3,6),(0.,0.0381415998996,30.9328830729,50.0740720737),.UNSPECIFIED.) ;
#588=B_SPLINE_CURVE_WITH_KNOTS('',5,(#589,#590,#591,#592,#593,#594,#595,#596,#597,#598,#599,#600),.UNSPECIFIED.,.F.,.U.,(6,3,3,6),(0.,0.0381415998996,30.9328830723,50.0740720731),.UNSPECIFIED.) ;
#611=B_SPLINE_CURVE_WITH_KNOTS('',5,(#612,#613,#614,#615,#616,#617,#618,#619,#620,#621,#622,#623),.UNSPECIFIED.,.F.,.U.,(6,3,3,6),(0.,0.0381417280572,30.9322155397,54.8024917759),.UNSPECIFIED.) ;
#639=B_SPLINE_CURVE_WITH_KNOTS('',5,(#640,#641,#642,#643,#644,#645,#646,#647,#648,#649,#650,#651,#652,#653,#654),.UNSPECIFIED.,.F.,.U.,(6,3,3,3,6),(0.,0.0187836194135,30.9340771679,80.9348490768,104.924407414),.UNSPECIFIED.) ;
#675=B_SPLINE_CURVE_WITH_KNOTS('',5,(#676,#677,#678,#679,#680,#681,#682,#683,#684,#685,#686,#687,#688,#689,#690),.UNSPECIFIED.,.F.,.U.,(6,3,3,3,6),(0.,0.0187836194134,30.9340771701,80.9348490819,104.924407419),.UNSPECIFIED.) ;
#22=COLOUR_RGB('Colour',0.882352941176,0.882352941176,0.882352941176) ;
#81=FACE_OUTER_BOUND('',#76,.T.) ;
#110=FACE_OUTER_BOUND('',#105,.T.) ;
#141=FACE_OUTER_BOUND('',#136,.T.) ;
#165=FACE_OUTER_BOUND('',#162,.T.) ;
#181=FACE_OUTER_BOUND('',#176,.T.) ;
#205=FACE_OUTER_BOUND('',#202,.T.) ;
#240=FACE_OUTER_BOUND('',#235,.T.) ;
#252=FACE_OUTER_BOUND('',#247,.T.) ;
#347=FACE_OUTER_BOUND('',#339,.T.) ;
#423=FACE_OUTER_BOUND('',#415,.T.) ;
#433=FACE_OUTER_BOUND('',#430,.T.) ;
#494=FACE_OUTER_BOUND('',#489,.T.) ;
#530=FACE_OUTER_BOUND('',#525,.T.) ;
#581=FACE_OUTER_BOUND('',#574,.T.) ;
#632=FACE_OUTER_BOUND('',#625,.T.) ;
#668=FACE_OUTER_BOUND('',#663,.T.) ;
#697=FACE_OUTER_BOUND('',#692,.T.) ;
#728=FACE_OUTER_BOUND('',#723,.T.) ;
#740=FACE_OUTER_BOUND('',#735,.T.) ;
#774=FACE_OUTER_BOUND('',#766,.T.) ;
#789=FACE_OUTER_BOUND('',#781,.T.) ;
#813=FACE_OUTER_BOUND('',#810,.T.) ;
#822=FACE_OUTER_BOUND('',#819,.T.) ;
#871=FACE_OUTER_BOUND('',#866,.T.) ;
#888=FACE_OUTER_BOUND('',#883,.T.) ;
#910=FACE_OUTER_BOUND('',#905,.T.) ;
#917=FACE_OUTER_BOUND('',#912,.T.) ;
#7=PRODUCT_CATEGORY_RELATIONSHIP(' ',' ',#5,#6) ;
#17=PRODUCT_DEFINITION_FORMATION_WITH_SPECIFIED_SOURCE('A.1',' ',#16,.NOT_KNOWN.) ;
#20=SHAPE_DEFINITION_REPRESENTATION(#19,#13) ;
#8=(LENGTH_UNIT()NAMED_UNIT(*)SI_UNIT(.MILLI.,.METRE.)) ;
#9=(NAMED_UNIT(*)PLANE_ANGLE_UNIT()SI_UNIT($,.RADIAN.)) ;
#10=(NAMED_UNIT(*)SI_UNIT($,.STERADIAN.)SOLID_ANGLE_UNIT()) ;
#12=(GEOMETRIC_REPRESENTATION_CONTEXT(3)GLOBAL_UNCERTAINTY_ASSIGNED_CONTEXT((#11))GLOBAL_UNIT_ASSIGNED_CONTEXT((#8,#9,#10))REPRESENTATION_CONTEXT(' ',' ')) ;
ENDSEC;
END-ISO-10303-21;
