ISO-10303-21;
HEADER;
FILE_DESCRIPTION(('3DEXPERIENCE STEP','CAx-IF Rec.Pracs.--- Model Styling and Organization---1.5--- 2016-08-15','CAx-IF Rec.Pracs.---Supplemental Geometry---1.0---2011-11-01','CAx-IF Rec.Pracs.--- Composite Materials ---3.4---2017-06-13','CAx-IF Rec.Pracs.---Tessellated 3D Geometry---1.0---2015-12-17'),'2;1');

FILE_NAME('\\\\?\\D:\\School\\CarTech\\CTU.25\\Tutorials\\Model\\OEM\\Nut_M5.stp','2024-09-26T02:47:33+00:00',('none'),('none'),'3DEXPERIENCE Platform3DEXPERIENCE R2024x HotFix 4.24','3DEXPERIENCE Platform STEP AP242 v3','none');

FILE_SCHEMA(('AP242_MANAGED_MODEL_BASED_3D_ENGINEERING_MIM_LF  {1 0 10303 442 1 1 4}'));

ENDSEC;
DATA;
#16=PRODUCT('Nut_ISO_10511_M5_1','Nut_ISO_10511_M5_1','',(#2)) ;
#2=PRODUCT_CONTEXT(' ',#1,'mechanical') ;
#1=APPLICATION_CONTEXT('managed model based 3d engineering') ;
#18=PRODUCT_DEFINITION('Nut_ISO_10511_M5_1',' ',#17,#3) ;
#3=PRODUCT_DEFINITION_CONTEXT('part definition',#1,' ') ;
#19=PRODUCT_DEFINITION_SHAPE(' ',' ',#18) ;
#1075=MECHANICAL_DESIGN_GEOMETRIC_PRESENTATION_REPRESENTATION(' ',(#29),#12) ;
#5=PRODUCT_CATEGORY('part','specification') ;
#13=SHAPE_REPRESENTATION(' ',(#15,#21),#12) ;
#14=CARTESIAN_POINT('',(0.,0.,0.)) ;
#31=CARTESIAN_POINT('Axis2P3D Location',(5.,0.,0.)) ;
#36=CARTESIAN_POINT('Axis2P3D Location',(5.,-4.4408920985E-16,0.)) ;
#40=CARTESIAN_POINT('Vertex',(5.,3.83999999985,-2.49811096016E-15)) ;
#42=CARTESIAN_POINT('Vertex',(5.,-3.83999999985,4.70264370854E-16)) ;
#45=CARTESIAN_POINT('Axis2P3D Location',(5.,2.74222866636E-10,8.02651278775E-10)) ;
#49=CARTESIAN_POINT('Vertex',(5.,3.79801915586,-0.566260093823)) ;
#52=CARTESIAN_POINT('Axis2P3D Location',(5.,-2.771609382E-07,1.76516650185E-08)) ;
#62=CARTESIAN_POINT('Axis2P3D Location',(5.,-4.4408920985E-16,-4.4408920985E-16)) ;
#66=CARTESIAN_POINT('Vertex',(5.,2.06699999981,0.)) ;
#68=CARTESIAN_POINT('Vertex',(5.,-2.06699999981,6.9722370321E-16)) ;
#71=CARTESIAN_POINT('Axis2P3D Location',(5.,4.4408920985E-16,4.4408920985E-16)) ;
#81=CARTESIAN_POINT('Axis2P3D Location',(4.84,-2.22044604925E-16,1.33226762955E-15)) ;
#86=CARTESIAN_POINT('Axis2P3D Location',(4.84,3.84,5.32907051801E-17)) ;
#90=CARTESIAN_POINT('Vertex',(4.84,4.,-2.00015682519E-27)) ;
#93=CARTESIAN_POINT('Axis2P3D Location',(4.84,-2.22044604925E-16,1.33226762955E-15)) ;
#97=CARTESIAN_POINT('Vertex',(4.84,-4.,3.15439397876E-15)) ;
#100=CARTESIAN_POINT('Axis2P3D Location',(4.84,-3.84,3.08150892479E-15)) ;
#112=CARTESIAN_POINT('Axis2P3D Location',(4.84,0.,6.66133814775E-16)) ;
#117=CARTESIAN_POINT('Axis2P3D Location',(4.84,3.79801915554,-0.566260094093)) ;
#121=CARTESIAN_POINT('Vertex',(4.84,3.95626995369,-0.58985426468)) ;
#124=CARTESIAN_POINT('Axis2P3D Location',(4.84,0.,6.66133814775E-16)) ;
#136=CARTESIAN_POINT('Axis2P3D Location',(4.84,-2.22044604925E-16,1.33226762955E-15)) ;
#148=CARTESIAN_POINT('Axis2P3D Location',(2.50000000001,0.,0.)) ;
#153=CARTESIAN_POINT('Line Origine',(2.5,2.067,0.)) ;
#157=CARTESIAN_POINT('Vertex',(1.00000008274E-11,2.067,0.)) ;
#160=CARTESIAN_POINT('Line Origine',(2.5,-2.067,2.53134493384E-16)) ;
#164=CARTESIAN_POINT('Vertex',(1.00000008274E-11,-2.067,1.17106689014E-15)) ;
#167=CARTESIAN_POINT('Axis2P3D Location',(1.00000008274E-11,0.,0.)) ;
#179=CARTESIAN_POINT('Axis2P3D Location',(1.00000008274E-11,0.,0.)) ;
#191=CARTESIAN_POINT('Axis2P3D Location',(2.5,0.,0.)) ;
#196=CARTESIAN_POINT('Line Origine',(2.5,4.,0.)) ;
#200=CARTESIAN_POINT('Vertex',(2.44999999925,4.,0.)) ;
#203=CARTESIAN_POINT('Axis2P3D Location',(2.44999999925,0.,0.)) ;
#207=CARTESIAN_POINT('Vertex',(2.44999999925,2.,3.46410161514)) ;
#210=CARTESIAN_POINT('Axis2P3D Location',(2.44999999925,0.,0.)) ;
#214=CARTESIAN_POINT('Vertex',(2.44999999925,-2.,3.46410161514)) ;
#217=CARTESIAN_POINT('Axis2P3D Location',(2.44999999925,0.,0.)) ;
#221=CARTESIAN_POINT('Vertex',(2.44999999925,-4.,4.89858719659E-16)) ;
#224=CARTESIAN_POINT('Line Origine',(2.5,-4.,4.89858719659E-16)) ;
#238=CARTESIAN_POINT('Axis2P3D Location',(2.44999999925,0.,0.)) ;
#242=CARTESIAN_POINT('Vertex',(2.44999999925,-2.,-3.46410161514)) ;
#245=CARTESIAN_POINT('Axis2P3D Location',(2.44999999925,0.,0.)) ;
#249=CARTESIAN_POINT('Vertex',(2.44999999925,2.,-3.46410161514)) ;
#252=CARTESIAN_POINT('Axis2P3D Location',(2.44999999925,0.,0.)) ;
#267=CARTESIAN_POINT('Axis2P3D Location',(0.,0.,0.)) ;
#272=CARTESIAN_POINT('Line Origine',(0.,4.,0.)) ;
#276=CARTESIAN_POINT('Vertex',(0.,4.,-0.634428877383)) ;
#278=CARTESIAN_POINT('Vertex',(0.,4.,0.634428877383)) ;
#281=CARTESIAN_POINT('Axis2P3D Location',(0.,5.85199311232E-09,-3.40487193995E-09)) ;
#285=CARTESIAN_POINT('Vertex',(0.,2.54943152331,-3.1468871776)) ;
#288=CARTESIAN_POINT('Line Origine',(0.,1.99999999907,-3.46410161536)) ;
#292=CARTESIAN_POINT('Vertex',(0.,1.45056847483,-3.78131605312)) ;
#295=CARTESIAN_POINT('Axis2P3D Location',(0.,-9.31322463593E-10,-1.7798793106E-08)) ;
#299=CARTESIAN_POINT('Vertex',(0.,-1.45056847669,-3.78131605312)) ;
#302=CARTESIAN_POINT('Line Origine',(0.,-2.,-3.46410161536)) ;
#306=CARTESIAN_POINT('Vertex',(0.,-2.54943152331,-3.1468871776)) ;
#309=CARTESIAN_POINT('Axis2P3D Location',(0.,-5.8519935564E-09,-3.40487260608E-09)) ;
#313=CARTESIAN_POINT('Vertex',(0.,-4.,-0.634428877383)) ;
#316=CARTESIAN_POINT('Line Origine',(0.,-4.,0.)) ;
#320=CARTESIAN_POINT('Vertex',(0.,-4.,0.634428877383)) ;
#323=CARTESIAN_POINT('Axis2P3D Location',(0.,-5.85199311232E-09,3.40487193995E-09)) ;
#327=CARTESIAN_POINT('Vertex',(0.,-2.54943152331,3.1468871776)) ;
#330=CARTESIAN_POINT('Line Origine',(0.,-1.99999999907,3.46410161536)) ;
#334=CARTESIAN_POINT('Vertex',(0.,-1.45056847483,3.78131605312)) ;
#337=CARTESIAN_POINT('Axis2P3D Location',(0.,9.31322463593E-10,1.7798793106E-08)) ;
#341=CARTESIAN_POINT('Vertex',(0.,1.45056847669,3.78131605312)) ;
#344=CARTESIAN_POINT('Line Origine',(0.,2.,3.46410161536)) ;
#348=CARTESIAN_POINT('Vertex',(0.,2.54943152331,3.1468871776)) ;
#351=CARTESIAN_POINT('Axis2P3D Location',(0.,5.8519935564E-09,3.40487260608E-09)) ;
#375=CARTESIAN_POINT('Axis2P3D Location',(2.45,0.,0.)) ;
#380=CARTESIAN_POINT('Line Origine',(2.45,2.27471576165,3.30549439602)) ;
#384=CARTESIAN_POINT('Vertex',(2.45,2.54943152331,3.1468871776)) ;
#387=CARTESIAN_POINT('Line Origine',(2.45,4.,0.317214438692)) ;
#391=CARTESIAN_POINT('Vertex',(2.45,4.,0.634428877383)) ;
#394=CARTESIAN_POINT('Axis2P3D Location',(2.45,5.8519935564E-09,3.40487260608E-09)) ;
#406=CARTESIAN_POINT('Line Origine',(2.45,-1.72528423741,3.62270883378)) ;
#410=CARTESIAN_POINT('Vertex',(2.45,-1.45056847483,3.78131605312)) ;
#413=CARTESIAN_POINT('Line Origine',(2.45,1.72528423835,3.62270883378)) ;
#417=CARTESIAN_POINT('Vertex',(2.45,1.45056847669,3.78131605312)) ;
#420=CARTESIAN_POINT('Axis2P3D Location',(2.45,9.31322463593E-10,1.7798793106E-08)) ;
#432=CARTESIAN_POINT('Line Origine',(2.45,-4.,0.317214438692)) ;
#436=CARTESIAN_POINT('Vertex',(2.45,-4.,0.634428877383)) ;
#439=CARTESIAN_POINT('Line Origine',(2.45,-2.27471576165,3.30549439602)) ;
#443=CARTESIAN_POINT('Vertex',(2.45,-2.54943152331,3.1468871776)) ;
#446=CARTESIAN_POINT('Axis2P3D Location',(2.45,-5.85199311232E-09,3.40487193995E-09)) ;
#458=CARTESIAN_POINT('Line Origine',(2.45,-2.27471576165,-3.30549439602)) ;
#462=CARTESIAN_POINT('Vertex',(2.45,-2.54943152331,-3.1468871776)) ;
#465=CARTESIAN_POINT('Line Origine',(2.45,-4.,-0.317214438692)) ;
#469=CARTESIAN_POINT('Vertex',(2.45,-4.,-0.634428877383)) ;
#472=CARTESIAN_POINT('Axis2P3D Location',(2.45,-5.8519935564E-09,-3.40487260608E-09)) ;
#484=CARTESIAN_POINT('Line Origine',(2.45,1.72528423741,-3.62270883378)) ;
#488=CARTESIAN_POINT('Vertex',(2.45,1.45056847483,-3.78131605312)) ;
#491=CARTESIAN_POINT('Line Origine',(2.45,-1.72528423835,-3.62270883378)) ;
#495=CARTESIAN_POINT('Vertex',(2.45,-1.45056847669,-3.78131605312)) ;
#498=CARTESIAN_POINT('Axis2P3D Location',(2.45,-9.31322463593E-10,-1.7798793106E-08)) ;
#510=CARTESIAN_POINT('Line Origine',(2.45,4.,-0.317214438692)) ;
#514=CARTESIAN_POINT('Vertex',(2.45,4.,-0.634428877383)) ;
#517=CARTESIAN_POINT('Line Origine',(2.45,2.27471576165,-3.30549439602)) ;
#521=CARTESIAN_POINT('Vertex',(2.45,2.54943152331,-3.1468871776)) ;
#524=CARTESIAN_POINT('Axis2P3D Location',(2.45,5.85199311232E-09,-3.40487193995E-09)) ;
#536=CARTESIAN_POINT('Axis2P3D Location',(0.,4.,-2.30940107676)) ;
#542=CARTESIAN_POINT('Control Point',(3.64728241099E-11,4.,0.634428876911)) ;
#543=CARTESIAN_POINT('Control Point',(0.000692673875439,4.,0.642087690402)) ;
#544=CARTESIAN_POINT('Control Point',(0.00138534771441,4.,0.649746503894)) ;
#545=CARTESIAN_POINT('Control Point',(8.55392813577E-05,4.,0.635374101962)) ;
#546=CARTESIAN_POINT('Control Point',(0.0230569952503,4.,0.888906247498)) ;
#547=CARTESIAN_POINT('Control Point',(0.0577632152559,4.,1.14864960534)) ;
#548=CARTESIAN_POINT('Control Point',(0.105031250337,4.,1.41825360569)) ;
#549=CARTESIAN_POINT('Control Point',(0.178287861834,4.,1.75673132636)) ;
#550=CARTESIAN_POINT('Control Point',(0.277566520462,4.,2.12880621675)) ;
#551=CARTESIAN_POINT('Control Point',(0.293803319349,4.,2.18804169158)) ;
#552=CARTESIAN_POINT('Control Point',(0.310735977392,4.,2.24821777075)) ;
#553=CARTESIAN_POINT('Control Point',(0.328398076759,4.,2.30940107768)) ;
#554=CARTESIAN_POINT('Vertex',(0.328398076759,4.,2.30940107768)) ;
#557=CARTESIAN_POINT('Line Origine',(1.22500000056,4.,2.30940107768)) ;
#561=CARTESIAN_POINT('Vertex',(2.1216019243,4.,2.30940107768)) ;
#565=CARTESIAN_POINT('Control Point',(2.44999999996,4.,0.634428876911)) ;
#566=CARTESIAN_POINT('Control Point',(2.44930732612,4.,0.642087690403)) ;
#567=CARTESIAN_POINT('Control Point',(2.44861465228,4.,0.649746503894)) ;
#568=CARTESIAN_POINT('Control Point',(2.44991446072,4.,0.635374101962)) ;
#569=CARTESIAN_POINT('Control Point',(2.42694300475,4.,0.88890624749)) ;
#570=CARTESIAN_POINT('Control Point',(2.39223678475,4.,1.14864960532)) ;
#571=CARTESIAN_POINT('Control Point',(2.34496874965,4.,1.4182536057)) ;
#572=CARTESIAN_POINT('Control Point',(2.27171213816,4.,1.75673132637)) ;
#573=CARTESIAN_POINT('Control Point',(2.17243347953,4.,2.12880621675)) ;
#574=CARTESIAN_POINT('Control Point',(2.15619668065,4.,2.18804169158)) ;
#575=CARTESIAN_POINT('Control Point',(2.13926402261,4.,2.24821777075)) ;
#576=CARTESIAN_POINT('Control Point',(2.12160192324,4.,2.30940107768)) ;
#579=CARTESIAN_POINT('Control Point',(2.45000000004,4.,-0.634428875994)) ;
#580=CARTESIAN_POINT('Control Point',(2.44930732621,4.,-0.642087689486)) ;
#581=CARTESIAN_POINT('Control Point',(2.44861465237,4.,-0.649746502977)) ;
#582=CARTESIAN_POINT('Control Point',(2.4499144608,4.,-0.635374101045)) ;
#583=CARTESIAN_POINT('Control Point',(2.42694300487,4.,-0.888906246539)) ;
#584=CARTESIAN_POINT('Control Point',(2.3922367849,4.,-1.14864960433)) ;
#585=CARTESIAN_POINT('Control Point',(2.34496874984,4.,-1.41825360474)) ;
#586=CARTESIAN_POINT('Control Point',(2.27171213839,4.,-1.75673132538)) ;
#587=CARTESIAN_POINT('Control Point',(2.17243347982,4.,-2.12880621571)) ;
#588=CARTESIAN_POINT('Control Point',(2.15619668093,4.,-2.18804169058)) ;
#589=CARTESIAN_POINT('Control Point',(2.13926402288,4.,-2.24821776979)) ;
#590=CARTESIAN_POINT('Control Point',(2.1216019235,4.,-2.30940107676)) ;
#591=CARTESIAN_POINT('Vertex',(2.1216019235,4.,-2.30940107676)) ;
#594=CARTESIAN_POINT('Line Origine',(1.22500000056,4.,-2.30940107676)) ;
#598=CARTESIAN_POINT('Vertex',(0.328398076817,4.,-2.30940107676)) ;
#602=CARTESIAN_POINT('Control Point',(-4.64599271598E-11,4.,-0.634428875994)) ;
#603=CARTESIAN_POINT('Control Point',(0.000692673791958,4.,-0.642087689486)) ;
#604=CARTESIAN_POINT('Control Point',(0.00138534763038,4.,-0.649746502977)) ;
#605=CARTESIAN_POINT('Control Point',(8.55391982994E-05,4.,-0.635374101045)) ;
#606=CARTESIAN_POINT('Control Point',(0.023056995133,4.,-0.88890624656)) ;
#607=CARTESIAN_POINT('Control Point',(0.0577632150991,4.,-1.14864960437)) ;
#608=CARTESIAN_POINT('Control Point',(0.105031250148,4.,-1.4182536047)) ;
#609=CARTESIAN_POINT('Control Point',(0.178287861599,4.,-1.75673132535)) ;
#610=CARTESIAN_POINT('Control Point',(0.277566520179,4.,-2.12880621571)) ;
#611=CARTESIAN_POINT('Control Point',(0.293803319071,4.,-2.18804169058)) ;
#612=CARTESIAN_POINT('Control Point',(0.310735977119,4.,-2.24821776979)) ;
#613=CARTESIAN_POINT('Control Point',(0.328398076493,4.,-2.30940107676)) ;
#627=CARTESIAN_POINT('Axis2P3D Location',(4.65556482254E-11,0.,0.)) ;
#633=CARTESIAN_POINT('Control Point',(1.41821276944E-12,2.54943152395,-3.14688717688)) ;
#634=CARTESIAN_POINT('Control Point',(0.0340126413758,2.875120981,-2.9588502812)) ;
#635=CARTESIAN_POINT('Control Point',(0.0956870823353,3.21285160211,-2.76385915591)) ;
#636=CARTESIAN_POINT('Control Point',(0.187478996229,3.57724275921,-2.55348008354)) ;
#637=CARTESIAN_POINT('Control Point',(0.328398076494,4.,-2.30940107676)) ;
#645=CARTESIAN_POINT('Axis2P3D Location',(0.,6.88338275268E-15,-4.61880215352)) ;
#651=CARTESIAN_POINT('Control Point',(2.44999999996,2.5494315243,-3.14688717668)) ;
#652=CARTESIAN_POINT('Control Point',(2.44930732612,2.55606425135,-3.14305776994)) ;
#653=CARTESIAN_POINT('Control Point',(2.44861465228,2.5626969784,-3.13922836319)) ;
#654=CARTESIAN_POINT('Control Point',(2.44991446071,2.55025011321,-3.14641456416)) ;
#655=CARTESIAN_POINT('Control Point',(2.42694300475,2.76981539191,-3.01964849139)) ;
#656=CARTESIAN_POINT('Control Point',(2.39223678475,2.99475973826,-2.88977681248)) ;
#657=CARTESIAN_POINT('Control Point',(2.34496874965,3.22824365157,-2.75497481228)) ;
#658=CARTESIAN_POINT('Control Point',(2.27171213816,3.52137395627,-2.58573595195)) ;
#659=CARTESIAN_POINT('Control Point',(2.17243347953,3.84360026344,-2.39969850676)) ;
#660=CARTESIAN_POINT('Control Point',(2.15619668065,3.89489968945,-2.37008076935)) ;
#661=CARTESIAN_POINT('Control Point',(2.1392640226,3.94701370271,-2.33999272976)) ;
#662=CARTESIAN_POINT('Control Point',(2.12160192324,4.0000000008,-2.3094010763)) ;
#665=CARTESIAN_POINT('Control Point',(2.44999999987,1.45056847488,-3.78131605407)) ;
#666=CARTESIAN_POINT('Control Point',(2.44930732603,1.44393574783,-3.78514546082)) ;
#667=CARTESIAN_POINT('Control Point',(2.4486146522,1.43730302079,-3.78897486756)) ;
#668=CARTESIAN_POINT('Control Point',(2.44991446063,1.44974988597,-3.7817886666)) ;
#669=CARTESIAN_POINT('Control Point',(2.42694300463,1.23018460726,-3.90855473936)) ;
#670=CARTESIAN_POINT('Control Point',(2.39223678459,1.00524026089,-4.03842641829)) ;
#671=CARTESIAN_POINT('Control Point',(2.34496874946,0.771756347537,-4.17322841852)) ;
#672=CARTESIAN_POINT('Control Point',(2.27171213798,0.478626043102,-4.34246727869)) ;
#673=CARTESIAN_POINT('Control Point',(2.17243347943,0.156399736243,-4.5285047237)) ;
#674=CARTESIAN_POINT('Control Point',(2.15619668066,0.105100310596,-4.55812246091)) ;
#675=CARTESIAN_POINT('Control Point',(2.13926402274,0.052986297703,-4.58821050028)) ;
#676=CARTESIAN_POINT('Control Point',(2.1216019235,1.1394122569E-12,-4.61880215352)) ;
#677=CARTESIAN_POINT('Vertex',(2.1216019235,1.13953244207E-12,-4.61880215352)) ;
#680=CARTESIAN_POINT('Line Origine',(1.22500000056,6.88338275268E-15,-4.61880215352)) ;
#684=CARTESIAN_POINT('Vertex',(0.328398076817,6.88338275268E-15,-4.61880215352)) ;
#688=CARTESIAN_POINT('Control Point',(1.23571098558E-10,1.45056847488,-3.78131605407)) ;
#689=CARTESIAN_POINT('Control Point',(0.000692673962579,1.44393574783,-3.78514546082)) ;
#690=CARTESIAN_POINT('Control Point',(0.00138534780159,1.43730302079,-3.78897486756)) ;
#691=CARTESIAN_POINT('Control Point',(8.55393685872E-05,1.44974988597,-3.7817886666)) ;
#692=CARTESIAN_POINT('Control Point',(0.0230569953704,1.23018460727,-3.90855473936)) ;
#693=CARTESIAN_POINT('Control Point',(0.0577632154019,1.00524026091,-4.03842641828)) ;
#694=CARTESIAN_POINT('Control Point',(0.105031250551,0.77175634752,-4.17322841853)) ;
#695=CARTESIAN_POINT('Control Point',(0.178287862017,0.478626043094,-4.3424672787)) ;
#696=CARTESIAN_POINT('Control Point',(0.277566520567,0.156399736242,-4.5285047237)) ;
#697=CARTESIAN_POINT('Control Point',(0.293803319341,0.105100310595,-4.55812246091)) ;
#698=CARTESIAN_POINT('Control Point',(0.310735977261,0.0529862977018,-4.58821050028)) ;
#699=CARTESIAN_POINT('Control Point',(0.328398076495,-4.50974032875E-13,-4.61880215352)) ;
#714=CARTESIAN_POINT('Control Point',(1.13502263144E-12,-1.45056847605,-3.78131605339)) ;
#715=CARTESIAN_POINT('Control Point',(0.0340126413781,-1.12487901899,-3.96935294911)) ;
#716=CARTESIAN_POINT('Control Point',(0.0956870823305,-0.787146440495,-4.16434068395)) ;
#717=CARTESIAN_POINT('Control Point',(0.187478996218,-0.422757240831,-4.37472314672)) ;
#718=CARTESIAN_POINT('Control Point',(0.328398076495,2.48978615502E-12,-4.61880215352)) ;
#726=CARTESIAN_POINT('Axis2P3D Location',(0.,-4.,-2.30940107676)) ;
#732=CARTESIAN_POINT('Control Point',(2.44999999996,-1.4505684757,-3.7813160536)) ;
#733=CARTESIAN_POINT('Control Point',(2.44930732612,-1.44393574865,-3.78514546034)) ;
#734=CARTESIAN_POINT('Control Point',(2.44861465228,-1.43730302161,-3.78897486709)) ;
#735=CARTESIAN_POINT('Control Point',(2.44991446071,-1.44974988679,-3.78178866612)) ;
#736=CARTESIAN_POINT('Control Point',(2.42694300475,-1.2301846081,-3.90855473888)) ;
#737=CARTESIAN_POINT('Control Point',(2.39223678475,-1.00524026178,-4.03842641778)) ;
#738=CARTESIAN_POINT('Control Point',(2.34496874964,-0.771756348414,-4.17322841801)) ;
#739=CARTESIAN_POINT('Control Point',(2.27171213815,-0.478626043717,-4.34246727834)) ;
#740=CARTESIAN_POINT('Control Point',(2.17243347953,-0.156399736557,-4.52850472352)) ;
#741=CARTESIAN_POINT('Control Point',(2.15619668065,-0.105100310552,-4.55812246093)) ;
#742=CARTESIAN_POINT('Control Point',(2.1392640226,-0.0529862972897,-4.58821050052)) ;
#743=CARTESIAN_POINT('Control Point',(2.12160192324,7.944764846E-10,-4.61880215398)) ;
#746=CARTESIAN_POINT('Control Point',(2.45000000004,-2.5494315235,-3.14688717714)) ;
#747=CARTESIAN_POINT('Control Point',(2.4493073262,-2.55606425055,-3.1430577704)) ;
#748=CARTESIAN_POINT('Control Point',(2.44861465237,-2.5626969776,-3.13922836365)) ;
#749=CARTESIAN_POINT('Control Point',(2.4499144608,-2.55025011241,-3.14641456462)) ;
#750=CARTESIAN_POINT('Control Point',(2.42694300486,-2.76981539109,-3.01964849187)) ;
#751=CARTESIAN_POINT('Control Point',(2.39223678491,-2.99475973739,-2.88977681298)) ;
#752=CARTESIAN_POINT('Control Point',(2.34496874984,-3.22824365071,-2.75497481277)) ;
#753=CARTESIAN_POINT('Control Point',(2.27171213839,-3.5213739554,-2.58573595245)) ;
#754=CARTESIAN_POINT('Control Point',(2.17243347982,-3.84360026254,-2.39969850729)) ;
#755=CARTESIAN_POINT('Control Point',(2.15619668093,-3.89489968858,-2.37008076985)) ;
#756=CARTESIAN_POINT('Control Point',(2.13926402288,-3.94701370188,-2.33999273024)) ;
#757=CARTESIAN_POINT('Control Point',(2.1216019235,-4.,-2.30940107676)) ;
#758=CARTESIAN_POINT('Vertex',(2.1216019235,-4.,-2.30940107676)) ;
#761=CARTESIAN_POINT('Line Origine',(1.22500000056,-4.,-2.30940107676)) ;
#765=CARTESIAN_POINT('Vertex',(0.328398076817,-4.,-2.30940107676)) ;
#769=CARTESIAN_POINT('Control Point',(-4.58143548055E-11,-2.5494315235,-3.14688717714)) ;
#770=CARTESIAN_POINT('Control Point',(0.000692673792555,-2.55606425055,-3.1430577704)) ;
#771=CARTESIAN_POINT('Control Point',(0.00138534763092,-2.5626969776,-3.13922836365)) ;
#772=CARTESIAN_POINT('Control Point',(8.55391989434E-05,-2.55025011241,-3.14641456462)) ;
#773=CARTESIAN_POINT('Control Point',(0.0230569951317,-2.76981539108,-3.01964849187)) ;
#774=CARTESIAN_POINT('Control Point',(0.057763215092,-2.99475973739,-2.88977681298)) ;
#775=CARTESIAN_POINT('Control Point',(0.105031250157,-3.22824365071,-2.75497481277)) ;
#776=CARTESIAN_POINT('Control Point',(0.178287861606,-3.5213739554,-2.58573595245)) ;
#777=CARTESIAN_POINT('Control Point',(0.277566520179,-3.84360026254,-2.39969850729)) ;
#778=CARTESIAN_POINT('Control Point',(0.293803319071,-3.89489968858,-2.37008076985)) ;
#779=CARTESIAN_POINT('Control Point',(0.310735977119,-3.94701370188,-2.33999273024)) ;
#780=CARTESIAN_POINT('Control Point',(0.328398076493,-4.,-2.30940107676)) ;
#795=CARTESIAN_POINT('Control Point',(4.64954047485E-11,-4.,-0.634428877022)) ;
#796=CARTESIAN_POINT('Control Point',(0.0340126414359,-4.,-1.01050266833)) ;
#797=CARTESIAN_POINT('Control Point',(0.0956870823933,-3.99999804256,-1.40048152829)) ;
#798=CARTESIAN_POINT('Control Point',(0.187478996264,-4.,-1.82124306333)) ;
#799=CARTESIAN_POINT('Control Point',(0.328398076494,-4.,-2.30940107676)) ;
#807=CARTESIAN_POINT('Axis2P3D Location',(0.,-4.,2.30940107676)) ;
#813=CARTESIAN_POINT('Control Point',(2.45000000004,-4.,0.634428875994)) ;
#814=CARTESIAN_POINT('Control Point',(2.44930732621,-4.,0.642087689486)) ;
#815=CARTESIAN_POINT('Control Point',(2.44861465237,-4.,0.649746502977)) ;
#816=CARTESIAN_POINT('Control Point',(2.4499144608,-4.,0.635374101045)) ;
#817=CARTESIAN_POINT('Control Point',(2.42694300486,-4.,0.888906246582)) ;
#818=CARTESIAN_POINT('Control Point',(2.39223678489,-4.,1.14864960442)) ;
#819=CARTESIAN_POINT('Control Point',(2.34496874985,-4.,1.41825360465)) ;
#820=CARTESIAN_POINT('Control Point',(2.27171213841,-4.,1.75673132532)) ;
#821=CARTESIAN_POINT('Control Point',(2.17243347982,-4.,2.12880621571)) ;
#822=CARTESIAN_POINT('Control Point',(2.15619668093,-4.,2.18804169058)) ;
#823=CARTESIAN_POINT('Control Point',(2.13926402288,-4.,2.24821776979)) ;
#824=CARTESIAN_POINT('Control Point',(2.1216019235,-4.,2.30940107676)) ;
#825=CARTESIAN_POINT('Vertex',(2.1216019235,-4.,2.30940107676)) ;
#828=CARTESIAN_POINT('Line Origine',(1.22500000056,-4.,2.30940107676)) ;
#832=CARTESIAN_POINT('Vertex',(0.328398076817,-4.,2.30940107676)) ;
#836=CARTESIAN_POINT('Control Point',(-4.64596943816E-11,-4.,0.634428875994)) ;
#837=CARTESIAN_POINT('Control Point',(0.000692673791965,-4.,0.642087689486)) ;
#838=CARTESIAN_POINT('Control Point',(0.00138534763039,-4.,0.649746502977)) ;
#839=CARTESIAN_POINT('Control Point',(8.5539198299E-05,-4.,0.635374101045)) ;
#840=CARTESIAN_POINT('Control Point',(0.0230569951298,-4.,0.888906246526)) ;
#841=CARTESIAN_POINT('Control Point',(0.0577632150873,-4.,1.14864960429)) ;
#842=CARTESIAN_POINT('Control Point',(0.105031250157,-4.,1.41825360477)) ;
#843=CARTESIAN_POINT('Control Point',(0.178287861612,-4.,1.7567313254)) ;
#844=CARTESIAN_POINT('Control Point',(0.277566520179,-4.,2.12880621571)) ;
#845=CARTESIAN_POINT('Control Point',(0.293803319071,-4.,2.18804169058)) ;
#846=CARTESIAN_POINT('Control Point',(0.310735977119,-4.,2.24821776979)) ;
#847=CARTESIAN_POINT('Control Point',(0.328398076493,-4.,2.30940107676)) ;
#850=CARTESIAN_POINT('Control Point',(2.44999999996,-4.,-0.634428876911)) ;
#851=CARTESIAN_POINT('Control Point',(2.44930732612,-4.,-0.642087690403)) ;
#852=CARTESIAN_POINT('Control Point',(2.44861465228,-4.,-0.649746503894)) ;
#853=CARTESIAN_POINT('Control Point',(2.44991446072,-4.,-0.635374101962)) ;
#854=CARTESIAN_POINT('Control Point',(2.42694300475,-4.,-0.888906247491)) ;
#855=CARTESIAN_POINT('Control Point',(2.39223678475,-4.,-1.14864960532)) ;
#856=CARTESIAN_POINT('Control Point',(2.34496874965,-4.,-1.41825360571)) ;
#857=CARTESIAN_POINT('Control Point',(2.27171213816,-4.,-1.75673132637)) ;
#858=CARTESIAN_POINT('Control Point',(2.17243347953,-4.,-2.12880621675)) ;
#859=CARTESIAN_POINT('Control Point',(2.15619668065,-4.,-2.18804169158)) ;
#860=CARTESIAN_POINT('Control Point',(2.13926402261,-4.,-2.24821777075)) ;
#861=CARTESIAN_POINT('Control Point',(2.12160192324,-4.,-2.30940107768)) ;
#876=CARTESIAN_POINT('Control Point',(1.41843481405E-12,-2.54943152395,3.14688717688)) ;
#877=CARTESIAN_POINT('Control Point',(0.034012641375,-2.87512098099,2.9588502812)) ;
#878=CARTESIAN_POINT('Control Point',(0.0956870823352,-3.21285160211,2.76385915591)) ;
#879=CARTESIAN_POINT('Control Point',(0.18747899623,-3.57724275921,2.55348008353)) ;
#880=CARTESIAN_POINT('Control Point',(0.328398076494,-4.,2.30940107676)) ;
#888=CARTESIAN_POINT('Axis2P3D Location',(0.,-7.1054273576E-15,4.61880215352)) ;
#894=CARTESIAN_POINT('Control Point',(2.44999999996,-2.5494315243,3.14688717668)) ;
#895=CARTESIAN_POINT('Control Point',(2.44930732612,-2.55606425135,3.14305776994)) ;
#896=CARTESIAN_POINT('Control Point',(2.44861465228,-2.5626969784,3.13922836319)) ;
#897=CARTESIAN_POINT('Control Point',(2.44991446071,-2.55025011321,3.14641456416)) ;
#898=CARTESIAN_POINT('Control Point',(2.42694300475,-2.76981539191,3.01964849139)) ;
#899=CARTESIAN_POINT('Control Point',(2.39223678474,-2.99475973825,2.88977681248)) ;
#900=CARTESIAN_POINT('Control Point',(2.34496874965,-3.22824365156,2.75497481228)) ;
#901=CARTESIAN_POINT('Control Point',(2.27171213816,-3.52137395626,2.58573595195)) ;
#902=CARTESIAN_POINT('Control Point',(2.17243347953,-3.84360026344,2.39969850676)) ;
#903=CARTESIAN_POINT('Control Point',(2.15619668065,-3.89489968945,2.37008076935)) ;
#904=CARTESIAN_POINT('Control Point',(2.1392640226,-3.94701370271,2.33999272976)) ;
#905=CARTESIAN_POINT('Control Point',(2.12160192324,-4.0000000008,2.3094010763)) ;
#908=CARTESIAN_POINT('Control Point',(2.44999999987,-1.45056847488,3.78131605407)) ;
#909=CARTESIAN_POINT('Control Point',(2.44930732603,-1.44393574783,3.78514546082)) ;
#910=CARTESIAN_POINT('Control Point',(2.4486146522,-1.43730302079,3.78897486756)) ;
#911=CARTESIAN_POINT('Control Point',(2.44991446063,-1.44974988597,3.7817886666)) ;
#912=CARTESIAN_POINT('Control Point',(2.42694300462,-1.23018460725,3.90855473937)) ;
#913=CARTESIAN_POINT('Control Point',(2.39223678458,-1.00524026086,4.03842641831)) ;
#914=CARTESIAN_POINT('Control Point',(2.34496874946,-0.771756347572,4.1732284185)) ;
#915=CARTESIAN_POINT('Control Point',(2.27171213799,-0.478626043121,4.34246727868)) ;
#916=CARTESIAN_POINT('Control Point',(2.17243347943,-0.156399736243,4.5285047237)) ;
#917=CARTESIAN_POINT('Control Point',(2.15619668066,-0.105100310596,4.55812246091)) ;
#918=CARTESIAN_POINT('Control Point',(2.13926402274,-0.052986297703,4.58821050028)) ;
#919=CARTESIAN_POINT('Control Point',(2.1216019235,-1.14047559768E-12,4.61880215352)) ;
#920=CARTESIAN_POINT('Vertex',(2.1216019235,-1.14066789395E-12,4.61880215352)) ;
#923=CARTESIAN_POINT('Line Origine',(1.22500000056,-7.1054273576E-15,4.61880215352)) ;
#927=CARTESIAN_POINT('Vertex',(0.328398076817,-7.1054273576E-15,4.61880215352)) ;
#931=CARTESIAN_POINT('Control Point',(1.23571195702E-10,-1.45056847488,3.78131605407)) ;
#932=CARTESIAN_POINT('Control Point',(0.000692673962622,-1.44393574783,3.78514546082)) ;
#933=CARTESIAN_POINT('Control Point',(0.00138534780167,-1.43730302079,3.78897486756)) ;
#934=CARTESIAN_POINT('Control Point',(8.55393685871E-05,-1.44974988597,3.7817886666)) ;
#935=CARTESIAN_POINT('Control Point',(0.0230569953723,-1.23018460725,3.90855473937)) ;
#936=CARTESIAN_POINT('Control Point',(0.0577632154118,-1.00524026088,4.0384264183)) ;
#937=CARTESIAN_POINT('Control Point',(0.105031250542,-0.771756347556,4.17322841851)) ;
#938=CARTESIAN_POINT('Control Point',(0.178287862009,-0.478626043118,4.34246727868)) ;
#939=CARTESIAN_POINT('Control Point',(0.277566520567,-0.156399736242,4.5285047237)) ;
#940=CARTESIAN_POINT('Control Point',(0.293803319341,-0.105100310595,4.55812246091)) ;
#941=CARTESIAN_POINT('Control Point',(0.310735977261,-0.0529862977018,4.58821050028)) ;
#942=CARTESIAN_POINT('Control Point',(0.328398076495,4.49526099558E-13,4.61880215352)) ;
#957=CARTESIAN_POINT('Control Point',(1.13509202038E-12,1.45056847605,3.78131605339)) ;
#958=CARTESIAN_POINT('Control Point',(0.0340126413779,1.12487901898,3.96935294911)) ;
#959=CARTESIAN_POINT('Control Point',(0.0956870823275,0.787146440503,4.16434068394)) ;
#960=CARTESIAN_POINT('Control Point',(0.187478996216,0.422757240837,4.37472314672)) ;
#961=CARTESIAN_POINT('Control Point',(0.328398076495,-2.48212561615E-12,4.61880215352)) ;
#969=CARTESIAN_POINT('Axis2P3D Location',(0.,4.,2.30940107676)) ;
#975=CARTESIAN_POINT('Control Point',(-4.58144920655E-11,2.5494315235,3.14688717714)) ;
#976=CARTESIAN_POINT('Control Point',(0.000692673792595,2.55606425055,3.1430577704)) ;
#977=CARTESIAN_POINT('Control Point',(0.00138534763101,2.5626969776,3.13922836365)) ;
#978=CARTESIAN_POINT('Control Point',(8.55391989439E-05,2.55025011241,3.14641456462)) ;
#979=CARTESIAN_POINT('Control Point',(0.0230569951314,2.76981539108,3.01964849187)) ;
#980=CARTESIAN_POINT('Control Point',(0.05776321509,2.99475973739,2.88977681298)) ;
#981=CARTESIAN_POINT('Control Point',(0.105031250156,3.22824365072,2.75497481277)) ;
#982=CARTESIAN_POINT('Control Point',(0.178287861608,3.5213739554,2.58573595245)) ;
#983=CARTESIAN_POINT('Control Point',(0.277566520179,3.84360026254,2.39969850729)) ;
#984=CARTESIAN_POINT('Control Point',(0.293803319071,3.89489968858,2.37008076985)) ;
#985=CARTESIAN_POINT('Control Point',(0.310735977119,3.94701370188,2.33999273024)) ;
#986=CARTESIAN_POINT('Control Point',(0.328398076493,4.,2.30940107676)) ;
#989=CARTESIAN_POINT('Control Point',(2.44999999996,1.4505684757,3.7813160536)) ;
#990=CARTESIAN_POINT('Control Point',(2.44930732612,1.44393574865,3.78514546034)) ;
#991=CARTESIAN_POINT('Control Point',(2.44861465228,1.43730302161,3.78897486709)) ;
#992=CARTESIAN_POINT('Control Point',(2.44991446071,1.44974988679,3.78178866612)) ;
#993=CARTESIAN_POINT('Control Point',(2.42694300475,1.2301846081,3.90855473888)) ;
#994=CARTESIAN_POINT('Control Point',(2.39223678475,1.00524026177,4.03842641779)) ;
#995=CARTESIAN_POINT('Control Point',(2.34496874965,0.771756348426,4.17322841801)) ;
#996=CARTESIAN_POINT('Control Point',(2.27171213816,0.478626043729,4.34246727833)) ;
#997=CARTESIAN_POINT('Control Point',(2.17243347953,0.156399736557,4.52850472352)) ;
#998=CARTESIAN_POINT('Control Point',(2.15619668065,0.105100310552,4.55812246093)) ;
#999=CARTESIAN_POINT('Control Point',(2.1392640226,0.0529862972897,4.58821050052)) ;
#1000=CARTESIAN_POINT('Control Point',(2.12160192324,-7.94479149135E-10,4.61880215398)) ;
#1003=CARTESIAN_POINT('Control Point',(2.45000000004,2.5494315235,3.14688717714)) ;
#1004=CARTESIAN_POINT('Control Point',(2.4493073262,2.55606425055,3.1430577704)) ;
#1005=CARTESIAN_POINT('Control Point',(2.44861465237,2.5626969776,3.13922836365)) ;
#1006=CARTESIAN_POINT('Control Point',(2.4499144608,2.55025011241,3.14641456462)) ;
#1007=CARTESIAN_POINT('Control Point',(2.42694300486,2.7698153911,3.01964849186)) ;
#1008=CARTESIAN_POINT('Control Point',(2.3922367849,2.99475973743,2.88977681296)) ;
#1009=CARTESIAN_POINT('Control Point',(2.34496874985,3.22824365068,2.75497481279)) ;
#1010=CARTESIAN_POINT('Control Point',(2.2717121384,3.52137395538,2.58573595246)) ;
#1011=CARTESIAN_POINT('Control Point',(2.17243347982,3.84360026254,2.39969850729)) ;
#1012=CARTESIAN_POINT('Control Point',(2.15619668093,3.89489968858,2.37008076985)) ;
#1013=CARTESIAN_POINT('Control Point',(2.13926402288,3.94701370188,2.33999273024)) ;
#1014=CARTESIAN_POINT('Control Point',(2.1216019235,4.,2.30940107676)) ;
#1034=CARTESIAN_POINT('Axis2P3D Location',(2.44999999995,0.,0.)) ;
#6=PRODUCT_RELATED_PRODUCT_CATEGORY('part',$,(#16)) ;
#11=UNCERTAINTY_MEASURE_WITH_UNIT(LENGTH_MEASURE(0.005),#8,'distance_accuracy_value','CONFUSED CURVE UNCERTAINTY') ;
#29=STYLED_ITEM(' ',(#28),#21) ;
#28=PRESENTATION_STYLE_ASSIGNMENT((#27)) ;
#27=SURFACE_STYLE_USAGE(.BOTH.,#26) ;
#26=SURFACE_SIDE_STYLE(' ',(#25)) ;
#25=SURFACE_STYLE_FILL_AREA(#24) ;
#24=FILL_AREA_STYLE(' ',(#23)) ;
#23=FILL_AREA_STYLE_COLOUR(' ',#22) ;
#155=VECTOR('Line Direction',#154,1.) ;
#162=VECTOR('Line Direction',#161,1.) ;
#198=VECTOR('Line Direction',#197,1.) ;
#226=VECTOR('Line Direction',#225,1.) ;
#274=VECTOR('Line Direction',#273,1.) ;
#290=VECTOR('Line Direction',#289,1.) ;
#304=VECTOR('Line Direction',#303,1.) ;
#318=VECTOR('Line Direction',#317,1.) ;
#332=VECTOR('Line Direction',#331,1.) ;
#346=VECTOR('Line Direction',#345,1.) ;
#382=VECTOR('Line Direction',#381,1.) ;
#389=VECTOR('Line Direction',#388,1.) ;
#408=VECTOR('Line Direction',#407,1.) ;
#415=VECTOR('Line Direction',#414,1.) ;
#434=VECTOR('Line Direction',#433,1.) ;
#441=VECTOR('Line Direction',#440,1.) ;
#460=VECTOR('Line Direction',#459,1.) ;
#467=VECTOR('Line Direction',#466,1.) ;
#486=VECTOR('Line Direction',#485,1.) ;
#493=VECTOR('Line Direction',#492,1.) ;
#512=VECTOR('Line Direction',#511,1.) ;
#519=VECTOR('Line Direction',#518,1.) ;
#559=VECTOR('Line Direction',#558,1.) ;
#596=VECTOR('Line Direction',#595,1.) ;
#682=VECTOR('Line Direction',#681,1.) ;
#763=VECTOR('Line Direction',#762,1.) ;
#830=VECTOR('Line Direction',#829,1.) ;
#925=VECTOR('Line Direction',#924,1.) ;
#32=DIRECTION('Axis2P3D Direction',(1.,0.,0.)) ;
#33=DIRECTION('Axis2P3D XDirection',(0.,1.,0.)) ;
#37=DIRECTION('Axis2P3D Direction',(1.,0.,0.)) ;
#46=DIRECTION('Axis2P3D Direction',(1.,0.,0.)) ;
#53=DIRECTION('Axis2P3D Direction',(1.,0.,0.)) ;
#63=DIRECTION('Axis2P3D Direction',(1.,0.,0.)) ;
#72=DIRECTION('Axis2P3D Direction',(1.,0.,0.)) ;
#82=DIRECTION('Axis2P3D Direction',(1.,-0.,0.)) ;
#83=DIRECTION('Axis2P3D XDirection',(0.,1.,-3.33066907388E-16)) ;
#87=DIRECTION('Axis2P3D Direction',(0.,-3.33066907388E-16,-1.)) ;
#94=DIRECTION('Axis2P3D Direction',(1.,-0.,0.)) ;
#101=DIRECTION('Axis2P3D Direction',(0.,4.55531587303E-16,1.)) ;
#113=DIRECTION('Axis2P3D Direction',(1.,0.,-0.)) ;
#114=DIRECTION('Axis2P3D XDirection',(0.,-0.989067488421,0.14746356617)) ;
#118=DIRECTION('Axis2P3D Direction',(0.,-0.14746356617,-0.989067488421)) ;
#125=DIRECTION('Axis2P3D Direction',(1.,0.,0.)) ;
#137=DIRECTION('Axis2P3D Direction',(1.,-0.,0.)) ;
#149=DIRECTION('Axis2P3D Direction',(1.,0.,0.)) ;
#150=DIRECTION('Axis2P3D XDirection',(0.,1.,-2.38528333724E-32)) ;
#154=DIRECTION('Vector Direction',(1.,0.,0.)) ;
#161=DIRECTION('Vector Direction',(1.,0.,0.)) ;
#168=DIRECTION('Axis2P3D Direction',(1.,0.,0.)) ;
#180=DIRECTION('Axis2P3D Direction',(1.,0.,0.)) ;
#192=DIRECTION('Axis2P3D Direction',(1.,0.,0.)) ;
#193=DIRECTION('Axis2P3D XDirection',(0.,1.,-5.00039206297E-28)) ;
#197=DIRECTION('Vector Direction',(1.,0.,0.)) ;
#204=DIRECTION('Axis2P3D Direction',(1.,0.,0.)) ;
#211=DIRECTION('Axis2P3D Direction',(1.,0.,0.)) ;
#218=DIRECTION('Axis2P3D Direction',(1.,0.,0.)) ;
#225=DIRECTION('Vector Direction',(1.,0.,0.)) ;
#239=DIRECTION('Axis2P3D Direction',(1.,0.,0.)) ;
#246=DIRECTION('Axis2P3D Direction',(1.,0.,0.)) ;
#253=DIRECTION('Axis2P3D Direction',(1.,0.,0.)) ;
#268=DIRECTION('Axis2P3D Direction',(1.,0.,0.)) ;
#269=DIRECTION('Axis2P3D XDirection',(0.,1.,0.)) ;
#273=DIRECTION('Vector Direction',(0.,0.,1.)) ;
#282=DIRECTION('Axis2P3D Direction',(1.,0.,0.)) ;
#289=DIRECTION('Vector Direction',(0.,0.866025404235,0.499999999219)) ;
#296=DIRECTION('Axis2P3D Direction',(1.,0.,0.)) ;
#303=DIRECTION('Vector Direction',(0.,0.866025403868,-0.499999999855)) ;
#310=DIRECTION('Axis2P3D Direction',(1.,0.,0.)) ;
#317=DIRECTION('Vector Direction',(0.,0.,-1.)) ;
#324=DIRECTION('Axis2P3D Direction',(1.,0.,0.)) ;
#331=DIRECTION('Vector Direction',(0.,-0.866025404235,-0.499999999219)) ;
#338=DIRECTION('Axis2P3D Direction',(1.,0.,0.)) ;
#345=DIRECTION('Vector Direction',(0.,-0.866025403868,0.499999999855)) ;
#352=DIRECTION('Axis2P3D Direction',(1.,0.,0.)) ;
#376=DIRECTION('Axis2P3D Direction',(1.,0.,0.)) ;
#377=DIRECTION('Axis2P3D XDirection',(0.,1.,0.)) ;
#381=DIRECTION('Vector Direction',(0.,-0.866025404504,0.499999998754)) ;
#388=DIRECTION('Vector Direction',(0.,0.,1.)) ;
#395=DIRECTION('Axis2P3D Direction',(1.,0.,0.)) ;
#407=DIRECTION('Vector Direction',(0.,-0.866025403967,-0.499999999684)) ;
#414=DIRECTION('Vector Direction',(0.,-0.866025403233,0.500000000956)) ;
#421=DIRECTION('Axis2P3D Direction',(1.,0.,0.)) ;
#433=DIRECTION('Vector Direction',(0.,0.,-1.)) ;
#440=DIRECTION('Vector Direction',(0.,-0.866025404504,-0.499999998754)) ;
#447=DIRECTION('Axis2P3D Direction',(1.,0.,0.)) ;
#459=DIRECTION('Vector Direction',(0.,0.866025404504,-0.499999998754)) ;
#466=DIRECTION('Vector Direction',(0.,0.,-1.)) ;
#473=DIRECTION('Axis2P3D Direction',(1.,0.,0.)) ;
#485=DIRECTION('Vector Direction',(0.,0.866025403967,0.499999999684)) ;
#492=DIRECTION('Vector Direction',(0.,0.866025403233,-0.500000000956)) ;
#499=DIRECTION('Axis2P3D Direction',(1.,0.,0.)) ;
#511=DIRECTION('Vector Direction',(0.,0.,1.)) ;
#518=DIRECTION('Vector Direction',(0.,0.866025404504,0.499999998754)) ;
#525=DIRECTION('Axis2P3D Direction',(1.,0.,0.)) ;
#537=DIRECTION('Axis2P3D Direction',(0.,1.,0.)) ;
#538=DIRECTION('Axis2P3D XDirection',(0.,0.,1.)) ;
#558=DIRECTION('Vector Direction',(1.,0.,0.)) ;
#595=DIRECTION('Vector Direction',(1.,0.,0.)) ;
#628=DIRECTION('Axis2P3D Direction',(1.,0.,0.)) ;
#629=DIRECTION('Axis2P3D XDirection',(0.,0.866025403907,0.499999999787)) ;
#646=DIRECTION('Axis2P3D Direction',(0.,0.5,-0.866025403784)) ;
#647=DIRECTION('Axis2P3D XDirection',(0.,0.866025403784,0.5)) ;
#681=DIRECTION('Vector Direction',(1.,0.,0.)) ;
#727=DIRECTION('Axis2P3D Direction',(0.,-0.5,-0.866025403784)) ;
#728=DIRECTION('Axis2P3D XDirection',(0.,0.866025403784,-0.5)) ;
#762=DIRECTION('Vector Direction',(1.,0.,0.)) ;
#808=DIRECTION('Axis2P3D Direction',(0.,-1.,0.)) ;
#809=DIRECTION('Axis2P3D XDirection',(0.,0.,-1.)) ;
#829=DIRECTION('Vector Direction',(1.,0.,0.)) ;
#889=DIRECTION('Axis2P3D Direction',(0.,-0.5,0.866025403784)) ;
#890=DIRECTION('Axis2P3D XDirection',(0.,-0.866025403784,-0.5)) ;
#924=DIRECTION('Vector Direction',(1.,0.,0.)) ;
#970=DIRECTION('Axis2P3D Direction',(-0.,0.5,0.866025403784)) ;
#971=DIRECTION('Axis2P3D XDirection',(0.,-0.866025403784,0.5)) ;
#1035=DIRECTION('Axis2P3D Direction',(-1.,0.,0.)) ;
#1036=DIRECTION('Axis2P3D XDirection',(0.,0.866025403907,0.499999999787)) ;
#15=AXIS2_PLACEMENT_3D('',#14,$,$) ;
#34=AXIS2_PLACEMENT_3D('Plane Axis2P3D',#31,#32,#33) ;
#38=AXIS2_PLACEMENT_3D('Circle Axis2P3D',#36,#37,$) ;
#47=AXIS2_PLACEMENT_3D('Circle Axis2P3D',#45,#46,$) ;
#54=AXIS2_PLACEMENT_3D('Circle Axis2P3D',#52,#53,$) ;
#64=AXIS2_PLACEMENT_3D('Circle Axis2P3D',#62,#63,$) ;
#73=AXIS2_PLACEMENT_3D('Circle Axis2P3D',#71,#72,$) ;
#84=AXIS2_PLACEMENT_3D('Torus Axis2P3D',#81,#82,#83) ;
#88=AXIS2_PLACEMENT_3D('Circle Axis2P3D',#86,#87,$) ;
#95=AXIS2_PLACEMENT_3D('Circle Axis2P3D',#93,#94,$) ;
#102=AXIS2_PLACEMENT_3D('Circle Axis2P3D',#100,#101,$) ;
#115=AXIS2_PLACEMENT_3D('Torus Axis2P3D',#112,#113,#114) ;
#119=AXIS2_PLACEMENT_3D('Circle Axis2P3D',#117,#118,$) ;
#126=AXIS2_PLACEMENT_3D('Circle Axis2P3D',#124,#125,$) ;
#138=AXIS2_PLACEMENT_3D('Circle Axis2P3D',#136,#137,$) ;
#151=AXIS2_PLACEMENT_3D('Cylinder Axis2P3D',#148,#149,#150) ;
#169=AXIS2_PLACEMENT_3D('Circle Axis2P3D',#167,#168,$) ;
#181=AXIS2_PLACEMENT_3D('Circle Axis2P3D',#179,#180,$) ;
#194=AXIS2_PLACEMENT_3D('Cylinder Axis2P3D',#191,#192,#193) ;
#205=AXIS2_PLACEMENT_3D('Circle Axis2P3D',#203,#204,$) ;
#212=AXIS2_PLACEMENT_3D('Circle Axis2P3D',#210,#211,$) ;
#219=AXIS2_PLACEMENT_3D('Circle Axis2P3D',#217,#218,$) ;
#240=AXIS2_PLACEMENT_3D('Circle Axis2P3D',#238,#239,$) ;
#247=AXIS2_PLACEMENT_3D('Circle Axis2P3D',#245,#246,$) ;
#254=AXIS2_PLACEMENT_3D('Circle Axis2P3D',#252,#253,$) ;
#270=AXIS2_PLACEMENT_3D('Plane Axis2P3D',#267,#268,#269) ;
#283=AXIS2_PLACEMENT_3D('Circle Axis2P3D',#281,#282,$) ;
#297=AXIS2_PLACEMENT_3D('Circle Axis2P3D',#295,#296,$) ;
#311=AXIS2_PLACEMENT_3D('Circle Axis2P3D',#309,#310,$) ;
#325=AXIS2_PLACEMENT_3D('Circle Axis2P3D',#323,#324,$) ;
#339=AXIS2_PLACEMENT_3D('Circle Axis2P3D',#337,#338,$) ;
#353=AXIS2_PLACEMENT_3D('Circle Axis2P3D',#351,#352,$) ;
#378=AXIS2_PLACEMENT_3D('Plane Axis2P3D',#375,#376,#377) ;
#396=AXIS2_PLACEMENT_3D('Circle Axis2P3D',#394,#395,$) ;
#422=AXIS2_PLACEMENT_3D('Circle Axis2P3D',#420,#421,$) ;
#448=AXIS2_PLACEMENT_3D('Circle Axis2P3D',#446,#447,$) ;
#474=AXIS2_PLACEMENT_3D('Circle Axis2P3D',#472,#473,$) ;
#500=AXIS2_PLACEMENT_3D('Circle Axis2P3D',#498,#499,$) ;
#526=AXIS2_PLACEMENT_3D('Circle Axis2P3D',#524,#525,$) ;
#539=AXIS2_PLACEMENT_3D('Plane Axis2P3D',#536,#537,#538) ;
#630=AXIS2_PLACEMENT_3D('Cone Axis2P3D',#627,#628,#629) ;
#648=AXIS2_PLACEMENT_3D('Plane Axis2P3D',#645,#646,#647) ;
#729=AXIS2_PLACEMENT_3D('Plane Axis2P3D',#726,#727,#728) ;
#810=AXIS2_PLACEMENT_3D('Plane Axis2P3D',#807,#808,#809) ;
#891=AXIS2_PLACEMENT_3D('Plane Axis2P3D',#888,#889,#890) ;
#972=AXIS2_PLACEMENT_3D('Plane Axis2P3D',#969,#970,#971) ;
#1037=AXIS2_PLACEMENT_3D('Cone Axis2P3D',#1034,#1035,#1036) ;
#156=LINE('Line',#153,#155) ;
#163=LINE('Line',#160,#162) ;
#199=LINE('Line',#196,#198) ;
#227=LINE('Line',#224,#226) ;
#275=LINE('Line',#272,#274) ;
#291=LINE('Line',#288,#290) ;
#305=LINE('Line',#302,#304) ;
#319=LINE('Line',#316,#318) ;
#333=LINE('Line',#330,#332) ;
#347=LINE('Line',#344,#346) ;
#383=LINE('Line',#380,#382) ;
#390=LINE('Line',#387,#389) ;
#409=LINE('Line',#406,#408) ;
#416=LINE('Line',#413,#415) ;
#435=LINE('Line',#432,#434) ;
#442=LINE('Line',#439,#441) ;
#461=LINE('Line',#458,#460) ;
#468=LINE('Line',#465,#467) ;
#487=LINE('Line',#484,#486) ;
#494=LINE('Line',#491,#493) ;
#513=LINE('Line',#510,#512) ;
#520=LINE('Line',#517,#519) ;
#560=LINE('Line',#557,#559) ;
#597=LINE('Line',#594,#596) ;
#683=LINE('Line',#680,#682) ;
#764=LINE('Line',#761,#763) ;
#831=LINE('Line',#828,#830) ;
#926=LINE('Line',#923,#925) ;
#39=CIRCLE('generated circle',#38,3.83999999985) ;
#48=CIRCLE('generated circle',#47,3.84000000013) ;
#55=CIRCLE('generated circle',#54,3.84000027701) ;
#65=CIRCLE('generated circle',#64,2.06699999981) ;
#74=CIRCLE('generated circle',#73,2.06699999981) ;
#89=CIRCLE('generated circle',#88,0.16) ;
#96=CIRCLE('generated circle',#95,4.) ;
#103=CIRCLE('generated circle',#102,0.16) ;
#120=CIRCLE('generated circle',#119,0.16) ;
#127=CIRCLE('generated circle',#126,4.) ;
#139=CIRCLE('generated circle',#138,4.) ;
#170=CIRCLE('generated circle',#169,2.067) ;
#182=CIRCLE('generated circle',#181,2.067) ;
#206=CIRCLE('generated circle',#205,4.) ;
#213=CIRCLE('generated circle',#212,4.) ;
#220=CIRCLE('generated circle',#219,4.) ;
#241=CIRCLE('generated circle',#240,4.) ;
#248=CIRCLE('generated circle',#247,4.) ;
#255=CIRCLE('generated circle',#254,4.) ;
#284=CIRCLE('generated circle',#283,4.04999999374) ;
#298=CIRCLE('generated circle',#297,4.04999998295) ;
#312=CIRCLE('generated circle',#311,4.04999999374) ;
#326=CIRCLE('generated circle',#325,4.04999999374) ;
#340=CIRCLE('generated circle',#339,4.04999998295) ;
#354=CIRCLE('generated circle',#353,4.04999999374) ;
#397=CIRCLE('generated circle',#396,4.04999999374) ;
#423=CIRCLE('generated circle',#422,4.04999998295) ;
#449=CIRCLE('generated circle',#448,4.04999999374) ;
#475=CIRCLE('generated circle',#474,4.04999999374) ;
#501=CIRCLE('generated circle',#500,4.04999998295) ;
#527=CIRCLE('generated circle',#526,4.04999999374) ;
#35=PLANE('',#34) ;
#271=PLANE('',#270) ;
#379=PLANE('',#378) ;
#540=PLANE('',#539) ;
#649=PLANE('',#648) ;
#730=PLANE('',#729) ;
#811=PLANE('',#810) ;
#892=PLANE('',#891) ;
#973=PLANE('',#972) ;
#152=CYLINDRICAL_SURFACE('generated cylinder',#151,2.067) ;
#195=CYLINDRICAL_SURFACE('generated cylinder',#194,4.) ;
#631=CONICAL_SURFACE('Cone',#630,4.05,1.0471975512) ;
#1038=CONICAL_SURFACE('Cone',#1037,4.05,1.0471975512) ;
#85=TOROIDAL_SURFACE('homeo Torus',#84,3.84,0.16) ;
#116=TOROIDAL_SURFACE('homeo Torus',#115,3.84,0.16) ;
#79=FACE_BOUND('',#76,.T.) ;
#373=FACE_BOUND('',#370,.T.) ;
#44=EDGE_CURVE('',#41,#43,#39,.T.) ;
#51=EDGE_CURVE('',#43,#50,#48,.T.) ;
#56=EDGE_CURVE('',#50,#41,#55,.T.) ;
#70=EDGE_CURVE('',#67,#69,#65,.T.) ;
#75=EDGE_CURVE('',#69,#67,#74,.T.) ;
#92=EDGE_CURVE('',#41,#91,#89,.F.) ;
#99=EDGE_CURVE('',#91,#98,#96,.T.) ;
#104=EDGE_CURVE('',#43,#98,#103,.F.) ;
#123=EDGE_CURVE('',#122,#50,#120,.T.) ;
#128=EDGE_CURVE('',#98,#122,#127,.T.) ;
#140=EDGE_CURVE('',#122,#91,#139,.T.) ;
#159=EDGE_CURVE('',#158,#67,#156,.T.) ;
#166=EDGE_CURVE('',#165,#69,#163,.T.) ;
#171=EDGE_CURVE('',#158,#165,#170,.T.) ;
#183=EDGE_CURVE('',#165,#158,#182,.T.) ;
#202=EDGE_CURVE('',#201,#91,#199,.T.) ;
#209=EDGE_CURVE('',#201,#208,#206,.T.) ;
#216=EDGE_CURVE('',#208,#215,#213,.T.) ;
#223=EDGE_CURVE('',#215,#222,#220,.T.) ;
#228=EDGE_CURVE('',#222,#98,#227,.T.) ;
#244=EDGE_CURVE('',#222,#243,#241,.T.) ;
#251=EDGE_CURVE('',#243,#250,#248,.T.) ;
#256=EDGE_CURVE('',#250,#201,#255,.T.) ;
#280=EDGE_CURVE('',#277,#279,#275,.T.) ;
#287=EDGE_CURVE('',#277,#286,#284,.F.) ;
#294=EDGE_CURVE('',#293,#286,#291,.T.) ;
#301=EDGE_CURVE('',#293,#300,#298,.F.) ;
#308=EDGE_CURVE('',#307,#300,#305,.T.) ;
#315=EDGE_CURVE('',#307,#314,#312,.F.) ;
#322=EDGE_CURVE('',#321,#314,#319,.T.) ;
#329=EDGE_CURVE('',#321,#328,#326,.F.) ;
#336=EDGE_CURVE('',#335,#328,#333,.T.) ;
#343=EDGE_CURVE('',#335,#342,#340,.F.) ;
#350=EDGE_CURVE('',#349,#342,#347,.T.) ;
#355=EDGE_CURVE('',#349,#279,#354,.F.) ;
#386=EDGE_CURVE('',#385,#208,#383,.T.) ;
#393=EDGE_CURVE('',#201,#392,#390,.T.) ;
#398=EDGE_CURVE('',#385,#392,#397,.F.) ;
#412=EDGE_CURVE('',#411,#215,#409,.T.) ;
#419=EDGE_CURVE('',#208,#418,#416,.T.) ;
#424=EDGE_CURVE('',#411,#418,#423,.F.) ;
#438=EDGE_CURVE('',#437,#222,#435,.T.) ;
#445=EDGE_CURVE('',#215,#444,#442,.T.) ;
#450=EDGE_CURVE('',#437,#444,#449,.F.) ;
#464=EDGE_CURVE('',#463,#243,#461,.T.) ;
#471=EDGE_CURVE('',#222,#470,#468,.T.) ;
#476=EDGE_CURVE('',#463,#470,#475,.F.) ;
#490=EDGE_CURVE('',#489,#250,#487,.T.) ;
#497=EDGE_CURVE('',#243,#496,#494,.T.) ;
#502=EDGE_CURVE('',#489,#496,#501,.F.) ;
#516=EDGE_CURVE('',#515,#201,#513,.T.) ;
#523=EDGE_CURVE('',#250,#522,#520,.T.) ;
#528=EDGE_CURVE('',#515,#522,#527,.F.) ;
#556=EDGE_CURVE('',#279,#555,#541,.T.) ;
#563=EDGE_CURVE('',#555,#562,#560,.T.) ;
#577=EDGE_CURVE('',#392,#562,#564,.T.) ;
#593=EDGE_CURVE('',#515,#592,#578,.T.) ;
#600=EDGE_CURVE('',#599,#592,#597,.T.) ;
#614=EDGE_CURVE('',#277,#599,#601,.T.) ;
#638=EDGE_CURVE('',#286,#599,#632,.T.) ;
#663=EDGE_CURVE('',#522,#592,#650,.T.) ;
#679=EDGE_CURVE('',#489,#678,#664,.T.) ;
#686=EDGE_CURVE('',#685,#678,#683,.T.) ;
#700=EDGE_CURVE('',#293,#685,#687,.T.) ;
#719=EDGE_CURVE('',#300,#685,#713,.T.) ;
#744=EDGE_CURVE('',#496,#678,#731,.T.) ;
#760=EDGE_CURVE('',#463,#759,#745,.T.) ;
#767=EDGE_CURVE('',#766,#759,#764,.T.) ;
#781=EDGE_CURVE('',#307,#766,#768,.T.) ;
#800=EDGE_CURVE('',#314,#766,#794,.T.) ;
#827=EDGE_CURVE('',#437,#826,#812,.T.) ;
#834=EDGE_CURVE('',#833,#826,#831,.T.) ;
#848=EDGE_CURVE('',#321,#833,#835,.T.) ;
#862=EDGE_CURVE('',#470,#759,#849,.T.) ;
#881=EDGE_CURVE('',#328,#833,#875,.T.) ;
#906=EDGE_CURVE('',#444,#826,#893,.T.) ;
#922=EDGE_CURVE('',#411,#921,#907,.T.) ;
#929=EDGE_CURVE('',#928,#921,#926,.T.) ;
#943=EDGE_CURVE('',#335,#928,#930,.T.) ;
#962=EDGE_CURVE('',#342,#928,#956,.T.) ;
#987=EDGE_CURVE('',#349,#555,#974,.T.) ;
#1001=EDGE_CURVE('',#418,#921,#988,.T.) ;
#1015=EDGE_CURVE('',#385,#562,#1002,.T.) ;
#30=CLOSED_SHELL('Closed Shell',(#80,#111,#135,#147,#178,#190,#237,#266,#374,#405,#431,#457,#483,#509,#535,#626,#644,#712,#725,#793,#806,#874,#887,#955,#968,#1027,#1033,#1044,#1050,#1056,#1062,#1068,#1074)) ;
#58=ORIENTED_EDGE('',*,*,#44,.T.) ;
#59=ORIENTED_EDGE('',*,*,#51,.T.) ;
#60=ORIENTED_EDGE('',*,*,#56,.T.) ;
#77=ORIENTED_EDGE('',*,*,#70,.F.) ;
#78=ORIENTED_EDGE('',*,*,#75,.F.) ;
#106=ORIENTED_EDGE('',*,*,#92,.T.) ;
#107=ORIENTED_EDGE('',*,*,#99,.T.) ;
#108=ORIENTED_EDGE('',*,*,#104,.F.) ;
#109=ORIENTED_EDGE('',*,*,#44,.F.) ;
#130=ORIENTED_EDGE('',*,*,#123,.T.) ;
#131=ORIENTED_EDGE('',*,*,#51,.F.) ;
#132=ORIENTED_EDGE('',*,*,#104,.T.) ;
#133=ORIENTED_EDGE('',*,*,#128,.T.) ;
#142=ORIENTED_EDGE('',*,*,#123,.F.) ;
#143=ORIENTED_EDGE('',*,*,#140,.T.) ;
#144=ORIENTED_EDGE('',*,*,#92,.F.) ;
#145=ORIENTED_EDGE('',*,*,#56,.F.) ;
#173=ORIENTED_EDGE('',*,*,#159,.T.) ;
#174=ORIENTED_EDGE('',*,*,#70,.T.) ;
#175=ORIENTED_EDGE('',*,*,#166,.F.) ;
#176=ORIENTED_EDGE('',*,*,#171,.F.) ;
#185=ORIENTED_EDGE('',*,*,#166,.T.) ;
#186=ORIENTED_EDGE('',*,*,#75,.T.) ;
#187=ORIENTED_EDGE('',*,*,#159,.F.) ;
#188=ORIENTED_EDGE('',*,*,#183,.F.) ;
#230=ORIENTED_EDGE('',*,*,#202,.F.) ;
#231=ORIENTED_EDGE('',*,*,#209,.T.) ;
#232=ORIENTED_EDGE('',*,*,#216,.T.) ;
#233=ORIENTED_EDGE('',*,*,#223,.T.) ;
#234=ORIENTED_EDGE('',*,*,#228,.T.) ;
#235=ORIENTED_EDGE('',*,*,#99,.F.) ;
#258=ORIENTED_EDGE('',*,*,#228,.F.) ;
#259=ORIENTED_EDGE('',*,*,#244,.T.) ;
#260=ORIENTED_EDGE('',*,*,#251,.T.) ;
#261=ORIENTED_EDGE('',*,*,#256,.T.) ;
#262=ORIENTED_EDGE('',*,*,#202,.T.) ;
#263=ORIENTED_EDGE('',*,*,#140,.F.) ;
#264=ORIENTED_EDGE('',*,*,#128,.F.) ;
#357=ORIENTED_EDGE('',*,*,#280,.F.) ;
#358=ORIENTED_EDGE('',*,*,#287,.T.) ;
#359=ORIENTED_EDGE('',*,*,#294,.F.) ;
#360=ORIENTED_EDGE('',*,*,#301,.T.) ;
#361=ORIENTED_EDGE('',*,*,#308,.F.) ;
#362=ORIENTED_EDGE('',*,*,#315,.T.) ;
#363=ORIENTED_EDGE('',*,*,#322,.F.) ;
#364=ORIENTED_EDGE('',*,*,#329,.T.) ;
#365=ORIENTED_EDGE('',*,*,#336,.F.) ;
#366=ORIENTED_EDGE('',*,*,#343,.T.) ;
#367=ORIENTED_EDGE('',*,*,#350,.F.) ;
#368=ORIENTED_EDGE('',*,*,#355,.T.) ;
#371=ORIENTED_EDGE('',*,*,#183,.T.) ;
#372=ORIENTED_EDGE('',*,*,#171,.T.) ;
#400=ORIENTED_EDGE('',*,*,#386,.T.) ;
#401=ORIENTED_EDGE('',*,*,#209,.F.) ;
#402=ORIENTED_EDGE('',*,*,#393,.T.) ;
#403=ORIENTED_EDGE('',*,*,#398,.F.) ;
#426=ORIENTED_EDGE('',*,*,#412,.T.) ;
#427=ORIENTED_EDGE('',*,*,#216,.F.) ;
#428=ORIENTED_EDGE('',*,*,#419,.T.) ;
#429=ORIENTED_EDGE('',*,*,#424,.F.) ;
#452=ORIENTED_EDGE('',*,*,#438,.T.) ;
#453=ORIENTED_EDGE('',*,*,#223,.F.) ;
#454=ORIENTED_EDGE('',*,*,#445,.T.) ;
#455=ORIENTED_EDGE('',*,*,#450,.F.) ;
#478=ORIENTED_EDGE('',*,*,#464,.T.) ;
#479=ORIENTED_EDGE('',*,*,#244,.F.) ;
#480=ORIENTED_EDGE('',*,*,#471,.T.) ;
#481=ORIENTED_EDGE('',*,*,#476,.F.) ;
#504=ORIENTED_EDGE('',*,*,#490,.T.) ;
#505=ORIENTED_EDGE('',*,*,#251,.F.) ;
#506=ORIENTED_EDGE('',*,*,#497,.T.) ;
#507=ORIENTED_EDGE('',*,*,#502,.F.) ;
#530=ORIENTED_EDGE('',*,*,#516,.T.) ;
#531=ORIENTED_EDGE('',*,*,#256,.F.) ;
#532=ORIENTED_EDGE('',*,*,#523,.T.) ;
#533=ORIENTED_EDGE('',*,*,#528,.F.) ;
#616=ORIENTED_EDGE('',*,*,#556,.T.) ;
#617=ORIENTED_EDGE('',*,*,#563,.T.) ;
#618=ORIENTED_EDGE('',*,*,#577,.F.) ;
#619=ORIENTED_EDGE('',*,*,#393,.F.) ;
#620=ORIENTED_EDGE('',*,*,#516,.F.) ;
#621=ORIENTED_EDGE('',*,*,#593,.T.) ;
#622=ORIENTED_EDGE('',*,*,#600,.F.) ;
#623=ORIENTED_EDGE('',*,*,#614,.F.) ;
#624=ORIENTED_EDGE('',*,*,#280,.T.) ;
#640=ORIENTED_EDGE('',*,*,#614,.T.) ;
#641=ORIENTED_EDGE('',*,*,#638,.F.) ;
#642=ORIENTED_EDGE('',*,*,#287,.F.) ;
#702=ORIENTED_EDGE('',*,*,#638,.T.) ;
#703=ORIENTED_EDGE('',*,*,#600,.T.) ;
#704=ORIENTED_EDGE('',*,*,#663,.F.) ;
#705=ORIENTED_EDGE('',*,*,#523,.F.) ;
#706=ORIENTED_EDGE('',*,*,#490,.F.) ;
#707=ORIENTED_EDGE('',*,*,#679,.T.) ;
#708=ORIENTED_EDGE('',*,*,#686,.F.) ;
#709=ORIENTED_EDGE('',*,*,#700,.F.) ;
#710=ORIENTED_EDGE('',*,*,#294,.T.) ;
#721=ORIENTED_EDGE('',*,*,#719,.F.) ;
#722=ORIENTED_EDGE('',*,*,#301,.F.) ;
#723=ORIENTED_EDGE('',*,*,#700,.T.) ;
#783=ORIENTED_EDGE('',*,*,#719,.T.) ;
#784=ORIENTED_EDGE('',*,*,#686,.T.) ;
#785=ORIENTED_EDGE('',*,*,#744,.F.) ;
#786=ORIENTED_EDGE('',*,*,#497,.F.) ;
#787=ORIENTED_EDGE('',*,*,#464,.F.) ;
#788=ORIENTED_EDGE('',*,*,#760,.T.) ;
#789=ORIENTED_EDGE('',*,*,#767,.F.) ;
#790=ORIENTED_EDGE('',*,*,#781,.F.) ;
#791=ORIENTED_EDGE('',*,*,#308,.T.) ;
#802=ORIENTED_EDGE('',*,*,#800,.F.) ;
#803=ORIENTED_EDGE('',*,*,#315,.F.) ;
#804=ORIENTED_EDGE('',*,*,#781,.T.) ;
#864=ORIENTED_EDGE('',*,*,#471,.F.) ;
#865=ORIENTED_EDGE('',*,*,#438,.F.) ;
#866=ORIENTED_EDGE('',*,*,#827,.T.) ;
#867=ORIENTED_EDGE('',*,*,#834,.F.) ;
#868=ORIENTED_EDGE('',*,*,#848,.F.) ;
#869=ORIENTED_EDGE('',*,*,#322,.T.) ;
#870=ORIENTED_EDGE('',*,*,#800,.T.) ;
#871=ORIENTED_EDGE('',*,*,#767,.T.) ;
#872=ORIENTED_EDGE('',*,*,#862,.F.) ;
#883=ORIENTED_EDGE('',*,*,#881,.F.) ;
#884=ORIENTED_EDGE('',*,*,#329,.F.) ;
#885=ORIENTED_EDGE('',*,*,#848,.T.) ;
#945=ORIENTED_EDGE('',*,*,#881,.T.) ;
#946=ORIENTED_EDGE('',*,*,#834,.T.) ;
#947=ORIENTED_EDGE('',*,*,#906,.F.) ;
#948=ORIENTED_EDGE('',*,*,#445,.F.) ;
#949=ORIENTED_EDGE('',*,*,#412,.F.) ;
#950=ORIENTED_EDGE('',*,*,#922,.T.) ;
#951=ORIENTED_EDGE('',*,*,#929,.F.) ;
#952=ORIENTED_EDGE('',*,*,#943,.F.) ;
#953=ORIENTED_EDGE('',*,*,#336,.T.) ;
#964=ORIENTED_EDGE('',*,*,#962,.F.) ;
#965=ORIENTED_EDGE('',*,*,#343,.F.) ;
#966=ORIENTED_EDGE('',*,*,#943,.T.) ;
#1017=ORIENTED_EDGE('',*,*,#563,.F.) ;
#1018=ORIENTED_EDGE('',*,*,#987,.F.) ;
#1019=ORIENTED_EDGE('',*,*,#350,.T.) ;
#1020=ORIENTED_EDGE('',*,*,#962,.T.) ;
#1021=ORIENTED_EDGE('',*,*,#929,.T.) ;
#1022=ORIENTED_EDGE('',*,*,#1001,.F.) ;
#1023=ORIENTED_EDGE('',*,*,#419,.F.) ;
#1024=ORIENTED_EDGE('',*,*,#386,.F.) ;
#1025=ORIENTED_EDGE('',*,*,#1015,.T.) ;
#1029=ORIENTED_EDGE('',*,*,#987,.T.) ;
#1030=ORIENTED_EDGE('',*,*,#556,.F.) ;
#1031=ORIENTED_EDGE('',*,*,#355,.F.) ;
#1040=ORIENTED_EDGE('',*,*,#398,.T.) ;
#1041=ORIENTED_EDGE('',*,*,#577,.T.) ;
#1042=ORIENTED_EDGE('',*,*,#1015,.F.) ;
#1046=ORIENTED_EDGE('',*,*,#922,.F.) ;
#1047=ORIENTED_EDGE('',*,*,#424,.T.) ;
#1048=ORIENTED_EDGE('',*,*,#1001,.T.) ;
#1052=ORIENTED_EDGE('',*,*,#827,.F.) ;
#1053=ORIENTED_EDGE('',*,*,#450,.T.) ;
#1054=ORIENTED_EDGE('',*,*,#906,.T.) ;
#1058=ORIENTED_EDGE('',*,*,#760,.F.) ;
#1059=ORIENTED_EDGE('',*,*,#476,.T.) ;
#1060=ORIENTED_EDGE('',*,*,#862,.T.) ;
#1064=ORIENTED_EDGE('',*,*,#679,.F.) ;
#1065=ORIENTED_EDGE('',*,*,#502,.T.) ;
#1066=ORIENTED_EDGE('',*,*,#744,.T.) ;
#1070=ORIENTED_EDGE('',*,*,#528,.T.) ;
#1071=ORIENTED_EDGE('',*,*,#663,.T.) ;
#1072=ORIENTED_EDGE('',*,*,#593,.F.) ;
#57=EDGE_LOOP('',(#58,#59,#60)) ;
#76=EDGE_LOOP('',(#77,#78)) ;
#105=EDGE_LOOP('',(#106,#107,#108,#109)) ;
#129=EDGE_LOOP('',(#130,#131,#132,#133)) ;
#141=EDGE_LOOP('',(#142,#143,#144,#145)) ;
#172=EDGE_LOOP('',(#173,#174,#175,#176)) ;
#184=EDGE_LOOP('',(#185,#186,#187,#188)) ;
#229=EDGE_LOOP('',(#230,#231,#232,#233,#234,#235)) ;
#257=EDGE_LOOP('',(#258,#259,#260,#261,#262,#263,#264)) ;
#356=EDGE_LOOP('',(#357,#358,#359,#360,#361,#362,#363,#364,#365,#366,#367,#368)) ;
#370=EDGE_LOOP('',(#371,#372)) ;
#399=EDGE_LOOP('',(#400,#401,#402,#403)) ;
#425=EDGE_LOOP('',(#426,#427,#428,#429)) ;
#451=EDGE_LOOP('',(#452,#453,#454,#455)) ;
#477=EDGE_LOOP('',(#478,#479,#480,#481)) ;
#503=EDGE_LOOP('',(#504,#505,#506,#507)) ;
#529=EDGE_LOOP('',(#530,#531,#532,#533)) ;
#615=EDGE_LOOP('',(#616,#617,#618,#619,#620,#621,#622,#623,#624)) ;
#639=EDGE_LOOP('',(#640,#641,#642)) ;
#701=EDGE_LOOP('',(#702,#703,#704,#705,#706,#707,#708,#709,#710)) ;
#720=EDGE_LOOP('',(#721,#722,#723)) ;
#782=EDGE_LOOP('',(#783,#784,#785,#786,#787,#788,#789,#790,#791)) ;
#801=EDGE_LOOP('',(#802,#803,#804)) ;
#863=EDGE_LOOP('',(#864,#865,#866,#867,#868,#869,#870,#871,#872)) ;
#882=EDGE_LOOP('',(#883,#884,#885)) ;
#944=EDGE_LOOP('',(#945,#946,#947,#948,#949,#950,#951,#952,#953)) ;
#963=EDGE_LOOP('',(#964,#965,#966)) ;
#1016=EDGE_LOOP('',(#1017,#1018,#1019,#1020,#1021,#1022,#1023,#1024,#1025)) ;
#1028=EDGE_LOOP('',(#1029,#1030,#1031)) ;
#1039=EDGE_LOOP('',(#1040,#1041,#1042)) ;
#1045=EDGE_LOOP('',(#1046,#1047,#1048)) ;
#1051=EDGE_LOOP('',(#1052,#1053,#1054)) ;
#1057=EDGE_LOOP('',(#1058,#1059,#1060)) ;
#1063=EDGE_LOOP('',(#1064,#1065,#1066)) ;
#1069=EDGE_LOOP('',(#1070,#1071,#1072)) ;
#21=MANIFOLD_SOLID_BREP('Body.2',#30) ;
#41=VERTEX_POINT('',#40) ;
#43=VERTEX_POINT('',#42) ;
#50=VERTEX_POINT('',#49) ;
#67=VERTEX_POINT('',#66) ;
#69=VERTEX_POINT('',#68) ;
#91=VERTEX_POINT('',#90) ;
#98=VERTEX_POINT('',#97) ;
#122=VERTEX_POINT('',#121) ;
#158=VERTEX_POINT('',#157) ;
#165=VERTEX_POINT('',#164) ;
#201=VERTEX_POINT('',#200) ;
#208=VERTEX_POINT('',#207) ;
#215=VERTEX_POINT('',#214) ;
#222=VERTEX_POINT('',#221) ;
#243=VERTEX_POINT('',#242) ;
#250=VERTEX_POINT('',#249) ;
#277=VERTEX_POINT('',#276) ;
#279=VERTEX_POINT('',#278) ;
#286=VERTEX_POINT('',#285) ;
#293=VERTEX_POINT('',#292) ;
#300=VERTEX_POINT('',#299) ;
#307=VERTEX_POINT('',#306) ;
#314=VERTEX_POINT('',#313) ;
#321=VERTEX_POINT('',#320) ;
#328=VERTEX_POINT('',#327) ;
#335=VERTEX_POINT('',#334) ;
#342=VERTEX_POINT('',#341) ;
#349=VERTEX_POINT('',#348) ;
#385=VERTEX_POINT('',#384) ;
#392=VERTEX_POINT('',#391) ;
#411=VERTEX_POINT('',#410) ;
#418=VERTEX_POINT('',#417) ;
#437=VERTEX_POINT('',#436) ;
#444=VERTEX_POINT('',#443) ;
#463=VERTEX_POINT('',#462) ;
#470=VERTEX_POINT('',#469) ;
#489=VERTEX_POINT('',#488) ;
#496=VERTEX_POINT('',#495) ;
#515=VERTEX_POINT('',#514) ;
#522=VERTEX_POINT('',#521) ;
#555=VERTEX_POINT('',#554) ;
#562=VERTEX_POINT('',#561) ;
#592=VERTEX_POINT('',#591) ;
#599=VERTEX_POINT('',#598) ;
#678=VERTEX_POINT('',#677) ;
#685=VERTEX_POINT('',#684) ;
#759=VERTEX_POINT('',#758) ;
#766=VERTEX_POINT('',#765) ;
#826=VERTEX_POINT('',#825) ;
#833=VERTEX_POINT('',#832) ;
#921=VERTEX_POINT('',#920) ;
#928=VERTEX_POINT('',#927) ;
#80=ADVANCED_FACE('Body.2',(#61,#79),#35,.T.) ;
#111=ADVANCED_FACE('Body.2',(#110),#85,.T.) ;
#135=ADVANCED_FACE('Body.2',(#134),#116,.T.) ;
#147=ADVANCED_FACE('Body.2',(#146),#85,.T.) ;
#178=ADVANCED_FACE('Body.2',(#177),#152,.F.) ;
#190=ADVANCED_FACE('Body.2',(#189),#152,.F.) ;
#237=ADVANCED_FACE('Body.2',(#236),#195,.T.) ;
#266=ADVANCED_FACE('Body.2',(#265),#195,.T.) ;
#374=ADVANCED_FACE('Body.2',(#369,#373),#271,.F.) ;
#405=ADVANCED_FACE('Body.2',(#404),#379,.T.) ;
#431=ADVANCED_FACE('Body.2',(#430),#379,.T.) ;
#457=ADVANCED_FACE('Body.2',(#456),#379,.T.) ;
#483=ADVANCED_FACE('Body.2',(#482),#379,.T.) ;
#509=ADVANCED_FACE('Body.2',(#508),#379,.T.) ;
#535=ADVANCED_FACE('Body.2',(#534),#379,.T.) ;
#626=ADVANCED_FACE('Body.2',(#625),#540,.T.) ;
#644=ADVANCED_FACE('Body.2',(#643),#631,.T.) ;
#712=ADVANCED_FACE('Body.2',(#711),#649,.T.) ;
#725=ADVANCED_FACE('Body.2',(#724),#631,.T.) ;
#793=ADVANCED_FACE('Body.2',(#792),#730,.T.) ;
#806=ADVANCED_FACE('Body.2',(#805),#631,.T.) ;
#874=ADVANCED_FACE('Body.2',(#873),#811,.T.) ;
#887=ADVANCED_FACE('Body.2',(#886),#631,.T.) ;
#955=ADVANCED_FACE('Body.2',(#954),#892,.T.) ;
#968=ADVANCED_FACE('Body.2',(#967),#631,.T.) ;
#1027=ADVANCED_FACE('Body.2',(#1026),#973,.T.) ;
#1033=ADVANCED_FACE('Body.2',(#1032),#631,.T.) ;
#1044=ADVANCED_FACE('Body.2',(#1043),#1038,.T.) ;
#1050=ADVANCED_FACE('Body.2',(#1049),#1038,.T.) ;
#1056=ADVANCED_FACE('Body.2',(#1055),#1038,.T.) ;
#1062=ADVANCED_FACE('Body.2',(#1061),#1038,.T.) ;
#1068=ADVANCED_FACE('Body.2',(#1067),#1038,.T.) ;
#1074=ADVANCED_FACE('Body.2',(#1073),#1038,.T.) ;
#4=APPLICATION_PROTOCOL_DEFINITION('international standard','ap242_managed_model_based_3d_engineering',2014,#1) ;
#541=B_SPLINE_CURVE_WITH_KNOTS('',5,(#542,#543,#544,#545,#546,#547,#548,#549,#550,#551,#552,#553),.UNSPECIFIED.,.F.,.U.,(6,3,3,6),(0.,0.0384503644794,30.9380627117,36.6855429627),.UNSPECIFIED.) ;
#564=B_SPLINE_CURVE_WITH_KNOTS('',5,(#565,#566,#567,#568,#569,#570,#571,#572,#573,#574,#575,#576),.UNSPECIFIED.,.F.,.U.,(6,3,3,6),(0.,0.0384503644794,30.9380627106,36.6855429616),.UNSPECIFIED.) ;
#578=B_SPLINE_CURVE_WITH_KNOTS('',5,(#579,#580,#581,#582,#583,#584,#585,#586,#587,#588,#589,#590),.UNSPECIFIED.,.F.,.U.,(6,3,3,6),(0.,0.0384503644795,30.9380627088,36.6855429648),.UNSPECIFIED.) ;
#601=B_SPLINE_CURVE_WITH_KNOTS('',5,(#602,#603,#604,#605,#606,#607,#608,#609,#610,#611,#612,#613),.UNSPECIFIED.,.F.,.U.,(6,3,3,6),(0.,0.0384503644795,30.9380627114,36.6855429675),.UNSPECIFIED.) ;
#632=B_SPLINE_CURVE_WITH_KNOTS('',4,(#633,#634,#635,#636,#637),.UNSPECIFIED.,.F.,.U.,(5,5),(0.,36.6855429531),.UNSPECIFIED.) ;
#650=B_SPLINE_CURVE_WITH_KNOTS('',5,(#651,#652,#653,#654,#655,#656,#657,#658,#659,#660,#661,#662),.UNSPECIFIED.,.F.,.U.,(6,3,3,6),(0.,0.0384503644794,30.9380627104,36.6855429613),.UNSPECIFIED.) ;
#664=B_SPLINE_CURVE_WITH_KNOTS('',5,(#665,#666,#667,#668,#669,#670,#671,#672,#673,#674,#675,#676),.UNSPECIFIED.,.F.,.U.,(6,3,3,6),(0.,0.0384503644793,30.9380627096,36.6855429201),.UNSPECIFIED.) ;
#687=B_SPLINE_CURVE_WITH_KNOTS('',5,(#688,#689,#690,#691,#692,#693,#694,#695,#696,#697,#698,#699),.UNSPECIFIED.,.F.,.U.,(6,3,3,6),(0.,0.0384503644793,30.9380627087,36.6855429192),.UNSPECIFIED.) ;
#713=B_SPLINE_CURVE_WITH_KNOTS('',4,(#714,#715,#716,#717,#718),.UNSPECIFIED.,.F.,.U.,(5,5),(0.,36.6855429562),.UNSPECIFIED.) ;
#731=B_SPLINE_CURVE_WITH_KNOTS('',5,(#732,#733,#734,#735,#736,#737,#738,#739,#740,#741,#742,#743),.UNSPECIFIED.,.F.,.U.,(6,3,3,6),(0.,0.0384503644794,30.9380627085,36.6855429594),.UNSPECIFIED.) ;
#745=B_SPLINE_CURVE_WITH_KNOTS('',5,(#746,#747,#748,#749,#750,#751,#752,#753,#754,#755,#756,#757),.UNSPECIFIED.,.F.,.U.,(6,3,3,6),(0.,0.0384503644795,30.9380627092,36.6855429653),.UNSPECIFIED.) ;
#768=B_SPLINE_CURVE_WITH_KNOTS('',5,(#769,#770,#771,#772,#773,#774,#775,#776,#777,#778,#779,#780),.UNSPECIFIED.,.F.,.U.,(6,3,3,6),(0.,0.0384503644795,30.938062709,36.6855429651),.UNSPECIFIED.) ;
#794=B_SPLINE_CURVE_WITH_KNOTS('',4,(#795,#796,#797,#798,#799),.UNSPECIFIED.,.F.,.U.,(5,5),(0.,36.6855429441),.UNSPECIFIED.) ;
#812=B_SPLINE_CURVE_WITH_KNOTS('',5,(#813,#814,#815,#816,#817,#818,#819,#820,#821,#822,#823,#824),.UNSPECIFIED.,.F.,.U.,(6,3,3,6),(0.,0.0384503644795,30.938062714,36.6855429701),.UNSPECIFIED.) ;
#835=B_SPLINE_CURVE_WITH_KNOTS('',5,(#836,#837,#838,#839,#840,#841,#842,#843,#844,#845,#846,#847),.UNSPECIFIED.,.F.,.U.,(6,3,3,6),(0.,0.0384503644795,30.9380627071,36.6855429632),.UNSPECIFIED.) ;
#849=B_SPLINE_CURVE_WITH_KNOTS('',5,(#850,#851,#852,#853,#854,#855,#856,#857,#858,#859,#860,#861),.UNSPECIFIED.,.F.,.U.,(6,3,3,6),(0.,0.0384503644794,30.9380627108,36.6855429617),.UNSPECIFIED.) ;
#875=B_SPLINE_CURVE_WITH_KNOTS('',4,(#876,#877,#878,#879,#880),.UNSPECIFIED.,.F.,.U.,(5,5),(0.,36.6855429529),.UNSPECIFIED.) ;
#893=B_SPLINE_CURVE_WITH_KNOTS('',5,(#894,#895,#896,#897,#898,#899,#900,#901,#902,#903,#904,#905),.UNSPECIFIED.,.F.,.U.,(6,3,3,6),(0.,0.0384503644794,30.9380627109,36.6855429618),.UNSPECIFIED.) ;
#907=B_SPLINE_CURVE_WITH_KNOTS('',5,(#908,#909,#910,#911,#912,#913,#914,#915,#916,#917,#918,#919),.UNSPECIFIED.,.F.,.U.,(6,3,3,6),(0.,0.0384503644793,30.9380627117,36.6855429222),.UNSPECIFIED.) ;
#930=B_SPLINE_CURVE_WITH_KNOTS('',5,(#931,#932,#933,#934,#935,#936,#937,#938,#939,#940,#941,#942),.UNSPECIFIED.,.F.,.U.,(6,3,3,6),(0.,0.0384503644793,30.9380627113,36.6855429218),.UNSPECIFIED.) ;
#956=B_SPLINE_CURVE_WITH_KNOTS('',4,(#957,#958,#959,#960,#961),.UNSPECIFIED.,.F.,.U.,(5,5),(0.,36.6855429567),.UNSPECIFIED.) ;
#974=B_SPLINE_CURVE_WITH_KNOTS('',5,(#975,#976,#977,#978,#979,#980,#981,#982,#983,#984,#985,#986),.UNSPECIFIED.,.F.,.U.,(6,3,3,6),(0.,0.0384503644795,30.9380627086,36.6855429648),.UNSPECIFIED.) ;
#988=B_SPLINE_CURVE_WITH_KNOTS('',5,(#989,#990,#991,#992,#993,#994,#995,#996,#997,#998,#999,#1000),.UNSPECIFIED.,.F.,.U.,(6,3,3,6),(0.,0.0384503644794,30.9380627098,36.6855429607),.UNSPECIFIED.) ;
#1002=B_SPLINE_CURVE_WITH_KNOTS('',5,(#1003,#1004,#1005,#1006,#1007,#1008,#1009,#1010,#1011,#1012,#1013,#1014),.UNSPECIFIED.,.F.,.U.,(6,3,3,6),(0.,0.0384503644795,30.9380627113,36.6855429674),.UNSPECIFIED.) ;
#22=COLOUR_RGB('Colour',0.882352941176,0.882352941176,0.882352941176) ;
#61=FACE_OUTER_BOUND('',#57,.T.) ;
#110=FACE_OUTER_BOUND('',#105,.T.) ;
#134=FACE_OUTER_BOUND('',#129,.T.) ;
#146=FACE_OUTER_BOUND('',#141,.T.) ;
#177=FACE_OUTER_BOUND('',#172,.T.) ;
#189=FACE_OUTER_BOUND('',#184,.T.) ;
#236=FACE_OUTER_BOUND('',#229,.T.) ;
#265=FACE_OUTER_BOUND('',#257,.T.) ;
#369=FACE_OUTER_BOUND('',#356,.T.) ;
#404=FACE_OUTER_BOUND('',#399,.T.) ;
#430=FACE_OUTER_BOUND('',#425,.T.) ;
#456=FACE_OUTER_BOUND('',#451,.T.) ;
#482=FACE_OUTER_BOUND('',#477,.T.) ;
#508=FACE_OUTER_BOUND('',#503,.T.) ;
#534=FACE_OUTER_BOUND('',#529,.T.) ;
#625=FACE_OUTER_BOUND('',#615,.T.) ;
#643=FACE_OUTER_BOUND('',#639,.T.) ;
#711=FACE_OUTER_BOUND('',#701,.T.) ;
#724=FACE_OUTER_BOUND('',#720,.T.) ;
#792=FACE_OUTER_BOUND('',#782,.T.) ;
#805=FACE_OUTER_BOUND('',#801,.T.) ;
#873=FACE_OUTER_BOUND('',#863,.T.) ;
#886=FACE_OUTER_BOUND('',#882,.T.) ;
#954=FACE_OUTER_BOUND('',#944,.T.) ;
#967=FACE_OUTER_BOUND('',#963,.T.) ;
#1026=FACE_OUTER_BOUND('',#1016,.T.) ;
#1032=FACE_OUTER_BOUND('',#1028,.T.) ;
#1043=FACE_OUTER_BOUND('',#1039,.T.) ;
#1049=FACE_OUTER_BOUND('',#1045,.T.) ;
#1055=FACE_OUTER_BOUND('',#1051,.T.) ;
#1061=FACE_OUTER_BOUND('',#1057,.T.) ;
#1067=FACE_OUTER_BOUND('',#1063,.T.) ;
#1073=FACE_OUTER_BOUND('',#1069,.T.) ;
#7=PRODUCT_CATEGORY_RELATIONSHIP(' ',' ',#5,#6) ;
#17=PRODUCT_DEFINITION_FORMATION_WITH_SPECIFIED_SOURCE('A.1',' ',#16,.NOT_KNOWN.) ;
#20=SHAPE_DEFINITION_REPRESENTATION(#19,#13) ;
#8=(LENGTH_UNIT()NAMED_UNIT(*)SI_UNIT(.MILLI.,.METRE.)) ;
#9=(NAMED_UNIT(*)PLANE_ANGLE_UNIT()SI_UNIT($,.RADIAN.)) ;
#10=(NAMED_UNIT(*)SI_UNIT($,.STERADIAN.)SOLID_ANGLE_UNIT()) ;
#12=(GEOMETRIC_REPRESENTATION_CONTEXT(3)GLOBAL_UNCERTAINTY_ASSIGNED_CONTEXT((#11))GLOBAL_UNIT_ASSIGNED_CONTEXT((#8,#9,#10))REPRESENTATION_CONTEXT(' ',' ')) ;
ENDSEC;
END-ISO-10303-21;
