ISO-10303-21;
HEADER;
FILE_DESCRIPTION(('3DEXPERIENCE STEP','CAx-IF Rec.Pracs.--- Model Styling and Organization---1.5--- 2016-08-15','CAx-IF Rec.Pracs.---Supplemental Geometry---1.0---2011-11-01','CAx-IF Rec.Pracs.--- Composite Materials ---3.4---2017-06-13','CAx-IF Rec.Pracs.---Tessellated 3D Geometry---1.0---2015-12-17'),'2;1');

FILE_NAME('\\\\?\\D:\\School\\CarTech\\CTU.25\\Tutorials\\Model\\OEM\\Setscrew_M4x8.stp','2024-09-26T02:37:05+00:00',('none'),('none'),'3DEXPERIENCE Platform3DEXPERIENCE R2024x HotFix 4.24','3DEXPERIENCE Platform STEP AP242 v3','none');

FILE_SCHEMA(('AP242_MANAGED_MODEL_BASED_3D_ENGINEERING_MIM_LF  {1 0 10303 442 1 1 4}'));

ENDSEC;
DATA;
#16=PRODUCT('Screw_CSN_02_1191_M4x8','Screw_CSN_02_1191_M4x8','',(#2)) ;
#2=PRODUCT_CONTEXT(' ',#1,'mechanical') ;
#1=APPLICATION_CONTEXT('managed model based 3d engineering') ;
#18=PRODUCT_DEFINITION('Screw_CSN_02_1191_M4x8',' ',#17,#3) ;
#3=PRODUCT_DEFINITION_CONTEXT('part definition',#1,' ') ;
#19=PRODUCT_DEFINITION_SHAPE(' ',' ',#18) ;
#476=MECHANICAL_DESIGN_GEOMETRIC_PRESENTATION_REPRESENTATION(' ',(#29),#12) ;
#5=PRODUCT_CATEGORY('part','specification') ;
#13=SHAPE_REPRESENTATION(' ',(#15,#21),#12) ;
#14=CARTESIAN_POINT('',(0.,0.,0.)) ;
#31=CARTESIAN_POINT('Axis2P3D Location',(0.,5.5,0.)) ;
#36=CARTESIAN_POINT('Line Origine',(-1.,5.5,0.)) ;
#40=CARTESIAN_POINT('Vertex',(-1.,5.5,-0.577350270003)) ;
#42=CARTESIAN_POINT('Vertex',(-1.,5.5,0.577350270003)) ;
#45=CARTESIAN_POINT('Line Origine',(-0.5,5.5,0.866025404073)) ;
#49=CARTESIAN_POINT('Vertex',(0.,5.5,1.15470053814)) ;
#52=CARTESIAN_POINT('Line Origine',(0.5,5.5,0.866025404073)) ;
#56=CARTESIAN_POINT('Vertex',(1.,5.5,0.577350270003)) ;
#59=CARTESIAN_POINT('Line Origine',(1.,5.5,0.)) ;
#63=CARTESIAN_POINT('Vertex',(1.,5.5,-0.577350270003)) ;
#66=CARTESIAN_POINT('Line Origine',(0.5,5.5,-0.866025404073)) ;
#70=CARTESIAN_POINT('Vertex',(0.,5.5,-1.15470053814)) ;
#73=CARTESIAN_POINT('Line Origine',(-0.5,5.5,-0.866025404073)) ;
#87=CARTESIAN_POINT('Axis2P3D Location',(-1.,8.,-0.57735026919)) ;
#92=CARTESIAN_POINT('Line Origine',(-1.,6.67467936873,0.577350269885)) ;
#96=CARTESIAN_POINT('Vertex',(-1.,7.84935873719,0.577350268954)) ;
#99=CARTESIAN_POINT('Line Origine',(-1.,6.67467936873,-0.57735026919)) ;
#103=CARTESIAN_POINT('Vertex',(-1.,7.84935873747,-0.57735026919)) ;
#107=CARTESIAN_POINT('Control Point',(-1.,7.84935873712,-0.57735026919)) ;
#108=CARTESIAN_POINT('Control Point',(-1.,7.85373608095,-0.562186705349)) ;
#109=CARTESIAN_POINT('Control Point',(-1.,7.85811342478,-0.547023141508)) ;
#110=CARTESIAN_POINT('Control Point',(-1.,7.8495408538,-0.576719182851)) ;
#111=CARTESIAN_POINT('Control Point',(-1.,7.87331997136,-0.494261365627)) ;
#112=CARTESIAN_POINT('Control Point',(-1.,7.89179081369,-0.41915127159)) ;
#113=CARTESIAN_POINT('Control Point',(-1.,7.90620792224,-0.349089126151)) ;
#114=CARTESIAN_POINT('Control Point',(-1.,7.93112511225,-0.197967077341)) ;
#115=CARTESIAN_POINT('Control Point',(-1.,7.94028543566,-0.0579470578653)) ;
#116=CARTESIAN_POINT('Control Point',(-1.,7.94114358286,0.0189149536475)) ;
#117=CARTESIAN_POINT('Control Point',(-1.,7.93479520443,0.165929505376)) ;
#118=CARTESIAN_POINT('Control Point',(-1.,7.9114739253,0.322875329241)) ;
#119=CARTESIAN_POINT('Control Point',(-1.,7.89630460407,0.400674940916)) ;
#120=CARTESIAN_POINT('Control Point',(-1.,7.8762111029,0.484330945493)) ;
#121=CARTESIAN_POINT('Control Point',(-1.,7.84935873719,0.577350268954)) ;
#130=CARTESIAN_POINT('Axis2P3D Location',(-1.,8.,0.57735026919)) ;
#135=CARTESIAN_POINT('Line Origine',(-2.04279926308E-10,6.67467936873,1.15470053826)) ;
#139=CARTESIAN_POINT('Vertex',(-2.04305905527E-10,7.84935873719,1.15470053826)) ;
#143=CARTESIAN_POINT('Control Point',(-0.479559066409,7.93851433347,0.877826982296)) ;
#144=CARTESIAN_POINT('Control Point',(-0.506996158953,7.93894594793,0.86198616953)) ;
#145=CARTESIAN_POINT('Control Point',(-0.534433251496,7.93937756239,0.846145356764)) ;
#146=CARTESIAN_POINT('Control Point',(-0.480382657629,7.93852707204,0.877351481683)) ;
#147=CARTESIAN_POINT('Control Point',(-0.561057262845,7.93973228516,0.830773976646)) ;
#148=CARTESIAN_POINT('Control Point',(-0.641318483486,7.93467349865,0.784435139303)) ;
#149=CARTESIAN_POINT('Control Point',(-0.723400995641,7.92351788286,0.737044778814)) ;
#150=CARTESIAN_POINT('Control Point',(-0.826429404116,7.90226204283,0.677561299447)) ;
#151=CARTESIAN_POINT('Control Point',(-0.944382633903,7.86723344001,0.609460970478)) ;
#152=CARTESIAN_POINT('Control Point',(-0.962500308064,7.86163360755,0.599000726424)) ;
#153=CARTESIAN_POINT('Control Point',(-0.981025208772,7.85568366753,0.588305370013)) ;
#154=CARTESIAN_POINT('Control Point',(-1.,7.84935873712,0.57735026919)) ;
#155=CARTESIAN_POINT('Vertex',(-0.479559066409,7.93851433347,0.877826982296)) ;
#159=CARTESIAN_POINT('Control Point',(-0.479559066159,7.93851433346,0.87782698244)) ;
#160=CARTESIAN_POINT('Control Point',(-0.452121997088,7.93808271937,0.893667781654)) ;
#161=CARTESIAN_POINT('Control Point',(-0.424684928017,7.93765110527,0.909508580868)) ;
#162=CARTESIAN_POINT('Control Point',(-0.478735444854,7.93850115963,0.878302500423)) ;
#163=CARTESIAN_POINT('Control Point',(-0.398036003383,7.93716777125,0.92489434468)) ;
#164=CARTESIAN_POINT('Control Point',(-0.316863394473,7.92956558917,0.971759372284)) ;
#165=CARTESIAN_POINT('Control Point',(-0.233056369898,7.9156605707,1.02014538048)) ;
#166=CARTESIAN_POINT('Control Point',(-0.135870624729,7.89281672059,1.07625559662)) ;
#167=CARTESIAN_POINT('Control Point',(-0.0239861977907,7.857232674,1.14085210063)) ;
#168=CARTESIAN_POINT('Control Point',(-0.0160700984975,7.85467467503,1.14542246269)) ;
#169=CARTESIAN_POINT('Control Point',(-0.00807579615095,7.85205066917,1.1500379753)) ;
#170=CARTESIAN_POINT('Control Point',(-2.04305905527E-10,7.84935873719,1.15470053826)) ;
#180=CARTESIAN_POINT('Axis2P3D Location',(0.,8.,1.15470053838)) ;
#185=CARTESIAN_POINT('Line Origine',(0.999999999796,6.67467936873,0.577350269308)) ;
#189=CARTESIAN_POINT('Vertex',(0.999999999796,7.84935873719,0.577350269308)) ;
#193=CARTESIAN_POINT('Control Point',(3.1145986261E-14,7.84935873712,1.15470053838)) ;
#194=CARTESIAN_POINT('Control Point',(0.0131320314976,7.85373608095,1.14711875646)) ;
#195=CARTESIAN_POINT('Control Point',(0.0262640629952,7.85811342478,1.13953697454)) ;
#196=CARTESIAN_POINT('Control Point',(0.000546536801962,7.8495408538,1.15438499521)) ;
#197=CARTESIAN_POINT('Control Point',(0.0719571012454,7.87331997136,1.11315608661)) ;
#198=CARTESIAN_POINT('Control Point',(0.137004350749,7.89179081369,1.07560103959)) ;
#199=CARTESIAN_POINT('Control Point',(0.19767994859,7.90620792224,1.04056996685)) ;
#200=CARTESIAN_POINT('Control Point',(0.328555481912,7.93112511225,0.965008942454)) ;
#201=CARTESIAN_POINT('Control Point',(0.449816375802,7.94028543566,0.894998932725)) ;
#202=CARTESIAN_POINT('Control Point',(0.516380830382,7.94114358286,0.856567926954)) ;
#203=CARTESIAN_POINT('Control Point',(0.643699166903,7.93479520443,0.783060651091)) ;
#204=CARTESIAN_POINT('Control Point',(0.779618237377,7.9114739253,0.704587739165)) ;
#205=CARTESIAN_POINT('Control Point',(0.846994677493,7.89630460407,0.665687933327)) ;
#206=CARTESIAN_POINT('Control Point',(0.919442902636,7.8762111029,0.623859931039)) ;
#207=CARTESIAN_POINT('Control Point',(0.999999999796,7.84935873719,0.577350269308)) ;
#216=CARTESIAN_POINT('Axis2P3D Location',(1.,8.,0.57735026919)) ;
#221=CARTESIAN_POINT('Line Origine',(1.,6.67467936873,-0.577350269885)) ;
#225=CARTESIAN_POINT('Vertex',(1.,7.84935873719,-0.577350268954)) ;
#229=CARTESIAN_POINT('Control Point',(1.,7.84935873719,-0.577350268954)) ;
#230=CARTESIAN_POINT('Control Point',(1.,7.85373608102,-0.562186705114)) ;
#231=CARTESIAN_POINT('Control Point',(1.,7.85811342485,-0.547023141273)) ;
#232=CARTESIAN_POINT('Control Point',(1.,7.84954085387,-0.576719182615)) ;
#233=CARTESIAN_POINT('Control Point',(1.,7.87331997141,-0.494261365412)) ;
#234=CARTESIAN_POINT('Control Point',(1.,7.89179081374,-0.419151271393)) ;
#235=CARTESIAN_POINT('Control Point',(1.,7.90620792227,-0.349089125948)) ;
#236=CARTESIAN_POINT('Control Point',(1.,7.93112511227,-0.197967077157)) ;
#237=CARTESIAN_POINT('Control Point',(1.,7.94028543567,-0.0579470576957)) ;
#238=CARTESIAN_POINT('Control Point',(1.,7.94114358286,0.0189149538258)) ;
#239=CARTESIAN_POINT('Control Point',(1.,7.93479520442,0.16592950556)) ;
#240=CARTESIAN_POINT('Control Point',(1.,7.91147392526,0.322875329436)) ;
#241=CARTESIAN_POINT('Control Point',(1.,7.89630460403,0.400674941119)) ;
#242=CARTESIAN_POINT('Control Point',(1.,7.87621110284,0.484330945709)) ;
#243=CARTESIAN_POINT('Control Point',(1.,7.84935873712,0.57735026919)) ;
#252=CARTESIAN_POINT('Axis2P3D Location',(1.,8.,-0.57735026919)) ;
#257=CARTESIAN_POINT('Line Origine',(2.04279926308E-10,6.67467936873,-1.15470053826)) ;
#261=CARTESIAN_POINT('Vertex',(2.04306238594E-10,7.84935873719,-1.15470053826)) ;
#265=CARTESIAN_POINT('Control Point',(0.479559066409,7.93851433347,-0.877826982296)) ;
#266=CARTESIAN_POINT('Control Point',(0.506996158953,7.93894594793,-0.86198616953)) ;
#267=CARTESIAN_POINT('Control Point',(0.534433251496,7.93937756239,-0.846145356764)) ;
#268=CARTESIAN_POINT('Control Point',(0.480382657629,7.93852707204,-0.877351481683)) ;
#269=CARTESIAN_POINT('Control Point',(0.561057262842,7.93973228516,-0.830773976647)) ;
#270=CARTESIAN_POINT('Control Point',(0.641318483481,7.93467349865,-0.784435139306)) ;
#271=CARTESIAN_POINT('Control Point',(0.723400995646,7.92351788286,-0.737044778812)) ;
#272=CARTESIAN_POINT('Control Point',(0.826429404119,7.90226204283,-0.677561299446)) ;
#273=CARTESIAN_POINT('Control Point',(0.944382633903,7.86723344001,-0.609460970478)) ;
#274=CARTESIAN_POINT('Control Point',(0.962500308064,7.86163360755,-0.599000726424)) ;
#275=CARTESIAN_POINT('Control Point',(0.981025208772,7.85568366753,-0.588305370013)) ;
#276=CARTESIAN_POINT('Control Point',(1.,7.84935873712,-0.57735026919)) ;
#277=CARTESIAN_POINT('Vertex',(0.479559066409,7.93851433347,-0.877826982296)) ;
#281=CARTESIAN_POINT('Control Point',(0.479559066159,7.93851433346,-0.87782698244)) ;
#282=CARTESIAN_POINT('Control Point',(0.452121997088,7.93808271936,-0.893667781654)) ;
#283=CARTESIAN_POINT('Control Point',(0.424684928017,7.93765110527,-0.909508580868)) ;
#284=CARTESIAN_POINT('Control Point',(0.478735444854,7.93850115963,-0.878302500423)) ;
#285=CARTESIAN_POINT('Control Point',(0.398036003386,7.93716777125,-0.924894344678)) ;
#286=CARTESIAN_POINT('Control Point',(0.31686339448,7.92956558917,-0.97175937228)) ;
#287=CARTESIAN_POINT('Control Point',(0.233056369894,7.9156605707,-1.02014538049)) ;
#288=CARTESIAN_POINT('Control Point',(0.135870624725,7.89281672059,-1.07625559662)) ;
#289=CARTESIAN_POINT('Control Point',(0.0239861977907,7.857232674,-1.14085210063)) ;
#290=CARTESIAN_POINT('Control Point',(0.0160700984975,7.85467467503,-1.14542246269)) ;
#291=CARTESIAN_POINT('Control Point',(0.00807579615095,7.85205066917,-1.1500379753)) ;
#292=CARTESIAN_POINT('Control Point',(2.04306238594E-10,7.84935873719,-1.15470053826)) ;
#302=CARTESIAN_POINT('Axis2P3D Location',(8.881784197E-16,8.,-1.15470053838)) ;
#308=CARTESIAN_POINT('Control Point',(-2.92121968806E-14,7.84935873712,-1.15470053838)) ;
#309=CARTESIAN_POINT('Control Point',(-0.013132031498,7.85373608095,-1.14711875646)) ;
#310=CARTESIAN_POINT('Control Point',(-0.026264062996,7.85811342478,-1.13953697454)) ;
#311=CARTESIAN_POINT('Control Point',(-0.000546536801961,7.8495408538,-1.15438499521)) ;
#312=CARTESIAN_POINT('Control Point',(-0.0719571012494,7.87331997136,-1.1131560866)) ;
#313=CARTESIAN_POINT('Control Point',(-0.137004350763,7.89179081369,-1.07560103959)) ;
#314=CARTESIAN_POINT('Control Point',(-0.197679948583,7.90620792224,-1.04056996685)) ;
#315=CARTESIAN_POINT('Control Point',(-0.328555481914,7.93112511225,-0.965008942453)) ;
#316=CARTESIAN_POINT('Control Point',(-0.449816375809,7.94028543566,-0.894998932721)) ;
#317=CARTESIAN_POINT('Control Point',(-0.516380830374,7.94114358287,-0.856567926959)) ;
#318=CARTESIAN_POINT('Control Point',(-0.643699166894,7.93479520443,-0.783060651096)) ;
#319=CARTESIAN_POINT('Control Point',(-0.779618237367,7.9114739253,-0.704587739171)) ;
#320=CARTESIAN_POINT('Control Point',(-0.846994677503,7.89630460407,-0.665687933321)) ;
#321=CARTESIAN_POINT('Control Point',(-0.919442902642,7.8762111029,-0.623859931035)) ;
#322=CARTESIAN_POINT('Control Point',(-0.999999999796,7.84935873719,-0.577350269308)) ;
#331=CARTESIAN_POINT('Axis2P3D Location',(0.,8.,0.)) ;
#336=CARTESIAN_POINT('Line Origine',(2075973.69253,-2499991.74197,-3800044.35477)) ;
#340=CARTESIAN_POINT('Vertex',(0.71913830782,7.65000000011,-1.31637384268)) ;
#343=CARTESIAN_POINT('Axis2P3D Location',(0.,7.65000000009,0.)) ;
#347=CARTESIAN_POINT('Vertex',(-0.719138307831,7.65000000009,1.3163738427)) ;
#350=CARTESIAN_POINT('Line Origine',(-2075973.69253,-2499991.74197,3800044.35477)) ;
#365=CARTESIAN_POINT('Axis2P3D Location',(0.,7.65000000009,0.)) ;
#380=CARTESIAN_POINT('Axis2P3D Location',(0.,4.,0.)) ;
#385=CARTESIAN_POINT('Line Origine',(0.719138307906,4.,-1.31637384284)) ;
#389=CARTESIAN_POINT('Vertex',(0.719138307906,1.30000000075,-1.31637384284)) ;
#392=CARTESIAN_POINT('Axis2P3D Location',(0.,1.30000000075,0.)) ;
#396=CARTESIAN_POINT('Vertex',(-0.7191383079,1.30000000075,1.31637384284)) ;
#399=CARTESIAN_POINT('Line Origine',(-0.719138307906,4.,1.31637384284)) ;
#411=CARTESIAN_POINT('Axis2P3D Location',(0.,1.30000000075,0.)) ;
#423=CARTESIAN_POINT('Axis2P3D Location',(0.,-3.5527136788E-15,0.)) ;
#428=CARTESIAN_POINT('Line Origine',(1695025.29505,3535533.80593,-3102722.99058)) ;
#432=CARTESIAN_POINT('Vertex',(0.0958851076697,-1.06647137179E-10,-0.175516512284)) ;
#435=CARTESIAN_POINT('Axis2P3D Location',(0.,-1.14816805952E-14,0.)) ;
#439=CARTESIAN_POINT('Vertex',(-0.0958851077208,-1.14816805952E-14,0.175516512378)) ;
#442=CARTESIAN_POINT('Line Origine',(-1695025.29505,3535533.80593,3102722.99058)) ;
#454=CARTESIAN_POINT('Axis2P3D Location',(0.,-1.14816805952E-14,0.)) ;
#466=CARTESIAN_POINT('Axis2P3D Location',(0.,0.,0.)) ;
#6=PRODUCT_RELATED_PRODUCT_CATEGORY('part',$,(#16)) ;
#11=UNCERTAINTY_MEASURE_WITH_UNIT(LENGTH_MEASURE(0.005),#8,'distance_accuracy_value','CONFUSED CURVE UNCERTAINTY') ;
#29=STYLED_ITEM(' ',(#28),#21) ;
#28=PRESENTATION_STYLE_ASSIGNMENT((#27)) ;
#27=SURFACE_STYLE_USAGE(.BOTH.,#26) ;
#26=SURFACE_SIDE_STYLE(' ',(#25)) ;
#25=SURFACE_STYLE_FILL_AREA(#24) ;
#24=FILL_AREA_STYLE(' ',(#23)) ;
#23=FILL_AREA_STYLE_COLOUR(' ',#22) ;
#38=VECTOR('Line Direction',#37,1.) ;
#47=VECTOR('Line Direction',#46,1.) ;
#54=VECTOR('Line Direction',#53,1.) ;
#61=VECTOR('Line Direction',#60,1.) ;
#68=VECTOR('Line Direction',#67,1.) ;
#75=VECTOR('Line Direction',#74,1.) ;
#94=VECTOR('Line Direction',#93,1.) ;
#101=VECTOR('Line Direction',#100,1.) ;
#137=VECTOR('Line Direction',#136,1.) ;
#187=VECTOR('Line Direction',#186,1.) ;
#223=VECTOR('Line Direction',#222,1.) ;
#259=VECTOR('Line Direction',#258,1.) ;
#338=VECTOR('Line Direction',#337,1.) ;
#352=VECTOR('Line Direction',#351,1.) ;
#387=VECTOR('Line Direction',#386,1.) ;
#401=VECTOR('Line Direction',#400,1.) ;
#430=VECTOR('Line Direction',#429,1.) ;
#444=VECTOR('Line Direction',#443,1.) ;
#32=DIRECTION('Axis2P3D Direction',(0.,1.,-0.)) ;
#33=DIRECTION('Axis2P3D XDirection',(-1.,0.,0.)) ;
#37=DIRECTION('Vector Direction',(0.,0.,1.)) ;
#46=DIRECTION('Vector Direction',(0.866025404178,0.,0.499999999319)) ;
#53=DIRECTION('Vector Direction',(0.866025404178,0.,-0.499999999319)) ;
#60=DIRECTION('Vector Direction',(0.,0.,-1.)) ;
#67=DIRECTION('Vector Direction',(-0.866025404178,0.,-0.499999999319)) ;
#74=DIRECTION('Vector Direction',(-0.866025404178,0.,0.499999999319)) ;
#88=DIRECTION('Axis2P3D Direction',(1.,0.,-0.)) ;
#89=DIRECTION('Axis2P3D XDirection',(0.,0.,1.)) ;
#93=DIRECTION('Vector Direction',(0.,-1.,7.92831303081E-10)) ;
#100=DIRECTION('Vector Direction',(0.,-1.,0.)) ;
#131=DIRECTION('Axis2P3D Direction',(0.5,0.,-0.866025403784)) ;
#132=DIRECTION('Axis2P3D XDirection',(0.866025403784,0.,0.5)) ;
#136=DIRECTION('Vector Direction',(0.,-1.,0.)) ;
#181=DIRECTION('Axis2P3D Direction',(-0.5,-0.,-0.866025403784)) ;
#182=DIRECTION('Axis2P3D XDirection',(0.866025403784,0.,-0.5)) ;
#186=DIRECTION('Vector Direction',(0.,-1.,0.)) ;
#217=DIRECTION('Axis2P3D Direction',(-1.,0.,9.61481343192E-17)) ;
#218=DIRECTION('Axis2P3D XDirection',(-9.61481343192E-17,0.,-1.)) ;
#222=DIRECTION('Vector Direction',(0.,-1.,-7.92831303081E-10)) ;
#253=DIRECTION('Axis2P3D Direction',(-0.5,0.,0.866025403784)) ;
#254=DIRECTION('Axis2P3D XDirection',(-0.866025403784,0.,-0.5)) ;
#258=DIRECTION('Vector Direction',(0.,-1.,0.)) ;
#303=DIRECTION('Axis2P3D Direction',(0.5,0.,0.866025403784)) ;
#304=DIRECTION('Axis2P3D XDirection',(-0.866025403784,0.,0.5)) ;
#332=DIRECTION('Axis2P3D Direction',(0.,-1.,0.)) ;
#333=DIRECTION('Axis2P3D XDirection',(0.479425538604,0.,-0.87758256189)) ;
#337=DIRECTION('Vector Direction',(0.415194695655,-0.499999999997,-0.760008792517)) ;
#344=DIRECTION('Axis2P3D Direction',(0.,-1.,0.)) ;
#351=DIRECTION('Vector Direction',(-0.415194695655,-0.499999999997,0.760008792517)) ;
#366=DIRECTION('Axis2P3D Direction',(0.,-1.,0.)) ;
#381=DIRECTION('Axis2P3D Direction',(0.,-1.,0.)) ;
#382=DIRECTION('Axis2P3D XDirection',(0.479425538603,-0.,-0.877582561891)) ;
#386=DIRECTION('Vector Direction',(0.,-1.,0.)) ;
#393=DIRECTION('Axis2P3D Direction',(0.,-1.,0.)) ;
#400=DIRECTION('Vector Direction',(0.,-1.,0.)) ;
#412=DIRECTION('Axis2P3D Direction',(0.,-1.,0.)) ;
#424=DIRECTION('Axis2P3D Direction',(-0.,1.,-0.)) ;
#425=DIRECTION('Axis2P3D XDirection',(-0.479425538604,0.,0.87758256189)) ;
#429=DIRECTION('Vector Direction',(0.339005049421,0.707106781187,-0.620544580563)) ;
#436=DIRECTION('Axis2P3D Direction',(-0.,1.,0.)) ;
#443=DIRECTION('Vector Direction',(-0.339005049421,0.707106781187,0.620544580563)) ;
#455=DIRECTION('Axis2P3D Direction',(-0.,1.,0.)) ;
#467=DIRECTION('Axis2P3D Direction',(0.,-1.,0.)) ;
#468=DIRECTION('Axis2P3D XDirection',(1.,0.,0.)) ;
#15=AXIS2_PLACEMENT_3D('',#14,$,$) ;
#34=AXIS2_PLACEMENT_3D('Plane Axis2P3D',#31,#32,#33) ;
#90=AXIS2_PLACEMENT_3D('Plane Axis2P3D',#87,#88,#89) ;
#133=AXIS2_PLACEMENT_3D('Plane Axis2P3D',#130,#131,#132) ;
#183=AXIS2_PLACEMENT_3D('Plane Axis2P3D',#180,#181,#182) ;
#219=AXIS2_PLACEMENT_3D('Plane Axis2P3D',#216,#217,#218) ;
#255=AXIS2_PLACEMENT_3D('Plane Axis2P3D',#252,#253,#254) ;
#305=AXIS2_PLACEMENT_3D('Plane Axis2P3D',#302,#303,#304) ;
#334=AXIS2_PLACEMENT_3D('Cone Axis2P3D',#331,#332,#333) ;
#345=AXIS2_PLACEMENT_3D('Circle Axis2P3D',#343,#344,$) ;
#367=AXIS2_PLACEMENT_3D('Circle Axis2P3D',#365,#366,$) ;
#383=AXIS2_PLACEMENT_3D('Cylinder Axis2P3D',#380,#381,#382) ;
#394=AXIS2_PLACEMENT_3D('Circle Axis2P3D',#392,#393,$) ;
#413=AXIS2_PLACEMENT_3D('Circle Axis2P3D',#411,#412,$) ;
#426=AXIS2_PLACEMENT_3D('Cone Axis2P3D',#423,#424,#425) ;
#437=AXIS2_PLACEMENT_3D('Circle Axis2P3D',#435,#436,$) ;
#456=AXIS2_PLACEMENT_3D('Circle Axis2P3D',#454,#455,$) ;
#469=AXIS2_PLACEMENT_3D('Plane Axis2P3D',#466,#467,#468) ;
#39=LINE('Line',#36,#38) ;
#48=LINE('Line',#45,#47) ;
#55=LINE('Line',#52,#54) ;
#62=LINE('Line',#59,#61) ;
#69=LINE('Line',#66,#68) ;
#76=LINE('Line',#73,#75) ;
#95=LINE('Line',#92,#94) ;
#102=LINE('Line',#99,#101) ;
#138=LINE('Line',#135,#137) ;
#188=LINE('Line',#185,#187) ;
#224=LINE('Line',#221,#223) ;
#260=LINE('Line',#257,#259) ;
#339=LINE('Line',#336,#338) ;
#353=LINE('Line',#350,#352) ;
#388=LINE('Line',#385,#387) ;
#402=LINE('Line',#399,#401) ;
#431=LINE('Line',#428,#430) ;
#445=LINE('Line',#442,#444) ;
#346=CIRCLE('generated circle',#345,1.49999999984) ;
#368=CIRCLE('generated circle',#367,1.49999999984) ;
#395=CIRCLE('generated circle',#394,1.5) ;
#414=CIRCLE('generated circle',#413,1.5) ;
#438=CIRCLE('generated circle',#437,0.2) ;
#457=CIRCLE('generated circle',#456,0.2) ;
#35=PLANE('',#34) ;
#91=PLANE('',#90) ;
#134=PLANE('',#133) ;
#184=PLANE('',#183) ;
#220=PLANE('',#219) ;
#256=PLANE('',#255) ;
#306=PLANE('',#305) ;
#470=PLANE('',#469) ;
#384=CYLINDRICAL_SURFACE('generated cylinder',#383,1.5) ;
#335=CONICAL_SURFACE('Cone',#334,0.893782217351,1.0471975512) ;
#427=CONICAL_SURFACE('Cone',#426,0.2,0.785398163397) ;
#44=EDGE_CURVE('',#41,#43,#39,.T.) ;
#51=EDGE_CURVE('',#43,#50,#48,.T.) ;
#58=EDGE_CURVE('',#50,#57,#55,.T.) ;
#65=EDGE_CURVE('',#57,#64,#62,.T.) ;
#72=EDGE_CURVE('',#64,#71,#69,.T.) ;
#77=EDGE_CURVE('',#71,#41,#76,.T.) ;
#98=EDGE_CURVE('',#97,#43,#95,.T.) ;
#105=EDGE_CURVE('',#104,#41,#102,.T.) ;
#122=EDGE_CURVE('',#104,#97,#106,.T.) ;
#141=EDGE_CURVE('',#140,#50,#138,.T.) ;
#157=EDGE_CURVE('',#156,#97,#142,.T.) ;
#171=EDGE_CURVE('',#156,#140,#158,.T.) ;
#191=EDGE_CURVE('',#190,#57,#188,.T.) ;
#208=EDGE_CURVE('',#140,#190,#192,.T.) ;
#227=EDGE_CURVE('',#226,#64,#224,.T.) ;
#244=EDGE_CURVE('',#226,#190,#228,.T.) ;
#263=EDGE_CURVE('',#262,#71,#260,.T.) ;
#279=EDGE_CURVE('',#278,#226,#264,.T.) ;
#293=EDGE_CURVE('',#278,#262,#280,.T.) ;
#323=EDGE_CURVE('',#262,#104,#307,.T.) ;
#342=EDGE_CURVE('',#278,#341,#339,.T.) ;
#349=EDGE_CURVE('',#348,#341,#346,.T.) ;
#354=EDGE_CURVE('',#156,#348,#353,.T.) ;
#369=EDGE_CURVE('',#341,#348,#368,.T.) ;
#391=EDGE_CURVE('',#341,#390,#388,.T.) ;
#398=EDGE_CURVE('',#397,#390,#395,.T.) ;
#403=EDGE_CURVE('',#348,#397,#402,.T.) ;
#415=EDGE_CURVE('',#390,#397,#414,.T.) ;
#434=EDGE_CURVE('',#390,#433,#431,.F.) ;
#441=EDGE_CURVE('',#440,#433,#438,.F.) ;
#446=EDGE_CURVE('',#397,#440,#445,.F.) ;
#458=EDGE_CURVE('',#433,#440,#457,.F.) ;
#30=CLOSED_SHELL('Closed Shell',(#86,#129,#179,#215,#251,#301,#330,#364,#379,#410,#422,#453,#465,#475)) ;
#79=ORIENTED_EDGE('',*,*,#44,.T.) ;
#80=ORIENTED_EDGE('',*,*,#51,.T.) ;
#81=ORIENTED_EDGE('',*,*,#58,.T.) ;
#82=ORIENTED_EDGE('',*,*,#65,.T.) ;
#83=ORIENTED_EDGE('',*,*,#72,.T.) ;
#84=ORIENTED_EDGE('',*,*,#77,.T.) ;
#124=ORIENTED_EDGE('',*,*,#98,.T.) ;
#125=ORIENTED_EDGE('',*,*,#44,.F.) ;
#126=ORIENTED_EDGE('',*,*,#105,.F.) ;
#127=ORIENTED_EDGE('',*,*,#122,.T.) ;
#173=ORIENTED_EDGE('',*,*,#141,.T.) ;
#174=ORIENTED_EDGE('',*,*,#51,.F.) ;
#175=ORIENTED_EDGE('',*,*,#98,.F.) ;
#176=ORIENTED_EDGE('',*,*,#157,.F.) ;
#177=ORIENTED_EDGE('',*,*,#171,.T.) ;
#210=ORIENTED_EDGE('',*,*,#191,.T.) ;
#211=ORIENTED_EDGE('',*,*,#58,.F.) ;
#212=ORIENTED_EDGE('',*,*,#141,.F.) ;
#213=ORIENTED_EDGE('',*,*,#208,.T.) ;
#246=ORIENTED_EDGE('',*,*,#227,.T.) ;
#247=ORIENTED_EDGE('',*,*,#65,.F.) ;
#248=ORIENTED_EDGE('',*,*,#191,.F.) ;
#249=ORIENTED_EDGE('',*,*,#244,.F.) ;
#295=ORIENTED_EDGE('',*,*,#263,.T.) ;
#296=ORIENTED_EDGE('',*,*,#72,.F.) ;
#297=ORIENTED_EDGE('',*,*,#227,.F.) ;
#298=ORIENTED_EDGE('',*,*,#279,.F.) ;
#299=ORIENTED_EDGE('',*,*,#293,.T.) ;
#325=ORIENTED_EDGE('',*,*,#105,.T.) ;
#326=ORIENTED_EDGE('',*,*,#77,.F.) ;
#327=ORIENTED_EDGE('',*,*,#263,.F.) ;
#328=ORIENTED_EDGE('',*,*,#323,.T.) ;
#356=ORIENTED_EDGE('',*,*,#342,.T.) ;
#357=ORIENTED_EDGE('',*,*,#349,.F.) ;
#358=ORIENTED_EDGE('',*,*,#354,.F.) ;
#359=ORIENTED_EDGE('',*,*,#157,.T.) ;
#360=ORIENTED_EDGE('',*,*,#122,.F.) ;
#361=ORIENTED_EDGE('',*,*,#323,.F.) ;
#362=ORIENTED_EDGE('',*,*,#293,.F.) ;
#371=ORIENTED_EDGE('',*,*,#354,.T.) ;
#372=ORIENTED_EDGE('',*,*,#369,.F.) ;
#373=ORIENTED_EDGE('',*,*,#342,.F.) ;
#374=ORIENTED_EDGE('',*,*,#279,.T.) ;
#375=ORIENTED_EDGE('',*,*,#244,.T.) ;
#376=ORIENTED_EDGE('',*,*,#208,.F.) ;
#377=ORIENTED_EDGE('',*,*,#171,.F.) ;
#405=ORIENTED_EDGE('',*,*,#391,.T.) ;
#406=ORIENTED_EDGE('',*,*,#398,.F.) ;
#407=ORIENTED_EDGE('',*,*,#403,.F.) ;
#408=ORIENTED_EDGE('',*,*,#349,.T.) ;
#417=ORIENTED_EDGE('',*,*,#403,.T.) ;
#418=ORIENTED_EDGE('',*,*,#415,.F.) ;
#419=ORIENTED_EDGE('',*,*,#391,.F.) ;
#420=ORIENTED_EDGE('',*,*,#369,.T.) ;
#448=ORIENTED_EDGE('',*,*,#434,.T.) ;
#449=ORIENTED_EDGE('',*,*,#441,.F.) ;
#450=ORIENTED_EDGE('',*,*,#446,.F.) ;
#451=ORIENTED_EDGE('',*,*,#398,.T.) ;
#460=ORIENTED_EDGE('',*,*,#446,.T.) ;
#461=ORIENTED_EDGE('',*,*,#458,.F.) ;
#462=ORIENTED_EDGE('',*,*,#434,.F.) ;
#463=ORIENTED_EDGE('',*,*,#415,.T.) ;
#472=ORIENTED_EDGE('',*,*,#458,.T.) ;
#473=ORIENTED_EDGE('',*,*,#441,.T.) ;
#78=EDGE_LOOP('',(#79,#80,#81,#82,#83,#84)) ;
#123=EDGE_LOOP('',(#124,#125,#126,#127)) ;
#172=EDGE_LOOP('',(#173,#174,#175,#176,#177)) ;
#209=EDGE_LOOP('',(#210,#211,#212,#213)) ;
#245=EDGE_LOOP('',(#246,#247,#248,#249)) ;
#294=EDGE_LOOP('',(#295,#296,#297,#298,#299)) ;
#324=EDGE_LOOP('',(#325,#326,#327,#328)) ;
#355=EDGE_LOOP('',(#356,#357,#358,#359,#360,#361,#362)) ;
#370=EDGE_LOOP('',(#371,#372,#373,#374,#375,#376,#377)) ;
#404=EDGE_LOOP('',(#405,#406,#407,#408)) ;
#416=EDGE_LOOP('',(#417,#418,#419,#420)) ;
#447=EDGE_LOOP('',(#448,#449,#450,#451)) ;
#459=EDGE_LOOP('',(#460,#461,#462,#463)) ;
#471=EDGE_LOOP('',(#472,#473)) ;
#21=MANIFOLD_SOLID_BREP('Body.3',#30) ;
#41=VERTEX_POINT('',#40) ;
#43=VERTEX_POINT('',#42) ;
#50=VERTEX_POINT('',#49) ;
#57=VERTEX_POINT('',#56) ;
#64=VERTEX_POINT('',#63) ;
#71=VERTEX_POINT('',#70) ;
#97=VERTEX_POINT('',#96) ;
#104=VERTEX_POINT('',#103) ;
#140=VERTEX_POINT('',#139) ;
#156=VERTEX_POINT('',#155) ;
#190=VERTEX_POINT('',#189) ;
#226=VERTEX_POINT('',#225) ;
#262=VERTEX_POINT('',#261) ;
#278=VERTEX_POINT('',#277) ;
#341=VERTEX_POINT('',#340) ;
#348=VERTEX_POINT('',#347) ;
#390=VERTEX_POINT('',#389) ;
#397=VERTEX_POINT('',#396) ;
#433=VERTEX_POINT('',#432) ;
#440=VERTEX_POINT('',#439) ;
#86=ADVANCED_FACE('Body.3',(#85),#35,.T.) ;
#129=ADVANCED_FACE('Body.3',(#128),#91,.T.) ;
#179=ADVANCED_FACE('Body.3',(#178),#134,.T.) ;
#215=ADVANCED_FACE('Body.3',(#214),#184,.T.) ;
#251=ADVANCED_FACE('Body.3',(#250),#220,.T.) ;
#301=ADVANCED_FACE('Body.3',(#300),#256,.T.) ;
#330=ADVANCED_FACE('Body.3',(#329),#306,.T.) ;
#364=ADVANCED_FACE('Body.3',(#363),#335,.T.) ;
#379=ADVANCED_FACE('Body.3',(#378),#335,.T.) ;
#410=ADVANCED_FACE('Body.3',(#409),#384,.T.) ;
#422=ADVANCED_FACE('Body.3',(#421),#384,.T.) ;
#453=ADVANCED_FACE('Body.3',(#452),#427,.T.) ;
#465=ADVANCED_FACE('Body.3',(#464),#427,.T.) ;
#475=ADVANCED_FACE('Body.3',(#474),#470,.T.) ;
#4=APPLICATION_PROTOCOL_DEFINITION('international standard','ap242_managed_model_based_3d_engineering',2014,#1) ;
#106=B_SPLINE_CURVE_WITH_KNOTS('',5,(#107,#108,#109,#110,#111,#112,#113,#114,#115,#116,#117,#118,#119,#120,#121),.UNSPECIFIED.,.F.,.U.,(6,3,3,3,6),(0.,0.0789136881907,30.9466948456,69.8840956457,104.770734253),.UNSPECIFIED.) ;
#142=B_SPLINE_CURVE_WITH_KNOTS('',5,(#143,#144,#145,#146,#147,#148,#149,#150,#151,#152,#153,#154),.UNSPECIFIED.,.F.,.U.,(6,3,3,6),(0.,0.15842282722,46.5564552257,54.7738154265),.UNSPECIFIED.) ;
#158=B_SPLINE_CURVE_WITH_KNOTS('',5,(#159,#160,#161,#162,#163,#164,#165,#166,#167,#168,#169,#170),.UNSPECIFIED.,.F.,.U.,(6,3,3,6),(0.,0.15842269169,46.5655652454,50.0629277943),.UNSPECIFIED.) ;
#192=B_SPLINE_CURVE_WITH_KNOTS('',5,(#193,#194,#195,#196,#197,#198,#199,#200,#201,#202,#203,#204,#205,#206,#207),.UNSPECIFIED.,.F.,.U.,(6,3,3,3,6),(0.,0.0789136881907,30.9466948401,69.8840956362,104.770734244),.UNSPECIFIED.) ;
#228=B_SPLINE_CURVE_WITH_KNOTS('',5,(#229,#230,#231,#232,#233,#234,#235,#236,#237,#238,#239,#240,#241,#242,#243),.UNSPECIFIED.,.F.,.U.,(6,3,3,3,6),(0.,0.0789136881909,30.946694844,69.8840956429,104.770734251),.UNSPECIFIED.) ;
#264=B_SPLINE_CURVE_WITH_KNOTS('',5,(#265,#266,#267,#268,#269,#270,#271,#272,#273,#274,#275,#276),.UNSPECIFIED.,.F.,.U.,(6,3,3,6),(0.,0.15842282722,46.5564552245,54.7738154252),.UNSPECIFIED.) ;
#280=B_SPLINE_CURVE_WITH_KNOTS('',5,(#281,#282,#283,#284,#285,#286,#287,#288,#289,#290,#291,#292),.UNSPECIFIED.,.F.,.U.,(6,3,3,6),(0.,0.15842269169,46.5655652436,50.0629277926),.UNSPECIFIED.) ;
#307=B_SPLINE_CURVE_WITH_KNOTS('',5,(#308,#309,#310,#311,#312,#313,#314,#315,#316,#317,#318,#319,#320,#321,#322),.UNSPECIFIED.,.F.,.U.,(6,3,3,3,6),(0.,0.0789136881907,30.9466948418,69.8840956402,104.770734245),.UNSPECIFIED.) ;
#22=COLOUR_RGB('Colour',0.882352941176,0.882352941176,0.882352941176) ;
#85=FACE_OUTER_BOUND('',#78,.T.) ;
#128=FACE_OUTER_BOUND('',#123,.T.) ;
#178=FACE_OUTER_BOUND('',#172,.T.) ;
#214=FACE_OUTER_BOUND('',#209,.T.) ;
#250=FACE_OUTER_BOUND('',#245,.T.) ;
#300=FACE_OUTER_BOUND('',#294,.T.) ;
#329=FACE_OUTER_BOUND('',#324,.T.) ;
#363=FACE_OUTER_BOUND('',#355,.T.) ;
#378=FACE_OUTER_BOUND('',#370,.T.) ;
#409=FACE_OUTER_BOUND('',#404,.T.) ;
#421=FACE_OUTER_BOUND('',#416,.T.) ;
#452=FACE_OUTER_BOUND('',#447,.T.) ;
#464=FACE_OUTER_BOUND('',#459,.T.) ;
#474=FACE_OUTER_BOUND('',#471,.T.) ;
#7=PRODUCT_CATEGORY_RELATIONSHIP(' ',' ',#5,#6) ;
#17=PRODUCT_DEFINITION_FORMATION_WITH_SPECIFIED_SOURCE('A.1',' ',#16,.NOT_KNOWN.) ;
#20=SHAPE_DEFINITION_REPRESENTATION(#19,#13) ;
#8=(LENGTH_UNIT()NAMED_UNIT(*)SI_UNIT(.MILLI.,.METRE.)) ;
#9=(NAMED_UNIT(*)PLANE_ANGLE_UNIT()SI_UNIT($,.RADIAN.)) ;
#10=(NAMED_UNIT(*)SI_UNIT($,.STERADIAN.)SOLID_ANGLE_UNIT()) ;
#12=(GEOMETRIC_REPRESENTATION_CONTEXT(3)GLOBAL_UNCERTAINTY_ASSIGNED_CONTEXT((#11))GLOBAL_UNIT_ASSIGNED_CONTEXT((#8,#9,#10))REPRESENTATION_CONTEXT(' ',' ')) ;
ENDSEC;
END-ISO-10303-21;
