ISO-10303-21;
HEADER;
FILE_DESCRIPTION(('3DEXPERIENCE STEP','CAx-IF Rec.Pracs.--- Model Styling and Organization---1.5--- 2016-08-15','CAx-IF Rec.Pracs.---Supplemental Geometry---1.0---2011-11-01','CAx-IF Rec.Pracs.--- Composite Materials ---3.4---2017-06-13','CAx-IF Rec.Pracs.---Tessellated 3D Geometry---1.0---2015-12-17'),'2;1');

FILE_NAME('\\\\?\\D:\\School\\CarTech\\CTU.25\\Tutorials\\Model\\OEM\\Washer_5.stp','2024-09-26T02:48:05+00:00',('none'),('none'),'3DEXPERIENCE Platform3DEXPERIENCE R2024x HotFix 4.24','3DEXPERIENCE Platform STEP AP242 v3','none');

FILE_SCHEMA(('AP242_MANAGED_MODEL_BASED_3D_ENGINEERING_MIM_LF  {1 0 10303 442 1 1 4}'));

ENDSEC;
DATA;
#16=PRODUCT('Washer_5_DIN_433_1','Washer_5_DIN_433_1','',(#2)) ;
#2=PRODUCT_CONTEXT(' ',#1,'mechanical') ;
#1=APPLICATION_CONTEXT('managed model based 3d engineering') ;
#18=PRODUCT_DEFINITION('Washer_5_DIN_433_1',' ',#17,#3) ;
#3=PRODUCT_DEFINITION_CONTEXT('part definition',#1,' ') ;
#19=PRODUCT_DEFINITION_SHAPE(' ',' ',#18) ;
#215=MECHANICAL_DESIGN_GEOMETRIC_PRESENTATION_REPRESENTATION(' ',(#29),#12) ;
#5=PRODUCT_CATEGORY('part','specification') ;
#13=SHAPE_REPRESENTATION(' ',(#15,#21),#12) ;
#14=CARTESIAN_POINT('',(0.,0.,0.)) ;
#31=CARTESIAN_POINT('Axis2P3D Location',(0.,3.06151588456E-17,0.5)) ;
#36=CARTESIAN_POINT('Line Origine',(2.65,-2.97212045682E-15,0.5)) ;
#40=CARTESIAN_POINT('Vertex',(2.65,-3.00273561575E-15,1.83858455695E-31)) ;
#42=CARTESIAN_POINT('Vertex',(2.65,-2.94150529806E-15,1.)) ;
#45=CARTESIAN_POINT('Axis2P3D Location',(-1.97002858324E-44,5.00002228442E-29,0.)) ;
#49=CARTESIAN_POINT('Vertex',(-2.65,1.50136780788E-15,-9.19292278474E-32)) ;
#52=CARTESIAN_POINT('Line Origine',(-2.65,1.53198296668E-15,0.5)) ;
#56=CARTESIAN_POINT('Vertex',(-2.65,1.56259812557E-15,1.)) ;
#59=CARTESIAN_POINT('Axis2P3D Location',(1.97002858324E-44,6.12303176911E-17,1.)) ;
#71=CARTESIAN_POINT('Axis2P3D Location',(1.97002858324E-44,6.12303176911E-17,1.)) ;
#76=CARTESIAN_POINT('Axis2P3D Location',(-1.97002858324E-44,5.00002228442E-29,0.)) ;
#88=CARTESIAN_POINT('Axis2P3D Location',(3.575,-6.59172750133E-33,-1.0765463499E-16)) ;
#94=CARTESIAN_POINT('Control Point',(4.50000000075,4.12406704142E-34,6.73533503791E-18)) ;
#95=CARTESIAN_POINT('Control Point',(4.50000000075,0.415640410548,-1.87144593452E-17)) ;
#96=CARTESIAN_POINT('Control Point',(4.45201195073,0.831280084202,-5.00986427685E-17)) ;
#97=CARTESIAN_POINT('Control Point',(4.35597254535,1.23973490099,-8.69851579292E-17)) ;
#98=CARTESIAN_POINT('Control Point',(4.07145446412,2.02668542656,-1.70355269437E-16)) ;
#99=CARTESIAN_POINT('Control Point',(3.6150980509,2.728095135,-2.69738048055E-16)) ;
#100=CARTESIAN_POINT('Control Point',(3.34710498708,3.05095520471,-3.22648190004E-16)) ;
#101=CARTESIAN_POINT('Control Point',(2.74171572509,3.62866230571,-4.3288674093E-16)) ;
#102=CARTESIAN_POINT('Control Point',(2.020612071,4.05321648001,-5.48057490399E-16)) ;
#103=CARTESIAN_POINT('Control Point',(1.63682536075,4.22282396236,-6.05903529612E-16)) ;
#104=CARTESIAN_POINT('Control Point',(0.837428987985,4.4702245969,-7.19909167492E-16)) ;
#105=CARTESIAN_POINT('Control Point',(0.00269101530182,4.5289545997,-8.26732955679E-16)) ;
#106=CARTESIAN_POINT('Control Point',(-0.416463821726,4.50976688279,-8.77392798333E-16)) ;
#107=CARTESIAN_POINT('Control Point',(-1.24234755025,4.37501631942,-9.71274751367E-16)) ;
#108=CARTESIAN_POINT('Control Point',(-2.01579398141,4.05561482452,-1.04736581962E-15)) ;
#109=CARTESIAN_POINT('Control Point',(-2.38247973963,3.85165286108,-1.08022329662E-15)) ;
#110=CARTESIAN_POINT('Control Point',(-3.06178042236,3.36298913147,-1.13430786626E-15)) ;
#111=CARTESIAN_POINT('Control Point',(-3.61185355563,2.7323892245,-1.16372073544E-15)) ;
#112=CARTESIAN_POINT('Control Point',(-3.849228393,2.38639482191,-1.17189030772E-15)) ;
#113=CARTESIAN_POINT('Control Point',(-4.20093869187,1.71951441722,-1.17455120383E-15)) ;
#114=CARTESIAN_POINT('Control Point',(-4.40739459844,0.996234750102,-1.1557958951E-15)) ;
#115=CARTESIAN_POINT('Control Point',(-4.4691372248,0.666650808186,-1.14325075717E-15)) ;
#116=CARTESIAN_POINT('Control Point',(-4.49999999925,0.333325634046,-1.1266577907E-15)) ;
#117=CARTESIAN_POINT('Control Point',(-4.49999999925,1.33226762955E-15,-1.10624815623E-15)) ;
#118=CARTESIAN_POINT('Vertex',(4.5,-4.44089209776E-16,2.71917233978E-32)) ;
#120=CARTESIAN_POINT('Vertex',(-4.5,5.51091059616E-16,-3.3743480657E-32)) ;
#124=CARTESIAN_POINT('Control Point',(-4.49999999925,6.66133814775E-16,-1.10624815623E-15)) ;
#125=CARTESIAN_POINT('Control Point',(-4.49999999925,-0.415640413994,-1.08079836163E-15)) ;
#126=CARTESIAN_POINT('Control Point',(-4.45201194849,-0.831280091093,-1.04941417791E-15)) ;
#127=CARTESIAN_POINT('Control Point',(-4.35597254679,-1.23973489843,-1.01252766378E-15)) ;
#128=CARTESIAN_POINT('Control Point',(-4.07145446724,-2.02668541988,-9.29157552733E-16)) ;
#129=CARTESIAN_POINT('Control Point',(-3.61509805758,-2.72809512499,-8.29774774759E-16)) ;
#130=CARTESIAN_POINT('Control Point',(-3.34710497928,-3.05095521537,-7.76864629753E-16)) ;
#131=CARTESIAN_POINT('Control Point',(-2.74171572646,-3.62866230582,-6.66626080608E-16)) ;
#132=CARTESIAN_POINT('Control Point',(-2.02061208521,-4.0532164746,-5.51455333066E-16)) ;
#133=CARTESIAN_POINT('Control Point',(-1.63682535733,-4.2228239626,-4.93609291326E-16)) ;
#134=CARTESIAN_POINT('Control Point',(-0.837428988233,-4.47022459605,-3.79603653967E-16)) ;
#135=CARTESIAN_POINT('Control Point',(-0.00269101922184,-4.52895459938,-2.727798662E-16)) ;
#136=CARTESIAN_POINT('Control Point',(0.416463811386,-4.50976688375,-2.22120024263E-16)) ;
#137=CARTESIAN_POINT('Control Point',(1.24234753953,-4.37501632248,-1.28238071146E-16)) ;
#138=CARTESIAN_POINT('Control Point',(2.01579397083,-4.05561483015,-5.21470027238E-17)) ;
#139=CARTESIAN_POINT('Control Point',(2.38247973267,-3.85165286486,-1.92895253875E-17)) ;
#140=CARTESIAN_POINT('Control Point',(3.06178041725,-3.36298913673,3.47950445778E-17)) ;
#141=CARTESIAN_POINT('Control Point',(3.61185355261,-2.73238923053,6.42079140572E-17)) ;
#142=CARTESIAN_POINT('Control Point',(3.84922837959,-2.3863948401,7.23774857961E-17)) ;
#143=CARTESIAN_POINT('Control Point',(4.20093868581,-1.71951442788,7.50383823538E-17)) ;
#144=CARTESIAN_POINT('Control Point',(4.40739459617,-0.996234751324,5.62830735235E-17)) ;
#145=CARTESIAN_POINT('Control Point',(4.46913722504,-0.666650821132,4.37379366207E-17)) ;
#146=CARTESIAN_POINT('Control Point',(4.50000000075,-0.333325640518,2.71449699014E-17)) ;
#147=CARTESIAN_POINT('Control Point',(4.50000000075,-2.22044604925E-16,6.73533503791E-18)) ;
#158=CARTESIAN_POINT('Axis2P3D Location',(3.575,6.12303176911E-17,1.)) ;
#163=CARTESIAN_POINT('Axis2P3D Location',(7.45057793239E-10,-3.82858892159E-16,1.)) ;
#167=CARTESIAN_POINT('Vertex',(4.50000000075,6.12303176911E-17,1.)) ;
#169=CARTESIAN_POINT('Vertex',(-4.49999999925,1.05641058716E-15,1.)) ;
#172=CARTESIAN_POINT('Axis2P3D Location',(7.45058681417E-10,5.05319527541E-16,1.)) ;
#186=CARTESIAN_POINT('Axis2P3D Location',(0.,3.06151588456E-17,0.5)) ;
#191=CARTESIAN_POINT('Line Origine',(4.5,3.06151588456E-17,0.5)) ;
#196=CARTESIAN_POINT('Line Origine',(-4.5,5.81706218417E-16,0.5)) ;
#6=PRODUCT_RELATED_PRODUCT_CATEGORY('part',$,(#16)) ;
#11=UNCERTAINTY_MEASURE_WITH_UNIT(LENGTH_MEASURE(0.005),#8,'distance_accuracy_value','CONFUSED CURVE UNCERTAINTY') ;
#29=STYLED_ITEM(' ',(#28),#21) ;
#28=PRESENTATION_STYLE_ASSIGNMENT((#27)) ;
#27=SURFACE_STYLE_USAGE(.BOTH.,#26) ;
#26=SURFACE_SIDE_STYLE(' ',(#25)) ;
#25=SURFACE_STYLE_FILL_AREA(#24) ;
#24=FILL_AREA_STYLE(' ',(#23)) ;
#23=FILL_AREA_STYLE_COLOUR(' ',#22) ;
#38=VECTOR('Line Direction',#37,1.) ;
#54=VECTOR('Line Direction',#53,1.) ;
#193=VECTOR('Line Direction',#192,1.) ;
#198=VECTOR('Line Direction',#197,1.) ;
#32=DIRECTION('Axis2P3D Direction',(3.94005716649E-44,6.12303176911E-17,1.)) ;
#33=DIRECTION('Axis2P3D XDirection',(1.,-8.881784197E-16,5.43834468046E-32)) ;
#37=DIRECTION('Vector Direction',(0.,6.12303176911E-17,1.)) ;
#46=DIRECTION('Axis2P3D Direction',(3.94005716649E-44,6.12303176911E-17,1.)) ;
#53=DIRECTION('Vector Direction',(0.,6.12303176911E-17,1.)) ;
#60=DIRECTION('Axis2P3D Direction',(3.94005716649E-44,6.12303176911E-17,1.)) ;
#72=DIRECTION('Axis2P3D Direction',(3.94005716649E-44,6.12303176911E-17,1.)) ;
#77=DIRECTION('Axis2P3D Direction',(3.94005716649E-44,6.12303176911E-17,1.)) ;
#89=DIRECTION('Axis2P3D Direction',(1.23664832363E-16,-6.12303176911E-17,-1.)) ;
#90=DIRECTION('Axis2P3D XDirection',(-1.,-7.57203697279E-33,-1.23664832363E-16)) ;
#159=DIRECTION('Axis2P3D Direction',(1.2002411077E-16,6.12303176911E-17,1.)) ;
#160=DIRECTION('Axis2P3D XDirection',(1.,-7.34911443306E-33,-1.2002411077E-16)) ;
#164=DIRECTION('Axis2P3D Direction',(1.2002411077E-16,6.12303176911E-17,1.)) ;
#173=DIRECTION('Axis2P3D Direction',(1.2002411077E-16,6.12303176911E-17,1.)) ;
#187=DIRECTION('Axis2P3D Direction',(-0.,6.12303176911E-17,1.)) ;
#188=DIRECTION('Axis2P3D XDirection',(1.,-9.86864910614E-17,6.04260519951E-33)) ;
#192=DIRECTION('Vector Direction',(0.,6.12303176911E-17,1.)) ;
#197=DIRECTION('Vector Direction',(0.,6.12303176911E-17,1.)) ;
#15=AXIS2_PLACEMENT_3D('',#14,$,$) ;
#34=AXIS2_PLACEMENT_3D('Cylinder Axis2P3D',#31,#32,#33) ;
#47=AXIS2_PLACEMENT_3D('Circle Axis2P3D',#45,#46,$) ;
#61=AXIS2_PLACEMENT_3D('Circle Axis2P3D',#59,#60,$) ;
#73=AXIS2_PLACEMENT_3D('Circle Axis2P3D',#71,#72,$) ;
#78=AXIS2_PLACEMENT_3D('Circle Axis2P3D',#76,#77,$) ;
#91=AXIS2_PLACEMENT_3D('Plane Axis2P3D',#88,#89,#90) ;
#161=AXIS2_PLACEMENT_3D('Plane Axis2P3D',#158,#159,#160) ;
#165=AXIS2_PLACEMENT_3D('Circle Axis2P3D',#163,#164,$) ;
#174=AXIS2_PLACEMENT_3D('Circle Axis2P3D',#172,#173,$) ;
#189=AXIS2_PLACEMENT_3D('Cylinder Axis2P3D',#186,#187,#188) ;
#39=LINE('Line',#36,#38) ;
#55=LINE('Line',#52,#54) ;
#194=LINE('Line',#191,#193) ;
#199=LINE('Line',#196,#198) ;
#48=CIRCLE('generated circle',#47,2.65) ;
#62=CIRCLE('generated circle',#61,2.65) ;
#74=CIRCLE('generated circle',#73,2.65) ;
#79=CIRCLE('generated circle',#78,2.65) ;
#166=CIRCLE('generated circle',#165,4.5) ;
#175=CIRCLE('generated circle',#174,4.5) ;
#92=PLANE('',#91) ;
#162=PLANE('',#161) ;
#35=CYLINDRICAL_SURFACE('generated cylinder',#34,2.65) ;
#190=CYLINDRICAL_SURFACE('generated cylinder',#189,4.5) ;
#156=FACE_BOUND('',#153,.T.) ;
#184=FACE_BOUND('',#181,.T.) ;
#44=EDGE_CURVE('',#41,#43,#39,.T.) ;
#51=EDGE_CURVE('',#50,#41,#48,.T.) ;
#58=EDGE_CURVE('',#57,#50,#55,.F.) ;
#63=EDGE_CURVE('',#57,#43,#62,.T.) ;
#75=EDGE_CURVE('',#43,#57,#74,.T.) ;
#80=EDGE_CURVE('',#41,#50,#79,.T.) ;
#122=EDGE_CURVE('',#119,#121,#93,.T.) ;
#148=EDGE_CURVE('',#121,#119,#123,.T.) ;
#171=EDGE_CURVE('',#168,#170,#166,.T.) ;
#176=EDGE_CURVE('',#170,#168,#175,.T.) ;
#195=EDGE_CURVE('',#119,#168,#194,.T.) ;
#200=EDGE_CURVE('',#170,#121,#199,.F.) ;
#30=CLOSED_SHELL('Closed Shell',(#70,#87,#157,#185,#207,#214)) ;
#65=ORIENTED_EDGE('',*,*,#44,.F.) ;
#66=ORIENTED_EDGE('',*,*,#51,.F.) ;
#67=ORIENTED_EDGE('',*,*,#58,.F.) ;
#68=ORIENTED_EDGE('',*,*,#63,.T.) ;
#82=ORIENTED_EDGE('',*,*,#44,.T.) ;
#83=ORIENTED_EDGE('',*,*,#75,.T.) ;
#84=ORIENTED_EDGE('',*,*,#58,.T.) ;
#85=ORIENTED_EDGE('',*,*,#80,.F.) ;
#150=ORIENTED_EDGE('',*,*,#122,.F.) ;
#151=ORIENTED_EDGE('',*,*,#148,.F.) ;
#154=ORIENTED_EDGE('',*,*,#80,.T.) ;
#155=ORIENTED_EDGE('',*,*,#51,.T.) ;
#178=ORIENTED_EDGE('',*,*,#171,.T.) ;
#179=ORIENTED_EDGE('',*,*,#176,.T.) ;
#182=ORIENTED_EDGE('',*,*,#75,.F.) ;
#183=ORIENTED_EDGE('',*,*,#63,.F.) ;
#202=ORIENTED_EDGE('',*,*,#195,.F.) ;
#203=ORIENTED_EDGE('',*,*,#122,.T.) ;
#204=ORIENTED_EDGE('',*,*,#200,.F.) ;
#205=ORIENTED_EDGE('',*,*,#171,.F.) ;
#209=ORIENTED_EDGE('',*,*,#195,.T.) ;
#210=ORIENTED_EDGE('',*,*,#176,.F.) ;
#211=ORIENTED_EDGE('',*,*,#200,.T.) ;
#212=ORIENTED_EDGE('',*,*,#148,.T.) ;
#64=EDGE_LOOP('',(#65,#66,#67,#68)) ;
#81=EDGE_LOOP('',(#82,#83,#84,#85)) ;
#149=EDGE_LOOP('',(#150,#151)) ;
#153=EDGE_LOOP('',(#154,#155)) ;
#177=EDGE_LOOP('',(#178,#179)) ;
#181=EDGE_LOOP('',(#182,#183)) ;
#201=EDGE_LOOP('',(#202,#203,#204,#205)) ;
#208=EDGE_LOOP('',(#209,#210,#211,#212)) ;
#21=MANIFOLD_SOLID_BREP('1',#30) ;
#41=VERTEX_POINT('',#40) ;
#43=VERTEX_POINT('',#42) ;
#50=VERTEX_POINT('',#49) ;
#57=VERTEX_POINT('',#56) ;
#119=VERTEX_POINT('',#118) ;
#121=VERTEX_POINT('',#120) ;
#168=VERTEX_POINT('',#167) ;
#170=VERTEX_POINT('',#169) ;
#70=ADVANCED_FACE('1',(#69),#35,.F.) ;
#87=ADVANCED_FACE('1',(#86),#35,.F.) ;
#157=ADVANCED_FACE('1',(#152,#156),#92,.T.) ;
#185=ADVANCED_FACE('1',(#180,#184),#162,.T.) ;
#207=ADVANCED_FACE('1',(#206),#190,.T.) ;
#214=ADVANCED_FACE('1',(#213),#190,.T.) ;
#4=APPLICATION_PROTOCOL_DEFINITION('international standard','ap242_managed_model_based_3d_engineering',2014,#1) ;
#93=B_SPLINE_CURVE_WITH_KNOTS('',5,(#94,#95,#96,#97,#98,#99,#100,#101,#102,#103,#104,#105,#106,#107,#108,#109,#110,#111,#112,#113,#114,#115,#116,#117),.UNSPECIFIED.,.F.,.U.,(6,3,3,3,3,3,3,6),(0.,2.94541712635,5.8908342404,8.83625127886,11.7816682922,14.7270853578,17.6725023879,20.0345995427),.UNSPECIFIED.) ;
#123=B_SPLINE_CURVE_WITH_KNOTS('',5,(#124,#125,#126,#127,#128,#129,#130,#131,#132,#133,#134,#135,#136,#137,#138,#139,#140,#141,#142,#143,#144,#145,#146,#147),.UNSPECIFIED.,.F.,.U.,(6,3,3,3,3,3,3,6),(0.,2.94541715564,5.89083421823,8.8362512213,11.7816682539,14.7270853046,17.6725023643,20.0345995688),.UNSPECIFIED.) ;
#22=COLOUR_RGB('Colour',0.882352941176,0.882352941176,0.882352941176) ;
#69=FACE_OUTER_BOUND('',#64,.T.) ;
#86=FACE_OUTER_BOUND('',#81,.T.) ;
#152=FACE_OUTER_BOUND('',#149,.T.) ;
#180=FACE_OUTER_BOUND('',#177,.T.) ;
#206=FACE_OUTER_BOUND('',#201,.T.) ;
#213=FACE_OUTER_BOUND('',#208,.T.) ;
#7=PRODUCT_CATEGORY_RELATIONSHIP(' ',' ',#5,#6) ;
#17=PRODUCT_DEFINITION_FORMATION_WITH_SPECIFIED_SOURCE('',' ',#16,.NOT_KNOWN.) ;
#20=SHAPE_DEFINITION_REPRESENTATION(#19,#13) ;
#8=(LENGTH_UNIT()NAMED_UNIT(*)SI_UNIT(.MILLI.,.METRE.)) ;
#9=(NAMED_UNIT(*)PLANE_ANGLE_UNIT()SI_UNIT($,.RADIAN.)) ;
#10=(NAMED_UNIT(*)SI_UNIT($,.STERADIAN.)SOLID_ANGLE_UNIT()) ;
#12=(GEOMETRIC_REPRESENTATION_CONTEXT(3)GLOBAL_UNCERTAINTY_ASSIGNED_CONTEXT((#11))GLOBAL_UNIT_ASSIGNED_CONTEXT((#8,#9,#10))REPRESENTATION_CONTEXT(' ',' ')) ;
ENDSEC;
END-ISO-10303-21;
