ISO-10303-21;
HEADER;
FILE_DESCRIPTION(('3DEXPERIENCE STEP','CAx-IF Rec.Pracs.--- Model Styling and Organization---1.5--- 2016-08-15','CAx-IF Rec.Pracs.---Supplemental Geometry---1.0---2011-11-01','CAx-IF Rec.Pracs.--- Composite Materials ---3.4---2017-06-13','CAx-IF Rec.Pracs.---Tessellated 3D Geometry---1.0---2015-12-17'),'2;1');

FILE_NAME('\\\\?\\D:\\School\\CarTech\\CTU.25\\Tutorials\\Model\\OEM\\Washer_6.stp','2024-09-26T02:48:28+00:00',('none'),('none'),'3DEXPERIENCE Platform3DEXPERIENCE R2024x HotFix 4.24','3DEXPERIENCE Platform STEP AP242 v3','none');

FILE_SCHEMA(('AP242_MANAGED_MODEL_BASED_3D_ENGINEERING_MIM_LF  {1 0 10303 442 1 1 4}'));

ENDSEC;
DATA;
#16=PRODUCT('Washer_6_DIN_433_1','Washer_6_DIN_433_1','',(#2)) ;
#2=PRODUCT_CONTEXT(' ',#1,'mechanical') ;
#1=APPLICATION_CONTEXT('managed model based 3d engineering') ;
#18=PRODUCT_DEFINITION('Washer_6_DIN_433_1',' ',#17,#3) ;
#3=PRODUCT_DEFINITION_CONTEXT('part definition',#1,' ') ;
#19=PRODUCT_DEFINITION_SHAPE(' ',' ',#18) ;
#173=MECHANICAL_DESIGN_GEOMETRIC_PRESENTATION_REPRESENTATION(' ',(#29),#12) ;
#5=PRODUCT_CATEGORY('part','specification') ;
#13=SHAPE_REPRESENTATION(' ',(#15,#21),#12) ;
#14=CARTESIAN_POINT('',(0.,0.,0.)) ;
#31=CARTESIAN_POINT('Axis2P3D Location',(4.89858719659E-17,0.,0.8)) ;
#36=CARTESIAN_POINT('Line Origine',(4.89858719321E-17,5.5,0.800000000745)) ;
#40=CARTESIAN_POINT('Vertex',(-4.56416554093E-26,5.5,-7.45058015283E-10)) ;
#42=CARTESIAN_POINT('Vertex',(-4.4408920985E-16,5.5,1.60000000075)) ;
#45=CARTESIAN_POINT('Axis2P3D Location',(-4.56416554093E-26,0.,-7.45058015283E-10)) ;
#49=CARTESIAN_POINT('Vertex',(-3.11604639375E-15,-5.5,-7.45058015283E-10)) ;
#52=CARTESIAN_POINT('Line Origine',(-3.0670605218E-15,-5.5,0.800000000745)) ;
#56=CARTESIAN_POINT('Vertex',(-3.01807464973E-15,-5.5,1.60000000075)) ;
#59=CARTESIAN_POINT('Axis2P3D Location',(9.79717439774E-17,0.,1.60000000075)) ;
#71=CARTESIAN_POINT('Axis2P3D Location',(-4.56416554093E-26,0.,-7.45058015283E-10)) ;
#76=CARTESIAN_POINT('Axis2P3D Location',(9.79717439774E-17,0.,1.60000000075)) ;
#88=CARTESIAN_POINT('Axis2P3D Location',(0.,0.,0.)) ;
#97=CARTESIAN_POINT('Axis2P3D Location',(6.66133814775E-16,-6.66133814775E-16,-4.07889322034E-32)) ;
#101=CARTESIAN_POINT('Vertex',(1.69533231033E-15,-3.19999999925,-1.03809164367E-31)) ;
#103=CARTESIAN_POINT('Vertex',(-2.72453080588E-15,3.19999999925,1.6682939653E-31)) ;
#106=CARTESIAN_POINT('Axis2P3D Location',(-6.66133814775E-16,6.66133814775E-16,4.07889322034E-32)) ;
#116=CARTESIAN_POINT('Axis2P3D Location',(9.79717439318E-17,0.,1.6)) ;
#125=CARTESIAN_POINT('Axis2P3D Location',(-5.68162070843E-16,6.66133814775E-16,1.6)) ;
#129=CARTESIAN_POINT('Vertex',(-2.62655906195E-15,3.19999999925,1.6)) ;
#131=CARTESIAN_POINT('Vertex',(1.79330405426E-15,-3.19999999925,1.6)) ;
#134=CARTESIAN_POINT('Axis2P3D Location',(7.64105558707E-16,-6.66133814775E-16,1.6)) ;
#144=CARTESIAN_POINT('Axis2P3D Location',(4.89858719659E-17,0.,0.8)) ;
#149=CARTESIAN_POINT('Line Origine',(-3.42901103835E-16,-3.2,0.800000000745)) ;
#154=CARTESIAN_POINT('Line Origine',(8.32759823465E-16,3.2,0.800000000745)) ;
#6=PRODUCT_RELATED_PRODUCT_CATEGORY('part',$,(#16)) ;
#11=UNCERTAINTY_MEASURE_WITH_UNIT(LENGTH_MEASURE(0.005),#8,'distance_accuracy_value','CONFUSED CURVE UNCERTAINTY') ;
#29=STYLED_ITEM(' ',(#28),#21) ;
#28=PRESENTATION_STYLE_ASSIGNMENT((#27)) ;
#27=SURFACE_STYLE_USAGE(.BOTH.,#26) ;
#26=SURFACE_SIDE_STYLE(' ',(#25)) ;
#25=SURFACE_STYLE_FILL_AREA(#24) ;
#24=FILL_AREA_STYLE(' ',(#23)) ;
#23=FILL_AREA_STYLE_COLOUR(' ',#22) ;
#38=VECTOR('Line Direction',#37,1.) ;
#54=VECTOR('Line Direction',#53,1.) ;
#151=VECTOR('Line Direction',#150,1.) ;
#156=VECTOR('Line Direction',#155,1.) ;
#32=DIRECTION('Axis2P3D Direction',(6.12323399574E-17,-0.,1.)) ;
#33=DIRECTION('Axis2P3D XDirection',(0.,1.,0.)) ;
#37=DIRECTION('Vector Direction',(6.12323399574E-17,0.,1.)) ;
#46=DIRECTION('Axis2P3D Direction',(6.12323399574E-17,-0.,1.)) ;
#53=DIRECTION('Vector Direction',(6.12323399574E-17,0.,1.)) ;
#60=DIRECTION('Axis2P3D Direction',(6.12323399574E-17,-0.,1.)) ;
#72=DIRECTION('Axis2P3D Direction',(6.12323399574E-17,-0.,1.)) ;
#77=DIRECTION('Axis2P3D Direction',(6.12323399574E-17,-0.,1.)) ;
#89=DIRECTION('Axis2P3D Direction',(6.12323399574E-17,-0.,1.)) ;
#90=DIRECTION('Axis2P3D XDirection',(0.,1.,0.)) ;
#98=DIRECTION('Axis2P3D Direction',(6.12323399574E-17,-0.,1.)) ;
#107=DIRECTION('Axis2P3D Direction',(6.12323399574E-17,-0.,1.)) ;
#117=DIRECTION('Axis2P3D Direction',(6.12323399574E-17,-0.,1.)) ;
#118=DIRECTION('Axis2P3D XDirection',(0.,1.,0.)) ;
#126=DIRECTION('Axis2P3D Direction',(6.12323399574E-17,-0.,1.)) ;
#135=DIRECTION('Axis2P3D Direction',(6.12323399574E-17,-0.,1.)) ;
#145=DIRECTION('Axis2P3D Direction',(6.12323399574E-17,0.,1.)) ;
#146=DIRECTION('Axis2P3D XDirection',(2.64687485605E-28,1.,-1.62066188604E-44)) ;
#150=DIRECTION('Vector Direction',(6.12323399574E-17,0.,1.)) ;
#155=DIRECTION('Vector Direction',(6.12323399574E-17,0.,1.)) ;
#15=AXIS2_PLACEMENT_3D('',#14,$,$) ;
#34=AXIS2_PLACEMENT_3D('Cylinder Axis2P3D',#31,#32,#33) ;
#47=AXIS2_PLACEMENT_3D('Circle Axis2P3D',#45,#46,$) ;
#61=AXIS2_PLACEMENT_3D('Circle Axis2P3D',#59,#60,$) ;
#73=AXIS2_PLACEMENT_3D('Circle Axis2P3D',#71,#72,$) ;
#78=AXIS2_PLACEMENT_3D('Circle Axis2P3D',#76,#77,$) ;
#91=AXIS2_PLACEMENT_3D('Plane Axis2P3D',#88,#89,#90) ;
#99=AXIS2_PLACEMENT_3D('Circle Axis2P3D',#97,#98,$) ;
#108=AXIS2_PLACEMENT_3D('Circle Axis2P3D',#106,#107,$) ;
#119=AXIS2_PLACEMENT_3D('Plane Axis2P3D',#116,#117,#118) ;
#127=AXIS2_PLACEMENT_3D('Circle Axis2P3D',#125,#126,$) ;
#136=AXIS2_PLACEMENT_3D('Circle Axis2P3D',#134,#135,$) ;
#147=AXIS2_PLACEMENT_3D('Cylinder Axis2P3D',#144,#145,#146) ;
#39=LINE('Line',#36,#38) ;
#55=LINE('Line',#52,#54) ;
#152=LINE('Line',#149,#151) ;
#157=LINE('Line',#154,#156) ;
#48=CIRCLE('generated circle',#47,5.5) ;
#62=CIRCLE('generated circle',#61,5.5) ;
#74=CIRCLE('generated circle',#73,5.5) ;
#79=CIRCLE('generated circle',#78,5.5) ;
#100=CIRCLE('generated circle',#99,3.19999999925) ;
#109=CIRCLE('generated circle',#108,3.19999999925) ;
#128=CIRCLE('generated circle',#127,3.19999999925) ;
#137=CIRCLE('generated circle',#136,3.19999999925) ;
#92=PLANE('',#91) ;
#120=PLANE('',#119) ;
#35=CYLINDRICAL_SURFACE('generated cylinder',#34,5.5) ;
#148=CYLINDRICAL_SURFACE('generated cylinder',#147,3.2) ;
#114=FACE_BOUND('',#111,.T.) ;
#142=FACE_BOUND('',#139,.T.) ;
#44=EDGE_CURVE('',#41,#43,#39,.T.) ;
#51=EDGE_CURVE('',#41,#50,#48,.T.) ;
#58=EDGE_CURVE('',#50,#57,#55,.T.) ;
#63=EDGE_CURVE('',#43,#57,#62,.T.) ;
#75=EDGE_CURVE('',#50,#41,#74,.T.) ;
#80=EDGE_CURVE('',#57,#43,#79,.T.) ;
#105=EDGE_CURVE('',#102,#104,#100,.T.) ;
#110=EDGE_CURVE('',#104,#102,#109,.T.) ;
#133=EDGE_CURVE('',#130,#132,#128,.T.) ;
#138=EDGE_CURVE('',#132,#130,#137,.T.) ;
#153=EDGE_CURVE('',#102,#132,#152,.T.) ;
#158=EDGE_CURVE('',#104,#130,#157,.T.) ;
#30=CLOSED_SHELL('Closed Shell',(#70,#87,#115,#143,#165,#172)) ;
#65=ORIENTED_EDGE('',*,*,#44,.F.) ;
#66=ORIENTED_EDGE('',*,*,#51,.T.) ;
#67=ORIENTED_EDGE('',*,*,#58,.T.) ;
#68=ORIENTED_EDGE('',*,*,#63,.F.) ;
#82=ORIENTED_EDGE('',*,*,#58,.F.) ;
#83=ORIENTED_EDGE('',*,*,#75,.T.) ;
#84=ORIENTED_EDGE('',*,*,#44,.T.) ;
#85=ORIENTED_EDGE('',*,*,#80,.F.) ;
#94=ORIENTED_EDGE('',*,*,#75,.F.) ;
#95=ORIENTED_EDGE('',*,*,#51,.F.) ;
#112=ORIENTED_EDGE('',*,*,#105,.T.) ;
#113=ORIENTED_EDGE('',*,*,#110,.T.) ;
#122=ORIENTED_EDGE('',*,*,#63,.T.) ;
#123=ORIENTED_EDGE('',*,*,#80,.T.) ;
#140=ORIENTED_EDGE('',*,*,#133,.F.) ;
#141=ORIENTED_EDGE('',*,*,#138,.F.) ;
#160=ORIENTED_EDGE('',*,*,#153,.T.) ;
#161=ORIENTED_EDGE('',*,*,#138,.T.) ;
#162=ORIENTED_EDGE('',*,*,#158,.F.) ;
#163=ORIENTED_EDGE('',*,*,#105,.F.) ;
#167=ORIENTED_EDGE('',*,*,#158,.T.) ;
#168=ORIENTED_EDGE('',*,*,#133,.T.) ;
#169=ORIENTED_EDGE('',*,*,#153,.F.) ;
#170=ORIENTED_EDGE('',*,*,#110,.F.) ;
#64=EDGE_LOOP('',(#65,#66,#67,#68)) ;
#81=EDGE_LOOP('',(#82,#83,#84,#85)) ;
#93=EDGE_LOOP('',(#94,#95)) ;
#111=EDGE_LOOP('',(#112,#113)) ;
#121=EDGE_LOOP('',(#122,#123)) ;
#139=EDGE_LOOP('',(#140,#141)) ;
#159=EDGE_LOOP('',(#160,#161,#162,#163)) ;
#166=EDGE_LOOP('',(#167,#168,#169,#170)) ;
#21=MANIFOLD_SOLID_BREP('Body.2',#30) ;
#41=VERTEX_POINT('',#40) ;
#43=VERTEX_POINT('',#42) ;
#50=VERTEX_POINT('',#49) ;
#57=VERTEX_POINT('',#56) ;
#102=VERTEX_POINT('',#101) ;
#104=VERTEX_POINT('',#103) ;
#130=VERTEX_POINT('',#129) ;
#132=VERTEX_POINT('',#131) ;
#70=ADVANCED_FACE('Body.2',(#69),#35,.T.) ;
#87=ADVANCED_FACE('Body.2',(#86),#35,.T.) ;
#115=ADVANCED_FACE('Body.2',(#96,#114),#92,.F.) ;
#143=ADVANCED_FACE('Body.2',(#124,#142),#120,.T.) ;
#165=ADVANCED_FACE('Body.2',(#164),#148,.F.) ;
#172=ADVANCED_FACE('Body.2',(#171),#148,.F.) ;
#4=APPLICATION_PROTOCOL_DEFINITION('international standard','ap242_managed_model_based_3d_engineering',2014,#1) ;
#22=COLOUR_RGB('Colour',0.882352941176,0.882352941176,0.882352941176) ;
#69=FACE_OUTER_BOUND('',#64,.T.) ;
#86=FACE_OUTER_BOUND('',#81,.T.) ;
#96=FACE_OUTER_BOUND('',#93,.T.) ;
#124=FACE_OUTER_BOUND('',#121,.T.) ;
#164=FACE_OUTER_BOUND('',#159,.T.) ;
#171=FACE_OUTER_BOUND('',#166,.T.) ;
#7=PRODUCT_CATEGORY_RELATIONSHIP(' ',' ',#5,#6) ;
#17=PRODUCT_DEFINITION_FORMATION_WITH_SPECIFIED_SOURCE('A.1',' ',#16,.NOT_KNOWN.) ;
#20=SHAPE_DEFINITION_REPRESENTATION(#19,#13) ;
#8=(LENGTH_UNIT()NAMED_UNIT(*)SI_UNIT(.MILLI.,.METRE.)) ;
#9=(NAMED_UNIT(*)PLANE_ANGLE_UNIT()SI_UNIT($,.RADIAN.)) ;
#10=(NAMED_UNIT(*)SI_UNIT($,.STERADIAN.)SOLID_ANGLE_UNIT()) ;
#12=(GEOMETRIC_REPRESENTATION_CONTEXT(3)GLOBAL_UNCERTAINTY_ASSIGNED_CONTEXT((#11))GLOBAL_UNIT_ASSIGNED_CONTEXT((#8,#9,#10))REPRESENTATION_CONTEXT(' ',' ')) ;
ENDSEC;
END-ISO-10303-21;
