ISO-10303-21;
HEADER;
FILE_DESCRIPTION(('3DEXPERIENCE STEP','CAx-IF Rec.Pracs.--- Model Styling and Organization---1.5--- 2016-08-15','CAx-IF Rec.Pracs.---Supplemental Geometry---1.0---2011-11-01','CAx-IF Rec.Pracs.--- Composite Materials ---3.4---2017-06-13','CAx-IF Rec.Pracs.---Tessellated 3D Geometry---1.0---2015-12-17'),'2;1');

FILE_NAME('\\\\?\\D:\\School\\CarTech\\CTU.25\\Tutorials\\Model\\OEM\\Washer_8.stp','2024-09-26T02:48:46+00:00',('none'),('none'),'3DEXPERIENCE Platform3DEXPERIENCE R2024x HotFix 4.24','3DEXPERIENCE Platform STEP AP242 v3','none');

FILE_SCHEMA(('AP242_MANAGED_MODEL_BASED_3D_ENGINEERING_MIM_LF  {1 0 10303 442 1 1 4}'));

ENDSEC;
DATA;
#16=PRODUCT('Washer_8_DIN_433','Washer_8_DIN_433','',(#2)) ;
#2=PRODUCT_CONTEXT(' ',#1,'mechanical') ;
#1=APPLICATION_CONTEXT('managed model based 3d engineering') ;
#18=PRODUCT_DEFINITION('Washer_8_DIN_433',' ',#17,#3) ;
#3=PRODUCT_DEFINITION_CONTEXT('part definition',#1,' ') ;
#19=PRODUCT_DEFINITION_SHAPE(' ',' ',#18) ;
#257=MECHANICAL_DESIGN_GEOMETRIC_PRESENTATION_REPRESENTATION(' ',(#29),#12) ;
#5=PRODUCT_CATEGORY('part','specification') ;
#13=SHAPE_REPRESENTATION(' ',(#15,#21),#12) ;
#14=CARTESIAN_POINT('',(0.,0.,0.)) ;
#31=CARTESIAN_POINT('Axis2P3D Location',(4.89842541529E-17,0.,0.8)) ;
#36=CARTESIAN_POINT('Line Origine',(7.5,0.,0.800000000745)) ;
#40=CARTESIAN_POINT('Vertex',(7.5,0.,-7.45058474511E-10)) ;
#42=CARTESIAN_POINT('Vertex',(7.5,0.,1.60000000075)) ;
#45=CARTESIAN_POINT('Axis2P3D Location',(-4.56001477671E-26,0.,-7.45058015283E-10)) ;
#49=CARTESIAN_POINT('Vertex',(-7.5,1.0910492321E-14,-7.45057556056E-10)) ;
#52=CARTESIAN_POINT('Line Origine',(-7.5,4.24915417324E-15,0.800000000745)) ;
#56=CARTESIAN_POINT('Vertex',(-7.5,4.24915417324E-15,1.60000000075)) ;
#59=CARTESIAN_POINT('Axis2P3D Location',(9.79685083514E-17,0.,1.60000000075)) ;
#71=CARTESIAN_POINT('Axis2P3D Location',(9.79685083514E-17,0.,1.60000000075)) ;
#76=CARTESIAN_POINT('Axis2P3D Location',(-4.56001477671E-26,0.,-7.45058015283E-10)) ;
#88=CARTESIAN_POINT('Axis2P3D Location',(0.,0.,0.)) ;
#98=CARTESIAN_POINT('Control Point',(-4.19999999925,0.,2.57167334257E-16)) ;
#99=CARTESIAN_POINT('Control Point',(-4.19999999925,-0.401571604896,2.57167334257E-16)) ;
#100=CARTESIAN_POINT('Control Point',(-4.15200602297,-0.803142504146,2.54228647842E-16)) ;
#101=CARTESIAN_POINT('Control Point',(-4.05598174433,-1.19716593391,2.48349050755E-16)) ;
#102=CARTESIAN_POINT('Control Point',(-3.77169569,-1.9544217665,2.30942125333E-16)) ;
#103=CARTESIAN_POINT('Control Point',(-3.31695995635,-2.62335063514,2.03098511896E-16)) ;
#104=CARTESIAN_POINT('Control Point',(-3.05041951514,-2.92901604015,1.86778156003E-16)) ;
#105=CARTESIAN_POINT('Control Point',(-2.44960948879,-3.47057144672,1.49990367218E-16)) ;
#106=CARTESIAN_POINT('Control Point',(-1.73809867658,-3.85528272697,1.06424334145E-16)) ;
#107=CARTESIAN_POINT('Control Point',(-1.36081272849,-4.0040458155,8.33229956833E-17)) ;
#108=CARTESIAN_POINT('Control Point',(-0.578208007908,-4.20845913681,3.54038600157E-17)) ;
#109=CARTESIAN_POINT('Control Point',(0.230524392862,-4.22268284539,-1.41150818105E-17)) ;
#110=CARTESIAN_POINT('Control Point',(0.633950952309,-4.18118408695,-3.88170182104E-17)) ;
#111=CARTESIAN_POINT('Control Point',(1.42285434241,-4.0026164357,-8.7121823414E-17)) ;
#112=CARTESIAN_POINT('Control Point',(2.14745327554,-3.64316295769,-1.31489246288E-16)) ;
#113=CARTESIAN_POINT('Control Point',(2.48655362986,-3.42070829261,-1.52252468713E-16)) ;
#114=CARTESIAN_POINT('Control Point',(3.10484721307,-2.89920275231,-1.90110781239E-16)) ;
#115=CARTESIAN_POINT('Control Point',(3.58282421949,-2.2466781065,-2.1937746519E-16)) ;
#116=CARTESIAN_POINT('Control Point',(3.78155644816,-1.89315213452,-2.31545902687E-16)) ;
#117=CARTESIAN_POINT('Control Point',(4.02433484195,-1.30591445163,-2.46411300868E-16)) ;
#118=CARTESIAN_POINT('Control Point',(4.15302036278,-0.686724501416,-2.54290756191E-16)) ;
#119=CARTESIAN_POINT('Control Point',(4.18434053932,-0.458762454352,-2.5620850055E-16)) ;
#120=CARTESIAN_POINT('Control Point',(4.19999999925,-0.229381309243,-2.57167334257E-16)) ;
#121=CARTESIAN_POINT('Control Point',(4.19999999925,-3.33066907388E-16,-2.57167334257E-16)) ;
#122=CARTESIAN_POINT('Vertex',(-4.19999999925,0.,2.57167334257E-16)) ;
#124=CARTESIAN_POINT('Vertex',(4.2,-1.11170223068E-27,-7.45058272451E-10)) ;
#128=CARTESIAN_POINT('Control Point',(4.19999999925,-5.55111512313E-16,-2.57167334257E-16)) ;
#129=CARTESIAN_POINT('Control Point',(4.19999999925,0.401571604902,-2.57167334257E-16)) ;
#130=CARTESIAN_POINT('Control Point',(4.15200602298,0.803142504158,-2.54228647842E-16)) ;
#131=CARTESIAN_POINT('Control Point',(4.05598174433,1.1971659339,-2.48349050755E-16)) ;
#132=CARTESIAN_POINT('Control Point',(3.77169569002,1.95442176649,-2.30942125334E-16)) ;
#133=CARTESIAN_POINT('Control Point',(3.31695995636,2.62335063509,-2.03098511896E-16)) ;
#134=CARTESIAN_POINT('Control Point',(3.05041951512,2.92901604021,-1.86778156002E-16)) ;
#135=CARTESIAN_POINT('Control Point',(2.44960948879,3.47057144669,-1.49990367218E-16)) ;
#136=CARTESIAN_POINT('Control Point',(1.73809867665,3.85528272693,-1.0642433415E-16)) ;
#137=CARTESIAN_POINT('Control Point',(1.36081272842,4.00404581553,-8.33229956791E-17)) ;
#138=CARTESIAN_POINT('Control Point',(0.578208007876,4.20845913682,-3.54038600138E-17)) ;
#139=CARTESIAN_POINT('Control Point',(-0.230524392856,4.22268284537,1.41150818101E-17)) ;
#140=CARTESIAN_POINT('Control Point',(-0.633950952329,4.18118408696,3.88170182117E-17)) ;
#141=CARTESIAN_POINT('Control Point',(-1.42285434241,4.0026164357,8.71218234137E-17)) ;
#142=CARTESIAN_POINT('Control Point',(-2.14745327552,3.64316295768,1.31489246287E-16)) ;
#143=CARTESIAN_POINT('Control Point',(-2.48655362991,3.42070829263,1.52252468715E-16)) ;
#144=CARTESIAN_POINT('Control Point',(-3.10484721306,2.89920275229,1.90110781238E-16)) ;
#145=CARTESIAN_POINT('Control Point',(-3.58282421946,2.24667810651,2.19377465189E-16)) ;
#146=CARTESIAN_POINT('Control Point',(-3.78155644817,1.89315213451,2.31545902688E-16)) ;
#147=CARTESIAN_POINT('Control Point',(-4.02433484196,1.30591445161,2.46411300869E-16)) ;
#148=CARTESIAN_POINT('Control Point',(-4.15302036277,0.686724501385,2.5429075619E-16)) ;
#149=CARTESIAN_POINT('Control Point',(-4.18434053932,0.458762454381,2.5620850055E-16)) ;
#150=CARTESIAN_POINT('Control Point',(-4.19999999925,0.229381309258,2.57167334257E-16)) ;
#151=CARTESIAN_POINT('Control Point',(-4.19999999925,1.11022302463E-16,2.57167334257E-16)) ;
#158=CARTESIAN_POINT('Axis2P3D Location',(9.79685083058E-17,0.,1.6)) ;
#168=CARTESIAN_POINT('Control Point',(-4.19999999925,2.22044604925E-16,1.6)) ;
#169=CARTESIAN_POINT('Control Point',(-4.19999999925,0.401571604906,1.6)) ;
#170=CARTESIAN_POINT('Control Point',(-4.15200602299,0.803142504167,1.6)) ;
#171=CARTESIAN_POINT('Control Point',(-4.05598174433,1.19716593388,1.6)) ;
#172=CARTESIAN_POINT('Control Point',(-3.77169569002,1.9544217665,1.6)) ;
#173=CARTESIAN_POINT('Control Point',(-3.31695995633,2.62335063514,1.6)) ;
#174=CARTESIAN_POINT('Control Point',(-3.05041951514,2.92901604016,1.6)) ;
#175=CARTESIAN_POINT('Control Point',(-2.44960948879,3.4705714467,1.6)) ;
#176=CARTESIAN_POINT('Control Point',(-1.7380986766,3.85528272697,1.6)) ;
#177=CARTESIAN_POINT('Control Point',(-1.36081272847,4.0040458155,1.6)) ;
#178=CARTESIAN_POINT('Control Point',(-0.578208007891,4.20845913681,1.6)) ;
#179=CARTESIAN_POINT('Control Point',(0.230524392888,4.2226828454,1.6)) ;
#180=CARTESIAN_POINT('Control Point',(0.633950952281,4.18118408694,1.6)) ;
#181=CARTESIAN_POINT('Control Point',(1.42285434241,4.00261643571,1.6)) ;
#182=CARTESIAN_POINT('Control Point',(2.14745327556,3.64316295769,1.6)) ;
#183=CARTESIAN_POINT('Control Point',(2.48655362985,3.42070829262,1.6)) ;
#184=CARTESIAN_POINT('Control Point',(3.10484721306,2.89920275231,1.6)) ;
#185=CARTESIAN_POINT('Control Point',(3.58282421951,2.2466781065,1.6)) ;
#186=CARTESIAN_POINT('Control Point',(3.78155644815,1.89315213452,1.6)) ;
#187=CARTESIAN_POINT('Control Point',(4.02433484192,1.30591445166,1.6)) ;
#188=CARTESIAN_POINT('Control Point',(4.15302036278,0.686724501489,1.6)) ;
#189=CARTESIAN_POINT('Control Point',(4.18434053932,0.458762454268,1.6)) ;
#190=CARTESIAN_POINT('Control Point',(4.19999999925,0.229381309201,1.6)) ;
#191=CARTESIAN_POINT('Control Point',(4.19999999925,1.22124532709E-15,1.6)) ;
#192=CARTESIAN_POINT('Vertex',(-4.2,5.14351655643E-16,1.60000000075)) ;
#194=CARTESIAN_POINT('Vertex',(4.2,-1.02870331128E-15,1.60000000075)) ;
#198=CARTESIAN_POINT('Control Point',(4.19999999925,6.66133814775E-16,1.6)) ;
#199=CARTESIAN_POINT('Control Point',(4.19999999925,-0.40157160491,1.6)) ;
#200=CARTESIAN_POINT('Control Point',(4.15200602298,-0.803142504173,1.6)) ;
#201=CARTESIAN_POINT('Control Point',(4.05598174433,-1.19716593388,1.6)) ;
#202=CARTESIAN_POINT('Control Point',(3.77169569004,-1.95442176648,1.6)) ;
#203=CARTESIAN_POINT('Control Point',(3.31695995635,-2.62335063509,1.6)) ;
#204=CARTESIAN_POINT('Control Point',(3.05041951513,-2.92901604021,1.6)) ;
#205=CARTESIAN_POINT('Control Point',(2.44960948879,-3.47057144668,1.6)) ;
#206=CARTESIAN_POINT('Control Point',(1.73809867667,-3.85528272693,1.6)) ;
#207=CARTESIAN_POINT('Control Point',(1.3608127284,-4.00404581553,1.6)) ;
#208=CARTESIAN_POINT('Control Point',(0.578208007875,-4.20845913681,1.6)) ;
#209=CARTESIAN_POINT('Control Point',(-0.230524392835,-4.22268284538,1.6)) ;
#210=CARTESIAN_POINT('Control Point',(-0.633950952347,-4.18118408696,1.6)) ;
#211=CARTESIAN_POINT('Control Point',(-1.42285434242,-4.00261643569,1.6)) ;
#212=CARTESIAN_POINT('Control Point',(-2.14745327554,-3.64316295768,1.6)) ;
#213=CARTESIAN_POINT('Control Point',(-2.4865536299,-3.42070829262,1.6)) ;
#214=CARTESIAN_POINT('Control Point',(-3.10484721305,-2.8992027523,1.6)) ;
#215=CARTESIAN_POINT('Control Point',(-3.58282421948,-2.24667810652,1.6)) ;
#216=CARTESIAN_POINT('Control Point',(-3.78155644816,-1.8931521345,1.6)) ;
#217=CARTESIAN_POINT('Control Point',(-4.02433484196,-1.30591445161,1.6)) ;
#218=CARTESIAN_POINT('Control Point',(-4.15302036278,-0.686724501404,1.6)) ;
#219=CARTESIAN_POINT('Control Point',(-4.18434053932,-0.458762454365,1.6)) ;
#220=CARTESIAN_POINT('Control Point',(-4.19999999925,-0.22938130925,1.6)) ;
#221=CARTESIAN_POINT('Control Point',(-4.19999999925,3.33066907388E-16,1.6)) ;
#228=CARTESIAN_POINT('Axis2P3D Location',(4.89842541529E-17,0.,0.8)) ;
#233=CARTESIAN_POINT('Line Origine',(4.2,-1.02870331128E-15,0.800000000745)) ;
#238=CARTESIAN_POINT('Line Origine',(-4.2,5.14351655643E-16,0.800000000745)) ;
#6=PRODUCT_RELATED_PRODUCT_CATEGORY('part',$,(#16)) ;
#11=UNCERTAINTY_MEASURE_WITH_UNIT(LENGTH_MEASURE(0.005),#8,'distance_accuracy_value','CONFUSED CURVE UNCERTAINTY') ;
#29=STYLED_ITEM(' ',(#28),#21) ;
#28=PRESENTATION_STYLE_ASSIGNMENT((#27)) ;
#27=SURFACE_STYLE_USAGE(.BOTH.,#26) ;
#26=SURFACE_SIDE_STYLE(' ',(#25)) ;
#25=SURFACE_STYLE_FILL_AREA(#24) ;
#24=FILL_AREA_STYLE(' ',(#23)) ;
#23=FILL_AREA_STYLE_COLOUR(' ',#22) ;
#38=VECTOR('Line Direction',#37,1.) ;
#54=VECTOR('Line Direction',#53,1.) ;
#235=VECTOR('Line Direction',#234,1.) ;
#240=VECTOR('Line Direction',#239,1.) ;
#32=DIRECTION('Axis2P3D Direction',(6.12303176911E-17,0.,1.)) ;
#33=DIRECTION('Axis2P3D XDirection',(1.,0.,-6.12303176911E-17)) ;
#37=DIRECTION('Vector Direction',(6.12303097114E-17,0.,1.)) ;
#46=DIRECTION('Axis2P3D Direction',(6.12303176911E-17,0.,1.)) ;
#53=DIRECTION('Vector Direction',(6.12303097114E-17,0.,1.)) ;
#60=DIRECTION('Axis2P3D Direction',(6.12303176911E-17,0.,1.)) ;
#72=DIRECTION('Axis2P3D Direction',(6.12303176911E-17,0.,1.)) ;
#77=DIRECTION('Axis2P3D Direction',(6.12303176911E-17,0.,1.)) ;
#89=DIRECTION('Axis2P3D Direction',(-6.12303176911E-17,0.,-1.)) ;
#90=DIRECTION('Axis2P3D XDirection',(-1.,0.,6.12303176911E-17)) ;
#159=DIRECTION('Axis2P3D Direction',(6.12303176911E-17,-0.,1.)) ;
#160=DIRECTION('Axis2P3D XDirection',(1.,0.,-6.12303176911E-17)) ;
#229=DIRECTION('Axis2P3D Direction',(6.12303176911E-17,0.,1.)) ;
#230=DIRECTION('Axis2P3D XDirection',(1.,-2.64687485605E-28,-6.12303176911E-17)) ;
#234=DIRECTION('Vector Direction',(6.12303097114E-17,0.,1.)) ;
#239=DIRECTION('Vector Direction',(6.12303097114E-17,0.,1.)) ;
#15=AXIS2_PLACEMENT_3D('',#14,$,$) ;
#34=AXIS2_PLACEMENT_3D('Cylinder Axis2P3D',#31,#32,#33) ;
#47=AXIS2_PLACEMENT_3D('Circle Axis2P3D',#45,#46,$) ;
#61=AXIS2_PLACEMENT_3D('Circle Axis2P3D',#59,#60,$) ;
#73=AXIS2_PLACEMENT_3D('Circle Axis2P3D',#71,#72,$) ;
#78=AXIS2_PLACEMENT_3D('Circle Axis2P3D',#76,#77,$) ;
#91=AXIS2_PLACEMENT_3D('Plane Axis2P3D',#88,#89,#90) ;
#161=AXIS2_PLACEMENT_3D('Plane Axis2P3D',#158,#159,#160) ;
#231=AXIS2_PLACEMENT_3D('Cylinder Axis2P3D',#228,#229,#230) ;
#39=LINE('Line',#36,#38) ;
#55=LINE('Line',#52,#54) ;
#236=LINE('Line',#233,#235) ;
#241=LINE('Line',#238,#240) ;
#48=CIRCLE('generated circle',#47,7.5) ;
#62=CIRCLE('generated circle',#61,7.5) ;
#74=CIRCLE('generated circle',#73,7.5) ;
#79=CIRCLE('generated circle',#78,7.5) ;
#92=PLANE('',#91) ;
#162=PLANE('',#161) ;
#35=CYLINDRICAL_SURFACE('generated cylinder',#34,7.5) ;
#232=CYLINDRICAL_SURFACE('generated cylinder',#231,4.2) ;
#156=FACE_BOUND('',#153,.T.) ;
#226=FACE_BOUND('',#223,.T.) ;
#44=EDGE_CURVE('',#41,#43,#39,.T.) ;
#51=EDGE_CURVE('',#50,#41,#48,.F.) ;
#58=EDGE_CURVE('',#57,#50,#55,.F.) ;
#63=EDGE_CURVE('',#43,#57,#62,.T.) ;
#75=EDGE_CURVE('',#57,#43,#74,.T.) ;
#80=EDGE_CURVE('',#41,#50,#79,.F.) ;
#126=EDGE_CURVE('',#123,#125,#97,.T.) ;
#152=EDGE_CURVE('',#125,#123,#127,.T.) ;
#196=EDGE_CURVE('',#193,#195,#167,.T.) ;
#222=EDGE_CURVE('',#195,#193,#197,.T.) ;
#237=EDGE_CURVE('',#195,#125,#236,.F.) ;
#242=EDGE_CURVE('',#123,#193,#241,.T.) ;
#30=CLOSED_SHELL('Closed Shell',(#70,#87,#157,#227,#249,#256)) ;
#65=ORIENTED_EDGE('',*,*,#44,.F.) ;
#66=ORIENTED_EDGE('',*,*,#51,.F.) ;
#67=ORIENTED_EDGE('',*,*,#58,.F.) ;
#68=ORIENTED_EDGE('',*,*,#63,.F.) ;
#82=ORIENTED_EDGE('',*,*,#44,.T.) ;
#83=ORIENTED_EDGE('',*,*,#75,.F.) ;
#84=ORIENTED_EDGE('',*,*,#58,.T.) ;
#85=ORIENTED_EDGE('',*,*,#80,.F.) ;
#94=ORIENTED_EDGE('',*,*,#80,.T.) ;
#95=ORIENTED_EDGE('',*,*,#51,.T.) ;
#154=ORIENTED_EDGE('',*,*,#126,.T.) ;
#155=ORIENTED_EDGE('',*,*,#152,.T.) ;
#164=ORIENTED_EDGE('',*,*,#63,.T.) ;
#165=ORIENTED_EDGE('',*,*,#75,.T.) ;
#224=ORIENTED_EDGE('',*,*,#196,.T.) ;
#225=ORIENTED_EDGE('',*,*,#222,.T.) ;
#244=ORIENTED_EDGE('',*,*,#237,.T.) ;
#245=ORIENTED_EDGE('',*,*,#126,.F.) ;
#246=ORIENTED_EDGE('',*,*,#242,.T.) ;
#247=ORIENTED_EDGE('',*,*,#222,.F.) ;
#251=ORIENTED_EDGE('',*,*,#237,.F.) ;
#252=ORIENTED_EDGE('',*,*,#196,.F.) ;
#253=ORIENTED_EDGE('',*,*,#242,.F.) ;
#254=ORIENTED_EDGE('',*,*,#152,.F.) ;
#64=EDGE_LOOP('',(#65,#66,#67,#68)) ;
#81=EDGE_LOOP('',(#82,#83,#84,#85)) ;
#93=EDGE_LOOP('',(#94,#95)) ;
#153=EDGE_LOOP('',(#154,#155)) ;
#163=EDGE_LOOP('',(#164,#165)) ;
#223=EDGE_LOOP('',(#224,#225)) ;
#243=EDGE_LOOP('',(#244,#245,#246,#247)) ;
#250=EDGE_LOOP('',(#251,#252,#253,#254)) ;
#21=MANIFOLD_SOLID_BREP('Body.2',#30) ;
#41=VERTEX_POINT('',#40) ;
#43=VERTEX_POINT('',#42) ;
#50=VERTEX_POINT('',#49) ;
#57=VERTEX_POINT('',#56) ;
#123=VERTEX_POINT('',#122) ;
#125=VERTEX_POINT('',#124) ;
#193=VERTEX_POINT('',#192) ;
#195=VERTEX_POINT('',#194) ;
#70=ADVANCED_FACE('Body.2',(#69),#35,.T.) ;
#87=ADVANCED_FACE('Body.2',(#86),#35,.T.) ;
#157=ADVANCED_FACE('Body.2',(#96,#156),#92,.T.) ;
#227=ADVANCED_FACE('Body.2',(#166,#226),#162,.T.) ;
#249=ADVANCED_FACE('Body.2',(#248),#232,.F.) ;
#256=ADVANCED_FACE('Body.2',(#255),#232,.F.) ;
#4=APPLICATION_PROTOCOL_DEFINITION('international standard','ap242_managed_model_based_3d_engineering',2014,#1) ;
#97=B_SPLINE_CURVE_WITH_KNOTS('',5,(#98,#99,#100,#101,#102,#103,#104,#105,#106,#107,#108,#109,#110,#111,#112,#113,#114,#115,#116,#117,#118,#119,#120,#121),.UNSPECIFIED.,.F.,.U.,(6,3,3,3,3,3,3,6),(0.,2.84597464233,5.69194922208,8.53792381275,11.3838984213,14.2298730486,17.0758477294,18.7014940191),.UNSPECIFIED.) ;
#127=B_SPLINE_CURVE_WITH_KNOTS('',5,(#128,#129,#130,#131,#132,#133,#134,#135,#136,#137,#138,#139,#140,#141,#142,#143,#144,#145,#146,#147,#148,#149,#150,#151),.UNSPECIFIED.,.F.,.U.,(6,3,3,3,3,3,3,6),(0.,2.84597464235,5.69194922193,8.53792381232,11.3838984208,14.2298730481,17.0758477288,18.7014940185),.UNSPECIFIED.) ;
#167=B_SPLINE_CURVE_WITH_KNOTS('',5,(#168,#169,#170,#171,#172,#173,#174,#175,#176,#177,#178,#179,#180,#181,#182,#183,#184,#185,#186,#187,#188,#189,#190,#191),.UNSPECIFIED.,.F.,.U.,(6,3,3,3,3,3,3,6),(0.,2.84597464242,5.6919492222,8.53792381284,11.3838984215,14.2298730489,17.0758477297,18.7014940191),.UNSPECIFIED.) ;
#197=B_SPLINE_CURVE_WITH_KNOTS('',5,(#198,#199,#200,#201,#202,#203,#204,#205,#206,#207,#208,#209,#210,#211,#212,#213,#214,#215,#216,#217,#218,#219,#220,#221),.UNSPECIFIED.,.F.,.U.,(6,3,3,3,3,3,3,6),(0.,2.84597464241,5.691949222,8.53792381233,11.3838984208,14.229873048,17.0758477287,18.7014940184),.UNSPECIFIED.) ;
#22=COLOUR_RGB('Colour',0.882352941176,0.882352941176,0.882352941176) ;
#69=FACE_OUTER_BOUND('',#64,.T.) ;
#86=FACE_OUTER_BOUND('',#81,.T.) ;
#96=FACE_OUTER_BOUND('',#93,.T.) ;
#166=FACE_OUTER_BOUND('',#163,.T.) ;
#248=FACE_OUTER_BOUND('',#243,.T.) ;
#255=FACE_OUTER_BOUND('',#250,.T.) ;
#7=PRODUCT_CATEGORY_RELATIONSHIP(' ',' ',#5,#6) ;
#17=PRODUCT_DEFINITION_FORMATION_WITH_SPECIFIED_SOURCE('A.1',' ',#16,.NOT_KNOWN.) ;
#20=SHAPE_DEFINITION_REPRESENTATION(#19,#13) ;
#8=(LENGTH_UNIT()NAMED_UNIT(*)SI_UNIT(.MILLI.,.METRE.)) ;
#9=(NAMED_UNIT(*)PLANE_ANGLE_UNIT()SI_UNIT($,.RADIAN.)) ;
#10=(NAMED_UNIT(*)SI_UNIT($,.STERADIAN.)SOLID_ANGLE_UNIT()) ;
#12=(GEOMETRIC_REPRESENTATION_CONTEXT(3)GLOBAL_UNCERTAINTY_ASSIGNED_CONTEXT((#11))GLOBAL_UNIT_ASSIGNED_CONTEXT((#8,#9,#10))REPRESENTATION_CONTEXT(' ',' ')) ;
ENDSEC;
END-ISO-10303-21;
