ISO-10303-21;
HEADER;
FILE_DESCRIPTION(('CATIA V5 STEP Exchange'),'2;1');

FILE_NAME('C:\\Users\\Hashaam\\Documents\\CAD_Project\\review\\Brake_Pedal_Shaft_positioned.stp','2026-10-06T14:53:30+00:00',('none'),('none'),'CATIA Version 5 Release 21 GA (IN-10)','CATIA V5 STEP AP203','none');

FILE_SCHEMA(('CONFIG_CONTROL_DESIGN'));

ENDSEC;
/* file written by CATIA V5R21 */
DATA;
#5=PRODUCT('Brake_Pedal_Shaft','','',(#2)) ;
#1=APPLICATION_CONTEXT('configuration controlled 3D design of mechanical parts and assemblies') ;
#14=PRODUCT_DEFINITION('',' ',#6,#3) ;
#16=SECURITY_CLASSIFICATION(' ',' ',#15) ;
#15=SECURITY_CLASSIFICATION_LEVEL('unclassified') ;
#47=CARTESIAN_POINT(' ',(0.,0.,0.)) ;
#52=CARTESIAN_POINT('Axis2P3D Location',(-438.923760431,-61.5,183.5)) ;
#57=CARTESIAN_POINT('Line Origine',(-438.461880215,-62.2020660495,183.883540431)) ;
#61=CARTESIAN_POINT('Vertex',(-438.923760431,-61.5,183.5)) ;
#63=CARTESIAN_POINT('Vertex',(-438.,-62.904132099,184.267080862)) ;
#66=CARTESIAN_POINT('Axis2P3D Location',(-438.,-61.5,183.5)) ;
#70=CARTESIAN_POINT('Vertex',(-438.,-60.095867901,182.732919138)) ;
#73=CARTESIAN_POINT('Line Origine',(-438.461880215,-60.7979339505,183.116459569)) ;
#84=CARTESIAN_POINT('Axis2P3D Location',(-440.,-89.5,187.5)) ;
#89=CARTESIAN_POINT('Axis2P3D Location',(-440.,-89.5,183.5)) ;
#93=CARTESIAN_POINT('Vertex',(-437.602872307,-89.5,187.887912809)) ;
#95=CARTESIAN_POINT('Vertex',(-442.397127693,-89.5,179.112087191)) ;
#98=CARTESIAN_POINT('Axis2P3D Location',(-440.,-89.5,183.5)) ;
#107=CARTESIAN_POINT('Axis2P3D Location',(-440.,-89.5,183.5)) ;
#111=CARTESIAN_POINT('Vertex',(-441.917702154,-89.5,179.989669752)) ;
#113=CARTESIAN_POINT('Vertex',(-438.082297846,-89.5,187.010330248)) ;
#116=CARTESIAN_POINT('Axis2P3D Location',(-440.,-89.5,183.5)) ;
#126=CARTESIAN_POINT('Axis2P3D Location',(-440.,-61.5,183.5)) ;
#131=CARTESIAN_POINT('Line Origine',(-438.082297846,-61.5,187.010330248)) ;
#135=CARTESIAN_POINT('Vertex',(-438.082297846,-98.25,187.010330248)) ;
#138=CARTESIAN_POINT('Axis2P3D Location',(-440.,-98.25,183.5)) ;
#142=CARTESIAN_POINT('Vertex',(-441.917702154,-98.25,179.989669752)) ;
#145=CARTESIAN_POINT('Line Origine',(-441.917702154,-61.5,179.989669752)) ;
#157=CARTESIAN_POINT('Axis2P3D Location',(-440.,-98.25,183.5)) ;
#169=CARTESIAN_POINT('Axis2P3D Location',(-440.,-98.25,186.5)) ;
#178=CARTESIAN_POINT('Axis2P3D Location',(-440.,-98.25,183.5)) ;
#182=CARTESIAN_POINT('Vertex',(-441.054736185,-98.25,181.569318364)) ;
#184=CARTESIAN_POINT('Vertex',(-438.945263815,-98.25,185.430681636)) ;
#187=CARTESIAN_POINT('Axis2P3D Location',(-440.,-98.25,183.5)) ;
#197=CARTESIAN_POINT('Axis2P3D Location',(-440.,-61.5,183.5)) ;
#202=CARTESIAN_POINT('Line Origine',(-441.054736185,-61.5,181.569318364)) ;
#206=CARTESIAN_POINT('Vertex',(-441.054736185,-100.45,181.569318364)) ;
#209=CARTESIAN_POINT('Line Origine',(-438.945263815,-61.5,185.430681636)) ;
#213=CARTESIAN_POINT('Vertex',(-438.945263815,-100.45,185.430681636)) ;
#216=CARTESIAN_POINT('Axis2P3D Location',(-440.,-100.45,183.5)) ;
#228=CARTESIAN_POINT('Axis2P3D Location',(-440.,-100.45,183.5)) ;
#240=CARTESIAN_POINT('Axis2P3D Location',(-440.,-98.25,183.5)) ;
#245=CARTESIAN_POINT('Line Origine',(-438.7534936,-100.85,185.781714661)) ;
#249=CARTESIAN_POINT('Vertex',(-438.561723384,-101.25,186.132747686)) ;
#252=CARTESIAN_POINT('Axis2P3D Location',(-440.,-101.25,183.5)) ;
#256=CARTESIAN_POINT('Vertex',(-441.438276616,-101.25,180.867252314)) ;
#259=CARTESIAN_POINT('Line Origine',(-441.2465064,-100.85,181.218285339)) ;
#271=CARTESIAN_POINT('Axis2P3D Location',(-440.,-98.25,183.5)) ;
#276=CARTESIAN_POINT('Axis2P3D Location',(-440.,-101.25,183.5)) ;
#288=CARTESIAN_POINT('Axis2P3D Location',(-440.,-61.5,183.5)) ;
#293=CARTESIAN_POINT('Line Origine',(-441.438276616,-61.5,180.867252314)) ;
#297=CARTESIAN_POINT('Vertex',(-441.438276616,-112.2,180.867252314)) ;
#300=CARTESIAN_POINT('Line Origine',(-438.561723384,-61.5,186.132747686)) ;
#304=CARTESIAN_POINT('Vertex',(-438.561723384,-112.2,186.132747686)) ;
#307=CARTESIAN_POINT('Axis2P3D Location',(-440.,-112.2,183.5)) ;
#319=CARTESIAN_POINT('Axis2P3D Location',(-440.,-112.2,183.5)) ;
#331=CARTESIAN_POINT('Axis2P3D Location',(-440.,-115.2,183.5)) ;
#336=CARTESIAN_POINT('Line Origine',(-438.7534936,-112.6,185.781714661)) ;
#340=CARTESIAN_POINT('Vertex',(-438.945263815,-113.,185.430681636)) ;
#343=CARTESIAN_POINT('Axis2P3D Location',(-440.,-113.,183.5)) ;
#347=CARTESIAN_POINT('Vertex',(-441.054736185,-113.,181.569318364)) ;
#350=CARTESIAN_POINT('Line Origine',(-441.2465064,-112.6,181.218285339)) ;
#362=CARTESIAN_POINT('Axis2P3D Location',(-440.,-115.2,183.5)) ;
#367=CARTESIAN_POINT('Axis2P3D Location',(-440.,-113.,183.5)) ;
#379=CARTESIAN_POINT('Axis2P3D Location',(-440.,-113.,183.5)) ;
#389=CARTESIAN_POINT('Axis2P3D Location',(-440.,-10.,186.5)) ;
#394=CARTESIAN_POINT('Axis2P3D Location',(-440.,-10.,183.5)) ;
#398=CARTESIAN_POINT('Vertex',(-441.054736185,-10.,181.569318364)) ;
#400=CARTESIAN_POINT('Vertex',(-438.945263815,-10.,185.430681636)) ;
#403=CARTESIAN_POINT('Axis2P3D Location',(-440.,-10.,183.5)) ;
#413=CARTESIAN_POINT('Axis2P3D Location',(-440.,-7.8,183.5)) ;
#418=CARTESIAN_POINT('Line Origine',(-441.2465064,-10.4,181.218285339)) ;
#422=CARTESIAN_POINT('Vertex',(-441.438276616,-10.8,180.867252314)) ;
#425=CARTESIAN_POINT('Axis2P3D Location',(-440.,-10.8,183.5)) ;
#429=CARTESIAN_POINT('Vertex',(-438.561723384,-10.8,186.132747686)) ;
#432=CARTESIAN_POINT('Line Origine',(-438.7534936,-10.4,185.781714661)) ;
#444=CARTESIAN_POINT('Axis2P3D Location',(-440.,-7.8,183.5)) ;
#449=CARTESIAN_POINT('Axis2P3D Location',(-440.,-10.8,183.5)) ;
#461=CARTESIAN_POINT('Line Origine',(-438.561723384,-61.5,186.132747686)) ;
#465=CARTESIAN_POINT('Vertex',(-438.561723384,-21.75,186.132747686)) ;
#468=CARTESIAN_POINT('Line Origine',(-441.438276616,-61.5,180.867252314)) ;
#472=CARTESIAN_POINT('Vertex',(-441.438276616,-21.75,180.867252314)) ;
#475=CARTESIAN_POINT('Axis2P3D Location',(-440.,-21.75,183.5)) ;
#487=CARTESIAN_POINT('Axis2P3D Location',(-440.,-21.75,183.5)) ;
#499=CARTESIAN_POINT('Axis2P3D Location',(-440.,-24.75,183.5)) ;
#504=CARTESIAN_POINT('Line Origine',(-441.2465064,-22.15,181.218285339)) ;
#508=CARTESIAN_POINT('Vertex',(-441.054736185,-22.55,181.569318364)) ;
#511=CARTESIAN_POINT('Axis2P3D Location',(-440.,-22.55,183.5)) ;
#515=CARTESIAN_POINT('Vertex',(-438.945263815,-22.55,185.430681636)) ;
#518=CARTESIAN_POINT('Line Origine',(-438.7534936,-22.15,185.781714661)) ;
#530=CARTESIAN_POINT('Axis2P3D Location',(-440.,-24.75,183.5)) ;
#535=CARTESIAN_POINT('Axis2P3D Location',(-440.,-22.55,183.5)) ;
#547=CARTESIAN_POINT('Line Origine',(-438.945263815,-61.5,185.430681636)) ;
#551=CARTESIAN_POINT('Vertex',(-438.945263815,-24.75,185.430681636)) ;
#554=CARTESIAN_POINT('Line Origine',(-441.054736185,-61.5,181.569318364)) ;
#558=CARTESIAN_POINT('Vertex',(-441.054736185,-24.75,181.569318364)) ;
#561=CARTESIAN_POINT('Axis2P3D Location',(-440.,-24.75,183.5)) ;
#573=CARTESIAN_POINT('Axis2P3D Location',(-440.,-24.75,183.5)) ;
#585=CARTESIAN_POINT('Axis2P3D Location',(-440.,-24.75,187.5)) ;
#590=CARTESIAN_POINT('Axis2P3D Location',(-440.,-24.75,183.5)) ;
#594=CARTESIAN_POINT('Vertex',(-438.082297846,-24.75,187.010330248)) ;
#596=CARTESIAN_POINT('Vertex',(-441.917702154,-24.75,179.989669752)) ;
#599=CARTESIAN_POINT('Axis2P3D Location',(-440.,-24.75,183.5)) ;
#613=CARTESIAN_POINT('Line Origine',(-441.917702154,-61.5,179.989669752)) ;
#617=CARTESIAN_POINT('Vertex',(-441.917702154,-33.5,179.989669752)) ;
#620=CARTESIAN_POINT('Axis2P3D Location',(-440.,-33.5,183.5)) ;
#624=CARTESIAN_POINT('Vertex',(-438.082297846,-33.5,187.010330248)) ;
#627=CARTESIAN_POINT('Line Origine',(-438.082297846,-61.5,187.010330248)) ;
#639=CARTESIAN_POINT('Axis2P3D Location',(-440.,-33.5,183.5)) ;
#651=CARTESIAN_POINT('Axis2P3D Location',(-440.,-33.5,188.5)) ;
#656=CARTESIAN_POINT('Axis2P3D Location',(-440.,-33.5,183.5)) ;
#660=CARTESIAN_POINT('Vertex',(-442.397127693,-33.5,179.112087191)) ;
#662=CARTESIAN_POINT('Vertex',(-437.602872307,-33.5,187.887912809)) ;
#665=CARTESIAN_POINT('Axis2P3D Location',(-440.,-33.5,183.5)) ;
#679=CARTESIAN_POINT('Axis2P3D Location',(-440.,-61.5,183.5)) ;
#684=CARTESIAN_POINT('Line Origine',(-442.397127693,-61.5,179.112087191)) ;
#689=CARTESIAN_POINT('Line Origine',(-437.602872307,-61.5,187.887912809)) ;
#708=CARTESIAN_POINT('Control Point',(-435.05919167,-62.904132099,184.267080862)) ;
#709=CARTESIAN_POINT('Control Point',(-435.101010438,-62.7569817588,184.536437753)) ;
#710=CARTESIAN_POINT('Control Point',(-435.155906112,-62.5460975007,184.768944624)) ;
#711=CARTESIAN_POINT('Control Point',(-435.211952396,-62.2836873859,184.947080289)) ;
#712=CARTESIAN_POINT('Control Point',(-435.272124573,-61.7863187468,185.128186406)) ;
#713=CARTESIAN_POINT('Control Point',(-435.264030722,-61.2633423401,185.102909444)) ;
#714=CARTESIAN_POINT('Control Point',(-435.248456848,-61.0580457341,185.058517105)) ;
#715=CARTESIAN_POINT('Control Point',(-435.198719237,-60.6702994706,184.906309062)) ;
#716=CARTESIAN_POINT('Control Point',(-435.129101826,-60.3516259523,184.642417872)) ;
#717=CARTESIAN_POINT('Control Point',(-435.093411813,-60.2142552535,184.48546342)) ;
#718=CARTESIAN_POINT('Control Point',(-435.018755832,-59.9515130221,184.063943523)) ;
#719=CARTESIAN_POINT('Control Point',(-434.987167312,-59.8615489932,183.564646952)) ;
#720=CARTESIAN_POINT('Control Point',(-434.992755064,-59.8773990616,183.265426479)) ;
#721=CARTESIAN_POINT('Control Point',(-435.020325409,-59.9591067332,182.983258777)) ;
#722=CARTESIAN_POINT('Control Point',(-435.05919167,-60.095867901,182.732919138)) ;
#723=CARTESIAN_POINT('Vertex',(-435.05919167,-62.904132099,184.267080862)) ;
#725=CARTESIAN_POINT('Vertex',(-435.05919167,-60.095867901,182.732919138)) ;
#729=CARTESIAN_POINT('Control Point',(-435.05919167,-60.095867901,182.732919138)) ;
#730=CARTESIAN_POINT('Control Point',(-435.101010438,-60.2430182412,182.463562247)) ;
#731=CARTESIAN_POINT('Control Point',(-435.155906112,-60.4539024993,182.231055376)) ;
#732=CARTESIAN_POINT('Control Point',(-435.211952396,-60.7163126141,182.052919711)) ;
#733=CARTESIAN_POINT('Control Point',(-435.272124573,-61.2136812532,181.871813594)) ;
#734=CARTESIAN_POINT('Control Point',(-435.264030722,-61.7366576599,181.897090556)) ;
#735=CARTESIAN_POINT('Control Point',(-435.248456848,-61.9419542659,181.941482895)) ;
#736=CARTESIAN_POINT('Control Point',(-435.198719237,-62.3297005294,182.093690938)) ;
#737=CARTESIAN_POINT('Control Point',(-435.129101826,-62.6483740477,182.357582128)) ;
#738=CARTESIAN_POINT('Control Point',(-435.093411813,-62.7857447465,182.51453658)) ;
#739=CARTESIAN_POINT('Control Point',(-435.018755832,-63.0484869779,182.936056477)) ;
#740=CARTESIAN_POINT('Control Point',(-434.987167312,-63.1384510068,183.435353048)) ;
#741=CARTESIAN_POINT('Control Point',(-434.992755064,-63.1226009384,183.734573521)) ;
#742=CARTESIAN_POINT('Control Point',(-435.020325409,-63.0408932668,184.016741223)) ;
#743=CARTESIAN_POINT('Control Point',(-435.05919167,-62.904132099,184.267080862)) ;
#750=CARTESIAN_POINT('Axis2P3D Location',(-435.1,-61.5,183.5)) ;
#755=CARTESIAN_POINT('Line Origine',(-436.345,-62.904132099,184.267080862)) ;
#760=CARTESIAN_POINT('Axis2P3D Location',(-438.,-61.5,183.5)) ;
#765=CARTESIAN_POINT('Line Origine',(-436.345,-60.095867901,182.732919138)) ;
#53=DIRECTION('Axis2P3D Direction',(1.,0.,0.)) ;
#54=DIRECTION('Axis2P3D XDirection',(0.,0.87758256189,-0.479425538604)) ;
#58=DIRECTION('Vector Direction',(0.5,-0.760008792515,0.415194695654)) ;
#67=DIRECTION('Axis2P3D Direction',(1.,0.,0.)) ;
#74=DIRECTION('Vector Direction',(0.5,0.760008792515,-0.415194695654)) ;
#85=DIRECTION('Axis2P3D Direction',(-0.,1.,0.)) ;
#86=DIRECTION('Axis2P3D XDirection',(1.,0.,0.)) ;
#90=DIRECTION('Axis2P3D Direction',(-0.,1.,0.)) ;
#99=DIRECTION('Axis2P3D Direction',(-0.,1.,0.)) ;
#108=DIRECTION('Axis2P3D Direction',(-0.,1.,0.)) ;
#117=DIRECTION('Axis2P3D Direction',(-0.,1.,0.)) ;
#127=DIRECTION('Axis2P3D Direction',(-0.,1.,0.)) ;
#128=DIRECTION('Axis2P3D XDirection',(0.479425538604,0.,0.87758256189)) ;
#132=DIRECTION('Vector Direction',(0.,1.,0.)) ;
#139=DIRECTION('Axis2P3D Direction',(-0.,1.,0.)) ;
#146=DIRECTION('Vector Direction',(0.,1.,0.)) ;
#158=DIRECTION('Axis2P3D Direction',(-0.,1.,0.)) ;
#170=DIRECTION('Axis2P3D Direction',(-0.,1.,0.)) ;
#171=DIRECTION('Axis2P3D XDirection',(1.,0.,0.)) ;
#179=DIRECTION('Axis2P3D Direction',(-0.,1.,0.)) ;
#188=DIRECTION('Axis2P3D Direction',(-0.,1.,0.)) ;
#198=DIRECTION('Axis2P3D Direction',(-0.,1.,0.)) ;
#199=DIRECTION('Axis2P3D XDirection',(0.479425538604,0.,0.87758256189)) ;
#203=DIRECTION('Vector Direction',(0.,1.,0.)) ;
#210=DIRECTION('Vector Direction',(0.,1.,0.)) ;
#217=DIRECTION('Axis2P3D Direction',(-0.,1.,0.)) ;
#229=DIRECTION('Axis2P3D Direction',(-0.,1.,0.)) ;
#241=DIRECTION('Axis2P3D Direction',(8.32667268469E-016,-1.,-1.13190706807E-015)) ;
#242=DIRECTION('Axis2P3D XDirection',(0.479425538604,-6.58544507983E-016,0.87758256189)) ;
#246=DIRECTION('Vector Direction',(0.339005049421,-0.707106781187,0.620544580564)) ;
#253=DIRECTION('Axis2P3D Direction',(-1.11751313446E-015,1.,6.10500207791E-016)) ;
#260=DIRECTION('Vector Direction',(-0.339005049421,-0.707106781187,-0.620544580564)) ;
#272=DIRECTION('Axis2P3D Direction',(2.77555756156E-016,-1.,-1.38777878078E-016)) ;
#273=DIRECTION('Axis2P3D XDirection',(0.520296023213,2.63417803193E-016,-0.853985976599)) ;
#277=DIRECTION('Axis2P3D Direction',(-1.40756654797E-016,1.,-8.57568270892E-017)) ;
#289=DIRECTION('Axis2P3D Direction',(-0.,1.,0.)) ;
#290=DIRECTION('Axis2P3D XDirection',(0.479425538604,0.,0.87758256189)) ;
#294=DIRECTION('Vector Direction',(0.,1.,0.)) ;
#301=DIRECTION('Vector Direction',(0.,1.,0.)) ;
#308=DIRECTION('Axis2P3D Direction',(-0.,1.,0.)) ;
#320=DIRECTION('Axis2P3D Direction',(-0.,1.,0.)) ;
#332=DIRECTION('Axis2P3D Direction',(8.32667268469E-016,1.,-1.13190706807E-015)) ;
#333=DIRECTION('Axis2P3D XDirection',(0.479425538604,6.58544507983E-016,0.87758256189)) ;
#337=DIRECTION('Vector Direction',(0.339005049421,0.707106781187,0.620544580564)) ;
#344=DIRECTION('Axis2P3D Direction',(1.11751313446E-015,1.,-6.10500207791E-016)) ;
#351=DIRECTION('Vector Direction',(-0.339005049421,0.707106781187,-0.620544580564)) ;
#363=DIRECTION('Axis2P3D Direction',(2.77555756156E-016,1.,-1.38777878078E-016)) ;
#364=DIRECTION('Axis2P3D XDirection',(0.520296023213,-2.63417803193E-016,-0.853985976599)) ;
#368=DIRECTION('Axis2P3D Direction',(1.40756654797E-016,1.,8.57568270892E-017)) ;
#380=DIRECTION('Axis2P3D Direction',(-0.,1.,0.)) ;
#381=DIRECTION('Axis2P3D XDirection',(1.,0.,0.)) ;
#390=DIRECTION('Axis2P3D Direction',(-0.,1.,0.)) ;
#391=DIRECTION('Axis2P3D XDirection',(1.,0.,0.)) ;
#395=DIRECTION('Axis2P3D Direction',(-0.,1.,0.)) ;
#404=DIRECTION('Axis2P3D Direction',(-0.,1.,0.)) ;
#414=DIRECTION('Axis2P3D Direction',(2.77555756156E-016,-1.,-1.38777878078E-016)) ;
#415=DIRECTION('Axis2P3D XDirection',(0.520296023213,2.63417803193E-016,-0.853985976599)) ;
#419=DIRECTION('Vector Direction',(-0.339005049421,-0.707106781187,-0.620544580564)) ;
#426=DIRECTION('Axis2P3D Direction',(-1.40756654797E-016,1.,-8.57568270892E-017)) ;
#433=DIRECTION('Vector Direction',(0.339005049421,-0.707106781187,0.620544580564)) ;
#445=DIRECTION('Axis2P3D Direction',(8.32667268469E-016,-1.,-1.13190706807E-015)) ;
#446=DIRECTION('Axis2P3D XDirection',(0.479425538604,-6.58544507983E-016,0.87758256189)) ;
#450=DIRECTION('Axis2P3D Direction',(-1.11751313446E-015,1.,6.10500207791E-016)) ;
#462=DIRECTION('Vector Direction',(0.,1.,0.)) ;
#469=DIRECTION('Vector Direction',(0.,1.,0.)) ;
#476=DIRECTION('Axis2P3D Direction',(-0.,1.,0.)) ;
#488=DIRECTION('Axis2P3D Direction',(-0.,1.,0.)) ;
#500=DIRECTION('Axis2P3D Direction',(2.77555756156E-016,1.,-1.38777878078E-016)) ;
#501=DIRECTION('Axis2P3D XDirection',(0.520296023213,-2.63417803193E-016,-0.853985976599)) ;
#505=DIRECTION('Vector Direction',(-0.339005049421,0.707106781187,-0.620544580564)) ;
#512=DIRECTION('Axis2P3D Direction',(1.40756654797E-016,1.,8.57568270892E-017)) ;
#519=DIRECTION('Vector Direction',(0.339005049421,0.707106781187,0.620544580564)) ;
#531=DIRECTION('Axis2P3D Direction',(8.32667268469E-016,1.,-1.13190706807E-015)) ;
#532=DIRECTION('Axis2P3D XDirection',(0.479425538604,6.58544507983E-016,0.87758256189)) ;
#536=DIRECTION('Axis2P3D Direction',(1.11751313446E-015,1.,-6.10500207791E-016)) ;
#548=DIRECTION('Vector Direction',(0.,1.,0.)) ;
#555=DIRECTION('Vector Direction',(0.,1.,0.)) ;
#562=DIRECTION('Axis2P3D Direction',(-0.,1.,0.)) ;
#574=DIRECTION('Axis2P3D Direction',(-0.,1.,0.)) ;
#586=DIRECTION('Axis2P3D Direction',(-0.,1.,0.)) ;
#587=DIRECTION('Axis2P3D XDirection',(1.,0.,0.)) ;
#591=DIRECTION('Axis2P3D Direction',(-0.,1.,0.)) ;
#600=DIRECTION('Axis2P3D Direction',(-0.,1.,0.)) ;
#614=DIRECTION('Vector Direction',(0.,1.,0.)) ;
#621=DIRECTION('Axis2P3D Direction',(-0.,1.,0.)) ;
#628=DIRECTION('Vector Direction',(0.,1.,0.)) ;
#640=DIRECTION('Axis2P3D Direction',(-0.,1.,0.)) ;
#652=DIRECTION('Axis2P3D Direction',(-0.,1.,0.)) ;
#653=DIRECTION('Axis2P3D XDirection',(1.,0.,0.)) ;
#657=DIRECTION('Axis2P3D Direction',(-0.,1.,0.)) ;
#666=DIRECTION('Axis2P3D Direction',(-0.,1.,0.)) ;
#680=DIRECTION('Axis2P3D Direction',(-0.,1.,0.)) ;
#681=DIRECTION('Axis2P3D XDirection',(0.479425538604,0.,0.87758256189)) ;
#685=DIRECTION('Vector Direction',(0.,1.,0.)) ;
#690=DIRECTION('Vector Direction',(0.,1.,0.)) ;
#751=DIRECTION('Axis2P3D Direction',(-1.,0.,0.)) ;
#752=DIRECTION('Axis2P3D XDirection',(0.,0.87758256189,-0.479425538604)) ;
#756=DIRECTION('Vector Direction',(-1.,0.,0.)) ;
#761=DIRECTION('Axis2P3D Direction',(-1.,0.,0.)) ;
#766=DIRECTION('Vector Direction',(-1.,0.,0.)) ;
#48=AXIS2_PLACEMENT_3D(' ',#47,$,$) ;
#55=AXIS2_PLACEMENT_3D('Cone Axis2P3D',#52,#53,#54) ;
#68=AXIS2_PLACEMENT_3D('Circle Axis2P3D',#66,#67,$) ;
#87=AXIS2_PLACEMENT_3D('Plane Axis2P3D',#84,#85,#86) ;
#91=AXIS2_PLACEMENT_3D('Circle Axis2P3D',#89,#90,$) ;
#100=AXIS2_PLACEMENT_3D('Circle Axis2P3D',#98,#99,$) ;
#109=AXIS2_PLACEMENT_3D('Circle Axis2P3D',#107,#108,$) ;
#118=AXIS2_PLACEMENT_3D('Circle Axis2P3D',#116,#117,$) ;
#129=AXIS2_PLACEMENT_3D('Cylinder Axis2P3D',#126,#127,#128) ;
#140=AXIS2_PLACEMENT_3D('Circle Axis2P3D',#138,#139,$) ;
#159=AXIS2_PLACEMENT_3D('Circle Axis2P3D',#157,#158,$) ;
#172=AXIS2_PLACEMENT_3D('Plane Axis2P3D',#169,#170,#171) ;
#180=AXIS2_PLACEMENT_3D('Circle Axis2P3D',#178,#179,$) ;
#189=AXIS2_PLACEMENT_3D('Circle Axis2P3D',#187,#188,$) ;
#200=AXIS2_PLACEMENT_3D('Cylinder Axis2P3D',#197,#198,#199) ;
#218=AXIS2_PLACEMENT_3D('Circle Axis2P3D',#216,#217,$) ;
#230=AXIS2_PLACEMENT_3D('Circle Axis2P3D',#228,#229,$) ;
#243=AXIS2_PLACEMENT_3D('Cone Axis2P3D',#240,#241,#242) ;
#254=AXIS2_PLACEMENT_3D('Circle Axis2P3D',#252,#253,$) ;
#274=AXIS2_PLACEMENT_3D('Cone Axis2P3D',#271,#272,#273) ;
#278=AXIS2_PLACEMENT_3D('Circle Axis2P3D',#276,#277,$) ;
#291=AXIS2_PLACEMENT_3D('Cylinder Axis2P3D',#288,#289,#290) ;
#309=AXIS2_PLACEMENT_3D('Circle Axis2P3D',#307,#308,$) ;
#321=AXIS2_PLACEMENT_3D('Circle Axis2P3D',#319,#320,$) ;
#334=AXIS2_PLACEMENT_3D('Cone Axis2P3D',#331,#332,#333) ;
#345=AXIS2_PLACEMENT_3D('Circle Axis2P3D',#343,#344,$) ;
#365=AXIS2_PLACEMENT_3D('Cone Axis2P3D',#362,#363,#364) ;
#369=AXIS2_PLACEMENT_3D('Circle Axis2P3D',#367,#368,$) ;
#382=AXIS2_PLACEMENT_3D('Plane Axis2P3D',#379,#380,#381) ;
#392=AXIS2_PLACEMENT_3D('Plane Axis2P3D',#389,#390,#391) ;
#396=AXIS2_PLACEMENT_3D('Circle Axis2P3D',#394,#395,$) ;
#405=AXIS2_PLACEMENT_3D('Circle Axis2P3D',#403,#404,$) ;
#416=AXIS2_PLACEMENT_3D('Cone Axis2P3D',#413,#414,#415) ;
#427=AXIS2_PLACEMENT_3D('Circle Axis2P3D',#425,#426,$) ;
#447=AXIS2_PLACEMENT_3D('Cone Axis2P3D',#444,#445,#446) ;
#451=AXIS2_PLACEMENT_3D('Circle Axis2P3D',#449,#450,$) ;
#477=AXIS2_PLACEMENT_3D('Circle Axis2P3D',#475,#476,$) ;
#489=AXIS2_PLACEMENT_3D('Circle Axis2P3D',#487,#488,$) ;
#502=AXIS2_PLACEMENT_3D('Cone Axis2P3D',#499,#500,#501) ;
#513=AXIS2_PLACEMENT_3D('Circle Axis2P3D',#511,#512,$) ;
#533=AXIS2_PLACEMENT_3D('Cone Axis2P3D',#530,#531,#532) ;
#537=AXIS2_PLACEMENT_3D('Circle Axis2P3D',#535,#536,$) ;
#563=AXIS2_PLACEMENT_3D('Circle Axis2P3D',#561,#562,$) ;
#575=AXIS2_PLACEMENT_3D('Circle Axis2P3D',#573,#574,$) ;
#588=AXIS2_PLACEMENT_3D('Plane Axis2P3D',#585,#586,#587) ;
#592=AXIS2_PLACEMENT_3D('Circle Axis2P3D',#590,#591,$) ;
#601=AXIS2_PLACEMENT_3D('Circle Axis2P3D',#599,#600,$) ;
#622=AXIS2_PLACEMENT_3D('Circle Axis2P3D',#620,#621,$) ;
#641=AXIS2_PLACEMENT_3D('Circle Axis2P3D',#639,#640,$) ;
#654=AXIS2_PLACEMENT_3D('Plane Axis2P3D',#651,#652,#653) ;
#658=AXIS2_PLACEMENT_3D('Circle Axis2P3D',#656,#657,$) ;
#667=AXIS2_PLACEMENT_3D('Circle Axis2P3D',#665,#666,$) ;
#682=AXIS2_PLACEMENT_3D('Cylinder Axis2P3D',#679,#680,#681) ;
#753=AXIS2_PLACEMENT_3D('Cylinder Axis2P3D',#750,#751,#752) ;
#762=AXIS2_PLACEMENT_3D('Circle Axis2P3D',#760,#761,$) ;
#40=PRODUCT_DEFINITION_SHAPE(' ',' ',#14) ;
#31=APPROVAL_PERSON_ORGANIZATION(#25,#21,#19) ;
#25=PERSON_AND_ORGANIZATION(#22,#23) ;
#22=PERSON(' ',' ',' ',$,$,$) ;
#23=ORGANIZATION(' ',' ',' ') ;
#21=APPROVAL(#20,' ') ;
#20=APPROVAL_STATUS('not_yet_approved') ;
#19=APPROVAL_ROLE('APPROVER') ;
#13=DATE_AND_TIME(#11,#12) ;
#12=LOCAL_TIME(16,53,30.,#10) ;
#10=COORDINATED_UNIVERSAL_TIME_OFFSET(0,0,.AHEAD.) ;
#79=ORIENTED_EDGE('',*,*,#65,.T.) ;
#80=ORIENTED_EDGE('',*,*,#72,.F.) ;
#81=ORIENTED_EDGE('',*,*,#77,.F.) ;
#104=ORIENTED_EDGE('',*,*,#97,.F.) ;
#105=ORIENTED_EDGE('',*,*,#102,.F.) ;
#122=ORIENTED_EDGE('',*,*,#115,.T.) ;
#123=ORIENTED_EDGE('',*,*,#120,.T.) ;
#151=ORIENTED_EDGE('',*,*,#120,.F.) ;
#152=ORIENTED_EDGE('',*,*,#137,.T.) ;
#153=ORIENTED_EDGE('',*,*,#144,.T.) ;
#154=ORIENTED_EDGE('',*,*,#149,.F.) ;
#163=ORIENTED_EDGE('',*,*,#115,.F.) ;
#164=ORIENTED_EDGE('',*,*,#149,.T.) ;
#165=ORIENTED_EDGE('',*,*,#161,.T.) ;
#166=ORIENTED_EDGE('',*,*,#137,.F.) ;
#175=ORIENTED_EDGE('',*,*,#161,.F.) ;
#176=ORIENTED_EDGE('',*,*,#144,.F.) ;
#193=ORIENTED_EDGE('',*,*,#186,.T.) ;
#194=ORIENTED_EDGE('',*,*,#191,.T.) ;
#222=ORIENTED_EDGE('',*,*,#208,.T.) ;
#223=ORIENTED_EDGE('',*,*,#191,.F.) ;
#224=ORIENTED_EDGE('',*,*,#215,.F.) ;
#225=ORIENTED_EDGE('',*,*,#220,.T.) ;
#234=ORIENTED_EDGE('',*,*,#215,.T.) ;
#235=ORIENTED_EDGE('',*,*,#186,.F.) ;
#236=ORIENTED_EDGE('',*,*,#208,.F.) ;
#237=ORIENTED_EDGE('',*,*,#232,.T.) ;
#265=ORIENTED_EDGE('',*,*,#251,.T.) ;
#266=ORIENTED_EDGE('',*,*,#258,.T.) ;
#267=ORIENTED_EDGE('',*,*,#263,.F.) ;
#268=ORIENTED_EDGE('',*,*,#220,.F.) ;
#282=ORIENTED_EDGE('',*,*,#263,.T.) ;
#283=ORIENTED_EDGE('',*,*,#280,.T.) ;
#284=ORIENTED_EDGE('',*,*,#251,.F.) ;
#285=ORIENTED_EDGE('',*,*,#232,.F.) ;
#313=ORIENTED_EDGE('',*,*,#299,.F.) ;
#314=ORIENTED_EDGE('',*,*,#258,.F.) ;
#315=ORIENTED_EDGE('',*,*,#306,.T.) ;
#316=ORIENTED_EDGE('',*,*,#311,.T.) ;
#325=ORIENTED_EDGE('',*,*,#306,.F.) ;
#326=ORIENTED_EDGE('',*,*,#280,.F.) ;
#327=ORIENTED_EDGE('',*,*,#299,.T.) ;
#328=ORIENTED_EDGE('',*,*,#323,.T.) ;
#356=ORIENTED_EDGE('',*,*,#342,.T.) ;
#357=ORIENTED_EDGE('',*,*,#349,.T.) ;
#358=ORIENTED_EDGE('',*,*,#354,.F.) ;
#359=ORIENTED_EDGE('',*,*,#311,.F.) ;
#373=ORIENTED_EDGE('',*,*,#354,.T.) ;
#374=ORIENTED_EDGE('',*,*,#371,.T.) ;
#375=ORIENTED_EDGE('',*,*,#342,.F.) ;
#376=ORIENTED_EDGE('',*,*,#323,.F.) ;
#385=ORIENTED_EDGE('',*,*,#371,.F.) ;
#386=ORIENTED_EDGE('',*,*,#349,.F.) ;
#409=ORIENTED_EDGE('',*,*,#402,.T.) ;
#410=ORIENTED_EDGE('',*,*,#407,.T.) ;
#438=ORIENTED_EDGE('',*,*,#424,.T.) ;
#439=ORIENTED_EDGE('',*,*,#431,.T.) ;
#440=ORIENTED_EDGE('',*,*,#436,.F.) ;
#441=ORIENTED_EDGE('',*,*,#402,.F.) ;
#455=ORIENTED_EDGE('',*,*,#436,.T.) ;
#456=ORIENTED_EDGE('',*,*,#453,.T.) ;
#457=ORIENTED_EDGE('',*,*,#424,.F.) ;
#458=ORIENTED_EDGE('',*,*,#407,.F.) ;
#481=ORIENTED_EDGE('',*,*,#467,.F.) ;
#482=ORIENTED_EDGE('',*,*,#431,.F.) ;
#483=ORIENTED_EDGE('',*,*,#474,.T.) ;
#484=ORIENTED_EDGE('',*,*,#479,.T.) ;
#493=ORIENTED_EDGE('',*,*,#474,.F.) ;
#494=ORIENTED_EDGE('',*,*,#453,.F.) ;
#495=ORIENTED_EDGE('',*,*,#467,.T.) ;
#496=ORIENTED_EDGE('',*,*,#491,.T.) ;
#524=ORIENTED_EDGE('',*,*,#510,.T.) ;
#525=ORIENTED_EDGE('',*,*,#517,.T.) ;
#526=ORIENTED_EDGE('',*,*,#522,.F.) ;
#527=ORIENTED_EDGE('',*,*,#479,.F.) ;
#541=ORIENTED_EDGE('',*,*,#522,.T.) ;
#542=ORIENTED_EDGE('',*,*,#539,.T.) ;
#543=ORIENTED_EDGE('',*,*,#510,.F.) ;
#544=ORIENTED_EDGE('',*,*,#491,.F.) ;
#567=ORIENTED_EDGE('',*,*,#553,.T.) ;
#568=ORIENTED_EDGE('',*,*,#517,.F.) ;
#569=ORIENTED_EDGE('',*,*,#560,.F.) ;
#570=ORIENTED_EDGE('',*,*,#565,.T.) ;
#579=ORIENTED_EDGE('',*,*,#560,.T.) ;
#580=ORIENTED_EDGE('',*,*,#539,.F.) ;
#581=ORIENTED_EDGE('',*,*,#553,.F.) ;
#582=ORIENTED_EDGE('',*,*,#577,.T.) ;
#605=ORIENTED_EDGE('',*,*,#598,.T.) ;
#606=ORIENTED_EDGE('',*,*,#603,.T.) ;
#609=ORIENTED_EDGE('',*,*,#577,.F.) ;
#610=ORIENTED_EDGE('',*,*,#565,.F.) ;
#633=ORIENTED_EDGE('',*,*,#603,.F.) ;
#634=ORIENTED_EDGE('',*,*,#619,.T.) ;
#635=ORIENTED_EDGE('',*,*,#626,.T.) ;
#636=ORIENTED_EDGE('',*,*,#631,.F.) ;
#645=ORIENTED_EDGE('',*,*,#598,.F.) ;
#646=ORIENTED_EDGE('',*,*,#631,.T.) ;
#647=ORIENTED_EDGE('',*,*,#643,.T.) ;
#648=ORIENTED_EDGE('',*,*,#619,.F.) ;
#671=ORIENTED_EDGE('',*,*,#664,.T.) ;
#672=ORIENTED_EDGE('',*,*,#669,.T.) ;
#675=ORIENTED_EDGE('',*,*,#643,.F.) ;
#676=ORIENTED_EDGE('',*,*,#626,.F.) ;
#695=ORIENTED_EDGE('',*,*,#664,.F.) ;
#696=ORIENTED_EDGE('',*,*,#688,.T.) ;
#697=ORIENTED_EDGE('',*,*,#102,.T.) ;
#698=ORIENTED_EDGE('',*,*,#693,.F.) ;
#702=ORIENTED_EDGE('',*,*,#669,.F.) ;
#703=ORIENTED_EDGE('',*,*,#693,.T.) ;
#704=ORIENTED_EDGE('',*,*,#97,.T.) ;
#705=ORIENTED_EDGE('',*,*,#688,.F.) ;
#746=ORIENTED_EDGE('',*,*,#727,.T.) ;
#747=ORIENTED_EDGE('',*,*,#744,.T.) ;
#771=ORIENTED_EDGE('',*,*,#727,.F.) ;
#772=ORIENTED_EDGE('',*,*,#759,.F.) ;
#773=ORIENTED_EDGE('',*,*,#764,.T.) ;
#774=ORIENTED_EDGE('',*,*,#769,.T.) ;
#778=ORIENTED_EDGE('',*,*,#744,.F.) ;
#779=ORIENTED_EDGE('',*,*,#769,.F.) ;
#780=ORIENTED_EDGE('',*,*,#72,.T.) ;
#781=ORIENTED_EDGE('',*,*,#759,.T.) ;
#785=ORIENTED_EDGE('',*,*,#77,.T.) ;
#786=ORIENTED_EDGE('',*,*,#764,.F.) ;
#787=ORIENTED_EDGE('',*,*,#65,.F.) ;
#124=FACE_BOUND('',#121,.T.) ;
#195=FACE_BOUND('',#192,.T.) ;
#611=FACE_BOUND('',#608,.T.) ;
#677=FACE_BOUND('',#674,.T.) ;
#748=FACE_BOUND('',#745,.T.) ;
#51=CLOSED_SHELL('Closed Shell',(#83,#125,#156,#168,#196,#227,#239,#270,#287,#318,#330,#361,#378,#388,#412,#443,#460,#486,#498,#529,#546,#572,#584,#612,#638,#650,#678,#700,#749,#776,#783,#789)) ;
#59=VECTOR('Line Direction',#58,1.) ;
#75=VECTOR('Line Direction',#74,1.) ;
#133=VECTOR('Line Direction',#132,1.) ;
#147=VECTOR('Line Direction',#146,1.) ;
#204=VECTOR('Line Direction',#203,1.) ;
#211=VECTOR('Line Direction',#210,1.) ;
#247=VECTOR('Line Direction',#246,1.) ;
#261=VECTOR('Line Direction',#260,1.) ;
#295=VECTOR('Line Direction',#294,1.) ;
#302=VECTOR('Line Direction',#301,1.) ;
#338=VECTOR('Line Direction',#337,1.) ;
#352=VECTOR('Line Direction',#351,1.) ;
#420=VECTOR('Line Direction',#419,1.) ;
#434=VECTOR('Line Direction',#433,1.) ;
#463=VECTOR('Line Direction',#462,1.) ;
#470=VECTOR('Line Direction',#469,1.) ;
#506=VECTOR('Line Direction',#505,1.) ;
#520=VECTOR('Line Direction',#519,1.) ;
#549=VECTOR('Line Direction',#548,1.) ;
#556=VECTOR('Line Direction',#555,1.) ;
#615=VECTOR('Line Direction',#614,1.) ;
#629=VECTOR('Line Direction',#628,1.) ;
#686=VECTOR('Line Direction',#685,1.) ;
#691=VECTOR('Line Direction',#690,1.) ;
#757=VECTOR('Line Direction',#756,1.) ;
#767=VECTOR('Line Direction',#766,1.) ;
#791=ADVANCED_BREP_SHAPE_REPRESENTATION('NONE',(#790),#46) ;
#49=SHAPE_REPRESENTATION(' ',(#48),#46) ;
#83=ADVANCED_FACE('MAIN',(#82),#56,.F.) ;
#125=ADVANCED_FACE('MAIN',(#106,#124),#88,.F.) ;
#156=ADVANCED_FACE('MAIN',(#155),#130,.T.) ;
#168=ADVANCED_FACE('MAIN',(#167),#130,.T.) ;
#196=ADVANCED_FACE('MAIN',(#177,#195),#173,.F.) ;
#227=ADVANCED_FACE('MAIN',(#226),#201,.T.) ;
#239=ADVANCED_FACE('MAIN',(#238),#201,.T.) ;
#270=ADVANCED_FACE('MAIN',(#269),#244,.T.) ;
#287=ADVANCED_FACE('MAIN',(#286),#275,.T.) ;
#318=ADVANCED_FACE('MAIN',(#317),#292,.T.) ;
#330=ADVANCED_FACE('MAIN',(#329),#292,.T.) ;
#361=ADVANCED_FACE('MAIN',(#360),#335,.T.) ;
#378=ADVANCED_FACE('MAIN',(#377),#366,.T.) ;
#388=ADVANCED_FACE('MAIN',(#387),#383,.F.) ;
#412=ADVANCED_FACE('MAIN',(#411),#393,.T.) ;
#443=ADVANCED_FACE('MAIN',(#442),#417,.T.) ;
#460=ADVANCED_FACE('MAIN',(#459),#448,.T.) ;
#486=ADVANCED_FACE('MAIN',(#485),#292,.T.) ;
#498=ADVANCED_FACE('MAIN',(#497),#292,.T.) ;
#529=ADVANCED_FACE('MAIN',(#528),#503,.T.) ;
#546=ADVANCED_FACE('MAIN',(#545),#534,.T.) ;
#572=ADVANCED_FACE('MAIN',(#571),#201,.T.) ;
#584=ADVANCED_FACE('MAIN',(#583),#201,.T.) ;
#612=ADVANCED_FACE('MAIN',(#607,#611),#589,.T.) ;
#638=ADVANCED_FACE('MAIN',(#637),#130,.T.) ;
#650=ADVANCED_FACE('MAIN',(#649),#130,.T.) ;
#678=ADVANCED_FACE('MAIN',(#673,#677),#655,.T.) ;
#700=ADVANCED_FACE('MAIN',(#699),#683,.T.) ;
#749=ADVANCED_FACE('MAIN',(#706,#748),#683,.T.) ;
#776=ADVANCED_FACE('MAIN',(#775),#754,.F.) ;
#783=ADVANCED_FACE('MAIN',(#782),#754,.F.) ;
#789=ADVANCED_FACE('MAIN',(#788),#56,.F.) ;
#4=APPLICATION_PROTOCOL_DEFINITION('international standard','config_control_design',1994,#1) ;
#32=APPROVAL_DATE_TIME(#13,#21) ;
#707=B_SPLINE_CURVE_WITH_KNOTS('',5,(#708,#709,#710,#711,#712,#713,#714,#715,#716,#717,#718,#719,#720,#721,#722),.UNSPECIFIED.,.F.,.U.,(6,3,3,3,6),(0.,2.19037858329,3.65065151841,5.11956994302,7.1553024626),.UNSPECIFIED.) ;
#728=B_SPLINE_CURVE_WITH_KNOTS('',5,(#729,#730,#731,#732,#733,#734,#735,#736,#737,#738,#739,#740,#741,#742,#743),.UNSPECIFIED.,.F.,.U.,(6,3,3,3,6),(0.,2.19037858333,3.65065151844,5.11956994308,7.15530246264),.UNSPECIFIED.) ;
#790=MANIFOLD_SOLID_BREP('MAIN',#51) ;
#11=CALENDAR_DATE(2026,6,10) ;
#30=CC_DESIGN_APPROVAL(#21,(#16,#6,#14)) ;
#18=CC_DESIGN_DATE_AND_TIME_ASSIGNMENT(#13,#17,(#16)) ;
#29=CC_DESIGN_DATE_AND_TIME_ASSIGNMENT(#13,#28,(#14)) ;
#17=DATE_TIME_ROLE('classification_date') ;
#28=DATE_TIME_ROLE('creation_date') ;
#27=CC_DESIGN_PERSON_AND_ORGANIZATION_ASSIGNMENT(#25,#26,(#16)) ;
#33=CC_DESIGN_PERSON_AND_ORGANIZATION_ASSIGNMENT(#25,#34,(#6)) ;
#35=CC_DESIGN_PERSON_AND_ORGANIZATION_ASSIGNMENT(#25,#36,(#6,#14)) ;
#37=CC_DESIGN_PERSON_AND_ORGANIZATION_ASSIGNMENT(#25,#38,(#5)) ;
#26=PERSON_AND_ORGANIZATION_ROLE('classification_officer') ;
#34=PERSON_AND_ORGANIZATION_ROLE('design_supplier') ;
#36=PERSON_AND_ORGANIZATION_ROLE('creator') ;
#38=PERSON_AND_ORGANIZATION_ROLE('design_owner') ;
#39=CC_DESIGN_SECURITY_CLASSIFICATION(#16,(#6)) ;
#69=CIRCLE('generated circle',#68,1.6) ;
#92=CIRCLE('generated circle',#91,5.) ;
#101=CIRCLE('generated circle',#100,5.) ;
#110=CIRCLE('generated circle',#109,4.) ;
#119=CIRCLE('generated circle',#118,4.) ;
#141=CIRCLE('generated circle',#140,4.) ;
#160=CIRCLE('generated circle',#159,4.) ;
#181=CIRCLE('generated circle',#180,2.2) ;
#190=CIRCLE('generated circle',#189,2.2) ;
#219=CIRCLE('generated circle',#218,2.2) ;
#231=CIRCLE('generated circle',#230,2.2) ;
#255=CIRCLE('generated circle',#254,3.) ;
#279=CIRCLE('generated circle',#278,3.) ;
#310=CIRCLE('generated circle',#309,3.) ;
#322=CIRCLE('generated circle',#321,3.) ;
#346=CIRCLE('generated circle',#345,2.2) ;
#370=CIRCLE('generated circle',#369,2.2) ;
#397=CIRCLE('generated circle',#396,2.2) ;
#406=CIRCLE('generated circle',#405,2.2) ;
#428=CIRCLE('generated circle',#427,3.) ;
#452=CIRCLE('generated circle',#451,3.) ;
#478=CIRCLE('generated circle',#477,3.) ;
#490=CIRCLE('generated circle',#489,3.) ;
#514=CIRCLE('generated circle',#513,2.2) ;
#538=CIRCLE('generated circle',#537,2.2) ;
#564=CIRCLE('generated circle',#563,2.2) ;
#576=CIRCLE('generated circle',#575,2.2) ;
#593=CIRCLE('generated circle',#592,4.) ;
#602=CIRCLE('generated circle',#601,4.) ;
#623=CIRCLE('generated circle',#622,4.) ;
#642=CIRCLE('generated circle',#641,4.) ;
#659=CIRCLE('generated circle',#658,5.) ;
#668=CIRCLE('generated circle',#667,5.) ;
#763=CIRCLE('generated circle',#762,1.6) ;
#56=CONICAL_SURFACE('Cone',#55,0.,1.0471975512) ;
#244=CONICAL_SURFACE('Cone',#243,0.,0.785398163397) ;
#275=CONICAL_SURFACE('Cone',#274,0.,0.785398163397) ;
#335=CONICAL_SURFACE('Cone',#334,0.,0.785398163397) ;
#366=CONICAL_SURFACE('Cone',#365,0.,0.785398163397) ;
#417=CONICAL_SURFACE('Cone',#416,0.,0.785398163397) ;
#448=CONICAL_SURFACE('Cone',#447,0.,0.785398163397) ;
#503=CONICAL_SURFACE('Cone',#502,0.,0.785398163397) ;
#534=CONICAL_SURFACE('Cone',#533,0.,0.785398163397) ;
#792=SHAPE_REPRESENTATION_RELATIONSHIP(' ',' ',#49,#791) ;
#130=CYLINDRICAL_SURFACE('generated cylinder',#129,4.) ;
#201=CYLINDRICAL_SURFACE('generated cylinder',#200,2.2) ;
#292=CYLINDRICAL_SURFACE('generated cylinder',#291,3.) ;
#683=CYLINDRICAL_SURFACE('generated cylinder',#682,5.) ;
#754=CYLINDRICAL_SURFACE('generated cylinder',#753,1.6) ;
#3=DESIGN_CONTEXT(' ',#1,'design') ;
#65=EDGE_CURVE('',#62,#64,#60,.T.) ;
#72=EDGE_CURVE('',#71,#64,#69,.F.) ;
#77=EDGE_CURVE('',#62,#71,#76,.T.) ;
#97=EDGE_CURVE('',#94,#96,#92,.T.) ;
#102=EDGE_CURVE('',#96,#94,#101,.T.) ;
#115=EDGE_CURVE('',#112,#114,#110,.T.) ;
#120=EDGE_CURVE('',#114,#112,#119,.T.) ;
#137=EDGE_CURVE('',#114,#136,#134,.F.) ;
#144=EDGE_CURVE('',#136,#143,#141,.T.) ;
#149=EDGE_CURVE('',#112,#143,#148,.F.) ;
#161=EDGE_CURVE('',#143,#136,#160,.T.) ;
#186=EDGE_CURVE('',#183,#185,#181,.T.) ;
#191=EDGE_CURVE('',#185,#183,#190,.T.) ;
#208=EDGE_CURVE('',#207,#183,#205,.T.) ;
#215=EDGE_CURVE('',#214,#185,#212,.T.) ;
#220=EDGE_CURVE('',#214,#207,#219,.T.) ;
#232=EDGE_CURVE('',#207,#214,#231,.T.) ;
#251=EDGE_CURVE('',#214,#250,#248,.T.) ;
#258=EDGE_CURVE('',#250,#257,#255,.T.) ;
#263=EDGE_CURVE('',#207,#257,#262,.T.) ;
#280=EDGE_CURVE('',#257,#250,#279,.T.) ;
#299=EDGE_CURVE('',#257,#298,#296,.F.) ;
#306=EDGE_CURVE('',#250,#305,#303,.F.) ;
#311=EDGE_CURVE('',#305,#298,#310,.T.) ;
#323=EDGE_CURVE('',#298,#305,#322,.T.) ;
#342=EDGE_CURVE('',#305,#341,#339,.F.) ;
#349=EDGE_CURVE('',#341,#348,#346,.T.) ;
#354=EDGE_CURVE('',#298,#348,#353,.F.) ;
#371=EDGE_CURVE('',#348,#341,#370,.T.) ;
#402=EDGE_CURVE('',#399,#401,#397,.T.) ;
#407=EDGE_CURVE('',#401,#399,#406,.T.) ;
#424=EDGE_CURVE('',#399,#423,#421,.T.) ;
#431=EDGE_CURVE('',#423,#430,#428,.T.) ;
#436=EDGE_CURVE('',#401,#430,#435,.T.) ;
#453=EDGE_CURVE('',#430,#423,#452,.T.) ;
#467=EDGE_CURVE('',#430,#466,#464,.F.) ;
#474=EDGE_CURVE('',#423,#473,#471,.F.) ;
#479=EDGE_CURVE('',#473,#466,#478,.T.) ;
#491=EDGE_CURVE('',#466,#473,#490,.T.) ;
#510=EDGE_CURVE('',#473,#509,#507,.F.) ;
#517=EDGE_CURVE('',#509,#516,#514,.T.) ;
#522=EDGE_CURVE('',#466,#516,#521,.F.) ;
#539=EDGE_CURVE('',#516,#509,#538,.T.) ;
#553=EDGE_CURVE('',#552,#516,#550,.T.) ;
#560=EDGE_CURVE('',#559,#509,#557,.T.) ;
#565=EDGE_CURVE('',#559,#552,#564,.T.) ;
#577=EDGE_CURVE('',#552,#559,#576,.T.) ;
#598=EDGE_CURVE('',#595,#597,#593,.T.) ;
#603=EDGE_CURVE('',#597,#595,#602,.T.) ;
#619=EDGE_CURVE('',#597,#618,#616,.F.) ;
#626=EDGE_CURVE('',#618,#625,#623,.T.) ;
#631=EDGE_CURVE('',#595,#625,#630,.F.) ;
#643=EDGE_CURVE('',#625,#618,#642,.T.) ;
#664=EDGE_CURVE('',#661,#663,#659,.T.) ;
#669=EDGE_CURVE('',#663,#661,#668,.T.) ;
#688=EDGE_CURVE('',#661,#96,#687,.F.) ;
#693=EDGE_CURVE('',#663,#94,#692,.F.) ;
#727=EDGE_CURVE('',#724,#726,#707,.T.) ;
#744=EDGE_CURVE('',#726,#724,#728,.T.) ;
#759=EDGE_CURVE('',#64,#724,#758,.F.) ;
#764=EDGE_CURVE('',#64,#71,#763,.T.) ;
#769=EDGE_CURVE('',#71,#726,#768,.F.) ;
#78=EDGE_LOOP('',(#79,#80,#81)) ;
#103=EDGE_LOOP('',(#104,#105)) ;
#121=EDGE_LOOP('',(#122,#123)) ;
#150=EDGE_LOOP('',(#151,#152,#153,#154)) ;
#162=EDGE_LOOP('',(#163,#164,#165,#166)) ;
#174=EDGE_LOOP('',(#175,#176)) ;
#192=EDGE_LOOP('',(#193,#194)) ;
#221=EDGE_LOOP('',(#222,#223,#224,#225)) ;
#233=EDGE_LOOP('',(#234,#235,#236,#237)) ;
#264=EDGE_LOOP('',(#265,#266,#267,#268)) ;
#281=EDGE_LOOP('',(#282,#283,#284,#285)) ;
#312=EDGE_LOOP('',(#313,#314,#315,#316)) ;
#324=EDGE_LOOP('',(#325,#326,#327,#328)) ;
#355=EDGE_LOOP('',(#356,#357,#358,#359)) ;
#372=EDGE_LOOP('',(#373,#374,#375,#376)) ;
#384=EDGE_LOOP('',(#385,#386)) ;
#408=EDGE_LOOP('',(#409,#410)) ;
#437=EDGE_LOOP('',(#438,#439,#440,#441)) ;
#454=EDGE_LOOP('',(#455,#456,#457,#458)) ;
#480=EDGE_LOOP('',(#481,#482,#483,#484)) ;
#492=EDGE_LOOP('',(#493,#494,#495,#496)) ;
#523=EDGE_LOOP('',(#524,#525,#526,#527)) ;
#540=EDGE_LOOP('',(#541,#542,#543,#544)) ;
#566=EDGE_LOOP('',(#567,#568,#569,#570)) ;
#578=EDGE_LOOP('',(#579,#580,#581,#582)) ;
#604=EDGE_LOOP('',(#605,#606)) ;
#608=EDGE_LOOP('',(#609,#610)) ;
#632=EDGE_LOOP('',(#633,#634,#635,#636)) ;
#644=EDGE_LOOP('',(#645,#646,#647,#648)) ;
#670=EDGE_LOOP('',(#671,#672)) ;
#674=EDGE_LOOP('',(#675,#676)) ;
#694=EDGE_LOOP('',(#695,#696,#697,#698)) ;
#701=EDGE_LOOP('',(#702,#703,#704,#705)) ;
#745=EDGE_LOOP('',(#746,#747)) ;
#770=EDGE_LOOP('',(#771,#772,#773,#774)) ;
#777=EDGE_LOOP('',(#778,#779,#780,#781)) ;
#784=EDGE_LOOP('',(#785,#786,#787)) ;
#82=FACE_OUTER_BOUND('',#78,.T.) ;
#106=FACE_OUTER_BOUND('',#103,.T.) ;
#155=FACE_OUTER_BOUND('',#150,.T.) ;
#167=FACE_OUTER_BOUND('',#162,.T.) ;
#177=FACE_OUTER_BOUND('',#174,.T.) ;
#226=FACE_OUTER_BOUND('',#221,.T.) ;
#238=FACE_OUTER_BOUND('',#233,.T.) ;
#269=FACE_OUTER_BOUND('',#264,.T.) ;
#286=FACE_OUTER_BOUND('',#281,.T.) ;
#317=FACE_OUTER_BOUND('',#312,.T.) ;
#329=FACE_OUTER_BOUND('',#324,.T.) ;
#360=FACE_OUTER_BOUND('',#355,.T.) ;
#377=FACE_OUTER_BOUND('',#372,.T.) ;
#387=FACE_OUTER_BOUND('',#384,.T.) ;
#411=FACE_OUTER_BOUND('',#408,.T.) ;
#442=FACE_OUTER_BOUND('',#437,.T.) ;
#459=FACE_OUTER_BOUND('',#454,.T.) ;
#485=FACE_OUTER_BOUND('',#480,.T.) ;
#497=FACE_OUTER_BOUND('',#492,.T.) ;
#528=FACE_OUTER_BOUND('',#523,.T.) ;
#545=FACE_OUTER_BOUND('',#540,.T.) ;
#571=FACE_OUTER_BOUND('',#566,.T.) ;
#583=FACE_OUTER_BOUND('',#578,.T.) ;
#607=FACE_OUTER_BOUND('',#604,.T.) ;
#637=FACE_OUTER_BOUND('',#632,.T.) ;
#649=FACE_OUTER_BOUND('',#644,.T.) ;
#673=FACE_OUTER_BOUND('',#670,.T.) ;
#699=FACE_OUTER_BOUND('',#694,.T.) ;
#706=FACE_OUTER_BOUND('',#701,.T.) ;
#775=FACE_OUTER_BOUND('',#770,.T.) ;
#782=FACE_OUTER_BOUND('',#777,.T.) ;
#788=FACE_OUTER_BOUND('',#784,.T.) ;
#45=UNCERTAINTY_MEASURE_WITH_UNIT(LENGTH_MEASURE(0.005),#41,'distance_accuracy_value','CONFUSED CURVE UNCERTAINTY') ;
#60=LINE('Line',#57,#59) ;
#76=LINE('Line',#73,#75) ;
#134=LINE('Line',#131,#133) ;
#148=LINE('Line',#145,#147) ;
#205=LINE('Line',#202,#204) ;
#212=LINE('Line',#209,#211) ;
#248=LINE('Line',#245,#247) ;
#262=LINE('Line',#259,#261) ;
#296=LINE('Line',#293,#295) ;
#303=LINE('Line',#300,#302) ;
#339=LINE('Line',#336,#338) ;
#353=LINE('Line',#350,#352) ;
#421=LINE('Line',#418,#420) ;
#435=LINE('Line',#432,#434) ;
#464=LINE('Line',#461,#463) ;
#471=LINE('Line',#468,#470) ;
#507=LINE('Line',#504,#506) ;
#521=LINE('Line',#518,#520) ;
#550=LINE('Line',#547,#549) ;
#557=LINE('Line',#554,#556) ;
#616=LINE('Line',#613,#615) ;
#630=LINE('Line',#627,#629) ;
#687=LINE('Line',#684,#686) ;
#692=LINE('Line',#689,#691) ;
#758=LINE('Line',#755,#757) ;
#768=LINE('Line',#765,#767) ;
#2=MECHANICAL_CONTEXT(' ',#1,'mechanical') ;
#24=PERSONAL_ADDRESS(' ',' ',' ',' ',' ',' ',' ',' ',' ',' ',' ',' ',(#22),' ') ;
#88=PLANE('',#87) ;
#173=PLANE('',#172) ;
#383=PLANE('',#382) ;
#393=PLANE('',#392) ;
#589=PLANE('',#588) ;
#655=PLANE('',#654) ;
#43=PLANE_ANGLE_MEASURE_WITH_UNIT(PLANE_ANGLE_MEASURE(0.0174532925199),#42) ;
#7=PRODUCT_CATEGORY('part',$) ;
#9=PRODUCT_CATEGORY_RELATIONSHIP(' ',' ',#7,#8) ;
#6=PRODUCT_DEFINITION_FORMATION_WITH_SPECIFIED_SOURCE('',' ',#5,.NOT_KNOWN.) ;
#8=PRODUCT_RELATED_PRODUCT_CATEGORY('detail',$,(#5)) ;
#50=SHAPE_DEFINITION_REPRESENTATION(#40,#49) ;
#62=VERTEX_POINT('',#61) ;
#64=VERTEX_POINT('',#63) ;
#71=VERTEX_POINT('',#70) ;
#94=VERTEX_POINT('',#93) ;
#96=VERTEX_POINT('',#95) ;
#112=VERTEX_POINT('',#111) ;
#114=VERTEX_POINT('',#113) ;
#136=VERTEX_POINT('',#135) ;
#143=VERTEX_POINT('',#142) ;
#183=VERTEX_POINT('',#182) ;
#185=VERTEX_POINT('',#184) ;
#207=VERTEX_POINT('',#206) ;
#214=VERTEX_POINT('',#213) ;
#250=VERTEX_POINT('',#249) ;
#257=VERTEX_POINT('',#256) ;
#298=VERTEX_POINT('',#297) ;
#305=VERTEX_POINT('',#304) ;
#341=VERTEX_POINT('',#340) ;
#348=VERTEX_POINT('',#347) ;
#399=VERTEX_POINT('',#398) ;
#401=VERTEX_POINT('',#400) ;
#423=VERTEX_POINT('',#422) ;
#430=VERTEX_POINT('',#429) ;
#466=VERTEX_POINT('',#465) ;
#473=VERTEX_POINT('',#472) ;
#509=VERTEX_POINT('',#508) ;
#516=VERTEX_POINT('',#515) ;
#552=VERTEX_POINT('',#551) ;
#559=VERTEX_POINT('',#558) ;
#595=VERTEX_POINT('',#594) ;
#597=VERTEX_POINT('',#596) ;
#618=VERTEX_POINT('',#617) ;
#625=VERTEX_POINT('',#624) ;
#661=VERTEX_POINT('',#660) ;
#663=VERTEX_POINT('',#662) ;
#724=VERTEX_POINT('',#723) ;
#726=VERTEX_POINT('',#725) ;
#41=(LENGTH_UNIT()NAMED_UNIT(*)SI_UNIT(.MILLI.,.METRE.)) ;
#42=(NAMED_UNIT(*)PLANE_ANGLE_UNIT()SI_UNIT($,.RADIAN.)) ;
#44=(NAMED_UNIT(*)SI_UNIT($,.STERADIAN.)SOLID_ANGLE_UNIT()) ;
#46=(GEOMETRIC_REPRESENTATION_CONTEXT(3)GLOBAL_UNCERTAINTY_ASSIGNED_CONTEXT((#45))GLOBAL_UNIT_ASSIGNED_CONTEXT((#41,#42,#44))REPRESENTATION_CONTEXT(' ',' ')) ;
ENDSEC;
END-ISO-10303-21;
