ISO-10303-21;
HEADER;
FILE_DESCRIPTION(('CATIA V5 STEP Exchange'),'2;1');

FILE_NAME('C:\\Users\\Hashaam\\Documents\\CAD_Project\\review\\Brake_Pedal_Shaft.stp','2026-10-06T14:10:46+00:00',('none'),('none'),'CATIA Version 5 Release 21 GA (IN-10)','CATIA V5 STEP AP203','none');

FILE_SCHEMA(('CONFIG_CONTROL_DESIGN'));

ENDSEC;
/* file written by CATIA V5R21 */
DATA;
#5=PRODUCT('Brake_Pedal_Shaft','','',(#2)) ;
#1=APPLICATION_CONTEXT('configuration controlled 3D design of mechanical parts and assemblies') ;
#14=PRODUCT_DEFINITION('',' ',#6,#3) ;
#16=SECURITY_CLASSIFICATION(' ',' ',#15) ;
#15=SECURITY_CLASSIFICATION_LEVEL('unclassified') ;
#47=CARTESIAN_POINT(' ',(0.,0.,0.)) ;
#51=CARTESIAN_POINT('Centrepoint',(0.,0.,0.)) ;
#55=CARTESIAN_POINT('Bole_Hole_Center',(5.,0.,0.)) ;
#57=CARTESIAN_POINT('Axis2P3D Location',(1.0762395693,0.,0.)) ;
#62=CARTESIAN_POINT('Line Origine',(1.53811978465,-0.702066049512,0.383540430883)) ;
#66=CARTESIAN_POINT('Vertex',(1.0762395693,0.,0.)) ;
#68=CARTESIAN_POINT('Vertex',(2.,-1.40413209902,0.767080861767)) ;
#71=CARTESIAN_POINT('Axis2P3D Location',(2.,0.,0.)) ;
#75=CARTESIAN_POINT('Vertex',(2.,1.40413209902,-0.767080861767)) ;
#78=CARTESIAN_POINT('Line Origine',(1.53811978465,0.702066049512,-0.383540430883)) ;
#89=CARTESIAN_POINT('Axis2P3D Location',(0.,-28.,4.)) ;
#94=CARTESIAN_POINT('Axis2P3D Location',(0.,-28.,0.)) ;
#98=CARTESIAN_POINT('Vertex',(2.39712769302,-28.,4.38791280945)) ;
#100=CARTESIAN_POINT('Vertex',(-2.39712769302,-28.,-4.38791280945)) ;
#103=CARTESIAN_POINT('Axis2P3D Location',(0.,-28.,0.)) ;
#112=CARTESIAN_POINT('Axis2P3D Location',(0.,-28.,0.)) ;
#116=CARTESIAN_POINT('Vertex',(-1.91770215442,-28.,-3.51033024756)) ;
#118=CARTESIAN_POINT('Vertex',(1.91770215442,-28.,3.51033024756)) ;
#121=CARTESIAN_POINT('Axis2P3D Location',(0.,-28.,0.)) ;
#131=CARTESIAN_POINT('Axis2P3D Location',(0.,-1.42108547152E-014,0.)) ;
#136=CARTESIAN_POINT('Line Origine',(1.91770215442,0.,3.51033024756)) ;
#140=CARTESIAN_POINT('Vertex',(1.91770215442,-36.75,3.51033024756)) ;
#143=CARTESIAN_POINT('Axis2P3D Location',(0.,-36.75,0.)) ;
#147=CARTESIAN_POINT('Vertex',(-1.91770215442,-36.75,-3.51033024756)) ;
#150=CARTESIAN_POINT('Line Origine',(-1.91770215442,0.,-3.51033024756)) ;
#162=CARTESIAN_POINT('Axis2P3D Location',(0.,-36.75,0.)) ;
#174=CARTESIAN_POINT('Axis2P3D Location',(0.,-36.75,3.)) ;
#183=CARTESIAN_POINT('Axis2P3D Location',(0.,-36.75,0.)) ;
#187=CARTESIAN_POINT('Vertex',(-1.05473618493,-36.75,-1.93068163616)) ;
#189=CARTESIAN_POINT('Vertex',(1.05473618493,-36.75,1.93068163616)) ;
#192=CARTESIAN_POINT('Axis2P3D Location',(0.,-36.75,0.)) ;
#202=CARTESIAN_POINT('Axis2P3D Location',(0.,0.,0.)) ;
#207=CARTESIAN_POINT('Line Origine',(-1.05473618493,0.,-1.93068163616)) ;
#211=CARTESIAN_POINT('Vertex',(-1.05473618493,-38.95,-1.93068163616)) ;
#214=CARTESIAN_POINT('Line Origine',(1.05473618493,0.,1.93068163616)) ;
#218=CARTESIAN_POINT('Vertex',(1.05473618493,-38.95,1.93068163616)) ;
#221=CARTESIAN_POINT('Axis2P3D Location',(0.,-38.95,0.)) ;
#233=CARTESIAN_POINT('Axis2P3D Location',(0.,-38.95,0.)) ;
#245=CARTESIAN_POINT('Axis2P3D Location',(-1.83186799063E-015,-36.75,2.22304813446E-015)) ;
#250=CARTESIAN_POINT('Line Origine',(1.24650640037,-39.35,2.28171466091)) ;
#254=CARTESIAN_POINT('Vertex',(1.43827661581,-39.75,2.63274768567)) ;
#257=CARTESIAN_POINT('Axis2P3D Location',(6.66133814775E-016,-39.75,-1.17267306976E-015)) ;
#261=CARTESIAN_POINT('Vertex',(-1.43827661581,-39.75,-2.63274768567)) ;
#264=CARTESIAN_POINT('Line Origine',(-1.24650640037,-39.35,-2.28171466091)) ;
#276=CARTESIAN_POINT('Axis2P3D Location',(-1.05471187339E-015,-36.75,6.38378239159E-016)) ;
#281=CARTESIAN_POINT('Axis2P3D Location',(-2.22044604925E-016,-39.75,2.22044604925E-016)) ;
#293=CARTESIAN_POINT('Axis2P3D Location',(0.,-1.42108547152E-014,0.)) ;
#298=CARTESIAN_POINT('Line Origine',(-1.43827661581,0.,-2.63274768567)) ;
#302=CARTESIAN_POINT('Vertex',(-1.43827661581,-50.7,-2.63274768567)) ;
#305=CARTESIAN_POINT('Line Origine',(1.43827661581,0.,2.63274768567)) ;
#309=CARTESIAN_POINT('Vertex',(1.43827661581,-50.7,2.63274768567)) ;
#312=CARTESIAN_POINT('Axis2P3D Location',(0.,-50.7,0.)) ;
#324=CARTESIAN_POINT('Axis2P3D Location',(0.,-50.7,0.)) ;
#336=CARTESIAN_POINT('Axis2P3D Location',(-1.83186799063E-015,-53.7,2.22304813446E-015)) ;
#341=CARTESIAN_POINT('Line Origine',(1.24650640037,-51.1,2.28171466091)) ;
#345=CARTESIAN_POINT('Vertex',(1.05473618493,-51.5,1.93068163616)) ;
#348=CARTESIAN_POINT('Axis2P3D Location',(-2.36658271566E-030,-51.5,-2.671474153E-016)) ;
#352=CARTESIAN_POINT('Vertex',(-1.05473618493,-51.5,-1.93068163616)) ;
#355=CARTESIAN_POINT('Line Origine',(-1.24650640037,-51.1,-2.28171466091)) ;
#367=CARTESIAN_POINT('Axis2P3D Location',(-1.05471187339E-015,-53.7,6.38378239159E-016)) ;
#372=CARTESIAN_POINT('Axis2P3D Location',(-4.4408920985E-016,-51.5,3.33066907388E-016)) ;
#384=CARTESIAN_POINT('Axis2P3D Location',(0.,-51.5,0.)) ;
#394=CARTESIAN_POINT('Axis2P3D Location',(0.,51.5,3.)) ;
#399=CARTESIAN_POINT('Axis2P3D Location',(7.0632238251E-017,51.5,-4.4408920985E-016)) ;
#403=CARTESIAN_POINT('Vertex',(-1.05473618493,51.5,-1.93068163616)) ;
#405=CARTESIAN_POINT('Vertex',(1.05473618493,51.5,1.93068163616)) ;
#408=CARTESIAN_POINT('Axis2P3D Location',(7.0632238251E-017,51.5,-4.4408920985E-016)) ;
#418=CARTESIAN_POINT('Axis2P3D Location',(-1.05471187339E-015,53.7,6.38378239159E-016)) ;
#423=CARTESIAN_POINT('Line Origine',(-1.24650640037,51.1,-2.28171466091)) ;
#427=CARTESIAN_POINT('Vertex',(-1.43827661581,50.7,-2.63274768567)) ;
#430=CARTESIAN_POINT('Axis2P3D Location',(-2.22044604925E-016,50.7,2.22044604925E-016)) ;
#434=CARTESIAN_POINT('Vertex',(1.43827661581,50.7,2.63274768567)) ;
#437=CARTESIAN_POINT('Line Origine',(1.24650640037,51.1,2.28171466091)) ;
#449=CARTESIAN_POINT('Axis2P3D Location',(-1.83186799063E-015,53.7,2.22304813446E-015)) ;
#454=CARTESIAN_POINT('Axis2P3D Location',(6.66133814775E-016,50.7,-1.17267306976E-015)) ;
#466=CARTESIAN_POINT('Line Origine',(1.43827661581,0.,2.63274768567)) ;
#470=CARTESIAN_POINT('Vertex',(1.43827661581,39.75,2.63274768567)) ;
#473=CARTESIAN_POINT('Line Origine',(-1.43827661581,0.,-2.63274768567)) ;
#477=CARTESIAN_POINT('Vertex',(-1.43827661581,39.75,-2.63274768567)) ;
#480=CARTESIAN_POINT('Axis2P3D Location',(0.,39.75,0.)) ;
#492=CARTESIAN_POINT('Axis2P3D Location',(0.,39.75,0.)) ;
#504=CARTESIAN_POINT('Axis2P3D Location',(-1.05471187339E-015,36.75,6.38378239159E-016)) ;
#509=CARTESIAN_POINT('Line Origine',(-1.24650640037,39.35,-2.28171466091)) ;
#513=CARTESIAN_POINT('Vertex',(-1.05473618493,38.95,-1.93068163616)) ;
#516=CARTESIAN_POINT('Axis2P3D Location',(-4.4408920985E-016,38.95,3.33066907388E-016)) ;
#520=CARTESIAN_POINT('Vertex',(1.05473618493,38.95,1.93068163616)) ;
#523=CARTESIAN_POINT('Line Origine',(1.24650640037,39.35,2.28171466091)) ;
#535=CARTESIAN_POINT('Axis2P3D Location',(-1.83186799063E-015,36.75,2.22304813446E-015)) ;
#540=CARTESIAN_POINT('Axis2P3D Location',(-2.36658271566E-030,38.95,-2.671474153E-016)) ;
#552=CARTESIAN_POINT('Line Origine',(1.05473618493,0.,1.93068163616)) ;
#556=CARTESIAN_POINT('Vertex',(1.05473618493,36.75,1.93068163616)) ;
#559=CARTESIAN_POINT('Line Origine',(-1.05473618493,0.,-1.93068163616)) ;
#563=CARTESIAN_POINT('Vertex',(-1.05473618493,36.75,-1.93068163616)) ;
#566=CARTESIAN_POINT('Axis2P3D Location',(0.,36.75,0.)) ;
#578=CARTESIAN_POINT('Axis2P3D Location',(0.,36.75,0.)) ;
#590=CARTESIAN_POINT('Axis2P3D Location',(0.,36.75,4.)) ;
#595=CARTESIAN_POINT('Axis2P3D Location',(0.,36.75,0.)) ;
#599=CARTESIAN_POINT('Vertex',(1.91770215442,36.75,3.51033024756)) ;
#601=CARTESIAN_POINT('Vertex',(-1.91770215442,36.75,-3.51033024756)) ;
#604=CARTESIAN_POINT('Axis2P3D Location',(0.,36.75,0.)) ;
#618=CARTESIAN_POINT('Line Origine',(-1.91770215442,0.,-3.51033024756)) ;
#622=CARTESIAN_POINT('Vertex',(-1.91770215442,28.,-3.51033024756)) ;
#625=CARTESIAN_POINT('Axis2P3D Location',(0.,28.,0.)) ;
#629=CARTESIAN_POINT('Vertex',(1.91770215442,28.,3.51033024756)) ;
#632=CARTESIAN_POINT('Line Origine',(1.91770215442,0.,3.51033024756)) ;
#644=CARTESIAN_POINT('Axis2P3D Location',(0.,28.,0.)) ;
#656=CARTESIAN_POINT('Axis2P3D Location',(0.,28.,5.)) ;
#661=CARTESIAN_POINT('Axis2P3D Location',(0.,28.,0.)) ;
#665=CARTESIAN_POINT('Vertex',(-2.39712769302,28.,-4.38791280945)) ;
#667=CARTESIAN_POINT('Vertex',(2.39712769302,28.,4.38791280945)) ;
#670=CARTESIAN_POINT('Axis2P3D Location',(0.,28.,0.)) ;
#684=CARTESIAN_POINT('Axis2P3D Location',(0.,-1.42108547152E-014,0.)) ;
#689=CARTESIAN_POINT('Line Origine',(-2.39712769302,0.,-4.38791280945)) ;
#694=CARTESIAN_POINT('Line Origine',(2.39712769302,0.,4.38791280945)) ;
#713=CARTESIAN_POINT('Control Point',(4.94080832977,-1.40413209902,0.767080861767)) ;
#714=CARTESIAN_POINT('Control Point',(4.898989562,-1.25698175876,1.03643775287)) ;
#715=CARTESIAN_POINT('Control Point',(4.8440938884,-1.04609750071,1.26894462417)) ;
#716=CARTESIAN_POINT('Control Point',(4.78804760442,-0.783687385928,1.44708028917)) ;
#717=CARTESIAN_POINT('Control Point',(4.72787542718,-0.286318746786,1.62818640589)) ;
#718=CARTESIAN_POINT('Control Point',(4.73596927774,0.236657659912,1.60290944438)) ;
#719=CARTESIAN_POINT('Control Point',(4.75154315157,0.441954265865,1.55851710466)) ;
#720=CARTESIAN_POINT('Control Point',(4.8012807631,0.829700529387,1.40630906199)) ;
#721=CARTESIAN_POINT('Control Point',(4.87089817425,1.1483740477,1.14241787166)) ;
#722=CARTESIAN_POINT('Control Point',(4.90658818671,1.28574474652,0.985463419781)) ;
#723=CARTESIAN_POINT('Control Point',(4.98124416765,1.54848697794,0.563943523223)) ;
#724=CARTESIAN_POINT('Control Point',(5.01283268796,1.63845100678,0.064646952004)) ;
#725=CARTESIAN_POINT('Control Point',(5.0072449362,1.62260093843,-0.234573521482)) ;
#726=CARTESIAN_POINT('Control Point',(4.97967459067,1.54089326681,-0.516741223325)) ;
#727=CARTESIAN_POINT('Control Point',(4.94080832977,1.40413209902,-0.767080861767)) ;
#728=CARTESIAN_POINT('Vertex',(4.94080832977,-1.40413209902,0.767080861767)) ;
#730=CARTESIAN_POINT('Vertex',(4.94080832977,1.40413209902,-0.767080861767)) ;
#734=CARTESIAN_POINT('Control Point',(4.94080832977,1.40413209902,-0.767080861767)) ;
#735=CARTESIAN_POINT('Control Point',(4.898989562,1.25698175876,-1.03643775287)) ;
#736=CARTESIAN_POINT('Control Point',(4.8440938884,1.04609750071,-1.26894462418)) ;
#737=CARTESIAN_POINT('Control Point',(4.78804760442,0.783687385939,-1.44708028916)) ;
#738=CARTESIAN_POINT('Control Point',(4.72787542718,0.286318746794,-1.62818640589)) ;
#739=CARTESIAN_POINT('Control Point',(4.73596927774,-0.236657659908,-1.60290944438)) ;
#740=CARTESIAN_POINT('Control Point',(4.75154315157,-0.441954265869,-1.55851710466)) ;
#741=CARTESIAN_POINT('Control Point',(4.8012807631,-0.829700529392,-1.40630906198)) ;
#742=CARTESIAN_POINT('Control Point',(4.87089817425,-1.1483740477,-1.14241787165)) ;
#743=CARTESIAN_POINT('Control Point',(4.90658818671,-1.28574474651,-0.985463419788)) ;
#744=CARTESIAN_POINT('Control Point',(4.98124416765,-1.54848697794,-0.56394352323)) ;
#745=CARTESIAN_POINT('Control Point',(5.01283268796,-1.63845100678,-0.0646469520095)) ;
#746=CARTESIAN_POINT('Control Point',(5.0072449362,-1.62260093842,0.234573521486)) ;
#747=CARTESIAN_POINT('Control Point',(4.97967459067,-1.54089326681,0.516741223328)) ;
#748=CARTESIAN_POINT('Control Point',(4.94080832977,-1.40413209902,0.767080861767)) ;
#755=CARTESIAN_POINT('Axis2P3D Location',(4.9,0.,0.)) ;
#760=CARTESIAN_POINT('Line Origine',(3.65500000003,-1.40413209902,0.767080861767)) ;
#765=CARTESIAN_POINT('Axis2P3D Location',(2.,0.,0.)) ;
#770=CARTESIAN_POINT('Line Origine',(3.65500000003,1.40413209902,-0.767080861767)) ;
#58=DIRECTION('Axis2P3D Direction',(1.,0.,0.)) ;
#59=DIRECTION('Axis2P3D XDirection',(0.,0.87758256189,-0.479425538604)) ;
#63=DIRECTION('Vector Direction',(0.5,-0.760008792515,0.415194695654)) ;
#72=DIRECTION('Axis2P3D Direction',(1.,0.,0.)) ;
#79=DIRECTION('Vector Direction',(0.5,0.760008792515,-0.415194695654)) ;
#90=DIRECTION('Axis2P3D Direction',(0.,1.,0.)) ;
#91=DIRECTION('Axis2P3D XDirection',(1.,-0.,0.)) ;
#95=DIRECTION('Axis2P3D Direction',(0.,1.,0.)) ;
#104=DIRECTION('Axis2P3D Direction',(0.,1.,0.)) ;
#113=DIRECTION('Axis2P3D Direction',(0.,1.,0.)) ;
#122=DIRECTION('Axis2P3D Direction',(0.,1.,0.)) ;
#132=DIRECTION('Axis2P3D Direction',(0.,1.,0.)) ;
#133=DIRECTION('Axis2P3D XDirection',(0.479425538604,-0.,0.87758256189)) ;
#137=DIRECTION('Vector Direction',(0.,1.,0.)) ;
#144=DIRECTION('Axis2P3D Direction',(0.,1.,0.)) ;
#151=DIRECTION('Vector Direction',(0.,1.,0.)) ;
#163=DIRECTION('Axis2P3D Direction',(0.,1.,0.)) ;
#175=DIRECTION('Axis2P3D Direction',(0.,1.,0.)) ;
#176=DIRECTION('Axis2P3D XDirection',(1.,-0.,0.)) ;
#184=DIRECTION('Axis2P3D Direction',(0.,1.,0.)) ;
#193=DIRECTION('Axis2P3D Direction',(0.,1.,0.)) ;
#203=DIRECTION('Axis2P3D Direction',(0.,1.,0.)) ;
#204=DIRECTION('Axis2P3D XDirection',(0.479425538604,-0.,0.87758256189)) ;
#208=DIRECTION('Vector Direction',(0.,1.,0.)) ;
#215=DIRECTION('Vector Direction',(0.,1.,0.)) ;
#222=DIRECTION('Axis2P3D Direction',(0.,1.,0.)) ;
#234=DIRECTION('Axis2P3D Direction',(0.,1.,0.)) ;
#246=DIRECTION('Axis2P3D Direction',(8.32667268469E-016,-1.,-1.13190706807E-015)) ;
#247=DIRECTION('Axis2P3D XDirection',(0.479425538604,-6.58544507983E-016,0.87758256189)) ;
#251=DIRECTION('Vector Direction',(0.339005049421,-0.707106781187,0.620544580564)) ;
#258=DIRECTION('Axis2P3D Direction',(-1.11751313446E-015,1.,6.10500207791E-016)) ;
#265=DIRECTION('Vector Direction',(-0.339005049421,-0.707106781187,-0.620544580564)) ;
#277=DIRECTION('Axis2P3D Direction',(2.77555756156E-016,-1.,-1.38777878078E-016)) ;
#278=DIRECTION('Axis2P3D XDirection',(0.520296023213,2.63417803193E-016,-0.853985976599)) ;
#282=DIRECTION('Axis2P3D Direction',(-1.40756654797E-016,1.,-8.57568270892E-017)) ;
#294=DIRECTION('Axis2P3D Direction',(0.,1.,0.)) ;
#295=DIRECTION('Axis2P3D XDirection',(0.479425538604,-0.,0.87758256189)) ;
#299=DIRECTION('Vector Direction',(0.,1.,0.)) ;
#306=DIRECTION('Vector Direction',(0.,1.,0.)) ;
#313=DIRECTION('Axis2P3D Direction',(0.,1.,0.)) ;
#325=DIRECTION('Axis2P3D Direction',(0.,1.,0.)) ;
#337=DIRECTION('Axis2P3D Direction',(8.32667268469E-016,1.,-1.13190706807E-015)) ;
#338=DIRECTION('Axis2P3D XDirection',(0.479425538604,6.58544507983E-016,0.87758256189)) ;
#342=DIRECTION('Vector Direction',(0.339005049421,0.707106781187,0.620544580564)) ;
#349=DIRECTION('Axis2P3D Direction',(1.11751313446E-015,1.,-6.10500207791E-016)) ;
#356=DIRECTION('Vector Direction',(-0.339005049421,0.707106781187,-0.620544580564)) ;
#368=DIRECTION('Axis2P3D Direction',(2.77555756156E-016,1.,-1.38777878078E-016)) ;
#369=DIRECTION('Axis2P3D XDirection',(0.520296023213,-2.63417803193E-016,-0.853985976599)) ;
#373=DIRECTION('Axis2P3D Direction',(1.40756654797E-016,1.,8.57568270892E-017)) ;
#385=DIRECTION('Axis2P3D Direction',(0.,1.,0.)) ;
#386=DIRECTION('Axis2P3D XDirection',(1.,-0.,0.)) ;
#395=DIRECTION('Axis2P3D Direction',(0.,1.,0.)) ;
#396=DIRECTION('Axis2P3D XDirection',(1.,-0.,0.)) ;
#400=DIRECTION('Axis2P3D Direction',(0.,1.,0.)) ;
#409=DIRECTION('Axis2P3D Direction',(0.,1.,0.)) ;
#419=DIRECTION('Axis2P3D Direction',(2.77555756156E-016,-1.,-1.38777878078E-016)) ;
#420=DIRECTION('Axis2P3D XDirection',(0.520296023213,2.63417803193E-016,-0.853985976599)) ;
#424=DIRECTION('Vector Direction',(-0.339005049421,-0.707106781187,-0.620544580564)) ;
#431=DIRECTION('Axis2P3D Direction',(-1.40756654797E-016,1.,-8.57568270892E-017)) ;
#438=DIRECTION('Vector Direction',(0.339005049421,-0.707106781187,0.620544580564)) ;
#450=DIRECTION('Axis2P3D Direction',(8.32667268469E-016,-1.,-1.13190706807E-015)) ;
#451=DIRECTION('Axis2P3D XDirection',(0.479425538604,-6.58544507983E-016,0.87758256189)) ;
#455=DIRECTION('Axis2P3D Direction',(-1.11751313446E-015,1.,6.10500207791E-016)) ;
#467=DIRECTION('Vector Direction',(0.,1.,0.)) ;
#474=DIRECTION('Vector Direction',(0.,1.,0.)) ;
#481=DIRECTION('Axis2P3D Direction',(0.,1.,0.)) ;
#493=DIRECTION('Axis2P3D Direction',(0.,1.,0.)) ;
#505=DIRECTION('Axis2P3D Direction',(2.77555756156E-016,1.,-1.38777878078E-016)) ;
#506=DIRECTION('Axis2P3D XDirection',(0.520296023213,-2.63417803193E-016,-0.853985976599)) ;
#510=DIRECTION('Vector Direction',(-0.339005049421,0.707106781187,-0.620544580564)) ;
#517=DIRECTION('Axis2P3D Direction',(1.40756654797E-016,1.,8.57568270892E-017)) ;
#524=DIRECTION('Vector Direction',(0.339005049421,0.707106781187,0.620544580564)) ;
#536=DIRECTION('Axis2P3D Direction',(8.32667268469E-016,1.,-1.13190706807E-015)) ;
#537=DIRECTION('Axis2P3D XDirection',(0.479425538604,6.58544507983E-016,0.87758256189)) ;
#541=DIRECTION('Axis2P3D Direction',(1.11751313446E-015,1.,-6.10500207791E-016)) ;
#553=DIRECTION('Vector Direction',(0.,1.,0.)) ;
#560=DIRECTION('Vector Direction',(0.,1.,0.)) ;
#567=DIRECTION('Axis2P3D Direction',(0.,1.,0.)) ;
#579=DIRECTION('Axis2P3D Direction',(0.,1.,0.)) ;
#591=DIRECTION('Axis2P3D Direction',(0.,1.,0.)) ;
#592=DIRECTION('Axis2P3D XDirection',(1.,-0.,0.)) ;
#596=DIRECTION('Axis2P3D Direction',(0.,1.,0.)) ;
#605=DIRECTION('Axis2P3D Direction',(0.,1.,0.)) ;
#619=DIRECTION('Vector Direction',(0.,1.,0.)) ;
#626=DIRECTION('Axis2P3D Direction',(0.,1.,0.)) ;
#633=DIRECTION('Vector Direction',(0.,1.,0.)) ;
#645=DIRECTION('Axis2P3D Direction',(0.,1.,0.)) ;
#657=DIRECTION('Axis2P3D Direction',(0.,1.,0.)) ;
#658=DIRECTION('Axis2P3D XDirection',(1.,-0.,0.)) ;
#662=DIRECTION('Axis2P3D Direction',(0.,1.,0.)) ;
#671=DIRECTION('Axis2P3D Direction',(0.,1.,0.)) ;
#685=DIRECTION('Axis2P3D Direction',(0.,1.,0.)) ;
#686=DIRECTION('Axis2P3D XDirection',(0.479425538604,-0.,0.87758256189)) ;
#690=DIRECTION('Vector Direction',(0.,1.,0.)) ;
#695=DIRECTION('Vector Direction',(0.,1.,0.)) ;
#756=DIRECTION('Axis2P3D Direction',(-1.,0.,-0.)) ;
#757=DIRECTION('Axis2P3D XDirection',(0.,0.87758256189,-0.479425538604)) ;
#761=DIRECTION('Vector Direction',(-1.,0.,0.)) ;
#766=DIRECTION('Axis2P3D Direction',(-1.,0.,-0.)) ;
#771=DIRECTION('Vector Direction',(-1.,0.,0.)) ;
#48=AXIS2_PLACEMENT_3D(' ',#47,$,$) ;
#60=AXIS2_PLACEMENT_3D('Cone Axis2P3D',#57,#58,#59) ;
#73=AXIS2_PLACEMENT_3D('Circle Axis2P3D',#71,#72,$) ;
#92=AXIS2_PLACEMENT_3D('Plane Axis2P3D',#89,#90,#91) ;
#96=AXIS2_PLACEMENT_3D('Circle Axis2P3D',#94,#95,$) ;
#105=AXIS2_PLACEMENT_3D('Circle Axis2P3D',#103,#104,$) ;
#114=AXIS2_PLACEMENT_3D('Circle Axis2P3D',#112,#113,$) ;
#123=AXIS2_PLACEMENT_3D('Circle Axis2P3D',#121,#122,$) ;
#134=AXIS2_PLACEMENT_3D('Cylinder Axis2P3D',#131,#132,#133) ;
#145=AXIS2_PLACEMENT_3D('Circle Axis2P3D',#143,#144,$) ;
#164=AXIS2_PLACEMENT_3D('Circle Axis2P3D',#162,#163,$) ;
#177=AXIS2_PLACEMENT_3D('Plane Axis2P3D',#174,#175,#176) ;
#185=AXIS2_PLACEMENT_3D('Circle Axis2P3D',#183,#184,$) ;
#194=AXIS2_PLACEMENT_3D('Circle Axis2P3D',#192,#193,$) ;
#205=AXIS2_PLACEMENT_3D('Cylinder Axis2P3D',#202,#203,#204) ;
#223=AXIS2_PLACEMENT_3D('Circle Axis2P3D',#221,#222,$) ;
#235=AXIS2_PLACEMENT_3D('Circle Axis2P3D',#233,#234,$) ;
#248=AXIS2_PLACEMENT_3D('Cone Axis2P3D',#245,#246,#247) ;
#259=AXIS2_PLACEMENT_3D('Circle Axis2P3D',#257,#258,$) ;
#279=AXIS2_PLACEMENT_3D('Cone Axis2P3D',#276,#277,#278) ;
#283=AXIS2_PLACEMENT_3D('Circle Axis2P3D',#281,#282,$) ;
#296=AXIS2_PLACEMENT_3D('Cylinder Axis2P3D',#293,#294,#295) ;
#314=AXIS2_PLACEMENT_3D('Circle Axis2P3D',#312,#313,$) ;
#326=AXIS2_PLACEMENT_3D('Circle Axis2P3D',#324,#325,$) ;
#339=AXIS2_PLACEMENT_3D('Cone Axis2P3D',#336,#337,#338) ;
#350=AXIS2_PLACEMENT_3D('Circle Axis2P3D',#348,#349,$) ;
#370=AXIS2_PLACEMENT_3D('Cone Axis2P3D',#367,#368,#369) ;
#374=AXIS2_PLACEMENT_3D('Circle Axis2P3D',#372,#373,$) ;
#387=AXIS2_PLACEMENT_3D('Plane Axis2P3D',#384,#385,#386) ;
#397=AXIS2_PLACEMENT_3D('Plane Axis2P3D',#394,#395,#396) ;
#401=AXIS2_PLACEMENT_3D('Circle Axis2P3D',#399,#400,$) ;
#410=AXIS2_PLACEMENT_3D('Circle Axis2P3D',#408,#409,$) ;
#421=AXIS2_PLACEMENT_3D('Cone Axis2P3D',#418,#419,#420) ;
#432=AXIS2_PLACEMENT_3D('Circle Axis2P3D',#430,#431,$) ;
#452=AXIS2_PLACEMENT_3D('Cone Axis2P3D',#449,#450,#451) ;
#456=AXIS2_PLACEMENT_3D('Circle Axis2P3D',#454,#455,$) ;
#482=AXIS2_PLACEMENT_3D('Circle Axis2P3D',#480,#481,$) ;
#494=AXIS2_PLACEMENT_3D('Circle Axis2P3D',#492,#493,$) ;
#507=AXIS2_PLACEMENT_3D('Cone Axis2P3D',#504,#505,#506) ;
#518=AXIS2_PLACEMENT_3D('Circle Axis2P3D',#516,#517,$) ;
#538=AXIS2_PLACEMENT_3D('Cone Axis2P3D',#535,#536,#537) ;
#542=AXIS2_PLACEMENT_3D('Circle Axis2P3D',#540,#541,$) ;
#568=AXIS2_PLACEMENT_3D('Circle Axis2P3D',#566,#567,$) ;
#580=AXIS2_PLACEMENT_3D('Circle Axis2P3D',#578,#579,$) ;
#593=AXIS2_PLACEMENT_3D('Plane Axis2P3D',#590,#591,#592) ;
#597=AXIS2_PLACEMENT_3D('Circle Axis2P3D',#595,#596,$) ;
#606=AXIS2_PLACEMENT_3D('Circle Axis2P3D',#604,#605,$) ;
#627=AXIS2_PLACEMENT_3D('Circle Axis2P3D',#625,#626,$) ;
#646=AXIS2_PLACEMENT_3D('Circle Axis2P3D',#644,#645,$) ;
#659=AXIS2_PLACEMENT_3D('Plane Axis2P3D',#656,#657,#658) ;
#663=AXIS2_PLACEMENT_3D('Circle Axis2P3D',#661,#662,$) ;
#672=AXIS2_PLACEMENT_3D('Circle Axis2P3D',#670,#671,$) ;
#687=AXIS2_PLACEMENT_3D('Cylinder Axis2P3D',#684,#685,#686) ;
#758=AXIS2_PLACEMENT_3D('Cylinder Axis2P3D',#755,#756,#757) ;
#767=AXIS2_PLACEMENT_3D('Circle Axis2P3D',#765,#766,$) ;
#40=PRODUCT_DEFINITION_SHAPE(' ',' ',#14) ;
#31=APPROVAL_PERSON_ORGANIZATION(#25,#21,#19) ;
#25=PERSON_AND_ORGANIZATION(#22,#23) ;
#22=PERSON(' ',' ',' ',$,$,$) ;
#23=ORGANIZATION(' ',' ',' ') ;
#21=APPROVAL(#20,' ') ;
#20=APPROVAL_STATUS('not_yet_approved') ;
#19=APPROVAL_ROLE('APPROVER') ;
#13=DATE_AND_TIME(#11,#12) ;
#12=LOCAL_TIME(16,10,44.,#10) ;
#10=COORDINATED_UNIVERSAL_TIME_OFFSET(0,0,.AHEAD.) ;
#84=ORIENTED_EDGE('',*,*,#70,.T.) ;
#85=ORIENTED_EDGE('',*,*,#77,.F.) ;
#86=ORIENTED_EDGE('',*,*,#82,.F.) ;
#109=ORIENTED_EDGE('',*,*,#102,.F.) ;
#110=ORIENTED_EDGE('',*,*,#107,.F.) ;
#127=ORIENTED_EDGE('',*,*,#120,.T.) ;
#128=ORIENTED_EDGE('',*,*,#125,.T.) ;
#156=ORIENTED_EDGE('',*,*,#125,.F.) ;
#157=ORIENTED_EDGE('',*,*,#142,.T.) ;
#158=ORIENTED_EDGE('',*,*,#149,.T.) ;
#159=ORIENTED_EDGE('',*,*,#154,.F.) ;
#168=ORIENTED_EDGE('',*,*,#120,.F.) ;
#169=ORIENTED_EDGE('',*,*,#154,.T.) ;
#170=ORIENTED_EDGE('',*,*,#166,.T.) ;
#171=ORIENTED_EDGE('',*,*,#142,.F.) ;
#180=ORIENTED_EDGE('',*,*,#166,.F.) ;
#181=ORIENTED_EDGE('',*,*,#149,.F.) ;
#198=ORIENTED_EDGE('',*,*,#191,.T.) ;
#199=ORIENTED_EDGE('',*,*,#196,.T.) ;
#227=ORIENTED_EDGE('',*,*,#213,.T.) ;
#228=ORIENTED_EDGE('',*,*,#196,.F.) ;
#229=ORIENTED_EDGE('',*,*,#220,.F.) ;
#230=ORIENTED_EDGE('',*,*,#225,.T.) ;
#239=ORIENTED_EDGE('',*,*,#220,.T.) ;
#240=ORIENTED_EDGE('',*,*,#191,.F.) ;
#241=ORIENTED_EDGE('',*,*,#213,.F.) ;
#242=ORIENTED_EDGE('',*,*,#237,.T.) ;
#270=ORIENTED_EDGE('',*,*,#256,.T.) ;
#271=ORIENTED_EDGE('',*,*,#263,.T.) ;
#272=ORIENTED_EDGE('',*,*,#268,.F.) ;
#273=ORIENTED_EDGE('',*,*,#225,.F.) ;
#287=ORIENTED_EDGE('',*,*,#268,.T.) ;
#288=ORIENTED_EDGE('',*,*,#285,.T.) ;
#289=ORIENTED_EDGE('',*,*,#256,.F.) ;
#290=ORIENTED_EDGE('',*,*,#237,.F.) ;
#318=ORIENTED_EDGE('',*,*,#304,.F.) ;
#319=ORIENTED_EDGE('',*,*,#263,.F.) ;
#320=ORIENTED_EDGE('',*,*,#311,.T.) ;
#321=ORIENTED_EDGE('',*,*,#316,.T.) ;
#330=ORIENTED_EDGE('',*,*,#311,.F.) ;
#331=ORIENTED_EDGE('',*,*,#285,.F.) ;
#332=ORIENTED_EDGE('',*,*,#304,.T.) ;
#333=ORIENTED_EDGE('',*,*,#328,.T.) ;
#361=ORIENTED_EDGE('',*,*,#347,.T.) ;
#362=ORIENTED_EDGE('',*,*,#354,.T.) ;
#363=ORIENTED_EDGE('',*,*,#359,.F.) ;
#364=ORIENTED_EDGE('',*,*,#316,.F.) ;
#378=ORIENTED_EDGE('',*,*,#359,.T.) ;
#379=ORIENTED_EDGE('',*,*,#376,.T.) ;
#380=ORIENTED_EDGE('',*,*,#347,.F.) ;
#381=ORIENTED_EDGE('',*,*,#328,.F.) ;
#390=ORIENTED_EDGE('',*,*,#376,.F.) ;
#391=ORIENTED_EDGE('',*,*,#354,.F.) ;
#414=ORIENTED_EDGE('',*,*,#407,.T.) ;
#415=ORIENTED_EDGE('',*,*,#412,.T.) ;
#443=ORIENTED_EDGE('',*,*,#429,.T.) ;
#444=ORIENTED_EDGE('',*,*,#436,.T.) ;
#445=ORIENTED_EDGE('',*,*,#441,.F.) ;
#446=ORIENTED_EDGE('',*,*,#407,.F.) ;
#460=ORIENTED_EDGE('',*,*,#441,.T.) ;
#461=ORIENTED_EDGE('',*,*,#458,.T.) ;
#462=ORIENTED_EDGE('',*,*,#429,.F.) ;
#463=ORIENTED_EDGE('',*,*,#412,.F.) ;
#486=ORIENTED_EDGE('',*,*,#472,.F.) ;
#487=ORIENTED_EDGE('',*,*,#436,.F.) ;
#488=ORIENTED_EDGE('',*,*,#479,.T.) ;
#489=ORIENTED_EDGE('',*,*,#484,.T.) ;
#498=ORIENTED_EDGE('',*,*,#479,.F.) ;
#499=ORIENTED_EDGE('',*,*,#458,.F.) ;
#500=ORIENTED_EDGE('',*,*,#472,.T.) ;
#501=ORIENTED_EDGE('',*,*,#496,.T.) ;
#529=ORIENTED_EDGE('',*,*,#515,.T.) ;
#530=ORIENTED_EDGE('',*,*,#522,.T.) ;
#531=ORIENTED_EDGE('',*,*,#527,.F.) ;
#532=ORIENTED_EDGE('',*,*,#484,.F.) ;
#546=ORIENTED_EDGE('',*,*,#527,.T.) ;
#547=ORIENTED_EDGE('',*,*,#544,.T.) ;
#548=ORIENTED_EDGE('',*,*,#515,.F.) ;
#549=ORIENTED_EDGE('',*,*,#496,.F.) ;
#572=ORIENTED_EDGE('',*,*,#558,.T.) ;
#573=ORIENTED_EDGE('',*,*,#522,.F.) ;
#574=ORIENTED_EDGE('',*,*,#565,.F.) ;
#575=ORIENTED_EDGE('',*,*,#570,.T.) ;
#584=ORIENTED_EDGE('',*,*,#565,.T.) ;
#585=ORIENTED_EDGE('',*,*,#544,.F.) ;
#586=ORIENTED_EDGE('',*,*,#558,.F.) ;
#587=ORIENTED_EDGE('',*,*,#582,.T.) ;
#610=ORIENTED_EDGE('',*,*,#603,.T.) ;
#611=ORIENTED_EDGE('',*,*,#608,.T.) ;
#614=ORIENTED_EDGE('',*,*,#582,.F.) ;
#615=ORIENTED_EDGE('',*,*,#570,.F.) ;
#638=ORIENTED_EDGE('',*,*,#608,.F.) ;
#639=ORIENTED_EDGE('',*,*,#624,.T.) ;
#640=ORIENTED_EDGE('',*,*,#631,.T.) ;
#641=ORIENTED_EDGE('',*,*,#636,.F.) ;
#650=ORIENTED_EDGE('',*,*,#603,.F.) ;
#651=ORIENTED_EDGE('',*,*,#636,.T.) ;
#652=ORIENTED_EDGE('',*,*,#648,.T.) ;
#653=ORIENTED_EDGE('',*,*,#624,.F.) ;
#676=ORIENTED_EDGE('',*,*,#669,.T.) ;
#677=ORIENTED_EDGE('',*,*,#674,.T.) ;
#680=ORIENTED_EDGE('',*,*,#648,.F.) ;
#681=ORIENTED_EDGE('',*,*,#631,.F.) ;
#700=ORIENTED_EDGE('',*,*,#669,.F.) ;
#701=ORIENTED_EDGE('',*,*,#693,.T.) ;
#702=ORIENTED_EDGE('',*,*,#107,.T.) ;
#703=ORIENTED_EDGE('',*,*,#698,.F.) ;
#707=ORIENTED_EDGE('',*,*,#674,.F.) ;
#708=ORIENTED_EDGE('',*,*,#698,.T.) ;
#709=ORIENTED_EDGE('',*,*,#102,.T.) ;
#710=ORIENTED_EDGE('',*,*,#693,.F.) ;
#751=ORIENTED_EDGE('',*,*,#732,.T.) ;
#752=ORIENTED_EDGE('',*,*,#749,.T.) ;
#776=ORIENTED_EDGE('',*,*,#732,.F.) ;
#777=ORIENTED_EDGE('',*,*,#764,.F.) ;
#778=ORIENTED_EDGE('',*,*,#769,.T.) ;
#779=ORIENTED_EDGE('',*,*,#774,.T.) ;
#783=ORIENTED_EDGE('',*,*,#749,.F.) ;
#784=ORIENTED_EDGE('',*,*,#774,.F.) ;
#785=ORIENTED_EDGE('',*,*,#77,.T.) ;
#786=ORIENTED_EDGE('',*,*,#764,.T.) ;
#790=ORIENTED_EDGE('',*,*,#82,.T.) ;
#791=ORIENTED_EDGE('',*,*,#769,.F.) ;
#792=ORIENTED_EDGE('',*,*,#70,.F.) ;
#129=FACE_BOUND('',#126,.T.) ;
#200=FACE_BOUND('',#197,.T.) ;
#616=FACE_BOUND('',#613,.T.) ;
#682=FACE_BOUND('',#679,.T.) ;
#753=FACE_BOUND('',#750,.T.) ;
#56=CLOSED_SHELL('Closed Shell',(#88,#130,#161,#173,#201,#232,#244,#275,#292,#323,#335,#366,#383,#393,#417,#448,#465,#491,#503,#534,#551,#577,#589,#617,#643,#655,#683,#705,#754,#781,#788,#794)) ;
#64=VECTOR('Line Direction',#63,1.) ;
#80=VECTOR('Line Direction',#79,1.) ;
#138=VECTOR('Line Direction',#137,1.) ;
#152=VECTOR('Line Direction',#151,1.) ;
#209=VECTOR('Line Direction',#208,1.) ;
#216=VECTOR('Line Direction',#215,1.) ;
#252=VECTOR('Line Direction',#251,1.) ;
#266=VECTOR('Line Direction',#265,1.) ;
#300=VECTOR('Line Direction',#299,1.) ;
#307=VECTOR('Line Direction',#306,1.) ;
#343=VECTOR('Line Direction',#342,1.) ;
#357=VECTOR('Line Direction',#356,1.) ;
#425=VECTOR('Line Direction',#424,1.) ;
#439=VECTOR('Line Direction',#438,1.) ;
#468=VECTOR('Line Direction',#467,1.) ;
#475=VECTOR('Line Direction',#474,1.) ;
#511=VECTOR('Line Direction',#510,1.) ;
#525=VECTOR('Line Direction',#524,1.) ;
#554=VECTOR('Line Direction',#553,1.) ;
#561=VECTOR('Line Direction',#560,1.) ;
#620=VECTOR('Line Direction',#619,1.) ;
#634=VECTOR('Line Direction',#633,1.) ;
#691=VECTOR('Line Direction',#690,1.) ;
#696=VECTOR('Line Direction',#695,1.) ;
#762=VECTOR('Line Direction',#761,1.) ;
#772=VECTOR('Line Direction',#771,1.) ;
#796=ADVANCED_BREP_SHAPE_REPRESENTATION('NONE',(#795),#46) ;
#49=SHAPE_REPRESENTATION(' ',(#48),#46) ;
#88=ADVANCED_FACE('MAIN',(#87),#61,.F.) ;
#130=ADVANCED_FACE('MAIN',(#111,#129),#93,.F.) ;
#161=ADVANCED_FACE('MAIN',(#160),#135,.T.) ;
#173=ADVANCED_FACE('MAIN',(#172),#135,.T.) ;
#201=ADVANCED_FACE('MAIN',(#182,#200),#178,.F.) ;
#232=ADVANCED_FACE('MAIN',(#231),#206,.T.) ;
#244=ADVANCED_FACE('MAIN',(#243),#206,.T.) ;
#275=ADVANCED_FACE('MAIN',(#274),#249,.T.) ;
#292=ADVANCED_FACE('MAIN',(#291),#280,.T.) ;
#323=ADVANCED_FACE('MAIN',(#322),#297,.T.) ;
#335=ADVANCED_FACE('MAIN',(#334),#297,.T.) ;
#366=ADVANCED_FACE('MAIN',(#365),#340,.T.) ;
#383=ADVANCED_FACE('MAIN',(#382),#371,.T.) ;
#393=ADVANCED_FACE('MAIN',(#392),#388,.F.) ;
#417=ADVANCED_FACE('MAIN',(#416),#398,.T.) ;
#448=ADVANCED_FACE('MAIN',(#447),#422,.T.) ;
#465=ADVANCED_FACE('MAIN',(#464),#453,.T.) ;
#491=ADVANCED_FACE('MAIN',(#490),#297,.T.) ;
#503=ADVANCED_FACE('MAIN',(#502),#297,.T.) ;
#534=ADVANCED_FACE('MAIN',(#533),#508,.T.) ;
#551=ADVANCED_FACE('MAIN',(#550),#539,.T.) ;
#577=ADVANCED_FACE('MAIN',(#576),#206,.T.) ;
#589=ADVANCED_FACE('MAIN',(#588),#206,.T.) ;
#617=ADVANCED_FACE('MAIN',(#612,#616),#594,.T.) ;
#643=ADVANCED_FACE('MAIN',(#642),#135,.T.) ;
#655=ADVANCED_FACE('MAIN',(#654),#135,.T.) ;
#683=ADVANCED_FACE('MAIN',(#678,#682),#660,.T.) ;
#705=ADVANCED_FACE('MAIN',(#704),#688,.T.) ;
#754=ADVANCED_FACE('MAIN',(#711,#753),#688,.T.) ;
#781=ADVANCED_FACE('MAIN',(#780),#759,.F.) ;
#788=ADVANCED_FACE('MAIN',(#787),#759,.F.) ;
#794=ADVANCED_FACE('MAIN',(#793),#61,.F.) ;
#4=APPLICATION_PROTOCOL_DEFINITION('international standard','config_control_design',1994,#1) ;
#32=APPROVAL_DATE_TIME(#13,#21) ;
#712=B_SPLINE_CURVE_WITH_KNOTS('',5,(#713,#714,#715,#716,#717,#718,#719,#720,#721,#722,#723,#724,#725,#726,#727),.UNSPECIFIED.,.F.,.U.,(6,3,3,3,6),(0.,2.19037858329,3.65065151841,5.11956994302,7.1553024626),.UNSPECIFIED.) ;
#733=B_SPLINE_CURVE_WITH_KNOTS('',5,(#734,#735,#736,#737,#738,#739,#740,#741,#742,#743,#744,#745,#746,#747,#748),.UNSPECIFIED.,.F.,.U.,(6,3,3,3,6),(0.,2.19037858333,3.65065151844,5.11956994308,7.15530246264),.UNSPECIFIED.) ;
#795=MANIFOLD_SOLID_BREP('MAIN',#56) ;
#11=CALENDAR_DATE(2026,6,10) ;
#30=CC_DESIGN_APPROVAL(#21,(#16,#6,#14)) ;
#18=CC_DESIGN_DATE_AND_TIME_ASSIGNMENT(#13,#17,(#16)) ;
#29=CC_DESIGN_DATE_AND_TIME_ASSIGNMENT(#13,#28,(#14)) ;
#17=DATE_TIME_ROLE('classification_date') ;
#28=DATE_TIME_ROLE('creation_date') ;
#27=CC_DESIGN_PERSON_AND_ORGANIZATION_ASSIGNMENT(#25,#26,(#16)) ;
#33=CC_DESIGN_PERSON_AND_ORGANIZATION_ASSIGNMENT(#25,#34,(#6)) ;
#35=CC_DESIGN_PERSON_AND_ORGANIZATION_ASSIGNMENT(#25,#36,(#6,#14)) ;
#37=CC_DESIGN_PERSON_AND_ORGANIZATION_ASSIGNMENT(#25,#38,(#5)) ;
#26=PERSON_AND_ORGANIZATION_ROLE('classification_officer') ;
#34=PERSON_AND_ORGANIZATION_ROLE('design_supplier') ;
#36=PERSON_AND_ORGANIZATION_ROLE('creator') ;
#38=PERSON_AND_ORGANIZATION_ROLE('design_owner') ;
#39=CC_DESIGN_SECURITY_CLASSIFICATION(#16,(#6)) ;
#74=CIRCLE('generated circle',#73,1.6) ;
#97=CIRCLE('generated circle',#96,5.) ;
#106=CIRCLE('generated circle',#105,5.) ;
#115=CIRCLE('generated circle',#114,4.) ;
#124=CIRCLE('generated circle',#123,4.) ;
#146=CIRCLE('generated circle',#145,4.) ;
#165=CIRCLE('generated circle',#164,4.) ;
#186=CIRCLE('generated circle',#185,2.2) ;
#195=CIRCLE('generated circle',#194,2.2) ;
#224=CIRCLE('generated circle',#223,2.2) ;
#236=CIRCLE('generated circle',#235,2.2) ;
#260=CIRCLE('generated circle',#259,3.) ;
#284=CIRCLE('generated circle',#283,3.) ;
#315=CIRCLE('generated circle',#314,3.) ;
#327=CIRCLE('generated circle',#326,3.) ;
#351=CIRCLE('generated circle',#350,2.2) ;
#375=CIRCLE('generated circle',#374,2.2) ;
#402=CIRCLE('generated circle',#401,2.2) ;
#411=CIRCLE('generated circle',#410,2.2) ;
#433=CIRCLE('generated circle',#432,3.) ;
#457=CIRCLE('generated circle',#456,3.) ;
#483=CIRCLE('generated circle',#482,3.) ;
#495=CIRCLE('generated circle',#494,3.) ;
#519=CIRCLE('generated circle',#518,2.2) ;
#543=CIRCLE('generated circle',#542,2.2) ;
#569=CIRCLE('generated circle',#568,2.2) ;
#581=CIRCLE('generated circle',#580,2.2) ;
#598=CIRCLE('generated circle',#597,4.) ;
#607=CIRCLE('generated circle',#606,4.) ;
#628=CIRCLE('generated circle',#627,4.) ;
#647=CIRCLE('generated circle',#646,4.) ;
#664=CIRCLE('generated circle',#663,5.) ;
#673=CIRCLE('generated circle',#672,5.) ;
#768=CIRCLE('generated circle',#767,1.6) ;
#61=CONICAL_SURFACE('Cone',#60,0.,1.0471975512) ;
#249=CONICAL_SURFACE('Cone',#248,0.,0.785398163397) ;
#280=CONICAL_SURFACE('Cone',#279,0.,0.785398163397) ;
#340=CONICAL_SURFACE('Cone',#339,0.,0.785398163397) ;
#371=CONICAL_SURFACE('Cone',#370,0.,0.785398163397) ;
#422=CONICAL_SURFACE('Cone',#421,0.,0.785398163397) ;
#453=CONICAL_SURFACE('Cone',#452,0.,0.785398163397) ;
#508=CONICAL_SURFACE('Cone',#507,0.,0.785398163397) ;
#539=CONICAL_SURFACE('Cone',#538,0.,0.785398163397) ;
#54=SHAPE_REPRESENTATION_RELATIONSHIP(' ',' ',#49,#52) ;
#797=SHAPE_REPRESENTATION_RELATIONSHIP(' ',' ',#49,#796) ;
#135=CYLINDRICAL_SURFACE('generated cylinder',#134,4.) ;
#206=CYLINDRICAL_SURFACE('generated cylinder',#205,2.2) ;
#297=CYLINDRICAL_SURFACE('generated cylinder',#296,3.) ;
#688=CYLINDRICAL_SURFACE('generated cylinder',#687,5.) ;
#759=CYLINDRICAL_SURFACE('generated cylinder',#758,1.6) ;
#3=DESIGN_CONTEXT(' ',#1,'design') ;
#70=EDGE_CURVE('',#67,#69,#65,.T.) ;
#77=EDGE_CURVE('',#76,#69,#74,.F.) ;
#82=EDGE_CURVE('',#67,#76,#81,.T.) ;
#102=EDGE_CURVE('',#99,#101,#97,.T.) ;
#107=EDGE_CURVE('',#101,#99,#106,.T.) ;
#120=EDGE_CURVE('',#117,#119,#115,.T.) ;
#125=EDGE_CURVE('',#119,#117,#124,.T.) ;
#142=EDGE_CURVE('',#119,#141,#139,.F.) ;
#149=EDGE_CURVE('',#141,#148,#146,.T.) ;
#154=EDGE_CURVE('',#117,#148,#153,.F.) ;
#166=EDGE_CURVE('',#148,#141,#165,.T.) ;
#191=EDGE_CURVE('',#188,#190,#186,.T.) ;
#196=EDGE_CURVE('',#190,#188,#195,.T.) ;
#213=EDGE_CURVE('',#212,#188,#210,.T.) ;
#220=EDGE_CURVE('',#219,#190,#217,.T.) ;
#225=EDGE_CURVE('',#219,#212,#224,.T.) ;
#237=EDGE_CURVE('',#212,#219,#236,.T.) ;
#256=EDGE_CURVE('',#219,#255,#253,.T.) ;
#263=EDGE_CURVE('',#255,#262,#260,.T.) ;
#268=EDGE_CURVE('',#212,#262,#267,.T.) ;
#285=EDGE_CURVE('',#262,#255,#284,.T.) ;
#304=EDGE_CURVE('',#262,#303,#301,.F.) ;
#311=EDGE_CURVE('',#255,#310,#308,.F.) ;
#316=EDGE_CURVE('',#310,#303,#315,.T.) ;
#328=EDGE_CURVE('',#303,#310,#327,.T.) ;
#347=EDGE_CURVE('',#310,#346,#344,.F.) ;
#354=EDGE_CURVE('',#346,#353,#351,.T.) ;
#359=EDGE_CURVE('',#303,#353,#358,.F.) ;
#376=EDGE_CURVE('',#353,#346,#375,.T.) ;
#407=EDGE_CURVE('',#404,#406,#402,.T.) ;
#412=EDGE_CURVE('',#406,#404,#411,.T.) ;
#429=EDGE_CURVE('',#404,#428,#426,.T.) ;
#436=EDGE_CURVE('',#428,#435,#433,.T.) ;
#441=EDGE_CURVE('',#406,#435,#440,.T.) ;
#458=EDGE_CURVE('',#435,#428,#457,.T.) ;
#472=EDGE_CURVE('',#435,#471,#469,.F.) ;
#479=EDGE_CURVE('',#428,#478,#476,.F.) ;
#484=EDGE_CURVE('',#478,#471,#483,.T.) ;
#496=EDGE_CURVE('',#471,#478,#495,.T.) ;
#515=EDGE_CURVE('',#478,#514,#512,.F.) ;
#522=EDGE_CURVE('',#514,#521,#519,.T.) ;
#527=EDGE_CURVE('',#471,#521,#526,.F.) ;
#544=EDGE_CURVE('',#521,#514,#543,.T.) ;
#558=EDGE_CURVE('',#557,#521,#555,.T.) ;
#565=EDGE_CURVE('',#564,#514,#562,.T.) ;
#570=EDGE_CURVE('',#564,#557,#569,.T.) ;
#582=EDGE_CURVE('',#557,#564,#581,.T.) ;
#603=EDGE_CURVE('',#600,#602,#598,.T.) ;
#608=EDGE_CURVE('',#602,#600,#607,.T.) ;
#624=EDGE_CURVE('',#602,#623,#621,.F.) ;
#631=EDGE_CURVE('',#623,#630,#628,.T.) ;
#636=EDGE_CURVE('',#600,#630,#635,.F.) ;
#648=EDGE_CURVE('',#630,#623,#647,.T.) ;
#669=EDGE_CURVE('',#666,#668,#664,.T.) ;
#674=EDGE_CURVE('',#668,#666,#673,.T.) ;
#693=EDGE_CURVE('',#666,#101,#692,.F.) ;
#698=EDGE_CURVE('',#668,#99,#697,.F.) ;
#732=EDGE_CURVE('',#729,#731,#712,.T.) ;
#749=EDGE_CURVE('',#731,#729,#733,.T.) ;
#764=EDGE_CURVE('',#69,#729,#763,.F.) ;
#769=EDGE_CURVE('',#69,#76,#768,.T.) ;
#774=EDGE_CURVE('',#76,#731,#773,.F.) ;
#83=EDGE_LOOP('',(#84,#85,#86)) ;
#108=EDGE_LOOP('',(#109,#110)) ;
#126=EDGE_LOOP('',(#127,#128)) ;
#155=EDGE_LOOP('',(#156,#157,#158,#159)) ;
#167=EDGE_LOOP('',(#168,#169,#170,#171)) ;
#179=EDGE_LOOP('',(#180,#181)) ;
#197=EDGE_LOOP('',(#198,#199)) ;
#226=EDGE_LOOP('',(#227,#228,#229,#230)) ;
#238=EDGE_LOOP('',(#239,#240,#241,#242)) ;
#269=EDGE_LOOP('',(#270,#271,#272,#273)) ;
#286=EDGE_LOOP('',(#287,#288,#289,#290)) ;
#317=EDGE_LOOP('',(#318,#319,#320,#321)) ;
#329=EDGE_LOOP('',(#330,#331,#332,#333)) ;
#360=EDGE_LOOP('',(#361,#362,#363,#364)) ;
#377=EDGE_LOOP('',(#378,#379,#380,#381)) ;
#389=EDGE_LOOP('',(#390,#391)) ;
#413=EDGE_LOOP('',(#414,#415)) ;
#442=EDGE_LOOP('',(#443,#444,#445,#446)) ;
#459=EDGE_LOOP('',(#460,#461,#462,#463)) ;
#485=EDGE_LOOP('',(#486,#487,#488,#489)) ;
#497=EDGE_LOOP('',(#498,#499,#500,#501)) ;
#528=EDGE_LOOP('',(#529,#530,#531,#532)) ;
#545=EDGE_LOOP('',(#546,#547,#548,#549)) ;
#571=EDGE_LOOP('',(#572,#573,#574,#575)) ;
#583=EDGE_LOOP('',(#584,#585,#586,#587)) ;
#609=EDGE_LOOP('',(#610,#611)) ;
#613=EDGE_LOOP('',(#614,#615)) ;
#637=EDGE_LOOP('',(#638,#639,#640,#641)) ;
#649=EDGE_LOOP('',(#650,#651,#652,#653)) ;
#675=EDGE_LOOP('',(#676,#677)) ;
#679=EDGE_LOOP('',(#680,#681)) ;
#699=EDGE_LOOP('',(#700,#701,#702,#703)) ;
#706=EDGE_LOOP('',(#707,#708,#709,#710)) ;
#750=EDGE_LOOP('',(#751,#752)) ;
#775=EDGE_LOOP('',(#776,#777,#778,#779)) ;
#782=EDGE_LOOP('',(#783,#784,#785,#786)) ;
#789=EDGE_LOOP('',(#790,#791,#792)) ;
#87=FACE_OUTER_BOUND('',#83,.T.) ;
#111=FACE_OUTER_BOUND('',#108,.T.) ;
#160=FACE_OUTER_BOUND('',#155,.T.) ;
#172=FACE_OUTER_BOUND('',#167,.T.) ;
#182=FACE_OUTER_BOUND('',#179,.T.) ;
#231=FACE_OUTER_BOUND('',#226,.T.) ;
#243=FACE_OUTER_BOUND('',#238,.T.) ;
#274=FACE_OUTER_BOUND('',#269,.T.) ;
#291=FACE_OUTER_BOUND('',#286,.T.) ;
#322=FACE_OUTER_BOUND('',#317,.T.) ;
#334=FACE_OUTER_BOUND('',#329,.T.) ;
#365=FACE_OUTER_BOUND('',#360,.T.) ;
#382=FACE_OUTER_BOUND('',#377,.T.) ;
#392=FACE_OUTER_BOUND('',#389,.T.) ;
#416=FACE_OUTER_BOUND('',#413,.T.) ;
#447=FACE_OUTER_BOUND('',#442,.T.) ;
#464=FACE_OUTER_BOUND('',#459,.T.) ;
#490=FACE_OUTER_BOUND('',#485,.T.) ;
#502=FACE_OUTER_BOUND('',#497,.T.) ;
#533=FACE_OUTER_BOUND('',#528,.T.) ;
#550=FACE_OUTER_BOUND('',#545,.T.) ;
#576=FACE_OUTER_BOUND('',#571,.T.) ;
#588=FACE_OUTER_BOUND('',#583,.T.) ;
#612=FACE_OUTER_BOUND('',#609,.T.) ;
#642=FACE_OUTER_BOUND('',#637,.T.) ;
#654=FACE_OUTER_BOUND('',#649,.T.) ;
#678=FACE_OUTER_BOUND('',#675,.T.) ;
#704=FACE_OUTER_BOUND('',#699,.T.) ;
#711=FACE_OUTER_BOUND('',#706,.T.) ;
#780=FACE_OUTER_BOUND('',#775,.T.) ;
#787=FACE_OUTER_BOUND('',#782,.T.) ;
#793=FACE_OUTER_BOUND('',#789,.T.) ;
#53=GEOMETRIC_SET('NONE',(#51,#55)) ;
#52=GEOMETRICALLY_BOUNDED_SURFACE_SHAPE_REPRESENTATION('NONE',(#53),#46) ;
#45=UNCERTAINTY_MEASURE_WITH_UNIT(LENGTH_MEASURE(0.005),#41,'distance_accuracy_value','CONFUSED CURVE UNCERTAINTY') ;
#65=LINE('Line',#62,#64) ;
#81=LINE('Line',#78,#80) ;
#139=LINE('Line',#136,#138) ;
#153=LINE('Line',#150,#152) ;
#210=LINE('Line',#207,#209) ;
#217=LINE('Line',#214,#216) ;
#253=LINE('Line',#250,#252) ;
#267=LINE('Line',#264,#266) ;
#301=LINE('Line',#298,#300) ;
#308=LINE('Line',#305,#307) ;
#344=LINE('Line',#341,#343) ;
#358=LINE('Line',#355,#357) ;
#426=LINE('Line',#423,#425) ;
#440=LINE('Line',#437,#439) ;
#469=LINE('Line',#466,#468) ;
#476=LINE('Line',#473,#475) ;
#512=LINE('Line',#509,#511) ;
#526=LINE('Line',#523,#525) ;
#555=LINE('Line',#552,#554) ;
#562=LINE('Line',#559,#561) ;
#621=LINE('Line',#618,#620) ;
#635=LINE('Line',#632,#634) ;
#692=LINE('Line',#689,#691) ;
#697=LINE('Line',#694,#696) ;
#763=LINE('Line',#760,#762) ;
#773=LINE('Line',#770,#772) ;
#2=MECHANICAL_CONTEXT(' ',#1,'mechanical') ;
#24=PERSONAL_ADDRESS(' ',' ',' ',' ',' ',' ',' ',' ',' ',' ',' ',' ',(#22),' ') ;
#93=PLANE('',#92) ;
#178=PLANE('',#177) ;
#388=PLANE('',#387) ;
#398=PLANE('',#397) ;
#594=PLANE('',#593) ;
#660=PLANE('',#659) ;
#43=PLANE_ANGLE_MEASURE_WITH_UNIT(PLANE_ANGLE_MEASURE(0.0174532925199),#42) ;
#7=PRODUCT_CATEGORY('part',$) ;
#9=PRODUCT_CATEGORY_RELATIONSHIP(' ',' ',#7,#8) ;
#6=PRODUCT_DEFINITION_FORMATION_WITH_SPECIFIED_SOURCE('',' ',#5,.NOT_KNOWN.) ;
#8=PRODUCT_RELATED_PRODUCT_CATEGORY('detail',$,(#5)) ;
#50=SHAPE_DEFINITION_REPRESENTATION(#40,#49) ;
#67=VERTEX_POINT('',#66) ;
#69=VERTEX_POINT('',#68) ;
#76=VERTEX_POINT('',#75) ;
#99=VERTEX_POINT('',#98) ;
#101=VERTEX_POINT('',#100) ;
#117=VERTEX_POINT('',#116) ;
#119=VERTEX_POINT('',#118) ;
#141=VERTEX_POINT('',#140) ;
#148=VERTEX_POINT('',#147) ;
#188=VERTEX_POINT('',#187) ;
#190=VERTEX_POINT('',#189) ;
#212=VERTEX_POINT('',#211) ;
#219=VERTEX_POINT('',#218) ;
#255=VERTEX_POINT('',#254) ;
#262=VERTEX_POINT('',#261) ;
#303=VERTEX_POINT('',#302) ;
#310=VERTEX_POINT('',#309) ;
#346=VERTEX_POINT('',#345) ;
#353=VERTEX_POINT('',#352) ;
#404=VERTEX_POINT('',#403) ;
#406=VERTEX_POINT('',#405) ;
#428=VERTEX_POINT('',#427) ;
#435=VERTEX_POINT('',#434) ;
#471=VERTEX_POINT('',#470) ;
#478=VERTEX_POINT('',#477) ;
#514=VERTEX_POINT('',#513) ;
#521=VERTEX_POINT('',#520) ;
#557=VERTEX_POINT('',#556) ;
#564=VERTEX_POINT('',#563) ;
#600=VERTEX_POINT('',#599) ;
#602=VERTEX_POINT('',#601) ;
#623=VERTEX_POINT('',#622) ;
#630=VERTEX_POINT('',#629) ;
#666=VERTEX_POINT('',#665) ;
#668=VERTEX_POINT('',#667) ;
#729=VERTEX_POINT('',#728) ;
#731=VERTEX_POINT('',#730) ;
#41=(LENGTH_UNIT()NAMED_UNIT(*)SI_UNIT(.MILLI.,.METRE.)) ;
#42=(NAMED_UNIT(*)PLANE_ANGLE_UNIT()SI_UNIT($,.RADIAN.)) ;
#44=(NAMED_UNIT(*)SI_UNIT($,.STERADIAN.)SOLID_ANGLE_UNIT()) ;
#46=(GEOMETRIC_REPRESENTATION_CONTEXT(3)GLOBAL_UNCERTAINTY_ASSIGNED_CONTEXT((#45))GLOBAL_UNIT_ASSIGNED_CONTEXT((#41,#42,#44))REPRESENTATION_CONTEXT(' ',' ')) ;
ENDSEC;
END-ISO-10303-21;
