ISO-10303-21;
HEADER;
FILE_DESCRIPTION(('CATIA V5 STEP Exchange'),'2;1');

FILE_NAME('C:\\Users\\Hashaam\\Documents\\CAD_Project\\review\\BRK_PRS_Sensor_Connection_live.stp','2026-10-06T14:42:13+00:00',('none'),('none'),'CATIA Version 5 Release 21 GA (IN-10)','CATIA V5 STEP AP203','none');

FILE_SCHEMA(('CONFIG_CONTROL_DESIGN'));

ENDSEC;
/* file written by CATIA V5R21 */
DATA;
#5=PRODUCT('Part15','','',(#2)) ;
#1=APPLICATION_CONTEXT('configuration controlled 3D design of mechanical parts and assemblies') ;
#14=PRODUCT_DEFINITION('',' ',#6,#3) ;
#16=SECURITY_CLASSIFICATION(' ',' ',#15) ;
#15=SECURITY_CLASSIFICATION_LEVEL('unclassified') ;
#47=CARTESIAN_POINT(' ',(0.,0.,0.)) ;
#52=CARTESIAN_POINT('Axis2P3D Location',(0.,16.1000000001,0.)) ;
#57=CARTESIAN_POINT('Line Origine',(-4.17948599444,23.6,2.28326360503)) ;
#61=CARTESIAN_POINT('Vertex',(-4.17948599444,16.,2.28326360503)) ;
#63=CARTESIAN_POINT('Vertex',(-4.17948599444,18.6,2.28326360503)) ;
#66=CARTESIAN_POINT('Axis2P3D Location',(0.,18.6,0.)) ;
#70=CARTESIAN_POINT('Vertex',(4.17948599444,18.6,-2.28326360503)) ;
#73=CARTESIAN_POINT('Line Origine',(4.17948599444,23.6,-2.28326360503)) ;
#77=CARTESIAN_POINT('Vertex',(4.17948599444,16.,-2.28326360503)) ;
#80=CARTESIAN_POINT('Axis2P3D Location',(0.,16.,0.)) ;
#92=CARTESIAN_POINT('Axis2P3D Location',(0.,18.6,0.)) ;
#97=CARTESIAN_POINT('Axis2P3D Location',(0.,16.,0.)) ;
#109=CARTESIAN_POINT('Axis2P3D Location',(0.,19.26249891,0.)) ;
#114=CARTESIAN_POINT('Line Origine',(-3.88878724909,18.931249455,2.12445415665)) ;
#118=CARTESIAN_POINT('Vertex',(-3.59808850375,19.26249891,1.96564470828)) ;
#121=CARTESIAN_POINT('Axis2P3D Location',(0.,19.26249891,0.)) ;
#125=CARTESIAN_POINT('Vertex',(3.59808850375,19.26249891,-1.96564470828)) ;
#128=CARTESIAN_POINT('Line Origine',(3.88878724909,18.931249455,-2.12445415665)) ;
#140=CARTESIAN_POINT('Axis2P3D Location',(0.,19.26249891,0.)) ;
#152=CARTESIAN_POINT('Axis2P3D Location',(0.,22.93750109,0.)) ;
#157=CARTESIAN_POINT('Line Origine',(-3.88878724909,23.268750545,2.12445415665)) ;
#161=CARTESIAN_POINT('Vertex',(-3.59808850375,22.93750109,1.96564470828)) ;
#163=CARTESIAN_POINT('Vertex',(-4.17948599444,23.6,2.28326360503)) ;
#166=CARTESIAN_POINT('Axis2P3D Location',(0.,23.6,0.)) ;
#170=CARTESIAN_POINT('Vertex',(4.17948599444,23.6,-2.28326360503)) ;
#173=CARTESIAN_POINT('Line Origine',(3.88878724909,23.268750545,-2.12445415665)) ;
#177=CARTESIAN_POINT('Vertex',(3.59808850375,22.93750109,-1.96564470828)) ;
#180=CARTESIAN_POINT('Axis2P3D Location',(0.,22.93750109,0.)) ;
#192=CARTESIAN_POINT('Axis2P3D Location',(0.,23.6,0.)) ;
#197=CARTESIAN_POINT('Axis2P3D Location',(0.,22.93750109,0.)) ;
#209=CARTESIAN_POINT('Line Origine',(-4.17948599444,23.6,2.28326360503)) ;
#213=CARTESIAN_POINT('Vertex',(-4.17948599444,31.2,2.28326360503)) ;
#216=CARTESIAN_POINT('Axis2P3D Location',(0.,31.2,0.)) ;
#220=CARTESIAN_POINT('Vertex',(4.17948599444,31.2,-2.28326360503)) ;
#223=CARTESIAN_POINT('Line Origine',(4.17948599444,23.6,-2.28326360503)) ;
#235=CARTESIAN_POINT('Axis2P3D Location',(0.,31.2,0.)) ;
#247=CARTESIAN_POINT('Axis2P3D Location',(0.,32.2,0.)) ;
#252=CARTESIAN_POINT('Line Origine',(-3.74069471349,31.7,2.04355083573)) ;
#256=CARTESIAN_POINT('Vertex',(-3.30190343255,32.2,1.80383806642)) ;
#259=CARTESIAN_POINT('Axis2P3D Location',(0.,32.2,0.)) ;
#263=CARTESIAN_POINT('Vertex',(3.30190343255,32.2,-1.80383806642)) ;
#266=CARTESIAN_POINT('Line Origine',(3.74069471349,31.7,-2.04355083573)) ;
#278=CARTESIAN_POINT('Axis2P3D Location',(0.,32.2,0.)) ;
#290=CARTESIAN_POINT('Axis2P3D Location',(0.,13.5,0.)) ;
#295=CARTESIAN_POINT('Line Origine',(-3.29093460709,12.75,1.79784576977)) ;
#299=CARTESIAN_POINT('Vertex',(-2.63274768567,13.5,1.43827661581)) ;
#301=CARTESIAN_POINT('Vertex',(-3.94912152851,12.,2.15741492372)) ;
#304=CARTESIAN_POINT('Axis2P3D Location',(0.,12.,0.)) ;
#308=CARTESIAN_POINT('Vertex',(3.94912152851,12.,-2.15741492372)) ;
#311=CARTESIAN_POINT('Line Origine',(3.29093460709,12.75,-1.79784576977)) ;
#315=CARTESIAN_POINT('Vertex',(2.63274768567,13.5,-1.43827661581)) ;
#318=CARTESIAN_POINT('Axis2P3D Location',(0.,13.5,0.)) ;
#330=CARTESIAN_POINT('Axis2P3D Location',(0.,12.,0.)) ;
#335=CARTESIAN_POINT('Axis2P3D Location',(0.,13.5,0.)) ;
#347=CARTESIAN_POINT('Axis2P3D Location',(0.,16.1000000001,0.)) ;
#352=CARTESIAN_POINT('Line Origine',(-3.94912152851,6.,2.15741492372)) ;
#356=CARTESIAN_POINT('Vertex',(-3.94912152851,0.,2.15741492372)) ;
#359=CARTESIAN_POINT('Axis2P3D Location',(0.,0.,0.)) ;
#363=CARTESIAN_POINT('Vertex',(3.94912152851,0.,-2.15741492372)) ;
#366=CARTESIAN_POINT('Line Origine',(3.94912152851,6.,-2.15741492372)) ;
#378=CARTESIAN_POINT('Axis2P3D Location',(0.,0.,0.)) ;
#390=CARTESIAN_POINT('Axis2P3D Location',(3.76249891,32.2,0.)) ;
#399=CARTESIAN_POINT('Axis2P3D Location',(0.,32.2,0.)) ;
#403=CARTESIAN_POINT('Vertex',(2.63274768567,32.2,-1.43827661581)) ;
#405=CARTESIAN_POINT('Vertex',(-2.63274768567,32.2,1.43827661581)) ;
#408=CARTESIAN_POINT('Axis2P3D Location',(0.,32.2,0.)) ;
#418=CARTESIAN_POINT('Axis2P3D Location',(7.,16.,0.)) ;
#423=CARTESIAN_POINT('Axis2P3D Location',(0.,16.,0.)) ;
#427=CARTESIAN_POINT('Vertex',(6.5,16.,-2.59807621135)) ;
#429=CARTESIAN_POINT('Vertex',(6.14307793323,16.,-3.35597877023)) ;
#432=CARTESIAN_POINT('Axis2P3D Location',(0.,16.,0.)) ;
#436=CARTESIAN_POINT('Vertex',(-6.5,16.,-2.59807621135)) ;
#439=CARTESIAN_POINT('Line Origine',(-6.5,16.,0.)) ;
#443=CARTESIAN_POINT('Vertex',(-6.5,16.,2.59807621135)) ;
#446=CARTESIAN_POINT('Axis2P3D Location',(0.,16.,0.)) ;
#450=CARTESIAN_POINT('Vertex',(-6.14307793323,16.,3.35597877023)) ;
#453=CARTESIAN_POINT('Axis2P3D Location',(0.,16.,0.)) ;
#457=CARTESIAN_POINT('Vertex',(6.5,16.,2.59807621135)) ;
#460=CARTESIAN_POINT('Line Origine',(6.5,16.,0.)) ;
#478=CARTESIAN_POINT('Axis2P3D Location',(4.5,0.,0.)) ;
#483=CARTESIAN_POINT('Line Origine',(6.5,0.,0.)) ;
#487=CARTESIAN_POINT('Vertex',(6.5,0.,-2.59807621135)) ;
#489=CARTESIAN_POINT('Vertex',(6.5,0.,2.59807621135)) ;
#492=CARTESIAN_POINT('Axis2P3D Location',(0.,0.,0.)) ;
#496=CARTESIAN_POINT('Vertex',(-6.14307793323,0.,3.35597877023)) ;
#499=CARTESIAN_POINT('Axis2P3D Location',(0.,0.,0.)) ;
#503=CARTESIAN_POINT('Vertex',(-6.5,0.,2.59807621135)) ;
#506=CARTESIAN_POINT('Line Origine',(-6.5,0.,0.)) ;
#510=CARTESIAN_POINT('Vertex',(-6.5,0.,-2.59807621135)) ;
#513=CARTESIAN_POINT('Axis2P3D Location',(0.,0.,0.)) ;
#517=CARTESIAN_POINT('Vertex',(6.14307793323,0.,-3.35597877023)) ;
#520=CARTESIAN_POINT('Axis2P3D Location',(0.,0.,0.)) ;
#538=CARTESIAN_POINT('Axis2P3D Location',(0.,16.,0.)) ;
#543=CARTESIAN_POINT('Line Origine',(6.58186921418,15.5,-3.59569153953)) ;
#547=CARTESIAN_POINT('Vertex',(6.5,15.5932894724,-3.55096618398)) ;
#551=CARTESIAN_POINT('Control Point',(6.5,16.,-2.59807621135)) ;
#552=CARTESIAN_POINT('Control Point',(6.5,15.8812401283,-2.91805108299)) ;
#553=CARTESIAN_POINT('Control Point',(6.5,15.7443198267,-3.23594259391)) ;
#554=CARTESIAN_POINT('Control Point',(6.5,15.5932894724,-3.55096618398)) ;
#562=CARTESIAN_POINT('Axis2P3D Location',(0.,15.,0.)) ;
#566=CARTESIAN_POINT('Vertex',(-6.5,15.,4.66368952654)) ;
#568=CARTESIAN_POINT('Vertex',(6.5,15.,4.66368952654)) ;
#572=CARTESIAN_POINT('Control Point',(6.5,16.,2.59807621135)) ;
#573=CARTESIAN_POINT('Control Point',(6.5,15.7398070993,3.29911427059)) ;
#574=CARTESIAN_POINT('Control Point',(6.5,15.3929167037,3.98968804942)) ;
#575=CARTESIAN_POINT('Control Point',(6.5,15.,4.66368952654)) ;
#577=CARTESIAN_POINT('Line Origine',(-6.58186921418,15.5,3.59569153953)) ;
#581=CARTESIAN_POINT('Vertex',(-6.5,15.5932894724,3.55096618398)) ;
#585=CARTESIAN_POINT('Control Point',(-6.5,15.5932894724,3.55096618398)) ;
#586=CARTESIAN_POINT('Control Point',(-6.5,15.4134068945,3.92617059721)) ;
#587=CARTESIAN_POINT('Control Point',(-6.5,15.2135992043,4.29728571151)) ;
#588=CARTESIAN_POINT('Control Point',(-6.5,15.,4.66368952654)) ;
#599=CARTESIAN_POINT('Control Point',(-6.5,16.,2.59807621135)) ;
#600=CARTESIAN_POINT('Control Point',(-6.5,15.8812401283,2.91805108299)) ;
#601=CARTESIAN_POINT('Control Point',(-6.5,15.7443198267,3.23594259391)) ;
#602=CARTESIAN_POINT('Control Point',(-6.5,15.5932894724,3.55096618398)) ;
#610=CARTESIAN_POINT('Axis2P3D Location',(0.,15.,0.)) ;
#614=CARTESIAN_POINT('Vertex',(6.5,15.,-4.66368952654)) ;
#616=CARTESIAN_POINT('Vertex',(-6.5,15.,-4.66368952654)) ;
#620=CARTESIAN_POINT('Control Point',(-6.5,16.,-2.59807621135)) ;
#621=CARTESIAN_POINT('Control Point',(-6.5,15.7398070993,-3.29911427059)) ;
#622=CARTESIAN_POINT('Control Point',(-6.5,15.3929167037,-3.98968804942)) ;
#623=CARTESIAN_POINT('Control Point',(-6.5,15.,-4.66368952654)) ;
#626=CARTESIAN_POINT('Control Point',(6.5,15.5932894724,-3.55096618398)) ;
#627=CARTESIAN_POINT('Control Point',(6.5,15.4134068945,-3.92617059721)) ;
#628=CARTESIAN_POINT('Control Point',(6.5,15.2135992043,-4.29728571151)) ;
#629=CARTESIAN_POINT('Control Point',(6.5,15.,-4.66368952654)) ;
#639=CARTESIAN_POINT('Axis2P3D Location',(0.,16.1000000001,0.)) ;
#644=CARTESIAN_POINT('Line Origine',(-6.5,8.,4.66368952654)) ;
#648=CARTESIAN_POINT('Vertex',(-6.5,1.,4.66368952654)) ;
#651=CARTESIAN_POINT('Axis2P3D Location',(0.,1.,0.)) ;
#655=CARTESIAN_POINT('Vertex',(6.5,1.,4.66368952654)) ;
#658=CARTESIAN_POINT('Line Origine',(6.5,8.,4.66368952654)) ;
#670=CARTESIAN_POINT('Line Origine',(6.5,8.,-4.66368952654)) ;
#674=CARTESIAN_POINT('Vertex',(6.5,1.,-4.66368952654)) ;
#677=CARTESIAN_POINT('Axis2P3D Location',(0.,1.,0.)) ;
#681=CARTESIAN_POINT('Vertex',(-6.5,1.,-4.66368952654)) ;
#684=CARTESIAN_POINT('Line Origine',(-6.5,8.,-4.66368952654)) ;
#696=CARTESIAN_POINT('Axis2P3D Location',(0.,0.,0.)) ;
#702=CARTESIAN_POINT('Control Point',(-6.5,0.40671052761,3.55096618398)) ;
#703=CARTESIAN_POINT('Control Point',(-6.5,0.586593105506,3.92617059721)) ;
#704=CARTESIAN_POINT('Control Point',(-6.5,0.786400795665,4.29728571151)) ;
#705=CARTESIAN_POINT('Control Point',(-6.5,1.,4.66368952654)) ;
#706=CARTESIAN_POINT('Vertex',(-6.5,0.40671052761,3.55096618398)) ;
#709=CARTESIAN_POINT('Line Origine',(-6.58186921418,0.5,3.59569153953)) ;
#715=CARTESIAN_POINT('Control Point',(6.5,-3.33066907388E-016,2.59807621135)) ;
#716=CARTESIAN_POINT('Control Point',(6.5,0.260192900707,3.29911427059)) ;
#717=CARTESIAN_POINT('Control Point',(6.5,0.607083296284,3.98968804942)) ;
#718=CARTESIAN_POINT('Control Point',(6.5,1.,4.66368952654)) ;
#728=CARTESIAN_POINT('Line Origine',(6.58186921418,0.5,-3.59569153953)) ;
#732=CARTESIAN_POINT('Vertex',(6.5,0.40671052761,-3.55096618398)) ;
#736=CARTESIAN_POINT('Control Point',(6.5,-5.55111512313E-017,-2.59807621135)) ;
#737=CARTESIAN_POINT('Control Point',(6.5,0.118759871747,-2.91805108299)) ;
#738=CARTESIAN_POINT('Control Point',(6.5,0.255680173265,-3.23594259391)) ;
#739=CARTESIAN_POINT('Control Point',(6.5,0.40671052761,-3.55096618398)) ;
#748=CARTESIAN_POINT('Control Point',(6.5,0.40671052761,-3.55096618398)) ;
#749=CARTESIAN_POINT('Control Point',(6.5,0.586593105507,-3.92617059721)) ;
#750=CARTESIAN_POINT('Control Point',(6.5,0.786400795665,-4.29728571151)) ;
#751=CARTESIAN_POINT('Control Point',(6.5,1.,-4.66368952654)) ;
#754=CARTESIAN_POINT('Control Point',(-6.5,5.55111512313E-017,-2.59807621135)) ;
#755=CARTESIAN_POINT('Control Point',(-6.5,0.26019290071,-3.29911427059)) ;
#756=CARTESIAN_POINT('Control Point',(-6.5,0.60708329628,-3.98968804942)) ;
#757=CARTESIAN_POINT('Control Point',(-6.5,1.,-4.66368952654)) ;
#768=CARTESIAN_POINT('Control Point',(-6.5,5.55111512313E-017,2.59807621135)) ;
#769=CARTESIAN_POINT('Control Point',(-6.5,0.118759871746,2.91805108299)) ;
#770=CARTESIAN_POINT('Control Point',(-6.5,0.255680173266,3.23594259391)) ;
#771=CARTESIAN_POINT('Control Point',(-6.5,0.40671052761,3.55096618398)) ;
#779=CARTESIAN_POINT('Axis2P3D Location',(6.5,17.,10.)) ;
#797=CARTESIAN_POINT('Axis2P3D Location',(-6.5,17.,10.)) ;
#815=CARTESIAN_POINT('Axis2P3D Location',(0.,16.1000000001,0.)) ;
#820=CARTESIAN_POINT('Line Origine',(2.63274768567,22.85,-1.43827661581)) ;
#825=CARTESIAN_POINT('Line Origine',(-2.63274768567,22.85,1.43827661581)) ;
#837=CARTESIAN_POINT('Control Point',(3.,19.85,6.66133814775E-016)) ;
#838=CARTESIAN_POINT('Control Point',(3.,19.85,-0.242070117987)) ;
#839=CARTESIAN_POINT('Control Point',(2.97558419082,19.908597942,-0.484138578573)) ;
#840=CARTESIAN_POINT('Control Point',(2.92691479861,20.0250447078,-0.7021262149)) ;
#841=CARTESIAN_POINT('Control Point',(2.83250027339,20.2927049147,-1.00644200091)) ;
#842=CARTESIAN_POINT('Control Point',(2.75745415264,20.6544814247,-1.18462293215)) ;
#843=CARTESIAN_POINT('Control Point',(2.73493039913,20.8121917223,-1.23304461046)) ;
#844=CARTESIAN_POINT('Control Point',(2.71534163015,21.1395238032,-1.27587123338)) ;
#845=CARTESIAN_POINT('Control Point',(2.74418620621,21.4628273359,-1.21283904883)) ;
#846=CARTESIAN_POINT('Control Point',(2.7701713731,21.6158993308,-1.15543950103)) ;
#847=CARTESIAN_POINT('Control Point',(2.84752307877,21.9518460898,-0.964496375514)) ;
#848=CARTESIAN_POINT('Control Point',(2.93555789593,22.1955521185,-0.661735502851)) ;
#849=CARTESIAN_POINT('Control Point',(2.97852598111,22.2984623547,-0.454036625858)) ;
#850=CARTESIAN_POINT('Control Point',(3.,22.35,-0.227019041782)) ;
#851=CARTESIAN_POINT('Control Point',(3.,22.35,-4.55191440096E-015)) ;
#852=CARTESIAN_POINT('Vertex',(3.,19.85,1.53075794228E-016)) ;
#854=CARTESIAN_POINT('Vertex',(3.,22.35,0.)) ;
#858=CARTESIAN_POINT('Control Point',(3.,22.35,5.55111512313E-016)) ;
#859=CARTESIAN_POINT('Control Point',(3.,22.35,0.242070117998)) ;
#860=CARTESIAN_POINT('Control Point',(2.97558419082,22.291402058,0.484138578596)) ;
#861=CARTESIAN_POINT('Control Point',(2.92691479861,22.1749552922,0.702126214883)) ;
#862=CARTESIAN_POINT('Control Point',(2.8325002734,21.9072950853,1.0064420009)) ;
#863=CARTESIAN_POINT('Control Point',(2.75745415264,21.5455185753,1.18462293215)) ;
#864=CARTESIAN_POINT('Control Point',(2.73493039913,21.3878082777,1.23304461045)) ;
#865=CARTESIAN_POINT('Control Point',(2.71534163015,21.0604761968,1.27587123338)) ;
#866=CARTESIAN_POINT('Control Point',(2.74418620621,20.7371726641,1.21283904883)) ;
#867=CARTESIAN_POINT('Control Point',(2.7701713731,20.5841006692,1.15543950103)) ;
#868=CARTESIAN_POINT('Control Point',(2.84752307877,20.2481539102,0.964496375521)) ;
#869=CARTESIAN_POINT('Control Point',(2.93555789592,20.0044478816,0.661735502876)) ;
#870=CARTESIAN_POINT('Control Point',(2.97852598111,19.9015376453,0.454036625826)) ;
#871=CARTESIAN_POINT('Control Point',(3.,19.85,0.227019041765)) ;
#872=CARTESIAN_POINT('Control Point',(3.,19.85,-1.88737914186E-015)) ;
#886=CARTESIAN_POINT('Control Point',(-3.,22.35,-3.10862446895E-015)) ;
#887=CARTESIAN_POINT('Control Point',(-3.,22.35,0.242070117996)) ;
#888=CARTESIAN_POINT('Control Point',(-2.97558419082,22.291402058,0.484138578593)) ;
#889=CARTESIAN_POINT('Control Point',(-2.92691479861,22.1749552922,0.702126214885)) ;
#890=CARTESIAN_POINT('Control Point',(-2.83250027339,21.9072950853,1.0064420009)) ;
#891=CARTESIAN_POINT('Control Point',(-2.75745415264,21.5455185753,1.18462293215)) ;
#892=CARTESIAN_POINT('Control Point',(-2.73493039913,21.3878082777,1.23304461045)) ;
#893=CARTESIAN_POINT('Control Point',(-2.71534163015,21.0604761968,1.27587123338)) ;
#894=CARTESIAN_POINT('Control Point',(-2.74418620621,20.7371726641,1.21283904883)) ;
#895=CARTESIAN_POINT('Control Point',(-2.7701713731,20.5841006692,1.15543950103)) ;
#896=CARTESIAN_POINT('Control Point',(-2.84752307877,20.2481539102,0.964496375514)) ;
#897=CARTESIAN_POINT('Control Point',(-2.93555789593,20.0044478815,0.661735502851)) ;
#898=CARTESIAN_POINT('Control Point',(-2.97852598111,19.9015376453,0.454036625858)) ;
#899=CARTESIAN_POINT('Control Point',(-3.,19.85,0.227019041781)) ;
#900=CARTESIAN_POINT('Control Point',(-3.,19.85,-2.7307258281E-016)) ;
#901=CARTESIAN_POINT('Vertex',(-3.,22.35,0.)) ;
#903=CARTESIAN_POINT('Vertex',(-3.,19.85,1.53075794228E-016)) ;
#907=CARTESIAN_POINT('Control Point',(-3.,19.85,-4.4408920985E-016)) ;
#908=CARTESIAN_POINT('Control Point',(-3.,19.85,-0.242070117998)) ;
#909=CARTESIAN_POINT('Control Point',(-2.97558419082,19.908597942,-0.484138578596)) ;
#910=CARTESIAN_POINT('Control Point',(-2.92691479861,20.0250447078,-0.702126214882)) ;
#911=CARTESIAN_POINT('Control Point',(-2.83250027339,20.2927049147,-1.0064420009)) ;
#912=CARTESIAN_POINT('Control Point',(-2.75745415264,20.6544814247,-1.18462293215)) ;
#913=CARTESIAN_POINT('Control Point',(-2.73493039913,20.8121917223,-1.23304461045)) ;
#914=CARTESIAN_POINT('Control Point',(-2.71534163015,21.1395238032,-1.27587123338)) ;
#915=CARTESIAN_POINT('Control Point',(-2.74418620621,21.4628273359,-1.21283904883)) ;
#916=CARTESIAN_POINT('Control Point',(-2.7701713731,21.6158993308,-1.15543950103)) ;
#917=CARTESIAN_POINT('Control Point',(-2.84752307878,21.9518460898,-0.96449637551)) ;
#918=CARTESIAN_POINT('Control Point',(-2.93555789593,22.1955521185,-0.661735502844)) ;
#919=CARTESIAN_POINT('Control Point',(-2.97852598111,22.2984623547,-0.454036625867)) ;
#920=CARTESIAN_POINT('Control Point',(-3.,22.35,-0.227019041786)) ;
#921=CARTESIAN_POINT('Control Point',(-3.,22.35,-2.82038929513E-016)) ;
#928=CARTESIAN_POINT('Axis2P3D Location',(0.,16.1000000001,0.)) ;
#933=CARTESIAN_POINT('Line Origine',(3.59808850375,21.1,-1.96564470828)) ;
#938=CARTESIAN_POINT('Line Origine',(-3.59808850375,21.1,1.96564470828)) ;
#950=CARTESIAN_POINT('Control Point',(4.1,22.35,1.11022302463E-015)) ;
#951=CARTESIAN_POINT('Control Point',(4.1,22.35,0.321936413405)) ;
#952=CARTESIAN_POINT('Control Point',(4.06840150784,22.2463569458,0.643869895342)) ;
#953=CARTESIAN_POINT('Control Point',(4.00459874372,22.0421921743,0.914659946544)) ;
#954=CARTESIAN_POINT('Control Point',(3.9231538738,21.6351115594,1.19583474698)) ;
#955=CARTESIAN_POINT('Control Point',(3.90052345838,21.1583418727,1.263076812)) ;
#956=CARTESIAN_POINT('Control Point',(3.9013710966,21.0016624407,1.26057774415)) ;
#957=CARTESIAN_POINT('Control Point',(3.92830605694,20.5354329187,1.17969326726)) ;
#958=CARTESIAN_POINT('Control Point',(4.00929708435,20.1431741607,0.89452770589)) ;
#959=CARTESIAN_POINT('Control Point',(4.06993601023,19.9486098864,0.628041433692)) ;
#960=CARTESIAN_POINT('Control Point',(4.1,19.85,0.3140221114)) ;
#961=CARTESIAN_POINT('Control Point',(4.1,19.85,-2.63339991724E-015)) ;
#962=CARTESIAN_POINT('Vertex',(4.1,22.35,0.)) ;
#964=CARTESIAN_POINT('Vertex',(4.1,19.85,1.53075794228E-016)) ;
#968=CARTESIAN_POINT('Control Point',(4.1,19.85,1.11022302463E-015)) ;
#969=CARTESIAN_POINT('Control Point',(4.1,19.85,-0.321936413414)) ;
#970=CARTESIAN_POINT('Control Point',(4.06840150784,19.9536430542,-0.643869895359)) ;
#971=CARTESIAN_POINT('Control Point',(4.00459874372,20.1578078257,-0.914659946535)) ;
#972=CARTESIAN_POINT('Control Point',(3.92315387379,20.5648884406,-1.19583474699)) ;
#973=CARTESIAN_POINT('Control Point',(3.90052345837,21.0416581273,-1.26307681201)) ;
#974=CARTESIAN_POINT('Control Point',(3.9013710966,21.1983375592,-1.26057774416)) ;
#975=CARTESIAN_POINT('Control Point',(3.92830605693,21.6645670813,-1.17969326728)) ;
#976=CARTESIAN_POINT('Control Point',(4.00929708435,22.0568258393,-0.894527705888)) ;
#977=CARTESIAN_POINT('Control Point',(4.06993601023,22.2513901136,-0.628041433694)) ;
#978=CARTESIAN_POINT('Control Point',(4.1,22.35,-0.314022111401)) ;
#979=CARTESIAN_POINT('Control Point',(4.1,22.35,-2.80669290343E-015)) ;
#993=CARTESIAN_POINT('Control Point',(-4.1,19.85,1.33226762955E-015)) ;
#994=CARTESIAN_POINT('Control Point',(-4.1,19.85,-0.3219364134)) ;
#995=CARTESIAN_POINT('Control Point',(-4.06840150784,19.9536430542,-0.643869895331)) ;
#996=CARTESIAN_POINT('Control Point',(-4.00459874372,20.1578078257,-0.914659946551)) ;
#997=CARTESIAN_POINT('Control Point',(-3.9231538738,20.5648884406,-1.19583474698)) ;
#998=CARTESIAN_POINT('Control Point',(-3.90052345838,21.0416581272,-1.263076812)) ;
#999=CARTESIAN_POINT('Control Point',(-3.9013710966,21.1983375593,-1.26057774415)) ;
#1000=CARTESIAN_POINT('Control Point',(-3.92830605694,21.6645670813,-1.17969326726)) ;
#1001=CARTESIAN_POINT('Control Point',(-4.00929708435,22.0568258393,-0.894527705898)) ;
#1002=CARTESIAN_POINT('Control Point',(-4.06993601023,22.2513901136,-0.628041433677)) ;
#1003=CARTESIAN_POINT('Control Point',(-4.1,22.35,-0.314022111393)) ;
#1004=CARTESIAN_POINT('Control Point',(-4.1,22.35,1.33226762955E-015)) ;
#1005=CARTESIAN_POINT('Vertex',(-4.1,19.85,1.53075794228E-016)) ;
#1007=CARTESIAN_POINT('Vertex',(-4.1,22.35,0.)) ;
#1011=CARTESIAN_POINT('Control Point',(-4.1,22.35,1.44328993201E-015)) ;
#1012=CARTESIAN_POINT('Control Point',(-4.1,22.35,0.321936413423)) ;
#1013=CARTESIAN_POINT('Control Point',(-4.06840150784,22.2463569458,0.643869895378)) ;
#1014=CARTESIAN_POINT('Control Point',(-4.00459874373,22.0421921743,0.914659946523)) ;
#1015=CARTESIAN_POINT('Control Point',(-3.9231538738,21.6351115594,1.19583474698)) ;
#1016=CARTESIAN_POINT('Control Point',(-3.90052345838,21.1583418727,1.263076812)) ;
#1017=CARTESIAN_POINT('Control Point',(-3.9013710966,21.0016624407,1.26057774415)) ;
#1018=CARTESIAN_POINT('Control Point',(-3.92830605694,20.5354329187,1.17969326726)) ;
#1019=CARTESIAN_POINT('Control Point',(-4.00929708435,20.1431741607,0.894527705888)) ;
#1020=CARTESIAN_POINT('Control Point',(-4.06993601023,19.9486098864,0.628041433694)) ;
#1021=CARTESIAN_POINT('Control Point',(-4.1,19.85,0.314022111401)) ;
#1022=CARTESIAN_POINT('Control Point',(-4.1,19.85,3.02873750835E-015)) ;
#1029=CARTESIAN_POINT('Axis2P3D Location',(0.,21.1,0.)) ;
#1034=CARTESIAN_POINT('Line Origine',(0.,19.85,1.53075794228E-016)) ;
#1039=CARTESIAN_POINT('Line Origine',(0.,22.35,-3.06151588456E-016)) ;
#1058=CARTESIAN_POINT('Line Origine',(0.,22.35,-3.06151588456E-016)) ;
#1063=CARTESIAN_POINT('Line Origine',(0.,19.85,1.53075794228E-016)) ;
#53=DIRECTION('Axis2P3D Direction',(0.,1.,0.)) ;
#54=DIRECTION('Axis2P3D XDirection',(0.87758256189,0.,-0.479425538604)) ;
#58=DIRECTION('Vector Direction',(0.,1.,0.)) ;
#67=DIRECTION('Axis2P3D Direction',(0.,1.,0.)) ;
#74=DIRECTION('Vector Direction',(0.,1.,0.)) ;
#81=DIRECTION('Axis2P3D Direction',(0.,1.,0.)) ;
#93=DIRECTION('Axis2P3D Direction',(0.,1.,0.)) ;
#98=DIRECTION('Axis2P3D Direction',(0.,1.,0.)) ;
#110=DIRECTION('Axis2P3D Direction',(-0.,-1.,-0.)) ;
#111=DIRECTION('Axis2P3D XDirection',(0.87758256189,0.,-0.479425538604)) ;
#115=DIRECTION('Vector Direction',(-0.620544580564,-0.707106781187,0.339005049421)) ;
#122=DIRECTION('Axis2P3D Direction',(0.,-1.,-0.)) ;
#129=DIRECTION('Vector Direction',(0.620544580564,-0.707106781187,-0.339005049421)) ;
#141=DIRECTION('Axis2P3D Direction',(0.,-1.,-0.)) ;
#153=DIRECTION('Axis2P3D Direction',(0.,1.,0.)) ;
#154=DIRECTION('Axis2P3D XDirection',(0.87758256189,0.,-0.479425538604)) ;
#158=DIRECTION('Vector Direction',(-0.620544580564,0.707106781187,0.339005049421)) ;
#167=DIRECTION('Axis2P3D Direction',(0.,1.,0.)) ;
#174=DIRECTION('Vector Direction',(0.620544580564,0.707106781187,-0.339005049421)) ;
#181=DIRECTION('Axis2P3D Direction',(0.,1.,0.)) ;
#193=DIRECTION('Axis2P3D Direction',(0.,1.,0.)) ;
#198=DIRECTION('Axis2P3D Direction',(0.,1.,0.)) ;
#210=DIRECTION('Vector Direction',(0.,1.,0.)) ;
#217=DIRECTION('Axis2P3D Direction',(0.,1.,0.)) ;
#224=DIRECTION('Vector Direction',(0.,1.,0.)) ;
#236=DIRECTION('Axis2P3D Direction',(0.,1.,0.)) ;
#248=DIRECTION('Axis2P3D Direction',(-0.,-1.,-0.)) ;
#249=DIRECTION('Axis2P3D XDirection',(0.87758256189,0.,-0.479425538604)) ;
#253=DIRECTION('Vector Direction',(-0.620544580564,-0.707106781187,0.339005049421)) ;
#260=DIRECTION('Axis2P3D Direction',(0.,-1.,-0.)) ;
#267=DIRECTION('Vector Direction',(0.620544580564,-0.707106781187,-0.339005049421)) ;
#279=DIRECTION('Axis2P3D Direction',(0.,-1.,-0.)) ;
#291=DIRECTION('Axis2P3D Direction',(-0.,-1.,-0.)) ;
#292=DIRECTION('Axis2P3D XDirection',(0.87758256189,0.,-0.479425538604)) ;
#296=DIRECTION('Vector Direction',(-0.620544580564,-0.707106781187,0.339005049421)) ;
#305=DIRECTION('Axis2P3D Direction',(0.,-1.,-0.)) ;
#312=DIRECTION('Vector Direction',(0.620544580564,-0.707106781187,-0.339005049421)) ;
#319=DIRECTION('Axis2P3D Direction',(0.,-1.,-0.)) ;
#331=DIRECTION('Axis2P3D Direction',(0.,-1.,-0.)) ;
#336=DIRECTION('Axis2P3D Direction',(0.,-1.,-0.)) ;
#348=DIRECTION('Axis2P3D Direction',(0.,1.,0.)) ;
#349=DIRECTION('Axis2P3D XDirection',(0.87758256189,0.,-0.479425538604)) ;
#353=DIRECTION('Vector Direction',(0.,1.,0.)) ;
#360=DIRECTION('Axis2P3D Direction',(0.,1.,0.)) ;
#367=DIRECTION('Vector Direction',(0.,1.,0.)) ;
#379=DIRECTION('Axis2P3D Direction',(0.,1.,0.)) ;
#391=DIRECTION('Axis2P3D Direction',(0.,1.,0.)) ;
#392=DIRECTION('Axis2P3D XDirection',(1.,-0.,0.)) ;
#400=DIRECTION('Axis2P3D Direction',(0.,1.,0.)) ;
#409=DIRECTION('Axis2P3D Direction',(0.,1.,0.)) ;
#419=DIRECTION('Axis2P3D Direction',(0.,1.,0.)) ;
#420=DIRECTION('Axis2P3D XDirection',(1.,-0.,0.)) ;
#424=DIRECTION('Axis2P3D Direction',(0.,1.,0.)) ;
#433=DIRECTION('Axis2P3D Direction',(0.,1.,0.)) ;
#440=DIRECTION('Vector Direction',(0.,0.,1.)) ;
#447=DIRECTION('Axis2P3D Direction',(0.,1.,0.)) ;
#454=DIRECTION('Axis2P3D Direction',(0.,1.,0.)) ;
#461=DIRECTION('Vector Direction',(0.,0.,1.)) ;
#479=DIRECTION('Axis2P3D Direction',(0.,1.,0.)) ;
#480=DIRECTION('Axis2P3D XDirection',(1.,-0.,0.)) ;
#484=DIRECTION('Vector Direction',(0.,0.,1.)) ;
#493=DIRECTION('Axis2P3D Direction',(0.,1.,0.)) ;
#500=DIRECTION('Axis2P3D Direction',(0.,1.,0.)) ;
#507=DIRECTION('Vector Direction',(0.,0.,1.)) ;
#514=DIRECTION('Axis2P3D Direction',(0.,1.,0.)) ;
#521=DIRECTION('Axis2P3D Direction',(0.,1.,0.)) ;
#539=DIRECTION('Axis2P3D Direction',(-0.,-1.,-0.)) ;
#540=DIRECTION('Axis2P3D XDirection',(0.87758256189,0.,-0.479425538604)) ;
#544=DIRECTION('Vector Direction',(0.620544580564,-0.707106781187,-0.339005049421)) ;
#563=DIRECTION('Axis2P3D Direction',(0.,-1.,-0.)) ;
#578=DIRECTION('Vector Direction',(-0.620544580564,-0.707106781187,0.339005049421)) ;
#611=DIRECTION('Axis2P3D Direction',(0.,-1.,-0.)) ;
#640=DIRECTION('Axis2P3D Direction',(0.,1.,0.)) ;
#641=DIRECTION('Axis2P3D XDirection',(0.87758256189,0.,-0.479425538604)) ;
#645=DIRECTION('Vector Direction',(0.,1.,0.)) ;
#652=DIRECTION('Axis2P3D Direction',(0.,1.,0.)) ;
#659=DIRECTION('Vector Direction',(0.,1.,0.)) ;
#671=DIRECTION('Vector Direction',(0.,1.,0.)) ;
#678=DIRECTION('Axis2P3D Direction',(0.,1.,0.)) ;
#685=DIRECTION('Vector Direction',(0.,1.,0.)) ;
#697=DIRECTION('Axis2P3D Direction',(0.,1.,0.)) ;
#698=DIRECTION('Axis2P3D XDirection',(0.87758256189,0.,-0.479425538604)) ;
#710=DIRECTION('Vector Direction',(-0.620544580564,0.707106781187,0.339005049421)) ;
#729=DIRECTION('Vector Direction',(0.620544580564,0.707106781187,-0.339005049421)) ;
#780=DIRECTION('Axis2P3D Direction',(1.,0.,0.)) ;
#781=DIRECTION('Axis2P3D XDirection',(0.,-1.,0.)) ;
#798=DIRECTION('Axis2P3D Direction',(1.,0.,0.)) ;
#799=DIRECTION('Axis2P3D XDirection',(0.,-1.,0.)) ;
#816=DIRECTION('Axis2P3D Direction',(0.,1.,0.)) ;
#817=DIRECTION('Axis2P3D XDirection',(0.87758256189,0.,-0.479425538604)) ;
#821=DIRECTION('Vector Direction',(0.,1.,0.)) ;
#826=DIRECTION('Vector Direction',(0.,1.,0.)) ;
#929=DIRECTION('Axis2P3D Direction',(0.,1.,0.)) ;
#930=DIRECTION('Axis2P3D XDirection',(0.87758256189,0.,-0.479425538604)) ;
#934=DIRECTION('Vector Direction',(0.,1.,0.)) ;
#939=DIRECTION('Vector Direction',(0.,1.,0.)) ;
#1030=DIRECTION('Axis2P3D Direction',(1.,0.,0.)) ;
#1031=DIRECTION('Axis2P3D XDirection',(0.,1.,0.)) ;
#1035=DIRECTION('Vector Direction',(1.,0.,0.)) ;
#1040=DIRECTION('Vector Direction',(1.,0.,0.)) ;
#1059=DIRECTION('Vector Direction',(1.,0.,0.)) ;
#1064=DIRECTION('Vector Direction',(1.,0.,0.)) ;
#48=AXIS2_PLACEMENT_3D(' ',#47,$,$) ;
#55=AXIS2_PLACEMENT_3D('Cylinder Axis2P3D',#52,#53,#54) ;
#68=AXIS2_PLACEMENT_3D('Circle Axis2P3D',#66,#67,$) ;
#82=AXIS2_PLACEMENT_3D('Circle Axis2P3D',#80,#81,$) ;
#94=AXIS2_PLACEMENT_3D('Circle Axis2P3D',#92,#93,$) ;
#99=AXIS2_PLACEMENT_3D('Circle Axis2P3D',#97,#98,$) ;
#112=AXIS2_PLACEMENT_3D('Cone Axis2P3D',#109,#110,#111) ;
#123=AXIS2_PLACEMENT_3D('Circle Axis2P3D',#121,#122,$) ;
#142=AXIS2_PLACEMENT_3D('Circle Axis2P3D',#140,#141,$) ;
#155=AXIS2_PLACEMENT_3D('Cone Axis2P3D',#152,#153,#154) ;
#168=AXIS2_PLACEMENT_3D('Circle Axis2P3D',#166,#167,$) ;
#182=AXIS2_PLACEMENT_3D('Circle Axis2P3D',#180,#181,$) ;
#194=AXIS2_PLACEMENT_3D('Circle Axis2P3D',#192,#193,$) ;
#199=AXIS2_PLACEMENT_3D('Circle Axis2P3D',#197,#198,$) ;
#218=AXIS2_PLACEMENT_3D('Circle Axis2P3D',#216,#217,$) ;
#237=AXIS2_PLACEMENT_3D('Circle Axis2P3D',#235,#236,$) ;
#250=AXIS2_PLACEMENT_3D('Cone Axis2P3D',#247,#248,#249) ;
#261=AXIS2_PLACEMENT_3D('Circle Axis2P3D',#259,#260,$) ;
#280=AXIS2_PLACEMENT_3D('Circle Axis2P3D',#278,#279,$) ;
#293=AXIS2_PLACEMENT_3D('Cone Axis2P3D',#290,#291,#292) ;
#306=AXIS2_PLACEMENT_3D('Circle Axis2P3D',#304,#305,$) ;
#320=AXIS2_PLACEMENT_3D('Circle Axis2P3D',#318,#319,$) ;
#332=AXIS2_PLACEMENT_3D('Circle Axis2P3D',#330,#331,$) ;
#337=AXIS2_PLACEMENT_3D('Circle Axis2P3D',#335,#336,$) ;
#350=AXIS2_PLACEMENT_3D('Cylinder Axis2P3D',#347,#348,#349) ;
#361=AXIS2_PLACEMENT_3D('Circle Axis2P3D',#359,#360,$) ;
#380=AXIS2_PLACEMENT_3D('Circle Axis2P3D',#378,#379,$) ;
#393=AXIS2_PLACEMENT_3D('Plane Axis2P3D',#390,#391,#392) ;
#401=AXIS2_PLACEMENT_3D('Circle Axis2P3D',#399,#400,$) ;
#410=AXIS2_PLACEMENT_3D('Circle Axis2P3D',#408,#409,$) ;
#421=AXIS2_PLACEMENT_3D('Plane Axis2P3D',#418,#419,#420) ;
#425=AXIS2_PLACEMENT_3D('Circle Axis2P3D',#423,#424,$) ;
#434=AXIS2_PLACEMENT_3D('Circle Axis2P3D',#432,#433,$) ;
#448=AXIS2_PLACEMENT_3D('Circle Axis2P3D',#446,#447,$) ;
#455=AXIS2_PLACEMENT_3D('Circle Axis2P3D',#453,#454,$) ;
#481=AXIS2_PLACEMENT_3D('Plane Axis2P3D',#478,#479,#480) ;
#494=AXIS2_PLACEMENT_3D('Circle Axis2P3D',#492,#493,$) ;
#501=AXIS2_PLACEMENT_3D('Circle Axis2P3D',#499,#500,$) ;
#515=AXIS2_PLACEMENT_3D('Circle Axis2P3D',#513,#514,$) ;
#522=AXIS2_PLACEMENT_3D('Circle Axis2P3D',#520,#521,$) ;
#541=AXIS2_PLACEMENT_3D('Cone Axis2P3D',#538,#539,#540) ;
#564=AXIS2_PLACEMENT_3D('Circle Axis2P3D',#562,#563,$) ;
#612=AXIS2_PLACEMENT_3D('Circle Axis2P3D',#610,#611,$) ;
#642=AXIS2_PLACEMENT_3D('Cylinder Axis2P3D',#639,#640,#641) ;
#653=AXIS2_PLACEMENT_3D('Circle Axis2P3D',#651,#652,$) ;
#679=AXIS2_PLACEMENT_3D('Circle Axis2P3D',#677,#678,$) ;
#699=AXIS2_PLACEMENT_3D('Cone Axis2P3D',#696,#697,#698) ;
#782=AXIS2_PLACEMENT_3D('Plane Axis2P3D',#779,#780,#781) ;
#800=AXIS2_PLACEMENT_3D('Plane Axis2P3D',#797,#798,#799) ;
#818=AXIS2_PLACEMENT_3D('Cylinder Axis2P3D',#815,#816,#817) ;
#931=AXIS2_PLACEMENT_3D('Cylinder Axis2P3D',#928,#929,#930) ;
#1032=AXIS2_PLACEMENT_3D('Cylinder Axis2P3D',#1029,#1030,#1031) ;
#40=PRODUCT_DEFINITION_SHAPE(' ',' ',#14) ;
#31=APPROVAL_PERSON_ORGANIZATION(#25,#21,#19) ;
#25=PERSON_AND_ORGANIZATION(#22,#23) ;
#22=PERSON(' ',' ',' ',$,$,$) ;
#23=ORGANIZATION(' ',' ',' ') ;
#21=APPROVAL(#20,' ') ;
#20=APPROVAL_STATUS('not_yet_approved') ;
#19=APPROVAL_ROLE('APPROVER') ;
#13=DATE_AND_TIME(#11,#12) ;
#12=LOCAL_TIME(16,41,44.,#10) ;
#10=COORDINATED_UNIVERSAL_TIME_OFFSET(0,0,.AHEAD.) ;
#86=ORIENTED_EDGE('',*,*,#65,.T.) ;
#87=ORIENTED_EDGE('',*,*,#72,.F.) ;
#88=ORIENTED_EDGE('',*,*,#79,.F.) ;
#89=ORIENTED_EDGE('',*,*,#84,.T.) ;
#103=ORIENTED_EDGE('',*,*,#79,.T.) ;
#104=ORIENTED_EDGE('',*,*,#96,.F.) ;
#105=ORIENTED_EDGE('',*,*,#65,.F.) ;
#106=ORIENTED_EDGE('',*,*,#101,.T.) ;
#134=ORIENTED_EDGE('',*,*,#120,.T.) ;
#135=ORIENTED_EDGE('',*,*,#127,.F.) ;
#136=ORIENTED_EDGE('',*,*,#132,.F.) ;
#137=ORIENTED_EDGE('',*,*,#72,.T.) ;
#146=ORIENTED_EDGE('',*,*,#132,.T.) ;
#147=ORIENTED_EDGE('',*,*,#144,.F.) ;
#148=ORIENTED_EDGE('',*,*,#120,.F.) ;
#149=ORIENTED_EDGE('',*,*,#96,.T.) ;
#186=ORIENTED_EDGE('',*,*,#165,.T.) ;
#187=ORIENTED_EDGE('',*,*,#172,.F.) ;
#188=ORIENTED_EDGE('',*,*,#179,.F.) ;
#189=ORIENTED_EDGE('',*,*,#184,.T.) ;
#203=ORIENTED_EDGE('',*,*,#179,.T.) ;
#204=ORIENTED_EDGE('',*,*,#196,.F.) ;
#205=ORIENTED_EDGE('',*,*,#165,.F.) ;
#206=ORIENTED_EDGE('',*,*,#201,.T.) ;
#229=ORIENTED_EDGE('',*,*,#215,.T.) ;
#230=ORIENTED_EDGE('',*,*,#222,.F.) ;
#231=ORIENTED_EDGE('',*,*,#227,.F.) ;
#232=ORIENTED_EDGE('',*,*,#172,.T.) ;
#241=ORIENTED_EDGE('',*,*,#227,.T.) ;
#242=ORIENTED_EDGE('',*,*,#239,.F.) ;
#243=ORIENTED_EDGE('',*,*,#215,.F.) ;
#244=ORIENTED_EDGE('',*,*,#196,.T.) ;
#272=ORIENTED_EDGE('',*,*,#258,.T.) ;
#273=ORIENTED_EDGE('',*,*,#265,.F.) ;
#274=ORIENTED_EDGE('',*,*,#270,.F.) ;
#275=ORIENTED_EDGE('',*,*,#222,.T.) ;
#284=ORIENTED_EDGE('',*,*,#270,.T.) ;
#285=ORIENTED_EDGE('',*,*,#282,.F.) ;
#286=ORIENTED_EDGE('',*,*,#258,.F.) ;
#287=ORIENTED_EDGE('',*,*,#239,.T.) ;
#324=ORIENTED_EDGE('',*,*,#303,.T.) ;
#325=ORIENTED_EDGE('',*,*,#310,.F.) ;
#326=ORIENTED_EDGE('',*,*,#317,.F.) ;
#327=ORIENTED_EDGE('',*,*,#322,.T.) ;
#341=ORIENTED_EDGE('',*,*,#317,.T.) ;
#342=ORIENTED_EDGE('',*,*,#334,.F.) ;
#343=ORIENTED_EDGE('',*,*,#303,.F.) ;
#344=ORIENTED_EDGE('',*,*,#339,.T.) ;
#372=ORIENTED_EDGE('',*,*,#358,.T.) ;
#373=ORIENTED_EDGE('',*,*,#365,.F.) ;
#374=ORIENTED_EDGE('',*,*,#370,.F.) ;
#375=ORIENTED_EDGE('',*,*,#310,.T.) ;
#384=ORIENTED_EDGE('',*,*,#370,.T.) ;
#385=ORIENTED_EDGE('',*,*,#382,.F.) ;
#386=ORIENTED_EDGE('',*,*,#358,.F.) ;
#387=ORIENTED_EDGE('',*,*,#334,.T.) ;
#396=ORIENTED_EDGE('',*,*,#282,.T.) ;
#397=ORIENTED_EDGE('',*,*,#265,.T.) ;
#414=ORIENTED_EDGE('',*,*,#407,.F.) ;
#415=ORIENTED_EDGE('',*,*,#412,.F.) ;
#466=ORIENTED_EDGE('',*,*,#431,.T.) ;
#467=ORIENTED_EDGE('',*,*,#438,.T.) ;
#468=ORIENTED_EDGE('',*,*,#445,.T.) ;
#469=ORIENTED_EDGE('',*,*,#452,.T.) ;
#470=ORIENTED_EDGE('',*,*,#459,.T.) ;
#471=ORIENTED_EDGE('',*,*,#464,.F.) ;
#474=ORIENTED_EDGE('',*,*,#84,.F.) ;
#475=ORIENTED_EDGE('',*,*,#101,.F.) ;
#526=ORIENTED_EDGE('',*,*,#491,.T.) ;
#527=ORIENTED_EDGE('',*,*,#498,.F.) ;
#528=ORIENTED_EDGE('',*,*,#505,.F.) ;
#529=ORIENTED_EDGE('',*,*,#512,.F.) ;
#530=ORIENTED_EDGE('',*,*,#519,.F.) ;
#531=ORIENTED_EDGE('',*,*,#524,.F.) ;
#534=ORIENTED_EDGE('',*,*,#382,.T.) ;
#535=ORIENTED_EDGE('',*,*,#365,.T.) ;
#557=ORIENTED_EDGE('',*,*,#549,.T.) ;
#558=ORIENTED_EDGE('',*,*,#431,.F.) ;
#559=ORIENTED_EDGE('',*,*,#555,.T.) ;
#591=ORIENTED_EDGE('',*,*,#570,.T.) ;
#592=ORIENTED_EDGE('',*,*,#576,.F.) ;
#593=ORIENTED_EDGE('',*,*,#459,.F.) ;
#594=ORIENTED_EDGE('',*,*,#583,.F.) ;
#595=ORIENTED_EDGE('',*,*,#589,.T.) ;
#605=ORIENTED_EDGE('',*,*,#583,.T.) ;
#606=ORIENTED_EDGE('',*,*,#452,.F.) ;
#607=ORIENTED_EDGE('',*,*,#603,.T.) ;
#632=ORIENTED_EDGE('',*,*,#618,.T.) ;
#633=ORIENTED_EDGE('',*,*,#624,.F.) ;
#634=ORIENTED_EDGE('',*,*,#438,.F.) ;
#635=ORIENTED_EDGE('',*,*,#549,.F.) ;
#636=ORIENTED_EDGE('',*,*,#630,.T.) ;
#664=ORIENTED_EDGE('',*,*,#650,.F.) ;
#665=ORIENTED_EDGE('',*,*,#657,.T.) ;
#666=ORIENTED_EDGE('',*,*,#662,.T.) ;
#667=ORIENTED_EDGE('',*,*,#570,.F.) ;
#690=ORIENTED_EDGE('',*,*,#676,.F.) ;
#691=ORIENTED_EDGE('',*,*,#683,.T.) ;
#692=ORIENTED_EDGE('',*,*,#688,.T.) ;
#693=ORIENTED_EDGE('',*,*,#618,.F.) ;
#721=ORIENTED_EDGE('',*,*,#657,.F.) ;
#722=ORIENTED_EDGE('',*,*,#708,.F.) ;
#723=ORIENTED_EDGE('',*,*,#713,.F.) ;
#724=ORIENTED_EDGE('',*,*,#498,.T.) ;
#725=ORIENTED_EDGE('',*,*,#719,.T.) ;
#742=ORIENTED_EDGE('',*,*,#524,.T.) ;
#743=ORIENTED_EDGE('',*,*,#734,.T.) ;
#744=ORIENTED_EDGE('',*,*,#740,.F.) ;
#760=ORIENTED_EDGE('',*,*,#683,.F.) ;
#761=ORIENTED_EDGE('',*,*,#752,.F.) ;
#762=ORIENTED_EDGE('',*,*,#734,.F.) ;
#763=ORIENTED_EDGE('',*,*,#519,.T.) ;
#764=ORIENTED_EDGE('',*,*,#758,.T.) ;
#774=ORIENTED_EDGE('',*,*,#505,.T.) ;
#775=ORIENTED_EDGE('',*,*,#713,.T.) ;
#776=ORIENTED_EDGE('',*,*,#772,.F.) ;
#785=ORIENTED_EDGE('',*,*,#576,.T.) ;
#786=ORIENTED_EDGE('',*,*,#662,.F.) ;
#787=ORIENTED_EDGE('',*,*,#719,.F.) ;
#788=ORIENTED_EDGE('',*,*,#491,.F.) ;
#789=ORIENTED_EDGE('',*,*,#740,.T.) ;
#790=ORIENTED_EDGE('',*,*,#752,.T.) ;
#791=ORIENTED_EDGE('',*,*,#676,.T.) ;
#792=ORIENTED_EDGE('',*,*,#630,.F.) ;
#793=ORIENTED_EDGE('',*,*,#555,.F.) ;
#794=ORIENTED_EDGE('',*,*,#464,.T.) ;
#803=ORIENTED_EDGE('',*,*,#624,.T.) ;
#804=ORIENTED_EDGE('',*,*,#688,.F.) ;
#805=ORIENTED_EDGE('',*,*,#758,.F.) ;
#806=ORIENTED_EDGE('',*,*,#512,.T.) ;
#807=ORIENTED_EDGE('',*,*,#772,.T.) ;
#808=ORIENTED_EDGE('',*,*,#708,.T.) ;
#809=ORIENTED_EDGE('',*,*,#650,.T.) ;
#810=ORIENTED_EDGE('',*,*,#589,.F.) ;
#811=ORIENTED_EDGE('',*,*,#603,.F.) ;
#812=ORIENTED_EDGE('',*,*,#445,.F.) ;
#831=ORIENTED_EDGE('',*,*,#824,.T.) ;
#832=ORIENTED_EDGE('',*,*,#339,.F.) ;
#833=ORIENTED_EDGE('',*,*,#829,.F.) ;
#834=ORIENTED_EDGE('',*,*,#412,.T.) ;
#875=ORIENTED_EDGE('',*,*,#856,.T.) ;
#876=ORIENTED_EDGE('',*,*,#873,.T.) ;
#880=ORIENTED_EDGE('',*,*,#829,.T.) ;
#881=ORIENTED_EDGE('',*,*,#322,.F.) ;
#882=ORIENTED_EDGE('',*,*,#824,.F.) ;
#883=ORIENTED_EDGE('',*,*,#407,.T.) ;
#924=ORIENTED_EDGE('',*,*,#905,.F.) ;
#925=ORIENTED_EDGE('',*,*,#922,.F.) ;
#944=ORIENTED_EDGE('',*,*,#937,.T.) ;
#945=ORIENTED_EDGE('',*,*,#201,.F.) ;
#946=ORIENTED_EDGE('',*,*,#942,.F.) ;
#947=ORIENTED_EDGE('',*,*,#144,.T.) ;
#982=ORIENTED_EDGE('',*,*,#966,.F.) ;
#983=ORIENTED_EDGE('',*,*,#980,.F.) ;
#987=ORIENTED_EDGE('',*,*,#942,.T.) ;
#988=ORIENTED_EDGE('',*,*,#184,.F.) ;
#989=ORIENTED_EDGE('',*,*,#937,.F.) ;
#990=ORIENTED_EDGE('',*,*,#127,.T.) ;
#1025=ORIENTED_EDGE('',*,*,#1009,.T.) ;
#1026=ORIENTED_EDGE('',*,*,#1023,.T.) ;
#1045=ORIENTED_EDGE('',*,*,#1038,.F.) ;
#1046=ORIENTED_EDGE('',*,*,#980,.T.) ;
#1047=ORIENTED_EDGE('',*,*,#1043,.T.) ;
#1048=ORIENTED_EDGE('',*,*,#856,.F.) ;
#1052=ORIENTED_EDGE('',*,*,#1043,.F.) ;
#1053=ORIENTED_EDGE('',*,*,#966,.T.) ;
#1054=ORIENTED_EDGE('',*,*,#1038,.T.) ;
#1055=ORIENTED_EDGE('',*,*,#873,.F.) ;
#1069=ORIENTED_EDGE('',*,*,#1062,.T.) ;
#1070=ORIENTED_EDGE('',*,*,#1009,.F.) ;
#1071=ORIENTED_EDGE('',*,*,#1067,.F.) ;
#1072=ORIENTED_EDGE('',*,*,#922,.T.) ;
#1076=ORIENTED_EDGE('',*,*,#1067,.T.) ;
#1077=ORIENTED_EDGE('',*,*,#1023,.F.) ;
#1078=ORIENTED_EDGE('',*,*,#1062,.F.) ;
#1079=ORIENTED_EDGE('',*,*,#905,.T.) ;
#416=FACE_BOUND('',#413,.T.) ;
#476=FACE_BOUND('',#473,.T.) ;
#536=FACE_BOUND('',#533,.T.) ;
#877=FACE_BOUND('',#874,.T.) ;
#926=FACE_BOUND('',#923,.T.) ;
#984=FACE_BOUND('',#981,.T.) ;
#1027=FACE_BOUND('',#1024,.T.) ;
#51=CLOSED_SHELL('Closed Shell',(#91,#108,#139,#151,#191,#208,#234,#246,#277,#289,#329,#346,#377,#389,#417,#477,#537,#561,#597,#609,#638,#669,#695,#727,#746,#766,#778,#796,#814,#878,#927,#985,#1028,#1050,#1057,#1074,#1081)) ;
#59=VECTOR('Line Direction',#58,1.) ;
#75=VECTOR('Line Direction',#74,1.) ;
#116=VECTOR('Line Direction',#115,1.) ;
#130=VECTOR('Line Direction',#129,1.) ;
#159=VECTOR('Line Direction',#158,1.) ;
#175=VECTOR('Line Direction',#174,1.) ;
#211=VECTOR('Line Direction',#210,1.) ;
#225=VECTOR('Line Direction',#224,1.) ;
#254=VECTOR('Line Direction',#253,1.) ;
#268=VECTOR('Line Direction',#267,1.) ;
#297=VECTOR('Line Direction',#296,1.) ;
#313=VECTOR('Line Direction',#312,1.) ;
#354=VECTOR('Line Direction',#353,1.) ;
#368=VECTOR('Line Direction',#367,1.) ;
#441=VECTOR('Line Direction',#440,1.) ;
#462=VECTOR('Line Direction',#461,1.) ;
#485=VECTOR('Line Direction',#484,1.) ;
#508=VECTOR('Line Direction',#507,1.) ;
#545=VECTOR('Line Direction',#544,1.) ;
#579=VECTOR('Line Direction',#578,1.) ;
#646=VECTOR('Line Direction',#645,1.) ;
#660=VECTOR('Line Direction',#659,1.) ;
#672=VECTOR('Line Direction',#671,1.) ;
#686=VECTOR('Line Direction',#685,1.) ;
#711=VECTOR('Line Direction',#710,1.) ;
#730=VECTOR('Line Direction',#729,1.) ;
#822=VECTOR('Line Direction',#821,1.) ;
#827=VECTOR('Line Direction',#826,1.) ;
#935=VECTOR('Line Direction',#934,1.) ;
#940=VECTOR('Line Direction',#939,1.) ;
#1036=VECTOR('Line Direction',#1035,1.) ;
#1041=VECTOR('Line Direction',#1040,1.) ;
#1060=VECTOR('Line Direction',#1059,1.) ;
#1065=VECTOR('Line Direction',#1064,1.) ;
#1083=ADVANCED_BREP_SHAPE_REPRESENTATION('NONE',(#1082),#46) ;
#49=SHAPE_REPRESENTATION(' ',(#48),#46) ;
#91=ADVANCED_FACE('MAIN',(#90),#56,.T.) ;
#108=ADVANCED_FACE('MAIN',(#107),#56,.T.) ;
#139=ADVANCED_FACE('MAIN',(#138),#113,.T.) ;
#151=ADVANCED_FACE('MAIN',(#150),#113,.T.) ;
#191=ADVANCED_FACE('MAIN',(#190),#156,.T.) ;
#208=ADVANCED_FACE('MAIN',(#207),#156,.T.) ;
#234=ADVANCED_FACE('MAIN',(#233),#56,.T.) ;
#246=ADVANCED_FACE('MAIN',(#245),#56,.T.) ;
#277=ADVANCED_FACE('MAIN',(#276),#251,.T.) ;
#289=ADVANCED_FACE('MAIN',(#288),#251,.T.) ;
#329=ADVANCED_FACE('MAIN',(#328),#294,.F.) ;
#346=ADVANCED_FACE('MAIN',(#345),#294,.F.) ;
#377=ADVANCED_FACE('MAIN',(#376),#351,.F.) ;
#389=ADVANCED_FACE('MAIN',(#388),#351,.F.) ;
#417=ADVANCED_FACE('MAIN',(#398,#416),#394,.T.) ;
#477=ADVANCED_FACE('MAIN',(#472,#476),#422,.T.) ;
#537=ADVANCED_FACE('MAIN',(#532,#536),#482,.F.) ;
#561=ADVANCED_FACE('MAIN',(#560),#542,.T.) ;
#597=ADVANCED_FACE('MAIN',(#596),#542,.T.) ;
#609=ADVANCED_FACE('MAIN',(#608),#542,.T.) ;
#638=ADVANCED_FACE('MAIN',(#637),#542,.T.) ;
#669=ADVANCED_FACE('MAIN',(#668),#643,.T.) ;
#695=ADVANCED_FACE('MAIN',(#694),#643,.T.) ;
#727=ADVANCED_FACE('MAIN',(#726),#700,.T.) ;
#746=ADVANCED_FACE('MAIN',(#745),#700,.T.) ;
#766=ADVANCED_FACE('MAIN',(#765),#700,.T.) ;
#778=ADVANCED_FACE('MAIN',(#777),#700,.T.) ;
#796=ADVANCED_FACE('MAIN',(#795),#783,.T.) ;
#814=ADVANCED_FACE('MAIN',(#813),#801,.F.) ;
#878=ADVANCED_FACE('MAIN',(#835,#877),#819,.F.) ;
#927=ADVANCED_FACE('MAIN',(#884,#926),#819,.F.) ;
#985=ADVANCED_FACE('MAIN',(#948,#984),#932,.T.) ;
#1028=ADVANCED_FACE('MAIN',(#991,#1027),#932,.T.) ;
#1050=ADVANCED_FACE('MAIN',(#1049),#1033,.F.) ;
#1057=ADVANCED_FACE('MAIN',(#1056),#1033,.F.) ;
#1074=ADVANCED_FACE('MAIN',(#1073),#1033,.F.) ;
#1081=ADVANCED_FACE('MAIN',(#1080),#1033,.F.) ;
#4=APPLICATION_PROTOCOL_DEFINITION('international standard','config_control_design',1994,#1) ;
#32=APPROVAL_DATE_TIME(#13,#21) ;
#550=B_SPLINE_CURVE_WITH_KNOTS('',3,(#551,#552,#553,#554),.UNSPECIFIED.,.F.,.U.,(4,4),(0.,1.48806498743),.UNSPECIFIED.) ;
#571=B_SPLINE_CURVE_WITH_KNOTS('',3,(#572,#573,#574,#575),.UNSPECIFIED.,.F.,.U.,(4,4),(0.,3.26022535917),.UNSPECIFIED.) ;
#584=B_SPLINE_CURVE_WITH_KNOTS('',3,(#585,#586,#587,#588),.UNSPECIFIED.,.F.,.U.,(4,4),(0.,1.77233885981),.UNSPECIFIED.) ;
#598=B_SPLINE_CURVE_WITH_KNOTS('',3,(#599,#600,#601,#602),.UNSPECIFIED.,.F.,.U.,(4,4),(0.,1.48806498743),.UNSPECIFIED.) ;
#619=B_SPLINE_CURVE_WITH_KNOTS('',3,(#620,#621,#622,#623),.UNSPECIFIED.,.F.,.U.,(4,4),(0.,3.26022535917),.UNSPECIFIED.) ;
#625=B_SPLINE_CURVE_WITH_KNOTS('',3,(#626,#627,#628,#629),.UNSPECIFIED.,.F.,.U.,(4,4),(0.,1.77233885982),.UNSPECIFIED.) ;
#701=B_SPLINE_CURVE_WITH_KNOTS('',3,(#702,#703,#704,#705),.UNSPECIFIED.,.F.,.U.,(4,4),(0.,1.77233885981),.UNSPECIFIED.) ;
#714=B_SPLINE_CURVE_WITH_KNOTS('',3,(#715,#716,#717,#718),.UNSPECIFIED.,.F.,.U.,(4,4),(0.,3.26022535915),.UNSPECIFIED.) ;
#735=B_SPLINE_CURVE_WITH_KNOTS('',3,(#736,#737,#738,#739),.UNSPECIFIED.,.F.,.U.,(4,4),(0.,1.48806498743),.UNSPECIFIED.) ;
#747=B_SPLINE_CURVE_WITH_KNOTS('',3,(#748,#749,#750,#751),.UNSPECIFIED.,.F.,.U.,(4,4),(0.,1.77233885981),.UNSPECIFIED.) ;
#753=B_SPLINE_CURVE_WITH_KNOTS('',3,(#754,#755,#756,#757),.UNSPECIFIED.,.F.,.U.,(4,4),(0.,3.26022535918),.UNSPECIFIED.) ;
#767=B_SPLINE_CURVE_WITH_KNOTS('',3,(#768,#769,#770,#771),.UNSPECIFIED.,.F.,.U.,(4,4),(0.,1.48806498742),.UNSPECIFIED.) ;
#836=B_SPLINE_CURVE_WITH_KNOTS('',5,(#837,#838,#839,#840,#841,#842,#843,#844,#845,#846,#847,#848,#849,#850,#851),.UNSPECIFIED.,.F.,.U.,(6,3,3,3,6),(0.,1.71169421951,2.86521164365,4.01337988486,5.61864692389),.UNSPECIFIED.) ;
#857=B_SPLINE_CURVE_WITH_KNOTS('',5,(#858,#859,#860,#861,#862,#863,#864,#865,#866,#867,#868,#869,#870,#871,#872),.UNSPECIFIED.,.F.,.U.,(6,3,3,3,6),(0.,1.71169421959,2.86521164374,4.01337988495,5.61864692385),.UNSPECIFIED.) ;
#885=B_SPLINE_CURVE_WITH_KNOTS('',5,(#886,#887,#888,#889,#890,#891,#892,#893,#894,#895,#896,#897,#898,#899,#900),.UNSPECIFIED.,.F.,.U.,(6,3,3,3,6),(0.,1.71169421958,2.86521164374,4.01337988494,5.61864692396),.UNSPECIFIED.) ;
#906=B_SPLINE_CURVE_WITH_KNOTS('',5,(#907,#908,#909,#910,#911,#912,#913,#914,#915,#916,#917,#918,#919,#920,#921),.UNSPECIFIED.,.F.,.U.,(6,3,3,3,6),(0.,1.71169421959,2.86521164375,4.01337988495,5.618646924),.UNSPECIFIED.) ;
#949=B_SPLINE_CURVE_WITH_KNOTS('',5,(#950,#951,#952,#953,#954,#955,#956,#957,#958,#959,#960,#961),.UNSPECIFIED.,.F.,.U.,(6,3,3,6),(0.,2.2764342103,3.3665583606,5.58703000474),.UNSPECIFIED.) ;
#967=B_SPLINE_CURVE_WITH_KNOTS('',5,(#968,#969,#970,#971,#972,#973,#974,#975,#976,#977,#978,#979),.UNSPECIFIED.,.F.,.U.,(6,3,3,6),(0.,2.27643421036,3.36655836082,5.58703000497),.UNSPECIFIED.) ;
#992=B_SPLINE_CURVE_WITH_KNOTS('',5,(#993,#994,#995,#996,#997,#998,#999,#1000,#1001,#1002,#1003,#1004),.UNSPECIFIED.,.F.,.U.,(6,3,3,6),(0.,2.27643421026,3.36655836051,5.58703000459),.UNSPECIFIED.) ;
#1010=B_SPLINE_CURVE_WITH_KNOTS('',5,(#1011,#1012,#1013,#1014,#1015,#1016,#1017,#1018,#1019,#1020,#1021,#1022),.UNSPECIFIED.,.F.,.U.,(6,3,3,6),(0.,2.27643421042,3.36655836073,5.58703000487),.UNSPECIFIED.) ;
#1082=MANIFOLD_SOLID_BREP('MAIN',#51) ;
#11=CALENDAR_DATE(2026,6,10) ;
#30=CC_DESIGN_APPROVAL(#21,(#16,#6,#14)) ;
#18=CC_DESIGN_DATE_AND_TIME_ASSIGNMENT(#13,#17,(#16)) ;
#29=CC_DESIGN_DATE_AND_TIME_ASSIGNMENT(#13,#28,(#14)) ;
#17=DATE_TIME_ROLE('classification_date') ;
#28=DATE_TIME_ROLE('creation_date') ;
#27=CC_DESIGN_PERSON_AND_ORGANIZATION_ASSIGNMENT(#25,#26,(#16)) ;
#33=CC_DESIGN_PERSON_AND_ORGANIZATION_ASSIGNMENT(#25,#34,(#6)) ;
#35=CC_DESIGN_PERSON_AND_ORGANIZATION_ASSIGNMENT(#25,#36,(#6,#14)) ;
#37=CC_DESIGN_PERSON_AND_ORGANIZATION_ASSIGNMENT(#25,#38,(#5)) ;
#26=PERSON_AND_ORGANIZATION_ROLE('classification_officer') ;
#34=PERSON_AND_ORGANIZATION_ROLE('design_supplier') ;
#36=PERSON_AND_ORGANIZATION_ROLE('creator') ;
#38=PERSON_AND_ORGANIZATION_ROLE('design_owner') ;
#39=CC_DESIGN_SECURITY_CLASSIFICATION(#16,(#6)) ;
#69=CIRCLE('generated circle',#68,4.76249891) ;
#83=CIRCLE('generated circle',#82,4.76249891) ;
#95=CIRCLE('generated circle',#94,4.76249891) ;
#100=CIRCLE('generated circle',#99,4.76249891) ;
#124=CIRCLE('generated circle',#123,4.1) ;
#143=CIRCLE('generated circle',#142,4.1) ;
#169=CIRCLE('generated circle',#168,4.76249891) ;
#183=CIRCLE('generated circle',#182,4.1) ;
#195=CIRCLE('generated circle',#194,4.76249891) ;
#200=CIRCLE('generated circle',#199,4.1) ;
#219=CIRCLE('generated circle',#218,4.76249891) ;
#238=CIRCLE('generated circle',#237,4.76249891) ;
#262=CIRCLE('generated circle',#261,3.76249891) ;
#281=CIRCLE('generated circle',#280,3.76249891) ;
#307=CIRCLE('generated circle',#306,4.5) ;
#321=CIRCLE('generated circle',#320,3.) ;
#333=CIRCLE('generated circle',#332,4.5) ;
#338=CIRCLE('generated circle',#337,3.) ;
#362=CIRCLE('generated circle',#361,4.5) ;
#381=CIRCLE('generated circle',#380,4.5) ;
#402=CIRCLE('generated circle',#401,3.) ;
#411=CIRCLE('generated circle',#410,3.) ;
#426=CIRCLE('generated circle',#425,7.) ;
#435=CIRCLE('generated circle',#434,7.) ;
#449=CIRCLE('generated circle',#448,7.) ;
#456=CIRCLE('generated circle',#455,7.) ;
#495=CIRCLE('generated circle',#494,7.) ;
#502=CIRCLE('generated circle',#501,7.) ;
#516=CIRCLE('generated circle',#515,7.) ;
#523=CIRCLE('generated circle',#522,7.) ;
#565=CIRCLE('generated circle',#564,8.) ;
#613=CIRCLE('generated circle',#612,8.) ;
#654=CIRCLE('generated circle',#653,8.) ;
#680=CIRCLE('generated circle',#679,8.) ;
#113=CONICAL_SURFACE('Cone',#112,4.1,0.785398163397) ;
#156=CONICAL_SURFACE('Cone',#155,4.1,0.785398163397) ;
#251=CONICAL_SURFACE('Cone',#250,3.76249891,0.785398163397) ;
#294=CONICAL_SURFACE('Cone',#293,3.,0.785398163397) ;
#542=CONICAL_SURFACE('Cone',#541,7.,0.785398163397) ;
#700=CONICAL_SURFACE('Cone',#699,7.,0.785398163397) ;
#1084=SHAPE_REPRESENTATION_RELATIONSHIP(' ',' ',#49,#1083) ;
#56=CYLINDRICAL_SURFACE('generated cylinder',#55,4.76249891) ;
#351=CYLINDRICAL_SURFACE('generated cylinder',#350,4.5) ;
#643=CYLINDRICAL_SURFACE('generated cylinder',#642,8.) ;
#819=CYLINDRICAL_SURFACE('generated cylinder',#818,3.) ;
#932=CYLINDRICAL_SURFACE('generated cylinder',#931,4.1) ;
#1033=CYLINDRICAL_SURFACE('generated cylinder',#1032,1.25) ;
#3=DESIGN_CONTEXT(' ',#1,'design') ;
#65=EDGE_CURVE('',#62,#64,#60,.T.) ;
#72=EDGE_CURVE('',#71,#64,#69,.T.) ;
#79=EDGE_CURVE('',#78,#71,#76,.T.) ;
#84=EDGE_CURVE('',#78,#62,#83,.T.) ;
#96=EDGE_CURVE('',#64,#71,#95,.T.) ;
#101=EDGE_CURVE('',#62,#78,#100,.T.) ;
#120=EDGE_CURVE('',#64,#119,#117,.F.) ;
#127=EDGE_CURVE('',#126,#119,#124,.F.) ;
#132=EDGE_CURVE('',#71,#126,#131,.F.) ;
#144=EDGE_CURVE('',#119,#126,#143,.F.) ;
#165=EDGE_CURVE('',#162,#164,#160,.T.) ;
#172=EDGE_CURVE('',#171,#164,#169,.T.) ;
#179=EDGE_CURVE('',#178,#171,#176,.T.) ;
#184=EDGE_CURVE('',#178,#162,#183,.T.) ;
#196=EDGE_CURVE('',#164,#171,#195,.T.) ;
#201=EDGE_CURVE('',#162,#178,#200,.T.) ;
#215=EDGE_CURVE('',#164,#214,#212,.T.) ;
#222=EDGE_CURVE('',#221,#214,#219,.T.) ;
#227=EDGE_CURVE('',#171,#221,#226,.T.) ;
#239=EDGE_CURVE('',#214,#221,#238,.T.) ;
#258=EDGE_CURVE('',#214,#257,#255,.F.) ;
#265=EDGE_CURVE('',#264,#257,#262,.F.) ;
#270=EDGE_CURVE('',#221,#264,#269,.F.) ;
#282=EDGE_CURVE('',#257,#264,#281,.F.) ;
#303=EDGE_CURVE('',#300,#302,#298,.T.) ;
#310=EDGE_CURVE('',#309,#302,#307,.F.) ;
#317=EDGE_CURVE('',#316,#309,#314,.T.) ;
#322=EDGE_CURVE('',#316,#300,#321,.F.) ;
#334=EDGE_CURVE('',#302,#309,#333,.F.) ;
#339=EDGE_CURVE('',#300,#316,#338,.F.) ;
#358=EDGE_CURVE('',#302,#357,#355,.F.) ;
#365=EDGE_CURVE('',#364,#357,#362,.T.) ;
#370=EDGE_CURVE('',#309,#364,#369,.F.) ;
#382=EDGE_CURVE('',#357,#364,#381,.T.) ;
#407=EDGE_CURVE('',#404,#406,#402,.T.) ;
#412=EDGE_CURVE('',#406,#404,#411,.T.) ;
#431=EDGE_CURVE('',#428,#430,#426,.T.) ;
#438=EDGE_CURVE('',#430,#437,#435,.T.) ;
#445=EDGE_CURVE('',#437,#444,#442,.T.) ;
#452=EDGE_CURVE('',#444,#451,#449,.T.) ;
#459=EDGE_CURVE('',#451,#458,#456,.T.) ;
#464=EDGE_CURVE('',#428,#458,#463,.T.) ;
#491=EDGE_CURVE('',#488,#490,#486,.T.) ;
#498=EDGE_CURVE('',#497,#490,#495,.T.) ;
#505=EDGE_CURVE('',#504,#497,#502,.T.) ;
#512=EDGE_CURVE('',#511,#504,#509,.T.) ;
#519=EDGE_CURVE('',#518,#511,#516,.T.) ;
#524=EDGE_CURVE('',#488,#518,#523,.T.) ;
#549=EDGE_CURVE('',#548,#430,#546,.F.) ;
#555=EDGE_CURVE('',#428,#548,#550,.T.) ;
#570=EDGE_CURVE('',#567,#569,#565,.F.) ;
#576=EDGE_CURVE('',#458,#569,#571,.T.) ;
#583=EDGE_CURVE('',#582,#451,#580,.F.) ;
#589=EDGE_CURVE('',#582,#567,#584,.T.) ;
#603=EDGE_CURVE('',#444,#582,#598,.T.) ;
#618=EDGE_CURVE('',#615,#617,#613,.F.) ;
#624=EDGE_CURVE('',#437,#617,#619,.T.) ;
#630=EDGE_CURVE('',#548,#615,#625,.T.) ;
#650=EDGE_CURVE('',#649,#567,#647,.T.) ;
#657=EDGE_CURVE('',#649,#656,#654,.T.) ;
#662=EDGE_CURVE('',#656,#569,#661,.T.) ;
#676=EDGE_CURVE('',#675,#615,#673,.T.) ;
#683=EDGE_CURVE('',#675,#682,#680,.T.) ;
#688=EDGE_CURVE('',#682,#617,#687,.T.) ;
#708=EDGE_CURVE('',#707,#649,#701,.T.) ;
#713=EDGE_CURVE('',#497,#707,#712,.T.) ;
#719=EDGE_CURVE('',#490,#656,#714,.T.) ;
#734=EDGE_CURVE('',#518,#733,#731,.T.) ;
#740=EDGE_CURVE('',#488,#733,#735,.T.) ;
#752=EDGE_CURVE('',#733,#675,#747,.T.) ;
#758=EDGE_CURVE('',#511,#682,#753,.T.) ;
#772=EDGE_CURVE('',#504,#707,#767,.T.) ;
#824=EDGE_CURVE('',#404,#316,#823,.F.) ;
#829=EDGE_CURVE('',#406,#300,#828,.F.) ;
#856=EDGE_CURVE('',#853,#855,#836,.T.) ;
#873=EDGE_CURVE('',#855,#853,#857,.T.) ;
#905=EDGE_CURVE('',#902,#904,#885,.T.) ;
#922=EDGE_CURVE('',#904,#902,#906,.T.) ;
#937=EDGE_CURVE('',#126,#178,#936,.T.) ;
#942=EDGE_CURVE('',#119,#162,#941,.T.) ;
#966=EDGE_CURVE('',#963,#965,#949,.T.) ;
#980=EDGE_CURVE('',#965,#963,#967,.T.) ;
#1009=EDGE_CURVE('',#1006,#1008,#992,.T.) ;
#1023=EDGE_CURVE('',#1008,#1006,#1010,.T.) ;
#1038=EDGE_CURVE('',#965,#853,#1037,.F.) ;
#1043=EDGE_CURVE('',#963,#855,#1042,.F.) ;
#1062=EDGE_CURVE('',#902,#1008,#1061,.F.) ;
#1067=EDGE_CURVE('',#904,#1006,#1066,.F.) ;
#85=EDGE_LOOP('',(#86,#87,#88,#89)) ;
#102=EDGE_LOOP('',(#103,#104,#105,#106)) ;
#133=EDGE_LOOP('',(#134,#135,#136,#137)) ;
#145=EDGE_LOOP('',(#146,#147,#148,#149)) ;
#185=EDGE_LOOP('',(#186,#187,#188,#189)) ;
#202=EDGE_LOOP('',(#203,#204,#205,#206)) ;
#228=EDGE_LOOP('',(#229,#230,#231,#232)) ;
#240=EDGE_LOOP('',(#241,#242,#243,#244)) ;
#271=EDGE_LOOP('',(#272,#273,#274,#275)) ;
#283=EDGE_LOOP('',(#284,#285,#286,#287)) ;
#323=EDGE_LOOP('',(#324,#325,#326,#327)) ;
#340=EDGE_LOOP('',(#341,#342,#343,#344)) ;
#371=EDGE_LOOP('',(#372,#373,#374,#375)) ;
#383=EDGE_LOOP('',(#384,#385,#386,#387)) ;
#395=EDGE_LOOP('',(#396,#397)) ;
#413=EDGE_LOOP('',(#414,#415)) ;
#465=EDGE_LOOP('',(#466,#467,#468,#469,#470,#471)) ;
#473=EDGE_LOOP('',(#474,#475)) ;
#525=EDGE_LOOP('',(#526,#527,#528,#529,#530,#531)) ;
#533=EDGE_LOOP('',(#534,#535)) ;
#556=EDGE_LOOP('',(#557,#558,#559)) ;
#590=EDGE_LOOP('',(#591,#592,#593,#594,#595)) ;
#604=EDGE_LOOP('',(#605,#606,#607)) ;
#631=EDGE_LOOP('',(#632,#633,#634,#635,#636)) ;
#663=EDGE_LOOP('',(#664,#665,#666,#667)) ;
#689=EDGE_LOOP('',(#690,#691,#692,#693)) ;
#720=EDGE_LOOP('',(#721,#722,#723,#724,#725)) ;
#741=EDGE_LOOP('',(#742,#743,#744)) ;
#759=EDGE_LOOP('',(#760,#761,#762,#763,#764)) ;
#773=EDGE_LOOP('',(#774,#775,#776)) ;
#784=EDGE_LOOP('',(#785,#786,#787,#788,#789,#790,#791,#792,#793,#794)) ;
#802=EDGE_LOOP('',(#803,#804,#805,#806,#807,#808,#809,#810,#811,#812)) ;
#830=EDGE_LOOP('',(#831,#832,#833,#834)) ;
#874=EDGE_LOOP('',(#875,#876)) ;
#879=EDGE_LOOP('',(#880,#881,#882,#883)) ;
#923=EDGE_LOOP('',(#924,#925)) ;
#943=EDGE_LOOP('',(#944,#945,#946,#947)) ;
#981=EDGE_LOOP('',(#982,#983)) ;
#986=EDGE_LOOP('',(#987,#988,#989,#990)) ;
#1024=EDGE_LOOP('',(#1025,#1026)) ;
#1044=EDGE_LOOP('',(#1045,#1046,#1047,#1048)) ;
#1051=EDGE_LOOP('',(#1052,#1053,#1054,#1055)) ;
#1068=EDGE_LOOP('',(#1069,#1070,#1071,#1072)) ;
#1075=EDGE_LOOP('',(#1076,#1077,#1078,#1079)) ;
#90=FACE_OUTER_BOUND('',#85,.T.) ;
#107=FACE_OUTER_BOUND('',#102,.T.) ;
#138=FACE_OUTER_BOUND('',#133,.T.) ;
#150=FACE_OUTER_BOUND('',#145,.T.) ;
#190=FACE_OUTER_BOUND('',#185,.T.) ;
#207=FACE_OUTER_BOUND('',#202,.T.) ;
#233=FACE_OUTER_BOUND('',#228,.T.) ;
#245=FACE_OUTER_BOUND('',#240,.T.) ;
#276=FACE_OUTER_BOUND('',#271,.T.) ;
#288=FACE_OUTER_BOUND('',#283,.T.) ;
#328=FACE_OUTER_BOUND('',#323,.T.) ;
#345=FACE_OUTER_BOUND('',#340,.T.) ;
#376=FACE_OUTER_BOUND('',#371,.T.) ;
#388=FACE_OUTER_BOUND('',#383,.T.) ;
#398=FACE_OUTER_BOUND('',#395,.T.) ;
#472=FACE_OUTER_BOUND('',#465,.T.) ;
#532=FACE_OUTER_BOUND('',#525,.T.) ;
#560=FACE_OUTER_BOUND('',#556,.T.) ;
#596=FACE_OUTER_BOUND('',#590,.T.) ;
#608=FACE_OUTER_BOUND('',#604,.T.) ;
#637=FACE_OUTER_BOUND('',#631,.T.) ;
#668=FACE_OUTER_BOUND('',#663,.T.) ;
#694=FACE_OUTER_BOUND('',#689,.T.) ;
#726=FACE_OUTER_BOUND('',#720,.T.) ;
#745=FACE_OUTER_BOUND('',#741,.T.) ;
#765=FACE_OUTER_BOUND('',#759,.T.) ;
#777=FACE_OUTER_BOUND('',#773,.T.) ;
#795=FACE_OUTER_BOUND('',#784,.T.) ;
#813=FACE_OUTER_BOUND('',#802,.T.) ;
#835=FACE_OUTER_BOUND('',#830,.T.) ;
#884=FACE_OUTER_BOUND('',#879,.T.) ;
#948=FACE_OUTER_BOUND('',#943,.T.) ;
#991=FACE_OUTER_BOUND('',#986,.T.) ;
#1049=FACE_OUTER_BOUND('',#1044,.T.) ;
#1056=FACE_OUTER_BOUND('',#1051,.T.) ;
#1073=FACE_OUTER_BOUND('',#1068,.T.) ;
#1080=FACE_OUTER_BOUND('',#1075,.T.) ;
#45=UNCERTAINTY_MEASURE_WITH_UNIT(LENGTH_MEASURE(0.005),#41,'distance_accuracy_value','CONFUSED CURVE UNCERTAINTY') ;
#60=LINE('Line',#57,#59) ;
#76=LINE('Line',#73,#75) ;
#117=LINE('Line',#114,#116) ;
#131=LINE('Line',#128,#130) ;
#160=LINE('Line',#157,#159) ;
#176=LINE('Line',#173,#175) ;
#212=LINE('Line',#209,#211) ;
#226=LINE('Line',#223,#225) ;
#255=LINE('Line',#252,#254) ;
#269=LINE('Line',#266,#268) ;
#298=LINE('Line',#295,#297) ;
#314=LINE('Line',#311,#313) ;
#355=LINE('Line',#352,#354) ;
#369=LINE('Line',#366,#368) ;
#442=LINE('Line',#439,#441) ;
#463=LINE('Line',#460,#462) ;
#486=LINE('Line',#483,#485) ;
#509=LINE('Line',#506,#508) ;
#546=LINE('Line',#543,#545) ;
#580=LINE('Line',#577,#579) ;
#647=LINE('Line',#644,#646) ;
#661=LINE('Line',#658,#660) ;
#673=LINE('Line',#670,#672) ;
#687=LINE('Line',#684,#686) ;
#712=LINE('Line',#709,#711) ;
#731=LINE('Line',#728,#730) ;
#823=LINE('Line',#820,#822) ;
#828=LINE('Line',#825,#827) ;
#936=LINE('Line',#933,#935) ;
#941=LINE('Line',#938,#940) ;
#1037=LINE('Line',#1034,#1036) ;
#1042=LINE('Line',#1039,#1041) ;
#1061=LINE('Line',#1058,#1060) ;
#1066=LINE('Line',#1063,#1065) ;
#2=MECHANICAL_CONTEXT(' ',#1,'mechanical') ;
#24=PERSONAL_ADDRESS(' ',' ',' ',' ',' ',' ',' ',' ',' ',' ',' ',' ',(#22),' ') ;
#394=PLANE('',#393) ;
#422=PLANE('',#421) ;
#482=PLANE('',#481) ;
#783=PLANE('',#782) ;
#801=PLANE('',#800) ;
#43=PLANE_ANGLE_MEASURE_WITH_UNIT(PLANE_ANGLE_MEASURE(0.0174532925199),#42) ;
#7=PRODUCT_CATEGORY('part',$) ;
#9=PRODUCT_CATEGORY_RELATIONSHIP(' ',' ',#7,#8) ;
#6=PRODUCT_DEFINITION_FORMATION_WITH_SPECIFIED_SOURCE('',' ',#5,.NOT_KNOWN.) ;
#8=PRODUCT_RELATED_PRODUCT_CATEGORY('detail',$,(#5)) ;
#50=SHAPE_DEFINITION_REPRESENTATION(#40,#49) ;
#62=VERTEX_POINT('',#61) ;
#64=VERTEX_POINT('',#63) ;
#71=VERTEX_POINT('',#70) ;
#78=VERTEX_POINT('',#77) ;
#119=VERTEX_POINT('',#118) ;
#126=VERTEX_POINT('',#125) ;
#162=VERTEX_POINT('',#161) ;
#164=VERTEX_POINT('',#163) ;
#171=VERTEX_POINT('',#170) ;
#178=VERTEX_POINT('',#177) ;
#214=VERTEX_POINT('',#213) ;
#221=VERTEX_POINT('',#220) ;
#257=VERTEX_POINT('',#256) ;
#264=VERTEX_POINT('',#263) ;
#300=VERTEX_POINT('',#299) ;
#302=VERTEX_POINT('',#301) ;
#309=VERTEX_POINT('',#308) ;
#316=VERTEX_POINT('',#315) ;
#357=VERTEX_POINT('',#356) ;
#364=VERTEX_POINT('',#363) ;
#404=VERTEX_POINT('',#403) ;
#406=VERTEX_POINT('',#405) ;
#428=VERTEX_POINT('',#427) ;
#430=VERTEX_POINT('',#429) ;
#437=VERTEX_POINT('',#436) ;
#444=VERTEX_POINT('',#443) ;
#451=VERTEX_POINT('',#450) ;
#458=VERTEX_POINT('',#457) ;
#488=VERTEX_POINT('',#487) ;
#490=VERTEX_POINT('',#489) ;
#497=VERTEX_POINT('',#496) ;
#504=VERTEX_POINT('',#503) ;
#511=VERTEX_POINT('',#510) ;
#518=VERTEX_POINT('',#517) ;
#548=VERTEX_POINT('',#547) ;
#567=VERTEX_POINT('',#566) ;
#569=VERTEX_POINT('',#568) ;
#582=VERTEX_POINT('',#581) ;
#615=VERTEX_POINT('',#614) ;
#617=VERTEX_POINT('',#616) ;
#649=VERTEX_POINT('',#648) ;
#656=VERTEX_POINT('',#655) ;
#675=VERTEX_POINT('',#674) ;
#682=VERTEX_POINT('',#681) ;
#707=VERTEX_POINT('',#706) ;
#733=VERTEX_POINT('',#732) ;
#853=VERTEX_POINT('',#852) ;
#855=VERTEX_POINT('',#854) ;
#902=VERTEX_POINT('',#901) ;
#904=VERTEX_POINT('',#903) ;
#963=VERTEX_POINT('',#962) ;
#965=VERTEX_POINT('',#964) ;
#1006=VERTEX_POINT('',#1005) ;
#1008=VERTEX_POINT('',#1007) ;
#41=(LENGTH_UNIT()NAMED_UNIT(*)SI_UNIT(.MILLI.,.METRE.)) ;
#42=(NAMED_UNIT(*)PLANE_ANGLE_UNIT()SI_UNIT($,.RADIAN.)) ;
#44=(NAMED_UNIT(*)SI_UNIT($,.STERADIAN.)SOLID_ANGLE_UNIT()) ;
#46=(GEOMETRIC_REPRESENTATION_CONTEXT(3)GLOBAL_UNCERTAINTY_ASSIGNED_CONTEXT((#45))GLOBAL_UNIT_ASSIGNED_CONTEXT((#41,#42,#44))REPRESENTATION_CONTEXT(' ',' ')) ;
ENDSEC;
END-ISO-10303-21;
