ISO-10303-21;
HEADER;
FILE_DESCRIPTION(('CATIA V5 STEP Exchange'),'2;1');

FILE_NAME('C:\\Users\\Hashaam\\Documents\\CAD_Project\\review\\Foot_Plate.stp','2026-10-06T14:10:49+00:00',('none'),('none'),'CATIA Version 5 Release 21 GA (IN-10)','CATIA V5 STEP AP203','none');

FILE_SCHEMA(('CONFIG_CONTROL_DESIGN'));

ENDSEC;
/* file written by CATIA V5R21 */
DATA;
#5=PRODUCT('Foot_Plate','','',(#2)) ;
#1=APPLICATION_CONTEXT('configuration controlled 3D design of mechanical parts and assemblies') ;
#14=PRODUCT_DEFINITION('',' ',#6,#3) ;
#16=SECURITY_CLASSIFICATION(' ',' ',#15) ;
#15=SECURITY_CLASSIFICATION_LEVEL('unclassified') ;
#47=CARTESIAN_POINT(' ',(0.,0.,0.)) ;
#52=CARTESIAN_POINT('Axis2P3D Location',(-420.1,-61.5,196.)) ;
#57=CARTESIAN_POINT('Axis2P3D Location',(-420.,-61.5,196.)) ;
#61=CARTESIAN_POINT('Vertex',(-420.,-59.65707662,194.993206369)) ;
#63=CARTESIAN_POINT('Vertex',(-420.,-63.34292338,197.006793631)) ;
#66=CARTESIAN_POINT('Line Origine',(-409.044999998,-59.65707662,194.993206369)) ;
#70=CARTESIAN_POINT('Vertex',(-423.,-59.65707662,194.993206369)) ;
#73=CARTESIAN_POINT('Axis2P3D Location',(-423.,-61.5,196.)) ;
#77=CARTESIAN_POINT('Vertex',(-423.,-63.34292338,197.006793631)) ;
#80=CARTESIAN_POINT('Line Origine',(-409.044999998,-63.34292338,197.006793631)) ;
#92=CARTESIAN_POINT('Axis2P3D Location',(-420.,-61.5,196.)) ;
#97=CARTESIAN_POINT('Axis2P3D Location',(-423.,-61.5,196.)) ;
#109=CARTESIAN_POINT('Axis2P3D Location',(-423.,-61.5,181.979514758)) ;
#115=CARTESIAN_POINT('Control Point',(-423.,-23.7,213.4)) ;
#116=CARTESIAN_POINT('Control Point',(-423.,-18.803881249,209.727910937)) ;
#117=CARTESIAN_POINT('Control Point',(-423.,-14.7584712044,204.921110576)) ;
#118=CARTESIAN_POINT('Control Point',(-423.,-11.9181942618,199.240556691)) ;
#119=CARTESIAN_POINT('Control Point',(-423.,-10.5,193.120148439)) ;
#120=CARTESIAN_POINT('Control Point',(-423.,-10.5,187.)) ;
#121=CARTESIAN_POINT('Vertex',(-423.,-23.7,213.4)) ;
#123=CARTESIAN_POINT('Vertex',(-423.,-10.5,187.)) ;
#126=CARTESIAN_POINT('Line Origine',(-423.,-10.5,180.2)) ;
#130=CARTESIAN_POINT('Vertex',(-423.,-10.5,147.)) ;
#133=CARTESIAN_POINT('Line Origine',(-423.,-61.5,147.)) ;
#137=CARTESIAN_POINT('Vertex',(-423.,-112.5,147.)) ;
#140=CARTESIAN_POINT('Line Origine',(-423.,-112.5,180.2)) ;
#144=CARTESIAN_POINT('Vertex',(-423.,-112.5,187.)) ;
#148=CARTESIAN_POINT('Control Point',(-423.,-112.5,187.)) ;
#149=CARTESIAN_POINT('Control Point',(-423.,-112.5,193.120148439)) ;
#150=CARTESIAN_POINT('Control Point',(-423.,-111.081805738,199.240556691)) ;
#151=CARTESIAN_POINT('Control Point',(-423.,-108.241528796,204.921110576)) ;
#152=CARTESIAN_POINT('Control Point',(-423.,-104.196118751,209.727910937)) ;
#153=CARTESIAN_POINT('Control Point',(-423.,-99.3,213.4)) ;
#154=CARTESIAN_POINT('Vertex',(-423.,-99.3,213.4)) ;
#158=CARTESIAN_POINT('Control Point',(-423.,-99.3,213.4)) ;
#159=CARTESIAN_POINT('Control Point',(-423.,-97.5000000002,211.)) ;
#160=CARTESIAN_POINT('Vertex',(-423.,-97.5000000002,211.)) ;
#163=CARTESIAN_POINT('Line Origine',(-423.,-61.5,211.)) ;
#167=CARTESIAN_POINT('Vertex',(-423.,-25.4999999998,211.)) ;
#171=CARTESIAN_POINT('Control Point',(-423.,-23.7,213.4)) ;
#172=CARTESIAN_POINT('Control Point',(-423.,-25.4999999998,211.)) ;
#189=CARTESIAN_POINT('Control Point',(-423.,-63.34292338,163.006793631)) ;
#190=CARTESIAN_POINT('Control Point',(-423.,-63.0266298325,163.585765086)) ;
#191=CARTESIAN_POINT('Control Point',(-423.,-62.4829747262,164.040528356)) ;
#192=CARTESIAN_POINT('Control Point',(-423.,-61.7753574649,164.248148916)) ;
#193=CARTESIAN_POINT('Control Point',(-423.,-60.3689981833,164.070284939)) ;
#194=CARTESIAN_POINT('Control Point',(-423.,-59.4594716443,162.982974726)) ;
#195=CARTESIAN_POINT('Control Point',(-423.,-59.2518510838,162.275357465)) ;
#196=CARTESIAN_POINT('Control Point',(-423.,-59.3407830725,161.572177824)) ;
#197=CARTESIAN_POINT('Control Point',(-423.,-59.65707662,160.993206369)) ;
#198=CARTESIAN_POINT('Vertex',(-423.,-63.34292338,163.006793631)) ;
#200=CARTESIAN_POINT('Vertex',(-423.,-59.65707662,160.993206369)) ;
#204=CARTESIAN_POINT('Control Point',(-423.,-59.65707662,160.993206369)) ;
#205=CARTESIAN_POINT('Control Point',(-423.,-59.9733701675,160.414234914)) ;
#206=CARTESIAN_POINT('Control Point',(-423.,-60.5170252738,159.959471644)) ;
#207=CARTESIAN_POINT('Control Point',(-423.,-61.2246425351,159.751851084)) ;
#208=CARTESIAN_POINT('Control Point',(-423.,-62.6310018167,159.929715061)) ;
#209=CARTESIAN_POINT('Control Point',(-423.,-63.5405283557,161.017025274)) ;
#210=CARTESIAN_POINT('Control Point',(-423.,-63.7481489162,161.724642535)) ;
#211=CARTESIAN_POINT('Control Point',(-423.,-63.6592169275,162.427822176)) ;
#212=CARTESIAN_POINT('Control Point',(-423.,-63.34292338,163.006793631)) ;
#219=CARTESIAN_POINT('Axis2P3D Location',(-407.5,-43.5,187.)) ;
#224=CARTESIAN_POINT('Line Origine',(-409.015,-23.7,213.4)) ;
#228=CARTESIAN_POINT('Vertex',(-395.,-23.7,213.4)) ;
#231=CARTESIAN_POINT('Axis2P3D Location',(-395.,-43.5,187.)) ;
#235=CARTESIAN_POINT('Vertex',(-395.,-10.5,187.)) ;
#238=CARTESIAN_POINT('Line Origine',(-409.015,-10.5,187.)) ;
#250=CARTESIAN_POINT('Axis2P3D Location',(-420.,-61.5,147.)) ;
#255=CARTESIAN_POINT('Line Origine',(-421.5,-111.,147.)) ;
#259=CARTESIAN_POINT('Vertex',(-420.,-109.5,147.)) ;
#262=CARTESIAN_POINT('Line Origine',(-421.5,-12.,147.)) ;
#266=CARTESIAN_POINT('Vertex',(-420.,-13.5,147.)) ;
#269=CARTESIAN_POINT('Line Origine',(-420.,-61.5,147.)) ;
#281=CARTESIAN_POINT('Axis2P3D Location',(-407.5,-97.5,211.)) ;
#286=CARTESIAN_POINT('Line Origine',(-409.,-99.3,213.4)) ;
#290=CARTESIAN_POINT('Vertex',(-395.,-99.3,213.4)) ;
#293=CARTESIAN_POINT('Line Origine',(-395.,-98.4,212.2)) ;
#297=CARTESIAN_POINT('Vertex',(-395.,-97.5,211.)) ;
#300=CARTESIAN_POINT('Line Origine',(-407.5,-97.5,211.)) ;
#304=CARTESIAN_POINT('Vertex',(-420.,-97.5,211.)) ;
#307=CARTESIAN_POINT('Line Origine',(-421.500000001,-97.5000000002,211.)) ;
#320=CARTESIAN_POINT('Axis2P3D Location',(-420.,-61.5,211.)) ;
#325=CARTESIAN_POINT('Line Origine',(-420.,-61.5,211.)) ;
#329=CARTESIAN_POINT('Vertex',(-420.,-25.5,211.)) ;
#332=CARTESIAN_POINT('Line Origine',(-421.5,-25.4999999998,211.)) ;
#344=CARTESIAN_POINT('Axis2P3D Location',(-395.,-25.5,211.)) ;
#349=CARTESIAN_POINT('Axis2P3D Location',(-395.,-43.5,187.)) ;
#353=CARTESIAN_POINT('Vertex',(-395.,-13.5,187.)) ;
#355=CARTESIAN_POINT('Vertex',(-395.,-25.5,211.)) ;
#358=CARTESIAN_POINT('Line Origine',(-395.,-12.,187.)) ;
#363=CARTESIAN_POINT('Line Origine',(-395.,-24.6,212.2)) ;
#375=CARTESIAN_POINT('Axis2P3D Location',(-407.5,-109.5,147.)) ;
#380=CARTESIAN_POINT('Line Origine',(-395.,-111.,147.)) ;
#384=CARTESIAN_POINT('Vertex',(-395.,-112.5,147.)) ;
#386=CARTESIAN_POINT('Vertex',(-395.,-109.5,147.)) ;
#389=CARTESIAN_POINT('Line Origine',(-409.,-112.5,147.)) ;
#394=CARTESIAN_POINT('Line Origine',(-407.5,-109.5,147.)) ;
#406=CARTESIAN_POINT('Axis2P3D Location',(-395.,-109.5,187.)) ;
#411=CARTESIAN_POINT('Axis2P3D Location',(-395.,-79.5,187.)) ;
#415=CARTESIAN_POINT('Vertex',(-395.,-109.5,187.)) ;
#418=CARTESIAN_POINT('Axis2P3D Location',(-395.,-79.5,187.)) ;
#422=CARTESIAN_POINT('Vertex',(-395.,-112.5,187.)) ;
#425=CARTESIAN_POINT('Line Origine',(-395.,-111.,187.)) ;
#437=CARTESIAN_POINT('Axis2P3D Location',(-395.,-13.5,167.)) ;
#442=CARTESIAN_POINT('Line Origine',(-395.,-13.5,167.)) ;
#446=CARTESIAN_POINT('Vertex',(-395.,-13.5,147.)) ;
#449=CARTESIAN_POINT('Line Origine',(-395.,-12.,147.)) ;
#453=CARTESIAN_POINT('Vertex',(-395.,-10.5,147.)) ;
#456=CARTESIAN_POINT('Line Origine',(-395.,-10.5,167.)) ;
#468=CARTESIAN_POINT('Axis2P3D Location',(-420.,-109.5,187.)) ;
#473=CARTESIAN_POINT('Line Origine',(-420.,-109.5,167.)) ;
#477=CARTESIAN_POINT('Vertex',(-420.,-109.5,187.)) ;
#480=CARTESIAN_POINT('Line Origine',(-407.5,-109.5,187.)) ;
#485=CARTESIAN_POINT('Line Origine',(-395.,-109.5,167.)) ;
#497=CARTESIAN_POINT('Axis2P3D Location',(-420.,-13.5,147.)) ;
#502=CARTESIAN_POINT('Line Origine',(-420.,-13.5,167.)) ;
#506=CARTESIAN_POINT('Vertex',(-420.,-13.5,187.)) ;
#509=CARTESIAN_POINT('Line Origine',(-407.5,-13.5,147.)) ;
#514=CARTESIAN_POINT('Line Origine',(-407.5,-13.5,187.)) ;
#526=CARTESIAN_POINT('Axis2P3D Location',(-395.,-109.5,167.)) ;
#531=CARTESIAN_POINT('Line Origine',(-395.,-112.5,167.)) ;
#543=CARTESIAN_POINT('Axis2P3D Location',(-407.5,-43.5,187.)) ;
#548=CARTESIAN_POINT('Line Origine',(-407.5,-25.5,211.)) ;
#553=CARTESIAN_POINT('Axis2P3D Location',(-420.,-43.5,187.)) ;
#565=CARTESIAN_POINT('Axis2P3D Location',(-407.5,-79.5,187.)) ;
#570=CARTESIAN_POINT('Axis2P3D Location',(-420.,-79.5,187.)) ;
#582=CARTESIAN_POINT('Axis2P3D Location',(-407.5,-13.5,147.)) ;
#587=CARTESIAN_POINT('Line Origine',(-409.,-10.5,147.)) ;
#599=CARTESIAN_POINT('Axis2P3D Location',(-420.1,-61.5,162.)) ;
#604=CARTESIAN_POINT('Axis2P3D Location',(-420.,-61.5,162.)) ;
#608=CARTESIAN_POINT('Vertex',(-420.,-59.65707662,160.993206369)) ;
#610=CARTESIAN_POINT('Vertex',(-420.,-63.34292338,163.006793631)) ;
#613=CARTESIAN_POINT('Line Origine',(-409.044999998,-59.65707662,160.993206369)) ;
#618=CARTESIAN_POINT('Line Origine',(-409.044999998,-63.34292338,163.006793631)) ;
#630=CARTESIAN_POINT('Axis2P3D Location',(-420.,-61.5,162.)) ;
#642=CARTESIAN_POINT('Axis2P3D Location',(-407.5,-25.5,211.)) ;
#655=CARTESIAN_POINT('Axis2P3D Location',(-407.5,-79.5,187.)) ;
#660=CARTESIAN_POINT('Line Origine',(-409.015,-112.5,187.)) ;
#672=CARTESIAN_POINT('Axis2P3D Location',(-420.,-112.5,187.)) ;
#684=CARTESIAN_POINT('Axis2P3D Location',(-420.,-10.5,147.)) ;
#696=CARTESIAN_POINT('Axis2P3D Location',(-420.,-61.5,181.979514758)) ;
#53=DIRECTION('Axis2P3D Direction',(-1.,0.,0.)) ;
#54=DIRECTION('Axis2P3D XDirection',(0.,0.87758256189,-0.479425538604)) ;
#58=DIRECTION('Axis2P3D Direction',(-1.,0.,0.)) ;
#67=DIRECTION('Vector Direction',(-1.,0.,0.)) ;
#74=DIRECTION('Axis2P3D Direction',(-1.,0.,0.)) ;
#81=DIRECTION('Vector Direction',(-1.,0.,0.)) ;
#93=DIRECTION('Axis2P3D Direction',(-1.,0.,0.)) ;
#98=DIRECTION('Axis2P3D Direction',(-1.,0.,0.)) ;
#110=DIRECTION('Axis2P3D Direction',(-1.,0.,0.)) ;
#111=DIRECTION('Axis2P3D XDirection',(0.,1.,8.17943253614E-014)) ;
#127=DIRECTION('Vector Direction',(0.,8.18087231157E-014,-1.)) ;
#134=DIRECTION('Vector Direction',(0.,1.,8.18732370423E-014)) ;
#141=DIRECTION('Vector Direction',(0.,8.17552183917E-014,-1.)) ;
#164=DIRECTION('Vector Direction',(0.,1.,8.18732370423E-014)) ;
#220=DIRECTION('Axis2P3D Direction',(-1.,0.,0.)) ;
#221=DIRECTION('Axis2P3D XDirection',(0.,-0.894427191,-0.4472135955)) ;
#225=DIRECTION('Vector Direction',(-1.,0.,0.)) ;
#232=DIRECTION('Axis2P3D Direction',(-1.,0.,0.)) ;
#239=DIRECTION('Vector Direction',(-1.,0.,0.)) ;
#251=DIRECTION('Axis2P3D Direction',(0.,0.,-1.)) ;
#252=DIRECTION('Axis2P3D XDirection',(1.,0.,0.)) ;
#256=DIRECTION('Vector Direction',(-0.707106781187,-0.707106781187,0.)) ;
#263=DIRECTION('Vector Direction',(-0.707106781187,0.707106781187,0.)) ;
#270=DIRECTION('Vector Direction',(0.,-1.,0.)) ;
#282=DIRECTION('Axis2P3D Direction',(0.,0.8,0.6)) ;
#283=DIRECTION('Axis2P3D XDirection',(1.,-0.,0.)) ;
#287=DIRECTION('Vector Direction',(1.,0.,0.)) ;
#294=DIRECTION('Vector Direction',(0.,0.6,-0.8)) ;
#301=DIRECTION('Vector Direction',(1.,0.,0.)) ;
#308=DIRECTION('Vector Direction',(1.,0.,0.)) ;
#321=DIRECTION('Axis2P3D Direction',(0.,0.,-1.)) ;
#322=DIRECTION('Axis2P3D XDirection',(1.,0.,0.)) ;
#326=DIRECTION('Vector Direction',(0.,-1.,0.)) ;
#333=DIRECTION('Vector Direction',(1.,0.,0.)) ;
#345=DIRECTION('Axis2P3D Direction',(-1.,0.,0.)) ;
#346=DIRECTION('Axis2P3D XDirection',(0.,0.640747439246,-0.767751730119)) ;
#350=DIRECTION('Axis2P3D Direction',(-1.,0.,0.)) ;
#359=DIRECTION('Vector Direction',(0.,1.,0.)) ;
#364=DIRECTION('Vector Direction',(0.,-0.6,-0.8)) ;
#376=DIRECTION('Axis2P3D Direction',(0.,0.,1.)) ;
#377=DIRECTION('Axis2P3D XDirection',(1.,0.,0.)) ;
#381=DIRECTION('Vector Direction',(0.,1.,0.)) ;
#390=DIRECTION('Vector Direction',(1.,0.,0.)) ;
#395=DIRECTION('Vector Direction',(1.,0.,0.)) ;
#407=DIRECTION('Axis2P3D Direction',(-1.,0.,0.)) ;
#408=DIRECTION('Axis2P3D XDirection',(0.,0.229752920547,0.973248989468)) ;
#412=DIRECTION('Axis2P3D Direction',(-1.,0.,0.)) ;
#419=DIRECTION('Axis2P3D Direction',(-1.,0.,0.)) ;
#426=DIRECTION('Vector Direction',(0.,-1.,9.47390314347E-015)) ;
#438=DIRECTION('Axis2P3D Direction',(1.,0.,0.)) ;
#439=DIRECTION('Axis2P3D XDirection',(0.,1.,0.)) ;
#443=DIRECTION('Vector Direction',(0.,0.,1.)) ;
#450=DIRECTION('Vector Direction',(0.,-1.,0.)) ;
#457=DIRECTION('Vector Direction',(0.,0.,1.)) ;
#469=DIRECTION('Axis2P3D Direction',(0.,-1.,0.)) ;
#470=DIRECTION('Axis2P3D XDirection',(0.,0.,-1.)) ;
#474=DIRECTION('Vector Direction',(0.,0.,-1.)) ;
#481=DIRECTION('Vector Direction',(1.,0.,0.)) ;
#486=DIRECTION('Vector Direction',(0.,0.,1.)) ;
#498=DIRECTION('Axis2P3D Direction',(0.,1.,0.)) ;
#499=DIRECTION('Axis2P3D XDirection',(0.,0.,1.)) ;
#503=DIRECTION('Vector Direction',(0.,0.,1.)) ;
#510=DIRECTION('Vector Direction',(1.,0.,0.)) ;
#515=DIRECTION('Vector Direction',(1.,0.,0.)) ;
#527=DIRECTION('Axis2P3D Direction',(1.,0.,0.)) ;
#528=DIRECTION('Axis2P3D XDirection',(0.,1.,0.)) ;
#532=DIRECTION('Vector Direction',(0.,0.,1.)) ;
#544=DIRECTION('Axis2P3D Direction',(-1.,0.,0.)) ;
#545=DIRECTION('Axis2P3D XDirection',(0.,0.6,0.8)) ;
#549=DIRECTION('Vector Direction',(-1.,0.,0.)) ;
#554=DIRECTION('Axis2P3D Direction',(-1.,0.,0.)) ;
#566=DIRECTION('Axis2P3D Direction',(-1.,0.,0.)) ;
#567=DIRECTION('Axis2P3D XDirection',(-0.,-1.,6.83807035362E-016)) ;
#571=DIRECTION('Axis2P3D Direction',(-1.,0.,0.)) ;
#583=DIRECTION('Axis2P3D Direction',(0.,0.,-1.)) ;
#584=DIRECTION('Axis2P3D XDirection',(1.,0.,0.)) ;
#588=DIRECTION('Vector Direction',(1.,0.,0.)) ;
#600=DIRECTION('Axis2P3D Direction',(-1.,0.,0.)) ;
#601=DIRECTION('Axis2P3D XDirection',(0.,0.87758256189,-0.479425538604)) ;
#605=DIRECTION('Axis2P3D Direction',(-1.,0.,0.)) ;
#614=DIRECTION('Vector Direction',(-1.,0.,0.)) ;
#619=DIRECTION('Vector Direction',(-1.,0.,0.)) ;
#631=DIRECTION('Axis2P3D Direction',(-1.,0.,0.)) ;
#643=DIRECTION('Axis2P3D Direction',(0.,0.8,-0.6)) ;
#644=DIRECTION('Axis2P3D XDirection',(1.,0.,0.)) ;
#656=DIRECTION('Axis2P3D Direction',(-1.,0.,0.)) ;
#657=DIRECTION('Axis2P3D XDirection',(0.,0.894427191,-0.4472135955)) ;
#661=DIRECTION('Vector Direction',(-1.,0.,0.)) ;
#673=DIRECTION('Axis2P3D Direction',(0.,-1.,0.)) ;
#674=DIRECTION('Axis2P3D XDirection',(0.,0.,-1.)) ;
#685=DIRECTION('Axis2P3D Direction',(0.,1.,0.)) ;
#686=DIRECTION('Axis2P3D XDirection',(0.,0.,1.)) ;
#697=DIRECTION('Axis2P3D Direction',(-1.,0.,0.)) ;
#698=DIRECTION('Axis2P3D XDirection',(0.,1.,8.17943253614E-014)) ;
#48=AXIS2_PLACEMENT_3D(' ',#47,$,$) ;
#55=AXIS2_PLACEMENT_3D('Cylinder Axis2P3D',#52,#53,#54) ;
#59=AXIS2_PLACEMENT_3D('Circle Axis2P3D',#57,#58,$) ;
#75=AXIS2_PLACEMENT_3D('Circle Axis2P3D',#73,#74,$) ;
#94=AXIS2_PLACEMENT_3D('Circle Axis2P3D',#92,#93,$) ;
#99=AXIS2_PLACEMENT_3D('Circle Axis2P3D',#97,#98,$) ;
#112=AXIS2_PLACEMENT_3D('Plane Axis2P3D',#109,#110,#111) ;
#222=AXIS2_PLACEMENT_3D('Cylinder Axis2P3D',#219,#220,#221) ;
#233=AXIS2_PLACEMENT_3D('Circle Axis2P3D',#231,#232,$) ;
#253=AXIS2_PLACEMENT_3D('Plane Axis2P3D',#250,#251,#252) ;
#284=AXIS2_PLACEMENT_3D('Plane Axis2P3D',#281,#282,#283) ;
#323=AXIS2_PLACEMENT_3D('Plane Axis2P3D',#320,#321,#322) ;
#347=AXIS2_PLACEMENT_3D('Plane Axis2P3D',#344,#345,#346) ;
#351=AXIS2_PLACEMENT_3D('Circle Axis2P3D',#349,#350,$) ;
#378=AXIS2_PLACEMENT_3D('Plane Axis2P3D',#375,#376,#377) ;
#409=AXIS2_PLACEMENT_3D('Plane Axis2P3D',#406,#407,#408) ;
#413=AXIS2_PLACEMENT_3D('Circle Axis2P3D',#411,#412,$) ;
#420=AXIS2_PLACEMENT_3D('Circle Axis2P3D',#418,#419,$) ;
#440=AXIS2_PLACEMENT_3D('Plane Axis2P3D',#437,#438,#439) ;
#471=AXIS2_PLACEMENT_3D('Plane Axis2P3D',#468,#469,#470) ;
#500=AXIS2_PLACEMENT_3D('Plane Axis2P3D',#497,#498,#499) ;
#529=AXIS2_PLACEMENT_3D('Plane Axis2P3D',#526,#527,#528) ;
#546=AXIS2_PLACEMENT_3D('Cylinder Axis2P3D',#543,#544,#545) ;
#555=AXIS2_PLACEMENT_3D('Circle Axis2P3D',#553,#554,$) ;
#568=AXIS2_PLACEMENT_3D('Cylinder Axis2P3D',#565,#566,#567) ;
#572=AXIS2_PLACEMENT_3D('Circle Axis2P3D',#570,#571,$) ;
#585=AXIS2_PLACEMENT_3D('Plane Axis2P3D',#582,#583,#584) ;
#602=AXIS2_PLACEMENT_3D('Cylinder Axis2P3D',#599,#600,#601) ;
#606=AXIS2_PLACEMENT_3D('Circle Axis2P3D',#604,#605,$) ;
#632=AXIS2_PLACEMENT_3D('Circle Axis2P3D',#630,#631,$) ;
#645=AXIS2_PLACEMENT_3D('Plane Axis2P3D',#642,#643,#644) ;
#658=AXIS2_PLACEMENT_3D('Cylinder Axis2P3D',#655,#656,#657) ;
#675=AXIS2_PLACEMENT_3D('Plane Axis2P3D',#672,#673,#674) ;
#687=AXIS2_PLACEMENT_3D('Plane Axis2P3D',#684,#685,#686) ;
#699=AXIS2_PLACEMENT_3D('Plane Axis2P3D',#696,#697,#698) ;
#40=PRODUCT_DEFINITION_SHAPE(' ',' ',#14) ;
#31=APPROVAL_PERSON_ORGANIZATION(#25,#21,#19) ;
#25=PERSON_AND_ORGANIZATION(#22,#23) ;
#22=PERSON(' ',' ',' ',$,$,$) ;
#23=ORGANIZATION(' ',' ',' ') ;
#21=APPROVAL(#20,' ') ;
#20=APPROVAL_STATUS('not_yet_approved') ;
#19=APPROVAL_ROLE('APPROVER') ;
#13=DATE_AND_TIME(#11,#12) ;
#12=LOCAL_TIME(16,10,49.,#10) ;
#10=COORDINATED_UNIVERSAL_TIME_OFFSET(0,0,.AHEAD.) ;
#86=ORIENTED_EDGE('',*,*,#65,.F.) ;
#87=ORIENTED_EDGE('',*,*,#72,.F.) ;
#88=ORIENTED_EDGE('',*,*,#79,.T.) ;
#89=ORIENTED_EDGE('',*,*,#84,.T.) ;
#103=ORIENTED_EDGE('',*,*,#96,.F.) ;
#104=ORIENTED_EDGE('',*,*,#84,.F.) ;
#105=ORIENTED_EDGE('',*,*,#101,.T.) ;
#106=ORIENTED_EDGE('',*,*,#72,.T.) ;
#175=ORIENTED_EDGE('',*,*,#125,.T.) ;
#176=ORIENTED_EDGE('',*,*,#132,.F.) ;
#177=ORIENTED_EDGE('',*,*,#139,.T.) ;
#178=ORIENTED_EDGE('',*,*,#146,.F.) ;
#179=ORIENTED_EDGE('',*,*,#156,.F.) ;
#180=ORIENTED_EDGE('',*,*,#162,.T.) ;
#181=ORIENTED_EDGE('',*,*,#169,.T.) ;
#182=ORIENTED_EDGE('',*,*,#173,.F.) ;
#185=ORIENTED_EDGE('',*,*,#101,.F.) ;
#186=ORIENTED_EDGE('',*,*,#79,.F.) ;
#215=ORIENTED_EDGE('',*,*,#202,.F.) ;
#216=ORIENTED_EDGE('',*,*,#213,.F.) ;
#244=ORIENTED_EDGE('',*,*,#230,.T.) ;
#245=ORIENTED_EDGE('',*,*,#237,.T.) ;
#246=ORIENTED_EDGE('',*,*,#242,.F.) ;
#247=ORIENTED_EDGE('',*,*,#125,.F.) ;
#275=ORIENTED_EDGE('',*,*,#261,.T.) ;
#276=ORIENTED_EDGE('',*,*,#139,.F.) ;
#277=ORIENTED_EDGE('',*,*,#268,.F.) ;
#278=ORIENTED_EDGE('',*,*,#273,.T.) ;
#313=ORIENTED_EDGE('',*,*,#292,.T.) ;
#314=ORIENTED_EDGE('',*,*,#299,.T.) ;
#315=ORIENTED_EDGE('',*,*,#306,.F.) ;
#316=ORIENTED_EDGE('',*,*,#311,.F.) ;
#317=ORIENTED_EDGE('',*,*,#162,.F.) ;
#338=ORIENTED_EDGE('',*,*,#331,.F.) ;
#339=ORIENTED_EDGE('',*,*,#336,.F.) ;
#340=ORIENTED_EDGE('',*,*,#169,.F.) ;
#341=ORIENTED_EDGE('',*,*,#311,.T.) ;
#369=ORIENTED_EDGE('',*,*,#357,.F.) ;
#370=ORIENTED_EDGE('',*,*,#362,.T.) ;
#371=ORIENTED_EDGE('',*,*,#237,.F.) ;
#372=ORIENTED_EDGE('',*,*,#367,.T.) ;
#400=ORIENTED_EDGE('',*,*,#388,.F.) ;
#401=ORIENTED_EDGE('',*,*,#393,.F.) ;
#402=ORIENTED_EDGE('',*,*,#261,.F.) ;
#403=ORIENTED_EDGE('',*,*,#398,.T.) ;
#431=ORIENTED_EDGE('',*,*,#417,.F.) ;
#432=ORIENTED_EDGE('',*,*,#299,.F.) ;
#433=ORIENTED_EDGE('',*,*,#424,.F.) ;
#434=ORIENTED_EDGE('',*,*,#429,.F.) ;
#462=ORIENTED_EDGE('',*,*,#448,.F.) ;
#463=ORIENTED_EDGE('',*,*,#455,.F.) ;
#464=ORIENTED_EDGE('',*,*,#460,.T.) ;
#465=ORIENTED_EDGE('',*,*,#362,.F.) ;
#491=ORIENTED_EDGE('',*,*,#398,.F.) ;
#492=ORIENTED_EDGE('',*,*,#479,.F.) ;
#493=ORIENTED_EDGE('',*,*,#484,.T.) ;
#494=ORIENTED_EDGE('',*,*,#489,.F.) ;
#520=ORIENTED_EDGE('',*,*,#508,.F.) ;
#521=ORIENTED_EDGE('',*,*,#513,.T.) ;
#522=ORIENTED_EDGE('',*,*,#448,.T.) ;
#523=ORIENTED_EDGE('',*,*,#518,.F.) ;
#537=ORIENTED_EDGE('',*,*,#489,.T.) ;
#538=ORIENTED_EDGE('',*,*,#429,.T.) ;
#539=ORIENTED_EDGE('',*,*,#535,.F.) ;
#540=ORIENTED_EDGE('',*,*,#388,.T.) ;
#559=ORIENTED_EDGE('',*,*,#552,.F.) ;
#560=ORIENTED_EDGE('',*,*,#557,.T.) ;
#561=ORIENTED_EDGE('',*,*,#518,.T.) ;
#562=ORIENTED_EDGE('',*,*,#357,.T.) ;
#576=ORIENTED_EDGE('',*,*,#574,.T.) ;
#577=ORIENTED_EDGE('',*,*,#306,.T.) ;
#578=ORIENTED_EDGE('',*,*,#417,.T.) ;
#579=ORIENTED_EDGE('',*,*,#484,.F.) ;
#593=ORIENTED_EDGE('',*,*,#513,.F.) ;
#594=ORIENTED_EDGE('',*,*,#268,.T.) ;
#595=ORIENTED_EDGE('',*,*,#591,.T.) ;
#596=ORIENTED_EDGE('',*,*,#455,.T.) ;
#624=ORIENTED_EDGE('',*,*,#612,.F.) ;
#625=ORIENTED_EDGE('',*,*,#617,.F.) ;
#626=ORIENTED_EDGE('',*,*,#213,.T.) ;
#627=ORIENTED_EDGE('',*,*,#622,.T.) ;
#636=ORIENTED_EDGE('',*,*,#634,.F.) ;
#637=ORIENTED_EDGE('',*,*,#622,.F.) ;
#638=ORIENTED_EDGE('',*,*,#202,.T.) ;
#639=ORIENTED_EDGE('',*,*,#617,.T.) ;
#648=ORIENTED_EDGE('',*,*,#173,.T.) ;
#649=ORIENTED_EDGE('',*,*,#336,.T.) ;
#650=ORIENTED_EDGE('',*,*,#552,.T.) ;
#651=ORIENTED_EDGE('',*,*,#367,.F.) ;
#652=ORIENTED_EDGE('',*,*,#230,.F.) ;
#666=ORIENTED_EDGE('',*,*,#292,.F.) ;
#667=ORIENTED_EDGE('',*,*,#156,.T.) ;
#668=ORIENTED_EDGE('',*,*,#664,.T.) ;
#669=ORIENTED_EDGE('',*,*,#424,.T.) ;
#678=ORIENTED_EDGE('',*,*,#535,.T.) ;
#679=ORIENTED_EDGE('',*,*,#664,.F.) ;
#680=ORIENTED_EDGE('',*,*,#146,.T.) ;
#681=ORIENTED_EDGE('',*,*,#393,.T.) ;
#690=ORIENTED_EDGE('',*,*,#242,.T.) ;
#691=ORIENTED_EDGE('',*,*,#460,.F.) ;
#692=ORIENTED_EDGE('',*,*,#591,.F.) ;
#693=ORIENTED_EDGE('',*,*,#132,.T.) ;
#702=ORIENTED_EDGE('',*,*,#331,.T.) ;
#703=ORIENTED_EDGE('',*,*,#574,.F.) ;
#704=ORIENTED_EDGE('',*,*,#479,.T.) ;
#705=ORIENTED_EDGE('',*,*,#273,.F.) ;
#706=ORIENTED_EDGE('',*,*,#508,.T.) ;
#707=ORIENTED_EDGE('',*,*,#557,.F.) ;
#710=ORIENTED_EDGE('',*,*,#65,.T.) ;
#711=ORIENTED_EDGE('',*,*,#96,.T.) ;
#714=ORIENTED_EDGE('',*,*,#612,.T.) ;
#715=ORIENTED_EDGE('',*,*,#634,.T.) ;
#187=FACE_BOUND('',#184,.T.) ;
#217=FACE_BOUND('',#214,.T.) ;
#712=FACE_BOUND('',#709,.T.) ;
#716=FACE_BOUND('',#713,.T.) ;
#51=CLOSED_SHELL('Closed Shell',(#91,#108,#218,#249,#280,#319,#343,#374,#405,#436,#467,#496,#525,#542,#564,#581,#598,#629,#641,#654,#671,#683,#695,#717)) ;
#68=VECTOR('Line Direction',#67,1.) ;
#82=VECTOR('Line Direction',#81,1.) ;
#128=VECTOR('Line Direction',#127,1.) ;
#135=VECTOR('Line Direction',#134,1.) ;
#142=VECTOR('Line Direction',#141,1.) ;
#165=VECTOR('Line Direction',#164,1.) ;
#226=VECTOR('Line Direction',#225,1.) ;
#240=VECTOR('Line Direction',#239,1.) ;
#257=VECTOR('Line Direction',#256,1.) ;
#264=VECTOR('Line Direction',#263,1.) ;
#271=VECTOR('Line Direction',#270,1.) ;
#288=VECTOR('Line Direction',#287,1.) ;
#295=VECTOR('Line Direction',#294,1.) ;
#302=VECTOR('Line Direction',#301,1.) ;
#309=VECTOR('Line Direction',#308,1.) ;
#327=VECTOR('Line Direction',#326,1.) ;
#334=VECTOR('Line Direction',#333,1.) ;
#360=VECTOR('Line Direction',#359,1.) ;
#365=VECTOR('Line Direction',#364,1.) ;
#382=VECTOR('Line Direction',#381,1.) ;
#391=VECTOR('Line Direction',#390,1.) ;
#396=VECTOR('Line Direction',#395,1.) ;
#427=VECTOR('Line Direction',#426,1.) ;
#444=VECTOR('Line Direction',#443,1.) ;
#451=VECTOR('Line Direction',#450,1.) ;
#458=VECTOR('Line Direction',#457,1.) ;
#475=VECTOR('Line Direction',#474,1.) ;
#482=VECTOR('Line Direction',#481,1.) ;
#487=VECTOR('Line Direction',#486,1.) ;
#504=VECTOR('Line Direction',#503,1.) ;
#511=VECTOR('Line Direction',#510,1.) ;
#516=VECTOR('Line Direction',#515,1.) ;
#533=VECTOR('Line Direction',#532,1.) ;
#550=VECTOR('Line Direction',#549,1.) ;
#589=VECTOR('Line Direction',#588,1.) ;
#615=VECTOR('Line Direction',#614,1.) ;
#620=VECTOR('Line Direction',#619,1.) ;
#662=VECTOR('Line Direction',#661,1.) ;
#719=ADVANCED_BREP_SHAPE_REPRESENTATION('NONE',(#718),#46) ;
#49=SHAPE_REPRESENTATION(' ',(#48),#46) ;
#91=ADVANCED_FACE('MAIN',(#90),#56,.F.) ;
#108=ADVANCED_FACE('MAIN',(#107),#56,.F.) ;
#218=ADVANCED_FACE('MAIN',(#183,#187,#217),#113,.T.) ;
#249=ADVANCED_FACE('MAIN',(#248),#223,.T.) ;
#280=ADVANCED_FACE('MAIN',(#279),#254,.T.) ;
#319=ADVANCED_FACE('MAIN',(#318),#285,.T.) ;
#343=ADVANCED_FACE('MAIN',(#342),#324,.F.) ;
#374=ADVANCED_FACE('MAIN',(#373),#348,.F.) ;
#405=ADVANCED_FACE('MAIN',(#404),#379,.F.) ;
#436=ADVANCED_FACE('MAIN',(#435),#410,.F.) ;
#467=ADVANCED_FACE('MAIN',(#466),#441,.T.) ;
#496=ADVANCED_FACE('MAIN',(#495),#472,.F.) ;
#525=ADVANCED_FACE('MAIN',(#524),#501,.F.) ;
#542=ADVANCED_FACE('MAIN',(#541),#530,.T.) ;
#564=ADVANCED_FACE('MAIN',(#563),#547,.F.) ;
#581=ADVANCED_FACE('MAIN',(#580),#569,.F.) ;
#598=ADVANCED_FACE('MAIN',(#597),#586,.T.) ;
#629=ADVANCED_FACE('MAIN',(#628),#603,.F.) ;
#641=ADVANCED_FACE('MAIN',(#640),#603,.F.) ;
#654=ADVANCED_FACE('MAIN',(#653),#646,.F.) ;
#671=ADVANCED_FACE('MAIN',(#670),#659,.T.) ;
#683=ADVANCED_FACE('MAIN',(#682),#676,.T.) ;
#695=ADVANCED_FACE('MAIN',(#694),#688,.T.) ;
#717=ADVANCED_FACE('MAIN',(#708,#712,#716),#700,.F.) ;
#4=APPLICATION_PROTOCOL_DEFINITION('international standard','config_control_design',1994,#1) ;
#32=APPROVAL_DATE_TIME(#13,#21) ;
#114=B_SPLINE_CURVE_WITH_KNOTS('',5,(#115,#116,#117,#118,#119,#120),.UNSPECIFIED.,.F.,.U.,(6,6),(176.744372943,207.345115137),.UNSPECIFIED.) ;
#147=B_SPLINE_CURVE_WITH_KNOTS('',5,(#148,#149,#150,#151,#152,#153),.UNSPECIFIED.,.F.,.U.,(6,6),(103.672557568,134.273299763),.UNSPECIFIED.) ;
#157=B_SPLINE_CURVE_WITH_KNOTS('',1,(#158,#159),.UNSPECIFIED.,.F.,.U.,(2,2),(-1.49999999982,1.49999999982),.UNSPECIFIED.) ;
#170=B_SPLINE_CURVE_WITH_KNOTS('',1,(#171,#172),.UNSPECIFIED.,.F.,.U.,(2,2),(-1.49999999982,1.49999999982),.UNSPECIFIED.) ;
#188=B_SPLINE_CURVE_WITH_KNOTS('',5,(#189,#190,#191,#192,#193,#194,#195,#196,#197),.UNSPECIFIED.,.F.,.U.,(6,3,6),(7.64734457254,10.9460168588,14.2446891451),.UNSPECIFIED.) ;
#203=B_SPLINE_CURVE_WITH_KNOTS('',5,(#204,#205,#206,#207,#208,#209,#210,#211,#212),.UNSPECIFIED.,.F.,.U.,(6,3,6),(1.05,4.34867228627,7.64734457254),.UNSPECIFIED.) ;
#718=MANIFOLD_SOLID_BREP('MAIN',#51) ;
#11=CALENDAR_DATE(2026,6,10) ;
#30=CC_DESIGN_APPROVAL(#21,(#16,#6,#14)) ;
#18=CC_DESIGN_DATE_AND_TIME_ASSIGNMENT(#13,#17,(#16)) ;
#29=CC_DESIGN_DATE_AND_TIME_ASSIGNMENT(#13,#28,(#14)) ;
#17=DATE_TIME_ROLE('classification_date') ;
#28=DATE_TIME_ROLE('creation_date') ;
#27=CC_DESIGN_PERSON_AND_ORGANIZATION_ASSIGNMENT(#25,#26,(#16)) ;
#33=CC_DESIGN_PERSON_AND_ORGANIZATION_ASSIGNMENT(#25,#34,(#6)) ;
#35=CC_DESIGN_PERSON_AND_ORGANIZATION_ASSIGNMENT(#25,#36,(#6,#14)) ;
#37=CC_DESIGN_PERSON_AND_ORGANIZATION_ASSIGNMENT(#25,#38,(#5)) ;
#26=PERSON_AND_ORGANIZATION_ROLE('classification_officer') ;
#34=PERSON_AND_ORGANIZATION_ROLE('design_supplier') ;
#36=PERSON_AND_ORGANIZATION_ROLE('creator') ;
#38=PERSON_AND_ORGANIZATION_ROLE('design_owner') ;
#39=CC_DESIGN_SECURITY_CLASSIFICATION(#16,(#6)) ;
#60=CIRCLE('generated circle',#59,2.1) ;
#76=CIRCLE('generated circle',#75,2.1) ;
#95=CIRCLE('generated circle',#94,2.1) ;
#100=CIRCLE('generated circle',#99,2.1) ;
#234=CIRCLE('generated circle',#233,33.) ;
#352=CIRCLE('generated circle',#351,30.) ;
#414=CIRCLE('generated circle',#413,30.) ;
#421=CIRCLE('generated circle',#420,33.) ;
#556=CIRCLE('generated circle',#555,30.) ;
#573=CIRCLE('generated circle',#572,30.) ;
#607=CIRCLE('generated circle',#606,2.1) ;
#633=CIRCLE('generated circle',#632,2.1) ;
#720=SHAPE_REPRESENTATION_RELATIONSHIP(' ',' ',#49,#719) ;
#56=CYLINDRICAL_SURFACE('generated cylinder',#55,2.1) ;
#223=CYLINDRICAL_SURFACE('generated cylinder',#222,33.) ;
#547=CYLINDRICAL_SURFACE('generated cylinder',#546,30.) ;
#569=CYLINDRICAL_SURFACE('generated cylinder',#568,30.) ;
#603=CYLINDRICAL_SURFACE('generated cylinder',#602,2.1) ;
#659=CYLINDRICAL_SURFACE('generated cylinder',#658,33.) ;
#3=DESIGN_CONTEXT(' ',#1,'design') ;
#65=EDGE_CURVE('',#62,#64,#60,.T.) ;
#72=EDGE_CURVE('',#71,#62,#69,.F.) ;
#79=EDGE_CURVE('',#71,#78,#76,.T.) ;
#84=EDGE_CURVE('',#78,#64,#83,.F.) ;
#96=EDGE_CURVE('',#64,#62,#95,.T.) ;
#101=EDGE_CURVE('',#78,#71,#100,.T.) ;
#125=EDGE_CURVE('',#122,#124,#114,.T.) ;
#132=EDGE_CURVE('',#131,#124,#129,.F.) ;
#139=EDGE_CURVE('',#131,#138,#136,.F.) ;
#146=EDGE_CURVE('',#145,#138,#143,.T.) ;
#156=EDGE_CURVE('',#155,#145,#147,.F.) ;
#162=EDGE_CURVE('',#155,#161,#157,.T.) ;
#169=EDGE_CURVE('',#161,#168,#166,.T.) ;
#173=EDGE_CURVE('',#122,#168,#170,.T.) ;
#202=EDGE_CURVE('',#199,#201,#188,.T.) ;
#213=EDGE_CURVE('',#201,#199,#203,.T.) ;
#230=EDGE_CURVE('',#122,#229,#227,.F.) ;
#237=EDGE_CURVE('',#229,#236,#234,.T.) ;
#242=EDGE_CURVE('',#124,#236,#241,.F.) ;
#261=EDGE_CURVE('',#260,#138,#258,.T.) ;
#268=EDGE_CURVE('',#267,#131,#265,.T.) ;
#273=EDGE_CURVE('',#267,#260,#272,.T.) ;
#292=EDGE_CURVE('',#155,#291,#289,.T.) ;
#299=EDGE_CURVE('',#291,#298,#296,.T.) ;
#306=EDGE_CURVE('',#305,#298,#303,.T.) ;
#311=EDGE_CURVE('',#161,#305,#310,.T.) ;
#331=EDGE_CURVE('',#330,#305,#328,.T.) ;
#336=EDGE_CURVE('',#168,#330,#335,.T.) ;
#357=EDGE_CURVE('',#354,#356,#352,.F.) ;
#362=EDGE_CURVE('',#354,#236,#361,.T.) ;
#367=EDGE_CURVE('',#229,#356,#366,.T.) ;
#388=EDGE_CURVE('',#385,#387,#383,.T.) ;
#393=EDGE_CURVE('',#138,#385,#392,.T.) ;
#398=EDGE_CURVE('',#260,#387,#397,.T.) ;
#417=EDGE_CURVE('',#298,#416,#414,.F.) ;
#424=EDGE_CURVE('',#423,#291,#421,.T.) ;
#429=EDGE_CURVE('',#416,#423,#428,.T.) ;
#448=EDGE_CURVE('',#447,#354,#445,.T.) ;
#455=EDGE_CURVE('',#454,#447,#452,.T.) ;
#460=EDGE_CURVE('',#454,#236,#459,.T.) ;
#479=EDGE_CURVE('',#478,#260,#476,.T.) ;
#484=EDGE_CURVE('',#478,#416,#483,.T.) ;
#489=EDGE_CURVE('',#387,#416,#488,.T.) ;
#508=EDGE_CURVE('',#267,#507,#505,.T.) ;
#513=EDGE_CURVE('',#267,#447,#512,.T.) ;
#518=EDGE_CURVE('',#507,#354,#517,.T.) ;
#535=EDGE_CURVE('',#385,#423,#534,.T.) ;
#552=EDGE_CURVE('',#330,#356,#551,.F.) ;
#557=EDGE_CURVE('',#330,#507,#556,.T.) ;
#574=EDGE_CURVE('',#478,#305,#573,.T.) ;
#591=EDGE_CURVE('',#131,#454,#590,.T.) ;
#612=EDGE_CURVE('',#609,#611,#607,.T.) ;
#617=EDGE_CURVE('',#201,#609,#616,.F.) ;
#622=EDGE_CURVE('',#199,#611,#621,.F.) ;
#634=EDGE_CURVE('',#611,#609,#633,.T.) ;
#664=EDGE_CURVE('',#145,#423,#663,.F.) ;
#85=EDGE_LOOP('',(#86,#87,#88,#89)) ;
#102=EDGE_LOOP('',(#103,#104,#105,#106)) ;
#174=EDGE_LOOP('',(#175,#176,#177,#178,#179,#180,#181,#182)) ;
#184=EDGE_LOOP('',(#185,#186)) ;
#214=EDGE_LOOP('',(#215,#216)) ;
#243=EDGE_LOOP('',(#244,#245,#246,#247)) ;
#274=EDGE_LOOP('',(#275,#276,#277,#278)) ;
#312=EDGE_LOOP('',(#313,#314,#315,#316,#317)) ;
#337=EDGE_LOOP('',(#338,#339,#340,#341)) ;
#368=EDGE_LOOP('',(#369,#370,#371,#372)) ;
#399=EDGE_LOOP('',(#400,#401,#402,#403)) ;
#430=EDGE_LOOP('',(#431,#432,#433,#434)) ;
#461=EDGE_LOOP('',(#462,#463,#464,#465)) ;
#490=EDGE_LOOP('',(#491,#492,#493,#494)) ;
#519=EDGE_LOOP('',(#520,#521,#522,#523)) ;
#536=EDGE_LOOP('',(#537,#538,#539,#540)) ;
#558=EDGE_LOOP('',(#559,#560,#561,#562)) ;
#575=EDGE_LOOP('',(#576,#577,#578,#579)) ;
#592=EDGE_LOOP('',(#593,#594,#595,#596)) ;
#623=EDGE_LOOP('',(#624,#625,#626,#627)) ;
#635=EDGE_LOOP('',(#636,#637,#638,#639)) ;
#647=EDGE_LOOP('',(#648,#649,#650,#651,#652)) ;
#665=EDGE_LOOP('',(#666,#667,#668,#669)) ;
#677=EDGE_LOOP('',(#678,#679,#680,#681)) ;
#689=EDGE_LOOP('',(#690,#691,#692,#693)) ;
#701=EDGE_LOOP('',(#702,#703,#704,#705,#706,#707)) ;
#709=EDGE_LOOP('',(#710,#711)) ;
#713=EDGE_LOOP('',(#714,#715)) ;
#90=FACE_OUTER_BOUND('',#85,.T.) ;
#107=FACE_OUTER_BOUND('',#102,.T.) ;
#183=FACE_OUTER_BOUND('',#174,.T.) ;
#248=FACE_OUTER_BOUND('',#243,.T.) ;
#279=FACE_OUTER_BOUND('',#274,.T.) ;
#318=FACE_OUTER_BOUND('',#312,.T.) ;
#342=FACE_OUTER_BOUND('',#337,.T.) ;
#373=FACE_OUTER_BOUND('',#368,.T.) ;
#404=FACE_OUTER_BOUND('',#399,.T.) ;
#435=FACE_OUTER_BOUND('',#430,.T.) ;
#466=FACE_OUTER_BOUND('',#461,.T.) ;
#495=FACE_OUTER_BOUND('',#490,.T.) ;
#524=FACE_OUTER_BOUND('',#519,.T.) ;
#541=FACE_OUTER_BOUND('',#536,.T.) ;
#563=FACE_OUTER_BOUND('',#558,.T.) ;
#580=FACE_OUTER_BOUND('',#575,.T.) ;
#597=FACE_OUTER_BOUND('',#592,.T.) ;
#628=FACE_OUTER_BOUND('',#623,.T.) ;
#640=FACE_OUTER_BOUND('',#635,.T.) ;
#653=FACE_OUTER_BOUND('',#647,.T.) ;
#670=FACE_OUTER_BOUND('',#665,.T.) ;
#682=FACE_OUTER_BOUND('',#677,.T.) ;
#694=FACE_OUTER_BOUND('',#689,.T.) ;
#708=FACE_OUTER_BOUND('',#701,.T.) ;
#45=UNCERTAINTY_MEASURE_WITH_UNIT(LENGTH_MEASURE(0.005),#41,'distance_accuracy_value','CONFUSED CURVE UNCERTAINTY') ;
#69=LINE('Line',#66,#68) ;
#83=LINE('Line',#80,#82) ;
#129=LINE('Line',#126,#128) ;
#136=LINE('Line',#133,#135) ;
#143=LINE('Line',#140,#142) ;
#166=LINE('Line',#163,#165) ;
#227=LINE('Line',#224,#226) ;
#241=LINE('Line',#238,#240) ;
#258=LINE('Line',#255,#257) ;
#265=LINE('Line',#262,#264) ;
#272=LINE('Line',#269,#271) ;
#289=LINE('Line',#286,#288) ;
#296=LINE('Line',#293,#295) ;
#303=LINE('Line',#300,#302) ;
#310=LINE('Line',#307,#309) ;
#328=LINE('Line',#325,#327) ;
#335=LINE('Line',#332,#334) ;
#361=LINE('Line',#358,#360) ;
#366=LINE('Line',#363,#365) ;
#383=LINE('Line',#380,#382) ;
#392=LINE('Line',#389,#391) ;
#397=LINE('Line',#394,#396) ;
#428=LINE('Line',#425,#427) ;
#445=LINE('Line',#442,#444) ;
#452=LINE('Line',#449,#451) ;
#459=LINE('Line',#456,#458) ;
#476=LINE('Line',#473,#475) ;
#483=LINE('Line',#480,#482) ;
#488=LINE('Line',#485,#487) ;
#505=LINE('Line',#502,#504) ;
#512=LINE('Line',#509,#511) ;
#517=LINE('Line',#514,#516) ;
#534=LINE('Line',#531,#533) ;
#551=LINE('Line',#548,#550) ;
#590=LINE('Line',#587,#589) ;
#616=LINE('Line',#613,#615) ;
#621=LINE('Line',#618,#620) ;
#663=LINE('Line',#660,#662) ;
#2=MECHANICAL_CONTEXT(' ',#1,'mechanical') ;
#24=PERSONAL_ADDRESS(' ',' ',' ',' ',' ',' ',' ',' ',' ',' ',' ',' ',(#22),' ') ;
#113=PLANE('',#112) ;
#254=PLANE('',#253) ;
#285=PLANE('',#284) ;
#324=PLANE('',#323) ;
#348=PLANE('',#347) ;
#379=PLANE('',#378) ;
#410=PLANE('',#409) ;
#441=PLANE('',#440) ;
#472=PLANE('',#471) ;
#501=PLANE('',#500) ;
#530=PLANE('',#529) ;
#586=PLANE('',#585) ;
#646=PLANE('',#645) ;
#676=PLANE('',#675) ;
#688=PLANE('',#687) ;
#700=PLANE('',#699) ;
#43=PLANE_ANGLE_MEASURE_WITH_UNIT(PLANE_ANGLE_MEASURE(0.0174532925199),#42) ;
#7=PRODUCT_CATEGORY('part',$) ;
#9=PRODUCT_CATEGORY_RELATIONSHIP(' ',' ',#7,#8) ;
#6=PRODUCT_DEFINITION_FORMATION_WITH_SPECIFIED_SOURCE('',' ',#5,.NOT_KNOWN.) ;
#8=PRODUCT_RELATED_PRODUCT_CATEGORY('detail',$,(#5)) ;
#50=SHAPE_DEFINITION_REPRESENTATION(#40,#49) ;
#62=VERTEX_POINT('',#61) ;
#64=VERTEX_POINT('',#63) ;
#71=VERTEX_POINT('',#70) ;
#78=VERTEX_POINT('',#77) ;
#122=VERTEX_POINT('',#121) ;
#124=VERTEX_POINT('',#123) ;
#131=VERTEX_POINT('',#130) ;
#138=VERTEX_POINT('',#137) ;
#145=VERTEX_POINT('',#144) ;
#155=VERTEX_POINT('',#154) ;
#161=VERTEX_POINT('',#160) ;
#168=VERTEX_POINT('',#167) ;
#199=VERTEX_POINT('',#198) ;
#201=VERTEX_POINT('',#200) ;
#229=VERTEX_POINT('',#228) ;
#236=VERTEX_POINT('',#235) ;
#260=VERTEX_POINT('',#259) ;
#267=VERTEX_POINT('',#266) ;
#291=VERTEX_POINT('',#290) ;
#298=VERTEX_POINT('',#297) ;
#305=VERTEX_POINT('',#304) ;
#330=VERTEX_POINT('',#329) ;
#354=VERTEX_POINT('',#353) ;
#356=VERTEX_POINT('',#355) ;
#385=VERTEX_POINT('',#384) ;
#387=VERTEX_POINT('',#386) ;
#416=VERTEX_POINT('',#415) ;
#423=VERTEX_POINT('',#422) ;
#447=VERTEX_POINT('',#446) ;
#454=VERTEX_POINT('',#453) ;
#478=VERTEX_POINT('',#477) ;
#507=VERTEX_POINT('',#506) ;
#609=VERTEX_POINT('',#608) ;
#611=VERTEX_POINT('',#610) ;
#41=(LENGTH_UNIT()NAMED_UNIT(*)SI_UNIT(.MILLI.,.METRE.)) ;
#42=(NAMED_UNIT(*)PLANE_ANGLE_UNIT()SI_UNIT($,.RADIAN.)) ;
#44=(NAMED_UNIT(*)SI_UNIT($,.STERADIAN.)SOLID_ANGLE_UNIT()) ;
#46=(GEOMETRIC_REPRESENTATION_CONTEXT(3)GLOBAL_UNCERTAINTY_ASSIGNED_CONTEXT((#45))GLOBAL_UNIT_ASSIGNED_CONTEXT((#41,#42,#44))REPRESENTATION_CONTEXT(' ',' ')) ;
ENDSEC;
END-ISO-10303-21;
