ISO-10303-21;
HEADER;
FILE_DESCRIPTION(('CATIA V5 STEP Exchange'),'2;1');

FILE_NAME('C:\\Users\\Hashaam\\Documents\\CAD_Project\\review\\MC_Inlet_live.stp','2026-10-06T14:40:15+00:00',('none'),('none'),'CATIA Version 5 Release 21 GA (IN-10)','CATIA V5 STEP AP203','none');

FILE_SCHEMA(('CONFIG_CONTROL_DESIGN'));

ENDSEC;
/* file written by CATIA V5R21 */
DATA;
#5=PRODUCT('Part15','','',(#2)) ;
#1=APPLICATION_CONTEXT('configuration controlled 3D design of mechanical parts and assemblies') ;
#14=PRODUCT_DEFINITION('',' ',#6,#3) ;
#16=SECURITY_CLASSIFICATION(' ',' ',#15) ;
#15=SECURITY_CLASSIFICATION_LEVEL('unclassified') ;
#47=CARTESIAN_POINT(' ',(0.,0.,0.)) ;
#52=CARTESIAN_POINT('Axis2P3D Location',(0.,0.,-1.03028696685E-013)) ;
#57=CARTESIAN_POINT('Line Origine',(-4.43727682856,-2.42409537957,0.5)) ;
#61=CARTESIAN_POINT('Vertex',(-3.99848554762,-2.18438261027,-1.03028696685E-013)) ;
#63=CARTESIAN_POINT('Vertex',(-4.87606810951,-2.66380814887,1.)) ;
#66=CARTESIAN_POINT('Axis2P3D Location',(0.,0.,1.)) ;
#70=CARTESIAN_POINT('Vertex',(4.87606810951,2.66380814887,1.)) ;
#73=CARTESIAN_POINT('Line Origine',(4.43727682856,2.42409537957,0.5)) ;
#77=CARTESIAN_POINT('Vertex',(3.99848554762,2.18438261027,-1.03028696685E-013)) ;
#80=CARTESIAN_POINT('Axis2P3D Location',(0.,0.,-1.03028696685E-013)) ;
#92=CARTESIAN_POINT('Axis2P3D Location',(0.,0.,1.)) ;
#97=CARTESIAN_POINT('Axis2P3D Location',(0.,0.,-1.03028696685E-013)) ;
#109=CARTESIAN_POINT('Axis2P3D Location',(0.,0.,11.2500000001)) ;
#114=CARTESIAN_POINT('Line Origine',(-4.87606810951,-2.66380814887,5.5)) ;
#118=CARTESIAN_POINT('Vertex',(-4.87606810951,-2.66380814887,10.)) ;
#121=CARTESIAN_POINT('Axis2P3D Location',(0.,0.,10.)) ;
#125=CARTESIAN_POINT('Vertex',(4.87606810951,2.66380814887,10.)) ;
#128=CARTESIAN_POINT('Line Origine',(4.87606810951,2.66380814887,5.5)) ;
#140=CARTESIAN_POINT('Axis2P3D Location',(0.,0.,10.)) ;
#152=CARTESIAN_POINT('Axis2P3D Location',(0.,0.,14.5)) ;
#157=CARTESIAN_POINT('Axis2P3D Location',(-2.63274768567,-1.43827661581,14.5)) ;
#161=CARTESIAN_POINT('Vertex',(-2.63274768567,-1.43827661581,14.)) ;
#163=CARTESIAN_POINT('Vertex',(-2.19395640473,-1.19856384651,14.5)) ;
#166=CARTESIAN_POINT('Axis2P3D Location',(0.,0.,14.5)) ;
#170=CARTESIAN_POINT('Vertex',(2.19395640473,1.19856384651,14.5)) ;
#173=CARTESIAN_POINT('Axis2P3D Location',(2.63274768567,1.43827661581,14.5)) ;
#177=CARTESIAN_POINT('Vertex',(2.63274768567,1.43827661581,14.)) ;
#180=CARTESIAN_POINT('Axis2P3D Location',(0.,0.,14.)) ;
#192=CARTESIAN_POINT('Axis2P3D Location',(0.,0.,14.5)) ;
#197=CARTESIAN_POINT('Axis2P3D Location',(0.,0.,14.)) ;
#209=CARTESIAN_POINT('Axis2P3D Location',(0.,0.,11.2500000001)) ;
#214=CARTESIAN_POINT('Line Origine',(-2.19395640473,-1.19856384651,17.75)) ;
#218=CARTESIAN_POINT('Vertex',(-2.19395640473,-1.19856384651,21.)) ;
#221=CARTESIAN_POINT('Axis2P3D Location',(0.,0.,21.)) ;
#225=CARTESIAN_POINT('Vertex',(2.19395640473,1.19856384651,21.)) ;
#228=CARTESIAN_POINT('Line Origine',(2.19395640473,1.19856384651,17.75)) ;
#240=CARTESIAN_POINT('Axis2P3D Location',(0.,0.,21.)) ;
#252=CARTESIAN_POINT('Axis2P3D Location',(0.,0.,11.2500000001)) ;
#257=CARTESIAN_POINT('Line Origine',(-2.63274768567,-1.43827661581,10.75)) ;
#261=CARTESIAN_POINT('Vertex',(-2.63274768567,-1.43827661581,21.)) ;
#263=CARTESIAN_POINT('Vertex',(-2.63274768567,-1.43827661581,21.5)) ;
#266=CARTESIAN_POINT('Axis2P3D Location',(0.,0.,21.5)) ;
#270=CARTESIAN_POINT('Vertex',(2.63274768567,1.43827661581,21.5)) ;
#273=CARTESIAN_POINT('Line Origine',(2.63274768567,1.43827661581,10.75)) ;
#277=CARTESIAN_POINT('Vertex',(2.63274768567,1.43827661581,21.)) ;
#280=CARTESIAN_POINT('Axis2P3D Location',(0.,0.,21.)) ;
#292=CARTESIAN_POINT('Axis2P3D Location',(0.,0.,21.5)) ;
#297=CARTESIAN_POINT('Axis2P3D Location',(0.,0.,21.)) ;
#309=CARTESIAN_POINT('Axis2P3D Location',(0.,0.,22.5)) ;
#314=CARTESIAN_POINT('Line Origine',(-2.19395640473,-1.19856384651,22.)) ;
#318=CARTESIAN_POINT('Vertex',(-1.75516512378,-0.95885107721,22.5)) ;
#321=CARTESIAN_POINT('Axis2P3D Location',(0.,0.,22.5)) ;
#325=CARTESIAN_POINT('Vertex',(1.75516512378,0.95885107721,22.5)) ;
#328=CARTESIAN_POINT('Line Origine',(2.19395640473,1.19856384651,22.)) ;
#340=CARTESIAN_POINT('Axis2P3D Location',(0.,0.,22.5)) ;
#352=CARTESIAN_POINT('Axis2P3D Location',(0.,0.,11.2500000001)) ;
#357=CARTESIAN_POINT('Line Origine',(-1.09697820237,-0.599281923256,16.7551814855)) ;
#361=CARTESIAN_POINT('Vertex',(-1.09697820237,-0.599281923256,22.5)) ;
#363=CARTESIAN_POINT('Vertex',(-1.09697820237,-0.599281923256,11.010362971)) ;
#366=CARTESIAN_POINT('Axis2P3D Location',(0.,0.,11.010362971)) ;
#370=CARTESIAN_POINT('Vertex',(1.09697820237,0.599281923256,11.010362971)) ;
#373=CARTESIAN_POINT('Line Origine',(1.09697820237,0.599281923256,16.7551814855)) ;
#377=CARTESIAN_POINT('Vertex',(1.09697820237,0.599281923256,22.5)) ;
#380=CARTESIAN_POINT('Axis2P3D Location',(0.,0.,22.5)) ;
#392=CARTESIAN_POINT('Axis2P3D Location',(0.,0.,11.010362971)) ;
#397=CARTESIAN_POINT('Axis2P3D Location',(0.,0.,22.5)) ;
#409=CARTESIAN_POINT('Axis2P3D Location',(0.,0.,11.010362971)) ;
#414=CARTESIAN_POINT('Line Origine',(-1.86486294402,-1.01877926954,10.5051814855)) ;
#418=CARTESIAN_POINT('Vertex',(-2.63274768567,-1.43827661581,10.)) ;
#421=CARTESIAN_POINT('Axis2P3D Location',(0.,0.,10.)) ;
#425=CARTESIAN_POINT('Vertex',(2.63274768567,1.43827661581,10.)) ;
#428=CARTESIAN_POINT('Line Origine',(1.86486294402,1.01877926954,10.5051814855)) ;
#440=CARTESIAN_POINT('Axis2P3D Location',(0.,0.,10.)) ;
#452=CARTESIAN_POINT('Line Origine',(-2.63274768567,-1.43827661581,10.75)) ;
#456=CARTESIAN_POINT('Vertex',(-2.63274768567,-1.43827661581,-1.03028696685E-013)) ;
#459=CARTESIAN_POINT('Axis2P3D Location',(0.,0.,-1.03028696685E-013)) ;
#463=CARTESIAN_POINT('Vertex',(2.63274768567,1.43827661581,-1.03028696685E-013)) ;
#466=CARTESIAN_POINT('Line Origine',(2.63274768567,1.43827661581,10.75)) ;
#478=CARTESIAN_POINT('Axis2P3D Location',(0.,0.,-1.03028696685E-013)) ;
#490=CARTESIAN_POINT('Axis2P3D Location',(3.,0.,-1.03028696685E-013)) ;
#504=CARTESIAN_POINT('Axis2P3D Location',(2.5,0.,21.)) ;
#518=CARTESIAN_POINT('Axis2P3D Location',(2.,0.,22.5)) ;
#532=CARTESIAN_POINT('Axis2P3D Location',(9.,0.,14.)) ;
#537=CARTESIAN_POINT('Axis2P3D Location',(0.,0.,14.)) ;
#541=CARTESIAN_POINT('Vertex',(-7.89824305701,-4.31482984744,14.)) ;
#543=CARTESIAN_POINT('Vertex',(-7.79422964872,-4.49999824257,14.)) ;
#546=CARTESIAN_POINT('Axis2P3D Location',(0.,0.,14.)) ;
#550=CARTESIAN_POINT('Vertex',(-5.13248913341E-005,-8.99999999985,14.)) ;
#553=CARTESIAN_POINT('Axis2P3D Location',(0.,0.,14.)) ;
#557=CARTESIAN_POINT('Vertex',(7.79421406208,-4.50002523931,14.)) ;
#560=CARTESIAN_POINT('Axis2P3D Location',(0.,0.,14.)) ;
#564=CARTESIAN_POINT('Vertex',(7.89824305701,4.31482984744,14.)) ;
#567=CARTESIAN_POINT('Axis2P3D Location',(0.,0.,14.)) ;
#571=CARTESIAN_POINT('Vertex',(7.79422964872,4.49999824256,14.)) ;
#574=CARTESIAN_POINT('Axis2P3D Location',(0.,0.,14.)) ;
#578=CARTESIAN_POINT('Vertex',(5.13248860513E-005,8.99999999985,14.)) ;
#581=CARTESIAN_POINT('Axis2P3D Location',(0.,0.,14.)) ;
#585=CARTESIAN_POINT('Vertex',(-7.79421406209,4.50002523929,14.)) ;
#588=CARTESIAN_POINT('Axis2P3D Location',(0.,0.,14.)) ;
#608=CARTESIAN_POINT('Axis2P3D Location',(5.55625,0.,10.)) ;
#613=CARTESIAN_POINT('Axis2P3D Location',(0.,0.,10.)) ;
#617=CARTESIAN_POINT('Vertex',(-7.79422863428,4.49999999952,10.)) ;
#619=CARTESIAN_POINT('Vertex',(-7.89824305701,-4.31482984744,10.)) ;
#622=CARTESIAN_POINT('Axis2P3D Location',(0.,0.,10.)) ;
#626=CARTESIAN_POINT('Vertex',(4.54787574787E-015,9.,10.)) ;
#629=CARTESIAN_POINT('Axis2P3D Location',(0.,0.,10.)) ;
#633=CARTESIAN_POINT('Vertex',(7.79423111219,4.49999570775,10.)) ;
#636=CARTESIAN_POINT('Axis2P3D Location',(0.,0.,10.)) ;
#640=CARTESIAN_POINT('Vertex',(7.89824305701,4.31482984744,10.)) ;
#643=CARTESIAN_POINT('Axis2P3D Location',(0.,0.,10.)) ;
#647=CARTESIAN_POINT('Vertex',(7.79422863432,-4.49999999954,10.)) ;
#650=CARTESIAN_POINT('Axis2P3D Location',(0.,0.,10.)) ;
#654=CARTESIAN_POINT('Vertex',(-1.66405115342E-007,-9.,10.)) ;
#657=CARTESIAN_POINT('Axis2P3D Location',(0.,0.,10.)) ;
#661=CARTESIAN_POINT('Vertex',(-7.79423111219,-4.49999570775,10.)) ;
#664=CARTESIAN_POINT('Axis2P3D Location',(0.,0.,10.)) ;
#684=CARTESIAN_POINT('Axis2P3D Location',(0.,0.,14.)) ;
#690=CARTESIAN_POINT('Control Point',(5.19615242188,-9.,13.196152423)) ;
#691=CARTESIAN_POINT('Control Point',(3.882369305,-9.,13.575408941)) ;
#692=CARTESIAN_POINT('Control Point',(2.57119148797,-8.9999994966,13.8584853537)) ;
#693=CARTESIAN_POINT('Control Point',(1.28577857873,-9.,13.9999999974)) ;
#694=CARTESIAN_POINT('Control Point',(3.16756305629E-008,-9.,14.)) ;
#695=CARTESIAN_POINT('Vertex',(5.19615242272,-8.99999999952,13.196152423)) ;
#699=CARTESIAN_POINT('Control Point',(7.7942286487,-4.49999997465,14.)) ;
#700=CARTESIAN_POINT('Control Point',(7.15133912096,-5.61351730049,14.0000000024)) ;
#701=CARTESIAN_POINT('Control Point',(6.50863247011,-6.72671681173,13.8584852519)) ;
#702=CARTESIAN_POINT('Control Point',(5.85304424175,-7.8622299947,13.575409091)) ;
#703=CARTESIAN_POINT('Control Point',(5.19615242356,-8.99999999903,13.196152423)) ;
#712=CARTESIAN_POINT('Control Point',(7.9004428419,4.3160315954,13.9985527898)) ;
#713=CARTESIAN_POINT('Control Point',(8.51682828175,3.2484206964,13.9817581421)) ;
#714=CARTESIAN_POINT('Control Point',(9.13392519889,2.17957659191,13.834934997)) ;
#715=CARTESIAN_POINT('Control Point',(9.76254745875,1.09077178958,13.5597430195)) ;
#716=CARTESIAN_POINT('Control Point',(10.392304845,-1.90958360236E-014,13.196152423)) ;
#717=CARTESIAN_POINT('Vertex',(7.9004428419,4.3160315954,13.9985527898)) ;
#719=CARTESIAN_POINT('Vertex',(10.392304845,6.68492438546E-015,13.196152423)) ;
#722=CARTESIAN_POINT('Line Origine',(8.50917428342,4.64858309755,13.5980762115)) ;
#728=CARTESIAN_POINT('Control Point',(10.392304845,-8.881784197E-016,13.196152423)) ;
#729=CARTESIAN_POINT('Control Point',(9.73541328613,-1.13776955519,13.5754089413)) ;
#730=CARTESIAN_POINT('Control Point',(9.07982394082,-2.27328260338,13.8584853543)) ;
#731=CARTESIAN_POINT('Control Point',(8.43711792265,-3.38648308837,13.9999999976)) ;
#732=CARTESIAN_POINT('Control Point',(7.7942286487,-4.49999997465,14.)) ;
#741=CARTESIAN_POINT('Line Origine',(-8.50917428342,-4.64858309755,13.5980762115)) ;
#745=CARTESIAN_POINT('Vertex',(-7.9004428419,-4.3160315954,13.9985527898)) ;
#749=CARTESIAN_POINT('Control Point',(-7.79422796531,-4.50000113393,14.000000007)) ;
#750=CARTESIAN_POINT('Control Point',(-7.82963196794,-4.43867962331,14.000000007)) ;
#751=CARTESIAN_POINT('Control Point',(-7.86503591511,-4.37735819156,13.999517522)) ;
#752=CARTESIAN_POINT('Control Point',(-7.9004428419,-4.3160315954,13.9985527898)) ;
#761=CARTESIAN_POINT('Control Point',(3.1675631007E-008,-9.,14.)) ;
#762=CARTESIAN_POINT('Control Point',(-1.28577902441,-9.,14.0000000026)) ;
#763=CARTESIAN_POINT('Control Point',(-2.57119140807,-8.99999946884,13.858485252)) ;
#764=CARTESIAN_POINT('Control Point',(-3.88236878488,-9.,13.5754090912)) ;
#765=CARTESIAN_POINT('Control Point',(-5.19615242188,-9.,13.196152423)) ;
#766=CARTESIAN_POINT('Vertex',(-5.19615242272,-8.99999999952,13.196152423)) ;
#770=CARTESIAN_POINT('Control Point',(-5.19615242356,-8.99999999903,13.196152423)) ;
#771=CARTESIAN_POINT('Control Point',(-5.85304092674,-7.86223573646,13.5754071771)) ;
#772=CARTESIAN_POINT('Control Point',(-6.50861811844,-6.72674246302,13.8584816922)) ;
#773=CARTESIAN_POINT('Control Point',(-7.15134059572,-5.61351434548,14.000000007)) ;
#774=CARTESIAN_POINT('Control Point',(-7.79422796531,-4.50000113393,14.000000007)) ;
#783=CARTESIAN_POINT('Control Point',(-5.19615242188,9.,13.196152423)) ;
#784=CARTESIAN_POINT('Control Point',(-3.88236931118,9.,13.5754089392)) ;
#785=CARTESIAN_POINT('Control Point',(-2.57119150026,8.9999994966,13.8584853511)) ;
#786=CARTESIAN_POINT('Control Point',(-1.28577859693,9.,13.9999999954)) ;
#787=CARTESIAN_POINT('Control Point',(-5.59242190334E-008,9.,14.)) ;
#788=CARTESIAN_POINT('Vertex',(-5.19615242272,8.99999999952,13.196152423)) ;
#792=CARTESIAN_POINT('Control Point',(-7.79422863432,4.49999999954,14.)) ;
#793=CARTESIAN_POINT('Control Point',(-7.15133911018,5.61351731917,14.)) ;
#794=CARTESIAN_POINT('Control Point',(-6.5086324628,6.7267168244,13.8584852487)) ;
#795=CARTESIAN_POINT('Control Point',(-5.85304423808,7.86223000105,13.5754090889)) ;
#796=CARTESIAN_POINT('Control Point',(-5.19615242356,8.99999999903,13.196152423)) ;
#805=CARTESIAN_POINT('Control Point',(-10.392304845,-8.881784197E-016,13.196152423)) ;
#806=CARTESIAN_POINT('Control Point',(-9.73541328246,1.13776956153,13.5754089434)) ;
#807=CARTESIAN_POINT('Control Point',(-9.07982393355,2.27328261598,13.8584853574)) ;
#808=CARTESIAN_POINT('Control Point',(-8.43711791186,3.38648310706,14.)) ;
#809=CARTESIAN_POINT('Control Point',(-7.79422863432,4.49999999954,14.)) ;
#810=CARTESIAN_POINT('Vertex',(-10.392304845,-3.34246219273E-015,13.196152423)) ;
#814=CARTESIAN_POINT('Control Point',(-7.9004428419,-4.3160315954,13.9985527898)) ;
#815=CARTESIAN_POINT('Control Point',(-8.51682828175,-3.24842069639,13.9817581421)) ;
#816=CARTESIAN_POINT('Control Point',(-9.1339251989,-2.17957659189,13.834934997)) ;
#817=CARTESIAN_POINT('Control Point',(-9.76254745874,-1.09077178958,13.5597430195)) ;
#818=CARTESIAN_POINT('Control Point',(-10.392304845,1.7763568394E-014,13.196152423)) ;
#828=CARTESIAN_POINT('Control Point',(7.79422796531,4.50000113393,14.000000007)) ;
#829=CARTESIAN_POINT('Control Point',(7.82963196794,4.43867962331,14.000000007)) ;
#830=CARTESIAN_POINT('Control Point',(7.86503591511,4.37735819156,13.999517522)) ;
#831=CARTESIAN_POINT('Control Point',(7.9004428419,4.3160315954,13.9985527898)) ;
#840=CARTESIAN_POINT('Control Point',(-5.59242190334E-008,9.,14.)) ;
#841=CARTESIAN_POINT('Control Point',(1.28577900625,9.,14.0000000046)) ;
#842=CARTESIAN_POINT('Control Point',(2.57119139567,8.99999946884,13.8584852547)) ;
#843=CARTESIAN_POINT('Control Point',(3.88236877866,9.,13.575409093)) ;
#844=CARTESIAN_POINT('Control Point',(5.19615242188,9.,13.196152423)) ;
#845=CARTESIAN_POINT('Vertex',(5.19615242272,8.99999999952,13.196152423)) ;
#849=CARTESIAN_POINT('Control Point',(5.19615242356,8.99999999903,13.196152423)) ;
#850=CARTESIAN_POINT('Control Point',(5.85304092675,7.86223573644,13.5754071771)) ;
#851=CARTESIAN_POINT('Control Point',(6.50861811846,6.72674246299,13.8584816922)) ;
#852=CARTESIAN_POINT('Control Point',(7.15134059571,5.6135143455,14.000000007)) ;
#853=CARTESIAN_POINT('Control Point',(7.79422796531,4.50000113393,14.000000007)) ;
#861=CARTESIAN_POINT('Axis2P3D Location',(0.,0.,10.)) ;
#867=CARTESIAN_POINT('Control Point',(7.79422863432,-4.49999999954,10.)) ;
#868=CARTESIAN_POINT('Control Point',(8.43711815848,-3.38648267991,10.)) ;
#869=CARTESIAN_POINT('Control Point',(9.07982388563,-2.27328264346,10.1415147513)) ;
#870=CARTESIAN_POINT('Control Point',(9.73541303048,-1.13776999798,10.4245909111)) ;
#871=CARTESIAN_POINT('Control Point',(10.392304845,6.66133814775E-015,10.803847577)) ;
#872=CARTESIAN_POINT('Vertex',(10.392304845,-3.02359591916E-014,10.803847577)) ;
#875=CARTESIAN_POINT('Line Origine',(8.50917428342,4.64858309755,10.4019237885)) ;
#879=CARTESIAN_POINT('Vertex',(7.9004428419,4.3160315954,10.0014472102)) ;
#883=CARTESIAN_POINT('Control Point',(7.9004428419,4.3160315954,10.0014472102)) ;
#884=CARTESIAN_POINT('Control Point',(8.51682828174,3.24842069641,10.0182418579)) ;
#885=CARTESIAN_POINT('Control Point',(9.13392519887,2.17957659194,10.165065003)) ;
#886=CARTESIAN_POINT('Control Point',(9.76254745875,1.09077178957,10.4402569806)) ;
#887=CARTESIAN_POINT('Control Point',(10.392304845,-3.01980662698E-014,10.803847577)) ;
#897=CARTESIAN_POINT('Control Point',(-1.66405114577E-007,-9.,10.)) ;
#898=CARTESIAN_POINT('Control Point',(1.28577892339,-9.,9.99999998627)) ;
#899=CARTESIAN_POINT('Control Point',(2.57119133937,-8.99999946884,10.1415147332)) ;
#900=CARTESIAN_POINT('Control Point',(3.88236875043,-9.,10.4245908989)) ;
#901=CARTESIAN_POINT('Control Point',(5.19615242188,-9.,10.803847577)) ;
#902=CARTESIAN_POINT('Vertex',(5.19615242188,-9.,10.803847577)) ;
#906=CARTESIAN_POINT('Control Point',(5.19615242356,-8.99999999903,10.803847577)) ;
#907=CARTESIAN_POINT('Control Point',(5.85304398611,-7.86223043748,10.4245910566)) ;
#908=CARTESIAN_POINT('Control Point',(6.50863246306,-6.72671687946,10.1415146426)) ;
#909=CARTESIAN_POINT('Control Point',(7.15133935678,-5.61351689205,10.)) ;
#910=CARTESIAN_POINT('Control Point',(7.79422863432,-4.49999999954,10.)) ;
#919=CARTESIAN_POINT('Control Point',(-7.79422795381,-4.50000115347,9.99999999285)) ;
#920=CARTESIAN_POINT('Control Point',(-7.15134048613,-5.61351452844,9.99999999285)) ;
#921=CARTESIAN_POINT('Control Point',(-6.50861734263,-6.72674378073,10.1415185983)) ;
#922=CARTESIAN_POINT('Control Point',(-5.85304102733,-7.86223556224,10.4245927648)) ;
#923=CARTESIAN_POINT('Control Point',(-5.19615242356,-8.99999999903,10.803847577)) ;
#924=CARTESIAN_POINT('Vertex',(-5.19615242356,-8.99999999903,10.803847577)) ;
#928=CARTESIAN_POINT('Control Point',(-5.19615242188,-9.,10.803847577)) ;
#929=CARTESIAN_POINT('Control Point',(-3.88236933941,-9.,10.4245910689)) ;
#930=CARTESIAN_POINT('Control Point',(-2.57119155655,-8.9999994966,10.1415146611)) ;
#931=CARTESIAN_POINT('Control Point',(-1.28577867978,-9.,10.0000000137)) ;
#932=CARTESIAN_POINT('Control Point',(-1.66405115465E-007,-9.,10.)) ;
#940=CARTESIAN_POINT('Line Origine',(-8.50917428342,-4.64858309755,10.4019237885)) ;
#944=CARTESIAN_POINT('Vertex',(-7.9004428419,-4.3160315954,10.0014472102)) ;
#948=CARTESIAN_POINT('Control Point',(-7.9004428419,-4.3160315954,10.0014472102)) ;
#949=CARTESIAN_POINT('Control Point',(-7.86503591126,-4.37735819822,10.0004824779)) ;
#950=CARTESIAN_POINT('Control Point',(-7.82963196025,-4.43867963659,9.99999999285)) ;
#951=CARTESIAN_POINT('Control Point',(-7.79422795381,-4.50000115347,9.99999999285)) ;
#960=CARTESIAN_POINT('Control Point',(-7.79422863432,4.49999999954,10.)) ;
#961=CARTESIAN_POINT('Control Point',(-8.43711815847,3.38648267992,10.)) ;
#962=CARTESIAN_POINT('Control Point',(-9.07982388564,2.27328264345,10.1415147513)) ;
#963=CARTESIAN_POINT('Control Point',(-9.73541303049,1.13776999797,10.4245909111)) ;
#964=CARTESIAN_POINT('Control Point',(-10.392304845,-3.5527136788E-015,10.803847577)) ;
#965=CARTESIAN_POINT('Vertex',(-10.392304845,2.89633109372E-014,10.803847577)) ;
#969=CARTESIAN_POINT('Control Point',(-7.9004428419,-4.3160315954,10.0014472102)) ;
#970=CARTESIAN_POINT('Control Point',(-8.51682828175,-3.2484206964,10.0182418579)) ;
#971=CARTESIAN_POINT('Control Point',(-9.13392519887,-2.17957659194,10.165065003)) ;
#972=CARTESIAN_POINT('Control Point',(-9.76254745875,-1.09077178957,10.4402569805)) ;
#973=CARTESIAN_POINT('Control Point',(-10.392304845,2.88657986403E-014,10.803847577)) ;
#983=CARTESIAN_POINT('Control Point',(4.4408920985E-015,9.,10.)) ;
#984=CARTESIAN_POINT('Control Point',(-1.28577904817,9.,10.)) ;
#985=CARTESIAN_POINT('Control Point',(-2.57119142422,8.99999946884,10.1415147515)) ;
#986=CARTESIAN_POINT('Control Point',(-3.88236879297,9.,10.4245909112)) ;
#987=CARTESIAN_POINT('Control Point',(-5.19615242188,9.,10.803847577)) ;
#988=CARTESIAN_POINT('Vertex',(-5.19615242188,9.,10.803847577)) ;
#992=CARTESIAN_POINT('Control Point',(-5.19615242356,8.99999999903,10.803847577)) ;
#993=CARTESIAN_POINT('Control Point',(-5.85304398611,7.86223043748,10.4245910566)) ;
#994=CARTESIAN_POINT('Control Point',(-6.50863246305,6.72671687948,10.1415146426)) ;
#995=CARTESIAN_POINT('Control Point',(-7.15133935678,5.61351689205,10.)) ;
#996=CARTESIAN_POINT('Control Point',(-7.79422863432,4.49999999954,10.)) ;
#1005=CARTESIAN_POINT('Control Point',(7.7942279538,4.50000115348,9.99999999285)) ;
#1006=CARTESIAN_POINT('Control Point',(7.15134048612,5.61351452844,9.99999999285)) ;
#1007=CARTESIAN_POINT('Control Point',(6.50861734264,6.72674378071,10.1415185983)) ;
#1008=CARTESIAN_POINT('Control Point',(5.85304102733,7.86223556224,10.4245927648)) ;
#1009=CARTESIAN_POINT('Control Point',(5.19615242356,8.99999999903,10.803847577)) ;
#1010=CARTESIAN_POINT('Vertex',(5.19615242356,8.99999999903,10.803847577)) ;
#1014=CARTESIAN_POINT('Control Point',(5.19615242188,9.,10.803847577)) ;
#1015=CARTESIAN_POINT('Control Point',(3.88236929691,9.,10.4245910566)) ;
#1016=CARTESIAN_POINT('Control Point',(2.57119147181,8.9999994966,10.1415146428)) ;
#1017=CARTESIAN_POINT('Control Point',(1.28577855497,9.,10.)) ;
#1018=CARTESIAN_POINT('Control Point',(4.4408920985E-015,9.,10.)) ;
#1027=CARTESIAN_POINT('Control Point',(7.9004428419,4.3160315954,10.0014472102)) ;
#1028=CARTESIAN_POINT('Control Point',(7.86503591126,4.37735819822,10.0004824779)) ;
#1029=CARTESIAN_POINT('Control Point',(7.82963196025,4.43867963659,9.99999999285)) ;
#1030=CARTESIAN_POINT('Control Point',(7.7942279538,4.50000115348,9.99999999285)) ;
#1038=CARTESIAN_POINT('Axis2P3D Location',(5.196152423,9.,14.)) ;
#1043=CARTESIAN_POINT('Line Origine',(5.196152423,9.,12.)) ;
#1048=CARTESIAN_POINT('Line Origine',(-5.196152423,9.,12.)) ;
#1062=CARTESIAN_POINT('Axis2P3D Location',(10.392304845,0.,14.)) ;
#1067=CARTESIAN_POINT('Line Origine',(10.392304845,0.,12.)) ;
#1083=CARTESIAN_POINT('Axis2P3D Location',(-5.196152423,-9.,14.)) ;
#1088=CARTESIAN_POINT('Line Origine',(-5.196152423,-9.,12.)) ;
#1093=CARTESIAN_POINT('Line Origine',(5.196152423,-9.,12.)) ;
#1107=CARTESIAN_POINT('Axis2P3D Location',(5.196152423,-9.,14.)) ;
#1121=CARTESIAN_POINT('Axis2P3D Location',(-10.392304845,0.,14.)) ;
#1126=CARTESIAN_POINT('Line Origine',(-10.392304845,0.,12.)) ;
#1142=CARTESIAN_POINT('Axis2P3D Location',(-5.196152423,9.,14.)) ;
#53=DIRECTION('Axis2P3D Direction',(0.,0.,1.)) ;
#54=DIRECTION('Axis2P3D XDirection',(0.87758256189,0.479425538604,0.)) ;
#58=DIRECTION('Vector Direction',(-0.620544580564,-0.339005049421,0.707106781187)) ;
#67=DIRECTION('Axis2P3D Direction',(0.,0.,1.)) ;
#74=DIRECTION('Vector Direction',(0.620544580564,0.339005049421,0.707106781187)) ;
#81=DIRECTION('Axis2P3D Direction',(0.,0.,1.)) ;
#93=DIRECTION('Axis2P3D Direction',(0.,0.,1.)) ;
#98=DIRECTION('Axis2P3D Direction',(0.,0.,1.)) ;
#110=DIRECTION('Axis2P3D Direction',(0.,0.,1.)) ;
#111=DIRECTION('Axis2P3D XDirection',(0.87758256189,0.479425538604,0.)) ;
#115=DIRECTION('Vector Direction',(0.,0.,1.)) ;
#122=DIRECTION('Axis2P3D Direction',(0.,0.,1.)) ;
#129=DIRECTION('Vector Direction',(0.,0.,1.)) ;
#141=DIRECTION('Axis2P3D Direction',(0.,0.,1.)) ;
#153=DIRECTION('Axis2P3D Direction',(0.,0.,1.)) ;
#154=DIRECTION('Axis2P3D XDirection',(0.87758256189,0.479425538604,0.)) ;
#158=DIRECTION('Axis2P3D Direction',(-0.479425538604,0.87758256189,0.)) ;
#167=DIRECTION('Axis2P3D Direction',(0.,0.,1.)) ;
#174=DIRECTION('Axis2P3D Direction',(0.479425538604,-0.87758256189,0.)) ;
#181=DIRECTION('Axis2P3D Direction',(0.,0.,1.)) ;
#193=DIRECTION('Axis2P3D Direction',(0.,0.,1.)) ;
#198=DIRECTION('Axis2P3D Direction',(0.,0.,1.)) ;
#210=DIRECTION('Axis2P3D Direction',(0.,0.,1.)) ;
#211=DIRECTION('Axis2P3D XDirection',(0.87758256189,0.479425538604,0.)) ;
#215=DIRECTION('Vector Direction',(0.,0.,1.)) ;
#222=DIRECTION('Axis2P3D Direction',(0.,0.,1.)) ;
#229=DIRECTION('Vector Direction',(0.,0.,1.)) ;
#241=DIRECTION('Axis2P3D Direction',(0.,0.,1.)) ;
#253=DIRECTION('Axis2P3D Direction',(0.,0.,1.)) ;
#254=DIRECTION('Axis2P3D XDirection',(0.87758256189,0.479425538604,0.)) ;
#258=DIRECTION('Vector Direction',(0.,0.,1.)) ;
#267=DIRECTION('Axis2P3D Direction',(0.,0.,1.)) ;
#274=DIRECTION('Vector Direction',(0.,0.,1.)) ;
#281=DIRECTION('Axis2P3D Direction',(0.,0.,1.)) ;
#293=DIRECTION('Axis2P3D Direction',(0.,0.,1.)) ;
#298=DIRECTION('Axis2P3D Direction',(0.,0.,1.)) ;
#310=DIRECTION('Axis2P3D Direction',(-0.,-0.,-1.)) ;
#311=DIRECTION('Axis2P3D XDirection',(0.87758256189,0.479425538604,0.)) ;
#315=DIRECTION('Vector Direction',(-0.620544580564,-0.339005049421,-0.707106781187)) ;
#322=DIRECTION('Axis2P3D Direction',(0.,0.,-1.)) ;
#329=DIRECTION('Vector Direction',(0.620544580564,0.339005049421,-0.707106781187)) ;
#341=DIRECTION('Axis2P3D Direction',(0.,0.,-1.)) ;
#353=DIRECTION('Axis2P3D Direction',(0.,0.,1.)) ;
#354=DIRECTION('Axis2P3D XDirection',(0.87758256189,0.479425538604,0.)) ;
#358=DIRECTION('Vector Direction',(0.,0.,1.)) ;
#367=DIRECTION('Axis2P3D Direction',(0.,0.,1.)) ;
#374=DIRECTION('Vector Direction',(0.,0.,1.)) ;
#381=DIRECTION('Axis2P3D Direction',(0.,0.,1.)) ;
#393=DIRECTION('Axis2P3D Direction',(0.,0.,1.)) ;
#398=DIRECTION('Axis2P3D Direction',(0.,0.,1.)) ;
#410=DIRECTION('Axis2P3D Direction',(-0.,-0.,-1.)) ;
#411=DIRECTION('Axis2P3D XDirection',(0.87758256189,0.479425538604,0.)) ;
#415=DIRECTION('Vector Direction',(-0.760008792531,-0.415194695663,-0.49999999997)) ;
#422=DIRECTION('Axis2P3D Direction',(0.,0.,-1.)) ;
#429=DIRECTION('Vector Direction',(0.760008792531,0.415194695663,-0.49999999997)) ;
#441=DIRECTION('Axis2P3D Direction',(0.,0.,-1.)) ;
#453=DIRECTION('Vector Direction',(0.,0.,1.)) ;
#460=DIRECTION('Axis2P3D Direction',(0.,0.,1.)) ;
#467=DIRECTION('Vector Direction',(0.,0.,1.)) ;
#479=DIRECTION('Axis2P3D Direction',(0.,0.,1.)) ;
#491=DIRECTION('Axis2P3D Direction',(0.,0.,1.)) ;
#492=DIRECTION('Axis2P3D XDirection',(1.,0.,0.)) ;
#505=DIRECTION('Axis2P3D Direction',(0.,0.,1.)) ;
#506=DIRECTION('Axis2P3D XDirection',(1.,0.,0.)) ;
#519=DIRECTION('Axis2P3D Direction',(0.,0.,1.)) ;
#520=DIRECTION('Axis2P3D XDirection',(1.,0.,0.)) ;
#533=DIRECTION('Axis2P3D Direction',(0.,0.,1.)) ;
#534=DIRECTION('Axis2P3D XDirection',(1.,0.,0.)) ;
#538=DIRECTION('Axis2P3D Direction',(0.,0.,1.)) ;
#547=DIRECTION('Axis2P3D Direction',(0.,0.,1.)) ;
#554=DIRECTION('Axis2P3D Direction',(0.,0.,1.)) ;
#561=DIRECTION('Axis2P3D Direction',(0.,0.,1.)) ;
#568=DIRECTION('Axis2P3D Direction',(0.,0.,1.)) ;
#575=DIRECTION('Axis2P3D Direction',(0.,0.,1.)) ;
#582=DIRECTION('Axis2P3D Direction',(0.,0.,1.)) ;
#589=DIRECTION('Axis2P3D Direction',(0.,0.,1.)) ;
#609=DIRECTION('Axis2P3D Direction',(0.,0.,1.)) ;
#610=DIRECTION('Axis2P3D XDirection',(1.,0.,0.)) ;
#614=DIRECTION('Axis2P3D Direction',(0.,0.,1.)) ;
#623=DIRECTION('Axis2P3D Direction',(0.,0.,1.)) ;
#630=DIRECTION('Axis2P3D Direction',(0.,0.,1.)) ;
#637=DIRECTION('Axis2P3D Direction',(0.,0.,1.)) ;
#644=DIRECTION('Axis2P3D Direction',(0.,0.,1.)) ;
#651=DIRECTION('Axis2P3D Direction',(0.,0.,1.)) ;
#658=DIRECTION('Axis2P3D Direction',(0.,0.,1.)) ;
#665=DIRECTION('Axis2P3D Direction',(0.,0.,1.)) ;
#685=DIRECTION('Axis2P3D Direction',(-0.,-0.,-1.)) ;
#686=DIRECTION('Axis2P3D XDirection',(0.87758256189,0.479425538604,0.)) ;
#723=DIRECTION('Vector Direction',(0.760008792528,0.415194695661,-0.499999999974)) ;
#742=DIRECTION('Vector Direction',(-0.760008792528,-0.415194695661,-0.499999999974)) ;
#862=DIRECTION('Axis2P3D Direction',(0.,0.,1.)) ;
#863=DIRECTION('Axis2P3D XDirection',(0.87758256189,0.479425538604,0.)) ;
#876=DIRECTION('Vector Direction',(0.760008792528,0.415194695661,0.499999999974)) ;
#941=DIRECTION('Vector Direction',(-0.760008792528,-0.415194695661,0.499999999974)) ;
#1039=DIRECTION('Axis2P3D Direction',(-0.,-1.,-0.)) ;
#1040=DIRECTION('Axis2P3D XDirection',(-1.,0.,0.)) ;
#1044=DIRECTION('Vector Direction',(0.,0.,1.)) ;
#1049=DIRECTION('Vector Direction',(0.,0.,-1.)) ;
#1063=DIRECTION('Axis2P3D Direction',(-0.866025403814,-0.499999999949,-0.)) ;
#1064=DIRECTION('Axis2P3D XDirection',(-0.499999999949,0.866025403814,0.)) ;
#1068=DIRECTION('Vector Direction',(0.,0.,-1.)) ;
#1084=DIRECTION('Axis2P3D Direction',(-0.,1.,0.)) ;
#1085=DIRECTION('Axis2P3D XDirection',(1.,0.,0.)) ;
#1089=DIRECTION('Vector Direction',(0.,0.,1.)) ;
#1094=DIRECTION('Vector Direction',(0.,0.,-1.)) ;
#1108=DIRECTION('Axis2P3D Direction',(-0.866025403814,0.499999999949,0.)) ;
#1109=DIRECTION('Axis2P3D XDirection',(0.499999999949,0.866025403814,0.)) ;
#1122=DIRECTION('Axis2P3D Direction',(0.866025403814,0.499999999949,0.)) ;
#1123=DIRECTION('Axis2P3D XDirection',(0.499999999949,-0.866025403814,0.)) ;
#1127=DIRECTION('Vector Direction',(0.,0.,1.)) ;
#1143=DIRECTION('Axis2P3D Direction',(0.866025403814,-0.499999999949,0.)) ;
#1144=DIRECTION('Axis2P3D XDirection',(-0.499999999949,-0.866025403814,-0.)) ;
#48=AXIS2_PLACEMENT_3D(' ',#47,$,$) ;
#55=AXIS2_PLACEMENT_3D('Cone Axis2P3D',#52,#53,#54) ;
#68=AXIS2_PLACEMENT_3D('Circle Axis2P3D',#66,#67,$) ;
#82=AXIS2_PLACEMENT_3D('Circle Axis2P3D',#80,#81,$) ;
#94=AXIS2_PLACEMENT_3D('Circle Axis2P3D',#92,#93,$) ;
#99=AXIS2_PLACEMENT_3D('Circle Axis2P3D',#97,#98,$) ;
#112=AXIS2_PLACEMENT_3D('Cylinder Axis2P3D',#109,#110,#111) ;
#123=AXIS2_PLACEMENT_3D('Circle Axis2P3D',#121,#122,$) ;
#142=AXIS2_PLACEMENT_3D('Circle Axis2P3D',#140,#141,$) ;
#155=AXIS2_PLACEMENT_3D('Torus Axis2P3D',#152,#153,#154) ;
#159=AXIS2_PLACEMENT_3D('Circle Axis2P3D',#157,#158,$) ;
#168=AXIS2_PLACEMENT_3D('Circle Axis2P3D',#166,#167,$) ;
#175=AXIS2_PLACEMENT_3D('Circle Axis2P3D',#173,#174,$) ;
#182=AXIS2_PLACEMENT_3D('Circle Axis2P3D',#180,#181,$) ;
#194=AXIS2_PLACEMENT_3D('Circle Axis2P3D',#192,#193,$) ;
#199=AXIS2_PLACEMENT_3D('Circle Axis2P3D',#197,#198,$) ;
#212=AXIS2_PLACEMENT_3D('Cylinder Axis2P3D',#209,#210,#211) ;
#223=AXIS2_PLACEMENT_3D('Circle Axis2P3D',#221,#222,$) ;
#242=AXIS2_PLACEMENT_3D('Circle Axis2P3D',#240,#241,$) ;
#255=AXIS2_PLACEMENT_3D('Cylinder Axis2P3D',#252,#253,#254) ;
#268=AXIS2_PLACEMENT_3D('Circle Axis2P3D',#266,#267,$) ;
#282=AXIS2_PLACEMENT_3D('Circle Axis2P3D',#280,#281,$) ;
#294=AXIS2_PLACEMENT_3D('Circle Axis2P3D',#292,#293,$) ;
#299=AXIS2_PLACEMENT_3D('Circle Axis2P3D',#297,#298,$) ;
#312=AXIS2_PLACEMENT_3D('Cone Axis2P3D',#309,#310,#311) ;
#323=AXIS2_PLACEMENT_3D('Circle Axis2P3D',#321,#322,$) ;
#342=AXIS2_PLACEMENT_3D('Circle Axis2P3D',#340,#341,$) ;
#355=AXIS2_PLACEMENT_3D('Cylinder Axis2P3D',#352,#353,#354) ;
#368=AXIS2_PLACEMENT_3D('Circle Axis2P3D',#366,#367,$) ;
#382=AXIS2_PLACEMENT_3D('Circle Axis2P3D',#380,#381,$) ;
#394=AXIS2_PLACEMENT_3D('Circle Axis2P3D',#392,#393,$) ;
#399=AXIS2_PLACEMENT_3D('Circle Axis2P3D',#397,#398,$) ;
#412=AXIS2_PLACEMENT_3D('Cone Axis2P3D',#409,#410,#411) ;
#423=AXIS2_PLACEMENT_3D('Circle Axis2P3D',#421,#422,$) ;
#442=AXIS2_PLACEMENT_3D('Circle Axis2P3D',#440,#441,$) ;
#461=AXIS2_PLACEMENT_3D('Circle Axis2P3D',#459,#460,$) ;
#480=AXIS2_PLACEMENT_3D('Circle Axis2P3D',#478,#479,$) ;
#493=AXIS2_PLACEMENT_3D('Plane Axis2P3D',#490,#491,#492) ;
#507=AXIS2_PLACEMENT_3D('Plane Axis2P3D',#504,#505,#506) ;
#521=AXIS2_PLACEMENT_3D('Plane Axis2P3D',#518,#519,#520) ;
#535=AXIS2_PLACEMENT_3D('Plane Axis2P3D',#532,#533,#534) ;
#539=AXIS2_PLACEMENT_3D('Circle Axis2P3D',#537,#538,$) ;
#548=AXIS2_PLACEMENT_3D('Circle Axis2P3D',#546,#547,$) ;
#555=AXIS2_PLACEMENT_3D('Circle Axis2P3D',#553,#554,$) ;
#562=AXIS2_PLACEMENT_3D('Circle Axis2P3D',#560,#561,$) ;
#569=AXIS2_PLACEMENT_3D('Circle Axis2P3D',#567,#568,$) ;
#576=AXIS2_PLACEMENT_3D('Circle Axis2P3D',#574,#575,$) ;
#583=AXIS2_PLACEMENT_3D('Circle Axis2P3D',#581,#582,$) ;
#590=AXIS2_PLACEMENT_3D('Circle Axis2P3D',#588,#589,$) ;
#611=AXIS2_PLACEMENT_3D('Plane Axis2P3D',#608,#609,#610) ;
#615=AXIS2_PLACEMENT_3D('Circle Axis2P3D',#613,#614,$) ;
#624=AXIS2_PLACEMENT_3D('Circle Axis2P3D',#622,#623,$) ;
#631=AXIS2_PLACEMENT_3D('Circle Axis2P3D',#629,#630,$) ;
#638=AXIS2_PLACEMENT_3D('Circle Axis2P3D',#636,#637,$) ;
#645=AXIS2_PLACEMENT_3D('Circle Axis2P3D',#643,#644,$) ;
#652=AXIS2_PLACEMENT_3D('Circle Axis2P3D',#650,#651,$) ;
#659=AXIS2_PLACEMENT_3D('Circle Axis2P3D',#657,#658,$) ;
#666=AXIS2_PLACEMENT_3D('Circle Axis2P3D',#664,#665,$) ;
#687=AXIS2_PLACEMENT_3D('Cone Axis2P3D',#684,#685,#686) ;
#864=AXIS2_PLACEMENT_3D('Cone Axis2P3D',#861,#862,#863) ;
#1041=AXIS2_PLACEMENT_3D('Plane Axis2P3D',#1038,#1039,#1040) ;
#1065=AXIS2_PLACEMENT_3D('Plane Axis2P3D',#1062,#1063,#1064) ;
#1086=AXIS2_PLACEMENT_3D('Plane Axis2P3D',#1083,#1084,#1085) ;
#1110=AXIS2_PLACEMENT_3D('Plane Axis2P3D',#1107,#1108,#1109) ;
#1124=AXIS2_PLACEMENT_3D('Plane Axis2P3D',#1121,#1122,#1123) ;
#1145=AXIS2_PLACEMENT_3D('Plane Axis2P3D',#1142,#1143,#1144) ;
#40=PRODUCT_DEFINITION_SHAPE(' ',' ',#14) ;
#31=APPROVAL_PERSON_ORGANIZATION(#25,#21,#19) ;
#25=PERSON_AND_ORGANIZATION(#22,#23) ;
#22=PERSON(' ',' ',' ',$,$,$) ;
#23=ORGANIZATION(' ',' ',' ') ;
#21=APPROVAL(#20,' ') ;
#20=APPROVAL_STATUS('not_yet_approved') ;
#19=APPROVAL_ROLE('APPROVER') ;
#13=DATE_AND_TIME(#11,#12) ;
#12=LOCAL_TIME(16,39,48.,#10) ;
#10=COORDINATED_UNIVERSAL_TIME_OFFSET(0,0,.AHEAD.) ;
#86=ORIENTED_EDGE('',*,*,#65,.T.) ;
#87=ORIENTED_EDGE('',*,*,#72,.F.) ;
#88=ORIENTED_EDGE('',*,*,#79,.F.) ;
#89=ORIENTED_EDGE('',*,*,#84,.T.) ;
#103=ORIENTED_EDGE('',*,*,#79,.T.) ;
#104=ORIENTED_EDGE('',*,*,#96,.F.) ;
#105=ORIENTED_EDGE('',*,*,#65,.F.) ;
#106=ORIENTED_EDGE('',*,*,#101,.T.) ;
#134=ORIENTED_EDGE('',*,*,#120,.T.) ;
#135=ORIENTED_EDGE('',*,*,#127,.F.) ;
#136=ORIENTED_EDGE('',*,*,#132,.F.) ;
#137=ORIENTED_EDGE('',*,*,#72,.T.) ;
#146=ORIENTED_EDGE('',*,*,#132,.T.) ;
#147=ORIENTED_EDGE('',*,*,#144,.F.) ;
#148=ORIENTED_EDGE('',*,*,#120,.F.) ;
#149=ORIENTED_EDGE('',*,*,#96,.T.) ;
#186=ORIENTED_EDGE('',*,*,#165,.T.) ;
#187=ORIENTED_EDGE('',*,*,#172,.F.) ;
#188=ORIENTED_EDGE('',*,*,#179,.F.) ;
#189=ORIENTED_EDGE('',*,*,#184,.T.) ;
#203=ORIENTED_EDGE('',*,*,#179,.T.) ;
#204=ORIENTED_EDGE('',*,*,#196,.F.) ;
#205=ORIENTED_EDGE('',*,*,#165,.F.) ;
#206=ORIENTED_EDGE('',*,*,#201,.T.) ;
#234=ORIENTED_EDGE('',*,*,#220,.T.) ;
#235=ORIENTED_EDGE('',*,*,#227,.F.) ;
#236=ORIENTED_EDGE('',*,*,#232,.F.) ;
#237=ORIENTED_EDGE('',*,*,#172,.T.) ;
#246=ORIENTED_EDGE('',*,*,#232,.T.) ;
#247=ORIENTED_EDGE('',*,*,#244,.F.) ;
#248=ORIENTED_EDGE('',*,*,#220,.F.) ;
#249=ORIENTED_EDGE('',*,*,#196,.T.) ;
#286=ORIENTED_EDGE('',*,*,#265,.T.) ;
#287=ORIENTED_EDGE('',*,*,#272,.F.) ;
#288=ORIENTED_EDGE('',*,*,#279,.F.) ;
#289=ORIENTED_EDGE('',*,*,#284,.T.) ;
#303=ORIENTED_EDGE('',*,*,#279,.T.) ;
#304=ORIENTED_EDGE('',*,*,#296,.F.) ;
#305=ORIENTED_EDGE('',*,*,#265,.F.) ;
#306=ORIENTED_EDGE('',*,*,#301,.T.) ;
#334=ORIENTED_EDGE('',*,*,#320,.T.) ;
#335=ORIENTED_EDGE('',*,*,#327,.F.) ;
#336=ORIENTED_EDGE('',*,*,#332,.F.) ;
#337=ORIENTED_EDGE('',*,*,#272,.T.) ;
#346=ORIENTED_EDGE('',*,*,#332,.T.) ;
#347=ORIENTED_EDGE('',*,*,#344,.F.) ;
#348=ORIENTED_EDGE('',*,*,#320,.F.) ;
#349=ORIENTED_EDGE('',*,*,#296,.T.) ;
#386=ORIENTED_EDGE('',*,*,#365,.T.) ;
#387=ORIENTED_EDGE('',*,*,#372,.F.) ;
#388=ORIENTED_EDGE('',*,*,#379,.F.) ;
#389=ORIENTED_EDGE('',*,*,#384,.T.) ;
#403=ORIENTED_EDGE('',*,*,#379,.T.) ;
#404=ORIENTED_EDGE('',*,*,#396,.F.) ;
#405=ORIENTED_EDGE('',*,*,#365,.F.) ;
#406=ORIENTED_EDGE('',*,*,#401,.T.) ;
#434=ORIENTED_EDGE('',*,*,#420,.T.) ;
#435=ORIENTED_EDGE('',*,*,#427,.F.) ;
#436=ORIENTED_EDGE('',*,*,#432,.F.) ;
#437=ORIENTED_EDGE('',*,*,#372,.T.) ;
#446=ORIENTED_EDGE('',*,*,#432,.T.) ;
#447=ORIENTED_EDGE('',*,*,#444,.F.) ;
#448=ORIENTED_EDGE('',*,*,#420,.F.) ;
#449=ORIENTED_EDGE('',*,*,#396,.T.) ;
#472=ORIENTED_EDGE('',*,*,#458,.T.) ;
#473=ORIENTED_EDGE('',*,*,#465,.F.) ;
#474=ORIENTED_EDGE('',*,*,#470,.F.) ;
#475=ORIENTED_EDGE('',*,*,#427,.T.) ;
#484=ORIENTED_EDGE('',*,*,#470,.T.) ;
#485=ORIENTED_EDGE('',*,*,#482,.F.) ;
#486=ORIENTED_EDGE('',*,*,#458,.F.) ;
#487=ORIENTED_EDGE('',*,*,#444,.T.) ;
#496=ORIENTED_EDGE('',*,*,#84,.F.) ;
#497=ORIENTED_EDGE('',*,*,#101,.F.) ;
#500=ORIENTED_EDGE('',*,*,#482,.T.) ;
#501=ORIENTED_EDGE('',*,*,#465,.T.) ;
#510=ORIENTED_EDGE('',*,*,#284,.F.) ;
#511=ORIENTED_EDGE('',*,*,#301,.F.) ;
#514=ORIENTED_EDGE('',*,*,#244,.T.) ;
#515=ORIENTED_EDGE('',*,*,#227,.T.) ;
#524=ORIENTED_EDGE('',*,*,#344,.T.) ;
#525=ORIENTED_EDGE('',*,*,#327,.T.) ;
#528=ORIENTED_EDGE('',*,*,#384,.F.) ;
#529=ORIENTED_EDGE('',*,*,#401,.F.) ;
#594=ORIENTED_EDGE('',*,*,#545,.T.) ;
#595=ORIENTED_EDGE('',*,*,#552,.T.) ;
#596=ORIENTED_EDGE('',*,*,#559,.T.) ;
#597=ORIENTED_EDGE('',*,*,#566,.T.) ;
#598=ORIENTED_EDGE('',*,*,#573,.T.) ;
#599=ORIENTED_EDGE('',*,*,#580,.T.) ;
#600=ORIENTED_EDGE('',*,*,#587,.T.) ;
#601=ORIENTED_EDGE('',*,*,#592,.T.) ;
#604=ORIENTED_EDGE('',*,*,#184,.F.) ;
#605=ORIENTED_EDGE('',*,*,#201,.F.) ;
#670=ORIENTED_EDGE('',*,*,#621,.F.) ;
#671=ORIENTED_EDGE('',*,*,#628,.F.) ;
#672=ORIENTED_EDGE('',*,*,#635,.F.) ;
#673=ORIENTED_EDGE('',*,*,#642,.F.) ;
#674=ORIENTED_EDGE('',*,*,#649,.F.) ;
#675=ORIENTED_EDGE('',*,*,#656,.F.) ;
#676=ORIENTED_EDGE('',*,*,#663,.F.) ;
#677=ORIENTED_EDGE('',*,*,#668,.F.) ;
#680=ORIENTED_EDGE('',*,*,#144,.T.) ;
#681=ORIENTED_EDGE('',*,*,#127,.T.) ;
#706=ORIENTED_EDGE('',*,*,#559,.F.) ;
#707=ORIENTED_EDGE('',*,*,#697,.F.) ;
#708=ORIENTED_EDGE('',*,*,#704,.F.) ;
#735=ORIENTED_EDGE('',*,*,#721,.F.) ;
#736=ORIENTED_EDGE('',*,*,#726,.T.) ;
#737=ORIENTED_EDGE('',*,*,#566,.F.) ;
#738=ORIENTED_EDGE('',*,*,#733,.F.) ;
#755=ORIENTED_EDGE('',*,*,#545,.F.) ;
#756=ORIENTED_EDGE('',*,*,#747,.F.) ;
#757=ORIENTED_EDGE('',*,*,#753,.F.) ;
#777=ORIENTED_EDGE('',*,*,#768,.F.) ;
#778=ORIENTED_EDGE('',*,*,#552,.F.) ;
#779=ORIENTED_EDGE('',*,*,#775,.F.) ;
#799=ORIENTED_EDGE('',*,*,#587,.F.) ;
#800=ORIENTED_EDGE('',*,*,#790,.F.) ;
#801=ORIENTED_EDGE('',*,*,#797,.F.) ;
#821=ORIENTED_EDGE('',*,*,#812,.F.) ;
#822=ORIENTED_EDGE('',*,*,#819,.F.) ;
#823=ORIENTED_EDGE('',*,*,#747,.T.) ;
#824=ORIENTED_EDGE('',*,*,#592,.F.) ;
#834=ORIENTED_EDGE('',*,*,#573,.F.) ;
#835=ORIENTED_EDGE('',*,*,#726,.F.) ;
#836=ORIENTED_EDGE('',*,*,#832,.F.) ;
#856=ORIENTED_EDGE('',*,*,#847,.F.) ;
#857=ORIENTED_EDGE('',*,*,#580,.F.) ;
#858=ORIENTED_EDGE('',*,*,#854,.F.) ;
#890=ORIENTED_EDGE('',*,*,#874,.F.) ;
#891=ORIENTED_EDGE('',*,*,#649,.T.) ;
#892=ORIENTED_EDGE('',*,*,#881,.T.) ;
#893=ORIENTED_EDGE('',*,*,#888,.T.) ;
#913=ORIENTED_EDGE('',*,*,#904,.F.) ;
#914=ORIENTED_EDGE('',*,*,#656,.T.) ;
#915=ORIENTED_EDGE('',*,*,#911,.F.) ;
#935=ORIENTED_EDGE('',*,*,#926,.F.) ;
#936=ORIENTED_EDGE('',*,*,#663,.T.) ;
#937=ORIENTED_EDGE('',*,*,#933,.F.) ;
#954=ORIENTED_EDGE('',*,*,#946,.F.) ;
#955=ORIENTED_EDGE('',*,*,#668,.T.) ;
#956=ORIENTED_EDGE('',*,*,#952,.F.) ;
#976=ORIENTED_EDGE('',*,*,#967,.F.) ;
#977=ORIENTED_EDGE('',*,*,#621,.T.) ;
#978=ORIENTED_EDGE('',*,*,#946,.T.) ;
#979=ORIENTED_EDGE('',*,*,#974,.T.) ;
#999=ORIENTED_EDGE('',*,*,#990,.F.) ;
#1000=ORIENTED_EDGE('',*,*,#628,.T.) ;
#1001=ORIENTED_EDGE('',*,*,#997,.F.) ;
#1021=ORIENTED_EDGE('',*,*,#1012,.F.) ;
#1022=ORIENTED_EDGE('',*,*,#635,.T.) ;
#1023=ORIENTED_EDGE('',*,*,#1019,.F.) ;
#1033=ORIENTED_EDGE('',*,*,#881,.F.) ;
#1034=ORIENTED_EDGE('',*,*,#642,.T.) ;
#1035=ORIENTED_EDGE('',*,*,#1031,.F.) ;
#1054=ORIENTED_EDGE('',*,*,#1047,.T.) ;
#1055=ORIENTED_EDGE('',*,*,#1019,.T.) ;
#1056=ORIENTED_EDGE('',*,*,#990,.T.) ;
#1057=ORIENTED_EDGE('',*,*,#1052,.F.) ;
#1058=ORIENTED_EDGE('',*,*,#790,.T.) ;
#1059=ORIENTED_EDGE('',*,*,#847,.T.) ;
#1073=ORIENTED_EDGE('',*,*,#1071,.T.) ;
#1074=ORIENTED_EDGE('',*,*,#888,.F.) ;
#1075=ORIENTED_EDGE('',*,*,#1031,.T.) ;
#1076=ORIENTED_EDGE('',*,*,#1012,.T.) ;
#1077=ORIENTED_EDGE('',*,*,#1047,.F.) ;
#1078=ORIENTED_EDGE('',*,*,#854,.T.) ;
#1079=ORIENTED_EDGE('',*,*,#832,.T.) ;
#1080=ORIENTED_EDGE('',*,*,#721,.T.) ;
#1099=ORIENTED_EDGE('',*,*,#1092,.T.) ;
#1100=ORIENTED_EDGE('',*,*,#933,.T.) ;
#1101=ORIENTED_EDGE('',*,*,#904,.T.) ;
#1102=ORIENTED_EDGE('',*,*,#1097,.F.) ;
#1103=ORIENTED_EDGE('',*,*,#697,.T.) ;
#1104=ORIENTED_EDGE('',*,*,#768,.T.) ;
#1113=ORIENTED_EDGE('',*,*,#1097,.T.) ;
#1114=ORIENTED_EDGE('',*,*,#911,.T.) ;
#1115=ORIENTED_EDGE('',*,*,#874,.T.) ;
#1116=ORIENTED_EDGE('',*,*,#1071,.F.) ;
#1117=ORIENTED_EDGE('',*,*,#733,.T.) ;
#1118=ORIENTED_EDGE('',*,*,#704,.T.) ;
#1132=ORIENTED_EDGE('',*,*,#1130,.T.) ;
#1133=ORIENTED_EDGE('',*,*,#974,.F.) ;
#1134=ORIENTED_EDGE('',*,*,#952,.T.) ;
#1135=ORIENTED_EDGE('',*,*,#926,.T.) ;
#1136=ORIENTED_EDGE('',*,*,#1092,.F.) ;
#1137=ORIENTED_EDGE('',*,*,#775,.T.) ;
#1138=ORIENTED_EDGE('',*,*,#753,.T.) ;
#1139=ORIENTED_EDGE('',*,*,#819,.T.) ;
#1148=ORIENTED_EDGE('',*,*,#1052,.T.) ;
#1149=ORIENTED_EDGE('',*,*,#997,.T.) ;
#1150=ORIENTED_EDGE('',*,*,#967,.T.) ;
#1151=ORIENTED_EDGE('',*,*,#1130,.F.) ;
#1152=ORIENTED_EDGE('',*,*,#812,.T.) ;
#1153=ORIENTED_EDGE('',*,*,#797,.T.) ;
#502=FACE_BOUND('',#499,.T.) ;
#516=FACE_BOUND('',#513,.T.) ;
#530=FACE_BOUND('',#527,.T.) ;
#606=FACE_BOUND('',#603,.T.) ;
#682=FACE_BOUND('',#679,.T.) ;
#51=CLOSED_SHELL('Closed Shell',(#91,#108,#139,#151,#191,#208,#239,#251,#291,#308,#339,#351,#391,#408,#439,#451,#477,#489,#503,#517,#531,#607,#683,#710,#740,#759,#781,#803,#826,#838,#860,#895,#917,#939,#958,#981,#1003,#1025,#1037,#1061,#1082,#1106,#1120,#1141,#1155)) ;
#59=VECTOR('Line Direction',#58,1.) ;
#75=VECTOR('Line Direction',#74,1.) ;
#116=VECTOR('Line Direction',#115,1.) ;
#130=VECTOR('Line Direction',#129,1.) ;
#216=VECTOR('Line Direction',#215,1.) ;
#230=VECTOR('Line Direction',#229,1.) ;
#259=VECTOR('Line Direction',#258,1.) ;
#275=VECTOR('Line Direction',#274,1.) ;
#316=VECTOR('Line Direction',#315,1.) ;
#330=VECTOR('Line Direction',#329,1.) ;
#359=VECTOR('Line Direction',#358,1.) ;
#375=VECTOR('Line Direction',#374,1.) ;
#416=VECTOR('Line Direction',#415,1.) ;
#430=VECTOR('Line Direction',#429,1.) ;
#454=VECTOR('Line Direction',#453,1.) ;
#468=VECTOR('Line Direction',#467,1.) ;
#724=VECTOR('Line Direction',#723,1.) ;
#743=VECTOR('Line Direction',#742,1.) ;
#877=VECTOR('Line Direction',#876,1.) ;
#942=VECTOR('Line Direction',#941,1.) ;
#1045=VECTOR('Line Direction',#1044,1.) ;
#1050=VECTOR('Line Direction',#1049,1.) ;
#1069=VECTOR('Line Direction',#1068,1.) ;
#1090=VECTOR('Line Direction',#1089,1.) ;
#1095=VECTOR('Line Direction',#1094,1.) ;
#1128=VECTOR('Line Direction',#1127,1.) ;
#1157=ADVANCED_BREP_SHAPE_REPRESENTATION('NONE',(#1156),#46) ;
#49=SHAPE_REPRESENTATION(' ',(#48),#46) ;
#91=ADVANCED_FACE('MAIN',(#90),#56,.T.) ;
#108=ADVANCED_FACE('MAIN',(#107),#56,.T.) ;
#139=ADVANCED_FACE('MAIN',(#138),#113,.T.) ;
#151=ADVANCED_FACE('MAIN',(#150),#113,.T.) ;
#191=ADVANCED_FACE('MAIN',(#190),#156,.F.) ;
#208=ADVANCED_FACE('MAIN',(#207),#156,.F.) ;
#239=ADVANCED_FACE('MAIN',(#238),#213,.T.) ;
#251=ADVANCED_FACE('MAIN',(#250),#213,.T.) ;
#291=ADVANCED_FACE('MAIN',(#290),#256,.T.) ;
#308=ADVANCED_FACE('MAIN',(#307),#256,.T.) ;
#339=ADVANCED_FACE('MAIN',(#338),#313,.T.) ;
#351=ADVANCED_FACE('MAIN',(#350),#313,.T.) ;
#391=ADVANCED_FACE('MAIN',(#390),#356,.F.) ;
#408=ADVANCED_FACE('MAIN',(#407),#356,.F.) ;
#439=ADVANCED_FACE('MAIN',(#438),#413,.F.) ;
#451=ADVANCED_FACE('MAIN',(#450),#413,.F.) ;
#477=ADVANCED_FACE('MAIN',(#476),#256,.F.) ;
#489=ADVANCED_FACE('MAIN',(#488),#256,.F.) ;
#503=ADVANCED_FACE('MAIN',(#498,#502),#494,.F.) ;
#517=ADVANCED_FACE('MAIN',(#512,#516),#508,.F.) ;
#531=ADVANCED_FACE('MAIN',(#526,#530),#522,.T.) ;
#607=ADVANCED_FACE('MAIN',(#602,#606),#536,.T.) ;
#683=ADVANCED_FACE('MAIN',(#678,#682),#612,.F.) ;
#710=ADVANCED_FACE('MAIN',(#709),#688,.T.) ;
#740=ADVANCED_FACE('MAIN',(#739),#688,.T.) ;
#759=ADVANCED_FACE('MAIN',(#758),#688,.T.) ;
#781=ADVANCED_FACE('MAIN',(#780),#688,.T.) ;
#803=ADVANCED_FACE('MAIN',(#802),#688,.T.) ;
#826=ADVANCED_FACE('MAIN',(#825),#688,.T.) ;
#838=ADVANCED_FACE('MAIN',(#837),#688,.T.) ;
#860=ADVANCED_FACE('MAIN',(#859),#688,.T.) ;
#895=ADVANCED_FACE('MAIN',(#894),#865,.T.) ;
#917=ADVANCED_FACE('MAIN',(#916),#865,.T.) ;
#939=ADVANCED_FACE('MAIN',(#938),#865,.T.) ;
#958=ADVANCED_FACE('MAIN',(#957),#865,.T.) ;
#981=ADVANCED_FACE('MAIN',(#980),#865,.T.) ;
#1003=ADVANCED_FACE('MAIN',(#1002),#865,.T.) ;
#1025=ADVANCED_FACE('MAIN',(#1024),#865,.T.) ;
#1037=ADVANCED_FACE('MAIN',(#1036),#865,.T.) ;
#1061=ADVANCED_FACE('MAIN',(#1060),#1042,.F.) ;
#1082=ADVANCED_FACE('MAIN',(#1081),#1066,.F.) ;
#1106=ADVANCED_FACE('MAIN',(#1105),#1087,.F.) ;
#1120=ADVANCED_FACE('MAIN',(#1119),#1111,.F.) ;
#1141=ADVANCED_FACE('MAIN',(#1140),#1125,.F.) ;
#1155=ADVANCED_FACE('MAIN',(#1154),#1146,.F.) ;
#4=APPLICATION_PROTOCOL_DEFINITION('international standard','config_control_design',1994,#1) ;
#32=APPROVAL_DATE_TIME(#13,#21) ;
#689=B_SPLINE_CURVE_WITH_KNOTS('',4,(#690,#691,#692,#693,#694),.UNSPECIFIED.,.F.,.U.,(5,5),(0.,7.55999929034),.UNSPECIFIED.) ;
#698=B_SPLINE_CURVE_WITH_KNOTS('',4,(#699,#700,#701,#702,#703),.UNSPECIFIED.,.F.,.U.,(5,5),(7.55999929609,15.1200015765),.UNSPECIFIED.) ;
#711=B_SPLINE_CURVE_WITH_KNOTS('',4,(#712,#713,#714,#715,#716),.UNSPECIFIED.,.F.,.U.,(5,5),(0.,7.2477189461),.UNSPECIFIED.) ;
#727=B_SPLINE_CURVE_WITH_KNOTS('',4,(#728,#729,#730,#731,#732),.UNSPECIFIED.,.F.,.U.,(5,5),(0.,7.55999929609),.UNSPECIFIED.) ;
#748=B_SPLINE_CURVE_WITH_KNOTS('',3,(#749,#750,#751,#752),.UNSPECIFIED.,.F.,.U.,(4,4),(7.55996412886,7.8722112687),.UNSPECIFIED.) ;
#760=B_SPLINE_CURVE_WITH_KNOTS('',4,(#761,#762,#763,#764,#765),.UNSPECIFIED.,.F.,.U.,(5,5),(7.55999929034,15.1200015736),.UNSPECIFIED.) ;
#769=B_SPLINE_CURVE_WITH_KNOTS('',4,(#770,#771,#772,#773,#774),.UNSPECIFIED.,.F.,.U.,(5,5),(0.,7.55996412886),.UNSPECIFIED.) ;
#782=B_SPLINE_CURVE_WITH_KNOTS('',4,(#783,#784,#785,#786,#787),.UNSPECIFIED.,.F.,.U.,(5,5),(0.,7.55999925476),.UNSPECIFIED.) ;
#791=B_SPLINE_CURVE_WITH_KNOTS('',4,(#792,#793,#794,#795,#796),.UNSPECIFIED.,.F.,.U.,(5,5),(7.55999933825,15.1200015765),.UNSPECIFIED.) ;
#804=B_SPLINE_CURVE_WITH_KNOTS('',4,(#805,#806,#807,#808,#809),.UNSPECIFIED.,.F.,.U.,(5,5),(0.,7.55999933825),.UNSPECIFIED.) ;
#813=B_SPLINE_CURVE_WITH_KNOTS('',4,(#814,#815,#816,#817,#818),.UNSPECIFIED.,.F.,.U.,(5,5),(0.,7.24771894613),.UNSPECIFIED.) ;
#827=B_SPLINE_CURVE_WITH_KNOTS('',3,(#828,#829,#830,#831),.UNSPECIFIED.,.F.,.U.,(4,4),(7.55996412902,7.87221126886),.UNSPECIFIED.) ;
#839=B_SPLINE_CURVE_WITH_KNOTS('',4,(#840,#841,#842,#843,#844),.UNSPECIFIED.,.F.,.U.,(5,5),(7.55999925476,15.1200015738),.UNSPECIFIED.) ;
#848=B_SPLINE_CURVE_WITH_KNOTS('',4,(#849,#850,#851,#852,#853),.UNSPECIFIED.,.F.,.U.,(5,5),(0.,7.55996412902),.UNSPECIFIED.) ;
#866=B_SPLINE_CURVE_WITH_KNOTS('',4,(#867,#868,#869,#870,#871),.UNSPECIFIED.,.F.,.U.,(5,5),(7.55999933839,15.1200015767),.UNSPECIFIED.) ;
#882=B_SPLINE_CURVE_WITH_KNOTS('',4,(#883,#884,#885,#886,#887),.UNSPECIFIED.,.F.,.U.,(5,5),(0.,7.24771894604),.UNSPECIFIED.) ;
#896=B_SPLINE_CURVE_WITH_KNOTS('',4,(#897,#898,#899,#900,#901),.UNSPECIFIED.,.F.,.U.,(5,5),(7.55999909231,15.1200015738),.UNSPECIFIED.) ;
#905=B_SPLINE_CURVE_WITH_KNOTS('',4,(#906,#907,#908,#909,#910),.UNSPECIFIED.,.F.,.U.,(5,5),(0.,7.55999933839),.UNSPECIFIED.) ;
#918=B_SPLINE_CURVE_WITH_KNOTS('',4,(#919,#920,#921,#922,#923),.UNSPECIFIED.,.F.,.U.,(5,5),(0.312247173729,7.87221246027),.UNSPECIFIED.) ;
#927=B_SPLINE_CURVE_WITH_KNOTS('',4,(#928,#929,#930,#931,#932),.UNSPECIFIED.,.F.,.U.,(5,5),(0.,7.55999909231),.UNSPECIFIED.) ;
#947=B_SPLINE_CURVE_WITH_KNOTS('',3,(#948,#949,#950,#951),.UNSPECIFIED.,.F.,.U.,(4,4),(0.,0.312247173729),.UNSPECIFIED.) ;
#959=B_SPLINE_CURVE_WITH_KNOTS('',4,(#960,#961,#962,#963,#964),.UNSPECIFIED.,.F.,.U.,(5,5),(7.55999933838,15.1200015766),.UNSPECIFIED.) ;
#968=B_SPLINE_CURVE_WITH_KNOTS('',4,(#969,#970,#971,#972,#973),.UNSPECIFIED.,.F.,.U.,(5,5),(0.,7.24771894607),.UNSPECIFIED.) ;
#982=B_SPLINE_CURVE_WITH_KNOTS('',4,(#983,#984,#985,#986,#987),.UNSPECIFIED.,.F.,.U.,(5,5),(7.55999933686,15.1200015736),.UNSPECIFIED.) ;
#991=B_SPLINE_CURVE_WITH_KNOTS('',4,(#992,#993,#994,#995,#996),.UNSPECIFIED.,.F.,.U.,(5,5),(0.,7.55999933838),.UNSPECIFIED.) ;
#1004=B_SPLINE_CURVE_WITH_KNOTS('',4,(#1005,#1006,#1007,#1008,#1009),.UNSPECIFIED.,.F.,.U.,(5,5),(0.312247173735,7.87221246027),.UNSPECIFIED.) ;
#1013=B_SPLINE_CURVE_WITH_KNOTS('',4,(#1014,#1015,#1016,#1017,#1018),.UNSPECIFIED.,.F.,.U.,(5,5),(0.,7.55999933686),.UNSPECIFIED.) ;
#1026=B_SPLINE_CURVE_WITH_KNOTS('',3,(#1027,#1028,#1029,#1030),.UNSPECIFIED.,.F.,.U.,(4,4),(0.,0.312247173735),.UNSPECIFIED.) ;
#1156=MANIFOLD_SOLID_BREP('MAIN',#51) ;
#11=CALENDAR_DATE(2026,6,10) ;
#30=CC_DESIGN_APPROVAL(#21,(#16,#6,#14)) ;
#18=CC_DESIGN_DATE_AND_TIME_ASSIGNMENT(#13,#17,(#16)) ;
#29=CC_DESIGN_DATE_AND_TIME_ASSIGNMENT(#13,#28,(#14)) ;
#17=DATE_TIME_ROLE('classification_date') ;
#28=DATE_TIME_ROLE('creation_date') ;
#27=CC_DESIGN_PERSON_AND_ORGANIZATION_ASSIGNMENT(#25,#26,(#16)) ;
#33=CC_DESIGN_PERSON_AND_ORGANIZATION_ASSIGNMENT(#25,#34,(#6)) ;
#35=CC_DESIGN_PERSON_AND_ORGANIZATION_ASSIGNMENT(#25,#36,(#6,#14)) ;
#37=CC_DESIGN_PERSON_AND_ORGANIZATION_ASSIGNMENT(#25,#38,(#5)) ;
#26=PERSON_AND_ORGANIZATION_ROLE('classification_officer') ;
#34=PERSON_AND_ORGANIZATION_ROLE('design_supplier') ;
#36=PERSON_AND_ORGANIZATION_ROLE('creator') ;
#38=PERSON_AND_ORGANIZATION_ROLE('design_owner') ;
#39=CC_DESIGN_SECURITY_CLASSIFICATION(#16,(#6)) ;
#69=CIRCLE('generated circle',#68,5.55625) ;
#83=CIRCLE('generated circle',#82,4.55625) ;
#95=CIRCLE('generated circle',#94,5.55625) ;
#100=CIRCLE('generated circle',#99,4.55625) ;
#124=CIRCLE('generated circle',#123,5.55625) ;
#143=CIRCLE('generated circle',#142,5.55625) ;
#160=CIRCLE('generated circle',#159,0.5) ;
#169=CIRCLE('generated circle',#168,2.5) ;
#176=CIRCLE('generated circle',#175,0.5) ;
#183=CIRCLE('generated circle',#182,3.) ;
#195=CIRCLE('generated circle',#194,2.5) ;
#200=CIRCLE('generated circle',#199,3.) ;
#224=CIRCLE('generated circle',#223,2.5) ;
#243=CIRCLE('generated circle',#242,2.5) ;
#269=CIRCLE('generated circle',#268,3.) ;
#283=CIRCLE('generated circle',#282,3.) ;
#295=CIRCLE('generated circle',#294,3.) ;
#300=CIRCLE('generated circle',#299,3.) ;
#324=CIRCLE('generated circle',#323,2.) ;
#343=CIRCLE('generated circle',#342,2.) ;
#369=CIRCLE('generated circle',#368,1.25) ;
#383=CIRCLE('generated circle',#382,1.25) ;
#395=CIRCLE('generated circle',#394,1.25) ;
#400=CIRCLE('generated circle',#399,1.25) ;
#424=CIRCLE('generated circle',#423,3.) ;
#443=CIRCLE('generated circle',#442,3.) ;
#462=CIRCLE('generated circle',#461,3.) ;
#481=CIRCLE('generated circle',#480,3.) ;
#540=CIRCLE('generated circle',#539,9.) ;
#549=CIRCLE('generated circle',#548,9.) ;
#556=CIRCLE('generated circle',#555,9.) ;
#563=CIRCLE('generated circle',#562,9.) ;
#570=CIRCLE('generated circle',#569,9.) ;
#577=CIRCLE('generated circle',#576,9.) ;
#584=CIRCLE('generated circle',#583,9.) ;
#591=CIRCLE('generated circle',#590,9.) ;
#616=CIRCLE('generated circle',#615,9.) ;
#625=CIRCLE('generated circle',#624,9.) ;
#632=CIRCLE('generated circle',#631,9.) ;
#639=CIRCLE('generated circle',#638,9.) ;
#646=CIRCLE('generated circle',#645,9.) ;
#653=CIRCLE('generated circle',#652,9.) ;
#660=CIRCLE('generated circle',#659,9.) ;
#667=CIRCLE('generated circle',#666,9.) ;
#56=CONICAL_SURFACE('Cone',#55,4.55625,0.785398163397) ;
#313=CONICAL_SURFACE('Cone',#312,2.,0.785398163397) ;
#413=CONICAL_SURFACE('Cone',#412,1.25,1.04719755123) ;
#688=CONICAL_SURFACE('Cone',#687,9.,1.04719755123) ;
#865=CONICAL_SURFACE('Cone',#864,9.,1.04719755123) ;
#1158=SHAPE_REPRESENTATION_RELATIONSHIP(' ',' ',#49,#1157) ;
#113=CYLINDRICAL_SURFACE('generated cylinder',#112,5.55625) ;
#213=CYLINDRICAL_SURFACE('generated cylinder',#212,2.5) ;
#256=CYLINDRICAL_SURFACE('generated cylinder',#255,3.) ;
#356=CYLINDRICAL_SURFACE('generated cylinder',#355,1.25) ;
#156=TOROIDAL_SURFACE('homeo Torus',#155,3.,0.5) ;
#3=DESIGN_CONTEXT(' ',#1,'design') ;
#65=EDGE_CURVE('',#62,#64,#60,.T.) ;
#72=EDGE_CURVE('',#71,#64,#69,.T.) ;
#79=EDGE_CURVE('',#78,#71,#76,.T.) ;
#84=EDGE_CURVE('',#78,#62,#83,.T.) ;
#96=EDGE_CURVE('',#64,#71,#95,.T.) ;
#101=EDGE_CURVE('',#62,#78,#100,.T.) ;
#120=EDGE_CURVE('',#64,#119,#117,.T.) ;
#127=EDGE_CURVE('',#126,#119,#124,.T.) ;
#132=EDGE_CURVE('',#71,#126,#131,.T.) ;
#144=EDGE_CURVE('',#119,#126,#143,.T.) ;
#165=EDGE_CURVE('',#162,#164,#160,.F.) ;
#172=EDGE_CURVE('',#171,#164,#169,.T.) ;
#179=EDGE_CURVE('',#178,#171,#176,.F.) ;
#184=EDGE_CURVE('',#178,#162,#183,.T.) ;
#196=EDGE_CURVE('',#164,#171,#195,.T.) ;
#201=EDGE_CURVE('',#162,#178,#200,.T.) ;
#220=EDGE_CURVE('',#164,#219,#217,.T.) ;
#227=EDGE_CURVE('',#226,#219,#224,.T.) ;
#232=EDGE_CURVE('',#171,#226,#231,.T.) ;
#244=EDGE_CURVE('',#219,#226,#243,.T.) ;
#265=EDGE_CURVE('',#262,#264,#260,.T.) ;
#272=EDGE_CURVE('',#271,#264,#269,.T.) ;
#279=EDGE_CURVE('',#278,#271,#276,.T.) ;
#284=EDGE_CURVE('',#278,#262,#283,.T.) ;
#296=EDGE_CURVE('',#264,#271,#295,.T.) ;
#301=EDGE_CURVE('',#262,#278,#300,.T.) ;
#320=EDGE_CURVE('',#264,#319,#317,.F.) ;
#327=EDGE_CURVE('',#326,#319,#324,.F.) ;
#332=EDGE_CURVE('',#271,#326,#331,.F.) ;
#344=EDGE_CURVE('',#319,#326,#343,.F.) ;
#365=EDGE_CURVE('',#362,#364,#360,.F.) ;
#372=EDGE_CURVE('',#371,#364,#369,.T.) ;
#379=EDGE_CURVE('',#378,#371,#376,.F.) ;
#384=EDGE_CURVE('',#378,#362,#383,.T.) ;
#396=EDGE_CURVE('',#364,#371,#395,.T.) ;
#401=EDGE_CURVE('',#362,#378,#400,.T.) ;
#420=EDGE_CURVE('',#364,#419,#417,.T.) ;
#427=EDGE_CURVE('',#426,#419,#424,.F.) ;
#432=EDGE_CURVE('',#371,#426,#431,.T.) ;
#444=EDGE_CURVE('',#419,#426,#443,.F.) ;
#458=EDGE_CURVE('',#419,#457,#455,.F.) ;
#465=EDGE_CURVE('',#464,#457,#462,.T.) ;
#470=EDGE_CURVE('',#426,#464,#469,.F.) ;
#482=EDGE_CURVE('',#457,#464,#481,.T.) ;
#545=EDGE_CURVE('',#542,#544,#540,.T.) ;
#552=EDGE_CURVE('',#544,#551,#549,.T.) ;
#559=EDGE_CURVE('',#551,#558,#556,.T.) ;
#566=EDGE_CURVE('',#558,#565,#563,.T.) ;
#573=EDGE_CURVE('',#565,#572,#570,.T.) ;
#580=EDGE_CURVE('',#572,#579,#577,.T.) ;
#587=EDGE_CURVE('',#579,#586,#584,.T.) ;
#592=EDGE_CURVE('',#586,#542,#591,.T.) ;
#621=EDGE_CURVE('',#618,#620,#616,.T.) ;
#628=EDGE_CURVE('',#627,#618,#625,.T.) ;
#635=EDGE_CURVE('',#634,#627,#632,.T.) ;
#642=EDGE_CURVE('',#641,#634,#639,.T.) ;
#649=EDGE_CURVE('',#648,#641,#646,.T.) ;
#656=EDGE_CURVE('',#655,#648,#653,.T.) ;
#663=EDGE_CURVE('',#662,#655,#660,.T.) ;
#668=EDGE_CURVE('',#620,#662,#667,.T.) ;
#697=EDGE_CURVE('',#696,#551,#689,.T.) ;
#704=EDGE_CURVE('',#558,#696,#698,.T.) ;
#721=EDGE_CURVE('',#718,#720,#711,.T.) ;
#726=EDGE_CURVE('',#718,#565,#725,.F.) ;
#733=EDGE_CURVE('',#720,#558,#727,.T.) ;
#747=EDGE_CURVE('',#746,#542,#744,.F.) ;
#753=EDGE_CURVE('',#544,#746,#748,.T.) ;
#768=EDGE_CURVE('',#551,#767,#760,.T.) ;
#775=EDGE_CURVE('',#767,#544,#769,.T.) ;
#790=EDGE_CURVE('',#789,#579,#782,.T.) ;
#797=EDGE_CURVE('',#586,#789,#791,.T.) ;
#812=EDGE_CURVE('',#811,#586,#804,.T.) ;
#819=EDGE_CURVE('',#746,#811,#813,.T.) ;
#832=EDGE_CURVE('',#572,#718,#827,.T.) ;
#847=EDGE_CURVE('',#579,#846,#839,.T.) ;
#854=EDGE_CURVE('',#846,#572,#848,.T.) ;
#874=EDGE_CURVE('',#648,#873,#866,.T.) ;
#881=EDGE_CURVE('',#641,#880,#878,.T.) ;
#888=EDGE_CURVE('',#880,#873,#882,.T.) ;
#904=EDGE_CURVE('',#655,#903,#896,.T.) ;
#911=EDGE_CURVE('',#903,#648,#905,.T.) ;
#926=EDGE_CURVE('',#662,#925,#918,.T.) ;
#933=EDGE_CURVE('',#925,#655,#927,.T.) ;
#946=EDGE_CURVE('',#620,#945,#943,.T.) ;
#952=EDGE_CURVE('',#945,#662,#947,.T.) ;
#967=EDGE_CURVE('',#618,#966,#959,.T.) ;
#974=EDGE_CURVE('',#945,#966,#968,.T.) ;
#990=EDGE_CURVE('',#627,#989,#982,.T.) ;
#997=EDGE_CURVE('',#989,#618,#991,.T.) ;
#1012=EDGE_CURVE('',#634,#1011,#1004,.T.) ;
#1019=EDGE_CURVE('',#1011,#627,#1013,.T.) ;
#1031=EDGE_CURVE('',#880,#634,#1026,.T.) ;
#1047=EDGE_CURVE('',#846,#1011,#1046,.F.) ;
#1052=EDGE_CURVE('',#789,#989,#1051,.T.) ;
#1071=EDGE_CURVE('',#720,#873,#1070,.T.) ;
#1092=EDGE_CURVE('',#767,#925,#1091,.F.) ;
#1097=EDGE_CURVE('',#696,#903,#1096,.T.) ;
#1130=EDGE_CURVE('',#811,#966,#1129,.F.) ;
#85=EDGE_LOOP('',(#86,#87,#88,#89)) ;
#102=EDGE_LOOP('',(#103,#104,#105,#106)) ;
#133=EDGE_LOOP('',(#134,#135,#136,#137)) ;
#145=EDGE_LOOP('',(#146,#147,#148,#149)) ;
#185=EDGE_LOOP('',(#186,#187,#188,#189)) ;
#202=EDGE_LOOP('',(#203,#204,#205,#206)) ;
#233=EDGE_LOOP('',(#234,#235,#236,#237)) ;
#245=EDGE_LOOP('',(#246,#247,#248,#249)) ;
#285=EDGE_LOOP('',(#286,#287,#288,#289)) ;
#302=EDGE_LOOP('',(#303,#304,#305,#306)) ;
#333=EDGE_LOOP('',(#334,#335,#336,#337)) ;
#345=EDGE_LOOP('',(#346,#347,#348,#349)) ;
#385=EDGE_LOOP('',(#386,#387,#388,#389)) ;
#402=EDGE_LOOP('',(#403,#404,#405,#406)) ;
#433=EDGE_LOOP('',(#434,#435,#436,#437)) ;
#445=EDGE_LOOP('',(#446,#447,#448,#449)) ;
#471=EDGE_LOOP('',(#472,#473,#474,#475)) ;
#483=EDGE_LOOP('',(#484,#485,#486,#487)) ;
#495=EDGE_LOOP('',(#496,#497)) ;
#499=EDGE_LOOP('',(#500,#501)) ;
#509=EDGE_LOOP('',(#510,#511)) ;
#513=EDGE_LOOP('',(#514,#515)) ;
#523=EDGE_LOOP('',(#524,#525)) ;
#527=EDGE_LOOP('',(#528,#529)) ;
#593=EDGE_LOOP('',(#594,#595,#596,#597,#598,#599,#600,#601)) ;
#603=EDGE_LOOP('',(#604,#605)) ;
#669=EDGE_LOOP('',(#670,#671,#672,#673,#674,#675,#676,#677)) ;
#679=EDGE_LOOP('',(#680,#681)) ;
#705=EDGE_LOOP('',(#706,#707,#708)) ;
#734=EDGE_LOOP('',(#735,#736,#737,#738)) ;
#754=EDGE_LOOP('',(#755,#756,#757)) ;
#776=EDGE_LOOP('',(#777,#778,#779)) ;
#798=EDGE_LOOP('',(#799,#800,#801)) ;
#820=EDGE_LOOP('',(#821,#822,#823,#824)) ;
#833=EDGE_LOOP('',(#834,#835,#836)) ;
#855=EDGE_LOOP('',(#856,#857,#858)) ;
#889=EDGE_LOOP('',(#890,#891,#892,#893)) ;
#912=EDGE_LOOP('',(#913,#914,#915)) ;
#934=EDGE_LOOP('',(#935,#936,#937)) ;
#953=EDGE_LOOP('',(#954,#955,#956)) ;
#975=EDGE_LOOP('',(#976,#977,#978,#979)) ;
#998=EDGE_LOOP('',(#999,#1000,#1001)) ;
#1020=EDGE_LOOP('',(#1021,#1022,#1023)) ;
#1032=EDGE_LOOP('',(#1033,#1034,#1035)) ;
#1053=EDGE_LOOP('',(#1054,#1055,#1056,#1057,#1058,#1059)) ;
#1072=EDGE_LOOP('',(#1073,#1074,#1075,#1076,#1077,#1078,#1079,#1080)) ;
#1098=EDGE_LOOP('',(#1099,#1100,#1101,#1102,#1103,#1104)) ;
#1112=EDGE_LOOP('',(#1113,#1114,#1115,#1116,#1117,#1118)) ;
#1131=EDGE_LOOP('',(#1132,#1133,#1134,#1135,#1136,#1137,#1138,#1139)) ;
#1147=EDGE_LOOP('',(#1148,#1149,#1150,#1151,#1152,#1153)) ;
#90=FACE_OUTER_BOUND('',#85,.T.) ;
#107=FACE_OUTER_BOUND('',#102,.T.) ;
#138=FACE_OUTER_BOUND('',#133,.T.) ;
#150=FACE_OUTER_BOUND('',#145,.T.) ;
#190=FACE_OUTER_BOUND('',#185,.T.) ;
#207=FACE_OUTER_BOUND('',#202,.T.) ;
#238=FACE_OUTER_BOUND('',#233,.T.) ;
#250=FACE_OUTER_BOUND('',#245,.T.) ;
#290=FACE_OUTER_BOUND('',#285,.T.) ;
#307=FACE_OUTER_BOUND('',#302,.T.) ;
#338=FACE_OUTER_BOUND('',#333,.T.) ;
#350=FACE_OUTER_BOUND('',#345,.T.) ;
#390=FACE_OUTER_BOUND('',#385,.T.) ;
#407=FACE_OUTER_BOUND('',#402,.T.) ;
#438=FACE_OUTER_BOUND('',#433,.T.) ;
#450=FACE_OUTER_BOUND('',#445,.T.) ;
#476=FACE_OUTER_BOUND('',#471,.T.) ;
#488=FACE_OUTER_BOUND('',#483,.T.) ;
#498=FACE_OUTER_BOUND('',#495,.T.) ;
#512=FACE_OUTER_BOUND('',#509,.T.) ;
#526=FACE_OUTER_BOUND('',#523,.T.) ;
#602=FACE_OUTER_BOUND('',#593,.T.) ;
#678=FACE_OUTER_BOUND('',#669,.T.) ;
#709=FACE_OUTER_BOUND('',#705,.T.) ;
#739=FACE_OUTER_BOUND('',#734,.T.) ;
#758=FACE_OUTER_BOUND('',#754,.T.) ;
#780=FACE_OUTER_BOUND('',#776,.T.) ;
#802=FACE_OUTER_BOUND('',#798,.T.) ;
#825=FACE_OUTER_BOUND('',#820,.T.) ;
#837=FACE_OUTER_BOUND('',#833,.T.) ;
#859=FACE_OUTER_BOUND('',#855,.T.) ;
#894=FACE_OUTER_BOUND('',#889,.T.) ;
#916=FACE_OUTER_BOUND('',#912,.T.) ;
#938=FACE_OUTER_BOUND('',#934,.T.) ;
#957=FACE_OUTER_BOUND('',#953,.T.) ;
#980=FACE_OUTER_BOUND('',#975,.T.) ;
#1002=FACE_OUTER_BOUND('',#998,.T.) ;
#1024=FACE_OUTER_BOUND('',#1020,.T.) ;
#1036=FACE_OUTER_BOUND('',#1032,.T.) ;
#1060=FACE_OUTER_BOUND('',#1053,.T.) ;
#1081=FACE_OUTER_BOUND('',#1072,.T.) ;
#1105=FACE_OUTER_BOUND('',#1098,.T.) ;
#1119=FACE_OUTER_BOUND('',#1112,.T.) ;
#1140=FACE_OUTER_BOUND('',#1131,.T.) ;
#1154=FACE_OUTER_BOUND('',#1147,.T.) ;
#45=UNCERTAINTY_MEASURE_WITH_UNIT(LENGTH_MEASURE(0.005),#41,'distance_accuracy_value','CONFUSED CURVE UNCERTAINTY') ;
#60=LINE('Line',#57,#59) ;
#76=LINE('Line',#73,#75) ;
#117=LINE('Line',#114,#116) ;
#131=LINE('Line',#128,#130) ;
#217=LINE('Line',#214,#216) ;
#231=LINE('Line',#228,#230) ;
#260=LINE('Line',#257,#259) ;
#276=LINE('Line',#273,#275) ;
#317=LINE('Line',#314,#316) ;
#331=LINE('Line',#328,#330) ;
#360=LINE('Line',#357,#359) ;
#376=LINE('Line',#373,#375) ;
#417=LINE('Line',#414,#416) ;
#431=LINE('Line',#428,#430) ;
#455=LINE('Line',#452,#454) ;
#469=LINE('Line',#466,#468) ;
#725=LINE('Line',#722,#724) ;
#744=LINE('Line',#741,#743) ;
#878=LINE('Line',#875,#877) ;
#943=LINE('Line',#940,#942) ;
#1046=LINE('Line',#1043,#1045) ;
#1051=LINE('Line',#1048,#1050) ;
#1070=LINE('Line',#1067,#1069) ;
#1091=LINE('Line',#1088,#1090) ;
#1096=LINE('Line',#1093,#1095) ;
#1129=LINE('Line',#1126,#1128) ;
#2=MECHANICAL_CONTEXT(' ',#1,'mechanical') ;
#24=PERSONAL_ADDRESS(' ',' ',' ',' ',' ',' ',' ',' ',' ',' ',' ',' ',(#22),' ') ;
#494=PLANE('',#493) ;
#508=PLANE('',#507) ;
#522=PLANE('',#521) ;
#536=PLANE('',#535) ;
#612=PLANE('',#611) ;
#1042=PLANE('',#1041) ;
#1066=PLANE('',#1065) ;
#1087=PLANE('',#1086) ;
#1111=PLANE('',#1110) ;
#1125=PLANE('',#1124) ;
#1146=PLANE('',#1145) ;
#43=PLANE_ANGLE_MEASURE_WITH_UNIT(PLANE_ANGLE_MEASURE(0.0174532925199),#42) ;
#7=PRODUCT_CATEGORY('part',$) ;
#9=PRODUCT_CATEGORY_RELATIONSHIP(' ',' ',#7,#8) ;
#6=PRODUCT_DEFINITION_FORMATION_WITH_SPECIFIED_SOURCE('',' ',#5,.NOT_KNOWN.) ;
#8=PRODUCT_RELATED_PRODUCT_CATEGORY('detail',$,(#5)) ;
#50=SHAPE_DEFINITION_REPRESENTATION(#40,#49) ;
#62=VERTEX_POINT('',#61) ;
#64=VERTEX_POINT('',#63) ;
#71=VERTEX_POINT('',#70) ;
#78=VERTEX_POINT('',#77) ;
#119=VERTEX_POINT('',#118) ;
#126=VERTEX_POINT('',#125) ;
#162=VERTEX_POINT('',#161) ;
#164=VERTEX_POINT('',#163) ;
#171=VERTEX_POINT('',#170) ;
#178=VERTEX_POINT('',#177) ;
#219=VERTEX_POINT('',#218) ;
#226=VERTEX_POINT('',#225) ;
#262=VERTEX_POINT('',#261) ;
#264=VERTEX_POINT('',#263) ;
#271=VERTEX_POINT('',#270) ;
#278=VERTEX_POINT('',#277) ;
#319=VERTEX_POINT('',#318) ;
#326=VERTEX_POINT('',#325) ;
#362=VERTEX_POINT('',#361) ;
#364=VERTEX_POINT('',#363) ;
#371=VERTEX_POINT('',#370) ;
#378=VERTEX_POINT('',#377) ;
#419=VERTEX_POINT('',#418) ;
#426=VERTEX_POINT('',#425) ;
#457=VERTEX_POINT('',#456) ;
#464=VERTEX_POINT('',#463) ;
#542=VERTEX_POINT('',#541) ;
#544=VERTEX_POINT('',#543) ;
#551=VERTEX_POINT('',#550) ;
#558=VERTEX_POINT('',#557) ;
#565=VERTEX_POINT('',#564) ;
#572=VERTEX_POINT('',#571) ;
#579=VERTEX_POINT('',#578) ;
#586=VERTEX_POINT('',#585) ;
#618=VERTEX_POINT('',#617) ;
#620=VERTEX_POINT('',#619) ;
#627=VERTEX_POINT('',#626) ;
#634=VERTEX_POINT('',#633) ;
#641=VERTEX_POINT('',#640) ;
#648=VERTEX_POINT('',#647) ;
#655=VERTEX_POINT('',#654) ;
#662=VERTEX_POINT('',#661) ;
#696=VERTEX_POINT('',#695) ;
#718=VERTEX_POINT('',#717) ;
#720=VERTEX_POINT('',#719) ;
#746=VERTEX_POINT('',#745) ;
#767=VERTEX_POINT('',#766) ;
#789=VERTEX_POINT('',#788) ;
#811=VERTEX_POINT('',#810) ;
#846=VERTEX_POINT('',#845) ;
#873=VERTEX_POINT('',#872) ;
#880=VERTEX_POINT('',#879) ;
#903=VERTEX_POINT('',#902) ;
#925=VERTEX_POINT('',#924) ;
#945=VERTEX_POINT('',#944) ;
#966=VERTEX_POINT('',#965) ;
#989=VERTEX_POINT('',#988) ;
#1011=VERTEX_POINT('',#1010) ;
#41=(LENGTH_UNIT()NAMED_UNIT(*)SI_UNIT(.MILLI.,.METRE.)) ;
#42=(NAMED_UNIT(*)PLANE_ANGLE_UNIT()SI_UNIT($,.RADIAN.)) ;
#44=(NAMED_UNIT(*)SI_UNIT($,.STERADIAN.)SOLID_ANGLE_UNIT()) ;
#46=(GEOMETRIC_REPRESENTATION_CONTEXT(3)GLOBAL_UNCERTAINTY_ASSIGNED_CONTEXT((#45))GLOBAL_UNIT_ASSIGNED_CONTEXT((#41,#42,#44))REPRESENTATION_CONTEXT(' ',' ')) ;
ENDSEC;
END-ISO-10303-21;
