ISO-10303-21;
HEADER;
FILE_DESCRIPTION(('CATIA V5 STEP Exchange'),'2;1');

FILE_NAME('C:\\Users\\Hashaam\\Documents\\CAD_Project\\review\\pedal_current.stp','2026-10-06T14:23:43+00:00',('none'),('none'),'CATIA Version 5 Release 21 GA (IN-10)','CATIA V5 STEP AP203','none');

FILE_SCHEMA(('CONFIG_CONTROL_DESIGN'));

ENDSEC;
/* file written by CATIA V5R21 */
DATA;
#5=PRODUCT('Part11','','',(#2)) ;
#1=APPLICATION_CONTEXT('configuration controlled 3D design of mechanical parts and assemblies') ;
#14=PRODUCT_DEFINITION('',' ',#6,#3) ;
#16=SECURITY_CLASSIFICATION(' ',' ',#15) ;
#15=SECURITY_CLASSIFICATION_LEVEL('unclassified') ;
#47=CARTESIAN_POINT(' ',(0.,0.,0.)) ;
#51=CARTESIAN_POINT('CenterPoint',(-440.,-61.5,10.5)) ;
#55=CARTESIAN_POINT('ConstructionOrigin',(0.,0.,0.)) ;
#57=CARTESIAN_POINT('Axis2P3D Location',(10.,-11.569448469,199.151266622)) ;
#62=CARTESIAN_POINT('Line Origine',(10.,-8.76259418063,201.123639004)) ;
#66=CARTESIAN_POINT('Vertex',(0.,-8.76259418063,201.123639004)) ;
#68=CARTESIAN_POINT('Vertex',(20.,-8.76259418063,201.123639004)) ;
#71=CARTESIAN_POINT('Axis2P3D Location',(0.,-11.569448469,199.151266622)) ;
#75=CARTESIAN_POINT('Vertex',(0.,-15.,199.151266621)) ;
#78=CARTESIAN_POINT('Line Origine',(10.,-15.,199.151266621)) ;
#82=CARTESIAN_POINT('Vertex',(20.,-15.,199.151266621)) ;
#85=CARTESIAN_POINT('Axis2P3D Location',(20.,-11.569448469,199.151266622)) ;
#97=CARTESIAN_POINT('Axis2P3D Location',(0.,-15.,199.151266621)) ;
#102=CARTESIAN_POINT('Line Origine',(0.,-15.,164.575633311)) ;
#106=CARTESIAN_POINT('Vertex',(0.,-15.,130.)) ;
#109=CARTESIAN_POINT('Line Origine',(10.,-15.,130.)) ;
#113=CARTESIAN_POINT('Vertex',(20.,-15.,130.)) ;
#116=CARTESIAN_POINT('Line Origine',(20.,-15.,164.575633311)) ;
#128=CARTESIAN_POINT('Axis2P3D Location',(0.,-15.,130.)) ;
#133=CARTESIAN_POINT('Line Origine',(0.,-11.995230627,64.7928729615)) ;
#137=CARTESIAN_POINT('Vertex',(0.,-8.990461254,-0.414254077)) ;
#140=CARTESIAN_POINT('Line Origine',(10.,-8.990461254,-0.414254077)) ;
#144=CARTESIAN_POINT('Vertex',(20.,-8.990461254,-0.414254077)) ;
#147=CARTESIAN_POINT('Line Origine',(20.,-11.995230627,64.7928729615)) ;
#159=CARTESIAN_POINT('Axis2P3D Location',(10.,5.1809507795E-009,173.000000001)) ;
#164=CARTESIAN_POINT('Line Origine',(10.,9.00000000018,172.999999999)) ;
#168=CARTESIAN_POINT('Vertex',(0.,9.00000000018,172.999999994)) ;
#170=CARTESIAN_POINT('Vertex',(20.,9.00000000018,172.999999994)) ;
#173=CARTESIAN_POINT('Axis2P3D Location',(0.,5.1809507795E-009,173.000000001)) ;
#177=CARTESIAN_POINT('Vertex',(0.,7.36373972637,178.17448908)) ;
#180=CARTESIAN_POINT('Line Origine',(10.,7.3637397293,178.174489076)) ;
#184=CARTESIAN_POINT('Vertex',(20.,7.36373972637,178.17448908)) ;
#187=CARTESIAN_POINT('Axis2P3D Location',(20.,5.1809507795E-009,173.000000001)) ;
#199=CARTESIAN_POINT('Axis2P3D Location',(20.,0.,0.)) ;
#204=CARTESIAN_POINT('Line Origine',(20.,-0.699427227132,189.649064042)) ;
#209=CARTESIAN_POINT('Axis2P3D Location',(20.,1.80952142159E-010,-3.91071475203E-009)) ;
#213=CARTESIAN_POINT('Vertex',(20.,9.00000000018,-5.52699207007E-009)) ;
#216=CARTESIAN_POINT('Line Origine',(20.,9.00000000018,86.4999999945)) ;
#231=CARTESIAN_POINT('Axis2P3D Location',(10.,1.80952142159E-010,-3.91071475203E-009)) ;
#236=CARTESIAN_POINT('Axis2P3D Location',(0.,1.80952142159E-010,-3.91071475203E-009)) ;
#240=CARTESIAN_POINT('Vertex',(0.,4.45560086714,-7.81969442981)) ;
#242=CARTESIAN_POINT('Vertex',(0.,9.00000000018,-5.52699207007E-009)) ;
#245=CARTESIAN_POINT('Line Origine',(10.,9.00000000018,-5.52700805728E-009)) ;
#250=CARTESIAN_POINT('Axis2P3D Location',(0.,1.80952142159E-010,-3.91071475203E-009)) ;
#254=CARTESIAN_POINT('Vertex',(0.,-1.43352354897,-8.88510046671)) ;
#257=CARTESIAN_POINT('Axis2P3D Location',(0.,1.80952142159E-010,-3.91071475203E-009)) ;
#271=CARTESIAN_POINT('Axis2P3D Location',(0.,0.,0.)) ;
#276=CARTESIAN_POINT('Line Origine',(0.,0.0513199169534,188.507654138)) ;
#280=CARTESIAN_POINT('Vertex',(0.,0.102639833902,188.507654138)) ;
#282=CARTESIAN_POINT('Vertex',(1.26563066668E-016,0.,188.507654138)) ;
#285=CARTESIAN_POINT('Line Origine',(0.,0.,186.440654138)) ;
#289=CARTESIAN_POINT('Vertex',(-3.79689200003E-016,0.,184.373654138)) ;
#292=CARTESIAN_POINT('Line Origine',(0.,1.50379777769,184.373654138)) ;
#296=CARTESIAN_POINT('Vertex',(0.,3.00759555524,184.373654138)) ;
#299=CARTESIAN_POINT('Line Origine',(0.,5.1856676408,181.274071609)) ;
#304=CARTESIAN_POINT('Line Origine',(0.,9.00000000018,163.752970776)) ;
#308=CARTESIAN_POINT('Vertex',(0.,9.00000000018,154.505941558)) ;
#311=CARTESIAN_POINT('Line Origine',(0.,4.50000000009,154.505941558)) ;
#315=CARTESIAN_POINT('Vertex',(1.26563066668E-016,0.,154.505941558)) ;
#318=CARTESIAN_POINT('Line Origine',(0.,0.,152.438941558)) ;
#322=CARTESIAN_POINT('Vertex',(-3.79689200003E-016,0.,150.371941558)) ;
#325=CARTESIAN_POINT('Line Origine',(0.,4.50000000009,150.371941558)) ;
#329=CARTESIAN_POINT('Vertex',(0.,9.00000000018,150.371941558)) ;
#332=CARTESIAN_POINT('Line Origine',(0.,9.00000000018,75.1859707762)) ;
#337=CARTESIAN_POINT('Line Origine',(0.,-4.32997717337,194.815646571)) ;
#362=CARTESIAN_POINT('Axis2P3D Location',(0.,9.00000000018,-5.52699207014E-009)) ;
#367=CARTESIAN_POINT('Axis2P3D Location',(-1.1626116736E-014,9.00000000018,152.438941558)) ;
#371=CARTESIAN_POINT('Vertex',(2.067,9.00000000018,152.438941558)) ;
#374=CARTESIAN_POINT('Axis2P3D Location',(-1.04360964315E-014,9.00000000018,152.438941558)) ;
#389=CARTESIAN_POINT('Axis2P3D Location',(0.,7.36373972637,178.17448908)) ;
#395=CARTESIAN_POINT('Control Point',(0.,3.00759555524,184.373654138)) ;
#396=CARTESIAN_POINT('Control Point',(0.202523739179,3.00759555524,184.373654138)) ;
#397=CARTESIAN_POINT('Control Point',(0.405046844599,2.99016583344,184.39845812)) ;
#398=CARTESIAN_POINT('Control Point',(0.601213468086,2.95529749715,184.44807874)) ;
#399=CARTESIAN_POINT('Control Point',(0.903273880534,2.87354420716,184.564420651)) ;
#400=CARTESIAN_POINT('Control Point',(1.16784240775,2.75801375641,184.728830346)) ;
#401=CARTESIAN_POINT('Control Point',(1.26429723554,2.70867367055,184.7990455)) ;
#402=CARTESIAN_POINT('Control Point',(1.55977432286,2.53378355339,185.047929068)) ;
#403=CARTESIAN_POINT('Control Point',(1.78198512671,2.32326684265,185.34751232)) ;
#404=CARTESIAN_POINT('Control Point',(1.89975950142,2.16569776896,185.571746564)) ;
#405=CARTESIAN_POINT('Control Point',(2.00889196611,1.94744222841,185.882342832)) ;
#406=CARTESIAN_POINT('Control Point',(2.05542153946,1.72341208169,186.201156857)) ;
#407=CARTESIAN_POINT('Control Point',(2.06314051621,1.66739158826,186.280878802)) ;
#408=CARTESIAN_POINT('Control Point',(2.067,1.61125465412,186.360766452)) ;
#409=CARTESIAN_POINT('Control Point',(2.067,1.55511769457,186.440654138)) ;
#410=CARTESIAN_POINT('Vertex',(2.067,1.55511769457,186.440654138)) ;
#414=CARTESIAN_POINT('Control Point',(-2.22044604925E-016,0.102639833902,188.507654138)) ;
#415=CARTESIAN_POINT('Control Point',(0.202523739093,0.102639833902,188.507654138)) ;
#416=CARTESIAN_POINT('Control Point',(0.405046844427,0.120069555684,188.482850156)) ;
#417=CARTESIAN_POINT('Control Point',(0.60121346823,0.154937892034,188.433229536)) ;
#418=CARTESIAN_POINT('Control Point',(0.903273880596,0.236691182003,188.316887625)) ;
#419=CARTESIAN_POINT('Control Point',(1.16784240775,0.352221632724,188.15247793)) ;
#420=CARTESIAN_POINT('Control Point',(1.26429723552,0.401561718583,188.082262776)) ;
#421=CARTESIAN_POINT('Control Point',(1.55977432287,0.576451835751,187.833379208)) ;
#422=CARTESIAN_POINT('Control Point',(1.78198512673,0.786968546505,187.533795956)) ;
#423=CARTESIAN_POINT('Control Point',(1.8997595014,0.944537620138,187.309561712)) ;
#424=CARTESIAN_POINT('Control Point',(2.00889196611,1.16279316071,186.998965444)) ;
#425=CARTESIAN_POINT('Control Point',(2.05542153946,1.38682330744,186.680151419)) ;
#426=CARTESIAN_POINT('Control Point',(2.06314051621,1.44284380088,186.600429474)) ;
#427=CARTESIAN_POINT('Control Point',(2.067,1.49898073502,186.520541824)) ;
#428=CARTESIAN_POINT('Control Point',(2.067,1.55511769457,186.440654138)) ;
#440=CARTESIAN_POINT('Axis2P3D Location',(0.,0.,0.)) ;
#445=CARTESIAN_POINT('Axis2P3D Location',(0.,0.,152.438941558)) ;
#449=CARTESIAN_POINT('Vertex',(2.067,0.,152.438941558)) ;
#452=CARTESIAN_POINT('Axis2P3D Location',(0.,0.,152.438941558)) ;
#463=CARTESIAN_POINT('Axis2P3D Location',(0.,5.,152.438941558)) ;
#468=CARTESIAN_POINT('Line Origine',(2.067,5.,152.438941558)) ;
#487=CARTESIAN_POINT('Axis2P3D Location',(0.,0.,186.440654138)) ;
#491=CARTESIAN_POINT('Vertex',(2.067,0.,186.440654138)) ;
#494=CARTESIAN_POINT('Axis2P3D Location',(0.,0.,186.440654138)) ;
#505=CARTESIAN_POINT('Axis2P3D Location',(0.,5.,186.440654138)) ;
#510=CARTESIAN_POINT('Line Origine',(2.067,5.,186.440654138)) ;
#532=CARTESIAN_POINT('Axis2P3D Location',(-440.,-61.5,10.5)) ;
#536=CARTESIAN_POINT('Axis2P3D Location',(0.,0.,0.)) ;
#58=DIRECTION('Axis2P3D Direction',(1.,0.,0.)) ;
#59=DIRECTION('Axis2P3D XDirection',(0.,0.818193303031,0.574943231002)) ;
#63=DIRECTION('Vector Direction',(1.,0.,0.)) ;
#72=DIRECTION('Axis2P3D Direction',(1.,0.,0.)) ;
#79=DIRECTION('Vector Direction',(1.,0.,0.)) ;
#86=DIRECTION('Axis2P3D Direction',(1.,0.,0.)) ;
#98=DIRECTION('Axis2P3D Direction',(0.,-1.,0.)) ;
#99=DIRECTION('Axis2P3D XDirection',(0.,0.,-1.)) ;
#103=DIRECTION('Vector Direction',(0.,0.,-1.)) ;
#110=DIRECTION('Vector Direction',(1.,0.,0.)) ;
#117=DIRECTION('Vector Direction',(0.,0.,-1.)) ;
#129=DIRECTION('Axis2P3D Direction',(0.,-0.998939986989,-0.0460315369606)) ;
#130=DIRECTION('Axis2P3D XDirection',(0.,0.0460315369606,-0.998939986989)) ;
#134=DIRECTION('Vector Direction',(0.,0.0460315369606,-0.998939986989)) ;
#141=DIRECTION('Vector Direction',(1.,0.,0.)) ;
#148=DIRECTION('Vector Direction',(0.,0.0460315369606,-0.998939986989)) ;
#160=DIRECTION('Axis2P3D Direction',(1.,0.,0.)) ;
#161=DIRECTION('Axis2P3D XDirection',(0.,1.,-1.79587256849E-010)) ;
#165=DIRECTION('Vector Direction',(1.,0.,0.)) ;
#174=DIRECTION('Axis2P3D Direction',(1.,0.,0.)) ;
#181=DIRECTION('Vector Direction',(1.,0.,0.)) ;
#188=DIRECTION('Axis2P3D Direction',(1.,0.,0.)) ;
#200=DIRECTION('Axis2P3D Direction',(1.,0.,0.)) ;
#201=DIRECTION('Axis2P3D XDirection',(0.,1.,0.)) ;
#205=DIRECTION('Vector Direction',(0.,-0.574943230976,0.81819330305)) ;
#210=DIRECTION('Axis2P3D Direction',(1.,0.,0.)) ;
#217=DIRECTION('Vector Direction',(0.,0.,1.)) ;
#232=DIRECTION('Axis2P3D Direction',(1.,0.,0.)) ;
#233=DIRECTION('Axis2P3D XDirection',(-0.,-0.998940139353,-0.0460282303433)) ;
#237=DIRECTION('Axis2P3D Direction',(1.,0.,0.)) ;
#246=DIRECTION('Vector Direction',(1.,0.,0.)) ;
#251=DIRECTION('Axis2P3D Direction',(1.,0.,0.)) ;
#258=DIRECTION('Axis2P3D Direction',(1.,0.,0.)) ;
#272=DIRECTION('Axis2P3D Direction',(1.,0.,0.)) ;
#273=DIRECTION('Axis2P3D XDirection',(0.,1.,0.)) ;
#277=DIRECTION('Vector Direction',(0.,-1.,7.14420586427E-011)) ;
#286=DIRECTION('Vector Direction',(0.,0.,-1.)) ;
#293=DIRECTION('Vector Direction',(0.,-1.,7.02605804948E-011)) ;
#300=DIRECTION('Vector Direction',(0.,-0.574943230976,0.81819330305)) ;
#305=DIRECTION('Vector Direction',(0.,0.,1.)) ;
#312=DIRECTION('Vector Direction',(0.,-1.,6.25909200999E-011)) ;
#319=DIRECTION('Vector Direction',(0.,0.,-1.)) ;
#326=DIRECTION('Vector Direction',(0.,-1.,6.15298429479E-011)) ;
#333=DIRECTION('Vector Direction',(0.,0.,1.)) ;
#338=DIRECTION('Vector Direction',(0.,-0.574943230976,0.81819330305)) ;
#363=DIRECTION('Axis2P3D Direction',(0.,1.,0.)) ;
#364=DIRECTION('Axis2P3D XDirection',(0.,0.,1.)) ;
#368=DIRECTION('Axis2P3D Direction',(0.,1.,0.)) ;
#375=DIRECTION('Axis2P3D Direction',(0.,1.,0.)) ;
#390=DIRECTION('Axis2P3D Direction',(-0.,0.81819330305,0.574943230976)) ;
#391=DIRECTION('Axis2P3D XDirection',(0.,-0.574943230976,0.81819330305)) ;
#441=DIRECTION('Axis2P3D Direction',(0.,-1.,0.)) ;
#442=DIRECTION('Axis2P3D XDirection',(1.,0.,0.)) ;
#446=DIRECTION('Axis2P3D Direction',(0.,-1.,0.)) ;
#453=DIRECTION('Axis2P3D Direction',(0.,-1.,0.)) ;
#464=DIRECTION('Axis2P3D Direction',(0.,-1.,0.)) ;
#465=DIRECTION('Axis2P3D XDirection',(1.,0.,0.)) ;
#469=DIRECTION('Vector Direction',(0.,-1.,0.)) ;
#488=DIRECTION('Axis2P3D Direction',(0.,-1.,0.)) ;
#495=DIRECTION('Axis2P3D Direction',(0.,-1.,0.)) ;
#506=DIRECTION('Axis2P3D Direction',(0.,-1.,0.)) ;
#507=DIRECTION('Axis2P3D XDirection',(1.,0.,0.)) ;
#511=DIRECTION('Vector Direction',(0.,-1.,0.)) ;
#533=DIRECTION('Axis2P3D Direction',(0.,0.,1.)) ;
#534=DIRECTION('Axis2P3D XDirection',(0.,1.,0.)) ;
#537=DIRECTION('Axis2P3D Direction',(0.,0.,1.)) ;
#538=DIRECTION('Axis2P3D XDirection',(1.,0.,0.)) ;
#48=AXIS2_PLACEMENT_3D(' ',#47,$,$) ;
#60=AXIS2_PLACEMENT_3D('Cylinder Axis2P3D',#57,#58,#59) ;
#73=AXIS2_PLACEMENT_3D('Circle Axis2P3D',#71,#72,$) ;
#87=AXIS2_PLACEMENT_3D('Circle Axis2P3D',#85,#86,$) ;
#100=AXIS2_PLACEMENT_3D('Plane Axis2P3D',#97,#98,#99) ;
#131=AXIS2_PLACEMENT_3D('Plane Axis2P3D',#128,#129,#130) ;
#162=AXIS2_PLACEMENT_3D('Cylinder Axis2P3D',#159,#160,#161) ;
#175=AXIS2_PLACEMENT_3D('Circle Axis2P3D',#173,#174,$) ;
#189=AXIS2_PLACEMENT_3D('Circle Axis2P3D',#187,#188,$) ;
#202=AXIS2_PLACEMENT_3D('Plane Axis2P3D',#199,#200,#201) ;
#211=AXIS2_PLACEMENT_3D('Circle Axis2P3D',#209,#210,$) ;
#234=AXIS2_PLACEMENT_3D('Cylinder Axis2P3D',#231,#232,#233) ;
#238=AXIS2_PLACEMENT_3D('Circle Axis2P3D',#236,#237,$) ;
#252=AXIS2_PLACEMENT_3D('Circle Axis2P3D',#250,#251,$) ;
#259=AXIS2_PLACEMENT_3D('Circle Axis2P3D',#257,#258,$) ;
#274=AXIS2_PLACEMENT_3D('Plane Axis2P3D',#271,#272,#273) ;
#365=AXIS2_PLACEMENT_3D('Plane Axis2P3D',#362,#363,#364) ;
#369=AXIS2_PLACEMENT_3D('Circle Axis2P3D',#367,#368,$) ;
#376=AXIS2_PLACEMENT_3D('Circle Axis2P3D',#374,#375,$) ;
#392=AXIS2_PLACEMENT_3D('Plane Axis2P3D',#389,#390,#391) ;
#443=AXIS2_PLACEMENT_3D('Plane Axis2P3D',#440,#441,#442) ;
#447=AXIS2_PLACEMENT_3D('Circle Axis2P3D',#445,#446,$) ;
#454=AXIS2_PLACEMENT_3D('Circle Axis2P3D',#452,#453,$) ;
#466=AXIS2_PLACEMENT_3D('Cylinder Axis2P3D',#463,#464,#465) ;
#489=AXIS2_PLACEMENT_3D('Circle Axis2P3D',#487,#488,$) ;
#496=AXIS2_PLACEMENT_3D('Circle Axis2P3D',#494,#495,$) ;
#508=AXIS2_PLACEMENT_3D('Cylinder Axis2P3D',#505,#506,#507) ;
#535=AXIS2_PLACEMENT_3D('PartAxisSystem',#532,#533,#534) ;
#539=AXIS2_PLACEMENT_3D('ConstructionAxis',#536,#537,#538) ;
#40=PRODUCT_DEFINITION_SHAPE(' ',' ',#14) ;
#31=APPROVAL_PERSON_ORGANIZATION(#25,#21,#19) ;
#25=PERSON_AND_ORGANIZATION(#22,#23) ;
#22=PERSON(' ',' ',' ',$,$,$) ;
#23=ORGANIZATION(' ',' ',' ') ;
#21=APPROVAL(#20,' ') ;
#20=APPROVAL_STATUS('not_yet_approved') ;
#19=APPROVAL_ROLE('APPROVER') ;
#13=DATE_AND_TIME(#11,#12) ;
#12=LOCAL_TIME(16,23,43.,#10) ;
#10=COORDINATED_UNIVERSAL_TIME_OFFSET(0,0,.AHEAD.) ;
#91=ORIENTED_EDGE('',*,*,#70,.F.) ;
#92=ORIENTED_EDGE('',*,*,#77,.T.) ;
#93=ORIENTED_EDGE('',*,*,#84,.T.) ;
#94=ORIENTED_EDGE('',*,*,#89,.F.) ;
#122=ORIENTED_EDGE('',*,*,#84,.F.) ;
#123=ORIENTED_EDGE('',*,*,#108,.T.) ;
#124=ORIENTED_EDGE('',*,*,#115,.T.) ;
#125=ORIENTED_EDGE('',*,*,#120,.F.) ;
#153=ORIENTED_EDGE('',*,*,#115,.F.) ;
#154=ORIENTED_EDGE('',*,*,#139,.T.) ;
#155=ORIENTED_EDGE('',*,*,#146,.T.) ;
#156=ORIENTED_EDGE('',*,*,#151,.F.) ;
#193=ORIENTED_EDGE('',*,*,#172,.F.) ;
#194=ORIENTED_EDGE('',*,*,#179,.T.) ;
#195=ORIENTED_EDGE('',*,*,#186,.T.) ;
#196=ORIENTED_EDGE('',*,*,#191,.F.) ;
#222=ORIENTED_EDGE('',*,*,#208,.T.) ;
#223=ORIENTED_EDGE('',*,*,#89,.T.) ;
#224=ORIENTED_EDGE('',*,*,#120,.T.) ;
#225=ORIENTED_EDGE('',*,*,#151,.T.) ;
#226=ORIENTED_EDGE('',*,*,#215,.T.) ;
#227=ORIENTED_EDGE('',*,*,#220,.T.) ;
#228=ORIENTED_EDGE('',*,*,#191,.T.) ;
#263=ORIENTED_EDGE('',*,*,#244,.T.) ;
#264=ORIENTED_EDGE('',*,*,#249,.T.) ;
#265=ORIENTED_EDGE('',*,*,#215,.F.) ;
#266=ORIENTED_EDGE('',*,*,#146,.F.) ;
#267=ORIENTED_EDGE('',*,*,#256,.T.) ;
#268=ORIENTED_EDGE('',*,*,#261,.T.) ;
#343=ORIENTED_EDGE('',*,*,#284,.T.) ;
#344=ORIENTED_EDGE('',*,*,#291,.T.) ;
#345=ORIENTED_EDGE('',*,*,#298,.F.) ;
#346=ORIENTED_EDGE('',*,*,#303,.F.) ;
#347=ORIENTED_EDGE('',*,*,#179,.F.) ;
#348=ORIENTED_EDGE('',*,*,#310,.F.) ;
#349=ORIENTED_EDGE('',*,*,#317,.T.) ;
#350=ORIENTED_EDGE('',*,*,#324,.T.) ;
#351=ORIENTED_EDGE('',*,*,#331,.F.) ;
#352=ORIENTED_EDGE('',*,*,#336,.F.) ;
#353=ORIENTED_EDGE('',*,*,#244,.F.) ;
#354=ORIENTED_EDGE('',*,*,#261,.F.) ;
#355=ORIENTED_EDGE('',*,*,#256,.F.) ;
#356=ORIENTED_EDGE('',*,*,#139,.F.) ;
#357=ORIENTED_EDGE('',*,*,#108,.F.) ;
#358=ORIENTED_EDGE('',*,*,#77,.F.) ;
#359=ORIENTED_EDGE('',*,*,#341,.F.) ;
#380=ORIENTED_EDGE('',*,*,#310,.T.) ;
#381=ORIENTED_EDGE('',*,*,#172,.T.) ;
#382=ORIENTED_EDGE('',*,*,#220,.F.) ;
#383=ORIENTED_EDGE('',*,*,#249,.F.) ;
#384=ORIENTED_EDGE('',*,*,#336,.T.) ;
#385=ORIENTED_EDGE('',*,*,#373,.F.) ;
#386=ORIENTED_EDGE('',*,*,#378,.F.) ;
#431=ORIENTED_EDGE('',*,*,#341,.T.) ;
#432=ORIENTED_EDGE('',*,*,#70,.T.) ;
#433=ORIENTED_EDGE('',*,*,#208,.F.) ;
#434=ORIENTED_EDGE('',*,*,#186,.F.) ;
#435=ORIENTED_EDGE('',*,*,#303,.T.) ;
#436=ORIENTED_EDGE('',*,*,#412,.T.) ;
#437=ORIENTED_EDGE('',*,*,#429,.F.) ;
#458=ORIENTED_EDGE('',*,*,#324,.F.) ;
#459=ORIENTED_EDGE('',*,*,#451,.F.) ;
#460=ORIENTED_EDGE('',*,*,#456,.F.) ;
#474=ORIENTED_EDGE('',*,*,#373,.T.) ;
#475=ORIENTED_EDGE('',*,*,#331,.T.) ;
#476=ORIENTED_EDGE('',*,*,#456,.T.) ;
#477=ORIENTED_EDGE('',*,*,#472,.T.) ;
#481=ORIENTED_EDGE('',*,*,#317,.F.) ;
#482=ORIENTED_EDGE('',*,*,#378,.T.) ;
#483=ORIENTED_EDGE('',*,*,#472,.F.) ;
#484=ORIENTED_EDGE('',*,*,#451,.T.) ;
#500=ORIENTED_EDGE('',*,*,#291,.F.) ;
#501=ORIENTED_EDGE('',*,*,#493,.F.) ;
#502=ORIENTED_EDGE('',*,*,#498,.F.) ;
#516=ORIENTED_EDGE('',*,*,#412,.F.) ;
#517=ORIENTED_EDGE('',*,*,#298,.T.) ;
#518=ORIENTED_EDGE('',*,*,#498,.T.) ;
#519=ORIENTED_EDGE('',*,*,#514,.T.) ;
#523=ORIENTED_EDGE('',*,*,#284,.F.) ;
#524=ORIENTED_EDGE('',*,*,#429,.T.) ;
#525=ORIENTED_EDGE('',*,*,#514,.F.) ;
#526=ORIENTED_EDGE('',*,*,#493,.T.) ;
#56=CLOSED_SHELL('Closed Shell',(#96,#127,#158,#198,#230,#270,#361,#388,#439,#462,#479,#486,#504,#521,#528)) ;
#64=VECTOR('Line Direction',#63,1.) ;
#80=VECTOR('Line Direction',#79,1.) ;
#104=VECTOR('Line Direction',#103,1.) ;
#111=VECTOR('Line Direction',#110,1.) ;
#118=VECTOR('Line Direction',#117,1.) ;
#135=VECTOR('Line Direction',#134,1.) ;
#142=VECTOR('Line Direction',#141,1.) ;
#149=VECTOR('Line Direction',#148,1.) ;
#166=VECTOR('Line Direction',#165,1.) ;
#182=VECTOR('Line Direction',#181,1.) ;
#206=VECTOR('Line Direction',#205,1.) ;
#218=VECTOR('Line Direction',#217,1.) ;
#247=VECTOR('Line Direction',#246,1.) ;
#278=VECTOR('Line Direction',#277,1.) ;
#287=VECTOR('Line Direction',#286,1.) ;
#294=VECTOR('Line Direction',#293,1.) ;
#301=VECTOR('Line Direction',#300,1.) ;
#306=VECTOR('Line Direction',#305,1.) ;
#313=VECTOR('Line Direction',#312,1.) ;
#320=VECTOR('Line Direction',#319,1.) ;
#327=VECTOR('Line Direction',#326,1.) ;
#334=VECTOR('Line Direction',#333,1.) ;
#339=VECTOR('Line Direction',#338,1.) ;
#470=VECTOR('Line Direction',#469,1.) ;
#512=VECTOR('Line Direction',#511,1.) ;
#530=ADVANCED_BREP_SHAPE_REPRESENTATION('NONE',(#529),#46) ;
#49=SHAPE_REPRESENTATION(' ',(#48),#46) ;
#96=ADVANCED_FACE('MAIN',(#95),#61,.T.) ;
#127=ADVANCED_FACE('MAIN',(#126),#101,.T.) ;
#158=ADVANCED_FACE('MAIN',(#157),#132,.T.) ;
#198=ADVANCED_FACE('MAIN',(#197),#163,.T.) ;
#230=ADVANCED_FACE('MAIN',(#229),#203,.T.) ;
#270=ADVANCED_FACE('MAIN',(#269),#235,.T.) ;
#361=ADVANCED_FACE('MAIN',(#360),#275,.F.) ;
#388=ADVANCED_FACE('MAIN',(#387),#366,.T.) ;
#439=ADVANCED_FACE('MAIN',(#438),#393,.T.) ;
#462=ADVANCED_FACE('MAIN',(#461),#444,.F.) ;
#479=ADVANCED_FACE('MAIN',(#478),#467,.F.) ;
#486=ADVANCED_FACE('MAIN',(#485),#467,.F.) ;
#504=ADVANCED_FACE('MAIN',(#503),#444,.F.) ;
#521=ADVANCED_FACE('MAIN',(#520),#509,.F.) ;
#528=ADVANCED_FACE('MAIN',(#527),#509,.F.) ;
#4=APPLICATION_PROTOCOL_DEFINITION('international standard','config_control_design',1994,#1) ;
#32=APPROVAL_DATE_TIME(#13,#21) ;
#394=B_SPLINE_CURVE_WITH_KNOTS('',5,(#395,#396,#397,#398,#399,#400,#401,#402,#403,#404,#405,#406,#407,#408,#409),.UNSPECIFIED.,.F.,.U.,(6,3,3,3,6),(0.,1.43205909325,2.34138909721,4.42359015407,5.11400309631),.UNSPECIFIED.) ;
#413=B_SPLINE_CURVE_WITH_KNOTS('',5,(#414,#415,#416,#417,#418,#419,#420,#421,#422,#423,#424,#425,#426,#427,#428),.UNSPECIFIED.,.F.,.U.,(6,3,3,3,6),(0.,1.43205909264,2.34138909664,4.42359015367,5.11400309594),.UNSPECIFIED.) ;
#529=MANIFOLD_SOLID_BREP('MAIN',#56) ;
#11=CALENDAR_DATE(2026,6,10) ;
#30=CC_DESIGN_APPROVAL(#21,(#16,#6,#14)) ;
#18=CC_DESIGN_DATE_AND_TIME_ASSIGNMENT(#13,#17,(#16)) ;
#29=CC_DESIGN_DATE_AND_TIME_ASSIGNMENT(#13,#28,(#14)) ;
#17=DATE_TIME_ROLE('classification_date') ;
#28=DATE_TIME_ROLE('creation_date') ;
#27=CC_DESIGN_PERSON_AND_ORGANIZATION_ASSIGNMENT(#25,#26,(#16)) ;
#33=CC_DESIGN_PERSON_AND_ORGANIZATION_ASSIGNMENT(#25,#34,(#6)) ;
#35=CC_DESIGN_PERSON_AND_ORGANIZATION_ASSIGNMENT(#25,#36,(#6,#14)) ;
#37=CC_DESIGN_PERSON_AND_ORGANIZATION_ASSIGNMENT(#25,#38,(#5)) ;
#26=PERSON_AND_ORGANIZATION_ROLE('classification_officer') ;
#34=PERSON_AND_ORGANIZATION_ROLE('design_supplier') ;
#36=PERSON_AND_ORGANIZATION_ROLE('creator') ;
#38=PERSON_AND_ORGANIZATION_ROLE('design_owner') ;
#39=CC_DESIGN_SECURITY_CLASSIFICATION(#16,(#6)) ;
#74=CIRCLE('generated circle',#73,3.430551531) ;
#88=CIRCLE('generated circle',#87,3.430551531) ;
#176=CIRCLE('generated circle',#175,8.999999995) ;
#190=CIRCLE('generated circle',#189,8.999999995) ;
#212=CIRCLE('generated circle',#211,9.) ;
#239=CIRCLE('generated circle',#238,9.) ;
#253=CIRCLE('generated circle',#252,9.) ;
#260=CIRCLE('generated circle',#259,9.) ;
#370=CIRCLE('generated circle',#369,2.067) ;
#377=CIRCLE('generated circle',#376,2.067) ;
#448=CIRCLE('generated circle',#447,2.067) ;
#455=CIRCLE('generated circle',#454,2.067) ;
#490=CIRCLE('generated circle',#489,2.067) ;
#497=CIRCLE('generated circle',#496,2.067) ;
#54=SHAPE_REPRESENTATION_RELATIONSHIP(' ',' ',#49,#52) ;
#531=SHAPE_REPRESENTATION_RELATIONSHIP(' ',' ',#49,#530) ;
#61=CYLINDRICAL_SURFACE('generated cylinder',#60,3.430551531) ;
#163=CYLINDRICAL_SURFACE('generated cylinder',#162,8.999999995) ;
#235=CYLINDRICAL_SURFACE('generated cylinder',#234,9.) ;
#467=CYLINDRICAL_SURFACE('generated cylinder',#466,2.067) ;
#509=CYLINDRICAL_SURFACE('generated cylinder',#508,2.067) ;
#3=DESIGN_CONTEXT(' ',#1,'design') ;
#70=EDGE_CURVE('',#67,#69,#65,.T.) ;
#77=EDGE_CURVE('',#67,#76,#74,.T.) ;
#84=EDGE_CURVE('',#76,#83,#81,.T.) ;
#89=EDGE_CURVE('',#69,#83,#88,.T.) ;
#108=EDGE_CURVE('',#76,#107,#105,.T.) ;
#115=EDGE_CURVE('',#107,#114,#112,.T.) ;
#120=EDGE_CURVE('',#83,#114,#119,.T.) ;
#139=EDGE_CURVE('',#107,#138,#136,.T.) ;
#146=EDGE_CURVE('',#138,#145,#143,.T.) ;
#151=EDGE_CURVE('',#114,#145,#150,.T.) ;
#172=EDGE_CURVE('',#169,#171,#167,.T.) ;
#179=EDGE_CURVE('',#169,#178,#176,.T.) ;
#186=EDGE_CURVE('',#178,#185,#183,.T.) ;
#191=EDGE_CURVE('',#171,#185,#190,.T.) ;
#208=EDGE_CURVE('',#185,#69,#207,.T.) ;
#215=EDGE_CURVE('',#145,#214,#212,.T.) ;
#220=EDGE_CURVE('',#214,#171,#219,.T.) ;
#244=EDGE_CURVE('',#241,#243,#239,.T.) ;
#249=EDGE_CURVE('',#243,#214,#248,.T.) ;
#256=EDGE_CURVE('',#138,#255,#253,.T.) ;
#261=EDGE_CURVE('',#255,#241,#260,.T.) ;
#284=EDGE_CURVE('',#281,#283,#279,.T.) ;
#291=EDGE_CURVE('',#283,#290,#288,.T.) ;
#298=EDGE_CURVE('',#297,#290,#295,.T.) ;
#303=EDGE_CURVE('',#178,#297,#302,.T.) ;
#310=EDGE_CURVE('',#309,#169,#307,.T.) ;
#317=EDGE_CURVE('',#309,#316,#314,.T.) ;
#324=EDGE_CURVE('',#316,#323,#321,.T.) ;
#331=EDGE_CURVE('',#330,#323,#328,.T.) ;
#336=EDGE_CURVE('',#243,#330,#335,.T.) ;
#341=EDGE_CURVE('',#281,#67,#340,.T.) ;
#373=EDGE_CURVE('',#372,#330,#370,.T.) ;
#378=EDGE_CURVE('',#309,#372,#377,.T.) ;
#412=EDGE_CURVE('',#297,#411,#394,.T.) ;
#429=EDGE_CURVE('',#281,#411,#413,.T.) ;
#451=EDGE_CURVE('',#450,#316,#448,.T.) ;
#456=EDGE_CURVE('',#323,#450,#455,.T.) ;
#472=EDGE_CURVE('',#450,#372,#471,.F.) ;
#493=EDGE_CURVE('',#492,#283,#490,.T.) ;
#498=EDGE_CURVE('',#290,#492,#497,.T.) ;
#514=EDGE_CURVE('',#492,#411,#513,.F.) ;
#90=EDGE_LOOP('',(#91,#92,#93,#94)) ;
#121=EDGE_LOOP('',(#122,#123,#124,#125)) ;
#152=EDGE_LOOP('',(#153,#154,#155,#156)) ;
#192=EDGE_LOOP('',(#193,#194,#195,#196)) ;
#221=EDGE_LOOP('',(#222,#223,#224,#225,#226,#227,#228)) ;
#262=EDGE_LOOP('',(#263,#264,#265,#266,#267,#268)) ;
#342=EDGE_LOOP('',(#343,#344,#345,#346,#347,#348,#349,#350,#351,#352,#353,#354,#355,#356,#357,#358,#359)) ;
#379=EDGE_LOOP('',(#380,#381,#382,#383,#384,#385,#386)) ;
#430=EDGE_LOOP('',(#431,#432,#433,#434,#435,#436,#437)) ;
#457=EDGE_LOOP('',(#458,#459,#460)) ;
#473=EDGE_LOOP('',(#474,#475,#476,#477)) ;
#480=EDGE_LOOP('',(#481,#482,#483,#484)) ;
#499=EDGE_LOOP('',(#500,#501,#502)) ;
#515=EDGE_LOOP('',(#516,#517,#518,#519)) ;
#522=EDGE_LOOP('',(#523,#524,#525,#526)) ;
#95=FACE_OUTER_BOUND('',#90,.T.) ;
#126=FACE_OUTER_BOUND('',#121,.T.) ;
#157=FACE_OUTER_BOUND('',#152,.T.) ;
#197=FACE_OUTER_BOUND('',#192,.T.) ;
#229=FACE_OUTER_BOUND('',#221,.T.) ;
#269=FACE_OUTER_BOUND('',#262,.T.) ;
#360=FACE_OUTER_BOUND('',#342,.T.) ;
#387=FACE_OUTER_BOUND('',#379,.T.) ;
#438=FACE_OUTER_BOUND('',#430,.T.) ;
#461=FACE_OUTER_BOUND('',#457,.T.) ;
#478=FACE_OUTER_BOUND('',#473,.T.) ;
#485=FACE_OUTER_BOUND('',#480,.T.) ;
#503=FACE_OUTER_BOUND('',#499,.T.) ;
#520=FACE_OUTER_BOUND('',#515,.T.) ;
#527=FACE_OUTER_BOUND('',#522,.T.) ;
#53=GEOMETRIC_SET('NONE',(#51,#55)) ;
#52=GEOMETRICALLY_BOUNDED_SURFACE_SHAPE_REPRESENTATION('NONE',(#53),#46) ;
#45=UNCERTAINTY_MEASURE_WITH_UNIT(LENGTH_MEASURE(0.005),#41,'distance_accuracy_value','CONFUSED CURVE UNCERTAINTY') ;
#65=LINE('Line',#62,#64) ;
#81=LINE('Line',#78,#80) ;
#105=LINE('Line',#102,#104) ;
#112=LINE('Line',#109,#111) ;
#119=LINE('Line',#116,#118) ;
#136=LINE('Line',#133,#135) ;
#143=LINE('Line',#140,#142) ;
#150=LINE('Line',#147,#149) ;
#167=LINE('Line',#164,#166) ;
#183=LINE('Line',#180,#182) ;
#207=LINE('Line',#204,#206) ;
#219=LINE('Line',#216,#218) ;
#248=LINE('Line',#245,#247) ;
#279=LINE('Line',#276,#278) ;
#288=LINE('Line',#285,#287) ;
#295=LINE('Line',#292,#294) ;
#302=LINE('Line',#299,#301) ;
#307=LINE('Line',#304,#306) ;
#314=LINE('Line',#311,#313) ;
#321=LINE('Line',#318,#320) ;
#328=LINE('Line',#325,#327) ;
#335=LINE('Line',#332,#334) ;
#340=LINE('Line',#337,#339) ;
#471=LINE('Line',#468,#470) ;
#513=LINE('Line',#510,#512) ;
#2=MECHANICAL_CONTEXT(' ',#1,'mechanical') ;
#24=PERSONAL_ADDRESS(' ',' ',' ',' ',' ',' ',' ',' ',' ',' ',' ',' ',(#22),' ') ;
#101=PLANE('',#100) ;
#132=PLANE('',#131) ;
#203=PLANE('',#202) ;
#275=PLANE('',#274) ;
#366=PLANE('',#365) ;
#393=PLANE('',#392) ;
#444=PLANE('',#443) ;
#43=PLANE_ANGLE_MEASURE_WITH_UNIT(PLANE_ANGLE_MEASURE(0.0174532925199),#42) ;
#7=PRODUCT_CATEGORY('part',$) ;
#9=PRODUCT_CATEGORY_RELATIONSHIP(' ',' ',#7,#8) ;
#6=PRODUCT_DEFINITION_FORMATION_WITH_SPECIFIED_SOURCE('',' ',#5,.NOT_KNOWN.) ;
#8=PRODUCT_RELATED_PRODUCT_CATEGORY('detail',$,(#5)) ;
#50=SHAPE_DEFINITION_REPRESENTATION(#40,#49) ;
#67=VERTEX_POINT('',#66) ;
#69=VERTEX_POINT('',#68) ;
#76=VERTEX_POINT('',#75) ;
#83=VERTEX_POINT('',#82) ;
#107=VERTEX_POINT('',#106) ;
#114=VERTEX_POINT('',#113) ;
#138=VERTEX_POINT('',#137) ;
#145=VERTEX_POINT('',#144) ;
#169=VERTEX_POINT('',#168) ;
#171=VERTEX_POINT('',#170) ;
#178=VERTEX_POINT('',#177) ;
#185=VERTEX_POINT('',#184) ;
#214=VERTEX_POINT('',#213) ;
#241=VERTEX_POINT('',#240) ;
#243=VERTEX_POINT('',#242) ;
#255=VERTEX_POINT('',#254) ;
#281=VERTEX_POINT('',#280) ;
#283=VERTEX_POINT('',#282) ;
#290=VERTEX_POINT('',#289) ;
#297=VERTEX_POINT('',#296) ;
#309=VERTEX_POINT('',#308) ;
#316=VERTEX_POINT('',#315) ;
#323=VERTEX_POINT('',#322) ;
#330=VERTEX_POINT('',#329) ;
#372=VERTEX_POINT('',#371) ;
#411=VERTEX_POINT('',#410) ;
#450=VERTEX_POINT('',#449) ;
#492=VERTEX_POINT('',#491) ;
#41=(LENGTH_UNIT()NAMED_UNIT(*)SI_UNIT(.MILLI.,.METRE.)) ;
#42=(NAMED_UNIT(*)PLANE_ANGLE_UNIT()SI_UNIT($,.RADIAN.)) ;
#44=(NAMED_UNIT(*)SI_UNIT($,.STERADIAN.)SOLID_ANGLE_UNIT()) ;
#46=(GEOMETRIC_REPRESENTATION_CONTEXT(3)GLOBAL_UNCERTAINTY_ASSIGNED_CONTEXT((#45))GLOBAL_UNIT_ASSIGNED_CONTEXT((#41,#42,#44))REPRESENTATION_CONTEXT(' ',' ')) ;
ENDSEC;
END-ISO-10303-21;
