ISO-10303-21;
HEADER;
FILE_DESCRIPTION(('CATIA V5 STEP Exchange'),'2;1');

FILE_NAME('C:\\Users\\Hashaam\\Documents\\CAD_Project\\review\\Reservoir_Holderr.stp','2026-10-06T14:11:11+00:00',('none'),('none'),'CATIA Version 5 Release 21 GA (IN-10)','CATIA V5 STEP AP203','none');

FILE_SCHEMA(('CONFIG_CONTROL_DESIGN'));

ENDSEC;
/* file written by CATIA V5R21 */
DATA;
#5=PRODUCT('Reservoir_Holder','','',(#2)) ;
#1=APPLICATION_CONTEXT('configuration controlled 3D design of mechanical parts and assemblies') ;
#14=PRODUCT_DEFINITION('',' ',#6,#3) ;
#16=SECURITY_CLASSIFICATION(' ',' ',#15) ;
#15=SECURITY_CLASSIFICATION_LEVEL('unclassified') ;
#47=CARTESIAN_POINT(' ',(0.,0.,0.)) ;
#52=CARTESIAN_POINT('Axis2P3D Location',(2.71442478063,-12.5,67.3331417464)) ;
#57=CARTESIAN_POINT('Line Origine',(-17.5083234683,12.5,84.3020423434)) ;
#61=CARTESIAN_POINT('Vertex',(2.,12.5,67.9326153163)) ;
#63=CARTESIAN_POINT('Vertex',(-37.0166469366,12.5,100.671469371)) ;
#66=CARTESIAN_POINT('Line Origine',(-37.0166469366,0.,100.671469371)) ;
#70=CARTESIAN_POINT('Vertex',(-37.0166469366,-12.5,100.671469371)) ;
#73=CARTESIAN_POINT('Line Origine',(-17.5083234683,-12.5,84.3020423434)) ;
#77=CARTESIAN_POINT('Vertex',(2.,-12.5,67.9326153163)) ;
#80=CARTESIAN_POINT('Line Origine',(2.,0.,67.9326153163)) ;
#92=CARTESIAN_POINT('Axis2P3D Location',(1.42884956125,10.5,65.8010528601)) ;
#97=CARTESIAN_POINT('Line Origine',(-19.151111078,-10.5,83.0696902422)) ;
#101=CARTESIAN_POINT('Vertex',(-1.33226762955E-015,-10.5,67.)) ;
#103=CARTESIAN_POINT('Vertex',(-38.3022221559,-10.5,99.1393804843)) ;
#106=CARTESIAN_POINT('Line Origine',(-38.3022221559,0.,99.1393804843)) ;
#110=CARTESIAN_POINT('Vertex',(-38.3022221559,10.5,99.1393804843)) ;
#113=CARTESIAN_POINT('Line Origine',(-19.151111078,10.5,83.0696902422)) ;
#117=CARTESIAN_POINT('Vertex',(0.,10.5,67.)) ;
#120=CARTESIAN_POINT('Line Origine',(0.,0.,67.)) ;
#132=CARTESIAN_POINT('Axis2P3D Location',(2.,-12.5,-15.)) ;
#137=CARTESIAN_POINT('Line Origine',(2.,-12.5,26.4663076582)) ;
#141=CARTESIAN_POINT('Vertex',(2.,-12.5,-15.)) ;
#144=CARTESIAN_POINT('Line Origine',(2.,0.,-15.)) ;
#148=CARTESIAN_POINT('Vertex',(2.,12.5,-15.)) ;
#151=CARTESIAN_POINT('Line Origine',(2.,12.5,26.4663076582)) ;
#162=CARTESIAN_POINT('Axis2P3D Location',(2.,0.,1.7763568394E-015)) ;
#166=CARTESIAN_POINT('Vertex',(2.,2.1,0.)) ;
#168=CARTESIAN_POINT('Vertex',(2.,-2.1,2.57167334303E-016)) ;
#171=CARTESIAN_POINT('Axis2P3D Location',(2.,0.,-1.7763568394E-015)) ;
#180=CARTESIAN_POINT('Axis2P3D Location',(2.,0.,34.)) ;
#184=CARTESIAN_POINT('Vertex',(2.,2.1,34.)) ;
#186=CARTESIAN_POINT('Vertex',(2.,-2.1,34.)) ;
#189=CARTESIAN_POINT('Axis2P3D Location',(2.,0.,34.)) ;
#199=CARTESIAN_POINT('Axis2P3D Location',(0.,10.5,-15.)) ;
#204=CARTESIAN_POINT('Line Origine',(0.,10.5,26.)) ;
#208=CARTESIAN_POINT('Vertex',(0.,10.5,-15.)) ;
#211=CARTESIAN_POINT('Line Origine',(0.,0.,-15.)) ;
#215=CARTESIAN_POINT('Vertex',(0.,-10.5,-15.)) ;
#218=CARTESIAN_POINT('Line Origine',(0.,-10.5,26.)) ;
#229=CARTESIAN_POINT('Axis2P3D Location',(0.,0.,1.7763568394E-015)) ;
#233=CARTESIAN_POINT('Vertex',(0.,-2.1,2.57167334303E-016)) ;
#235=CARTESIAN_POINT('Vertex',(0.,2.1,0.)) ;
#238=CARTESIAN_POINT('Axis2P3D Location',(0.,0.,-1.7763568394E-015)) ;
#247=CARTESIAN_POINT('Axis2P3D Location',(0.,0.,34.)) ;
#251=CARTESIAN_POINT('Vertex',(0.,-2.1,34.)) ;
#253=CARTESIAN_POINT('Vertex',(0.,2.1,34.)) ;
#256=CARTESIAN_POINT('Axis2P3D Location',(0.,0.,34.)) ;
#266=CARTESIAN_POINT('Axis2P3D Location',(0.,0.,0.)) ;
#271=CARTESIAN_POINT('Line Origine',(0.,2.1,0.)) ;
#276=CARTESIAN_POINT('Line Origine',(0.,-2.1,2.57167334303E-016)) ;
#288=CARTESIAN_POINT('Axis2P3D Location',(0.,0.,0.)) ;
#300=CARTESIAN_POINT('Axis2P3D Location',(0.,0.,34.)) ;
#305=CARTESIAN_POINT('Line Origine',(0.,2.1,34.)) ;
#310=CARTESIAN_POINT('Line Origine',(0.,-2.1,34.)) ;
#322=CARTESIAN_POINT('Axis2P3D Location',(0.,0.,34.)) ;
#334=CARTESIAN_POINT('Axis2P3D Location',(-36.5,0.,90.4473964466)) ;
#339=CARTESIAN_POINT('Line Origine',(-33.5,0.,90.4473964466)) ;
#343=CARTESIAN_POINT('Vertex',(-33.5,-12.5,90.4473964466)) ;
#345=CARTESIAN_POINT('Vertex',(-33.5,-10.5,90.4473964466)) ;
#348=CARTESIAN_POINT('Axis2P3D Location',(-36.5,-12.5,90.4473964466)) ;
#352=CARTESIAN_POINT('Vertex',(-39.5,-12.5,90.4473964466)) ;
#355=CARTESIAN_POINT('Line Origine',(-39.5,0.,90.4473964466)) ;
#359=CARTESIAN_POINT('Vertex',(-39.5,-10.5,90.4473964466)) ;
#362=CARTESIAN_POINT('Axis2P3D Location',(-36.5,-10.5,90.4473964466)) ;
#374=CARTESIAN_POINT('Line Origine',(-39.5,0.,90.4473964466)) ;
#378=CARTESIAN_POINT('Vertex',(-39.5,10.5,90.4473964466)) ;
#380=CARTESIAN_POINT('Vertex',(-39.5,12.5,90.4473964466)) ;
#383=CARTESIAN_POINT('Axis2P3D Location',(-36.5,12.5,90.4473964466)) ;
#387=CARTESIAN_POINT('Vertex',(-33.5,12.5,90.4473964466)) ;
#390=CARTESIAN_POINT('Line Origine',(-33.5,0.,90.4473964466)) ;
#394=CARTESIAN_POINT('Vertex',(-33.5,10.5,90.4473964466)) ;
#397=CARTESIAN_POINT('Axis2P3D Location',(-36.5,10.5,90.4473964466)) ;
#409=CARTESIAN_POINT('Axis2P3D Location',(-36.5,0.,90.4473964466)) ;
#414=CARTESIAN_POINT('Axis2P3D Location',(-36.5,-12.5,90.4473964466)) ;
#419=CARTESIAN_POINT('Axis2P3D Location',(-36.5,-10.5,90.4473964466)) ;
#431=CARTESIAN_POINT('Axis2P3D Location',(-36.5,12.5,90.4473964466)) ;
#436=CARTESIAN_POINT('Axis2P3D Location',(-36.5,10.5,90.4473964466)) ;
#448=CARTESIAN_POINT('Axis2P3D Location',(-6.92738936467,-10.5,55.8424750996)) ;
#453=CARTESIAN_POINT('Line Origine',(-28.6801638763,12.5,74.0952201694)) ;
#457=CARTESIAN_POINT('Vertex',(-13.,12.5,60.938000444)) ;
#459=CARTESIAN_POINT('Vertex',(-44.3603277525,12.5,87.2524398947)) ;
#462=CARTESIAN_POINT('Line Origine',(-13.,11.5,60.938000444)) ;
#466=CARTESIAN_POINT('Vertex',(-13.,10.5,60.938000444)) ;
#469=CARTESIAN_POINT('Line Origine',(-28.6801638763,10.5,74.0952201694)) ;
#473=CARTESIAN_POINT('Vertex',(-44.3603277525,10.5,87.2524398947)) ;
#476=CARTESIAN_POINT('Line Origine',(-44.3603277525,11.5,87.2524398947)) ;
#488=CARTESIAN_POINT('Axis2P3D Location',(-44.7300982528,17.5,91.4789360531)) ;
#493=CARTESIAN_POINT('Line Origine',(-44.7300982528,0.,91.4789360531)) ;
#497=CARTESIAN_POINT('Vertex',(-44.7300982528,12.5,91.4789360531)) ;
#499=CARTESIAN_POINT('Vertex',(-44.7300982528,10.5,91.4789360531)) ;
#502=CARTESIAN_POINT('Line Origine',(-44.5452130027,12.5,89.3656879739)) ;
#507=CARTESIAN_POINT('Line Origine',(-44.5452130027,10.5,89.3656879739)) ;
#519=CARTESIAN_POINT('Line Origine',(-28.6801638763,-10.5,74.0952201694)) ;
#523=CARTESIAN_POINT('Vertex',(-13.,-10.5,60.938000444)) ;
#525=CARTESIAN_POINT('Vertex',(-44.3603277525,-10.5,87.2524398947)) ;
#528=CARTESIAN_POINT('Line Origine',(-13.,-11.5,60.938000444)) ;
#532=CARTESIAN_POINT('Vertex',(-13.,-12.5,60.938000444)) ;
#535=CARTESIAN_POINT('Line Origine',(-28.6801638763,-12.5,74.0952201694)) ;
#539=CARTESIAN_POINT('Vertex',(-44.3603277525,-12.5,87.2524398947)) ;
#542=CARTESIAN_POINT('Line Origine',(-44.3603277525,-11.5,87.2524398947)) ;
#554=CARTESIAN_POINT('Axis2P3D Location',(-38.3022221559,0.,99.1393804843)) ;
#559=CARTESIAN_POINT('Line Origine',(-40.8733725947,-12.5,96.0752027119)) ;
#563=CARTESIAN_POINT('Vertex',(-44.7300982528,-12.5,91.4789360531)) ;
#566=CARTESIAN_POINT('Line Origine',(-40.8733725947,12.5,96.0752027119)) ;
#571=CARTESIAN_POINT('Line Origine',(-41.5161602044,10.5,95.3091582687)) ;
#576=CARTESIAN_POINT('Line Origine',(-41.5161602044,-10.5,95.3091582687)) ;
#580=CARTESIAN_POINT('Vertex',(-44.7300982528,-10.5,91.4789360531)) ;
#583=CARTESIAN_POINT('Line Origine',(-44.7300982528,-11.5,91.4789360531)) ;
#599=CARTESIAN_POINT('Axis2P3D Location',(-44.7300982528,17.5,91.4789360531)) ;
#604=CARTESIAN_POINT('Line Origine',(-44.5452130027,-10.5,89.3656879739)) ;
#609=CARTESIAN_POINT('Line Origine',(-44.5452130027,-12.5,89.3656879739)) ;
#621=CARTESIAN_POINT('Axis2P3D Location',(-13.,-10.5,-15.)) ;
#626=CARTESIAN_POINT('Line Origine',(-13.,10.5,24.469000222)) ;
#630=CARTESIAN_POINT('Vertex',(-13.,10.5,-12.)) ;
#633=CARTESIAN_POINT('Line Origine',(-13.,12.5,24.469000222)) ;
#637=CARTESIAN_POINT('Vertex',(-13.,12.5,-12.)) ;
#640=CARTESIAN_POINT('Line Origine',(-13.,11.5,-12.)) ;
#652=CARTESIAN_POINT('Axis2P3D Location',(-6.92738936467,10.5,55.8424750996)) ;
#657=CARTESIAN_POINT('Line Origine',(-5.,10.5,-15.)) ;
#661=CARTESIAN_POINT('Vertex',(-10.,10.5,-15.)) ;
#664=CARTESIAN_POINT('Line Origine',(-11.5,10.5,-13.5)) ;
#684=CARTESIAN_POINT('Axis2P3D Location',(2.71442478063,12.5,67.3331417464)) ;
#689=CARTESIAN_POINT('Line Origine',(-4.,12.5,-15.)) ;
#693=CARTESIAN_POINT('Vertex',(-10.,12.5,-15.)) ;
#696=CARTESIAN_POINT('Line Origine',(-11.5,12.5,-13.5)) ;
#716=CARTESIAN_POINT('Axis2P3D Location',(-13.,17.5,-12.)) ;
#721=CARTESIAN_POINT('Line Origine',(-10.,0.,-15.)) ;
#733=CARTESIAN_POINT('Line Origine',(-13.,-12.5,24.469000222)) ;
#737=CARTESIAN_POINT('Vertex',(-13.,-12.5,-12.)) ;
#740=CARTESIAN_POINT('Line Origine',(-13.,-10.5,24.469000222)) ;
#744=CARTESIAN_POINT('Vertex',(-13.,-10.5,-12.)) ;
#747=CARTESIAN_POINT('Line Origine',(-13.,-11.5,-12.)) ;
#759=CARTESIAN_POINT('Axis2P3D Location',(1.42884956125,-10.5,65.8010528601)) ;
#764=CARTESIAN_POINT('Line Origine',(-5.,-10.5,-15.)) ;
#768=CARTESIAN_POINT('Vertex',(-10.,-10.5,-15.)) ;
#771=CARTESIAN_POINT('Line Origine',(-11.5,-10.5,-13.5)) ;
#791=CARTESIAN_POINT('Axis2P3D Location',(-6.92738936467,-12.5,55.8424750996)) ;
#796=CARTESIAN_POINT('Line Origine',(-4.,-12.5,-15.)) ;
#800=CARTESIAN_POINT('Vertex',(-10.,-12.5,-15.)) ;
#803=CARTESIAN_POINT('Line Origine',(-11.5,-12.5,-13.5)) ;
#823=CARTESIAN_POINT('Axis2P3D Location',(0.,0.,-15.)) ;
#828=CARTESIAN_POINT('Line Origine',(-10.,-11.5,-15.)) ;
#844=CARTESIAN_POINT('Axis2P3D Location',(-13.,17.5,-12.)) ;
#53=DIRECTION('Axis2P3D Direction',(0.642787609687,-0.,0.766044443119)) ;
#54=DIRECTION('Axis2P3D XDirection',(0.,1.,0.)) ;
#58=DIRECTION('Vector Direction',(-0.766044443119,0.,0.642787609687)) ;
#67=DIRECTION('Vector Direction',(0.,1.,0.)) ;
#74=DIRECTION('Vector Direction',(-0.766044443119,0.,0.642787609687)) ;
#81=DIRECTION('Vector Direction',(0.,1.,0.)) ;
#93=DIRECTION('Axis2P3D Direction',(-0.642787609687,0.,-0.766044443119)) ;
#94=DIRECTION('Axis2P3D XDirection',(-0.,-1.,-0.)) ;
#98=DIRECTION('Vector Direction',(-0.766044443119,0.,0.642787609687)) ;
#107=DIRECTION('Vector Direction',(0.,-1.,0.)) ;
#114=DIRECTION('Vector Direction',(-0.766044443119,0.,0.642787609687)) ;
#121=DIRECTION('Vector Direction',(0.,-1.,0.)) ;
#133=DIRECTION('Axis2P3D Direction',(1.,0.,0.)) ;
#134=DIRECTION('Axis2P3D XDirection',(0.,1.,0.)) ;
#138=DIRECTION('Vector Direction',(0.,0.,1.)) ;
#145=DIRECTION('Vector Direction',(0.,1.,0.)) ;
#152=DIRECTION('Vector Direction',(0.,0.,1.)) ;
#163=DIRECTION('Axis2P3D Direction',(1.,0.,0.)) ;
#172=DIRECTION('Axis2P3D Direction',(1.,0.,0.)) ;
#181=DIRECTION('Axis2P3D Direction',(1.,0.,0.)) ;
#190=DIRECTION('Axis2P3D Direction',(1.,0.,0.)) ;
#200=DIRECTION('Axis2P3D Direction',(-1.,0.,0.)) ;
#201=DIRECTION('Axis2P3D XDirection',(-0.,-1.,0.)) ;
#205=DIRECTION('Vector Direction',(0.,0.,1.)) ;
#212=DIRECTION('Vector Direction',(0.,-1.,0.)) ;
#219=DIRECTION('Vector Direction',(0.,0.,1.)) ;
#230=DIRECTION('Axis2P3D Direction',(-1.,0.,0.)) ;
#239=DIRECTION('Axis2P3D Direction',(-1.,0.,0.)) ;
#248=DIRECTION('Axis2P3D Direction',(-1.,0.,0.)) ;
#257=DIRECTION('Axis2P3D Direction',(-1.,0.,0.)) ;
#267=DIRECTION('Axis2P3D Direction',(1.,0.,0.)) ;
#268=DIRECTION('Axis2P3D XDirection',(0.,1.,0.)) ;
#272=DIRECTION('Vector Direction',(1.,0.,0.)) ;
#277=DIRECTION('Vector Direction',(1.,0.,0.)) ;
#289=DIRECTION('Axis2P3D Direction',(1.,0.,0.)) ;
#290=DIRECTION('Axis2P3D XDirection',(0.,-1.,1.22460635382E-016)) ;
#301=DIRECTION('Axis2P3D Direction',(1.,0.,0.)) ;
#302=DIRECTION('Axis2P3D XDirection',(0.,1.,0.)) ;
#306=DIRECTION('Vector Direction',(1.,0.,0.)) ;
#311=DIRECTION('Vector Direction',(1.,0.,0.)) ;
#323=DIRECTION('Axis2P3D Direction',(1.,0.,0.)) ;
#324=DIRECTION('Axis2P3D XDirection',(0.,-1.,1.22460635382E-016)) ;
#335=DIRECTION('Axis2P3D Direction',(0.,1.,0.)) ;
#336=DIRECTION('Axis2P3D XDirection',(-1.,0.,0.)) ;
#340=DIRECTION('Vector Direction',(0.,1.,0.)) ;
#349=DIRECTION('Axis2P3D Direction',(0.,1.,0.)) ;
#356=DIRECTION('Vector Direction',(0.,1.,0.)) ;
#363=DIRECTION('Axis2P3D Direction',(0.,1.,0.)) ;
#375=DIRECTION('Vector Direction',(0.,1.,0.)) ;
#384=DIRECTION('Axis2P3D Direction',(0.,1.,0.)) ;
#391=DIRECTION('Vector Direction',(0.,1.,0.)) ;
#398=DIRECTION('Axis2P3D Direction',(0.,1.,0.)) ;
#410=DIRECTION('Axis2P3D Direction',(0.,1.,0.)) ;
#411=DIRECTION('Axis2P3D XDirection',(1.,-0.,1.22460635382E-016)) ;
#415=DIRECTION('Axis2P3D Direction',(0.,1.,0.)) ;
#420=DIRECTION('Axis2P3D Direction',(0.,1.,0.)) ;
#432=DIRECTION('Axis2P3D Direction',(0.,1.,0.)) ;
#437=DIRECTION('Axis2P3D Direction',(0.,1.,0.)) ;
#449=DIRECTION('Axis2P3D Direction',(-0.642787609687,0.,-0.766044443119)) ;
#450=DIRECTION('Axis2P3D XDirection',(-0.,-1.,-0.)) ;
#454=DIRECTION('Vector Direction',(-0.766044443119,0.,0.642787609687)) ;
#463=DIRECTION('Vector Direction',(-8.881784197E-016,1.,0.)) ;
#470=DIRECTION('Vector Direction',(-0.766044443119,0.,0.642787609687)) ;
#477=DIRECTION('Vector Direction',(0.,-1.,0.)) ;
#489=DIRECTION('Axis2P3D Direction',(0.996194698092,0.,0.0871557427477)) ;
#490=DIRECTION('Axis2P3D XDirection',(0.,-1.,0.)) ;
#494=DIRECTION('Vector Direction',(0.,-1.,0.)) ;
#503=DIRECTION('Vector Direction',(0.0871557427477,0.,-0.996194698092)) ;
#508=DIRECTION('Vector Direction',(0.0871557427477,0.,-0.996194698092)) ;
#520=DIRECTION('Vector Direction',(-0.766044443119,0.,0.642787609687)) ;
#529=DIRECTION('Vector Direction',(0.,1.,0.)) ;
#536=DIRECTION('Vector Direction',(-0.766044443119,0.,0.642787609687)) ;
#543=DIRECTION('Vector Direction',(0.,-1.,0.)) ;
#555=DIRECTION('Axis2P3D Direction',(-0.766044443119,0.,0.642787609687)) ;
#556=DIRECTION('Axis2P3D XDirection',(0.,1.,0.)) ;
#560=DIRECTION('Vector Direction',(0.642787609687,0.,0.766044443119)) ;
#567=DIRECTION('Vector Direction',(-0.642787609687,0.,-0.766044443119)) ;
#572=DIRECTION('Vector Direction',(0.642787609687,0.,0.766044443119)) ;
#577=DIRECTION('Vector Direction',(-0.642787609687,0.,-0.766044443119)) ;
#584=DIRECTION('Vector Direction',(0.,-1.,0.)) ;
#600=DIRECTION('Axis2P3D Direction',(0.996194698092,0.,0.0871557427477)) ;
#601=DIRECTION('Axis2P3D XDirection',(0.,-1.,0.)) ;
#605=DIRECTION('Vector Direction',(0.0871557427477,0.,-0.996194698092)) ;
#610=DIRECTION('Vector Direction',(0.0871557427477,0.,-0.996194698092)) ;
#622=DIRECTION('Axis2P3D Direction',(-1.,0.,0.)) ;
#623=DIRECTION('Axis2P3D XDirection',(-0.,-1.,0.)) ;
#627=DIRECTION('Vector Direction',(0.,0.,1.)) ;
#634=DIRECTION('Vector Direction',(0.,0.,1.)) ;
#641=DIRECTION('Vector Direction',(0.,-1.,0.)) ;
#653=DIRECTION('Axis2P3D Direction',(0.,-1.,0.)) ;
#654=DIRECTION('Axis2P3D XDirection',(0.642787609687,0.,0.766044443119)) ;
#658=DIRECTION('Vector Direction',(1.,0.,3.5527136788E-016)) ;
#665=DIRECTION('Vector Direction',(-0.707106781187,0.,0.707106781187)) ;
#685=DIRECTION('Axis2P3D Direction',(0.,1.,0.)) ;
#686=DIRECTION('Axis2P3D XDirection',(-0.642787609687,0.,-0.766044443119)) ;
#690=DIRECTION('Vector Direction',(-1.,0.,-5.92118946467E-016)) ;
#697=DIRECTION('Vector Direction',(-0.707106781187,0.,0.707106781187)) ;
#717=DIRECTION('Axis2P3D Direction',(0.707106781187,0.,0.707106781187)) ;
#718=DIRECTION('Axis2P3D XDirection',(0.,-1.,0.)) ;
#722=DIRECTION('Vector Direction',(0.,-1.,0.)) ;
#734=DIRECTION('Vector Direction',(0.,0.,1.)) ;
#741=DIRECTION('Vector Direction',(0.,0.,1.)) ;
#748=DIRECTION('Vector Direction',(0.,-1.,0.)) ;
#760=DIRECTION('Axis2P3D Direction',(0.,1.,0.)) ;
#761=DIRECTION('Axis2P3D XDirection',(-0.642787609687,0.,-0.766044443119)) ;
#765=DIRECTION('Vector Direction',(-1.,0.,0.)) ;
#772=DIRECTION('Vector Direction',(-0.707106781187,0.,0.707106781187)) ;
#792=DIRECTION('Axis2P3D Direction',(0.,-1.,0.)) ;
#793=DIRECTION('Axis2P3D XDirection',(0.642787609687,0.,0.766044443119)) ;
#797=DIRECTION('Vector Direction',(1.,0.,-5.92118946467E-016)) ;
#804=DIRECTION('Vector Direction',(-0.707106781187,0.,0.707106781187)) ;
#824=DIRECTION('Axis2P3D Direction',(0.,-0.,1.)) ;
#825=DIRECTION('Axis2P3D XDirection',(0.,1.,0.)) ;
#829=DIRECTION('Vector Direction',(0.,-1.,0.)) ;
#845=DIRECTION('Axis2P3D Direction',(0.707106781187,0.,0.707106781187)) ;
#846=DIRECTION('Axis2P3D XDirection',(0.,-1.,0.)) ;
#48=AXIS2_PLACEMENT_3D(' ',#47,$,$) ;
#55=AXIS2_PLACEMENT_3D('Plane Axis2P3D',#52,#53,#54) ;
#95=AXIS2_PLACEMENT_3D('Plane Axis2P3D',#92,#93,#94) ;
#135=AXIS2_PLACEMENT_3D('Plane Axis2P3D',#132,#133,#134) ;
#164=AXIS2_PLACEMENT_3D('Circle Axis2P3D',#162,#163,$) ;
#173=AXIS2_PLACEMENT_3D('Circle Axis2P3D',#171,#172,$) ;
#182=AXIS2_PLACEMENT_3D('Circle Axis2P3D',#180,#181,$) ;
#191=AXIS2_PLACEMENT_3D('Circle Axis2P3D',#189,#190,$) ;
#202=AXIS2_PLACEMENT_3D('Plane Axis2P3D',#199,#200,#201) ;
#231=AXIS2_PLACEMENT_3D('Circle Axis2P3D',#229,#230,$) ;
#240=AXIS2_PLACEMENT_3D('Circle Axis2P3D',#238,#239,$) ;
#249=AXIS2_PLACEMENT_3D('Circle Axis2P3D',#247,#248,$) ;
#258=AXIS2_PLACEMENT_3D('Circle Axis2P3D',#256,#257,$) ;
#269=AXIS2_PLACEMENT_3D('Cylinder Axis2P3D',#266,#267,#268) ;
#291=AXIS2_PLACEMENT_3D('Cylinder Axis2P3D',#288,#289,#290) ;
#303=AXIS2_PLACEMENT_3D('Cylinder Axis2P3D',#300,#301,#302) ;
#325=AXIS2_PLACEMENT_3D('Cylinder Axis2P3D',#322,#323,#324) ;
#337=AXIS2_PLACEMENT_3D('Cylinder Axis2P3D',#334,#335,#336) ;
#350=AXIS2_PLACEMENT_3D('Circle Axis2P3D',#348,#349,$) ;
#364=AXIS2_PLACEMENT_3D('Circle Axis2P3D',#362,#363,$) ;
#385=AXIS2_PLACEMENT_3D('Circle Axis2P3D',#383,#384,$) ;
#399=AXIS2_PLACEMENT_3D('Circle Axis2P3D',#397,#398,$) ;
#412=AXIS2_PLACEMENT_3D('Cylinder Axis2P3D',#409,#410,#411) ;
#416=AXIS2_PLACEMENT_3D('Circle Axis2P3D',#414,#415,$) ;
#421=AXIS2_PLACEMENT_3D('Circle Axis2P3D',#419,#420,$) ;
#433=AXIS2_PLACEMENT_3D('Circle Axis2P3D',#431,#432,$) ;
#438=AXIS2_PLACEMENT_3D('Circle Axis2P3D',#436,#437,$) ;
#451=AXIS2_PLACEMENT_3D('Plane Axis2P3D',#448,#449,#450) ;
#491=AXIS2_PLACEMENT_3D('Plane Axis2P3D',#488,#489,#490) ;
#557=AXIS2_PLACEMENT_3D('Plane Axis2P3D',#554,#555,#556) ;
#602=AXIS2_PLACEMENT_3D('Plane Axis2P3D',#599,#600,#601) ;
#624=AXIS2_PLACEMENT_3D('Plane Axis2P3D',#621,#622,#623) ;
#655=AXIS2_PLACEMENT_3D('Plane Axis2P3D',#652,#653,#654) ;
#687=AXIS2_PLACEMENT_3D('Plane Axis2P3D',#684,#685,#686) ;
#719=AXIS2_PLACEMENT_3D('Plane Axis2P3D',#716,#717,#718) ;
#762=AXIS2_PLACEMENT_3D('Plane Axis2P3D',#759,#760,#761) ;
#794=AXIS2_PLACEMENT_3D('Plane Axis2P3D',#791,#792,#793) ;
#826=AXIS2_PLACEMENT_3D('Plane Axis2P3D',#823,#824,#825) ;
#847=AXIS2_PLACEMENT_3D('Plane Axis2P3D',#844,#845,#846) ;
#40=PRODUCT_DEFINITION_SHAPE(' ',' ',#14) ;
#31=APPROVAL_PERSON_ORGANIZATION(#25,#21,#19) ;
#25=PERSON_AND_ORGANIZATION(#22,#23) ;
#22=PERSON(' ',' ',' ',$,$,$) ;
#23=ORGANIZATION(' ',' ',' ') ;
#21=APPROVAL(#20,' ') ;
#20=APPROVAL_STATUS('not_yet_approved') ;
#19=APPROVAL_ROLE('APPROVER') ;
#13=DATE_AND_TIME(#11,#12) ;
#12=LOCAL_TIME(16,11,10.,#10) ;
#10=COORDINATED_UNIVERSAL_TIME_OFFSET(0,0,.AHEAD.) ;
#86=ORIENTED_EDGE('',*,*,#65,.T.) ;
#87=ORIENTED_EDGE('',*,*,#72,.F.) ;
#88=ORIENTED_EDGE('',*,*,#79,.F.) ;
#89=ORIENTED_EDGE('',*,*,#84,.T.) ;
#126=ORIENTED_EDGE('',*,*,#105,.T.) ;
#127=ORIENTED_EDGE('',*,*,#112,.F.) ;
#128=ORIENTED_EDGE('',*,*,#119,.F.) ;
#129=ORIENTED_EDGE('',*,*,#124,.T.) ;
#157=ORIENTED_EDGE('',*,*,#143,.F.) ;
#158=ORIENTED_EDGE('',*,*,#150,.T.) ;
#159=ORIENTED_EDGE('',*,*,#155,.T.) ;
#160=ORIENTED_EDGE('',*,*,#84,.F.) ;
#177=ORIENTED_EDGE('',*,*,#170,.F.) ;
#178=ORIENTED_EDGE('',*,*,#175,.F.) ;
#195=ORIENTED_EDGE('',*,*,#188,.F.) ;
#196=ORIENTED_EDGE('',*,*,#193,.F.) ;
#224=ORIENTED_EDGE('',*,*,#210,.F.) ;
#225=ORIENTED_EDGE('',*,*,#217,.T.) ;
#226=ORIENTED_EDGE('',*,*,#222,.T.) ;
#227=ORIENTED_EDGE('',*,*,#124,.F.) ;
#244=ORIENTED_EDGE('',*,*,#237,.F.) ;
#245=ORIENTED_EDGE('',*,*,#242,.F.) ;
#262=ORIENTED_EDGE('',*,*,#255,.F.) ;
#263=ORIENTED_EDGE('',*,*,#260,.F.) ;
#282=ORIENTED_EDGE('',*,*,#275,.T.) ;
#283=ORIENTED_EDGE('',*,*,#170,.T.) ;
#284=ORIENTED_EDGE('',*,*,#280,.F.) ;
#285=ORIENTED_EDGE('',*,*,#237,.T.) ;
#294=ORIENTED_EDGE('',*,*,#280,.T.) ;
#295=ORIENTED_EDGE('',*,*,#175,.T.) ;
#296=ORIENTED_EDGE('',*,*,#275,.F.) ;
#297=ORIENTED_EDGE('',*,*,#242,.T.) ;
#316=ORIENTED_EDGE('',*,*,#309,.T.) ;
#317=ORIENTED_EDGE('',*,*,#188,.T.) ;
#318=ORIENTED_EDGE('',*,*,#314,.F.) ;
#319=ORIENTED_EDGE('',*,*,#255,.T.) ;
#328=ORIENTED_EDGE('',*,*,#314,.T.) ;
#329=ORIENTED_EDGE('',*,*,#193,.T.) ;
#330=ORIENTED_EDGE('',*,*,#309,.F.) ;
#331=ORIENTED_EDGE('',*,*,#260,.T.) ;
#368=ORIENTED_EDGE('',*,*,#347,.F.) ;
#369=ORIENTED_EDGE('',*,*,#354,.T.) ;
#370=ORIENTED_EDGE('',*,*,#361,.T.) ;
#371=ORIENTED_EDGE('',*,*,#366,.T.) ;
#403=ORIENTED_EDGE('',*,*,#382,.T.) ;
#404=ORIENTED_EDGE('',*,*,#389,.T.) ;
#405=ORIENTED_EDGE('',*,*,#396,.F.) ;
#406=ORIENTED_EDGE('',*,*,#401,.T.) ;
#425=ORIENTED_EDGE('',*,*,#361,.F.) ;
#426=ORIENTED_EDGE('',*,*,#418,.T.) ;
#427=ORIENTED_EDGE('',*,*,#347,.T.) ;
#428=ORIENTED_EDGE('',*,*,#423,.T.) ;
#442=ORIENTED_EDGE('',*,*,#396,.T.) ;
#443=ORIENTED_EDGE('',*,*,#435,.T.) ;
#444=ORIENTED_EDGE('',*,*,#382,.F.) ;
#445=ORIENTED_EDGE('',*,*,#440,.T.) ;
#482=ORIENTED_EDGE('',*,*,#461,.F.) ;
#483=ORIENTED_EDGE('',*,*,#468,.F.) ;
#484=ORIENTED_EDGE('',*,*,#475,.T.) ;
#485=ORIENTED_EDGE('',*,*,#480,.F.) ;
#513=ORIENTED_EDGE('',*,*,#501,.F.) ;
#514=ORIENTED_EDGE('',*,*,#506,.T.) ;
#515=ORIENTED_EDGE('',*,*,#480,.T.) ;
#516=ORIENTED_EDGE('',*,*,#511,.T.) ;
#548=ORIENTED_EDGE('',*,*,#527,.F.) ;
#549=ORIENTED_EDGE('',*,*,#534,.F.) ;
#550=ORIENTED_EDGE('',*,*,#541,.T.) ;
#551=ORIENTED_EDGE('',*,*,#546,.F.) ;
#589=ORIENTED_EDGE('',*,*,#565,.T.) ;
#590=ORIENTED_EDGE('',*,*,#72,.T.) ;
#591=ORIENTED_EDGE('',*,*,#570,.T.) ;
#592=ORIENTED_EDGE('',*,*,#501,.T.) ;
#593=ORIENTED_EDGE('',*,*,#575,.T.) ;
#594=ORIENTED_EDGE('',*,*,#112,.T.) ;
#595=ORIENTED_EDGE('',*,*,#582,.T.) ;
#596=ORIENTED_EDGE('',*,*,#587,.T.) ;
#615=ORIENTED_EDGE('',*,*,#587,.F.) ;
#616=ORIENTED_EDGE('',*,*,#608,.T.) ;
#617=ORIENTED_EDGE('',*,*,#546,.T.) ;
#618=ORIENTED_EDGE('',*,*,#613,.T.) ;
#646=ORIENTED_EDGE('',*,*,#632,.T.) ;
#647=ORIENTED_EDGE('',*,*,#468,.T.) ;
#648=ORIENTED_EDGE('',*,*,#639,.F.) ;
#649=ORIENTED_EDGE('',*,*,#644,.T.) ;
#670=ORIENTED_EDGE('',*,*,#663,.T.) ;
#671=ORIENTED_EDGE('',*,*,#210,.T.) ;
#672=ORIENTED_EDGE('',*,*,#119,.T.) ;
#673=ORIENTED_EDGE('',*,*,#575,.F.) ;
#674=ORIENTED_EDGE('',*,*,#511,.F.) ;
#675=ORIENTED_EDGE('',*,*,#475,.F.) ;
#676=ORIENTED_EDGE('',*,*,#632,.F.) ;
#677=ORIENTED_EDGE('',*,*,#668,.F.) ;
#680=ORIENTED_EDGE('',*,*,#401,.F.) ;
#681=ORIENTED_EDGE('',*,*,#440,.F.) ;
#702=ORIENTED_EDGE('',*,*,#639,.T.) ;
#703=ORIENTED_EDGE('',*,*,#461,.T.) ;
#704=ORIENTED_EDGE('',*,*,#506,.F.) ;
#705=ORIENTED_EDGE('',*,*,#570,.F.) ;
#706=ORIENTED_EDGE('',*,*,#65,.F.) ;
#707=ORIENTED_EDGE('',*,*,#155,.F.) ;
#708=ORIENTED_EDGE('',*,*,#695,.T.) ;
#709=ORIENTED_EDGE('',*,*,#700,.F.) ;
#712=ORIENTED_EDGE('',*,*,#389,.F.) ;
#713=ORIENTED_EDGE('',*,*,#435,.F.) ;
#727=ORIENTED_EDGE('',*,*,#644,.F.) ;
#728=ORIENTED_EDGE('',*,*,#700,.T.) ;
#729=ORIENTED_EDGE('',*,*,#725,.T.) ;
#730=ORIENTED_EDGE('',*,*,#668,.T.) ;
#753=ORIENTED_EDGE('',*,*,#739,.T.) ;
#754=ORIENTED_EDGE('',*,*,#534,.T.) ;
#755=ORIENTED_EDGE('',*,*,#746,.F.) ;
#756=ORIENTED_EDGE('',*,*,#751,.T.) ;
#777=ORIENTED_EDGE('',*,*,#746,.T.) ;
#778=ORIENTED_EDGE('',*,*,#527,.T.) ;
#779=ORIENTED_EDGE('',*,*,#608,.F.) ;
#780=ORIENTED_EDGE('',*,*,#582,.F.) ;
#781=ORIENTED_EDGE('',*,*,#105,.F.) ;
#782=ORIENTED_EDGE('',*,*,#222,.F.) ;
#783=ORIENTED_EDGE('',*,*,#770,.T.) ;
#784=ORIENTED_EDGE('',*,*,#775,.F.) ;
#787=ORIENTED_EDGE('',*,*,#366,.F.) ;
#788=ORIENTED_EDGE('',*,*,#423,.F.) ;
#809=ORIENTED_EDGE('',*,*,#802,.T.) ;
#810=ORIENTED_EDGE('',*,*,#143,.T.) ;
#811=ORIENTED_EDGE('',*,*,#79,.T.) ;
#812=ORIENTED_EDGE('',*,*,#565,.F.) ;
#813=ORIENTED_EDGE('',*,*,#613,.F.) ;
#814=ORIENTED_EDGE('',*,*,#541,.F.) ;
#815=ORIENTED_EDGE('',*,*,#739,.F.) ;
#816=ORIENTED_EDGE('',*,*,#807,.F.) ;
#819=ORIENTED_EDGE('',*,*,#354,.F.) ;
#820=ORIENTED_EDGE('',*,*,#418,.F.) ;
#834=ORIENTED_EDGE('',*,*,#832,.F.) ;
#835=ORIENTED_EDGE('',*,*,#770,.F.) ;
#836=ORIENTED_EDGE('',*,*,#217,.F.) ;
#837=ORIENTED_EDGE('',*,*,#663,.F.) ;
#838=ORIENTED_EDGE('',*,*,#725,.F.) ;
#839=ORIENTED_EDGE('',*,*,#695,.F.) ;
#840=ORIENTED_EDGE('',*,*,#150,.F.) ;
#841=ORIENTED_EDGE('',*,*,#802,.F.) ;
#850=ORIENTED_EDGE('',*,*,#751,.F.) ;
#851=ORIENTED_EDGE('',*,*,#775,.T.) ;
#852=ORIENTED_EDGE('',*,*,#832,.T.) ;
#853=ORIENTED_EDGE('',*,*,#807,.T.) ;
#179=FACE_BOUND('',#176,.T.) ;
#197=FACE_BOUND('',#194,.T.) ;
#246=FACE_BOUND('',#243,.T.) ;
#264=FACE_BOUND('',#261,.T.) ;
#682=FACE_BOUND('',#679,.T.) ;
#714=FACE_BOUND('',#711,.T.) ;
#789=FACE_BOUND('',#786,.T.) ;
#821=FACE_BOUND('',#818,.T.) ;
#51=CLOSED_SHELL('Closed Shell',(#91,#131,#198,#265,#287,#299,#321,#333,#373,#408,#430,#447,#487,#518,#553,#598,#620,#651,#683,#715,#732,#758,#790,#822,#843,#855)) ;
#59=VECTOR('Line Direction',#58,1.) ;
#68=VECTOR('Line Direction',#67,1.) ;
#75=VECTOR('Line Direction',#74,1.) ;
#82=VECTOR('Line Direction',#81,1.) ;
#99=VECTOR('Line Direction',#98,1.) ;
#108=VECTOR('Line Direction',#107,1.) ;
#115=VECTOR('Line Direction',#114,1.) ;
#122=VECTOR('Line Direction',#121,1.) ;
#139=VECTOR('Line Direction',#138,1.) ;
#146=VECTOR('Line Direction',#145,1.) ;
#153=VECTOR('Line Direction',#152,1.) ;
#206=VECTOR('Line Direction',#205,1.) ;
#213=VECTOR('Line Direction',#212,1.) ;
#220=VECTOR('Line Direction',#219,1.) ;
#273=VECTOR('Line Direction',#272,1.) ;
#278=VECTOR('Line Direction',#277,1.) ;
#307=VECTOR('Line Direction',#306,1.) ;
#312=VECTOR('Line Direction',#311,1.) ;
#341=VECTOR('Line Direction',#340,1.) ;
#357=VECTOR('Line Direction',#356,1.) ;
#376=VECTOR('Line Direction',#375,1.) ;
#392=VECTOR('Line Direction',#391,1.) ;
#455=VECTOR('Line Direction',#454,1.) ;
#464=VECTOR('Line Direction',#463,1.) ;
#471=VECTOR('Line Direction',#470,1.) ;
#478=VECTOR('Line Direction',#477,1.) ;
#495=VECTOR('Line Direction',#494,1.) ;
#504=VECTOR('Line Direction',#503,1.) ;
#509=VECTOR('Line Direction',#508,1.) ;
#521=VECTOR('Line Direction',#520,1.) ;
#530=VECTOR('Line Direction',#529,1.) ;
#537=VECTOR('Line Direction',#536,1.) ;
#544=VECTOR('Line Direction',#543,1.) ;
#561=VECTOR('Line Direction',#560,1.) ;
#568=VECTOR('Line Direction',#567,1.) ;
#573=VECTOR('Line Direction',#572,1.) ;
#578=VECTOR('Line Direction',#577,1.) ;
#585=VECTOR('Line Direction',#584,1.) ;
#606=VECTOR('Line Direction',#605,1.) ;
#611=VECTOR('Line Direction',#610,1.) ;
#628=VECTOR('Line Direction',#627,1.) ;
#635=VECTOR('Line Direction',#634,1.) ;
#642=VECTOR('Line Direction',#641,1.) ;
#659=VECTOR('Line Direction',#658,1.) ;
#666=VECTOR('Line Direction',#665,1.) ;
#691=VECTOR('Line Direction',#690,1.) ;
#698=VECTOR('Line Direction',#697,1.) ;
#723=VECTOR('Line Direction',#722,1.) ;
#735=VECTOR('Line Direction',#734,1.) ;
#742=VECTOR('Line Direction',#741,1.) ;
#749=VECTOR('Line Direction',#748,1.) ;
#766=VECTOR('Line Direction',#765,1.) ;
#773=VECTOR('Line Direction',#772,1.) ;
#798=VECTOR('Line Direction',#797,1.) ;
#805=VECTOR('Line Direction',#804,1.) ;
#830=VECTOR('Line Direction',#829,1.) ;
#857=ADVANCED_BREP_SHAPE_REPRESENTATION('NONE',(#856),#46) ;
#49=SHAPE_REPRESENTATION(' ',(#48),#46) ;
#91=ADVANCED_FACE('MAIN',(#90),#56,.T.) ;
#131=ADVANCED_FACE('MAIN',(#130),#96,.T.) ;
#198=ADVANCED_FACE('MAIN',(#161,#179,#197),#136,.T.) ;
#265=ADVANCED_FACE('MAIN',(#228,#246,#264),#203,.T.) ;
#287=ADVANCED_FACE('MAIN',(#286),#270,.F.) ;
#299=ADVANCED_FACE('MAIN',(#298),#292,.F.) ;
#321=ADVANCED_FACE('MAIN',(#320),#304,.F.) ;
#333=ADVANCED_FACE('MAIN',(#332),#326,.F.) ;
#373=ADVANCED_FACE('MAIN',(#372),#338,.F.) ;
#408=ADVANCED_FACE('MAIN',(#407),#338,.F.) ;
#430=ADVANCED_FACE('MAIN',(#429),#413,.F.) ;
#447=ADVANCED_FACE('MAIN',(#446),#413,.F.) ;
#487=ADVANCED_FACE('MAIN',(#486),#452,.T.) ;
#518=ADVANCED_FACE('MAIN',(#517),#492,.F.) ;
#553=ADVANCED_FACE('MAIN',(#552),#452,.T.) ;
#598=ADVANCED_FACE('MAIN',(#597),#558,.T.) ;
#620=ADVANCED_FACE('MAIN',(#619),#603,.F.) ;
#651=ADVANCED_FACE('MAIN',(#650),#625,.T.) ;
#683=ADVANCED_FACE('MAIN',(#678,#682),#656,.T.) ;
#715=ADVANCED_FACE('MAIN',(#710,#714),#688,.T.) ;
#732=ADVANCED_FACE('MAIN',(#731),#720,.F.) ;
#758=ADVANCED_FACE('MAIN',(#757),#625,.T.) ;
#790=ADVANCED_FACE('MAIN',(#785,#789),#763,.T.) ;
#822=ADVANCED_FACE('MAIN',(#817,#821),#795,.T.) ;
#843=ADVANCED_FACE('MAIN',(#842),#827,.F.) ;
#855=ADVANCED_FACE('MAIN',(#854),#848,.F.) ;
#4=APPLICATION_PROTOCOL_DEFINITION('international standard','config_control_design',1994,#1) ;
#32=APPROVAL_DATE_TIME(#13,#21) ;
#856=MANIFOLD_SOLID_BREP('MAIN',#51) ;
#11=CALENDAR_DATE(2026,6,10) ;
#30=CC_DESIGN_APPROVAL(#21,(#16,#6,#14)) ;
#18=CC_DESIGN_DATE_AND_TIME_ASSIGNMENT(#13,#17,(#16)) ;
#29=CC_DESIGN_DATE_AND_TIME_ASSIGNMENT(#13,#28,(#14)) ;
#17=DATE_TIME_ROLE('classification_date') ;
#28=DATE_TIME_ROLE('creation_date') ;
#27=CC_DESIGN_PERSON_AND_ORGANIZATION_ASSIGNMENT(#25,#26,(#16)) ;
#33=CC_DESIGN_PERSON_AND_ORGANIZATION_ASSIGNMENT(#25,#34,(#6)) ;
#35=CC_DESIGN_PERSON_AND_ORGANIZATION_ASSIGNMENT(#25,#36,(#6,#14)) ;
#37=CC_DESIGN_PERSON_AND_ORGANIZATION_ASSIGNMENT(#25,#38,(#5)) ;
#26=PERSON_AND_ORGANIZATION_ROLE('classification_officer') ;
#34=PERSON_AND_ORGANIZATION_ROLE('design_supplier') ;
#36=PERSON_AND_ORGANIZATION_ROLE('creator') ;
#38=PERSON_AND_ORGANIZATION_ROLE('design_owner') ;
#39=CC_DESIGN_SECURITY_CLASSIFICATION(#16,(#6)) ;
#165=CIRCLE('generated circle',#164,2.1) ;
#174=CIRCLE('generated circle',#173,2.1) ;
#183=CIRCLE('generated circle',#182,2.1) ;
#192=CIRCLE('generated circle',#191,2.1) ;
#232=CIRCLE('generated circle',#231,2.1) ;
#241=CIRCLE('generated circle',#240,2.1) ;
#250=CIRCLE('generated circle',#249,2.1) ;
#259=CIRCLE('generated circle',#258,2.1) ;
#351=CIRCLE('generated circle',#350,3.) ;
#365=CIRCLE('generated circle',#364,3.) ;
#386=CIRCLE('generated circle',#385,3.) ;
#400=CIRCLE('generated circle',#399,3.) ;
#417=CIRCLE('generated circle',#416,3.) ;
#422=CIRCLE('generated circle',#421,3.) ;
#434=CIRCLE('generated circle',#433,3.) ;
#439=CIRCLE('generated circle',#438,3.) ;
#858=SHAPE_REPRESENTATION_RELATIONSHIP(' ',' ',#49,#857) ;
#270=CYLINDRICAL_SURFACE('generated cylinder',#269,2.1) ;
#292=CYLINDRICAL_SURFACE('generated cylinder',#291,2.1) ;
#304=CYLINDRICAL_SURFACE('generated cylinder',#303,2.1) ;
#326=CYLINDRICAL_SURFACE('generated cylinder',#325,2.1) ;
#338=CYLINDRICAL_SURFACE('generated cylinder',#337,3.) ;
#413=CYLINDRICAL_SURFACE('generated cylinder',#412,3.) ;
#3=DESIGN_CONTEXT(' ',#1,'design') ;
#65=EDGE_CURVE('',#62,#64,#60,.T.) ;
#72=EDGE_CURVE('',#71,#64,#69,.T.) ;
#79=EDGE_CURVE('',#78,#71,#76,.T.) ;
#84=EDGE_CURVE('',#78,#62,#83,.T.) ;
#105=EDGE_CURVE('',#102,#104,#100,.T.) ;
#112=EDGE_CURVE('',#111,#104,#109,.T.) ;
#119=EDGE_CURVE('',#118,#111,#116,.T.) ;
#124=EDGE_CURVE('',#118,#102,#123,.T.) ;
#143=EDGE_CURVE('',#142,#78,#140,.T.) ;
#150=EDGE_CURVE('',#142,#149,#147,.T.) ;
#155=EDGE_CURVE('',#149,#62,#154,.T.) ;
#170=EDGE_CURVE('',#167,#169,#165,.T.) ;
#175=EDGE_CURVE('',#169,#167,#174,.T.) ;
#188=EDGE_CURVE('',#185,#187,#183,.T.) ;
#193=EDGE_CURVE('',#187,#185,#192,.T.) ;
#210=EDGE_CURVE('',#209,#118,#207,.T.) ;
#217=EDGE_CURVE('',#209,#216,#214,.T.) ;
#222=EDGE_CURVE('',#216,#102,#221,.T.) ;
#237=EDGE_CURVE('',#234,#236,#232,.T.) ;
#242=EDGE_CURVE('',#236,#234,#241,.T.) ;
#255=EDGE_CURVE('',#252,#254,#250,.T.) ;
#260=EDGE_CURVE('',#254,#252,#259,.T.) ;
#275=EDGE_CURVE('',#236,#167,#274,.T.) ;
#280=EDGE_CURVE('',#234,#169,#279,.T.) ;
#309=EDGE_CURVE('',#254,#185,#308,.T.) ;
#314=EDGE_CURVE('',#252,#187,#313,.T.) ;
#347=EDGE_CURVE('',#344,#346,#342,.T.) ;
#354=EDGE_CURVE('',#344,#353,#351,.F.) ;
#361=EDGE_CURVE('',#353,#360,#358,.T.) ;
#366=EDGE_CURVE('',#360,#346,#365,.T.) ;
#382=EDGE_CURVE('',#379,#381,#377,.T.) ;
#389=EDGE_CURVE('',#381,#388,#386,.T.) ;
#396=EDGE_CURVE('',#395,#388,#393,.T.) ;
#401=EDGE_CURVE('',#395,#379,#400,.F.) ;
#418=EDGE_CURVE('',#353,#344,#417,.F.) ;
#423=EDGE_CURVE('',#346,#360,#422,.T.) ;
#435=EDGE_CURVE('',#388,#381,#434,.T.) ;
#440=EDGE_CURVE('',#379,#395,#439,.F.) ;
#461=EDGE_CURVE('',#458,#460,#456,.T.) ;
#468=EDGE_CURVE('',#467,#458,#465,.T.) ;
#475=EDGE_CURVE('',#467,#474,#472,.T.) ;
#480=EDGE_CURVE('',#460,#474,#479,.T.) ;
#501=EDGE_CURVE('',#498,#500,#496,.T.) ;
#506=EDGE_CURVE('',#498,#460,#505,.T.) ;
#511=EDGE_CURVE('',#474,#500,#510,.F.) ;
#527=EDGE_CURVE('',#524,#526,#522,.T.) ;
#534=EDGE_CURVE('',#533,#524,#531,.T.) ;
#541=EDGE_CURVE('',#533,#540,#538,.T.) ;
#546=EDGE_CURVE('',#526,#540,#545,.T.) ;
#565=EDGE_CURVE('',#564,#71,#562,.T.) ;
#570=EDGE_CURVE('',#64,#498,#569,.T.) ;
#575=EDGE_CURVE('',#500,#111,#574,.T.) ;
#582=EDGE_CURVE('',#104,#581,#579,.T.) ;
#587=EDGE_CURVE('',#581,#564,#586,.T.) ;
#608=EDGE_CURVE('',#581,#526,#607,.T.) ;
#613=EDGE_CURVE('',#540,#564,#612,.F.) ;
#632=EDGE_CURVE('',#631,#467,#629,.T.) ;
#639=EDGE_CURVE('',#638,#458,#636,.T.) ;
#644=EDGE_CURVE('',#638,#631,#643,.T.) ;
#663=EDGE_CURVE('',#662,#209,#660,.T.) ;
#668=EDGE_CURVE('',#662,#631,#667,.T.) ;
#695=EDGE_CURVE('',#149,#694,#692,.T.) ;
#700=EDGE_CURVE('',#638,#694,#699,.F.) ;
#725=EDGE_CURVE('',#694,#662,#724,.T.) ;
#739=EDGE_CURVE('',#738,#533,#736,.T.) ;
#746=EDGE_CURVE('',#745,#524,#743,.T.) ;
#751=EDGE_CURVE('',#745,#738,#750,.T.) ;
#770=EDGE_CURVE('',#216,#769,#767,.T.) ;
#775=EDGE_CURVE('',#745,#769,#774,.F.) ;
#802=EDGE_CURVE('',#801,#142,#799,.T.) ;
#807=EDGE_CURVE('',#801,#738,#806,.T.) ;
#832=EDGE_CURVE('',#769,#801,#831,.T.) ;
#85=EDGE_LOOP('',(#86,#87,#88,#89)) ;
#125=EDGE_LOOP('',(#126,#127,#128,#129)) ;
#156=EDGE_LOOP('',(#157,#158,#159,#160)) ;
#176=EDGE_LOOP('',(#177,#178)) ;
#194=EDGE_LOOP('',(#195,#196)) ;
#223=EDGE_LOOP('',(#224,#225,#226,#227)) ;
#243=EDGE_LOOP('',(#244,#245)) ;
#261=EDGE_LOOP('',(#262,#263)) ;
#281=EDGE_LOOP('',(#282,#283,#284,#285)) ;
#293=EDGE_LOOP('',(#294,#295,#296,#297)) ;
#315=EDGE_LOOP('',(#316,#317,#318,#319)) ;
#327=EDGE_LOOP('',(#328,#329,#330,#331)) ;
#367=EDGE_LOOP('',(#368,#369,#370,#371)) ;
#402=EDGE_LOOP('',(#403,#404,#405,#406)) ;
#424=EDGE_LOOP('',(#425,#426,#427,#428)) ;
#441=EDGE_LOOP('',(#442,#443,#444,#445)) ;
#481=EDGE_LOOP('',(#482,#483,#484,#485)) ;
#512=EDGE_LOOP('',(#513,#514,#515,#516)) ;
#547=EDGE_LOOP('',(#548,#549,#550,#551)) ;
#588=EDGE_LOOP('',(#589,#590,#591,#592,#593,#594,#595,#596)) ;
#614=EDGE_LOOP('',(#615,#616,#617,#618)) ;
#645=EDGE_LOOP('',(#646,#647,#648,#649)) ;
#669=EDGE_LOOP('',(#670,#671,#672,#673,#674,#675,#676,#677)) ;
#679=EDGE_LOOP('',(#680,#681)) ;
#701=EDGE_LOOP('',(#702,#703,#704,#705,#706,#707,#708,#709)) ;
#711=EDGE_LOOP('',(#712,#713)) ;
#726=EDGE_LOOP('',(#727,#728,#729,#730)) ;
#752=EDGE_LOOP('',(#753,#754,#755,#756)) ;
#776=EDGE_LOOP('',(#777,#778,#779,#780,#781,#782,#783,#784)) ;
#786=EDGE_LOOP('',(#787,#788)) ;
#808=EDGE_LOOP('',(#809,#810,#811,#812,#813,#814,#815,#816)) ;
#818=EDGE_LOOP('',(#819,#820)) ;
#833=EDGE_LOOP('',(#834,#835,#836,#837,#838,#839,#840,#841)) ;
#849=EDGE_LOOP('',(#850,#851,#852,#853)) ;
#90=FACE_OUTER_BOUND('',#85,.T.) ;
#130=FACE_OUTER_BOUND('',#125,.T.) ;
#161=FACE_OUTER_BOUND('',#156,.T.) ;
#228=FACE_OUTER_BOUND('',#223,.T.) ;
#286=FACE_OUTER_BOUND('',#281,.T.) ;
#298=FACE_OUTER_BOUND('',#293,.T.) ;
#320=FACE_OUTER_BOUND('',#315,.T.) ;
#332=FACE_OUTER_BOUND('',#327,.T.) ;
#372=FACE_OUTER_BOUND('',#367,.T.) ;
#407=FACE_OUTER_BOUND('',#402,.T.) ;
#429=FACE_OUTER_BOUND('',#424,.T.) ;
#446=FACE_OUTER_BOUND('',#441,.T.) ;
#486=FACE_OUTER_BOUND('',#481,.T.) ;
#517=FACE_OUTER_BOUND('',#512,.T.) ;
#552=FACE_OUTER_BOUND('',#547,.T.) ;
#597=FACE_OUTER_BOUND('',#588,.T.) ;
#619=FACE_OUTER_BOUND('',#614,.T.) ;
#650=FACE_OUTER_BOUND('',#645,.T.) ;
#678=FACE_OUTER_BOUND('',#669,.T.) ;
#710=FACE_OUTER_BOUND('',#701,.T.) ;
#731=FACE_OUTER_BOUND('',#726,.T.) ;
#757=FACE_OUTER_BOUND('',#752,.T.) ;
#785=FACE_OUTER_BOUND('',#776,.T.) ;
#817=FACE_OUTER_BOUND('',#808,.T.) ;
#842=FACE_OUTER_BOUND('',#833,.T.) ;
#854=FACE_OUTER_BOUND('',#849,.T.) ;
#45=UNCERTAINTY_MEASURE_WITH_UNIT(LENGTH_MEASURE(0.005),#41,'distance_accuracy_value','CONFUSED CURVE UNCERTAINTY') ;
#60=LINE('Line',#57,#59) ;
#69=LINE('Line',#66,#68) ;
#76=LINE('Line',#73,#75) ;
#83=LINE('Line',#80,#82) ;
#100=LINE('Line',#97,#99) ;
#109=LINE('Line',#106,#108) ;
#116=LINE('Line',#113,#115) ;
#123=LINE('Line',#120,#122) ;
#140=LINE('Line',#137,#139) ;
#147=LINE('Line',#144,#146) ;
#154=LINE('Line',#151,#153) ;
#207=LINE('Line',#204,#206) ;
#214=LINE('Line',#211,#213) ;
#221=LINE('Line',#218,#220) ;
#274=LINE('Line',#271,#273) ;
#279=LINE('Line',#276,#278) ;
#308=LINE('Line',#305,#307) ;
#313=LINE('Line',#310,#312) ;
#342=LINE('Line',#339,#341) ;
#358=LINE('Line',#355,#357) ;
#377=LINE('Line',#374,#376) ;
#393=LINE('Line',#390,#392) ;
#456=LINE('Line',#453,#455) ;
#465=LINE('Line',#462,#464) ;
#472=LINE('Line',#469,#471) ;
#479=LINE('Line',#476,#478) ;
#496=LINE('Line',#493,#495) ;
#505=LINE('Line',#502,#504) ;
#510=LINE('Line',#507,#509) ;
#522=LINE('Line',#519,#521) ;
#531=LINE('Line',#528,#530) ;
#538=LINE('Line',#535,#537) ;
#545=LINE('Line',#542,#544) ;
#562=LINE('Line',#559,#561) ;
#569=LINE('Line',#566,#568) ;
#574=LINE('Line',#571,#573) ;
#579=LINE('Line',#576,#578) ;
#586=LINE('Line',#583,#585) ;
#607=LINE('Line',#604,#606) ;
#612=LINE('Line',#609,#611) ;
#629=LINE('Line',#626,#628) ;
#636=LINE('Line',#633,#635) ;
#643=LINE('Line',#640,#642) ;
#660=LINE('Line',#657,#659) ;
#667=LINE('Line',#664,#666) ;
#692=LINE('Line',#689,#691) ;
#699=LINE('Line',#696,#698) ;
#724=LINE('Line',#721,#723) ;
#736=LINE('Line',#733,#735) ;
#743=LINE('Line',#740,#742) ;
#750=LINE('Line',#747,#749) ;
#767=LINE('Line',#764,#766) ;
#774=LINE('Line',#771,#773) ;
#799=LINE('Line',#796,#798) ;
#806=LINE('Line',#803,#805) ;
#831=LINE('Line',#828,#830) ;
#2=MECHANICAL_CONTEXT(' ',#1,'mechanical') ;
#24=PERSONAL_ADDRESS(' ',' ',' ',' ',' ',' ',' ',' ',' ',' ',' ',' ',(#22),' ') ;
#56=PLANE('',#55) ;
#96=PLANE('',#95) ;
#136=PLANE('',#135) ;
#203=PLANE('',#202) ;
#452=PLANE('',#451) ;
#492=PLANE('',#491) ;
#558=PLANE('',#557) ;
#603=PLANE('',#602) ;
#625=PLANE('',#624) ;
#656=PLANE('',#655) ;
#688=PLANE('',#687) ;
#720=PLANE('',#719) ;
#763=PLANE('',#762) ;
#795=PLANE('',#794) ;
#827=PLANE('',#826) ;
#848=PLANE('',#847) ;
#43=PLANE_ANGLE_MEASURE_WITH_UNIT(PLANE_ANGLE_MEASURE(0.0174532925199),#42) ;
#7=PRODUCT_CATEGORY('part',$) ;
#9=PRODUCT_CATEGORY_RELATIONSHIP(' ',' ',#7,#8) ;
#6=PRODUCT_DEFINITION_FORMATION_WITH_SPECIFIED_SOURCE('',' ',#5,.NOT_KNOWN.) ;
#8=PRODUCT_RELATED_PRODUCT_CATEGORY('detail',$,(#5)) ;
#50=SHAPE_DEFINITION_REPRESENTATION(#40,#49) ;
#62=VERTEX_POINT('',#61) ;
#64=VERTEX_POINT('',#63) ;
#71=VERTEX_POINT('',#70) ;
#78=VERTEX_POINT('',#77) ;
#102=VERTEX_POINT('',#101) ;
#104=VERTEX_POINT('',#103) ;
#111=VERTEX_POINT('',#110) ;
#118=VERTEX_POINT('',#117) ;
#142=VERTEX_POINT('',#141) ;
#149=VERTEX_POINT('',#148) ;
#167=VERTEX_POINT('',#166) ;
#169=VERTEX_POINT('',#168) ;
#185=VERTEX_POINT('',#184) ;
#187=VERTEX_POINT('',#186) ;
#209=VERTEX_POINT('',#208) ;
#216=VERTEX_POINT('',#215) ;
#234=VERTEX_POINT('',#233) ;
#236=VERTEX_POINT('',#235) ;
#252=VERTEX_POINT('',#251) ;
#254=VERTEX_POINT('',#253) ;
#344=VERTEX_POINT('',#343) ;
#346=VERTEX_POINT('',#345) ;
#353=VERTEX_POINT('',#352) ;
#360=VERTEX_POINT('',#359) ;
#379=VERTEX_POINT('',#378) ;
#381=VERTEX_POINT('',#380) ;
#388=VERTEX_POINT('',#387) ;
#395=VERTEX_POINT('',#394) ;
#458=VERTEX_POINT('',#457) ;
#460=VERTEX_POINT('',#459) ;
#467=VERTEX_POINT('',#466) ;
#474=VERTEX_POINT('',#473) ;
#498=VERTEX_POINT('',#497) ;
#500=VERTEX_POINT('',#499) ;
#524=VERTEX_POINT('',#523) ;
#526=VERTEX_POINT('',#525) ;
#533=VERTEX_POINT('',#532) ;
#540=VERTEX_POINT('',#539) ;
#564=VERTEX_POINT('',#563) ;
#581=VERTEX_POINT('',#580) ;
#631=VERTEX_POINT('',#630) ;
#638=VERTEX_POINT('',#637) ;
#662=VERTEX_POINT('',#661) ;
#694=VERTEX_POINT('',#693) ;
#738=VERTEX_POINT('',#737) ;
#745=VERTEX_POINT('',#744) ;
#769=VERTEX_POINT('',#768) ;
#801=VERTEX_POINT('',#800) ;
#41=(LENGTH_UNIT()NAMED_UNIT(*)SI_UNIT(.MILLI.,.METRE.)) ;
#42=(NAMED_UNIT(*)PLANE_ANGLE_UNIT()SI_UNIT($,.RADIAN.)) ;
#44=(NAMED_UNIT(*)SI_UNIT($,.STERADIAN.)SOLID_ANGLE_UNIT()) ;
#46=(GEOMETRIC_REPRESENTATION_CONTEXT(3)GLOBAL_UNCERTAINTY_ASSIGNED_CONTEXT((#45))GLOBAL_UNIT_ASSIGNED_CONTEXT((#41,#42,#44))REPRESENTATION_CONTEXT(' ',' ')) ;
ENDSEC;
END-ISO-10303-21;
